; NON-PLATED HOLES START AT T1
; THROUGH (PLATED) HOLES START AT T100
M48
INCH
T1C0.125984
T100C0.039370
T101C0.040000
T102C0.015748
T103C0.035000
T104C0.030000
T105C0.031497
T106C0.038000
T107C0.098425
%
T1
X050718Y024778
X050718Y001778
X001718Y024778
X001718Y001778
T100
X008718Y017778
X015218Y007078
X016718Y015778
X008718Y014778
X013218Y007078
X016718Y012778
X012218Y007078
X008718Y011778
X016718Y017778
X008718Y016778
X008718Y009778
X016718Y014778
X008718Y013778
X016718Y011778
X008718Y010778
X014218Y007078
X008718Y018778
X011218Y007078
X016718Y016778
X016718Y009778
X008718Y015778
X010218Y007078
X016718Y013778
X008718Y012778
X016718Y010778
X016718Y018778
T101
X050718Y017778
X049718Y018778
X050718Y007778
X049718Y015778
X049718Y008778
X049718Y005778
X050718Y019778
X002718Y018778
X050718Y016778
X050718Y009778
X049718Y017778
X050718Y006778
X049718Y007778
X050718Y018778
X049718Y019778
X002718Y020746
X050718Y015778
X002718Y006746
X050718Y008778
X049718Y016778
X049718Y009778
X050718Y005778
X049718Y006778
X002718Y004778
T102
X046718Y012778
X037718Y002778
X047718Y020778
X046718Y025778
X019718Y022778
X049718Y012778
X047718Y012778
X026718Y024778
X025718Y008778
X028718Y016778
X041718Y023778
X031718Y005778
X026718Y008778
X040718Y007778
X045718Y015778
X043718Y015778
X021718Y022778
X044718Y002778
X046718Y015778
X044718Y015778
X030718Y008778
X047718Y007778
X045718Y013778
X051718Y023778
X028718Y020778
X022718Y012778
X027557Y017042
X034718Y001778
X045718Y024778
X039718Y022778
X045718Y003778
X027718Y017778
X040718Y008778
X027718Y009778
X046718Y003778
X022718Y010778
X028718Y010778
X024718Y002778
X027718Y023778
X019728Y005791
X030718Y009778
X025718Y021778
X030718Y010778
X046718Y001778
X025718Y000778
X021721Y010768
X026718Y018778
X021721Y012774
T103
X024718Y009778
X020718Y009778
T104
X031718Y019778
X020718Y006776
X026718Y012778
X031718Y022778
X035718Y012778
X034718Y004778
X025718Y023779
X033718Y015778
X032718Y007778
X034718Y019778
X029718Y012778
X025718Y022778
X034718Y022778
X027718Y015778
X038718Y012778
X037718Y004778
X036718Y015778
X035718Y007778
X020718Y004778
X037718Y019778
X030718Y012778
X037718Y022778
X038718Y007778
X006718Y008778
X033718Y012778
X032718Y004778
X031718Y015778
X030718Y007778
X006718Y007776
X032718Y019778
X027718Y012778
X032718Y022778
X036718Y012778
X025718Y015778
X035718Y004778
X034718Y015778
X033718Y007778
X035718Y019778
X035718Y022778
X028718Y015778
X038718Y004778
X037718Y015778
X036718Y007778
X038718Y019778
X031718Y012778
X030718Y004778
X038718Y022778
X030718Y019778
X025718Y012778
X030718Y022778
X034718Y012778
X033718Y004778
X032718Y015778
X031718Y007778
X033718Y019778
X028718Y012778
X033718Y022778
X037718Y012778
X026718Y015778
X036718Y004778
X035718Y015778
X034718Y007778
X036718Y019778
X036718Y022778
X029718Y015778
X038718Y015778
X037718Y007778
X019717Y004778
X032718Y012778
X031718Y004778
X020718Y007778
X030718Y015778
T105
X003718Y010778
X003718Y014793
X003718Y015778
X003718Y009793
T106
X013718Y004778
X012718Y004778
X011718Y004778
X010718Y004778
X009718Y004778
X014718Y004778
T107
X016718Y020278
X008718Y007278
X016718Y007278
X008718Y020278
T00
M30
