; NON-PLATED HOLES START AT T1
; THROUGH (PLATED) HOLES START AT T100
M48
INCH
T1C0.125984
T100C0.030000
T101C0.031497
T102C0.038000
T103C0.098425
T104C0.039370
T105C0.040000
T106C0.015748
T107C0.035000
%
T1
X047218Y024444
X047218Y001444
X001718Y024444
X001718Y001444
T100
X040218Y016944
X040218Y004444
X023718Y012444
X037218Y018944
X037218Y006444
X032718Y012444
X021718Y015444
X030718Y015444
X037218Y021944
X040218Y015944
X040218Y003444
X037218Y017944
X037218Y005444
X026718Y012444
X024718Y015444
X037218Y020944
X033718Y015444
X037218Y016944
X037218Y004444
X029718Y012444
X027718Y015444
X037218Y015944
X037218Y003444
X021718Y012444
X030718Y012444
X038217Y001944
X024718Y012444
X039218Y014444
X033718Y012444
X022718Y015444
X031718Y015444
X027718Y012444
X026718Y016944
X025718Y015444
X034718Y015444
X040218Y009444
X028718Y015444
X022718Y012444
X031718Y012444
X040218Y008444
X040218Y023944
X040218Y011444
X007218Y011446
X025718Y012444
X040218Y019944
X040218Y007444
X023718Y015444
X034718Y012444
X037218Y009444
X032718Y015444
X040218Y022944
X040218Y010444
X007218Y010444
X040218Y018944
X040218Y006444
X038217Y014444
X028718Y012444
X037218Y008444
X039218Y001944
X026718Y015444
X040218Y021944
X037218Y023944
X037218Y011444
X040218Y017944
X040218Y005444
X037218Y019944
X037218Y007444
X025717Y016944
X040218Y020944
X029718Y015444
X037218Y022944
X037218Y010444
T101
X006234Y023444
X003718Y015444
X003718Y014460
X007218Y023444
X003718Y009460
X003718Y010444
T102
X015218Y004444
X014218Y004444
X013218Y004444
X012218Y004444
X011218Y004444
X010218Y004444
T103
X016718Y006944
X016718Y019944
X008718Y019944
X008718Y006944
T104
X016718Y009444
X008718Y015444
X016718Y013444
X008718Y012444
X015218Y006744
X016718Y010444
X012218Y006744
X016718Y018444
X011218Y006744
X008718Y017444
X016718Y015444
X008718Y014444
X016718Y012444
X008718Y011444
X016718Y017444
X014218Y006744
X008718Y016444
X008718Y009444
X013218Y006744
X016718Y014444
X008718Y013444
X016718Y011444
X008718Y010444
X010218Y006744
X008718Y018444
X016718Y016444
T105
X002718Y020413
X044218Y017944
X002718Y006413
X043218Y017944
X044218Y005444
X002718Y004444
X043218Y005444
X044218Y019944
X043218Y019944
X044218Y016944
X044218Y007444
X043218Y016944
X043218Y007444
X044218Y004444
X043218Y004444
X002718Y018444
X044218Y018944
X043218Y018944
X044218Y015944
X044218Y006444
X043218Y015944
X043218Y006444
X044218Y003444
X043218Y003444
T106
X020716Y018958
X030728Y008439
X028727Y010440
X034730Y023945
X028727Y017943
X031728Y020944
X025726Y014441
X029728Y018943
X032729Y021944
X034730Y004438
X029728Y009440
X033729Y005438
X037230Y014441
X030728Y019944
X032729Y006438
X033729Y022945
X031728Y007439
T107
X020718Y010944
X012718Y023444
X008718Y023444
X024718Y010944
T00
M30
