M48
METRIC,LZ,000.000
;FILE_FORMAT=3:3
;TYPE=PLATED
;Layer: PTH_Through
;EasyEDA v6.5.8, 2022-08-15 07:29:34
;028e3914a6f949ed9ca799ef75e4ed4f,10
;Gerber Generator version 0.2
;Holesize 1 = 0.305 mm
T01C0.305
;Holesize 2 = 0.501 mm
T02C0.501
;Holesize 3 = 0.712 mm
T03C0.712
;Holesize 4 = 0.800 mm
T04C0.800
;Holesize 5 = 0.889 mm
T05C0.889
;Holesize 6 = 1.000 mm
T06C1.000
;Holesize 7 = 1.100 mm
T07C1.100
;Holesize 8 = 1.200 mm
T08C1.200
;Holesize 9 = 2.500 mm
T09C2.500
%
G05
G90
T01
X077851Y045847
X080391Y043688
X082931Y041148
X085471Y038608
X088011Y036068
X090678Y033528
X093091Y030988
X099187Y057277
X070358Y057150
X077851Y066802
X080391Y069342
X080391Y069342
X082931Y071882
X085598Y074422
X088138Y076962
X090678Y079502
X093091Y082042
X057658Y069469
X051435Y043434
X043180Y041529
X043180Y047117
T02
X067691Y048133
X057531Y048133
T03
X101854Y023876
X104394Y023876
X101727Y057277
X104267Y057277
X070358Y063119
X072898Y063119
X022098Y046101
X022098Y048641
X098933Y048768
X098933Y046228
X098933Y033528
X098933Y030988
X098933Y043688
X098933Y041148
X098933Y036068
X098933Y038608
X098933Y028448
X106553Y028448
X106553Y030988
X106553Y033528
X106553Y036068
X106553Y038608
X106553Y041148
X106553Y043688
X106553Y046228
X106553Y048768
X099060Y082042
X099060Y079502
X099060Y066802
X099060Y064262
X099060Y076962
X099060Y074422
X099060Y069342
X099060Y071882
X099060Y061722
X106680Y061722
X106680Y064262
X106680Y066802
X106680Y069342
X106680Y071882
X106680Y074422
X106680Y076962
X106680Y079502
X106680Y082042
T04
X021209Y079375
X023749Y079375
X028575Y079375
X038735Y079375
T05
X014605Y059436
X014605Y061976
T06
X014732Y043434
X014732Y045974
X088011Y052070
X085471Y052070
X082931Y052070
X080391Y052070
X077851Y052070
X075311Y052070
X072771Y052070
X072771Y059690
X090551Y052070
X093091Y052070
X075311Y059690
X077851Y059690
X080391Y059690
X082931Y059690
X085471Y059690
X088011Y059690
X090551Y059690
X093091Y059690
X070231Y059690
X067691Y059690
X065151Y059690
X062611Y059690
X060071Y059690
X060071Y052070
X062611Y052070
X065151Y052070
X067691Y052070
X070231Y052070
X047752Y043561
X047752Y046101
X047752Y048641
X047752Y051181
X047752Y053721
X047752Y056261
X047752Y058801
X047752Y061341
X047752Y063881
X047752Y066421
X043942Y036703
X031242Y036703
X033782Y036703
X036322Y036703
X038862Y036703
X041402Y036703
X027432Y043561G85X027432Y043561
X027432Y066421
X027432Y063881
X027432Y061341
X027432Y058801
X027432Y056261
X027432Y053721
X027432Y051181
X027432Y048641
X027432Y046101
X027432Y043561
T07
X118745Y028318G85X118745Y028324
X116205Y028318G85X116205Y028324
X118745Y030858G85X118745Y030864
X116205Y030858G85X116205Y030864
X118745Y033398G85X118745Y033404
X116205Y033398G85X116205Y033404
X118745Y035938G85X118745Y035944
X116205Y035938G85X116205Y035944
X118745Y038478G85X118745Y038484
X116205Y038478G85X116205Y038484
X118872Y061846G85X118872Y061852
X116332Y061846G85X116332Y061852
X118872Y064386G85X118872Y064392
X116332Y064386G85X116332Y064392
X118872Y066926G85X118872Y066932
X116332Y066926G85X116332Y066932
X118872Y069466G85X118872Y069472
X116332Y069466G85X116332Y069472
X118872Y072006G85X118872Y072012
X116332Y072006G85X116332Y072012
T08
X044069Y029972
X041529Y029972
X038989Y029972
X036449Y029972
X033909Y029972
X031369Y029972
X011049Y035166G85X011049Y035160
X011049Y031665G85X011049Y031660
X011049Y074790G85X011049Y074784
X011049Y071289G85X011049Y071284
T09
X047752Y070231
X047752Y037211
X027432Y037211
X027432Y070231
M30
