G04 Layer: BottomLayer*
G04 EasyEDA v6.5.8, 2022-08-15 07:29:34*
G04 028e3914a6f949ed9ca799ef75e4ed4f,10*
G04 Gerber Generator version 0.2*
G04 Scale: 100 percent, Rotated: No, Reflected: No *
G04 Dimensions in millimeters *
G04 leading zeros omitted , absolute positions ,4 integer and 5 decimal *
%FSLAX45Y45*%
%MOMM*%

%ADD10C,1.2190*%
%ADD11C,0.6100*%
%ADD12C,0.6096*%
%ADD13C,1.8000*%
%ADD14R,2.3000X1.6500*%
%ADD15C,1.1938*%
%ADD16R,1.6510X1.6510*%
%ADD17C,1.6510*%
%ADD18R,2.0320X2.0320*%
%ADD19C,2.0320*%
%ADD20C,1.7780*%
%ADD21C,1.8796*%
%ADD22R,1.6000X1.6000*%
%ADD23C,3.5052*%
%ADD24R,1.6002X1.6002*%
%ADD25C,2.0000*%
%ADD26C,0.6200*%
%ADD27C,1.6500*%
%ADD28C,1.6000*%
%ADD29C,0.0194*%

%LPD*%
D10*
X6261100Y5207000D02*
G01*
X6007100Y5207000D01*
D11*
X4318000Y4152900D02*
G01*
X4318000Y4711700D01*
D10*
X9893300Y2844800D02*
G01*
X6642100Y2844800D01*
X5143500Y4343400D01*
D12*
X4394200Y3670300D02*
G01*
X4406900Y3657600D01*
X4406900Y2997200D01*
X4140200Y3670300D02*
G01*
X4152900Y3657600D01*
X4152900Y2997200D01*
X3886200Y3670300D02*
G01*
X3898900Y3657600D01*
X3898900Y2997200D01*
X3632200Y3670300D02*
G01*
X3644900Y3657600D01*
X3644900Y2997200D01*
X3378200Y3670300D02*
G01*
X3390900Y3657600D01*
X3390900Y2997200D01*
X3124200Y3670300D02*
G01*
X3136900Y3657600D01*
X3136900Y2997200D01*
X2120900Y7937500D02*
G01*
X2095500Y7962900D01*
X1676400Y7962900D01*
X1674876Y7478776D01*
X1104900Y7478776D01*
X2374900Y7937500D02*
G01*
X2857500Y7937500D01*
D10*
X1104900Y7128687D02*
G01*
X1108887Y7124700D01*
X2247900Y7124700D01*
X2273300Y7150100D01*
X2273300Y7378700D01*
X3873500Y7378700D01*
X3873500Y7937500D01*
X1460500Y6197600D02*
G01*
X1104900Y6553200D01*
X1104900Y7128687D01*
D12*
X1460500Y5943600D02*
G01*
X1524000Y5880100D01*
X2743200Y5880100D01*
D10*
X6007100Y5207000D02*
G01*
X5156200Y5207000D01*
X5143500Y5194300D01*
X5143500Y4343400D01*
X5143500Y4343400D02*
G01*
X5143500Y4343400D01*
X5130800Y4356100D01*
X4775200Y4356100D01*
X6515100Y5207000D02*
G01*
X6261100Y5207000D01*
D12*
X6769100Y5207000D02*
G01*
X6769100Y4813300D01*
D11*
X9893300Y3098800D02*
G01*
X9309100Y3098800D01*
X9893300Y3352800D02*
G01*
X9067800Y3352800D01*
X9893300Y3606800D02*
G01*
X8801100Y3606800D01*
X9893300Y3860800D02*
G01*
X8547100Y3860800D01*
X9893300Y4114800D02*
G01*
X8293100Y4114800D01*
X9893300Y4368800D02*
G01*
X8039100Y4368800D01*
X9893300Y4622800D02*
G01*
X9855200Y4584700D01*
X7785100Y4584700D01*
X9906000Y4876800D02*
G01*
X7543800Y4876800D01*
X7543800Y5130800D01*
D12*
X10668000Y8204200D02*
G01*
X10680700Y8191500D01*
X12153900Y8191500D01*
X12153900Y6438900D01*
X11887200Y6438900D01*
X10668000Y7442200D02*
G01*
X11899900Y7442200D01*
X11887200Y7429500D01*
X11887200Y7200900D01*
X10668000Y7188200D02*
G01*
X10680700Y7200900D01*
X11633200Y7200900D01*
X10668000Y6934200D02*
G01*
X10680700Y6946900D01*
X11633200Y6946900D01*
X10668000Y6680200D02*
G01*
X10680700Y6692900D01*
X11633200Y6692900D01*
X10668000Y6426200D02*
G01*
X10680700Y6438900D01*
X11633200Y6438900D01*
X10668000Y6172200D02*
G01*
X10934700Y6172200D01*
X10934700Y5892800D01*
X11887200Y5892800D01*
X11887200Y6184900D01*
X10426700Y5727700D02*
G01*
X10680700Y5727700D01*
X10668000Y5740400D01*
X10668000Y6172200D01*
X10426700Y5727700D02*
G01*
X10363200Y5664200D01*
X10363200Y2921000D01*
X10439400Y2844800D01*
X10655300Y2844800D01*
X10439400Y2387600D02*
G01*
X10655300Y2387600D01*
X10655300Y2844800D01*
D10*
X11620500Y2832100D02*
G01*
X11595100Y2806700D01*
X11595100Y2044700D01*
X10198100Y2044700D01*
X10185400Y2057400D01*
X10185400Y2387600D01*
X9893300Y2844800D02*
G01*
X9918700Y2819400D01*
X9918700Y2400300D01*
X9931400Y2387600D01*
X10185400Y2387600D01*
D12*
X2209800Y4864100D02*
G01*
X2743200Y4864100D01*
D10*
X2209800Y4610100D02*
G01*
X2197100Y4597400D01*
X2197100Y4368800D01*
X2209800Y4356100D01*
X2743200Y4356100D01*
X2209800Y4610100D02*
G01*
X2197100Y4597400D01*
X1473200Y4597400D01*
X1473200Y4597400D02*
G01*
X1117600Y4953000D01*
X1117600Y6197600D01*
X1460500Y6197600D01*
D12*
X1104900Y3166287D02*
G01*
X1108887Y3162300D01*
X2032000Y3162300D01*
X2032000Y3975100D01*
X4508500Y3975100D01*
X4508500Y5854700D01*
X4533900Y5880100D01*
X4775200Y5880100D01*
X1473200Y4343400D02*
G01*
X1473200Y4114800D01*
X3060700Y4114800D01*
X3060700Y5626100D01*
X2743200Y5626100D01*
X6261100Y5969000D02*
G01*
X6261100Y5803900D01*
X6197600Y5740400D01*
X5130800Y5740400D01*
X4991100Y5880100D01*
X4775200Y5880100D01*
X4775200Y6134100D02*
G01*
X6502400Y6134100D01*
X6515100Y6121400D01*
X6515100Y5969000D01*
D10*
X9918700Y5727700D02*
G01*
X9918700Y5727700D01*
X10172700Y5727700D01*
X10172700Y5727700D02*
G01*
X10185400Y5715000D01*
X10185400Y2387600D01*
X9906000Y6172200D02*
G01*
X9918700Y6159500D01*
X9918700Y5727700D01*
X7023100Y5969000D02*
G01*
X7035800Y5956300D01*
X7035800Y5715000D01*
X7035800Y5715000D02*
G01*
X7023100Y5702300D01*
X6515100Y5702300D01*
X6515100Y5207000D01*
X7035800Y5715000D02*
G01*
X7035800Y5715000D01*
X7048500Y5727700D01*
X9918700Y5727700D01*
X7035800Y6311900D02*
G01*
X7023100Y6299200D01*
X7023100Y5969000D01*
D12*
X7289800Y6311900D02*
G01*
X7277100Y6299200D01*
X7277100Y5969000D01*
X5765800Y6946900D02*
G01*
X7302500Y6946900D01*
X7289800Y6934200D01*
X7289800Y6311900D01*
X9906000Y6426200D02*
G01*
X7531100Y6426200D01*
X7531100Y5969000D01*
X9906000Y6680200D02*
G01*
X7785100Y6680200D01*
X9906000Y6934200D02*
G01*
X8039100Y6934200D01*
X9906000Y7188200D02*
G01*
X8293100Y7188200D01*
X9906000Y7442200D02*
G01*
X8559800Y7442200D01*
X9906000Y7696200D02*
G01*
X8813800Y7696200D01*
X9906000Y7950200D02*
G01*
X9067800Y7950200D01*
X9906000Y8204200D02*
G01*
X9309100Y8204200D01*
X10655300Y4622800D02*
G01*
X12280900Y4622800D01*
X12280900Y3327400D01*
X12268200Y3340100D01*
X11874500Y3340100D01*
X10655300Y4368800D02*
G01*
X12128500Y4368800D01*
X12128500Y3581400D01*
X12115800Y3594100D01*
X11874500Y3594100D01*
D13*
G01*
X4406900Y2997200D03*
G01*
X4152900Y2997200D03*
G01*
X3898900Y2997200D03*
G01*
X3644900Y2997200D03*
G01*
X3390900Y2997200D03*
G36*
X3046900Y3087199D02*
G01*
X3226899Y3087199D01*
X3226899Y2907200D01*
X3046900Y2907200D01*
G37*
D14*
G01*
X1473200Y4343400D03*
D15*
G01*
X10185400Y2387600D03*
G01*
X10439400Y2387600D03*
G01*
X10172700Y5727700D03*
G01*
X10426700Y5727700D03*
G01*
X7035800Y6311900D03*
G01*
X7289800Y6311900D03*
G01*
X2209800Y4610100D03*
G01*
X2209800Y4864100D03*
D13*
G01*
X2120900Y7937500D03*
G36*
X2284907Y8027492D02*
G01*
X2464892Y8027492D01*
X2464892Y7847507D01*
X2284907Y7847507D01*
G37*
D16*
G01*
X1460500Y5943600D03*
D17*
G01*
X1460500Y6197600D03*
D18*
G01*
X1104900Y3516299D03*
D19*
G01*
X1104900Y3166287D03*
D18*
G01*
X1104900Y7478699D03*
D19*
G01*
X1104900Y7128687D03*
D16*
G01*
X11874500Y2832100D03*
D20*
G01*
X11620500Y2832100D03*
G01*
X11874500Y3086100D03*
G01*
X11620500Y3086100D03*
G01*
X11874500Y3340100D03*
G01*
X11620500Y3340100D03*
G01*
X11874500Y3594100D03*
G01*
X11620500Y3594100D03*
G01*
X11874500Y3848100D03*
G01*
X11620500Y3848100D03*
D16*
G01*
X11887200Y6184900D03*
D20*
G01*
X11633200Y6184900D03*
G01*
X11887200Y6438900D03*
G01*
X11633200Y6438900D03*
G01*
X11887200Y6692900D03*
G01*
X11633200Y6692900D03*
G01*
X11887200Y6946900D03*
G01*
X11633200Y6946900D03*
G01*
X11887200Y7200900D03*
G01*
X11633200Y7200900D03*
D21*
G01*
X6769100Y4813300D03*
G01*
X5753100Y4813300D03*
D22*
G01*
X9309100Y5969000D03*
D23*
G01*
X4775200Y7023100D03*
D20*
G01*
X4775200Y4356100D03*
G01*
X4775200Y4610100D03*
G01*
X4775200Y4864100D03*
G01*
X4775200Y5118100D03*
G01*
X4775200Y5372100D03*
G01*
X4775200Y5626100D03*
G01*
X4775200Y5880100D03*
G01*
X4775200Y6134100D03*
G01*
X4775200Y6388100D03*
G01*
X4775200Y6642100D03*
D23*
G01*
X4775200Y3721100D03*
D20*
G01*
X4394200Y3670300D03*
G01*
X3124200Y3670300D03*
G01*
X3378200Y3670300D03*
G01*
X3632200Y3670300D03*
G01*
X3886200Y3670300D03*
G01*
X4140200Y3670300D03*
D23*
G01*
X2743200Y3721100D03*
D20*
G01*
X2743200Y4356100D03*
G01*
X2743200Y6642100D03*
G01*
X2743200Y6388100D03*
G01*
X2743200Y6134100D03*
G01*
X2743200Y5880100D03*
G01*
X2743200Y5626100D03*
G01*
X2743200Y5372100D03*
G01*
X2743200Y5118100D03*
G01*
X2743200Y4864100D03*
G01*
X2743200Y4610100D03*
G01*
X2743200Y4356100D03*
D23*
G01*
X2743200Y7023100D03*
D24*
G01*
X9893300Y4876800D03*
G01*
X9893300Y4622800D03*
G01*
X9893300Y3352800D03*
G01*
X9893300Y3098800D03*
G01*
X9893300Y4368800D03*
G01*
X9893300Y4114800D03*
G01*
X9893300Y3606800D03*
G01*
X9893300Y3860800D03*
G01*
X9893300Y2844800D03*
G01*
X10655300Y2844800D03*
G01*
X10655300Y3098800D03*
G01*
X10655300Y3352800D03*
G01*
X10655300Y3606800D03*
G01*
X10655300Y3860800D03*
G01*
X10655300Y4114800D03*
G01*
X10655300Y4368800D03*
G01*
X10655300Y4622800D03*
G01*
X10655300Y4876800D03*
G01*
X9906000Y8204200D03*
G01*
X9906000Y7950200D03*
G01*
X9906000Y6680200D03*
G01*
X9906000Y6426200D03*
G01*
X9906000Y7696200D03*
G01*
X9906000Y7442200D03*
G01*
X9906000Y6934200D03*
G01*
X9906000Y7188200D03*
G01*
X9906000Y6172200D03*
G01*
X10668000Y6172200D03*
G01*
X10668000Y6426200D03*
G01*
X10668000Y6680200D03*
G01*
X10668000Y6934200D03*
G01*
X10668000Y7188200D03*
G01*
X10668000Y7442200D03*
G01*
X10668000Y7696200D03*
G01*
X10668000Y7950200D03*
G01*
X10668000Y8204200D03*
D25*
G01*
X2857500Y7937500D03*
G01*
X3873500Y7937500D03*
D26*
G01*
X7785100Y4584700D03*
G01*
X8039100Y4368800D03*
G01*
X8293100Y4114800D03*
G01*
X8547100Y3860800D03*
G01*
X8801100Y3606800D03*
G01*
X9067800Y3352800D03*
G01*
X9309100Y3098800D03*
G01*
X9918700Y5727700D03*
D11*
G01*
X7035800Y5715000D03*
G01*
X7785100Y6680200D03*
G01*
X8039100Y6934200D03*
G01*
X8039100Y6934200D03*
G01*
X8293100Y7188200D03*
G01*
X8559800Y7442200D03*
G01*
X8813800Y7696200D03*
G01*
X9067800Y7950200D03*
D26*
G01*
X9309100Y8204200D03*
G01*
X5765800Y6946900D03*
D11*
G01*
X5143500Y4343400D03*
D26*
G01*
X4318000Y4152900D03*
G01*
X4318000Y4711700D03*
D27*
X1505699Y4597400D02*
G01*
X1440700Y4597400D01*
D28*
X8801100Y5207000D02*
G01*
X8801100Y5207000D01*
X8547100Y5207000D02*
G01*
X8547100Y5207000D01*
X8293100Y5207000D02*
G01*
X8293100Y5207000D01*
X8039100Y5207000D02*
G01*
X8039100Y5207000D01*
X7785100Y5207000D02*
G01*
X7785100Y5207000D01*
X7531100Y5207000D02*
G01*
X7531100Y5207000D01*
X7277100Y5207000D02*
G01*
X7277100Y5207000D01*
X7277100Y5969000D02*
G01*
X7277100Y5969000D01*
X9055100Y5207000D02*
G01*
X9055100Y5207000D01*
X9309100Y5207000D02*
G01*
X9309100Y5207000D01*
X7531100Y5969000D02*
G01*
X7531100Y5969000D01*
X7785100Y5969000D02*
G01*
X7785100Y5969000D01*
X8039100Y5969000D02*
G01*
X8039100Y5969000D01*
X8293100Y5969000D02*
G01*
X8293100Y5969000D01*
X8547100Y5969000D02*
G01*
X8547100Y5969000D01*
X8801100Y5969000D02*
G01*
X8801100Y5969000D01*
X9055100Y5969000D02*
G01*
X9055100Y5969000D01*
X7023100Y5969000D02*
G01*
X7023100Y5969000D01*
X6769100Y5969000D02*
G01*
X6769100Y5969000D01*
X6515100Y5969000D02*
G01*
X6515100Y5969000D01*
X6261100Y5969000D02*
G01*
X6261100Y5969000D01*
X6007100Y5969000D02*
G01*
X6007100Y5969000D01*
X6007100Y5207000D02*
G01*
X6007100Y5207000D01*
X6261100Y5207000D02*
G01*
X6261100Y5207000D01*
X6515100Y5207000D02*
G01*
X6515100Y5207000D01*
X6769100Y5207000D02*
G01*
X6769100Y5207000D01*
X7023100Y5207000D02*
G01*
X7023100Y5207000D01*
M02*
