G04 Layer: TopLayer*
G04 EasyEDA v6.5.8, 2022-08-15 07:29:34*
G04 028e3914a6f949ed9ca799ef75e4ed4f,10*
G04 Gerber Generator version 0.2*
G04 Scale: 100 percent, Rotated: No, Reflected: No *
G04 Dimensions in millimeters *
G04 leading zeros omitted , absolute positions ,4 integer and 5 decimal *
%FSLAX45Y45*%
%MOMM*%

%ADD10C,0.6100*%
%ADD11C,1.2190*%
%ADD12C,0.6096*%
%ADD13C,1.8000*%
%ADD14R,2.3000X1.6500*%
%ADD15C,1.1938*%
%ADD16R,1.6510X1.6510*%
%ADD17C,1.6510*%
%ADD18R,2.0320X2.0320*%
%ADD19C,2.0320*%
%ADD20C,1.7780*%
%ADD21C,1.8796*%
%ADD22R,1.6000X1.6000*%
%ADD23C,3.5052*%
%ADD24R,1.6002X1.6002*%
%ADD25C,2.0000*%
%ADD26C,0.6200*%
%ADD27C,1.6500*%
%ADD28C,1.6000*%
%ADD29C,0.0175*%

%LPD*%
D10*
X4318000Y4711700D02*
G01*
X4318000Y6121400D01*
X4330700Y6134100D01*
X4775200Y6134100D01*
X1104900Y3516376D02*
G01*
X2311400Y3517900D01*
X2311400Y3987800D01*
X4318000Y3987800D01*
X4318000Y4152900D01*
D11*
X2743200Y4356100D02*
G01*
X4775200Y4356100D01*
D12*
X1104900Y7478776D02*
G01*
X2209800Y7480300D01*
X2209800Y4864100D01*
D10*
X9309100Y3098800D02*
G01*
X9309100Y5130800D01*
X9067800Y3352800D02*
G01*
X9055100Y3365500D01*
X9055100Y5130800D01*
X8801100Y3606800D02*
G01*
X8801100Y5130800D01*
X8547100Y5130800D02*
G01*
X8547100Y3860800D01*
X8293100Y4114800D02*
G01*
X8293100Y5130800D01*
X8039100Y4368800D02*
G01*
X8039100Y5130800D01*
X7785100Y4584700D02*
G01*
X7785100Y5130800D01*
D12*
X10668000Y7950200D02*
G01*
X10680700Y7937500D01*
X12293600Y7937500D01*
X12306300Y7924800D01*
X12306300Y6692900D01*
X11887200Y6692900D01*
X10668000Y7696200D02*
G01*
X12153900Y7696200D01*
X12141200Y7683500D01*
X12141200Y6934200D01*
X12128500Y6946900D01*
X11887200Y6946900D01*
X10655300Y2844800D02*
G01*
X10934700Y2844800D01*
X10934700Y2578100D01*
X10960100Y2552700D01*
X11887200Y2552700D01*
X11874500Y2565400D01*
X11874500Y2832100D01*
X2209800Y4864100D02*
G01*
X1752600Y4851400D01*
X1765300Y3886200D01*
X800100Y3886200D01*
X800100Y2743200D01*
X5334000Y2743200D01*
X5334000Y2032000D01*
X10426700Y2032000D01*
X10439400Y2044700D01*
X10439400Y2387600D01*
X5765800Y6946900D02*
G01*
X5765800Y7581900D01*
X4114800Y7581900D01*
X4114800Y5359400D01*
X4102100Y5372100D01*
X2743200Y5372100D01*
X5753100Y4813300D02*
G01*
X5765800Y4826000D01*
X5765800Y6946900D01*
D11*
X10172700Y5727700D02*
G01*
X10172700Y5448300D01*
X11620500Y5448300D01*
X11633200Y5461000D01*
X11633200Y6184900D01*
D12*
X7785100Y6680200D02*
G01*
X7785100Y5969000D01*
X8039100Y6934200D02*
G01*
X8039100Y5969000D01*
X8293100Y7188200D02*
G01*
X8293100Y5969000D01*
X8559800Y7442200D02*
G01*
X8547100Y7429500D01*
X8547100Y5969000D01*
X8813800Y7696200D02*
G01*
X8801100Y7683500D01*
X8801100Y5969000D01*
X9067800Y7950200D02*
G01*
X9055100Y7937500D01*
X9055100Y5969000D01*
X9309100Y8204200D02*
G01*
X9309100Y5969000D01*
X10655300Y3098800D02*
G01*
X10668000Y3086100D01*
X11620500Y3086100D01*
X10655300Y3352800D02*
G01*
X10668000Y3340100D01*
X11620500Y3340100D01*
X10655300Y3606800D02*
G01*
X10668000Y3594100D01*
X11620500Y3594100D01*
X10655300Y3860800D02*
G01*
X10668000Y3848100D01*
X11620500Y3848100D01*
X10655300Y4114800D02*
G01*
X11874500Y4114800D01*
X11874500Y3848100D01*
X10655300Y4876800D02*
G01*
X12141200Y4876800D01*
X12141200Y3073400D01*
X12128500Y3086100D01*
X11874500Y3086100D01*
D13*
G01*
X4406900Y2997200D03*
G01*
X4152900Y2997200D03*
G01*
X3898900Y2997200D03*
G01*
X3644900Y2997200D03*
G01*
X3390900Y2997200D03*
G36*
X3046900Y3087199D02*
G01*
X3226899Y3087199D01*
X3226899Y2907200D01*
X3046900Y2907200D01*
G37*
D14*
G01*
X1473200Y4343400D03*
D15*
G01*
X10185400Y2387600D03*
G01*
X10439400Y2387600D03*
G01*
X10172700Y5727700D03*
G01*
X10426700Y5727700D03*
G01*
X7035800Y6311900D03*
G01*
X7289800Y6311900D03*
G01*
X2209800Y4610100D03*
G01*
X2209800Y4864100D03*
D13*
G01*
X2120900Y7937500D03*
G36*
X2284907Y8027492D02*
G01*
X2464892Y8027492D01*
X2464892Y7847507D01*
X2284907Y7847507D01*
G37*
D16*
G01*
X1460500Y5943600D03*
D17*
G01*
X1460500Y6197600D03*
D18*
G01*
X1104900Y3516299D03*
D19*
G01*
X1104900Y3166287D03*
D18*
G01*
X1104900Y7478699D03*
D19*
G01*
X1104900Y7128687D03*
D16*
G01*
X11874500Y2832100D03*
D20*
G01*
X11620500Y2832100D03*
G01*
X11874500Y3086100D03*
G01*
X11620500Y3086100D03*
G01*
X11874500Y3340100D03*
G01*
X11620500Y3340100D03*
G01*
X11874500Y3594100D03*
G01*
X11620500Y3594100D03*
G01*
X11874500Y3848100D03*
G01*
X11620500Y3848100D03*
D16*
G01*
X11887200Y6184900D03*
D20*
G01*
X11633200Y6184900D03*
G01*
X11887200Y6438900D03*
G01*
X11633200Y6438900D03*
G01*
X11887200Y6692900D03*
G01*
X11633200Y6692900D03*
G01*
X11887200Y6946900D03*
G01*
X11633200Y6946900D03*
G01*
X11887200Y7200900D03*
G01*
X11633200Y7200900D03*
D21*
G01*
X6769100Y4813300D03*
G01*
X5753100Y4813300D03*
D22*
G01*
X9309100Y5969000D03*
D23*
G01*
X4775200Y7023100D03*
D20*
G01*
X4775200Y4356100D03*
G01*
X4775200Y4610100D03*
G01*
X4775200Y4864100D03*
G01*
X4775200Y5118100D03*
G01*
X4775200Y5372100D03*
G01*
X4775200Y5626100D03*
G01*
X4775200Y5880100D03*
G01*
X4775200Y6134100D03*
G01*
X4775200Y6388100D03*
G01*
X4775200Y6642100D03*
D23*
G01*
X4775200Y3721100D03*
D20*
G01*
X4394200Y3670300D03*
G01*
X3124200Y3670300D03*
G01*
X3378200Y3670300D03*
G01*
X3632200Y3670300D03*
G01*
X3886200Y3670300D03*
G01*
X4140200Y3670300D03*
D23*
G01*
X2743200Y3721100D03*
D20*
G01*
X2743200Y4356100D03*
G01*
X2743200Y6642100D03*
G01*
X2743200Y6388100D03*
G01*
X2743200Y6134100D03*
G01*
X2743200Y5880100D03*
G01*
X2743200Y5626100D03*
G01*
X2743200Y5372100D03*
G01*
X2743200Y5118100D03*
G01*
X2743200Y4864100D03*
G01*
X2743200Y4610100D03*
G01*
X2743200Y4356100D03*
D23*
G01*
X2743200Y7023100D03*
D24*
G01*
X9893300Y4876800D03*
G01*
X9893300Y4622800D03*
G01*
X9893300Y3352800D03*
G01*
X9893300Y3098800D03*
G01*
X9893300Y4368800D03*
G01*
X9893300Y4114800D03*
G01*
X9893300Y3606800D03*
G01*
X9893300Y3860800D03*
G01*
X9893300Y2844800D03*
G01*
X10655300Y2844800D03*
G01*
X10655300Y3098800D03*
G01*
X10655300Y3352800D03*
G01*
X10655300Y3606800D03*
G01*
X10655300Y3860800D03*
G01*
X10655300Y4114800D03*
G01*
X10655300Y4368800D03*
G01*
X10655300Y4622800D03*
G01*
X10655300Y4876800D03*
G01*
X9906000Y8204200D03*
G01*
X9906000Y7950200D03*
G01*
X9906000Y6680200D03*
G01*
X9906000Y6426200D03*
G01*
X9906000Y7696200D03*
G01*
X9906000Y7442200D03*
G01*
X9906000Y6934200D03*
G01*
X9906000Y7188200D03*
G01*
X9906000Y6172200D03*
G01*
X10668000Y6172200D03*
G01*
X10668000Y6426200D03*
G01*
X10668000Y6680200D03*
G01*
X10668000Y6934200D03*
G01*
X10668000Y7188200D03*
G01*
X10668000Y7442200D03*
G01*
X10668000Y7696200D03*
G01*
X10668000Y7950200D03*
G01*
X10668000Y8204200D03*
D25*
G01*
X2857500Y7937500D03*
G01*
X3873500Y7937500D03*
D26*
G01*
X7785100Y4584700D03*
G01*
X8039100Y4368800D03*
G01*
X8293100Y4114800D03*
G01*
X8547100Y3860800D03*
G01*
X8801100Y3606800D03*
G01*
X9067800Y3352800D03*
G01*
X9309100Y3098800D03*
G01*
X9918700Y5727700D03*
D10*
G01*
X7035800Y5715000D03*
G01*
X7785100Y6680200D03*
G01*
X8039100Y6934200D03*
G01*
X8039100Y6934200D03*
G01*
X8293100Y7188200D03*
G01*
X8559800Y7442200D03*
G01*
X8813800Y7696200D03*
G01*
X9067800Y7950200D03*
D26*
G01*
X9309100Y8204200D03*
G01*
X5765800Y6946900D03*
D10*
G01*
X5143500Y4343400D03*
D26*
G01*
X4318000Y4152900D03*
G01*
X4318000Y4711700D03*
D27*
X1505699Y4597400D02*
G01*
X1440700Y4597400D01*
D28*
X8801100Y5207000D02*
G01*
X8801100Y5207000D01*
X8547100Y5207000D02*
G01*
X8547100Y5207000D01*
X8293100Y5207000D02*
G01*
X8293100Y5207000D01*
X8039100Y5207000D02*
G01*
X8039100Y5207000D01*
X7785100Y5207000D02*
G01*
X7785100Y5207000D01*
X7531100Y5207000D02*
G01*
X7531100Y5207000D01*
X7277100Y5207000D02*
G01*
X7277100Y5207000D01*
X7277100Y5969000D02*
G01*
X7277100Y5969000D01*
X9055100Y5207000D02*
G01*
X9055100Y5207000D01*
X9309100Y5207000D02*
G01*
X9309100Y5207000D01*
X7531100Y5969000D02*
G01*
X7531100Y5969000D01*
X7785100Y5969000D02*
G01*
X7785100Y5969000D01*
X8039100Y5969000D02*
G01*
X8039100Y5969000D01*
X8293100Y5969000D02*
G01*
X8293100Y5969000D01*
X8547100Y5969000D02*
G01*
X8547100Y5969000D01*
X8801100Y5969000D02*
G01*
X8801100Y5969000D01*
X9055100Y5969000D02*
G01*
X9055100Y5969000D01*
X7023100Y5969000D02*
G01*
X7023100Y5969000D01*
X6769100Y5969000D02*
G01*
X6769100Y5969000D01*
X6515100Y5969000D02*
G01*
X6515100Y5969000D01*
X6261100Y5969000D02*
G01*
X6261100Y5969000D01*
X6007100Y5969000D02*
G01*
X6007100Y5969000D01*
X6007100Y5207000D02*
G01*
X6007100Y5207000D01*
X6261100Y5207000D02*
G01*
X6261100Y5207000D01*
X6515100Y5207000D02*
G01*
X6515100Y5207000D01*
X6769100Y5207000D02*
G01*
X6769100Y5207000D01*
X7023100Y5207000D02*
G01*
X7023100Y5207000D01*
M02*
