G04 Layer: TopSilkscreenLayer*
G04 EasyEDA v6.5.8, 2022-08-15 07:29:34*
G04 028e3914a6f949ed9ca799ef75e4ed4f,10*
G04 Gerber Generator version 0.2*
G04 Scale: 100 percent, Rotated: No, Reflected: No *
G04 Dimensions in millimeters *
G04 leading zeros omitted , absolute positions ,4 integer and 5 decimal *
%FSLAX45Y45*%
%MOMM*%

%ADD10C,0.1524*%
%ADD11C,0.2032*%
%ADD12C,0.1501*%
%ADD13C,0.2030*%
%ADD14C,0.2540*%
%ADD15C,0.2007*%
%ADD16C,0.6000*%
%ADD17C,0.2500*%
%ADD18C,0.0177*%

%LPD*%
G36*
X6337554Y4482592D02*
G01*
X6303264Y4473194D01*
X6303264Y4466590D01*
X6321298Y4464812D01*
X6321247Y4355592D01*
X6320790Y4327398D01*
X6303264Y4324858D01*
X6303264Y4318000D01*
X6357366Y4318000D01*
X6357366Y4324858D01*
X6339840Y4327398D01*
X6339586Y4359656D01*
X6354318Y4374642D01*
X6388862Y4318000D01*
X6419088Y4318000D01*
X6419088Y4324858D01*
X6404864Y4326890D01*
X6367272Y4387596D01*
X6392672Y4413250D01*
X6413500Y4416044D01*
X6413500Y4423410D01*
X6362192Y4423410D01*
X6362192Y4416044D01*
X6379718Y4412488D01*
X6339586Y4371086D01*
X6339586Y4449318D01*
X6340602Y4481068D01*
G37*
G36*
X6500622Y4470400D02*
G01*
X6495440Y4470196D01*
X6490360Y4469688D01*
X6485331Y4468825D01*
X6480454Y4467555D01*
X6475730Y4465980D01*
X6471158Y4464050D01*
X6466789Y4461814D01*
X6462623Y4459224D01*
X6458661Y4456277D01*
X6454952Y4453026D01*
X6451498Y4449419D01*
X6448298Y4445508D01*
X6445402Y4441240D01*
X6442862Y4436719D01*
X6440627Y4431842D01*
X6438798Y4426661D01*
X6437325Y4421124D01*
X6436207Y4415332D01*
X6435547Y4409236D01*
X6435344Y4402836D01*
X6435699Y4395673D01*
X6436817Y4388713D01*
X6438544Y4382008D01*
X6440932Y4375556D01*
X6443878Y4369358D01*
X6447383Y4363415D01*
X6451346Y4357776D01*
X6455714Y4352391D01*
X6460540Y4347311D01*
X6465671Y4342485D01*
X6471056Y4337964D01*
X6476746Y4333748D01*
X6444996Y4333748D01*
X6439662Y4355846D01*
X6428232Y4355846D01*
X6430264Y4318000D01*
X6489954Y4318000D01*
X6489954Y4331716D01*
X6484924Y4336084D01*
X6480200Y4340860D01*
X6475882Y4345940D01*
X6471920Y4351324D01*
X6468364Y4357014D01*
X6465265Y4363008D01*
X6462572Y4369206D01*
X6460286Y4375607D01*
X6458508Y4382211D01*
X6457238Y4388967D01*
X6456426Y4395825D01*
X6456172Y4402836D01*
X6456375Y4408881D01*
X6456934Y4414723D01*
X6457899Y4420362D01*
X6459169Y4425696D01*
X6460845Y4430776D01*
X6462877Y4435551D01*
X6465214Y4440021D01*
X6467906Y4444085D01*
X6470954Y4447794D01*
X6474256Y4451045D01*
X6477914Y4453940D01*
X6481876Y4456328D01*
X6486144Y4458208D01*
X6490665Y4459579D01*
X6495542Y4460443D01*
X6500622Y4460748D01*
X6505702Y4460443D01*
X6510578Y4459579D01*
X6515100Y4458208D01*
X6519367Y4456328D01*
X6523329Y4453940D01*
X6526987Y4451045D01*
X6530289Y4447794D01*
X6533337Y4444085D01*
X6536029Y4440021D01*
X6538366Y4435551D01*
X6540398Y4430776D01*
X6542074Y4425696D01*
X6543344Y4420362D01*
X6544309Y4414723D01*
X6544868Y4408881D01*
X6545072Y4402836D01*
X6544818Y4395825D01*
X6544005Y4388967D01*
X6542684Y4382211D01*
X6540855Y4375607D01*
X6538620Y4369206D01*
X6535877Y4363008D01*
X6532676Y4357014D01*
X6529120Y4351324D01*
X6525158Y4345940D01*
X6520789Y4340860D01*
X6516065Y4336084D01*
X6511035Y4331716D01*
X6511035Y4318000D01*
X6570980Y4318000D01*
X6573012Y4355846D01*
X6561328Y4355846D01*
X6556248Y4333748D01*
X6524752Y4333748D01*
X6530340Y4337964D01*
X6535724Y4342536D01*
X6540804Y4347362D01*
X6545529Y4352493D01*
X6549847Y4357928D01*
X6553758Y4363618D01*
X6557213Y4369562D01*
X6560108Y4375759D01*
X6562445Y4382211D01*
X6564223Y4388866D01*
X6565290Y4395774D01*
X6565646Y4402836D01*
X6565442Y4409236D01*
X6564731Y4415332D01*
X6563664Y4421124D01*
X6562191Y4426661D01*
X6560312Y4431842D01*
X6558076Y4436719D01*
X6555536Y4441240D01*
X6552641Y4445508D01*
X6549440Y4449419D01*
X6545986Y4453026D01*
X6542278Y4456277D01*
X6538315Y4459224D01*
X6534150Y4461814D01*
X6529781Y4464050D01*
X6525259Y4465980D01*
X6520535Y4467555D01*
X6515709Y4468825D01*
X6510781Y4469688D01*
X6505752Y4470196D01*
G37*
G36*
X6078982Y4469130D02*
G01*
X6014796Y4377436D01*
X6024372Y4377436D01*
X6073648Y4448302D01*
X6073648Y4377436D01*
X6014796Y4377436D01*
X6013196Y4375150D01*
X6013196Y4364228D01*
X6073648Y4364228D01*
X6073648Y4318000D01*
X6091428Y4318000D01*
X6091428Y4364228D01*
X6115050Y4364228D01*
X6115050Y4377436D01*
X6091428Y4377436D01*
X6091428Y4469130D01*
G37*
G36*
X6196584Y4466844D02*
G01*
X6196584Y4449572D01*
X6274816Y4449572D01*
X6215380Y4320032D01*
X6217412Y4318000D01*
X6234430Y4318000D01*
X6287008Y4455922D01*
X6287008Y4466844D01*
G37*
G36*
X6151880Y4345432D02*
G01*
X6146088Y4344212D01*
X6141313Y4340910D01*
X6138113Y4335983D01*
X6136894Y4329938D01*
X6138113Y4324299D01*
X6141313Y4319625D01*
X6146088Y4316425D01*
X6151880Y4315206D01*
X6157925Y4316425D01*
X6162751Y4319625D01*
X6165951Y4324299D01*
X6167120Y4329938D01*
X6165951Y4335983D01*
X6162751Y4340910D01*
X6157925Y4344212D01*
G37*
D10*
X6152641Y6922515D02*
G01*
X6142227Y6917436D01*
X6131813Y6907021D01*
X6126479Y6896608D01*
X6121400Y6880860D01*
X6121400Y6854952D01*
X6126479Y6839458D01*
X6131813Y6829044D01*
X6142227Y6818629D01*
X6152641Y6813550D01*
X6173470Y6813550D01*
X6183629Y6818629D01*
X6194043Y6829044D01*
X6199377Y6839458D01*
X6204458Y6854952D01*
X6204458Y6880860D01*
X6199377Y6896608D01*
X6194043Y6907021D01*
X6183629Y6917436D01*
X6173470Y6922515D01*
X6152641Y6922515D01*
X6238747Y6922515D02*
G01*
X6238747Y6813550D01*
X6238747Y6922515D02*
G01*
X6285484Y6922515D01*
X6301231Y6917436D01*
X6306311Y6912102D01*
X6311645Y6901687D01*
X6311645Y6886194D01*
X6306311Y6875779D01*
X6301231Y6870700D01*
X6285484Y6865365D01*
X6238747Y6865365D01*
X6345936Y6922515D02*
G01*
X6345936Y6813550D01*
X6345936Y6922515D02*
G01*
X6413500Y6922515D01*
X6345936Y6870700D02*
G01*
X6387338Y6870700D01*
X6345936Y6813550D02*
G01*
X6413500Y6813550D01*
X6447790Y6922515D02*
G01*
X6447790Y6813550D01*
X6447790Y6922515D02*
G01*
X6520434Y6813550D01*
X6520434Y6922515D02*
G01*
X6520434Y6813550D01*
X6554724Y6860286D02*
G01*
X6648195Y6860286D01*
X6682486Y6922515D02*
G01*
X6682486Y6813550D01*
X6755129Y6922515D02*
G01*
X6755129Y6813550D01*
X6682486Y6870700D02*
G01*
X6755129Y6870700D01*
X6831075Y6922515D02*
G01*
X6789420Y6813550D01*
X6831075Y6922515D02*
G01*
X6872731Y6813550D01*
X6805168Y6849871D02*
G01*
X6856984Y6849871D01*
X6907022Y6922515D02*
G01*
X6907022Y6813550D01*
X6907022Y6922515D02*
G01*
X6953758Y6922515D01*
X6969252Y6917436D01*
X6974586Y6912102D01*
X6979665Y6901687D01*
X6979665Y6891273D01*
X6974586Y6880860D01*
X6969252Y6875779D01*
X6953758Y6870700D01*
X6907022Y6870700D01*
X6943343Y6870700D02*
G01*
X6979665Y6813550D01*
X7013956Y6922515D02*
G01*
X7013956Y6813550D01*
X7013956Y6922515D02*
G01*
X7050277Y6922515D01*
X7066025Y6917436D01*
X7076440Y6907021D01*
X7081520Y6896608D01*
X7086600Y6880860D01*
X7086600Y6854952D01*
X7081520Y6839458D01*
X7076440Y6829044D01*
X7066025Y6818629D01*
X7050277Y6813550D01*
X7013956Y6813550D01*
X7120890Y6922515D02*
G01*
X7147052Y6813550D01*
X7172959Y6922515D02*
G01*
X7147052Y6813550D01*
X7172959Y6922515D02*
G01*
X7198868Y6813550D01*
X7225029Y6922515D02*
G01*
X7198868Y6813550D01*
X7300722Y6922515D02*
G01*
X7259320Y6813550D01*
X7300722Y6922515D02*
G01*
X7342377Y6813550D01*
X7274813Y6849871D02*
G01*
X7326629Y6849871D01*
X7376668Y6922515D02*
G01*
X7376668Y6813550D01*
X7376668Y6922515D02*
G01*
X7423404Y6922515D01*
X7438897Y6917436D01*
X7444231Y6912102D01*
X7449311Y6901687D01*
X7449311Y6891273D01*
X7444231Y6880860D01*
X7438897Y6875779D01*
X7423404Y6870700D01*
X7376668Y6870700D01*
X7412990Y6870700D02*
G01*
X7449311Y6813550D01*
X7483602Y6922515D02*
G01*
X7483602Y6813550D01*
X7483602Y6922515D02*
G01*
X7551165Y6922515D01*
X7483602Y6870700D02*
G01*
X7525258Y6870700D01*
X7483602Y6813550D02*
G01*
X7551165Y6813550D01*
D11*
X10196322Y6210300D02*
G01*
X10334752Y6210300D01*
X10362438Y6219444D01*
X10380979Y6237986D01*
X10390124Y6265671D01*
X10390124Y6284213D01*
X10380979Y6311900D01*
X10362438Y6330442D01*
X10334752Y6339586D01*
X10196322Y6339586D01*
X10196322Y6400545D02*
G01*
X10390124Y6400545D01*
X10390124Y6400545D02*
G01*
X10390124Y6511289D01*
X10196322Y6572250D02*
G01*
X10390124Y6572250D01*
X10196322Y6572250D02*
G01*
X10390124Y6701789D01*
X10196322Y6701789D02*
G01*
X10390124Y6701789D01*
X10242550Y6771894D02*
G01*
X10233152Y6771894D01*
X10214609Y6781037D01*
X10205465Y6790436D01*
X10196322Y6808723D01*
X10196322Y6845808D01*
X10205465Y6864350D01*
X10214609Y6873494D01*
X10233152Y6882637D01*
X10251693Y6882637D01*
X10270236Y6873494D01*
X10297922Y6854952D01*
X10390124Y6762750D01*
X10390124Y6892036D01*
X10196322Y6998970D02*
G01*
X10205465Y6971284D01*
X10224008Y6962139D01*
X10242550Y6962139D01*
X10260838Y6971284D01*
X10270236Y6989826D01*
X10279379Y7026910D01*
X10288524Y7054595D01*
X10307065Y7072884D01*
X10325608Y7082281D01*
X10353293Y7082281D01*
X10371836Y7072884D01*
X10380979Y7063739D01*
X10390124Y7036054D01*
X10390124Y6998970D01*
X10380979Y6971284D01*
X10371836Y6962139D01*
X10353293Y6952995D01*
X10325608Y6952995D01*
X10307065Y6962139D01*
X10288524Y6980681D01*
X10279379Y7008368D01*
X10270236Y7045197D01*
X10260838Y7063739D01*
X10242550Y7072884D01*
X10224008Y7072884D01*
X10205465Y7063739D01*
X10196322Y7036054D01*
X10196322Y6998970D01*
X10196322Y7198613D02*
G01*
X10205465Y7170928D01*
X10233152Y7152386D01*
X10279379Y7143242D01*
X10307065Y7143242D01*
X10353293Y7152386D01*
X10380979Y7170928D01*
X10390124Y7198613D01*
X10390124Y7217155D01*
X10380979Y7244842D01*
X10353293Y7263129D01*
X10307065Y7272528D01*
X10279379Y7272528D01*
X10233152Y7263129D01*
X10205465Y7244842D01*
X10196322Y7217155D01*
X10196322Y7198613D01*
X10196322Y7352029D02*
G01*
X10196322Y7453629D01*
X10270236Y7398004D01*
X10270236Y7425689D01*
X10279379Y7444231D01*
X10288524Y7453629D01*
X10316209Y7462773D01*
X10334752Y7462773D01*
X10362438Y7453629D01*
X10380979Y7435087D01*
X10390124Y7407402D01*
X10390124Y7379715D01*
X10380979Y7352029D01*
X10371836Y7342631D01*
X10353293Y7333487D01*
X10196322Y7597647D02*
G01*
X10390124Y7523734D01*
X10196322Y7597647D02*
G01*
X10390124Y7671562D01*
X10325608Y7551420D02*
G01*
X10325608Y7643876D01*
X10196322Y7732521D02*
G01*
X10390124Y7732521D01*
X10196322Y7732521D02*
G01*
X10196322Y7815579D01*
X10205465Y7843265D01*
X10214609Y7852410D01*
X10233152Y7861808D01*
X10260838Y7861808D01*
X10279379Y7852410D01*
X10288524Y7843265D01*
X10297922Y7815579D01*
X10297922Y7732521D01*
X10242550Y8061197D02*
G01*
X10224008Y8052054D01*
X10205465Y8033512D01*
X10196322Y8014970D01*
X10196322Y7978139D01*
X10205465Y7959597D01*
X10224008Y7941310D01*
X10242550Y7931912D01*
X10270236Y7922768D01*
X10316209Y7922768D01*
X10344150Y7931912D01*
X10362438Y7941310D01*
X10380979Y7959597D01*
X10390124Y7978139D01*
X10390124Y8014970D01*
X10380979Y8033512D01*
X10362438Y8052054D01*
X10344150Y8061197D01*
X10316209Y8061197D01*
X10316209Y8014970D02*
G01*
X10316209Y8061197D01*
X10196322Y2921000D02*
G01*
X10334752Y2921000D01*
X10362438Y2930144D01*
X10380979Y2948686D01*
X10390124Y2976371D01*
X10390124Y2994913D01*
X10380979Y3022600D01*
X10362438Y3041142D01*
X10334752Y3050286D01*
X10196322Y3050286D01*
X10196322Y3111245D02*
G01*
X10390124Y3111245D01*
X10390124Y3111245D02*
G01*
X10390124Y3221989D01*
X10196322Y3282950D02*
G01*
X10390124Y3282950D01*
X10196322Y3282950D02*
G01*
X10390124Y3412489D01*
X10196322Y3412489D02*
G01*
X10390124Y3412489D01*
X10242550Y3482594D02*
G01*
X10233152Y3482594D01*
X10214609Y3491737D01*
X10205465Y3501136D01*
X10196322Y3519423D01*
X10196322Y3556507D01*
X10205465Y3575050D01*
X10214609Y3584194D01*
X10233152Y3593337D01*
X10251693Y3593337D01*
X10270236Y3584194D01*
X10297922Y3565652D01*
X10390124Y3473450D01*
X10390124Y3602736D01*
X10196322Y3709670D02*
G01*
X10205465Y3681984D01*
X10224008Y3672839D01*
X10242550Y3672839D01*
X10260838Y3681984D01*
X10270236Y3700526D01*
X10279379Y3737610D01*
X10288524Y3765295D01*
X10307065Y3783584D01*
X10325608Y3792981D01*
X10353293Y3792981D01*
X10371836Y3783584D01*
X10380979Y3774439D01*
X10390124Y3746754D01*
X10390124Y3709670D01*
X10380979Y3681984D01*
X10371836Y3672839D01*
X10353293Y3663695D01*
X10325608Y3663695D01*
X10307065Y3672839D01*
X10288524Y3691381D01*
X10279379Y3719068D01*
X10270236Y3755897D01*
X10260838Y3774439D01*
X10242550Y3783584D01*
X10224008Y3783584D01*
X10205465Y3774439D01*
X10196322Y3746754D01*
X10196322Y3709670D01*
X10196322Y3909313D02*
G01*
X10205465Y3881628D01*
X10233152Y3863086D01*
X10279379Y3853942D01*
X10307065Y3853942D01*
X10353293Y3863086D01*
X10380979Y3881628D01*
X10390124Y3909313D01*
X10390124Y3927855D01*
X10380979Y3955542D01*
X10353293Y3973829D01*
X10307065Y3983228D01*
X10279379Y3983228D01*
X10233152Y3973829D01*
X10205465Y3955542D01*
X10196322Y3927855D01*
X10196322Y3909313D01*
X10196322Y4062729D02*
G01*
X10196322Y4164329D01*
X10270236Y4108704D01*
X10270236Y4136389D01*
X10279379Y4154931D01*
X10288524Y4164329D01*
X10316209Y4173473D01*
X10334752Y4173473D01*
X10362438Y4164329D01*
X10380979Y4145787D01*
X10390124Y4118102D01*
X10390124Y4090415D01*
X10380979Y4062729D01*
X10371836Y4053331D01*
X10353293Y4044187D01*
X10196322Y4308347D02*
G01*
X10390124Y4234434D01*
X10196322Y4308347D02*
G01*
X10390124Y4382262D01*
X10325608Y4262120D02*
G01*
X10325608Y4354576D01*
X10196322Y4443221D02*
G01*
X10390124Y4443221D01*
X10196322Y4443221D02*
G01*
X10196322Y4526279D01*
X10205465Y4553965D01*
X10214609Y4563110D01*
X10233152Y4572507D01*
X10260838Y4572507D01*
X10279379Y4563110D01*
X10288524Y4553965D01*
X10297922Y4526279D01*
X10297922Y4443221D01*
X10242550Y4771897D02*
G01*
X10224008Y4762754D01*
X10205465Y4744212D01*
X10196322Y4725670D01*
X10196322Y4688839D01*
X10205465Y4670297D01*
X10224008Y4652010D01*
X10242550Y4642612D01*
X10270236Y4633468D01*
X10316209Y4633468D01*
X10344150Y4642612D01*
X10362438Y4652010D01*
X10380979Y4670297D01*
X10390124Y4688839D01*
X10390124Y4725670D01*
X10380979Y4744212D01*
X10362438Y4762754D01*
X10344150Y4771897D01*
X10316209Y4771897D01*
X10316209Y4725670D02*
G01*
X10316209Y4771897D01*
X7175500Y5678678D02*
G01*
X7175500Y5484876D01*
X7175500Y5678678D02*
G01*
X7249413Y5484876D01*
X7323327Y5678678D02*
G01*
X7249413Y5484876D01*
X7323327Y5678678D02*
G01*
X7323327Y5484876D01*
X7522718Y5632450D02*
G01*
X7513574Y5650992D01*
X7495031Y5669534D01*
X7476490Y5678678D01*
X7439659Y5678678D01*
X7421118Y5669534D01*
X7402829Y5650992D01*
X7393431Y5632450D01*
X7384288Y5604763D01*
X7384288Y5558789D01*
X7393431Y5530850D01*
X7402829Y5512562D01*
X7421118Y5494020D01*
X7439659Y5484876D01*
X7476490Y5484876D01*
X7495031Y5494020D01*
X7513574Y5512562D01*
X7522718Y5530850D01*
X7583677Y5678678D02*
G01*
X7583677Y5484876D01*
X7583677Y5678678D02*
G01*
X7666990Y5678678D01*
X7694675Y5669534D01*
X7703820Y5660389D01*
X7712963Y5641847D01*
X7712963Y5614162D01*
X7703820Y5595620D01*
X7694675Y5586476D01*
X7666990Y5577078D01*
X7583677Y5577078D01*
X7783322Y5632450D02*
G01*
X7783322Y5641847D01*
X7792465Y5660389D01*
X7801609Y5669534D01*
X7820152Y5678678D01*
X7857236Y5678678D01*
X7875524Y5669534D01*
X7884922Y5660389D01*
X7894065Y5641847D01*
X7894065Y5623305D01*
X7884922Y5604763D01*
X7866379Y5577078D01*
X7773924Y5484876D01*
X7903209Y5484876D01*
X7982711Y5678678D02*
G01*
X8084311Y5678678D01*
X8028940Y5604763D01*
X8056625Y5604763D01*
X8075168Y5595620D01*
X8084311Y5586476D01*
X8093709Y5558789D01*
X8093709Y5540247D01*
X8084311Y5512562D01*
X8065770Y5494020D01*
X8038084Y5484876D01*
X8010397Y5484876D01*
X7982711Y5494020D01*
X7973568Y5503163D01*
X7964170Y5521705D01*
X8210041Y5678678D02*
G01*
X8182356Y5669534D01*
X8163813Y5641847D01*
X8154670Y5595620D01*
X8154670Y5567934D01*
X8163813Y5521705D01*
X8182356Y5494020D01*
X8210041Y5484876D01*
X8228329Y5484876D01*
X8256270Y5494020D01*
X8274558Y5521705D01*
X8283956Y5567934D01*
X8283956Y5595620D01*
X8274558Y5641847D01*
X8256270Y5669534D01*
X8228329Y5678678D01*
X8210041Y5678678D01*
X8344915Y5641847D02*
G01*
X8363204Y5650992D01*
X8390890Y5678678D01*
X8390890Y5484876D01*
X8581390Y5678678D02*
G01*
X8488934Y5484876D01*
X8451850Y5678678D02*
G01*
X8581390Y5678678D01*
X12456922Y6108700D02*
G01*
X12650724Y6108700D01*
X12456922Y6108700D02*
G01*
X12456922Y6191757D01*
X12466065Y6219444D01*
X12475209Y6228842D01*
X12493752Y6237986D01*
X12521438Y6237986D01*
X12539979Y6228842D01*
X12549124Y6219444D01*
X12558522Y6191757D01*
X12558522Y6108700D01*
X12521438Y6345173D02*
G01*
X12530836Y6326631D01*
X12549124Y6308089D01*
X12576809Y6298945D01*
X12595352Y6298945D01*
X12623038Y6308089D01*
X12641579Y6326631D01*
X12650724Y6345173D01*
X12650724Y6372860D01*
X12641579Y6391402D01*
X12623038Y6409689D01*
X12595352Y6419087D01*
X12576809Y6419087D01*
X12549124Y6409689D01*
X12530836Y6391402D01*
X12521438Y6372860D01*
X12521438Y6345173D01*
X12521438Y6480047D02*
G01*
X12650724Y6480047D01*
X12576809Y6480047D02*
G01*
X12549124Y6489192D01*
X12530836Y6507734D01*
X12521438Y6526276D01*
X12521438Y6553962D01*
X12456922Y6642608D02*
G01*
X12613893Y6642608D01*
X12641579Y6651752D01*
X12650724Y6670294D01*
X12650724Y6688836D01*
X12521438Y6614921D02*
G01*
X12521438Y6679437D01*
X12456922Y6892036D02*
G01*
X12650724Y6892036D01*
X12456922Y6892036D02*
G01*
X12456922Y6975094D01*
X12466065Y7002779D01*
X12475209Y7011923D01*
X12493752Y7021321D01*
X12512293Y7021321D01*
X12530836Y7011923D01*
X12539979Y7002779D01*
X12549124Y6975094D01*
X12549124Y6892036D02*
G01*
X12549124Y6975094D01*
X12558522Y7002779D01*
X12567665Y7011923D01*
X12586208Y7021321D01*
X12613893Y7021321D01*
X12632436Y7011923D01*
X12641579Y7002779D01*
X12650724Y6975094D01*
X12650724Y6892036D01*
X12456922Y2806700D02*
G01*
X12650724Y2806700D01*
X12456922Y2806700D02*
G01*
X12456922Y2889757D01*
X12466065Y2917444D01*
X12475209Y2926842D01*
X12493752Y2935986D01*
X12521438Y2935986D01*
X12539979Y2926842D01*
X12549124Y2917444D01*
X12558522Y2889757D01*
X12558522Y2806700D01*
X12521438Y3043173D02*
G01*
X12530836Y3024631D01*
X12549124Y3006089D01*
X12576809Y2996945D01*
X12595352Y2996945D01*
X12623038Y3006089D01*
X12641579Y3024631D01*
X12650724Y3043173D01*
X12650724Y3070860D01*
X12641579Y3089402D01*
X12623038Y3107689D01*
X12595352Y3117087D01*
X12576809Y3117087D01*
X12549124Y3107689D01*
X12530836Y3089402D01*
X12521438Y3070860D01*
X12521438Y3043173D01*
X12521438Y3178047D02*
G01*
X12650724Y3178047D01*
X12576809Y3178047D02*
G01*
X12549124Y3187192D01*
X12530836Y3205734D01*
X12521438Y3224276D01*
X12521438Y3251962D01*
X12456922Y3340607D02*
G01*
X12613893Y3340607D01*
X12641579Y3349752D01*
X12650724Y3368294D01*
X12650724Y3386836D01*
X12521438Y3312921D02*
G01*
X12521438Y3377437D01*
X12456922Y3663950D02*
G01*
X12650724Y3590036D01*
X12456922Y3663950D02*
G01*
X12650724Y3737610D01*
X12586208Y3617721D02*
G01*
X12586208Y3709923D01*
X972057Y6678168D02*
G01*
X972057Y6732778D01*
X922781Y6738365D01*
X928370Y6732778D01*
X933704Y6716521D01*
X933704Y6700012D01*
X928370Y6683755D01*
X917447Y6672834D01*
X901192Y6667245D01*
X890270Y6667245D01*
X873760Y6672834D01*
X862837Y6683755D01*
X857504Y6700012D01*
X857504Y6716521D01*
X862837Y6732778D01*
X868426Y6738365D01*
X879347Y6743700D01*
X972057Y6631431D02*
G01*
X857504Y6587744D01*
X972057Y6544055D02*
G01*
X857504Y6587744D01*
X972057Y6507987D02*
G01*
X857504Y6507987D01*
X972057Y6507987D02*
G01*
X972057Y6469887D01*
X966470Y6453631D01*
X955547Y6442710D01*
X944626Y6437121D01*
X928370Y6431787D01*
X901192Y6431787D01*
X884681Y6437121D01*
X873760Y6442710D01*
X862837Y6453631D01*
X857504Y6469887D01*
X857504Y6507987D01*
X944626Y6313931D02*
G01*
X955547Y6319265D01*
X966470Y6330187D01*
X972057Y6341110D01*
X972057Y6362954D01*
X966470Y6373876D01*
X955547Y6384797D01*
X944626Y6390131D01*
X928370Y6395720D01*
X901192Y6395720D01*
X884681Y6390131D01*
X873760Y6384797D01*
X862837Y6373876D01*
X857504Y6362954D01*
X857504Y6341110D01*
X862837Y6330187D01*
X873760Y6319265D01*
X884681Y6313931D01*
X972057Y6182868D02*
G01*
X972057Y6122923D01*
X928370Y6155689D01*
X928370Y6139434D01*
X922781Y6128512D01*
X917447Y6122923D01*
X901192Y6117589D01*
X890270Y6117589D01*
X873760Y6122923D01*
X862837Y6133845D01*
X857504Y6150355D01*
X857504Y6166612D01*
X862837Y6182868D01*
X868426Y6188455D01*
X879347Y6193789D01*
X884681Y6076187D02*
G01*
X879347Y6081521D01*
X873760Y6076187D01*
X879347Y6070600D01*
X884681Y6076187D01*
X972057Y6001765D02*
G01*
X966470Y6018276D01*
X950213Y6029197D01*
X922781Y6034531D01*
X906526Y6034531D01*
X879347Y6029197D01*
X862837Y6018276D01*
X857504Y6001765D01*
X857504Y5991097D01*
X862837Y5974587D01*
X879347Y5963665D01*
X906526Y5958331D01*
X922781Y5958331D01*
X950213Y5963665D01*
X966470Y5974587D01*
X972057Y5991097D01*
X972057Y6001765D01*
X972057Y5878576D02*
G01*
X857504Y5922263D01*
X972057Y5878576D02*
G01*
X857504Y5834887D01*
X895604Y5906007D02*
G01*
X895604Y5851397D01*
X1103121Y7864347D02*
G01*
X1103121Y7766304D01*
X1054100Y7815326D02*
G01*
X1152397Y7815326D01*
X1097026Y6883400D02*
G01*
X1097026Y6785102D01*
X2070100Y7512558D02*
G01*
X2070100Y7398004D01*
X2070100Y7512558D02*
G01*
X2119122Y7512558D01*
X2135631Y7506970D01*
X2140965Y7501636D01*
X2146554Y7490713D01*
X2146554Y7474204D01*
X2140965Y7463281D01*
X2135631Y7457947D01*
X2119122Y7452613D01*
X2070100Y7452613D01*
X2182368Y7512558D02*
G01*
X2209800Y7398004D01*
X2236977Y7512558D02*
G01*
X2209800Y7398004D01*
X2236977Y7512558D02*
G01*
X2264156Y7398004D01*
X2291588Y7512558D02*
G01*
X2264156Y7398004D01*
X2327656Y7512558D02*
G01*
X2327656Y7398004D01*
X2327656Y7512558D02*
G01*
X2376677Y7512558D01*
X2392934Y7506970D01*
X2398522Y7501636D01*
X2403856Y7490713D01*
X2403856Y7479792D01*
X2398522Y7468870D01*
X2392934Y7463281D01*
X2376677Y7457947D01*
X2327656Y7457947D01*
X2365756Y7457947D02*
G01*
X2403856Y7398004D01*
X1351787Y5734557D02*
G01*
X1308100Y5620004D01*
X1351787Y5734557D02*
G01*
X1395476Y5620004D01*
X1324355Y5658104D02*
G01*
X1378965Y5658104D01*
X1513078Y5707126D02*
G01*
X1507744Y5718047D01*
X1496821Y5728970D01*
X1485900Y5734557D01*
X1464055Y5734557D01*
X1453134Y5728970D01*
X1442212Y5718047D01*
X1436878Y5707126D01*
X1431289Y5690870D01*
X1431289Y5663692D01*
X1436878Y5647181D01*
X1442212Y5636260D01*
X1453134Y5625337D01*
X1464055Y5620004D01*
X1485900Y5620004D01*
X1496821Y5625337D01*
X1507744Y5636260D01*
X1513078Y5647181D01*
X1587245Y5734557D02*
G01*
X1587245Y5620004D01*
X1549145Y5734557D02*
G01*
X1625600Y5734557D01*
X1295400Y4134357D02*
G01*
X1295400Y4019804D01*
X1295400Y4134357D02*
G01*
X1344421Y4134357D01*
X1360931Y4128770D01*
X1366265Y4123436D01*
X1371854Y4112513D01*
X1371854Y4101592D01*
X1366265Y4090670D01*
X1360931Y4085081D01*
X1344421Y4079747D01*
X1295400Y4079747D01*
X1333500Y4079747D02*
G01*
X1371854Y4019804D01*
X1407668Y4134357D02*
G01*
X1407668Y4052570D01*
X1413255Y4036060D01*
X1424178Y4025137D01*
X1440434Y4019804D01*
X1451355Y4019804D01*
X1467865Y4025137D01*
X1478787Y4036060D01*
X1484121Y4052570D01*
X1484121Y4134357D01*
X1520189Y4134357D02*
G01*
X1520189Y4019804D01*
X1520189Y4134357D02*
G01*
X1596389Y4019804D01*
X1596389Y4134357D02*
G01*
X1596389Y4019804D01*
X1146047Y2844545D02*
G01*
X1156970Y2855468D01*
X1162557Y2871978D01*
X1162557Y2893821D01*
X1156970Y2910078D01*
X1146047Y2921000D01*
X1135126Y2921000D01*
X1124204Y2915665D01*
X1118870Y2910078D01*
X1113281Y2899155D01*
X1102613Y2866389D01*
X1097026Y2855468D01*
X1091692Y2850134D01*
X1080770Y2844545D01*
X1064260Y2844545D01*
X1053337Y2855468D01*
X1048004Y2871978D01*
X1048004Y2893821D01*
X1053337Y2910078D01*
X1064260Y2921000D01*
X1135126Y2726944D02*
G01*
X1146047Y2732278D01*
X1156970Y2743200D01*
X1162557Y2754121D01*
X1162557Y2775965D01*
X1156970Y2786887D01*
X1146047Y2797810D01*
X1135126Y2803144D01*
X1118870Y2808731D01*
X1091692Y2808731D01*
X1075181Y2803144D01*
X1064260Y2797810D01*
X1053337Y2786887D01*
X1048004Y2775965D01*
X1048004Y2754121D01*
X1053337Y2743200D01*
X1064260Y2732278D01*
X1075181Y2726944D01*
X1162557Y2690876D02*
G01*
X1048004Y2690876D01*
X1048004Y2690876D02*
G01*
X1048004Y2625344D01*
X1158747Y3987545D02*
G01*
X1169670Y3998468D01*
X1175257Y4014978D01*
X1175257Y4036821D01*
X1169670Y4053078D01*
X1158747Y4064000D01*
X1147826Y4064000D01*
X1136904Y4058665D01*
X1131570Y4053078D01*
X1125981Y4042155D01*
X1115313Y4009389D01*
X1109726Y3998468D01*
X1104392Y3993134D01*
X1093470Y3987545D01*
X1076960Y3987545D01*
X1066037Y3998468D01*
X1060704Y4014978D01*
X1060704Y4036821D01*
X1066037Y4053078D01*
X1076960Y4064000D01*
X1175257Y3951731D02*
G01*
X1060704Y3951731D01*
X1175257Y3951731D02*
G01*
X1175257Y3913378D01*
X1169670Y3897121D01*
X1158747Y3886200D01*
X1147826Y3880612D01*
X1131570Y3875278D01*
X1104392Y3875278D01*
X1087881Y3880612D01*
X1076960Y3886200D01*
X1066037Y3897121D01*
X1060704Y3913378D01*
X1060704Y3951731D01*
X1175257Y3795521D02*
G01*
X1060704Y3839210D01*
X1175257Y3795521D02*
G01*
X1060704Y3752087D01*
X1098804Y3822954D02*
G01*
X1098804Y3768344D01*
X3194558Y2755900D02*
G01*
X3080004Y2755900D01*
X3194558Y2755900D02*
G01*
X3080004Y2679445D01*
X3194558Y2679445D02*
G01*
X3080004Y2679445D01*
X3167125Y2561844D02*
G01*
X3178047Y2567178D01*
X3188970Y2578100D01*
X3194558Y2589021D01*
X3194558Y2610865D01*
X3188970Y2621787D01*
X3178047Y2632710D01*
X3167125Y2638044D01*
X3150870Y2643631D01*
X3123691Y2643631D01*
X3107181Y2638044D01*
X3096259Y2632710D01*
X3085338Y2621787D01*
X3080004Y2610865D01*
X3080004Y2589021D01*
X3085338Y2578100D01*
X3096259Y2567178D01*
X3107181Y2561844D01*
X3448558Y2730500D02*
G01*
X3334004Y2730500D01*
X3448558Y2768600D02*
G01*
X3448558Y2692145D01*
X3448558Y2656331D02*
G01*
X3334004Y2579878D01*
X3448558Y2579878D02*
G01*
X3334004Y2656331D01*
X3702558Y2755900D02*
G01*
X3588004Y2755900D01*
X3702558Y2755900D02*
G01*
X3702558Y2706878D01*
X3696970Y2690368D01*
X3691636Y2685034D01*
X3680713Y2679445D01*
X3669791Y2679445D01*
X3658870Y2685034D01*
X3653281Y2690368D01*
X3647947Y2706878D01*
X3647947Y2755900D01*
X3647947Y2717800D02*
G01*
X3588004Y2679445D01*
X3702558Y2643631D02*
G01*
X3588004Y2567178D01*
X3702558Y2567178D02*
G01*
X3588004Y2643631D01*
X3956558Y2755900D02*
G01*
X3842004Y2712212D01*
X3956558Y2668523D02*
G01*
X3842004Y2712212D01*
X3956558Y2632710D02*
G01*
X3842004Y2632710D01*
X3956558Y2596642D02*
G01*
X3842004Y2596642D01*
X3956558Y2596642D02*
G01*
X3842004Y2520187D01*
X3956558Y2520187D02*
G01*
X3842004Y2520187D01*
X4223258Y2755900D02*
G01*
X4108704Y2755900D01*
X4223258Y2755900D02*
G01*
X4108704Y2679445D01*
X4223258Y2679445D02*
G01*
X4108704Y2679445D01*
X4195825Y2561844D02*
G01*
X4206747Y2567178D01*
X4217670Y2578100D01*
X4223258Y2589021D01*
X4223258Y2610865D01*
X4217670Y2621787D01*
X4206747Y2632710D01*
X4195825Y2638044D01*
X4179570Y2643631D01*
X4152391Y2643631D01*
X4135881Y2638044D01*
X4124959Y2632710D01*
X4114038Y2621787D01*
X4108704Y2610865D01*
X4108704Y2589021D01*
X4114038Y2578100D01*
X4124959Y2567178D01*
X4135881Y2561844D01*
X4449825Y2674112D02*
G01*
X4460747Y2679445D01*
X4471670Y2690368D01*
X4477258Y2701289D01*
X4477258Y2723134D01*
X4471670Y2734055D01*
X4460747Y2744978D01*
X4449825Y2750565D01*
X4433570Y2755900D01*
X4406391Y2755900D01*
X4389881Y2750565D01*
X4378959Y2744978D01*
X4368038Y2734055D01*
X4362704Y2723134D01*
X4362704Y2701289D01*
X4368038Y2690368D01*
X4378959Y2679445D01*
X4389881Y2674112D01*
X4406391Y2674112D01*
X4406391Y2701289D02*
G01*
X4406391Y2674112D01*
X4477258Y2638044D02*
G01*
X4362704Y2638044D01*
X4477258Y2638044D02*
G01*
X4362704Y2561844D01*
X4477258Y2561844D02*
G01*
X4362704Y2561844D01*
X4477258Y2525776D02*
G01*
X4362704Y2525776D01*
X4477258Y2525776D02*
G01*
X4477258Y2487421D01*
X4471670Y2471165D01*
X4460747Y2460244D01*
X4449825Y2454910D01*
X4433570Y2449321D01*
X4406391Y2449321D01*
X4389881Y2454910D01*
X4378959Y2460244D01*
X4368038Y2471165D01*
X4362704Y2487421D01*
X4362704Y2525776D01*
X5352034Y2862579D02*
G01*
X5340604Y2885186D01*
X5317997Y2907792D01*
X5295138Y2919221D01*
X5249672Y2919221D01*
X5227065Y2907792D01*
X5204206Y2885186D01*
X5193029Y2862579D01*
X5181600Y2828289D01*
X5181600Y2771647D01*
X5193029Y2737357D01*
X5204206Y2714752D01*
X5227065Y2691892D01*
X5249672Y2680715D01*
X5295138Y2680715D01*
X5317997Y2691892D01*
X5340604Y2714752D01*
X5352034Y2737357D01*
X5426963Y2919221D02*
G01*
X5426963Y2680715D01*
X5426963Y2680715D02*
G01*
X5563361Y2680715D01*
X5808979Y2862579D02*
G01*
X5797550Y2885186D01*
X5774690Y2907792D01*
X5752084Y2919221D01*
X5706618Y2919221D01*
X5683758Y2907792D01*
X5661152Y2885186D01*
X5649722Y2862579D01*
X5638291Y2828289D01*
X5638291Y2771647D01*
X5649722Y2737357D01*
X5661152Y2714752D01*
X5683758Y2691892D01*
X5706618Y2680715D01*
X5752084Y2680715D01*
X5774690Y2691892D01*
X5797550Y2714752D01*
X5808979Y2737357D01*
X5940806Y2839720D02*
G01*
X5917945Y2828289D01*
X5895340Y2805684D01*
X5883909Y2771647D01*
X5883909Y2748787D01*
X5895340Y2714752D01*
X5917945Y2691892D01*
X5940806Y2680715D01*
X5974841Y2680715D01*
X5997447Y2691892D01*
X6020308Y2714752D01*
X6031484Y2748787D01*
X6031484Y2771647D01*
X6020308Y2805684D01*
X5997447Y2828289D01*
X5974841Y2839720D01*
X5940806Y2839720D01*
X6106668Y2839720D02*
G01*
X6106668Y2680715D01*
X6106668Y2794254D02*
G01*
X6140704Y2828289D01*
X6163309Y2839720D01*
X6197600Y2839720D01*
X6220206Y2828289D01*
X6231636Y2794254D01*
X6231636Y2680715D01*
X6340602Y2919221D02*
G01*
X6340602Y2726181D01*
X6352031Y2691892D01*
X6374891Y2680715D01*
X6397497Y2680715D01*
X6306565Y2839720D02*
G01*
X6386068Y2839720D01*
X6472427Y2839720D02*
G01*
X6472427Y2680715D01*
X6472427Y2771647D02*
G01*
X6483858Y2805684D01*
X6506718Y2828289D01*
X6529324Y2839720D01*
X6563359Y2839720D01*
X6695186Y2839720D02*
G01*
X6672579Y2828289D01*
X6649720Y2805684D01*
X6638290Y2771647D01*
X6638290Y2748787D01*
X6649720Y2714752D01*
X6672579Y2691892D01*
X6695186Y2680715D01*
X6729222Y2680715D01*
X6752081Y2691892D01*
X6774688Y2714752D01*
X6786118Y2748787D01*
X6786118Y2771647D01*
X6774688Y2805684D01*
X6752081Y2828289D01*
X6729222Y2839720D01*
X6695186Y2839720D01*
X6861047Y2919221D02*
G01*
X6861047Y2680715D01*
X6936231Y2919221D02*
G01*
X6936231Y2680715D01*
X7011161Y2771647D02*
G01*
X7147559Y2771647D01*
X7147559Y2794254D01*
X7136129Y2817113D01*
X7124700Y2828289D01*
X7102093Y2839720D01*
X7068058Y2839720D01*
X7045197Y2828289D01*
X7022591Y2805684D01*
X7011161Y2771647D01*
X7011161Y2748787D01*
X7022591Y2714752D01*
X7045197Y2691892D01*
X7068058Y2680715D01*
X7102093Y2680715D01*
X7124700Y2691892D01*
X7147559Y2714752D01*
X7222490Y2839720D02*
G01*
X7222490Y2680715D01*
X7222490Y2771647D02*
G01*
X7233920Y2805684D01*
X7256525Y2828289D01*
X7279386Y2839720D01*
X7313422Y2839720D01*
X7563358Y2919221D02*
G01*
X7563358Y2680715D01*
X7563358Y2919221D02*
G01*
X7665720Y2919221D01*
X7699756Y2907792D01*
X7711186Y2896615D01*
X7722615Y2873755D01*
X7722615Y2851150D01*
X7711186Y2828289D01*
X7699756Y2817113D01*
X7665720Y2805684D01*
X7563358Y2805684D01*
X7642859Y2805684D02*
G01*
X7722615Y2680715D01*
X7797545Y2771647D02*
G01*
X7933943Y2771647D01*
X7933943Y2794254D01*
X7922513Y2817113D01*
X7911084Y2828289D01*
X7888477Y2839720D01*
X7854441Y2839720D01*
X7831581Y2828289D01*
X7808975Y2805684D01*
X7797545Y2771647D01*
X7797545Y2748787D01*
X7808975Y2714752D01*
X7831581Y2691892D01*
X7854441Y2680715D01*
X7888477Y2680715D01*
X7911084Y2691892D01*
X7933943Y2714752D01*
X8008874Y2839720D02*
G01*
X8076945Y2680715D01*
X8145272Y2839720D02*
G01*
X8076945Y2680715D01*
X8395208Y2873755D02*
G01*
X8418068Y2885186D01*
X8452104Y2919221D01*
X8452104Y2680715D01*
X8538463Y2737357D02*
G01*
X8527034Y2726181D01*
X8538463Y2714752D01*
X8549893Y2726181D01*
X8538463Y2737357D01*
X8624824Y2873755D02*
G01*
X8647429Y2885186D01*
X8681720Y2919221D01*
X8681720Y2680715D01*
X4872481Y2515615D02*
G01*
X4864354Y2531871D01*
X4848097Y2548381D01*
X4831588Y2556510D01*
X4798822Y2556510D01*
X4782565Y2548381D01*
X4766056Y2531871D01*
X4757927Y2515615D01*
X4749800Y2490978D01*
X4749800Y2450084D01*
X4757927Y2425700D01*
X4766056Y2409189D01*
X4782565Y2392934D01*
X4798822Y2384805D01*
X4831588Y2384805D01*
X4848097Y2392934D01*
X4864354Y2409189D01*
X4872481Y2425700D01*
X4967477Y2499360D02*
G01*
X4950968Y2490978D01*
X4934711Y2474721D01*
X4926584Y2450084D01*
X4926584Y2433828D01*
X4934711Y2409189D01*
X4950968Y2392934D01*
X4967477Y2384805D01*
X4991861Y2384805D01*
X5008372Y2392934D01*
X5024627Y2409189D01*
X5033009Y2433828D01*
X5033009Y2450084D01*
X5024627Y2474721D01*
X5008372Y2490978D01*
X4991861Y2499360D01*
X4967477Y2499360D01*
X5086858Y2499360D02*
G01*
X5086858Y2327402D01*
X5086858Y2474721D02*
G01*
X5103368Y2490978D01*
X5119624Y2499360D01*
X5144261Y2499360D01*
X5160518Y2490978D01*
X5176774Y2474721D01*
X5185156Y2450084D01*
X5185156Y2433828D01*
X5176774Y2409189D01*
X5160518Y2392934D01*
X5144261Y2384805D01*
X5119624Y2384805D01*
X5103368Y2392934D01*
X5086858Y2409189D01*
X5247131Y2499360D02*
G01*
X5296408Y2384805D01*
X5345429Y2499360D02*
G01*
X5296408Y2384805D01*
X5279897Y2352039D01*
X5263641Y2335529D01*
X5247131Y2327402D01*
X5239004Y2327402D01*
X5399531Y2499360D02*
G01*
X5399531Y2384805D01*
X5399531Y2450084D02*
G01*
X5407659Y2474721D01*
X5423915Y2490978D01*
X5440425Y2499360D01*
X5464809Y2499360D01*
X5518911Y2556510D02*
G01*
X5527040Y2548381D01*
X5535168Y2556510D01*
X5527040Y2564637D01*
X5518911Y2556510D01*
X5527040Y2499360D02*
G01*
X5527040Y2384805D01*
X5687313Y2499360D02*
G01*
X5687313Y2368295D01*
X5679186Y2343912D01*
X5671058Y2335529D01*
X5654802Y2327402D01*
X5630163Y2327402D01*
X5613908Y2335529D01*
X5687313Y2474721D02*
G01*
X5671058Y2490978D01*
X5654802Y2499360D01*
X5630163Y2499360D01*
X5613908Y2490978D01*
X5597397Y2474721D01*
X5589270Y2450084D01*
X5589270Y2433828D01*
X5597397Y2409189D01*
X5613908Y2392934D01*
X5630163Y2384805D01*
X5654802Y2384805D01*
X5671058Y2392934D01*
X5687313Y2409189D01*
X5741415Y2556510D02*
G01*
X5741415Y2384805D01*
X5741415Y2466594D02*
G01*
X5766054Y2490978D01*
X5782309Y2499360D01*
X5806947Y2499360D01*
X5823204Y2490978D01*
X5831331Y2466594D01*
X5831331Y2384805D01*
X5910072Y2556510D02*
G01*
X5910072Y2417571D01*
X5918200Y2392934D01*
X5934456Y2384805D01*
X5950965Y2384805D01*
X5885434Y2499360D02*
G01*
X5942584Y2499360D01*
X6188202Y2589276D02*
G01*
X6171691Y2573020D01*
X6155436Y2548381D01*
X6139179Y2515615D01*
X6130797Y2474721D01*
X6130797Y2441955D01*
X6139179Y2401062D01*
X6155436Y2368295D01*
X6171691Y2343912D01*
X6188202Y2327402D01*
X6340347Y2474721D02*
G01*
X6324091Y2490978D01*
X6307581Y2499360D01*
X6282943Y2499360D01*
X6266688Y2490978D01*
X6250431Y2474721D01*
X6242050Y2450084D01*
X6242050Y2433828D01*
X6250431Y2409189D01*
X6266688Y2392934D01*
X6282943Y2384805D01*
X6307581Y2384805D01*
X6324091Y2392934D01*
X6340347Y2409189D01*
X6394450Y2589276D02*
G01*
X6410706Y2573020D01*
X6426961Y2548381D01*
X6443472Y2515615D01*
X6451600Y2474721D01*
X6451600Y2441955D01*
X6443472Y2401062D01*
X6426961Y2368295D01*
X6410706Y2343912D01*
X6394450Y2327402D01*
X6639813Y2515615D02*
G01*
X6639813Y2523744D01*
X6647941Y2540254D01*
X6656070Y2548381D01*
X6672579Y2556510D01*
X6705345Y2556510D01*
X6721602Y2548381D01*
X6729729Y2540254D01*
X6737858Y2523744D01*
X6737858Y2507487D01*
X6729729Y2490978D01*
X6713474Y2466594D01*
X6631686Y2384805D01*
X6746240Y2384805D01*
X6849363Y2556510D02*
G01*
X6824725Y2548381D01*
X6808215Y2523744D01*
X6800088Y2482850D01*
X6800088Y2458465D01*
X6808215Y2417571D01*
X6824725Y2392934D01*
X6849363Y2384805D01*
X6865620Y2384805D01*
X6890258Y2392934D01*
X6906513Y2417571D01*
X6914641Y2458465D01*
X6914641Y2482850D01*
X6906513Y2523744D01*
X6890258Y2548381D01*
X6865620Y2556510D01*
X6849363Y2556510D01*
X6976872Y2515615D02*
G01*
X6976872Y2523744D01*
X6985000Y2540254D01*
X6993127Y2548381D01*
X7009638Y2556510D01*
X7042404Y2556510D01*
X7058659Y2548381D01*
X7066788Y2540254D01*
X7075170Y2523744D01*
X7075170Y2507487D01*
X7066788Y2490978D01*
X7050531Y2466594D01*
X6968743Y2384805D01*
X7083297Y2384805D01*
X7145527Y2515615D02*
G01*
X7145527Y2523744D01*
X7153656Y2540254D01*
X7161784Y2548381D01*
X7178040Y2556510D01*
X7210806Y2556510D01*
X7227315Y2548381D01*
X7235443Y2540254D01*
X7243572Y2523744D01*
X7243572Y2507487D01*
X7235443Y2490978D01*
X7219188Y2466594D01*
X7137145Y2384805D01*
X7251700Y2384805D01*
X7554468Y2515615D02*
G01*
X7546340Y2531871D01*
X7530084Y2548381D01*
X7513574Y2556510D01*
X7480808Y2556510D01*
X7464552Y2548381D01*
X7448041Y2531871D01*
X7439913Y2515615D01*
X7431786Y2490978D01*
X7431786Y2450084D01*
X7439913Y2425700D01*
X7448041Y2409189D01*
X7464552Y2392934D01*
X7480808Y2384805D01*
X7513574Y2384805D01*
X7530084Y2392934D01*
X7546340Y2409189D01*
X7554468Y2425700D01*
X7616697Y2499360D02*
G01*
X7665720Y2384805D01*
X7714995Y2499360D02*
G01*
X7665720Y2384805D01*
X7649463Y2352039D01*
X7632954Y2335529D01*
X7616697Y2327402D01*
X7608570Y2327402D01*
X7768843Y2499360D02*
G01*
X7768843Y2384805D01*
X7768843Y2450084D02*
G01*
X7776972Y2474721D01*
X7793481Y2490978D01*
X7809738Y2499360D01*
X7834375Y2499360D01*
X7888224Y2499360D02*
G01*
X7888224Y2417571D01*
X7896606Y2392934D01*
X7912861Y2384805D01*
X7937500Y2384805D01*
X7953756Y2392934D01*
X7978393Y2417571D01*
X7978393Y2499360D02*
G01*
X7978393Y2384805D01*
X8122411Y2474721D02*
G01*
X8114029Y2490978D01*
X8089645Y2499360D01*
X8065008Y2499360D01*
X8040624Y2490978D01*
X8032241Y2474721D01*
X8040624Y2458465D01*
X8056879Y2450084D01*
X8097774Y2441955D01*
X8114029Y2433828D01*
X8122411Y2417571D01*
X8122411Y2409189D01*
X8114029Y2392934D01*
X8089645Y2384805D01*
X8065008Y2384805D01*
X8040624Y2392934D01*
X8032241Y2409189D01*
X8302243Y2556510D02*
G01*
X8302243Y2384805D01*
X8302243Y2556510D02*
G01*
X8375904Y2556510D01*
X8400541Y2548381D01*
X8408670Y2540254D01*
X8416797Y2523744D01*
X8416797Y2507487D01*
X8408670Y2490978D01*
X8400541Y2482850D01*
X8375904Y2474721D01*
X8302243Y2474721D02*
G01*
X8375904Y2474721D01*
X8400541Y2466594D01*
X8408670Y2458465D01*
X8416797Y2441955D01*
X8416797Y2417571D01*
X8408670Y2401062D01*
X8400541Y2392934D01*
X8375904Y2384805D01*
X8302243Y2384805D01*
X8470900Y2499360D02*
G01*
X8470900Y2384805D01*
X8470900Y2450084D02*
G01*
X8479027Y2474721D01*
X8495538Y2490978D01*
X8511793Y2499360D01*
X8536431Y2499360D01*
X8590279Y2499360D02*
G01*
X8590279Y2417571D01*
X8598408Y2392934D01*
X8614918Y2384805D01*
X8639302Y2384805D01*
X8655811Y2392934D01*
X8680450Y2417571D01*
X8680450Y2499360D02*
G01*
X8680450Y2384805D01*
X8734297Y2499360D02*
G01*
X8734297Y2384805D01*
X8734297Y2466594D02*
G01*
X8758936Y2490978D01*
X8775191Y2499360D01*
X8799829Y2499360D01*
X8816086Y2490978D01*
X8824213Y2466594D01*
X8824213Y2384805D01*
X8878315Y2499360D02*
G01*
X8878315Y2384805D01*
X8878315Y2466594D02*
G01*
X8902954Y2490978D01*
X8919209Y2499360D01*
X8943847Y2499360D01*
X8960104Y2490978D01*
X8968231Y2466594D01*
X8968231Y2384805D01*
X9022334Y2450084D02*
G01*
X9120631Y2450084D01*
X9120631Y2466594D01*
X9112250Y2482850D01*
X9104122Y2490978D01*
X9087865Y2499360D01*
X9063227Y2499360D01*
X9046972Y2490978D01*
X9030461Y2474721D01*
X9022334Y2450084D01*
X9022334Y2433828D01*
X9030461Y2409189D01*
X9046972Y2392934D01*
X9063227Y2384805D01*
X9087865Y2384805D01*
X9104122Y2392934D01*
X9120631Y2409189D01*
X9174479Y2499360D02*
G01*
X9174479Y2384805D01*
X9174479Y2450084D02*
G01*
X9182608Y2474721D01*
X9199118Y2490978D01*
X9215374Y2499360D01*
X9240011Y2499360D01*
X6038088Y2191257D02*
G01*
X6024372Y2204973D01*
X6010909Y2211831D01*
X5990336Y2211831D01*
X5976874Y2204973D01*
X5963158Y2191257D01*
X5956300Y2170937D01*
X5956300Y2157221D01*
X5963158Y2136902D01*
X5976874Y2123186D01*
X5990336Y2116328D01*
X6010909Y2116328D01*
X6024372Y2123186D01*
X6038088Y2136902D01*
X6089904Y2211831D02*
G01*
X6130797Y2116328D01*
X6171691Y2211831D02*
G01*
X6130797Y2116328D01*
X6117081Y2089150D01*
X6103620Y2075434D01*
X6089904Y2068576D01*
X6083045Y2068576D01*
X6216650Y2211831D02*
G01*
X6216650Y2116328D01*
X6216650Y2170937D02*
G01*
X6223508Y2191257D01*
X6237224Y2204973D01*
X6250940Y2211831D01*
X6271259Y2211831D01*
X6316218Y2211831D02*
G01*
X6316218Y2143760D01*
X6323075Y2123186D01*
X6336791Y2116328D01*
X6357111Y2116328D01*
X6370827Y2123186D01*
X6391402Y2143760D01*
X6391402Y2211831D02*
G01*
X6391402Y2116328D01*
X6511290Y2191257D02*
G01*
X6504431Y2204973D01*
X6484111Y2211831D01*
X6463538Y2211831D01*
X6443218Y2204973D01*
X6436359Y2191257D01*
X6443218Y2177795D01*
X6456679Y2170937D01*
X6490970Y2164079D01*
X6504431Y2157221D01*
X6511290Y2143760D01*
X6511290Y2136902D01*
X6504431Y2123186D01*
X6484111Y2116328D01*
X6463538Y2116328D01*
X6443218Y2123186D01*
X6436359Y2136902D01*
X6556247Y2259584D02*
G01*
X6556247Y2116328D01*
X6556247Y2191257D02*
G01*
X6569963Y2204973D01*
X6583679Y2211831D01*
X6604000Y2211831D01*
X6617715Y2204973D01*
X6631177Y2191257D01*
X6638036Y2170937D01*
X6638036Y2157221D01*
X6631177Y2136902D01*
X6617715Y2123186D01*
X6604000Y2116328D01*
X6583679Y2116328D01*
X6569963Y2123186D01*
X6556247Y2136902D01*
X6682993Y2211831D02*
G01*
X6682993Y2143760D01*
X6689852Y2123186D01*
X6703568Y2116328D01*
X6724141Y2116328D01*
X6737604Y2123186D01*
X6758177Y2143760D01*
X6758177Y2211831D02*
G01*
X6758177Y2116328D01*
X6803136Y2259584D02*
G01*
X6809993Y2252726D01*
X6816852Y2259584D01*
X6809993Y2266442D01*
X6803136Y2259584D01*
X6809993Y2211831D02*
G01*
X6809993Y2116328D01*
X6861809Y2259584D02*
G01*
X6861809Y2116328D01*
X6927088Y2259584D02*
G01*
X6927088Y2143760D01*
X6933945Y2123186D01*
X6947661Y2116328D01*
X6961377Y2116328D01*
X6906768Y2211831D02*
G01*
X6954520Y2211831D01*
X7108443Y2204973D02*
G01*
X7101840Y2218689D01*
X7088124Y2225547D01*
X7067550Y2225547D01*
X7054088Y2218689D01*
X7047229Y2211831D01*
X7040372Y2191257D01*
X7040372Y2170937D01*
X7047229Y2157221D01*
X7060945Y2150363D01*
X7081265Y2150363D01*
X7094981Y2157221D01*
X7101840Y2170937D01*
X7067550Y2225547D02*
G01*
X7054088Y2211831D01*
X7047229Y2191257D01*
X7047229Y2170937D01*
X7054088Y2157221D01*
X7060945Y2150363D01*
X7108443Y2225547D02*
G01*
X7101840Y2170937D01*
X7101840Y2157221D01*
X7115302Y2150363D01*
X7129018Y2150363D01*
X7142734Y2164079D01*
X7149591Y2184654D01*
X7149591Y2198115D01*
X7142734Y2218689D01*
X7135875Y2232405D01*
X7122159Y2245868D01*
X7108443Y2252726D01*
X7088124Y2259584D01*
X7067550Y2259584D01*
X7047229Y2252726D01*
X7033513Y2245868D01*
X7020052Y2232405D01*
X7013193Y2218689D01*
X7006336Y2198115D01*
X7006336Y2177795D01*
X7013193Y2157221D01*
X7020052Y2143760D01*
X7033513Y2130044D01*
X7047229Y2123186D01*
X7067550Y2116328D01*
X7088124Y2116328D01*
X7108443Y2123186D01*
X7122159Y2130044D01*
X7129018Y2136902D01*
X7115302Y2225547D02*
G01*
X7108443Y2170937D01*
X7108443Y2157221D01*
X7115302Y2150363D01*
X7276338Y2211831D02*
G01*
X7276338Y2102865D01*
X7269479Y2082292D01*
X7262622Y2075434D01*
X7248906Y2068576D01*
X7228586Y2068576D01*
X7214870Y2075434D01*
X7276338Y2191257D02*
G01*
X7262622Y2204973D01*
X7248906Y2211831D01*
X7228586Y2211831D01*
X7214870Y2204973D01*
X7201408Y2191257D01*
X7194550Y2170937D01*
X7194550Y2157221D01*
X7201408Y2136902D01*
X7214870Y2123186D01*
X7228586Y2116328D01*
X7248906Y2116328D01*
X7262622Y2123186D01*
X7276338Y2136902D01*
X7321295Y2211831D02*
G01*
X7321295Y2116328D01*
X7321295Y2184654D02*
G01*
X7341870Y2204973D01*
X7355331Y2211831D01*
X7375906Y2211831D01*
X7389368Y2204973D01*
X7396225Y2184654D01*
X7396225Y2116328D01*
X7396225Y2184654D02*
G01*
X7416800Y2204973D01*
X7430261Y2211831D01*
X7450836Y2211831D01*
X7464552Y2204973D01*
X7471409Y2184654D01*
X7471409Y2116328D01*
X7598156Y2211831D02*
G01*
X7598156Y2116328D01*
X7598156Y2191257D02*
G01*
X7584440Y2204973D01*
X7570724Y2211831D01*
X7550404Y2211831D01*
X7536688Y2204973D01*
X7523225Y2191257D01*
X7516368Y2170937D01*
X7516368Y2157221D01*
X7523225Y2136902D01*
X7536688Y2123186D01*
X7550404Y2116328D01*
X7570724Y2116328D01*
X7584440Y2123186D01*
X7598156Y2136902D01*
X7643113Y2259584D02*
G01*
X7649972Y2252726D01*
X7656829Y2259584D01*
X7649972Y2266442D01*
X7643113Y2259584D01*
X7649972Y2211831D02*
G01*
X7649972Y2116328D01*
X7701788Y2259584D02*
G01*
X7701788Y2116328D01*
X7753604Y2150363D02*
G01*
X7746745Y2143760D01*
X7753604Y2136902D01*
X7760461Y2143760D01*
X7753604Y2150363D01*
X7887208Y2191257D02*
G01*
X7873491Y2204973D01*
X7860029Y2211831D01*
X7839456Y2211831D01*
X7825740Y2204973D01*
X7812277Y2191257D01*
X7805420Y2170937D01*
X7805420Y2157221D01*
X7812277Y2136902D01*
X7825740Y2123186D01*
X7839456Y2116328D01*
X7860029Y2116328D01*
X7873491Y2123186D01*
X7887208Y2136902D01*
X7966202Y2211831D02*
G01*
X7952740Y2204973D01*
X7939024Y2191257D01*
X7932165Y2170937D01*
X7932165Y2157221D01*
X7939024Y2136902D01*
X7952740Y2123186D01*
X7966202Y2116328D01*
X7986775Y2116328D01*
X8000491Y2123186D01*
X8013954Y2136902D01*
X8020811Y2157221D01*
X8020811Y2170937D01*
X8013954Y2191257D01*
X8000491Y2204973D01*
X7986775Y2211831D01*
X7966202Y2211831D01*
X8065770Y2211831D02*
G01*
X8065770Y2116328D01*
X8065770Y2184654D02*
G01*
X8086343Y2204973D01*
X8099806Y2211831D01*
X8120379Y2211831D01*
X8134095Y2204973D01*
X8140954Y2184654D01*
X8140954Y2116328D01*
X8140954Y2184654D02*
G01*
X8161274Y2204973D01*
X8174990Y2211831D01*
X8195309Y2211831D01*
X8209025Y2204973D01*
X8215884Y2184654D01*
X8215884Y2116328D01*
X5334000Y8368284D02*
G01*
X5334000Y8225028D01*
X5334000Y8368284D02*
G01*
X5422645Y8368284D01*
X5334000Y8299958D02*
G01*
X5388609Y8299958D01*
X5522213Y8368284D02*
G01*
X5467604Y8225028D01*
X5522213Y8368284D02*
G01*
X5576824Y8225028D01*
X5488177Y8272779D02*
G01*
X5556250Y8272779D01*
X5621781Y8368284D02*
G01*
X5621781Y8225028D01*
X5621781Y8368284D02*
G01*
X5682995Y8368284D01*
X5703570Y8361426D01*
X5710427Y8354568D01*
X5717286Y8341105D01*
X5717286Y8327389D01*
X5710427Y8313673D01*
X5703570Y8306815D01*
X5682995Y8299958D01*
X5621781Y8299958D02*
G01*
X5682995Y8299958D01*
X5703570Y8293354D01*
X5710427Y8286495D01*
X5717286Y8272779D01*
X5717286Y8252460D01*
X5710427Y8238744D01*
X5703570Y8231886D01*
X5682995Y8225028D01*
X5621781Y8225028D01*
X5908040Y8368284D02*
G01*
X5887720Y8361426D01*
X5874004Y8341105D01*
X5867145Y8306815D01*
X5867145Y8286495D01*
X5874004Y8252460D01*
X5887720Y8231886D01*
X5908040Y8225028D01*
X5921756Y8225028D01*
X5942075Y8231886D01*
X5955791Y8252460D01*
X5962650Y8286495D01*
X5962650Y8306815D01*
X5955791Y8341105D01*
X5942075Y8361426D01*
X5921756Y8368284D01*
X5908040Y8368284D01*
X6048502Y8368284D02*
G01*
X6028181Y8361426D01*
X6014465Y8341105D01*
X6007608Y8306815D01*
X6007608Y8286495D01*
X6014465Y8252460D01*
X6028181Y8231886D01*
X6048502Y8225028D01*
X6062218Y8225028D01*
X6082538Y8231886D01*
X6096254Y8252460D01*
X6103111Y8286495D01*
X6103111Y8306815D01*
X6096254Y8341105D01*
X6082538Y8361426D01*
X6062218Y8368284D01*
X6048502Y8368284D01*
X6148070Y8341105D02*
G01*
X6161786Y8347710D01*
X6182106Y8368284D01*
X6182106Y8225028D01*
X6268211Y8368284D02*
G01*
X6247638Y8361426D01*
X6233922Y8341105D01*
X6227063Y8306815D01*
X6227063Y8286495D01*
X6233922Y8252460D01*
X6247638Y8231886D01*
X6268211Y8225028D01*
X6281674Y8225028D01*
X6302247Y8231886D01*
X6315709Y8252460D01*
X6322568Y8286495D01*
X6322568Y8306815D01*
X6315709Y8341105D01*
X6302247Y8361426D01*
X6281674Y8368284D01*
X6268211Y8368284D01*
X6408420Y8368284D02*
G01*
X6388100Y8361426D01*
X6374384Y8341105D01*
X6367525Y8306815D01*
X6367525Y8286495D01*
X6374384Y8252460D01*
X6388100Y8231886D01*
X6408420Y8225028D01*
X6422136Y8225028D01*
X6442709Y8231886D01*
X6456172Y8252460D01*
X6463029Y8286495D01*
X6463029Y8306815D01*
X6456172Y8341105D01*
X6442709Y8361426D01*
X6422136Y8368284D01*
X6408420Y8368284D01*
X6507988Y8341105D02*
G01*
X6521704Y8347710D01*
X6542277Y8368284D01*
X6542277Y8225028D01*
X6746747Y8368284D02*
G01*
X6692138Y8225028D01*
X6746747Y8368284D02*
G01*
X6801358Y8225028D01*
X6712711Y8272779D02*
G01*
X6780784Y8272779D01*
X6941820Y8347710D02*
G01*
X6928104Y8361426D01*
X6907529Y8368284D01*
X6880352Y8368284D01*
X6860031Y8361426D01*
X6846315Y8347710D01*
X6846315Y8334247D01*
X6853174Y8320531D01*
X6860031Y8313673D01*
X6873493Y8306815D01*
X6914388Y8293354D01*
X6928104Y8286495D01*
X6934961Y8279637D01*
X6941820Y8265921D01*
X6941820Y8245602D01*
X6928104Y8231886D01*
X6907529Y8225028D01*
X6880352Y8225028D01*
X6860031Y8231886D01*
X6846315Y8245602D01*
X7082281Y8347710D02*
G01*
X7068565Y8361426D01*
X7047991Y8368284D01*
X7020813Y8368284D01*
X7000240Y8361426D01*
X6986777Y8347710D01*
X6986777Y8334247D01*
X6993636Y8320531D01*
X7000240Y8313673D01*
X7013956Y8306815D01*
X7054850Y8293354D01*
X7068565Y8286495D01*
X7075424Y8279637D01*
X7082281Y8265921D01*
X7082281Y8245602D01*
X7068565Y8231886D01*
X7047991Y8225028D01*
X7020813Y8225028D01*
X7000240Y8231886D01*
X6986777Y8245602D01*
X7127240Y8368284D02*
G01*
X7181850Y8299958D01*
X7181850Y8225028D01*
X7236206Y8368284D02*
G01*
X7181850Y8299958D01*
X7427213Y8368284D02*
G01*
X7406640Y8361426D01*
X7393177Y8341105D01*
X7386320Y8306815D01*
X7386320Y8286495D01*
X7393177Y8252460D01*
X7406640Y8231886D01*
X7427213Y8225028D01*
X7440929Y8225028D01*
X7461250Y8231886D01*
X7474965Y8252460D01*
X7481824Y8286495D01*
X7481824Y8306815D01*
X7474965Y8341105D01*
X7461250Y8361426D01*
X7440929Y8368284D01*
X7427213Y8368284D01*
X7567675Y8368284D02*
G01*
X7547102Y8361426D01*
X7533640Y8341105D01*
X7526781Y8306815D01*
X7526781Y8286495D01*
X7533640Y8252460D01*
X7547102Y8231886D01*
X7567675Y8225028D01*
X7581391Y8225028D01*
X7601711Y8231886D01*
X7615427Y8252460D01*
X7622286Y8286495D01*
X7622286Y8306815D01*
X7615427Y8341105D01*
X7601711Y8361426D01*
X7581391Y8368284D01*
X7567675Y8368284D01*
X7667243Y8341105D02*
G01*
X7680706Y8347710D01*
X7701279Y8368284D01*
X7701279Y8225028D01*
X7787131Y8368284D02*
G01*
X7766811Y8361426D01*
X7753095Y8341105D01*
X7746238Y8306815D01*
X7746238Y8286495D01*
X7753095Y8252460D01*
X7766811Y8231886D01*
X7787131Y8225028D01*
X7800847Y8225028D01*
X7821168Y8231886D01*
X7834884Y8252460D01*
X7841741Y8286495D01*
X7841741Y8306815D01*
X7834884Y8341105D01*
X7821168Y8361426D01*
X7800847Y8368284D01*
X7787131Y8368284D01*
X7927593Y8368284D02*
G01*
X7907274Y8361426D01*
X7893558Y8341105D01*
X7886700Y8306815D01*
X7886700Y8286495D01*
X7893558Y8252460D01*
X7907274Y8231886D01*
X7927593Y8225028D01*
X7941309Y8225028D01*
X7961629Y8231886D01*
X7975345Y8252460D01*
X7982204Y8286495D01*
X7982204Y8306815D01*
X7975345Y8341105D01*
X7961629Y8361426D01*
X7941309Y8368284D01*
X7927593Y8368284D01*
X8034020Y8334247D02*
G01*
X8034020Y8341105D01*
X8040877Y8354568D01*
X8047736Y8361426D01*
X8061197Y8368284D01*
X8088629Y8368284D01*
X8102091Y8361426D01*
X8108950Y8354568D01*
X8115808Y8341105D01*
X8115808Y8327389D01*
X8108950Y8313673D01*
X8095234Y8293354D01*
X8027161Y8225028D01*
X8122665Y8225028D01*
D10*
X3505200Y3353815D02*
G01*
X3505200Y3244850D01*
X3505200Y3353815D02*
G01*
X3551936Y3353815D01*
X3567429Y3348736D01*
X3572763Y3343402D01*
X3577843Y3332987D01*
X3577843Y3322573D01*
X3572763Y3312160D01*
X3567429Y3307079D01*
X3551936Y3302000D01*
X3505200Y3302000D01*
X3541522Y3302000D02*
G01*
X3577843Y3244850D01*
X3685031Y3338321D02*
G01*
X3674618Y3348736D01*
X3658870Y3353815D01*
X3638295Y3353815D01*
X3622547Y3348736D01*
X3612134Y3338321D01*
X3612134Y3327907D01*
X3617468Y3317494D01*
X3622547Y3312160D01*
X3632961Y3307079D01*
X3664204Y3296665D01*
X3674618Y3291586D01*
X3679697Y3286252D01*
X3685031Y3275837D01*
X3685031Y3260344D01*
X3674618Y3249929D01*
X3658870Y3244850D01*
X3638295Y3244850D01*
X3622547Y3249929D01*
X3612134Y3260344D01*
X3719322Y3291586D02*
G01*
X3812793Y3291586D01*
X3852163Y3327907D02*
G01*
X3852163Y3332987D01*
X3857497Y3343402D01*
X3862577Y3348736D01*
X3872991Y3353815D01*
X3893820Y3353815D01*
X3904234Y3348736D01*
X3909313Y3343402D01*
X3914647Y3332987D01*
X3914647Y3322573D01*
X3909313Y3312160D01*
X3898900Y3296665D01*
X3847084Y3244850D01*
X3919727Y3244850D01*
X3964431Y3353815D02*
G01*
X4021581Y3353815D01*
X3990340Y3312160D01*
X4006088Y3312160D01*
X4016502Y3307079D01*
X4021581Y3302000D01*
X4026915Y3286252D01*
X4026915Y3275837D01*
X4021581Y3260344D01*
X4011168Y3249929D01*
X3995674Y3244850D01*
X3980179Y3244850D01*
X3964431Y3249929D01*
X3959352Y3255010D01*
X3954018Y3265423D01*
X4066286Y3327907D02*
G01*
X4066286Y3332987D01*
X4071620Y3343402D01*
X4076700Y3348736D01*
X4087113Y3353815D01*
X4107941Y3353815D01*
X4118356Y3348736D01*
X4123436Y3343402D01*
X4128770Y3332987D01*
X4128770Y3322573D01*
X4123436Y3312160D01*
X4113022Y3296665D01*
X4061206Y3244850D01*
X4133850Y3244850D01*
X1790700Y4509515D02*
G01*
X1790700Y4400550D01*
X1790700Y4509515D02*
G01*
X1827021Y4509515D01*
X1842770Y4504436D01*
X1852929Y4494021D01*
X1858263Y4483607D01*
X1863344Y4467860D01*
X1863344Y4441952D01*
X1858263Y4426457D01*
X1852929Y4416044D01*
X1842770Y4405629D01*
X1827021Y4400550D01*
X1790700Y4400550D01*
X1908047Y4509515D02*
G01*
X1965197Y4509515D01*
X1934209Y4467860D01*
X1949704Y4467860D01*
X1960118Y4462779D01*
X1965197Y4457700D01*
X1970531Y4441952D01*
X1970531Y4431537D01*
X1965197Y4416044D01*
X1954784Y4405629D01*
X1939290Y4400550D01*
X1923795Y4400550D01*
X1908047Y4405629D01*
X1902968Y4410710D01*
X1897634Y4421123D01*
X10364977Y2629407D02*
G01*
X10359643Y2639821D01*
X10349229Y2650236D01*
X10339070Y2655315D01*
X10318241Y2655315D01*
X10307827Y2650236D01*
X10297413Y2639821D01*
X10292079Y2629407D01*
X10287000Y2613660D01*
X10287000Y2587752D01*
X10292079Y2572257D01*
X10297413Y2561844D01*
X10307827Y2551429D01*
X10318241Y2546350D01*
X10339070Y2546350D01*
X10349229Y2551429D01*
X10359643Y2561844D01*
X10364977Y2572257D01*
X10399268Y2634487D02*
G01*
X10409681Y2639821D01*
X10425175Y2655315D01*
X10425175Y2546350D01*
X10352277Y5969507D02*
G01*
X10346943Y5979921D01*
X10336529Y5990336D01*
X10326370Y5995415D01*
X10305541Y5995415D01*
X10295127Y5990336D01*
X10284713Y5979921D01*
X10279379Y5969507D01*
X10274300Y5953760D01*
X10274300Y5927852D01*
X10279379Y5912357D01*
X10284713Y5901944D01*
X10295127Y5891529D01*
X10305541Y5886450D01*
X10326370Y5886450D01*
X10336529Y5891529D01*
X10346943Y5901944D01*
X10352277Y5912357D01*
X10391647Y5969507D02*
G01*
X10391647Y5974587D01*
X10396981Y5985002D01*
X10402061Y5990336D01*
X10412475Y5995415D01*
X10433304Y5995415D01*
X10443718Y5990336D01*
X10448797Y5985002D01*
X10454131Y5974587D01*
X10454131Y5964173D01*
X10448797Y5953760D01*
X10438384Y5938265D01*
X10386568Y5886450D01*
X10459211Y5886450D01*
X7215377Y6553708D02*
G01*
X7210043Y6564121D01*
X7199629Y6574536D01*
X7189470Y6579615D01*
X7168641Y6579615D01*
X7158227Y6574536D01*
X7147813Y6564121D01*
X7142479Y6553708D01*
X7137400Y6537960D01*
X7137400Y6512052D01*
X7142479Y6496557D01*
X7147813Y6486144D01*
X7158227Y6475729D01*
X7168641Y6470650D01*
X7189470Y6470650D01*
X7199629Y6475729D01*
X7210043Y6486144D01*
X7215377Y6496557D01*
X7260081Y6579615D02*
G01*
X7317231Y6579615D01*
X7285990Y6537960D01*
X7301484Y6537960D01*
X7311897Y6532879D01*
X7317231Y6527800D01*
X7322311Y6512052D01*
X7322311Y6501637D01*
X7317231Y6486144D01*
X7306818Y6475729D01*
X7291070Y6470650D01*
X7275575Y6470650D01*
X7260081Y6475729D01*
X7254747Y6480810D01*
X7249668Y6491223D01*
X1967991Y4789678D02*
G01*
X1957577Y4784344D01*
X1947163Y4773929D01*
X1942084Y4763770D01*
X1942084Y4742942D01*
X1947163Y4732528D01*
X1957577Y4722113D01*
X1967991Y4716779D01*
X1983740Y4711700D01*
X2009647Y4711700D01*
X2025141Y4716779D01*
X2035556Y4722113D01*
X2045970Y4732528D01*
X2051050Y4742942D01*
X2051050Y4763770D01*
X2045970Y4773929D01*
X2035556Y4784344D01*
X2025141Y4789678D01*
X1942084Y4875784D02*
G01*
X2014727Y4823968D01*
X2014727Y4901945D01*
X1942084Y4875784D02*
G01*
X2051050Y4875784D01*
X2197100Y8408415D02*
G01*
X2197100Y8299450D01*
X2197100Y8408415D02*
G01*
X2233422Y8408415D01*
X2249170Y8403336D01*
X2259329Y8392921D01*
X2264663Y8382508D01*
X2269743Y8366760D01*
X2269743Y8340852D01*
X2264663Y8325358D01*
X2259329Y8314944D01*
X2249170Y8304529D01*
X2233422Y8299450D01*
X2197100Y8299450D01*
X2304034Y8387587D02*
G01*
X2314447Y8392921D01*
X2330195Y8408415D01*
X2330195Y8299450D01*
X1803400Y6122415D02*
G01*
X1803400Y6013450D01*
X1803400Y6122415D02*
G01*
X1839721Y6122415D01*
X1855470Y6117336D01*
X1865629Y6106921D01*
X1870963Y6096507D01*
X1876044Y6080760D01*
X1876044Y6054852D01*
X1870963Y6039357D01*
X1865629Y6028944D01*
X1855470Y6018529D01*
X1839721Y6013450D01*
X1803400Y6013450D01*
X1915668Y6096507D02*
G01*
X1915668Y6101587D01*
X1920747Y6112002D01*
X1926081Y6117336D01*
X1936495Y6122415D01*
X1957070Y6122415D01*
X1967484Y6117336D01*
X1972818Y6112002D01*
X1977897Y6101587D01*
X1977897Y6091173D01*
X1972818Y6080760D01*
X1962404Y6065265D01*
X1910334Y6013450D01*
X1983231Y6013450D01*
X1289672Y5946429D02*
G01*
X1331328Y5946429D01*
X1310500Y5925601D02*
G01*
X1310500Y5967257D01*
X1315501Y6160599D02*
G01*
X1315501Y6202255D01*
X1601215Y3313429D02*
G01*
X1518157Y3313429D01*
X1502410Y3318763D01*
X1497329Y3323844D01*
X1492250Y3334257D01*
X1492250Y3344671D01*
X1497329Y3355086D01*
X1502410Y3360420D01*
X1518157Y3365500D01*
X1528571Y3365500D01*
X1601215Y3279139D02*
G01*
X1492250Y3279139D01*
X1601215Y3279139D02*
G01*
X1601215Y3232404D01*
X1596136Y3216910D01*
X1590802Y3211829D01*
X1580387Y3206495D01*
X1564894Y3206495D01*
X1554479Y3211829D01*
X1549400Y3216910D01*
X1544065Y3232404D01*
X1544065Y3279139D01*
X1580387Y3172205D02*
G01*
X1585721Y3161792D01*
X1601215Y3146297D01*
X1492250Y3146297D01*
X1601215Y7275829D02*
G01*
X1518157Y7275829D01*
X1502410Y7281163D01*
X1497329Y7286244D01*
X1492250Y7296658D01*
X1492250Y7307071D01*
X1497329Y7317486D01*
X1502410Y7322820D01*
X1518157Y7327900D01*
X1528571Y7327900D01*
X1601215Y7241539D02*
G01*
X1492250Y7241539D01*
X1601215Y7241539D02*
G01*
X1601215Y7194804D01*
X1596136Y7179310D01*
X1590802Y7174229D01*
X1580387Y7168895D01*
X1564894Y7168895D01*
X1554479Y7174229D01*
X1549400Y7179310D01*
X1544065Y7194804D01*
X1544065Y7241539D01*
X1575307Y7129526D02*
G01*
X1580387Y7129526D01*
X1590802Y7124192D01*
X1596136Y7119112D01*
X1601215Y7108697D01*
X1601215Y7087870D01*
X1596136Y7077455D01*
X1590802Y7072376D01*
X1580387Y7067042D01*
X1569973Y7067042D01*
X1559560Y7072376D01*
X1544065Y7082789D01*
X1492250Y7134605D01*
X1492250Y7061962D01*
X11149584Y3340100D02*
G01*
X11258550Y3340100D01*
X11149584Y3340100D02*
G01*
X11149584Y3386836D01*
X11154663Y3402329D01*
X11159997Y3407663D01*
X11170411Y3412744D01*
X11185906Y3412744D01*
X11196320Y3407663D01*
X11201400Y3402329D01*
X11206734Y3386836D01*
X11206734Y3340100D01*
X11170411Y3447034D02*
G01*
X11165077Y3457447D01*
X11149584Y3473195D01*
X11258550Y3473195D01*
X11162284Y6692900D02*
G01*
X11271250Y6692900D01*
X11162284Y6692900D02*
G01*
X11162284Y6739636D01*
X11167363Y6755129D01*
X11172697Y6760463D01*
X11183111Y6765544D01*
X11198606Y6765544D01*
X11209020Y6760463D01*
X11214100Y6755129D01*
X11219434Y6739636D01*
X11219434Y6692900D01*
X11188191Y6805168D02*
G01*
X11183111Y6805168D01*
X11172697Y6810247D01*
X11167363Y6815581D01*
X11162284Y6825995D01*
X11162284Y6846570D01*
X11167363Y6856984D01*
X11172697Y6862318D01*
X11183111Y6867397D01*
X11193525Y6867397D01*
X11203940Y6862318D01*
X11219434Y6851904D01*
X11271250Y6799834D01*
X11271250Y6872731D01*
X6172200Y4623815D02*
G01*
X6172200Y4514850D01*
X6172200Y4623815D02*
G01*
X6218936Y4623815D01*
X6234429Y4618736D01*
X6239763Y4613402D01*
X6244843Y4602987D01*
X6244843Y4592573D01*
X6239763Y4582160D01*
X6234429Y4577079D01*
X6218936Y4572000D01*
X6172200Y4572000D01*
X6208522Y4572000D02*
G01*
X6244843Y4514850D01*
X6284468Y4597907D02*
G01*
X6284468Y4602987D01*
X6289547Y4613402D01*
X6294881Y4618736D01*
X6305295Y4623815D01*
X6325870Y4623815D01*
X6336284Y4618736D01*
X6341618Y4613402D01*
X6346697Y4602987D01*
X6346697Y4592573D01*
X6341618Y4582160D01*
X6331204Y4566665D01*
X6279134Y4514850D01*
X6352031Y4514850D01*
X5664200Y5627115D02*
G01*
X5664200Y5549137D01*
X5669279Y5533644D01*
X5679693Y5523229D01*
X5695441Y5518150D01*
X5705856Y5518150D01*
X5721350Y5523229D01*
X5731763Y5533644D01*
X5736843Y5549137D01*
X5736843Y5627115D01*
X5771134Y5606287D02*
G01*
X5781547Y5611621D01*
X5797295Y5627115D01*
X5797295Y5518150D01*
X3606800Y7417815D02*
G01*
X3606800Y7339837D01*
X3611879Y7324344D01*
X3622293Y7313929D01*
X3638041Y7308850D01*
X3648456Y7308850D01*
X3663950Y7313929D01*
X3674363Y7324344D01*
X3679443Y7339837D01*
X3679443Y7417815D01*
X3719068Y7391908D02*
G01*
X3719068Y7396987D01*
X3724147Y7407402D01*
X3729481Y7412736D01*
X3739895Y7417815D01*
X3760470Y7417815D01*
X3770884Y7412736D01*
X3776218Y7407402D01*
X3781297Y7396987D01*
X3781297Y7386573D01*
X3776218Y7376160D01*
X3765804Y7360665D01*
X3713734Y7308850D01*
X3786631Y7308850D01*
D11*
X3605022Y4267200D02*
G01*
X3798824Y4267200D01*
X3605022Y4396486D02*
G01*
X3798824Y4396486D01*
X3697224Y4267200D02*
G01*
X3697224Y4396486D01*
X3669538Y4457445D02*
G01*
X3761993Y4457445D01*
X3789679Y4466589D01*
X3798824Y4485131D01*
X3798824Y4512818D01*
X3789679Y4531360D01*
X3761993Y4559045D01*
X3669538Y4559045D02*
G01*
X3798824Y4559045D01*
X3669538Y4721605D02*
G01*
X3798824Y4620005D01*
X3669538Y4620005D02*
G01*
X3669538Y4721605D01*
X3798824Y4620005D02*
G01*
X3798824Y4721605D01*
X3669538Y4884165D02*
G01*
X3798824Y4782565D01*
X3669538Y4782565D02*
G01*
X3669538Y4884165D01*
X3798824Y4782565D02*
G01*
X3798824Y4884165D01*
X3669538Y5055870D02*
G01*
X3798824Y5055870D01*
X3697224Y5055870D02*
G01*
X3678936Y5037581D01*
X3669538Y5019039D01*
X3669538Y4991354D01*
X3678936Y4972812D01*
X3697224Y4954270D01*
X3724909Y4945126D01*
X3743452Y4945126D01*
X3771138Y4954270D01*
X3789679Y4972812D01*
X3798824Y4991354D01*
X3798824Y5019039D01*
X3789679Y5037581D01*
X3771138Y5055870D01*
X3605022Y5116829D02*
G01*
X3798824Y5116829D01*
X3706622Y5116829D02*
G01*
X3678936Y5144770D01*
X3669538Y5163057D01*
X3669538Y5190744D01*
X3678936Y5209286D01*
X3706622Y5218429D01*
X3798824Y5218429D01*
X3605022Y5421629D02*
G01*
X3798824Y5421629D01*
X3605022Y5421629D02*
G01*
X3605022Y5541771D01*
X3697224Y5421629D02*
G01*
X3697224Y5495544D01*
X3798824Y5421629D02*
G01*
X3798824Y5541771D01*
X3632708Y5732018D02*
G01*
X3614165Y5713729D01*
X3605022Y5685789D01*
X3605022Y5648960D01*
X3614165Y5621273D01*
X3632708Y5602731D01*
X3651250Y5602731D01*
X3669538Y5612129D01*
X3678936Y5621273D01*
X3688079Y5639815D01*
X3706622Y5695187D01*
X3715765Y5713729D01*
X3724909Y5722873D01*
X3743452Y5732018D01*
X3771138Y5732018D01*
X3789679Y5713729D01*
X3798824Y5685789D01*
X3798824Y5648960D01*
X3789679Y5621273D01*
X3771138Y5602731D01*
X3605022Y5792978D02*
G01*
X3798824Y5792978D01*
X3605022Y5792978D02*
G01*
X3605022Y5876289D01*
X3614165Y5903976D01*
X3623309Y5913120D01*
X3641852Y5922263D01*
X3669538Y5922263D01*
X3688079Y5913120D01*
X3697224Y5903976D01*
X3706622Y5876289D01*
X3706622Y5792978D01*
X3715765Y5983223D02*
G01*
X3715765Y6149594D01*
X3605022Y6256781D02*
G01*
X3614165Y6229095D01*
X3632708Y6219697D01*
X3651250Y6219697D01*
X3669538Y6229095D01*
X3678936Y6247384D01*
X3688079Y6284468D01*
X3697224Y6312154D01*
X3715765Y6330695D01*
X3734308Y6339839D01*
X3761993Y6339839D01*
X3780536Y6330695D01*
X3789679Y6321297D01*
X3798824Y6293612D01*
X3798824Y6256781D01*
X3789679Y6229095D01*
X3780536Y6219697D01*
X3761993Y6210554D01*
X3734308Y6210554D01*
X3715765Y6219697D01*
X3697224Y6238239D01*
X3688079Y6265926D01*
X3678936Y6303010D01*
X3669538Y6321297D01*
X3651250Y6330695D01*
X3632708Y6330695D01*
X3614165Y6321297D01*
X3605022Y6293612D01*
X3605022Y6256781D01*
X3651250Y6409944D02*
G01*
X3641852Y6409944D01*
X3623309Y6419342D01*
X3614165Y6428486D01*
X3605022Y6447028D01*
X3605022Y6483857D01*
X3614165Y6502400D01*
X3623309Y6511544D01*
X3641852Y6520942D01*
X3660393Y6520942D01*
X3678936Y6511544D01*
X3706622Y6493255D01*
X3798824Y6400800D01*
X3798824Y6530086D01*
X3632708Y6701789D02*
G01*
X3614165Y6692645D01*
X3605022Y6664960D01*
X3605022Y6646418D01*
X3614165Y6618731D01*
X3641852Y6600189D01*
X3688079Y6591045D01*
X3734308Y6591045D01*
X3771138Y6600189D01*
X3789679Y6618731D01*
X3798824Y6646418D01*
X3798824Y6655815D01*
X3789679Y6683502D01*
X3771138Y6701789D01*
X3743452Y6711187D01*
X3734308Y6711187D01*
X3706622Y6701789D01*
X3688079Y6683502D01*
X3678936Y6655815D01*
X3678936Y6646418D01*
X3688079Y6618731D01*
X3706622Y6600189D01*
X3734308Y6591045D01*
X3632708Y6882892D02*
G01*
X3614165Y6873747D01*
X3605022Y6846062D01*
X3605022Y6827520D01*
X3614165Y6799834D01*
X3641852Y6781292D01*
X3688079Y6772147D01*
X3734308Y6772147D01*
X3771138Y6781292D01*
X3789679Y6799834D01*
X3798824Y6827520D01*
X3798824Y6836663D01*
X3789679Y6864350D01*
X3771138Y6882892D01*
X3743452Y6892289D01*
X3734308Y6892289D01*
X3706622Y6882892D01*
X3688079Y6864350D01*
X3678936Y6836663D01*
X3678936Y6827520D01*
X3688079Y6799834D01*
X3706622Y6781292D01*
X3734308Y6772147D01*
D10*
X9473184Y3898900D02*
G01*
X9551161Y3898900D01*
X9566656Y3903979D01*
X9577070Y3914394D01*
X9582150Y3930142D01*
X9582150Y3940555D01*
X9577070Y3956050D01*
X9566656Y3966463D01*
X9551161Y3971544D01*
X9473184Y3971544D01*
X9473184Y4016247D02*
G01*
X9473184Y4073397D01*
X9514840Y4042410D01*
X9514840Y4057904D01*
X9519920Y4068318D01*
X9525000Y4073397D01*
X9540747Y4078731D01*
X9551161Y4078731D01*
X9566656Y4073397D01*
X9577070Y4062984D01*
X9582150Y4047489D01*
X9582150Y4031995D01*
X9577070Y4016247D01*
X9571990Y4011168D01*
X9561575Y4005834D01*
X9460484Y6972300D02*
G01*
X9538461Y6972300D01*
X9553956Y6977379D01*
X9564370Y6987794D01*
X9569450Y7003542D01*
X9569450Y7013955D01*
X9564370Y7029450D01*
X9553956Y7039863D01*
X9538461Y7044944D01*
X9460484Y7044944D01*
X9460484Y7131304D02*
G01*
X9533127Y7079234D01*
X9533127Y7157212D01*
X9460484Y7131304D02*
G01*
X9569450Y7131304D01*
X3365500Y8205215D02*
G01*
X3365500Y8096250D01*
X3365500Y8205215D02*
G01*
X3412236Y8205215D01*
X3427729Y8200136D01*
X3433063Y8194802D01*
X3438143Y8184387D01*
X3438143Y8173973D01*
X3433063Y8163560D01*
X3427729Y8158479D01*
X3412236Y8153400D01*
X3365500Y8153400D01*
X3401822Y8153400D02*
G01*
X3438143Y8096250D01*
X3472434Y8184387D02*
G01*
X3482847Y8189721D01*
X3498595Y8205215D01*
X3498595Y8096250D01*
G36*
X6777228Y7611821D02*
G01*
X6765747Y7498892D01*
X6740245Y7491425D01*
X6715658Y7481316D01*
X6692392Y7468463D01*
X6604406Y7540193D01*
X6544106Y7479893D01*
X6615836Y7391908D01*
X6603034Y7368641D01*
X6592824Y7344054D01*
X6585458Y7318502D01*
X6472529Y7307072D01*
X6472529Y7221728D01*
X6585458Y7210298D01*
X6592824Y7184745D01*
X6603034Y7160158D01*
X6615836Y7136892D01*
X6544106Y7048906D01*
X6604406Y6988606D01*
X6692392Y7060336D01*
X6709714Y7050481D01*
X6727799Y7042099D01*
X6778040Y7163358D01*
X6766458Y7168946D01*
X6755638Y7175906D01*
X6745681Y7184085D01*
X6736740Y7193381D01*
X6728917Y7203643D01*
X6722414Y7214768D01*
X6717284Y7226553D01*
X6713575Y7238847D01*
X6711289Y7251547D01*
X6710527Y7264400D01*
X6711340Y7277862D01*
X6713829Y7291120D01*
X6717944Y7303973D01*
X6723583Y7316266D01*
X6730695Y7327696D01*
X6739128Y7338212D01*
X6748881Y7347559D01*
X6759651Y7355687D01*
X6771335Y7362393D01*
X6783781Y7367676D01*
X6796735Y7371283D01*
X6810095Y7373366D01*
X6823608Y7373721D01*
X6836968Y7372451D01*
X6850176Y7369505D01*
X6862876Y7364984D01*
X6874967Y7358938D01*
X6886143Y7351420D01*
X6896353Y7342631D01*
X6905447Y7332573D01*
X6913168Y7321550D01*
X6919518Y7309612D01*
X6924294Y7297013D01*
X6927545Y7283907D01*
X6929120Y7270546D01*
X6929018Y7257034D01*
X6927291Y7243673D01*
X6923938Y7230567D01*
X6918959Y7218070D01*
X6912508Y7206183D01*
X6904634Y7195261D01*
X6895490Y7185355D01*
X6885178Y7176668D01*
X6873900Y7169302D01*
X6861759Y7163358D01*
X6912000Y7042099D01*
X6930085Y7050481D01*
X6947408Y7060336D01*
X7035393Y6988606D01*
X7095693Y7048906D01*
X7023963Y7136892D01*
X7036765Y7160158D01*
X7046975Y7184745D01*
X7054342Y7210298D01*
X7167270Y7221728D01*
X7167270Y7307072D01*
X7054342Y7318502D01*
X7046975Y7344054D01*
X7036765Y7368641D01*
X7023963Y7391908D01*
X7095693Y7479893D01*
X7035393Y7540193D01*
X6947408Y7468463D01*
X6924141Y7481316D01*
X6899554Y7491425D01*
X6874052Y7498892D01*
X6862572Y7611821D01*
G37*
D12*
X6947408Y7060336D02*
G01*
X7035368Y6988606D01*
X7095693Y7048931D01*
X7023963Y7136892D01*
X7054367Y7210272D02*
G01*
X7167295Y7221753D01*
X7167295Y7307046D01*
X7054367Y7318527D01*
X7023963Y7391908D02*
G01*
X7095693Y7479868D01*
X7035368Y7540193D01*
X6947408Y7468463D01*
X6874027Y7498867D02*
G01*
X6862546Y7611795D01*
X6777253Y7611795D01*
X6765772Y7498867D01*
X6692391Y7468463D02*
G01*
X6604431Y7540193D01*
X6544106Y7479868D01*
X6615836Y7391908D01*
X6585432Y7318527D02*
G01*
X6472504Y7307046D01*
X6472504Y7221753D01*
X6585432Y7210272D01*
X6615836Y7136892D02*
G01*
X6544106Y7048931D01*
X6604431Y6988606D01*
X6692391Y7060336D01*
X6727799Y7042099D02*
G01*
X6778040Y7163358D01*
X6861759Y7163358D02*
G01*
X6912000Y7042099D01*
D11*
X3200400Y3124200D02*
G01*
X3009900Y3124200D01*
X3009900Y2870200D01*
X4533900Y2870200D01*
X4533900Y3124200D01*
D13*
X4533900Y3124200D02*
G01*
X3200400Y3124200D01*
D14*
X1603199Y4693396D02*
G01*
X1343200Y4693396D01*
D15*
X10566145Y2514345D02*
G01*
X10058145Y2514345D01*
X10058145Y2260345D01*
X10566145Y2260345D01*
X10566145Y2514345D01*
X10553445Y5854445D02*
G01*
X10045445Y5854445D01*
X10045445Y5600445D01*
X10553445Y5600445D01*
X10553445Y5854445D01*
X7416545Y6438645D02*
G01*
X6908545Y6438645D01*
X6908545Y6184645D01*
X7416545Y6184645D01*
X7416545Y6438645D01*
X2083054Y4990845D02*
G01*
X2083054Y4482845D01*
X2337054Y4482845D01*
X2337054Y4990845D01*
X2083054Y4990845D01*
D14*
X2501900Y7747000D02*
G01*
X2501900Y8128000D01*
X1270000Y6261100D02*
G01*
X1389379Y6261100D01*
X1651000Y6261100D02*
G01*
X1539239Y6261100D01*
D11*
X1444904Y3691305D02*
G01*
X1444904Y2991307D01*
X824890Y2991307D01*
X744905Y2991307D01*
X744905Y3691305D01*
X824890Y3691305D01*
X1444904Y3691305D01*
X824890Y2991307D02*
G01*
X824890Y3691305D01*
X1444904Y7653705D02*
G01*
X1444904Y6953707D01*
X824890Y6953707D01*
X744905Y6953707D01*
X744905Y7653705D01*
X824890Y7653705D01*
X1444904Y7653705D01*
X824890Y6953707D02*
G01*
X824890Y7653705D01*
D14*
X11297920Y2190724D02*
G01*
X11297920Y4490720D01*
X11417300Y2267077D02*
G01*
X11417300Y4417060D01*
X12074296Y4417060D01*
X11297081Y2189479D02*
G01*
X12197079Y2189479D01*
X12197079Y4489475D01*
X11299621Y4490720D02*
G01*
X12199620Y4490720D01*
X11417300Y2265679D02*
G01*
X12074296Y2265679D01*
X12194540Y3599179D02*
G01*
X12189459Y3594100D01*
X12014200Y3594100D01*
X12014200Y3086100D01*
X12192000Y3086100D01*
X12194540Y3088639D01*
X12075159Y2270760D02*
G01*
X12075159Y3086100D01*
X12077700Y4417060D02*
G01*
X12077700Y3594100D01*
X12070079Y2374900D02*
G01*
X12006579Y2438400D01*
X12075159Y2506979D01*
X12072620Y2499360D01*
X11310620Y5543524D02*
G01*
X11310620Y7843520D01*
X11430000Y5619877D02*
G01*
X11430000Y7769860D01*
X12086996Y7769860D01*
X11309781Y5542279D02*
G01*
X12209779Y5542279D01*
X12209779Y7842275D01*
X11312321Y7843520D02*
G01*
X12212320Y7843520D01*
X11430000Y5618479D02*
G01*
X12086996Y5618479D01*
X12207240Y6951979D02*
G01*
X12202159Y6946900D01*
X12026900Y6946900D01*
X12026900Y6438900D01*
X12204700Y6438900D01*
X12207240Y6441439D01*
X12087859Y5623560D02*
G01*
X12087859Y6438900D01*
X12090400Y7769860D02*
G01*
X12090400Y6946900D01*
X12082779Y5727700D02*
G01*
X12019279Y5791200D01*
X12087859Y5859779D01*
X12085320Y5852160D01*
X6565900Y4699000D02*
G01*
X5956300Y4699000D01*
X5956300Y4914900D01*
X6565900Y4914900D01*
X6565900Y4699000D01*
X9443100Y5913000D02*
G01*
X9412213Y5913000D01*
X9205986Y5913000D02*
G01*
X9141632Y5913000D01*
X8968567Y5913000D02*
G01*
X8887632Y5913000D01*
X8714567Y5913000D02*
G01*
X8633632Y5913000D01*
X8460567Y5913000D02*
G01*
X8379632Y5913000D01*
X8206567Y5913000D02*
G01*
X8125632Y5913000D01*
X7952567Y5913000D02*
G01*
X7871632Y5913000D01*
X7698567Y5913000D02*
G01*
X7617632Y5913000D01*
X7444567Y5913000D02*
G01*
X7363632Y5913000D01*
X7190600Y5913000D02*
G01*
X7143099Y5913000D01*
X5873099Y5262999D02*
G01*
X5873099Y5913000D01*
X7143099Y5262999D02*
G01*
X7190567Y5262999D01*
X7363632Y5262999D02*
G01*
X7444567Y5262999D01*
X7617632Y5262999D02*
G01*
X7698567Y5262999D01*
X7871632Y5262999D02*
G01*
X7952567Y5262999D01*
X8125632Y5262999D02*
G01*
X8206567Y5262999D01*
X8379632Y5262999D02*
G01*
X8460567Y5262999D01*
X8633632Y5262999D02*
G01*
X8714567Y5262999D01*
X8887632Y5262999D02*
G01*
X8968567Y5262999D01*
X9141632Y5262999D02*
G01*
X9222567Y5262999D01*
X9395632Y5262999D02*
G01*
X9443100Y5262999D01*
X9443100Y5262999D02*
G01*
X9443100Y5524500D01*
X9443100Y5913000D02*
G01*
X9443100Y5651500D01*
X7143099Y5262999D02*
G01*
X7109632Y5262999D01*
X6936567Y5262999D02*
G01*
X6855632Y5262999D01*
X6682567Y5262999D02*
G01*
X6601632Y5262999D01*
X6428567Y5262999D02*
G01*
X6347632Y5262999D01*
X6174567Y5262999D02*
G01*
X6093632Y5262999D01*
X5920567Y5262999D02*
G01*
X5873099Y5262999D01*
X7143099Y5913000D02*
G01*
X7109632Y5913000D01*
X6936567Y5913000D02*
G01*
X6855632Y5913000D01*
X6682567Y5913000D02*
G01*
X6601632Y5913000D01*
X6428567Y5913000D02*
G01*
X6347632Y5913000D01*
X6174567Y5913000D02*
G01*
X6093632Y5913000D01*
X5920567Y5913000D02*
G01*
X5873099Y5913000D01*
X2527300Y7251700D02*
G01*
X5003800Y7251700D01*
X5003800Y3479800D01*
X2527300Y3479800D01*
X2527300Y7251700D01*
X10782300Y2717800D02*
G01*
X10782300Y5003800D01*
X9766300Y5003800D02*
G01*
X9766300Y2717800D01*
X10782300Y2717800D02*
G01*
X10528300Y2717800D01*
X10782300Y5003800D02*
G01*
X10528300Y5003800D01*
X9766300Y5003800D02*
G01*
X10020300Y5003800D01*
X10528300Y5003800D02*
G01*
X10528300Y2717800D01*
X10528300Y5003800D02*
G01*
X10375900Y5003800D01*
X10528300Y2717800D02*
G01*
X10020300Y2717800D01*
X10020300Y5003800D02*
G01*
X10020300Y2717800D01*
X10020300Y5003800D02*
G01*
X10172700Y5003800D01*
X10020300Y2717800D02*
G01*
X9766300Y2717800D01*
X10795000Y6045200D02*
G01*
X10795000Y8331200D01*
X9779000Y8331200D02*
G01*
X9779000Y6045200D01*
X10795000Y6045200D02*
G01*
X10541000Y6045200D01*
X10795000Y8331200D02*
G01*
X10541000Y8331200D01*
X9779000Y8331200D02*
G01*
X10033000Y8331200D01*
X10541000Y8331200D02*
G01*
X10541000Y6045200D01*
X10541000Y8331200D02*
G01*
X10388600Y8331200D01*
X10541000Y6045200D02*
G01*
X10033000Y6045200D01*
X10033000Y8331200D02*
G01*
X10033000Y6045200D01*
X10033000Y8331200D02*
G01*
X10185400Y8331200D01*
X10033000Y6045200D02*
G01*
X9779000Y6045200D01*
X3175000Y8039100D02*
G01*
X3175000Y7847203D01*
X3225800Y8039100D02*
G01*
X3225800Y7843520D01*
X3276600Y8039100D02*
G01*
X3276600Y7840979D01*
X3556000Y8039100D02*
G01*
X3556000Y7835900D01*
X2984500Y7937500D02*
G01*
X3048000Y7937500D01*
X3048000Y8039100D01*
X3073400Y8064500D01*
X3124200Y8064500D01*
X3149600Y8039100D01*
X3581400Y8039100D01*
X3606800Y8064500D01*
X3657600Y8064500D01*
X3683000Y8039100D01*
X3683000Y7835900D01*
X3657600Y7810500D01*
X3606800Y7810500D01*
X3581400Y7835900D01*
X3149600Y7835900D01*
X3124200Y7810500D01*
X3073400Y7810500D01*
X3048000Y7835900D01*
X3048000Y8013700D01*
X3746500Y7937500D02*
G01*
X3683000Y7937500D01*
D12*
G75*
G01*
X6912000Y7042099D02*
G03*
X6947408Y7060336I-92094J222292D01*
G75*
G01*
X7023964Y7136892D02*
G03*
X7054367Y7210273I-204039J127528D01*
G75*
G01*
X7054367Y7318527D02*
G03*
X7023964Y7391908I-234442J-54147D01*
G75*
G01*
X6947408Y7468464D02*
G03*
X6874027Y7498867I-127528J-204039D01*
G75*
G01*
X6765773Y7498867D02*
G03*
X6692392Y7468464I54147J-234442D01*
G75*
G01*
X6615836Y7391908D02*
G03*
X6585433Y7318527I204039J-127528D01*
G75*
G01*
X6585433Y7210273D02*
G03*
X6615836Y7136892I234442J54147D01*
G75*
G01*
X6692392Y7060336D02*
G03*
X6727800Y7042099I127502J204055D01*
G75*
G01*
X6778041Y7163359D02*
G02*
X6710528Y7264400I41859J101045D01*
G75*
G01*
X6710528Y7264400D02*
G02*
X6861759Y7163359I109372J4D01*
D14*
G75*
G01*
X1335024Y4690567D02*
G03*
X1611376Y4690567I138176J-220244D01*
G75*
G01*
X2501900Y7747000D02*
G02*
X2501900Y8128000I-254000J190500D01*
G75*
G01*
X1270010Y6261090D02*
G03*
X1650990Y6261090I190490J-187046D01*
D16*
G75*
G01*
X9380220Y5753100D02*
G03*
X9380220Y5752592I-29999J-254D01*
D17*
G75*
G01*
X9451594Y5969000D02*
G03*
X9451594Y5968746I-12499J-127D01*
D14*
G75*
G01*
X9443100Y5524500D02*
G02*
X9443212Y5651500I56J63500D01*
G75*
G01*
X10375900Y5003797D02*
G02*
X10172700Y5003797I-101600J0D01*
G75*
G01*
X10388600Y8331197D02*
G02*
X10185400Y8331197I-101600J0D01*
G75*
G01
X2501900Y7937500D02*
G03X2501900Y7937500I-254000J0D01*
M02*
