M48
METRIC,LZ,000.000
;FILE_FORMAT=3:3
;TYPE=PLATED
;Layer: PTH_Through
;EasyEDA v6.5.8, 2022-08-15 07:29:34
;028e3914a6f949ed9ca799ef75e4ed4f,10
;Gerber Generator version 0.2
;Holesize 1 = 0.305 mm
T01C0.305
;Holesize 2 = 0.800 mm
T02C0.800
;Holesize 3 = 0.889 mm
T03C0.889
;Holesize 4 = 0.901 mm
T04C0.901
;Holesize 5 = 1.100 mm
T05C1.100
;Holesize 6 = 1.200 mm
T06C1.200
;Holesize 7 = 1.501 mm
T07C1.501
%
G05
G90
T01
X040513Y043434
X087249Y035179
X035687Y073406
X035687Y073406
X035687Y073406
X047244Y073406
X056545Y052578
X056820Y033147
X045720Y033147
X089535Y053721
X073660Y076581
X053467Y076581
X045720Y076581
T02
X026035Y076962
X023495Y076962
T03
X046482Y059182
X049022Y059182
X066675Y059309
X069215Y059309
X086995Y059309
X089535Y059309
X107315Y059309
X109855Y059309
X052578Y049657
X055118Y049657
X073025Y049657
X075565Y049657
X093599Y049657
X096139Y049657
X114046Y049657
X116586Y049657
T04
X039116Y060198
X036576Y060198
X028956Y060198
X026416Y060198
X034036Y060198
X031496Y060198
X023876Y060198
X023876Y052578
X026416Y052578
X028956Y052578
X031496Y052578
X034036Y052578
X036576Y052578
X039116Y052578
T05
X013589Y052829G85X013589Y052835
X011049Y052829G85X011049Y052835
X013589Y055369G85X013589Y055375
X011049Y055369G85X011049Y055375
X013589Y057909G85X013589Y057915
X011049Y057909G85X011049Y057915
X013589Y060449G85X013589Y060455
X011049Y060449G85X011049Y060455
X013589Y062989G85X013589Y062995
X011049Y062989G85X011049Y062995
T06
X052819Y090043G85X052813Y090043
X049318Y090043G85X049313Y090043
X073012Y090297G85X073006Y090297
X069511Y090297G85X069506Y090297
X092951Y090170G85X092945Y090170
X089450Y090170G85X089445Y090170
X113525Y090297G85X113519Y090297
X110024Y090297G85X110019Y090297
X049035Y019177G85X049041Y019177
X052536Y019177G85X052541Y019177
X069482Y019050G85X069488Y019050
X072983Y019050G85X072988Y019050
X089675Y019050G85X089681Y019050
X093176Y019050G85X093181Y019050
X109868Y018796G85X109874Y018796
X113369Y018796G85X113374Y018796
T07
X050546Y066153
X056545Y068152
X044547Y068152
X044547Y080151
X056545Y080151
X070612Y066153
X076611Y068152
X064613Y068152
X064613Y080151
X076611Y080151
X091059Y066153
X097058Y068152
X085060Y068152
X085060Y080151
X097058Y080151
X111506Y066280
X117505Y068279
X105507Y068279
X105507Y080278
X117505Y080278
X050546Y043194
X044547Y041195
X056545Y041195
X056545Y029196
X044547Y029196
X070993Y043067
X064994Y041068
X076992Y041068
X076992Y029069
X064994Y029069
X091186Y042940
X085187Y040941
X097185Y040941
X097185Y028942
X085187Y028942
X111506Y042813
X105507Y040814
X117505Y040814
X117505Y028815
X105507Y028815
M30
