G04 Layer: TopSolderMaskLayer*
G04 EasyEDA v6.5.8, 2022-08-15 07:29:34*
G04 028e3914a6f949ed9ca799ef75e4ed4f,10*
G04 Gerber Generator version 0.2*
G04 Scale: 100 percent, Rotated: No, Reflected: No *
G04 Dimensions in millimeters *
G04 leading zeros omitted , absolute positions ,4 integer and 5 decimal *
%FSLAX45Y45*%
%MOMM*%

%ADD10C,1.7526*%
%ADD11C,2.0032*%
%ADD12C,2.6016*%
%ADD13C,1.8796*%
%ADD14C,2.1336*%
%ADD15C,1.7018*%
%ADD16C,0.0155*%

%LPD*%
G36*
X4565650Y5830570D02*
G01*
X4564125Y5830823D01*
X4562602Y5831586D01*
X4561586Y5832602D01*
X4560824Y5834126D01*
X4560570Y5835650D01*
X4560570Y6000750D01*
X4560824Y6002273D01*
X4561586Y6003797D01*
X4562602Y6004813D01*
X4564125Y6005576D01*
X4565650Y6005829D01*
X4730750Y6005829D01*
X4732274Y6005576D01*
X4733797Y6004813D01*
X4734813Y6003797D01*
X4735575Y6002273D01*
X4735829Y6000750D01*
X4735829Y5835650D01*
X4735575Y5834126D01*
X4734813Y5832602D01*
X4733797Y5831586D01*
X4732274Y5830823D01*
X4730750Y5830570D01*
G37*
D10*
G01*
X4902200Y5918200D03*
G36*
X6584950Y5843270D02*
G01*
X6583425Y5843523D01*
X6581902Y5844286D01*
X6580886Y5845302D01*
X6580124Y5846826D01*
X6579870Y5848350D01*
X6579870Y6013450D01*
X6580124Y6014973D01*
X6580886Y6016497D01*
X6581902Y6017513D01*
X6583425Y6018276D01*
X6584950Y6018529D01*
X6750050Y6018529D01*
X6751574Y6018276D01*
X6753097Y6017513D01*
X6754113Y6016497D01*
X6754875Y6014973D01*
X6755129Y6013450D01*
X6755129Y5848350D01*
X6754875Y5846826D01*
X6754113Y5845302D01*
X6753097Y5844286D01*
X6751574Y5843523D01*
X6750050Y5843270D01*
G37*
G01*
X6921500Y5930900D03*
G36*
X8616950Y5843270D02*
G01*
X8615425Y5843523D01*
X8613902Y5844286D01*
X8612886Y5845302D01*
X8612124Y5846826D01*
X8611870Y5848350D01*
X8611870Y6013450D01*
X8612124Y6014973D01*
X8612886Y6016497D01*
X8613902Y6017513D01*
X8615425Y6018276D01*
X8616950Y6018529D01*
X8782050Y6018529D01*
X8783574Y6018276D01*
X8785097Y6017513D01*
X8786113Y6016497D01*
X8786875Y6014973D01*
X8787129Y6013450D01*
X8787129Y5848350D01*
X8786875Y5846826D01*
X8786113Y5845302D01*
X8785097Y5844286D01*
X8783574Y5843523D01*
X8782050Y5843270D01*
G37*
G01*
X8953500Y5930900D03*
G36*
X10648950Y5843270D02*
G01*
X10647425Y5843523D01*
X10645902Y5844286D01*
X10644886Y5845302D01*
X10644124Y5846826D01*
X10643870Y5848350D01*
X10643870Y6013450D01*
X10644124Y6014973D01*
X10644886Y6016497D01*
X10645902Y6017513D01*
X10647425Y6018276D01*
X10648950Y6018529D01*
X10814050Y6018529D01*
X10815574Y6018276D01*
X10817097Y6017513D01*
X10818113Y6016497D01*
X10818875Y6014973D01*
X10819129Y6013450D01*
X10819129Y5848350D01*
X10818875Y5846826D01*
X10818113Y5845302D01*
X10817097Y5844286D01*
X10815574Y5843523D01*
X10814050Y5843270D01*
G37*
G01*
X10985500Y5930900D03*
G36*
X5175250Y4878070D02*
G01*
X5173725Y4878323D01*
X5172202Y4879086D01*
X5171186Y4880102D01*
X5170424Y4881626D01*
X5170170Y4883150D01*
X5170170Y5048250D01*
X5170424Y5049773D01*
X5171186Y5051297D01*
X5172202Y5052313D01*
X5173725Y5053076D01*
X5175250Y5053329D01*
X5340350Y5053329D01*
X5341874Y5053076D01*
X5343397Y5052313D01*
X5344413Y5051297D01*
X5345175Y5049773D01*
X5345429Y5048250D01*
X5345429Y4883150D01*
X5345175Y4881626D01*
X5344413Y4880102D01*
X5343397Y4879086D01*
X5341874Y4878323D01*
X5340350Y4878070D01*
G37*
G01*
X5511800Y4965700D03*
G36*
X7219950Y4878070D02*
G01*
X7218425Y4878323D01*
X7216902Y4879086D01*
X7215886Y4880102D01*
X7215124Y4881626D01*
X7214870Y4883150D01*
X7214870Y5048250D01*
X7215124Y5049773D01*
X7215886Y5051297D01*
X7216902Y5052313D01*
X7218425Y5053076D01*
X7219950Y5053329D01*
X7385050Y5053329D01*
X7386574Y5053076D01*
X7388097Y5052313D01*
X7389113Y5051297D01*
X7389875Y5049773D01*
X7390129Y5048250D01*
X7390129Y4883150D01*
X7389875Y4881626D01*
X7389113Y4880102D01*
X7388097Y4879086D01*
X7386574Y4878323D01*
X7385050Y4878070D01*
G37*
G01*
X7556500Y4965700D03*
G36*
X9277350Y4878070D02*
G01*
X9275825Y4878323D01*
X9274302Y4879086D01*
X9273286Y4880102D01*
X9272524Y4881626D01*
X9272270Y4883150D01*
X9272270Y5048250D01*
X9272524Y5049773D01*
X9273286Y5051297D01*
X9274302Y5052313D01*
X9275825Y5053076D01*
X9277350Y5053329D01*
X9442450Y5053329D01*
X9443974Y5053076D01*
X9445497Y5052313D01*
X9446513Y5051297D01*
X9447275Y5049773D01*
X9447529Y5048250D01*
X9447529Y4883150D01*
X9447275Y4881626D01*
X9446513Y4880102D01*
X9445497Y4879086D01*
X9443974Y4878323D01*
X9442450Y4878070D01*
G37*
G01*
X9613900Y4965700D03*
G36*
X11322050Y4878070D02*
G01*
X11320525Y4878323D01*
X11319002Y4879086D01*
X11317986Y4880102D01*
X11317224Y4881626D01*
X11316970Y4883150D01*
X11316970Y5048250D01*
X11317224Y5049773D01*
X11317986Y5051297D01*
X11319002Y5052313D01*
X11320525Y5053076D01*
X11322050Y5053329D01*
X11487150Y5053329D01*
X11488674Y5053076D01*
X11490197Y5052313D01*
X11491213Y5051297D01*
X11491975Y5049773D01*
X11492229Y5048250D01*
X11492229Y4883150D01*
X11491975Y4881626D01*
X11491213Y4880102D01*
X11490197Y4879086D01*
X11488674Y4878323D01*
X11487150Y4878070D01*
G37*
G01*
X11658600Y4965700D03*
D11*
G01*
X2603500Y7696200D03*
G36*
X2259507Y7596047D02*
G01*
X2256459Y7596555D01*
X2253411Y7598079D01*
X2251379Y7600111D01*
X2249855Y7603159D01*
X2249347Y7606207D01*
X2249424Y7606284D01*
X2249424Y7786115D01*
X2249347Y7786192D01*
X2249855Y7789240D01*
X2251379Y7792288D01*
X2253411Y7794320D01*
X2256459Y7795844D01*
X2259507Y7796352D01*
X2259584Y7796276D01*
X2439415Y7796276D01*
X2439492Y7796352D01*
X2442540Y7795844D01*
X2445588Y7794320D01*
X2447620Y7792288D01*
X2449144Y7789240D01*
X2449652Y7786192D01*
X2449575Y7786115D01*
X2449575Y7606284D01*
X2449652Y7606207D01*
X2449144Y7603159D01*
X2447620Y7600111D01*
X2445588Y7598079D01*
X2442540Y7596555D01*
X2439492Y7596047D01*
X2439415Y7596123D01*
X2259584Y7596123D01*
G37*
D12*
G01*
X5054600Y6615303D03*
G01*
X5654547Y6815201D03*
G01*
X4454652Y6815201D03*
G01*
X4454652Y8015096D03*
G01*
X5654547Y8015096D03*
G01*
X7061200Y6615303D03*
G01*
X7661147Y6815201D03*
G01*
X6461252Y6815201D03*
G01*
X6461252Y8015096D03*
G01*
X7661147Y8015096D03*
G01*
X9105900Y6615303D03*
G01*
X9705847Y6815201D03*
G01*
X8505952Y6815201D03*
G01*
X8505952Y8015096D03*
G01*
X9705847Y8015096D03*
G01*
X11150600Y6628003D03*
G01*
X11750547Y6827901D03*
G01*
X10550652Y6827901D03*
G01*
X10550652Y8027796D03*
G01*
X11750547Y8027796D03*
G01*
X5054600Y4319396D03*
G01*
X4454652Y4119498D03*
G01*
X5654547Y4119498D03*
G01*
X5654547Y2919603D03*
G01*
X4454652Y2919603D03*
G01*
X7099300Y4306696D03*
G01*
X6499352Y4106798D03*
G01*
X7699247Y4106798D03*
G01*
X7699247Y2906903D03*
G01*
X6499352Y2906903D03*
G01*
X9118600Y4293996D03*
G01*
X8518652Y4094098D03*
G01*
X9718547Y4094098D03*
G01*
X9718547Y2894203D03*
G01*
X8518652Y2894203D03*
G01*
X11150600Y4281296D03*
G01*
X10550652Y4081398D03*
G01*
X11750547Y4081398D03*
G01*
X11750547Y2881503D03*
G01*
X10550652Y2881503D03*
G36*
X1276350Y5195570D02*
G01*
X1274826Y5195823D01*
X1273302Y5196586D01*
X1272286Y5197602D01*
X1271523Y5199126D01*
X1271270Y5200650D01*
X1271270Y5365750D01*
X1271523Y5367273D01*
X1272286Y5368797D01*
X1273302Y5369813D01*
X1274826Y5370576D01*
X1276350Y5370829D01*
X1441450Y5370829D01*
X1442973Y5370576D01*
X1444497Y5369813D01*
X1445513Y5368797D01*
X1446276Y5367273D01*
X1446529Y5365750D01*
X1446529Y5200650D01*
X1446276Y5199126D01*
X1445513Y5197602D01*
X1444497Y5196586D01*
X1442973Y5195823D01*
X1441450Y5195570D01*
G37*
D13*
G01*
X1104900Y5283200D03*
G01*
X1358900Y5537200D03*
G01*
X1104900Y5537200D03*
G01*
X1358900Y5791200D03*
G01*
X1104900Y5791200D03*
G01*
X1358900Y6045200D03*
G01*
X1104900Y6045200D03*
G01*
X1358900Y6299200D03*
G01*
X1104900Y6299200D03*
G36*
X5179999Y8897620D02*
G01*
X5178475Y8897874D01*
X5176951Y8898636D01*
X5175935Y8899652D01*
X5175173Y8901176D01*
X5174919Y8902700D01*
X5174995Y8902700D01*
X5174995Y9105900D01*
X5174919Y9105900D01*
X5175173Y9107424D01*
X5175935Y9108947D01*
X5176951Y9109963D01*
X5178475Y9110726D01*
X5179999Y9110979D01*
X5383199Y9110979D01*
X5384723Y9110726D01*
X5386247Y9109963D01*
X5387263Y9108947D01*
X5388025Y9107424D01*
X5388279Y9105900D01*
X5388356Y9105900D01*
X5388356Y8902700D01*
X5388279Y8902700D01*
X5388025Y8901176D01*
X5387263Y8899652D01*
X5386247Y8898636D01*
X5384723Y8897874D01*
X5383199Y8897620D01*
G37*
D14*
G01*
X4931587Y9004300D03*
G36*
X7199299Y8923020D02*
G01*
X7197775Y8923274D01*
X7196251Y8924036D01*
X7195235Y8925052D01*
X7194473Y8926576D01*
X7194219Y8928100D01*
X7194295Y8928100D01*
X7194295Y9131300D01*
X7194219Y9131300D01*
X7194473Y9132824D01*
X7195235Y9134347D01*
X7196251Y9135363D01*
X7197775Y9136126D01*
X7199299Y9136379D01*
X7402499Y9136379D01*
X7404023Y9136126D01*
X7405547Y9135363D01*
X7406563Y9134347D01*
X7407325Y9132824D01*
X7407579Y9131300D01*
X7407656Y9131300D01*
X7407656Y8928100D01*
X7407579Y8928100D01*
X7407325Y8926576D01*
X7406563Y8925052D01*
X7405547Y8924036D01*
X7404023Y8923274D01*
X7402499Y8923020D01*
G37*
G01*
X6950887Y9029700D03*
G36*
X9193199Y8910320D02*
G01*
X9191675Y8910574D01*
X9190151Y8911336D01*
X9189135Y8912352D01*
X9188373Y8913876D01*
X9188119Y8915400D01*
X9188195Y8915400D01*
X9188195Y9118600D01*
X9188119Y9118600D01*
X9188373Y9120124D01*
X9189135Y9121647D01*
X9190151Y9122663D01*
X9191675Y9123426D01*
X9193199Y9123679D01*
X9396399Y9123679D01*
X9397923Y9123426D01*
X9399447Y9122663D01*
X9400463Y9121647D01*
X9401225Y9120124D01*
X9401479Y9118600D01*
X9401556Y9118600D01*
X9401556Y8915400D01*
X9401479Y8915400D01*
X9401225Y8913876D01*
X9400463Y8912352D01*
X9399447Y8911336D01*
X9397923Y8910574D01*
X9396399Y8910320D01*
G37*
G01*
X8944787Y9017000D03*
G36*
X11250599Y8923020D02*
G01*
X11249075Y8923274D01*
X11247551Y8924036D01*
X11246535Y8925052D01*
X11245773Y8926576D01*
X11245519Y8928100D01*
X11245595Y8928100D01*
X11245595Y9131300D01*
X11245519Y9131300D01*
X11245773Y9132824D01*
X11246535Y9134347D01*
X11247551Y9135363D01*
X11249075Y9136126D01*
X11250599Y9136379D01*
X11453799Y9136379D01*
X11455323Y9136126D01*
X11456847Y9135363D01*
X11457863Y9134347D01*
X11458625Y9132824D01*
X11458879Y9131300D01*
X11458956Y9131300D01*
X11458956Y8928100D01*
X11458879Y8928100D01*
X11458625Y8926576D01*
X11457863Y8925052D01*
X11456847Y8924036D01*
X11455323Y8923274D01*
X11453799Y8923020D01*
G37*
G01*
X11002187Y9029700D03*
G36*
X4802200Y1811020D02*
G01*
X4800676Y1811273D01*
X4799152Y1812036D01*
X4798136Y1813052D01*
X4797374Y1814576D01*
X4797120Y1816100D01*
X4797043Y1816100D01*
X4797043Y2019300D01*
X4797120Y2019300D01*
X4797374Y2020823D01*
X4798136Y2022347D01*
X4799152Y2023363D01*
X4800676Y2024126D01*
X4802200Y2024379D01*
X5005400Y2024379D01*
X5006924Y2024126D01*
X5008448Y2023363D01*
X5009464Y2022347D01*
X5010226Y2020823D01*
X5010480Y2019300D01*
X5010404Y2019300D01*
X5010404Y1816100D01*
X5010480Y1816100D01*
X5010226Y1814576D01*
X5009464Y1813052D01*
X5008448Y1812036D01*
X5006924Y1811273D01*
X5005400Y1811020D01*
G37*
G01*
X5253812Y1917700D03*
G36*
X6846900Y1798320D02*
G01*
X6845376Y1798573D01*
X6843852Y1799336D01*
X6842836Y1800352D01*
X6842074Y1801876D01*
X6841820Y1803400D01*
X6841743Y1803400D01*
X6841743Y2006600D01*
X6841820Y2006600D01*
X6842074Y2008123D01*
X6842836Y2009647D01*
X6843852Y2010663D01*
X6845376Y2011426D01*
X6846900Y2011679D01*
X7050100Y2011679D01*
X7051624Y2011426D01*
X7053148Y2010663D01*
X7054164Y2009647D01*
X7054926Y2008123D01*
X7055180Y2006600D01*
X7055104Y2006600D01*
X7055104Y1803400D01*
X7055180Y1803400D01*
X7054926Y1801876D01*
X7054164Y1800352D01*
X7053148Y1799336D01*
X7051624Y1798573D01*
X7050100Y1798320D01*
G37*
G01*
X7298512Y1905000D03*
G36*
X8866200Y1798320D02*
G01*
X8864676Y1798573D01*
X8863152Y1799336D01*
X8862136Y1800352D01*
X8861374Y1801876D01*
X8861120Y1803400D01*
X8861043Y1803400D01*
X8861043Y2006600D01*
X8861120Y2006600D01*
X8861374Y2008123D01*
X8862136Y2009647D01*
X8863152Y2010663D01*
X8864676Y2011426D01*
X8866200Y2011679D01*
X9069400Y2011679D01*
X9070924Y2011426D01*
X9072448Y2010663D01*
X9073464Y2009647D01*
X9074226Y2008123D01*
X9074480Y2006600D01*
X9074404Y2006600D01*
X9074404Y1803400D01*
X9074480Y1803400D01*
X9074226Y1801876D01*
X9073464Y1800352D01*
X9072448Y1799336D01*
X9070924Y1798573D01*
X9069400Y1798320D01*
G37*
G01*
X9317812Y1905000D03*
G36*
X10885500Y1772920D02*
G01*
X10883976Y1773173D01*
X10882452Y1773936D01*
X10881436Y1774952D01*
X10880674Y1776476D01*
X10880420Y1778000D01*
X10880343Y1778000D01*
X10880343Y1981200D01*
X10880420Y1981200D01*
X10880674Y1982723D01*
X10881436Y1984247D01*
X10882452Y1985263D01*
X10883976Y1986026D01*
X10885500Y1986279D01*
X11088700Y1986279D01*
X11090224Y1986026D01*
X11091748Y1985263D01*
X11092764Y1984247D01*
X11093526Y1982723D01*
X11093780Y1981200D01*
X11093704Y1981200D01*
X11093704Y1778000D01*
X11093780Y1778000D01*
X11093526Y1776476D01*
X11092764Y1774952D01*
X11091748Y1773936D01*
X11090224Y1773173D01*
X11088700Y1772920D01*
G37*
G01*
X11337112Y1879600D03*
G36*
X3831590Y5934710D02*
G01*
X3830066Y5934963D01*
X3828542Y5935726D01*
X3827526Y5936742D01*
X3826764Y5938265D01*
X3826510Y5939789D01*
X3826509Y5939789D01*
X3826509Y6099810D01*
X3826510Y6099810D01*
X3826764Y6101334D01*
X3827526Y6102857D01*
X3828542Y6103873D01*
X3830066Y6104636D01*
X3831590Y6104889D01*
X3991609Y6104889D01*
X3993133Y6104636D01*
X3994657Y6103873D01*
X3995673Y6102857D01*
X3996435Y6101334D01*
X3996689Y6099810D01*
X3996690Y6099810D01*
X3996690Y5939789D01*
X3996689Y5939789D01*
X3996435Y5938265D01*
X3995673Y5936742D01*
X3994657Y5935726D01*
X3993133Y5934963D01*
X3991609Y5934710D01*
G37*
D15*
G01*
X3657600Y6019800D03*
G01*
X2895600Y6019800D03*
G01*
X2641600Y6019800D03*
G01*
X3403600Y6019800D03*
G01*
X3149600Y6019800D03*
G01*
X2387600Y6019800D03*
G01*
X2387600Y5257800D03*
G01*
X2641600Y5257800D03*
G01*
X2895600Y5257800D03*
G01*
X3149600Y5257800D03*
G01*
X3403600Y5257800D03*
G01*
X3657600Y5257800D03*
G01*
X3911600Y5257800D03*
M02*
