G04 Layer: TopSilkscreenLayer*
G04 EasyEDA v6.5.8, 2022-08-15 07:29:34*
G04 028e3914a6f949ed9ca799ef75e4ed4f,10*
G04 Gerber Generator version 0.2*
G04 Scale: 100 percent, Rotated: No, Reflected: No *
G04 Dimensions in millimeters *
G04 leading zeros omitted , absolute positions ,4 integer and 5 decimal *
%FSLAX45Y45*%
%MOMM*%

%ADD10C,0.2032*%
%ADD11C,0.1524*%
%ADD12C,0.1501*%
%ADD13C,0.2540*%

%LPD*%
D10*
X2311400Y7283958D02*
G01*
X2311400Y7169404D01*
X2311400Y7283958D02*
G01*
X2360422Y7283958D01*
X2376931Y7278370D01*
X2382265Y7273036D01*
X2387854Y7262113D01*
X2387854Y7245604D01*
X2382265Y7234681D01*
X2376931Y7229347D01*
X2360422Y7224013D01*
X2311400Y7224013D01*
X2423668Y7283958D02*
G01*
X2451100Y7169404D01*
X2478277Y7283958D02*
G01*
X2451100Y7169404D01*
X2478277Y7283958D02*
G01*
X2505456Y7169404D01*
X2532888Y7283958D02*
G01*
X2505456Y7169404D01*
X2568956Y7283958D02*
G01*
X2568956Y7169404D01*
X2568956Y7283958D02*
G01*
X2617977Y7283958D01*
X2634234Y7278370D01*
X2639822Y7273036D01*
X2645156Y7262113D01*
X2645156Y7251192D01*
X2639822Y7240270D01*
X2634234Y7234681D01*
X2617977Y7229347D01*
X2568956Y7229347D01*
X2607056Y7229347D02*
G01*
X2645156Y7169404D01*
X2519172Y5688584D02*
G01*
X2451100Y5593079D01*
X2553461Y5593079D01*
X2519172Y5688584D02*
G01*
X2519172Y5545328D01*
X2598420Y5661405D02*
G01*
X2611881Y5668010D01*
X2632456Y5688584D01*
X2632456Y5545328D01*
X2677413Y5661405D02*
G01*
X2691129Y5668010D01*
X2711450Y5688584D01*
X2711450Y5545328D01*
X2824734Y5688584D02*
G01*
X2756661Y5593079D01*
X2858770Y5593079D01*
X2824734Y5688584D02*
G01*
X2824734Y5545328D01*
X2903727Y5688584D02*
G01*
X2903727Y5545328D01*
X2903727Y5688584D02*
G01*
X2965195Y5688584D01*
X2985770Y5681726D01*
X2992374Y5674868D01*
X2999231Y5661405D01*
X2999231Y5647689D01*
X2992374Y5633973D01*
X2985770Y5627115D01*
X2965195Y5620257D01*
X2903727Y5620257D01*
X2951479Y5620257D02*
G01*
X2999231Y5545328D01*
X3044190Y5606795D02*
G01*
X3167125Y5606795D01*
X3218941Y5654547D02*
G01*
X3218941Y5661405D01*
X3225545Y5674868D01*
X3232404Y5681726D01*
X3246120Y5688584D01*
X3273297Y5688584D01*
X3287013Y5681726D01*
X3293872Y5674868D01*
X3300729Y5661405D01*
X3300729Y5647689D01*
X3293872Y5633973D01*
X3280156Y5613654D01*
X3212084Y5545328D01*
X3307588Y5545328D01*
X3352545Y5606795D02*
G01*
X3475227Y5606795D01*
X3520186Y5661405D02*
G01*
X3533902Y5668010D01*
X3554222Y5688584D01*
X3554222Y5545328D01*
X3681222Y5688584D02*
G01*
X3612895Y5688584D01*
X3606038Y5627115D01*
X3612895Y5633973D01*
X3633470Y5640831D01*
X3653790Y5640831D01*
X3674363Y5633973D01*
X3687825Y5620257D01*
X3694684Y5599937D01*
X3694684Y5586221D01*
X3687825Y5565902D01*
X3674363Y5552186D01*
X3653790Y5545328D01*
X3633470Y5545328D01*
X3612895Y5552186D01*
X3606038Y5559044D01*
X3599179Y5572760D01*
X3739641Y5661405D02*
G01*
X3753358Y5668010D01*
X3773931Y5688584D01*
X3773931Y5545328D01*
X12235941Y4137913D02*
G01*
X12215875Y4127754D01*
X12195809Y4107687D01*
X12185904Y4087876D01*
X12185904Y4047744D01*
X12195809Y4027678D01*
X12215875Y4007865D01*
X12235941Y3997705D01*
X12265913Y3987800D01*
X12315952Y3987800D01*
X12345924Y3997705D01*
X12365990Y4007865D01*
X12385802Y4027678D01*
X12395961Y4047744D01*
X12395961Y4087876D01*
X12385802Y4107687D01*
X12365990Y4127754D01*
X12345924Y4137913D01*
X12185904Y4203700D02*
G01*
X12395961Y4203700D01*
X12395961Y4203700D02*
G01*
X12395961Y4323842D01*
X12235941Y4539742D02*
G01*
X12215875Y4529836D01*
X12195809Y4509770D01*
X12185904Y4489704D01*
X12185904Y4449826D01*
X12195809Y4429760D01*
X12215875Y4409694D01*
X12235941Y4399787D01*
X12265913Y4389881D01*
X12315952Y4389881D01*
X12345924Y4399787D01*
X12365990Y4409694D01*
X12385802Y4429760D01*
X12395961Y4449826D01*
X12395961Y4489704D01*
X12385802Y4509770D01*
X12365990Y4529836D01*
X12345924Y4539742D01*
X12185904Y4605781D02*
G01*
X12395961Y4605781D01*
X12185904Y4605781D02*
G01*
X12185904Y4695697D01*
X12195809Y4725923D01*
X12205970Y4735829D01*
X12225781Y4745736D01*
X12245847Y4745736D01*
X12265913Y4735829D01*
X12275820Y4725923D01*
X12285979Y4695697D01*
X12285979Y4605781D01*
X12285979Y4675886D02*
G01*
X12395961Y4745736D01*
X12185904Y4811776D02*
G01*
X12395961Y4811776D01*
X12185904Y4811776D02*
G01*
X12395961Y4891786D01*
X12185904Y4971795D02*
G01*
X12395961Y4891786D01*
X12185904Y4971795D02*
G01*
X12395961Y4971795D01*
X12185904Y5191760D02*
G01*
X12395961Y5191760D01*
X12185904Y5191760D02*
G01*
X12185904Y5281676D01*
X12195809Y5311902D01*
X12205970Y5321807D01*
X12225781Y5331713D01*
X12245847Y5331713D01*
X12265913Y5321807D01*
X12275820Y5311902D01*
X12285979Y5281676D01*
X12285979Y5191760D01*
X12285979Y5261863D02*
G01*
X12395961Y5331713D01*
X12315952Y5397754D02*
G01*
X12315952Y5517895D01*
X12295886Y5517895D01*
X12275820Y5507736D01*
X12265913Y5497829D01*
X12256008Y5477763D01*
X12256008Y5447792D01*
X12265913Y5427726D01*
X12285979Y5407913D01*
X12315952Y5397754D01*
X12336018Y5397754D01*
X12365990Y5407913D01*
X12385802Y5427726D01*
X12395961Y5447792D01*
X12395961Y5477763D01*
X12385802Y5497829D01*
X12365990Y5517895D01*
X12256008Y5583681D02*
G01*
X12395961Y5643879D01*
X12256008Y5703823D02*
G01*
X12395961Y5643879D01*
X12225781Y5923787D02*
G01*
X12215875Y5943854D01*
X12185904Y5973826D01*
X12395961Y5973826D01*
X12345924Y6049771D02*
G01*
X12355829Y6039865D01*
X12365990Y6049771D01*
X12355829Y6059678D01*
X12345924Y6049771D01*
X12235941Y6135878D02*
G01*
X12225781Y6135878D01*
X12205970Y6145784D01*
X12195809Y6155689D01*
X12185904Y6175755D01*
X12185904Y6215887D01*
X12195809Y6235700D01*
X12205970Y6245860D01*
X12225781Y6255765D01*
X12245847Y6255765D01*
X12265913Y6245860D01*
X12295886Y6225794D01*
X12395961Y6125718D01*
X12395961Y6265671D01*
X12546584Y3157981D02*
G01*
X12530327Y3149854D01*
X12513818Y3133597D01*
X12505690Y3117087D01*
X12505690Y3084321D01*
X12513818Y3068065D01*
X12530327Y3051555D01*
X12546584Y3043428D01*
X12571222Y3035300D01*
X12612115Y3035300D01*
X12636500Y3043428D01*
X12653009Y3051555D01*
X12669265Y3068065D01*
X12677393Y3084321D01*
X12677393Y3117087D01*
X12669265Y3133597D01*
X12653009Y3149854D01*
X12636500Y3157981D01*
X12562840Y3252978D02*
G01*
X12571222Y3236468D01*
X12587477Y3220212D01*
X12612115Y3212084D01*
X12628372Y3212084D01*
X12653009Y3220212D01*
X12669265Y3236468D01*
X12677393Y3252978D01*
X12677393Y3277362D01*
X12669265Y3293871D01*
X12653009Y3310128D01*
X12628372Y3318510D01*
X12612115Y3318510D01*
X12587477Y3310128D01*
X12571222Y3293871D01*
X12562840Y3277362D01*
X12562840Y3252978D01*
X12562840Y3372357D02*
G01*
X12734797Y3372357D01*
X12587477Y3372357D02*
G01*
X12571222Y3388868D01*
X12562840Y3405123D01*
X12562840Y3429762D01*
X12571222Y3446018D01*
X12587477Y3462273D01*
X12612115Y3470655D01*
X12628372Y3470655D01*
X12653009Y3462273D01*
X12669265Y3446018D01*
X12677393Y3429762D01*
X12677393Y3405123D01*
X12669265Y3388868D01*
X12653009Y3372357D01*
X12562840Y3532631D02*
G01*
X12677393Y3581907D01*
X12562840Y3630929D02*
G01*
X12677393Y3581907D01*
X12710159Y3565397D01*
X12726670Y3549142D01*
X12734797Y3532631D01*
X12734797Y3524504D01*
X12562840Y3685031D02*
G01*
X12677393Y3685031D01*
X12612115Y3685031D02*
G01*
X12587477Y3693160D01*
X12571222Y3709415D01*
X12562840Y3725926D01*
X12562840Y3750310D01*
X12505690Y3804412D02*
G01*
X12513818Y3812539D01*
X12505690Y3820668D01*
X12497561Y3812539D01*
X12505690Y3804412D01*
X12562840Y3812539D02*
G01*
X12677393Y3812539D01*
X12562840Y3972813D02*
G01*
X12693904Y3972813D01*
X12718288Y3964686D01*
X12726670Y3956557D01*
X12734797Y3940302D01*
X12734797Y3915663D01*
X12726670Y3899407D01*
X12587477Y3972813D02*
G01*
X12571222Y3956557D01*
X12562840Y3940302D01*
X12562840Y3915663D01*
X12571222Y3899407D01*
X12587477Y3882897D01*
X12612115Y3874770D01*
X12628372Y3874770D01*
X12653009Y3882897D01*
X12669265Y3899407D01*
X12677393Y3915663D01*
X12677393Y3940302D01*
X12669265Y3956557D01*
X12653009Y3972813D01*
X12505690Y4026915D02*
G01*
X12677393Y4026915D01*
X12595606Y4026915D02*
G01*
X12571222Y4051554D01*
X12562840Y4067810D01*
X12562840Y4092447D01*
X12571222Y4108704D01*
X12595606Y4116831D01*
X12677393Y4116831D01*
X12505690Y4195571D02*
G01*
X12644627Y4195571D01*
X12669265Y4203700D01*
X12677393Y4219955D01*
X12677393Y4236465D01*
X12562840Y4170934D02*
G01*
X12562840Y4228084D01*
X12472924Y4473702D02*
G01*
X12489179Y4457192D01*
X12513818Y4440936D01*
X12546584Y4424679D01*
X12587477Y4416297D01*
X12620243Y4416297D01*
X12661138Y4424679D01*
X12693904Y4440936D01*
X12718288Y4457192D01*
X12734797Y4473702D01*
X12587477Y4625847D02*
G01*
X12571222Y4609592D01*
X12562840Y4593081D01*
X12562840Y4568444D01*
X12571222Y4552187D01*
X12587477Y4535931D01*
X12612115Y4527550D01*
X12628372Y4527550D01*
X12653009Y4535931D01*
X12669265Y4552187D01*
X12677393Y4568444D01*
X12677393Y4593081D01*
X12669265Y4609592D01*
X12653009Y4625847D01*
X12472924Y4679950D02*
G01*
X12489179Y4696205D01*
X12513818Y4712462D01*
X12546584Y4728971D01*
X12587477Y4737100D01*
X12620243Y4737100D01*
X12661138Y4728971D01*
X12693904Y4712462D01*
X12718288Y4696205D01*
X12734797Y4679950D01*
X12546584Y4925313D02*
G01*
X12538456Y4925313D01*
X12521945Y4933442D01*
X12513818Y4941570D01*
X12505690Y4958079D01*
X12505690Y4990845D01*
X12513818Y5007102D01*
X12521945Y5015229D01*
X12538456Y5023357D01*
X12554711Y5023357D01*
X12571222Y5015229D01*
X12595606Y4998973D01*
X12677393Y4917186D01*
X12677393Y5031739D01*
X12505690Y5134863D02*
G01*
X12513818Y5110226D01*
X12538456Y5093715D01*
X12579350Y5085587D01*
X12603734Y5085587D01*
X12644627Y5093715D01*
X12669265Y5110226D01*
X12677393Y5134863D01*
X12677393Y5151120D01*
X12669265Y5175757D01*
X12644627Y5192013D01*
X12603734Y5200142D01*
X12579350Y5200142D01*
X12538456Y5192013D01*
X12513818Y5175757D01*
X12505690Y5151120D01*
X12505690Y5134863D01*
X12546584Y5262371D02*
G01*
X12538456Y5262371D01*
X12521945Y5270500D01*
X12513818Y5278628D01*
X12505690Y5295137D01*
X12505690Y5327904D01*
X12513818Y5344160D01*
X12521945Y5352287D01*
X12538456Y5360670D01*
X12554711Y5360670D01*
X12571222Y5352287D01*
X12595606Y5336031D01*
X12677393Y5254244D01*
X12677393Y5368797D01*
X12546584Y5431028D02*
G01*
X12538456Y5431028D01*
X12521945Y5439155D01*
X12513818Y5447284D01*
X12505690Y5463539D01*
X12505690Y5496305D01*
X12513818Y5512815D01*
X12521945Y5520944D01*
X12538456Y5529071D01*
X12554711Y5529071D01*
X12571222Y5520944D01*
X12595606Y5504687D01*
X12677393Y5422645D01*
X12677393Y5537200D01*
X12546584Y5839968D02*
G01*
X12530327Y5831839D01*
X12513818Y5815584D01*
X12505690Y5799073D01*
X12505690Y5766307D01*
X12513818Y5750052D01*
X12530327Y5733542D01*
X12546584Y5725413D01*
X12571222Y5717286D01*
X12612115Y5717286D01*
X12636500Y5725413D01*
X12653009Y5733542D01*
X12669265Y5750052D01*
X12677393Y5766307D01*
X12677393Y5799073D01*
X12669265Y5815584D01*
X12653009Y5831839D01*
X12636500Y5839968D01*
X12562840Y5902197D02*
G01*
X12677393Y5951220D01*
X12562840Y6000495D02*
G01*
X12677393Y5951220D01*
X12710159Y5934963D01*
X12726670Y5918454D01*
X12734797Y5902197D01*
X12734797Y5894070D01*
X12562840Y6054344D02*
G01*
X12677393Y6054344D01*
X12612115Y6054344D02*
G01*
X12587477Y6062471D01*
X12571222Y6078981D01*
X12562840Y6095237D01*
X12562840Y6119876D01*
X12562840Y6173723D02*
G01*
X12644627Y6173723D01*
X12669265Y6182105D01*
X12677393Y6198362D01*
X12677393Y6223000D01*
X12669265Y6239255D01*
X12644627Y6263894D01*
X12562840Y6263894D02*
G01*
X12677393Y6263894D01*
X12587477Y6407912D02*
G01*
X12571222Y6399529D01*
X12562840Y6375145D01*
X12562840Y6350507D01*
X12571222Y6326123D01*
X12587477Y6317742D01*
X12603734Y6326123D01*
X12612115Y6342379D01*
X12620243Y6383273D01*
X12628372Y6399529D01*
X12644627Y6407912D01*
X12653009Y6407912D01*
X12669265Y6399529D01*
X12677393Y6375145D01*
X12677393Y6350507D01*
X12669265Y6326123D01*
X12653009Y6317742D01*
X12505690Y6587744D02*
G01*
X12677393Y6587744D01*
X12505690Y6587744D02*
G01*
X12505690Y6661404D01*
X12513818Y6686042D01*
X12521945Y6694170D01*
X12538456Y6702297D01*
X12554711Y6702297D01*
X12571222Y6694170D01*
X12579350Y6686042D01*
X12587477Y6661404D01*
X12587477Y6587744D02*
G01*
X12587477Y6661404D01*
X12595606Y6686042D01*
X12603734Y6694170D01*
X12620243Y6702297D01*
X12644627Y6702297D01*
X12661138Y6694170D01*
X12669265Y6686042D01*
X12677393Y6661404D01*
X12677393Y6587744D01*
X12562840Y6756400D02*
G01*
X12677393Y6756400D01*
X12612115Y6756400D02*
G01*
X12587477Y6764528D01*
X12571222Y6781037D01*
X12562840Y6797294D01*
X12562840Y6821931D01*
X12562840Y6875779D02*
G01*
X12644627Y6875779D01*
X12669265Y6883908D01*
X12677393Y6900418D01*
X12677393Y6924802D01*
X12669265Y6941312D01*
X12644627Y6965950D01*
X12562840Y6965950D02*
G01*
X12677393Y6965950D01*
X12562840Y7019797D02*
G01*
X12677393Y7019797D01*
X12595606Y7019797D02*
G01*
X12571222Y7044436D01*
X12562840Y7060692D01*
X12562840Y7085329D01*
X12571222Y7101586D01*
X12595606Y7109713D01*
X12677393Y7109713D01*
X12562840Y7163815D02*
G01*
X12677393Y7163815D01*
X12595606Y7163815D02*
G01*
X12571222Y7188454D01*
X12562840Y7204710D01*
X12562840Y7229347D01*
X12571222Y7245604D01*
X12595606Y7253731D01*
X12677393Y7253731D01*
X12612115Y7307834D02*
G01*
X12612115Y7406131D01*
X12595606Y7406131D01*
X12579350Y7397750D01*
X12571222Y7389621D01*
X12562840Y7373365D01*
X12562840Y7348728D01*
X12571222Y7332471D01*
X12587477Y7315962D01*
X12612115Y7307834D01*
X12628372Y7307834D01*
X12653009Y7315962D01*
X12669265Y7332471D01*
X12677393Y7348728D01*
X12677393Y7373365D01*
X12669265Y7389621D01*
X12653009Y7406131D01*
X12562840Y7459979D02*
G01*
X12677393Y7459979D01*
X12612115Y7459979D02*
G01*
X12587477Y7468108D01*
X12571222Y7484618D01*
X12562840Y7500873D01*
X12562840Y7525512D01*
X12845541Y4221987D02*
G01*
X12831825Y4208271D01*
X12824968Y4194810D01*
X12824968Y4174236D01*
X12831825Y4160773D01*
X12845541Y4147057D01*
X12865861Y4140200D01*
X12879577Y4140200D01*
X12899897Y4147057D01*
X12913613Y4160773D01*
X12920472Y4174236D01*
X12920472Y4194810D01*
X12913613Y4208271D01*
X12899897Y4221987D01*
X12824968Y4273804D02*
G01*
X12920472Y4314697D01*
X12824968Y4355592D02*
G01*
X12920472Y4314697D01*
X12947650Y4300981D01*
X12961365Y4287520D01*
X12968224Y4273804D01*
X12968224Y4266945D01*
X12824968Y4400550D02*
G01*
X12920472Y4400550D01*
X12865861Y4400550D02*
G01*
X12845541Y4407407D01*
X12831825Y4421123D01*
X12824968Y4434839D01*
X12824968Y4455160D01*
X12824968Y4500118D02*
G01*
X12893040Y4500118D01*
X12913613Y4506976D01*
X12920472Y4520692D01*
X12920472Y4541012D01*
X12913613Y4554728D01*
X12893040Y4575302D01*
X12824968Y4575302D02*
G01*
X12920472Y4575302D01*
X12845541Y4695189D02*
G01*
X12831825Y4688331D01*
X12824968Y4668012D01*
X12824968Y4647437D01*
X12831825Y4627118D01*
X12845541Y4620260D01*
X12859004Y4627118D01*
X12865861Y4640579D01*
X12872720Y4674870D01*
X12879577Y4688331D01*
X12893040Y4695189D01*
X12899897Y4695189D01*
X12913613Y4688331D01*
X12920472Y4668012D01*
X12920472Y4647437D01*
X12913613Y4627118D01*
X12899897Y4620260D01*
X12777215Y4740147D02*
G01*
X12920472Y4740147D01*
X12845541Y4740147D02*
G01*
X12831825Y4753863D01*
X12824968Y4767579D01*
X12824968Y4787900D01*
X12831825Y4801615D01*
X12845541Y4815078D01*
X12865861Y4821936D01*
X12879577Y4821936D01*
X12899897Y4815078D01*
X12913613Y4801615D01*
X12920472Y4787900D01*
X12920472Y4767579D01*
X12913613Y4753863D01*
X12899897Y4740147D01*
X12824968Y4866894D02*
G01*
X12893040Y4866894D01*
X12913613Y4873752D01*
X12920472Y4887468D01*
X12920472Y4908042D01*
X12913613Y4921504D01*
X12893040Y4942078D01*
X12824968Y4942078D02*
G01*
X12920472Y4942078D01*
X12777215Y4987036D02*
G01*
X12784074Y4993894D01*
X12777215Y5000752D01*
X12770358Y4993894D01*
X12777215Y4987036D01*
X12824968Y4993894D02*
G01*
X12920472Y4993894D01*
X12777215Y5045710D02*
G01*
X12920472Y5045710D01*
X12777215Y5110987D02*
G01*
X12893040Y5110987D01*
X12913613Y5117845D01*
X12920472Y5131562D01*
X12920472Y5145278D01*
X12824968Y5090668D02*
G01*
X12824968Y5138420D01*
X12831825Y5292344D02*
G01*
X12818109Y5285739D01*
X12811252Y5272023D01*
X12811252Y5251450D01*
X12818109Y5237987D01*
X12824968Y5231129D01*
X12845541Y5224271D01*
X12865861Y5224271D01*
X12879577Y5231129D01*
X12886436Y5244845D01*
X12886436Y5265165D01*
X12879577Y5278881D01*
X12865861Y5285739D01*
X12811252Y5251450D02*
G01*
X12824968Y5237987D01*
X12845541Y5231129D01*
X12865861Y5231129D01*
X12879577Y5237987D01*
X12886436Y5244845D01*
X12811252Y5292344D02*
G01*
X12865861Y5285739D01*
X12879577Y5285739D01*
X12886436Y5299202D01*
X12886436Y5312918D01*
X12872720Y5326634D01*
X12852145Y5333492D01*
X12838684Y5333492D01*
X12818109Y5326634D01*
X12804393Y5319776D01*
X12790931Y5306060D01*
X12784074Y5292344D01*
X12777215Y5272023D01*
X12777215Y5251450D01*
X12784074Y5231129D01*
X12790931Y5217413D01*
X12804393Y5203952D01*
X12818109Y5197094D01*
X12838684Y5190236D01*
X12859004Y5190236D01*
X12879577Y5197094D01*
X12893040Y5203952D01*
X12906756Y5217413D01*
X12913613Y5231129D01*
X12920472Y5251450D01*
X12920472Y5272023D01*
X12913613Y5292344D01*
X12906756Y5306060D01*
X12899897Y5312918D01*
X12811252Y5299202D02*
G01*
X12865861Y5292344D01*
X12879577Y5292344D01*
X12886436Y5299202D01*
X12824968Y5460237D02*
G01*
X12933934Y5460237D01*
X12954508Y5453379D01*
X12961365Y5446521D01*
X12968224Y5432805D01*
X12968224Y5412486D01*
X12961365Y5398770D01*
X12845541Y5460237D02*
G01*
X12831825Y5446521D01*
X12824968Y5432805D01*
X12824968Y5412486D01*
X12831825Y5398770D01*
X12845541Y5385307D01*
X12865861Y5378450D01*
X12879577Y5378450D01*
X12899897Y5385307D01*
X12913613Y5398770D01*
X12920472Y5412486D01*
X12920472Y5432805D01*
X12913613Y5446521D01*
X12899897Y5460237D01*
X12824968Y5505195D02*
G01*
X12920472Y5505195D01*
X12852145Y5505195D02*
G01*
X12831825Y5525770D01*
X12824968Y5539231D01*
X12824968Y5559805D01*
X12831825Y5573268D01*
X12852145Y5580126D01*
X12920472Y5580126D01*
X12852145Y5580126D02*
G01*
X12831825Y5600700D01*
X12824968Y5614162D01*
X12824968Y5634736D01*
X12831825Y5648452D01*
X12852145Y5655310D01*
X12920472Y5655310D01*
X12824968Y5782055D02*
G01*
X12920472Y5782055D01*
X12845541Y5782055D02*
G01*
X12831825Y5768339D01*
X12824968Y5754623D01*
X12824968Y5734304D01*
X12831825Y5720587D01*
X12845541Y5707126D01*
X12865861Y5700268D01*
X12879577Y5700268D01*
X12899897Y5707126D01*
X12913613Y5720587D01*
X12920472Y5734304D01*
X12920472Y5754623D01*
X12913613Y5768339D01*
X12899897Y5782055D01*
X12777215Y5827013D02*
G01*
X12784074Y5833871D01*
X12777215Y5840729D01*
X12770358Y5833871D01*
X12777215Y5827013D01*
X12824968Y5833871D02*
G01*
X12920472Y5833871D01*
X12777215Y5885687D02*
G01*
X12920472Y5885687D01*
X12886436Y5937504D02*
G01*
X12893040Y5930645D01*
X12899897Y5937504D01*
X12893040Y5944362D01*
X12886436Y5937504D01*
X12845541Y6071107D02*
G01*
X12831825Y6057392D01*
X12824968Y6043929D01*
X12824968Y6023355D01*
X12831825Y6009639D01*
X12845541Y5996178D01*
X12865861Y5989320D01*
X12879577Y5989320D01*
X12899897Y5996178D01*
X12913613Y6009639D01*
X12920472Y6023355D01*
X12920472Y6043929D01*
X12913613Y6057392D01*
X12899897Y6071107D01*
X12824968Y6150102D02*
G01*
X12831825Y6136639D01*
X12845541Y6122923D01*
X12865861Y6116065D01*
X12879577Y6116065D01*
X12899897Y6122923D01*
X12913613Y6136639D01*
X12920472Y6150102D01*
X12920472Y6170676D01*
X12913613Y6184392D01*
X12899897Y6197854D01*
X12879577Y6204712D01*
X12865861Y6204712D01*
X12845541Y6197854D01*
X12831825Y6184392D01*
X12824968Y6170676D01*
X12824968Y6150102D01*
X12824968Y6249670D02*
G01*
X12920472Y6249670D01*
X12852145Y6249670D02*
G01*
X12831825Y6270244D01*
X12824968Y6283705D01*
X12824968Y6304279D01*
X12831825Y6317995D01*
X12852145Y6324854D01*
X12920472Y6324854D01*
X12852145Y6324854D02*
G01*
X12831825Y6345173D01*
X12824968Y6358889D01*
X12824968Y6379210D01*
X12831825Y6392926D01*
X12852145Y6399784D01*
X12920472Y6399784D01*
X1511300Y1446784D02*
G01*
X1511300Y1303528D01*
X1511300Y1446784D02*
G01*
X1599945Y1446784D01*
X1511300Y1378457D02*
G01*
X1565910Y1378457D01*
X1699513Y1446784D02*
G01*
X1644904Y1303528D01*
X1699513Y1446784D02*
G01*
X1754123Y1303528D01*
X1665478Y1351279D02*
G01*
X1733550Y1351279D01*
X1799081Y1446784D02*
G01*
X1799081Y1303528D01*
X1799081Y1446784D02*
G01*
X1860295Y1446784D01*
X1880870Y1439926D01*
X1887728Y1433068D01*
X1894586Y1419605D01*
X1894586Y1405889D01*
X1887728Y1392173D01*
X1880870Y1385315D01*
X1860295Y1378457D01*
X1799081Y1378457D02*
G01*
X1860295Y1378457D01*
X1880870Y1371854D01*
X1887728Y1364995D01*
X1894586Y1351279D01*
X1894586Y1330960D01*
X1887728Y1317244D01*
X1880870Y1310386D01*
X1860295Y1303528D01*
X1799081Y1303528D01*
X2085340Y1446784D02*
G01*
X2065020Y1439926D01*
X2051304Y1419605D01*
X2044445Y1385315D01*
X2044445Y1364995D01*
X2051304Y1330960D01*
X2065020Y1310386D01*
X2085340Y1303528D01*
X2099056Y1303528D01*
X2119375Y1310386D01*
X2133091Y1330960D01*
X2139950Y1364995D01*
X2139950Y1385315D01*
X2133091Y1419605D01*
X2119375Y1439926D01*
X2099056Y1446784D01*
X2085340Y1446784D01*
X2225802Y1446784D02*
G01*
X2205481Y1439926D01*
X2191765Y1419605D01*
X2184908Y1385315D01*
X2184908Y1364995D01*
X2191765Y1330960D01*
X2205481Y1310386D01*
X2225802Y1303528D01*
X2239518Y1303528D01*
X2259838Y1310386D01*
X2273554Y1330960D01*
X2280411Y1364995D01*
X2280411Y1385315D01*
X2273554Y1419605D01*
X2259838Y1439926D01*
X2239518Y1446784D01*
X2225802Y1446784D01*
X2325370Y1419605D02*
G01*
X2339086Y1426210D01*
X2359406Y1446784D01*
X2359406Y1303528D01*
X2445511Y1446784D02*
G01*
X2424938Y1439926D01*
X2411222Y1419605D01*
X2404363Y1385315D01*
X2404363Y1364995D01*
X2411222Y1330960D01*
X2424938Y1310386D01*
X2445511Y1303528D01*
X2458974Y1303528D01*
X2479547Y1310386D01*
X2493009Y1330960D01*
X2499868Y1364995D01*
X2499868Y1385315D01*
X2493009Y1419605D01*
X2479547Y1439926D01*
X2458974Y1446784D01*
X2445511Y1446784D01*
X2585720Y1446784D02*
G01*
X2565400Y1439926D01*
X2551684Y1419605D01*
X2544825Y1385315D01*
X2544825Y1364995D01*
X2551684Y1330960D01*
X2565400Y1310386D01*
X2585720Y1303528D01*
X2599436Y1303528D01*
X2620009Y1310386D01*
X2633472Y1330960D01*
X2640329Y1364995D01*
X2640329Y1385315D01*
X2633472Y1419605D01*
X2620009Y1439926D01*
X2599436Y1446784D01*
X2585720Y1446784D01*
X2692145Y1412747D02*
G01*
X2692145Y1419605D01*
X2699004Y1433068D01*
X2705861Y1439926D01*
X2719577Y1446784D01*
X2746756Y1446784D01*
X2760472Y1439926D01*
X2767329Y1433068D01*
X2773934Y1419605D01*
X2773934Y1405889D01*
X2767329Y1392173D01*
X2753613Y1371854D01*
X2685288Y1303528D01*
X2780791Y1303528D01*
X2985261Y1446784D02*
G01*
X2930906Y1303528D01*
X2985261Y1446784D02*
G01*
X3039872Y1303528D01*
X2951225Y1351279D02*
G01*
X3019552Y1351279D01*
X3180334Y1426210D02*
G01*
X3166872Y1439926D01*
X3146297Y1446784D01*
X3119120Y1446784D01*
X3098545Y1439926D01*
X3084829Y1426210D01*
X3084829Y1412747D01*
X3091688Y1399031D01*
X3098545Y1392173D01*
X3112261Y1385315D01*
X3153156Y1371854D01*
X3166872Y1364995D01*
X3173475Y1358137D01*
X3180334Y1344421D01*
X3180334Y1324102D01*
X3166872Y1310386D01*
X3146297Y1303528D01*
X3119120Y1303528D01*
X3098545Y1310386D01*
X3084829Y1324102D01*
X3320795Y1426210D02*
G01*
X3307079Y1439926D01*
X3286759Y1446784D01*
X3259581Y1446784D01*
X3239008Y1439926D01*
X3225291Y1426210D01*
X3225291Y1412747D01*
X3232150Y1399031D01*
X3239008Y1392173D01*
X3252724Y1385315D01*
X3293618Y1371854D01*
X3307079Y1364995D01*
X3313938Y1358137D01*
X3320795Y1344421D01*
X3320795Y1324102D01*
X3307079Y1310386D01*
X3286759Y1303528D01*
X3259581Y1303528D01*
X3239008Y1310386D01*
X3225291Y1324102D01*
X3365754Y1446784D02*
G01*
X3420363Y1378457D01*
X3420363Y1303528D01*
X3474974Y1446784D02*
G01*
X3420363Y1378457D01*
X3665727Y1446784D02*
G01*
X3645408Y1439926D01*
X3631691Y1419605D01*
X3624834Y1385315D01*
X3624834Y1364995D01*
X3631691Y1330960D01*
X3645408Y1310386D01*
X3665727Y1303528D01*
X3679443Y1303528D01*
X3700018Y1310386D01*
X3713479Y1330960D01*
X3720338Y1364995D01*
X3720338Y1385315D01*
X3713479Y1419605D01*
X3700018Y1439926D01*
X3679443Y1446784D01*
X3665727Y1446784D01*
X3806190Y1446784D02*
G01*
X3785870Y1439926D01*
X3772154Y1419605D01*
X3765295Y1385315D01*
X3765295Y1364995D01*
X3772154Y1330960D01*
X3785870Y1310386D01*
X3806190Y1303528D01*
X3819906Y1303528D01*
X3840479Y1310386D01*
X3853941Y1330960D01*
X3860800Y1364995D01*
X3860800Y1385315D01*
X3853941Y1419605D01*
X3840479Y1439926D01*
X3819906Y1446784D01*
X3806190Y1446784D01*
X3905758Y1419605D02*
G01*
X3919474Y1426210D01*
X3940047Y1446784D01*
X3940047Y1303528D01*
X4025900Y1446784D02*
G01*
X4005325Y1439926D01*
X3991863Y1419605D01*
X3985006Y1385315D01*
X3985006Y1364995D01*
X3991863Y1330960D01*
X4005325Y1310386D01*
X4025900Y1303528D01*
X4039361Y1303528D01*
X4059936Y1310386D01*
X4073652Y1330960D01*
X4080509Y1364995D01*
X4080509Y1385315D01*
X4073652Y1419605D01*
X4059936Y1439926D01*
X4039361Y1446784D01*
X4025900Y1446784D01*
X4166361Y1446784D02*
G01*
X4145788Y1439926D01*
X4132325Y1419605D01*
X4125468Y1385315D01*
X4125468Y1364995D01*
X4132325Y1330960D01*
X4145788Y1310386D01*
X4166361Y1303528D01*
X4179824Y1303528D01*
X4200397Y1310386D01*
X4214113Y1330960D01*
X4220718Y1364995D01*
X4220718Y1385315D01*
X4214113Y1419605D01*
X4200397Y1439926D01*
X4179824Y1446784D01*
X4166361Y1446784D01*
X4279391Y1446784D02*
G01*
X4354575Y1446784D01*
X4313681Y1392173D01*
X4334002Y1392173D01*
X4347718Y1385315D01*
X4354575Y1378457D01*
X4361179Y1358137D01*
X4361179Y1344421D01*
X4354575Y1324102D01*
X4340859Y1310386D01*
X4320286Y1303528D01*
X4299965Y1303528D01*
X4279391Y1310386D01*
X4272534Y1317244D01*
X4265929Y1330960D01*
X5262372Y1449831D02*
G01*
X5258054Y1458976D01*
X5248909Y1467865D01*
X5239765Y1472437D01*
X5221477Y1472437D01*
X5212588Y1467865D01*
X5203443Y1458976D01*
X5198872Y1449831D01*
X5194300Y1436115D01*
X5194300Y1413510D01*
X5198872Y1399794D01*
X5203443Y1390650D01*
X5212588Y1381505D01*
X5221477Y1376934D01*
X5239765Y1376934D01*
X5248909Y1381505D01*
X5258054Y1390650D01*
X5262372Y1399794D01*
X5319775Y1472437D02*
G01*
X5310631Y1467865D01*
X5301488Y1458976D01*
X5296915Y1449831D01*
X5292597Y1436115D01*
X5292597Y1413510D01*
X5296915Y1399794D01*
X5301488Y1390650D01*
X5310631Y1381505D01*
X5319775Y1376934D01*
X5337809Y1376934D01*
X5346954Y1381505D01*
X5356097Y1390650D01*
X5360670Y1399794D01*
X5365241Y1413510D01*
X5365241Y1436115D01*
X5360670Y1449831D01*
X5356097Y1458976D01*
X5346954Y1467865D01*
X5337809Y1472437D01*
X5319775Y1472437D01*
X5395213Y1472437D02*
G01*
X5395213Y1376934D01*
X5395213Y1472437D02*
G01*
X5431536Y1376934D01*
X5467858Y1472437D02*
G01*
X5431536Y1376934D01*
X5467858Y1472437D02*
G01*
X5467858Y1376934D01*
X7370572Y1424431D02*
G01*
X7366254Y1433576D01*
X7357109Y1442465D01*
X7347965Y1447037D01*
X7329677Y1447037D01*
X7320788Y1442465D01*
X7311643Y1433576D01*
X7307072Y1424431D01*
X7302500Y1410715D01*
X7302500Y1388110D01*
X7307072Y1374394D01*
X7311643Y1365250D01*
X7320788Y1356105D01*
X7329677Y1351534D01*
X7347965Y1351534D01*
X7357109Y1356105D01*
X7366254Y1365250D01*
X7370572Y1374394D01*
X7427975Y1447037D02*
G01*
X7418831Y1442465D01*
X7409688Y1433576D01*
X7405115Y1424431D01*
X7400797Y1410715D01*
X7400797Y1388110D01*
X7405115Y1374394D01*
X7409688Y1365250D01*
X7418831Y1356105D01*
X7427975Y1351534D01*
X7446009Y1351534D01*
X7455154Y1356105D01*
X7464297Y1365250D01*
X7468870Y1374394D01*
X7473441Y1388110D01*
X7473441Y1410715D01*
X7468870Y1424431D01*
X7464297Y1433576D01*
X7455154Y1442465D01*
X7446009Y1447037D01*
X7427975Y1447037D01*
X7503413Y1447037D02*
G01*
X7503413Y1351534D01*
X7503413Y1447037D02*
G01*
X7539736Y1351534D01*
X7576058Y1447037D02*
G01*
X7539736Y1351534D01*
X7576058Y1447037D02*
G01*
X7576058Y1351534D01*
X9402572Y1424431D02*
G01*
X9398254Y1433576D01*
X9389109Y1442465D01*
X9379965Y1447037D01*
X9361677Y1447037D01*
X9352788Y1442465D01*
X9343643Y1433576D01*
X9339072Y1424431D01*
X9334500Y1410715D01*
X9334500Y1388110D01*
X9339072Y1374394D01*
X9343643Y1365250D01*
X9352788Y1356105D01*
X9361677Y1351534D01*
X9379965Y1351534D01*
X9389109Y1356105D01*
X9398254Y1365250D01*
X9402572Y1374394D01*
X9459975Y1447037D02*
G01*
X9450831Y1442465D01*
X9441688Y1433576D01*
X9437115Y1424431D01*
X9432797Y1410715D01*
X9432797Y1388110D01*
X9437115Y1374394D01*
X9441688Y1365250D01*
X9450831Y1356105D01*
X9459975Y1351534D01*
X9478009Y1351534D01*
X9487154Y1356105D01*
X9496297Y1365250D01*
X9500870Y1374394D01*
X9505441Y1388110D01*
X9505441Y1410715D01*
X9500870Y1424431D01*
X9496297Y1433576D01*
X9487154Y1442465D01*
X9478009Y1447037D01*
X9459975Y1447037D01*
X9535413Y1447037D02*
G01*
X9535413Y1351534D01*
X9535413Y1447037D02*
G01*
X9571736Y1351534D01*
X9608058Y1447037D02*
G01*
X9571736Y1351534D01*
X9608058Y1447037D02*
G01*
X9608058Y1351534D01*
X11409172Y1411731D02*
G01*
X11404854Y1420876D01*
X11395709Y1429765D01*
X11386565Y1434337D01*
X11368277Y1434337D01*
X11359388Y1429765D01*
X11350243Y1420876D01*
X11345672Y1411731D01*
X11341100Y1398015D01*
X11341100Y1375410D01*
X11345672Y1361694D01*
X11350243Y1352550D01*
X11359388Y1343405D01*
X11368277Y1338834D01*
X11386565Y1338834D01*
X11395709Y1343405D01*
X11404854Y1352550D01*
X11409172Y1361694D01*
X11466575Y1434337D02*
G01*
X11457431Y1429765D01*
X11448288Y1420876D01*
X11443715Y1411731D01*
X11439397Y1398015D01*
X11439397Y1375410D01*
X11443715Y1361694D01*
X11448288Y1352550D01*
X11457431Y1343405D01*
X11466575Y1338834D01*
X11484609Y1338834D01*
X11493754Y1343405D01*
X11502897Y1352550D01*
X11507470Y1361694D01*
X11512041Y1375410D01*
X11512041Y1398015D01*
X11507470Y1411731D01*
X11502897Y1420876D01*
X11493754Y1429765D01*
X11484609Y1434337D01*
X11466575Y1434337D01*
X11542013Y1434337D02*
G01*
X11542013Y1338834D01*
X11542013Y1434337D02*
G01*
X11578336Y1338834D01*
X11614658Y1434337D02*
G01*
X11578336Y1338834D01*
X11614658Y1434337D02*
G01*
X11614658Y1338834D01*
X4884927Y9497568D02*
G01*
X4889245Y9488424D01*
X4898390Y9479534D01*
X4907534Y9474962D01*
X4925822Y9474962D01*
X4934711Y9479534D01*
X4943856Y9488424D01*
X4948427Y9497568D01*
X4953000Y9511284D01*
X4953000Y9533889D01*
X4948427Y9547605D01*
X4943856Y9556750D01*
X4934711Y9565894D01*
X4925822Y9570465D01*
X4907534Y9570465D01*
X4898390Y9565894D01*
X4889245Y9556750D01*
X4884927Y9547605D01*
X4827524Y9474962D02*
G01*
X4836668Y9479534D01*
X4845811Y9488424D01*
X4850384Y9497568D01*
X4854702Y9511284D01*
X4854702Y9533889D01*
X4850384Y9547605D01*
X4845811Y9556750D01*
X4836668Y9565894D01*
X4827524Y9570465D01*
X4809490Y9570465D01*
X4800345Y9565894D01*
X4791202Y9556750D01*
X4786629Y9547605D01*
X4782058Y9533889D01*
X4782058Y9511284D01*
X4786629Y9497568D01*
X4791202Y9488424D01*
X4800345Y9479534D01*
X4809490Y9474962D01*
X4827524Y9474962D01*
X4752086Y9474962D02*
G01*
X4752086Y9570465D01*
X4752086Y9474962D02*
G01*
X4715763Y9570465D01*
X4679441Y9474962D02*
G01*
X4715763Y9570465D01*
X4679441Y9474962D02*
G01*
X4679441Y9570465D01*
X6929627Y9484868D02*
G01*
X6933945Y9475724D01*
X6943090Y9466834D01*
X6952234Y9462262D01*
X6970522Y9462262D01*
X6979411Y9466834D01*
X6988556Y9475724D01*
X6993127Y9484868D01*
X6997700Y9498584D01*
X6997700Y9521189D01*
X6993127Y9534905D01*
X6988556Y9544050D01*
X6979411Y9553194D01*
X6970522Y9557765D01*
X6952234Y9557765D01*
X6943090Y9553194D01*
X6933945Y9544050D01*
X6929627Y9534905D01*
X6872224Y9462262D02*
G01*
X6881368Y9466834D01*
X6890511Y9475724D01*
X6895084Y9484868D01*
X6899402Y9498584D01*
X6899402Y9521189D01*
X6895084Y9534905D01*
X6890511Y9544050D01*
X6881368Y9553194D01*
X6872224Y9557765D01*
X6854190Y9557765D01*
X6845045Y9553194D01*
X6835902Y9544050D01*
X6831329Y9534905D01*
X6826758Y9521189D01*
X6826758Y9498584D01*
X6831329Y9484868D01*
X6835902Y9475724D01*
X6845045Y9466834D01*
X6854190Y9462262D01*
X6872224Y9462262D01*
X6796786Y9462262D02*
G01*
X6796786Y9557765D01*
X6796786Y9462262D02*
G01*
X6760463Y9557765D01*
X6724141Y9462262D02*
G01*
X6760463Y9557765D01*
X6724141Y9462262D02*
G01*
X6724141Y9557765D01*
X8898127Y9472168D02*
G01*
X8902445Y9463024D01*
X8911590Y9454134D01*
X8920734Y9449562D01*
X8939022Y9449562D01*
X8947911Y9454134D01*
X8957056Y9463024D01*
X8961627Y9472168D01*
X8966200Y9485884D01*
X8966200Y9508489D01*
X8961627Y9522205D01*
X8957056Y9531350D01*
X8947911Y9540494D01*
X8939022Y9545065D01*
X8920734Y9545065D01*
X8911590Y9540494D01*
X8902445Y9531350D01*
X8898127Y9522205D01*
X8840724Y9449562D02*
G01*
X8849868Y9454134D01*
X8859011Y9463024D01*
X8863584Y9472168D01*
X8867902Y9485884D01*
X8867902Y9508489D01*
X8863584Y9522205D01*
X8859011Y9531350D01*
X8849868Y9540494D01*
X8840724Y9545065D01*
X8822690Y9545065D01*
X8813545Y9540494D01*
X8804402Y9531350D01*
X8799829Y9522205D01*
X8795258Y9508489D01*
X8795258Y9485884D01*
X8799829Y9472168D01*
X8804402Y9463024D01*
X8813545Y9454134D01*
X8822690Y9449562D01*
X8840724Y9449562D01*
X8765286Y9449562D02*
G01*
X8765286Y9545065D01*
X8765286Y9449562D02*
G01*
X8728963Y9545065D01*
X8692641Y9449562D02*
G01*
X8728963Y9545065D01*
X8692641Y9449562D02*
G01*
X8692641Y9545065D01*
X10968227Y9484868D02*
G01*
X10972545Y9475724D01*
X10981690Y9466834D01*
X10990834Y9462262D01*
X11009122Y9462262D01*
X11018011Y9466834D01*
X11027156Y9475724D01*
X11031727Y9484868D01*
X11036300Y9498584D01*
X11036300Y9521189D01*
X11031727Y9534905D01*
X11027156Y9544050D01*
X11018011Y9553194D01*
X11009122Y9557765D01*
X10990834Y9557765D01*
X10981690Y9553194D01*
X10972545Y9544050D01*
X10968227Y9534905D01*
X10910824Y9462262D02*
G01*
X10919968Y9466834D01*
X10929111Y9475724D01*
X10933684Y9484868D01*
X10938002Y9498584D01*
X10938002Y9521189D01*
X10933684Y9534905D01*
X10929111Y9544050D01*
X10919968Y9553194D01*
X10910824Y9557765D01*
X10892790Y9557765D01*
X10883645Y9553194D01*
X10874502Y9544050D01*
X10869929Y9534905D01*
X10865358Y9521189D01*
X10865358Y9498584D01*
X10869929Y9484868D01*
X10874502Y9475724D01*
X10883645Y9466834D01*
X10892790Y9462262D01*
X10910824Y9462262D01*
X10835386Y9462262D02*
G01*
X10835386Y9557765D01*
X10835386Y9462262D02*
G01*
X10799063Y9557765D01*
X10762741Y9462262D02*
G01*
X10799063Y9557765D01*
X10762741Y9462262D02*
G01*
X10762741Y9557765D01*
X5295900Y9505695D02*
G01*
X5286756Y9501124D01*
X5273293Y9487662D01*
X5273293Y9583165D01*
X7323327Y9497568D02*
G01*
X7323327Y9492995D01*
X7318756Y9484105D01*
X7314184Y9479534D01*
X7305293Y9474962D01*
X7287006Y9474962D01*
X7277861Y9479534D01*
X7273290Y9484105D01*
X7268718Y9492995D01*
X7268718Y9502139D01*
X7273290Y9511284D01*
X7282434Y9525000D01*
X7327900Y9570465D01*
X7264145Y9570465D01*
X9312656Y9462262D02*
G01*
X9262618Y9462262D01*
X9290050Y9498584D01*
X9276334Y9498584D01*
X9267190Y9503155D01*
X9262618Y9507728D01*
X9258045Y9521189D01*
X9258045Y9530334D01*
X9262618Y9544050D01*
X9271761Y9553194D01*
X9285477Y9557765D01*
X9299193Y9557765D01*
X9312656Y9553194D01*
X9317227Y9548621D01*
X9321800Y9539478D01*
X11333734Y9474962D02*
G01*
X11379200Y9538462D01*
X11311127Y9538462D01*
X11333734Y9474962D02*
G01*
X11333734Y9570465D01*
X4956809Y1472437D02*
G01*
X4911343Y1472437D01*
X4906772Y1431544D01*
X4911343Y1436115D01*
X4924806Y1440687D01*
X4938522Y1440687D01*
X4952238Y1436115D01*
X4961381Y1426971D01*
X4965954Y1413510D01*
X4965954Y1404365D01*
X4961381Y1390650D01*
X4952238Y1381505D01*
X4938522Y1376934D01*
X4924806Y1376934D01*
X4911343Y1381505D01*
X4906772Y1386078D01*
X4902200Y1395221D01*
X7014209Y1433576D02*
G01*
X7009638Y1442465D01*
X6995922Y1447037D01*
X6986777Y1447037D01*
X6973315Y1442465D01*
X6964172Y1429004D01*
X6959600Y1406144D01*
X6959600Y1383537D01*
X6964172Y1365250D01*
X6973315Y1356105D01*
X6986777Y1351534D01*
X6991350Y1351534D01*
X7005065Y1356105D01*
X7014209Y1365250D01*
X7018781Y1378965D01*
X7018781Y1383537D01*
X7014209Y1397000D01*
X7005065Y1406144D01*
X6991350Y1410715D01*
X6986777Y1410715D01*
X6973315Y1406144D01*
X6964172Y1397000D01*
X6959600Y1383537D01*
X9042654Y1459737D02*
G01*
X8997188Y1364234D01*
X8978900Y1459737D02*
G01*
X9042654Y1459737D01*
X11008106Y1447037D02*
G01*
X10994643Y1442465D01*
X10990072Y1433576D01*
X10990072Y1424431D01*
X10994643Y1415287D01*
X11003788Y1410715D01*
X11021822Y1406144D01*
X11035538Y1401571D01*
X11044681Y1392681D01*
X11049254Y1383537D01*
X11049254Y1369821D01*
X11044681Y1360678D01*
X11040109Y1356105D01*
X11026393Y1351534D01*
X11008106Y1351534D01*
X10994643Y1356105D01*
X10990072Y1360678D01*
X10985500Y1369821D01*
X10985500Y1383537D01*
X10990072Y1392681D01*
X10999215Y1401571D01*
X11012677Y1406144D01*
X11030965Y1410715D01*
X11040109Y1415287D01*
X11044681Y1424431D01*
X11044681Y1433576D01*
X11040109Y1442465D01*
X11026393Y1447037D01*
X11008106Y1447037D01*
D11*
X2164841Y2960115D02*
G01*
X2154427Y2955036D01*
X2144013Y2944621D01*
X2138679Y2934207D01*
X2133600Y2918460D01*
X2133600Y2892552D01*
X2138679Y2877057D01*
X2144013Y2866644D01*
X2154427Y2856229D01*
X2164841Y2851150D01*
X2185670Y2851150D01*
X2195829Y2856229D01*
X2206243Y2866644D01*
X2211577Y2877057D01*
X2216658Y2892552D01*
X2216658Y2918460D01*
X2211577Y2934207D01*
X2206243Y2944621D01*
X2195829Y2955036D01*
X2185670Y2960115D01*
X2164841Y2960115D01*
X2250947Y2960115D02*
G01*
X2250947Y2851150D01*
X2250947Y2960115D02*
G01*
X2297684Y2960115D01*
X2313431Y2955036D01*
X2318511Y2949702D01*
X2323845Y2939287D01*
X2323845Y2923794D01*
X2318511Y2913379D01*
X2313431Y2908300D01*
X2297684Y2902965D01*
X2250947Y2902965D01*
X2358136Y2960115D02*
G01*
X2358136Y2851150D01*
X2358136Y2960115D02*
G01*
X2425700Y2960115D01*
X2358136Y2908300D02*
G01*
X2399538Y2908300D01*
X2358136Y2851150D02*
G01*
X2425700Y2851150D01*
X2459990Y2960115D02*
G01*
X2459990Y2851150D01*
X2459990Y2960115D02*
G01*
X2532634Y2851150D01*
X2532634Y2960115D02*
G01*
X2532634Y2851150D01*
X2566924Y2897886D02*
G01*
X2660395Y2897886D01*
X2694686Y2960115D02*
G01*
X2694686Y2851150D01*
X2767329Y2960115D02*
G01*
X2767329Y2851150D01*
X2694686Y2908300D02*
G01*
X2767329Y2908300D01*
X2843275Y2960115D02*
G01*
X2801620Y2851150D01*
X2843275Y2960115D02*
G01*
X2884931Y2851150D01*
X2817368Y2887471D02*
G01*
X2869184Y2887471D01*
X2919222Y2960115D02*
G01*
X2919222Y2851150D01*
X2919222Y2960115D02*
G01*
X2965958Y2960115D01*
X2981452Y2955036D01*
X2986786Y2949702D01*
X2991865Y2939287D01*
X2991865Y2928873D01*
X2986786Y2918460D01*
X2981452Y2913379D01*
X2965958Y2908300D01*
X2919222Y2908300D01*
X2955543Y2908300D02*
G01*
X2991865Y2851150D01*
X3026156Y2960115D02*
G01*
X3026156Y2851150D01*
X3026156Y2960115D02*
G01*
X3062477Y2960115D01*
X3078225Y2955036D01*
X3088640Y2944621D01*
X3093720Y2934207D01*
X3098800Y2918460D01*
X3098800Y2892552D01*
X3093720Y2877057D01*
X3088640Y2866644D01*
X3078225Y2856229D01*
X3062477Y2851150D01*
X3026156Y2851150D01*
X3133090Y2960115D02*
G01*
X3159252Y2851150D01*
X3185159Y2960115D02*
G01*
X3159252Y2851150D01*
X3185159Y2960115D02*
G01*
X3211068Y2851150D01*
X3237229Y2960115D02*
G01*
X3211068Y2851150D01*
X3312922Y2960115D02*
G01*
X3271520Y2851150D01*
X3312922Y2960115D02*
G01*
X3354577Y2851150D01*
X3287013Y2887471D02*
G01*
X3338829Y2887471D01*
X3388868Y2960115D02*
G01*
X3388868Y2851150D01*
X3388868Y2960115D02*
G01*
X3435604Y2960115D01*
X3451097Y2955036D01*
X3456431Y2949702D01*
X3461511Y2939287D01*
X3461511Y2928873D01*
X3456431Y2918460D01*
X3451097Y2913379D01*
X3435604Y2908300D01*
X3388868Y2908300D01*
X3425190Y2908300D02*
G01*
X3461511Y2851150D01*
X3495802Y2960115D02*
G01*
X3495802Y2851150D01*
X3495802Y2960115D02*
G01*
X3563365Y2960115D01*
X3495802Y2908300D02*
G01*
X3537458Y2908300D01*
X3495802Y2851150D02*
G01*
X3563365Y2851150D01*
X4749800Y6338315D02*
G01*
X4749800Y6229350D01*
X4749800Y6338315D02*
G01*
X4786122Y6338315D01*
X4801870Y6333236D01*
X4812029Y6322821D01*
X4817363Y6312407D01*
X4822443Y6296660D01*
X4822443Y6270752D01*
X4817363Y6255257D01*
X4812029Y6244844D01*
X4801870Y6234429D01*
X4786122Y6229350D01*
X4749800Y6229350D01*
X4856734Y6317487D02*
G01*
X4867147Y6322821D01*
X4882895Y6338315D01*
X4882895Y6229350D01*
X4651029Y6089027D02*
G01*
X4651029Y6047371D01*
X4630201Y6068199D02*
G01*
X4671857Y6068199D01*
X4865199Y6063198D02*
G01*
X4906855Y6063198D01*
X6769100Y6351015D02*
G01*
X6769100Y6242050D01*
X6769100Y6351015D02*
G01*
X6805422Y6351015D01*
X6821170Y6345936D01*
X6831329Y6335521D01*
X6836663Y6325107D01*
X6841743Y6309360D01*
X6841743Y6283452D01*
X6836663Y6267957D01*
X6831329Y6257544D01*
X6821170Y6247129D01*
X6805422Y6242050D01*
X6769100Y6242050D01*
X6881368Y6325107D02*
G01*
X6881368Y6330187D01*
X6886447Y6340602D01*
X6891781Y6345936D01*
X6902195Y6351015D01*
X6922770Y6351015D01*
X6933184Y6345936D01*
X6938518Y6340602D01*
X6943597Y6330187D01*
X6943597Y6319773D01*
X6938518Y6309360D01*
X6928104Y6293865D01*
X6876034Y6242050D01*
X6948931Y6242050D01*
X6670329Y6101727D02*
G01*
X6670329Y6060071D01*
X6649501Y6080899D02*
G01*
X6691157Y6080899D01*
X6884499Y6075898D02*
G01*
X6926155Y6075898D01*
X8801100Y6351015D02*
G01*
X8801100Y6242050D01*
X8801100Y6351015D02*
G01*
X8837422Y6351015D01*
X8853170Y6345936D01*
X8863329Y6335521D01*
X8868663Y6325107D01*
X8873743Y6309360D01*
X8873743Y6283452D01*
X8868663Y6267957D01*
X8863329Y6257544D01*
X8853170Y6247129D01*
X8837422Y6242050D01*
X8801100Y6242050D01*
X8918447Y6351015D02*
G01*
X8975597Y6351015D01*
X8944609Y6309360D01*
X8960104Y6309360D01*
X8970518Y6304279D01*
X8975597Y6299200D01*
X8980931Y6283452D01*
X8980931Y6273037D01*
X8975597Y6257544D01*
X8965184Y6247129D01*
X8949690Y6242050D01*
X8934195Y6242050D01*
X8918447Y6247129D01*
X8913368Y6252210D01*
X8908034Y6262623D01*
X8702329Y6101727D02*
G01*
X8702329Y6060071D01*
X8681501Y6080899D02*
G01*
X8723157Y6080899D01*
X8916499Y6075898D02*
G01*
X8958155Y6075898D01*
X10833100Y6351015D02*
G01*
X10833100Y6242050D01*
X10833100Y6351015D02*
G01*
X10869422Y6351015D01*
X10885170Y6345936D01*
X10895329Y6335521D01*
X10900663Y6325107D01*
X10905743Y6309360D01*
X10905743Y6283452D01*
X10900663Y6267957D01*
X10895329Y6257544D01*
X10885170Y6247129D01*
X10869422Y6242050D01*
X10833100Y6242050D01*
X10992104Y6351015D02*
G01*
X10940034Y6278371D01*
X11018011Y6278371D01*
X10992104Y6351015D02*
G01*
X10992104Y6242050D01*
X10734329Y6101727D02*
G01*
X10734329Y6060071D01*
X10713501Y6080899D02*
G01*
X10755157Y6080899D01*
X10948499Y6075898D02*
G01*
X10990155Y6075898D01*
X5359400Y5385815D02*
G01*
X5359400Y5276850D01*
X5359400Y5385815D02*
G01*
X5395722Y5385815D01*
X5411470Y5380736D01*
X5421629Y5370321D01*
X5426963Y5359907D01*
X5432043Y5344160D01*
X5432043Y5318252D01*
X5426963Y5302757D01*
X5421629Y5292344D01*
X5411470Y5281929D01*
X5395722Y5276850D01*
X5359400Y5276850D01*
X5528818Y5385815D02*
G01*
X5476747Y5385815D01*
X5471668Y5339079D01*
X5476747Y5344160D01*
X5492495Y5349494D01*
X5507990Y5349494D01*
X5523484Y5344160D01*
X5533897Y5334000D01*
X5539231Y5318252D01*
X5539231Y5307837D01*
X5533897Y5292344D01*
X5523484Y5281929D01*
X5507990Y5276850D01*
X5492495Y5276850D01*
X5476747Y5281929D01*
X5471668Y5287010D01*
X5466334Y5297423D01*
X5260629Y5136527D02*
G01*
X5260629Y5094871D01*
X5239801Y5115699D02*
G01*
X5281457Y5115699D01*
X5474799Y5110698D02*
G01*
X5516455Y5110698D01*
X7404100Y5385815D02*
G01*
X7404100Y5276850D01*
X7404100Y5385815D02*
G01*
X7440422Y5385815D01*
X7456170Y5380736D01*
X7466329Y5370321D01*
X7471663Y5359907D01*
X7476743Y5344160D01*
X7476743Y5318252D01*
X7471663Y5302757D01*
X7466329Y5292344D01*
X7456170Y5281929D01*
X7440422Y5276850D01*
X7404100Y5276850D01*
X7573518Y5370321D02*
G01*
X7568184Y5380736D01*
X7552690Y5385815D01*
X7542275Y5385815D01*
X7526781Y5380736D01*
X7516368Y5364987D01*
X7511034Y5339079D01*
X7511034Y5313171D01*
X7516368Y5292344D01*
X7526781Y5281929D01*
X7542275Y5276850D01*
X7547609Y5276850D01*
X7563104Y5281929D01*
X7573518Y5292344D01*
X7578597Y5307837D01*
X7578597Y5313171D01*
X7573518Y5328665D01*
X7563104Y5339079D01*
X7547609Y5344160D01*
X7542275Y5344160D01*
X7526781Y5339079D01*
X7516368Y5328665D01*
X7511034Y5313171D01*
X7305329Y5136527D02*
G01*
X7305329Y5094871D01*
X7284501Y5115699D02*
G01*
X7326157Y5115699D01*
X7519499Y5110698D02*
G01*
X7561155Y5110698D01*
X9461500Y5385815D02*
G01*
X9461500Y5276850D01*
X9461500Y5385815D02*
G01*
X9497822Y5385815D01*
X9513570Y5380736D01*
X9523729Y5370321D01*
X9529063Y5359907D01*
X9534143Y5344160D01*
X9534143Y5318252D01*
X9529063Y5302757D01*
X9523729Y5292344D01*
X9513570Y5281929D01*
X9497822Y5276850D01*
X9461500Y5276850D01*
X9641331Y5385815D02*
G01*
X9589261Y5276850D01*
X9568434Y5385815D02*
G01*
X9641331Y5385815D01*
X9362729Y5136527D02*
G01*
X9362729Y5094871D01*
X9341901Y5115699D02*
G01*
X9383557Y5115699D01*
X9576899Y5110698D02*
G01*
X9618555Y5110698D01*
X11506200Y5385815D02*
G01*
X11506200Y5276850D01*
X11506200Y5385815D02*
G01*
X11542522Y5385815D01*
X11558270Y5380736D01*
X11568429Y5370321D01*
X11573763Y5359907D01*
X11578843Y5344160D01*
X11578843Y5318252D01*
X11573763Y5302757D01*
X11568429Y5292344D01*
X11558270Y5281929D01*
X11542522Y5276850D01*
X11506200Y5276850D01*
X11639295Y5385815D02*
G01*
X11623547Y5380736D01*
X11618468Y5370321D01*
X11618468Y5359907D01*
X11623547Y5349494D01*
X11633961Y5344160D01*
X11654790Y5339079D01*
X11670284Y5334000D01*
X11680697Y5323586D01*
X11686031Y5313171D01*
X11686031Y5297423D01*
X11680697Y5287010D01*
X11675618Y5281929D01*
X11659870Y5276850D01*
X11639295Y5276850D01*
X11623547Y5281929D01*
X11618468Y5287010D01*
X11613134Y5297423D01*
X11613134Y5313171D01*
X11618468Y5323586D01*
X11628881Y5334000D01*
X11644375Y5339079D01*
X11665204Y5344160D01*
X11675618Y5349494D01*
X11680697Y5359907D01*
X11680697Y5370321D01*
X11675618Y5380736D01*
X11659870Y5385815D01*
X11639295Y5385815D01*
X11407429Y5136527D02*
G01*
X11407429Y5094871D01*
X11386601Y5115699D02*
G01*
X11428257Y5115699D01*
X11621599Y5110698D02*
G01*
X11663255Y5110698D01*
X2413000Y8179815D02*
G01*
X2413000Y8070850D01*
X2413000Y8179815D02*
G01*
X2449322Y8179815D01*
X2465070Y8174736D01*
X2475229Y8164321D01*
X2480563Y8153908D01*
X2485643Y8138160D01*
X2485643Y8112252D01*
X2480563Y8096758D01*
X2475229Y8086344D01*
X2465070Y8075929D01*
X2449322Y8070850D01*
X2413000Y8070850D01*
X2587497Y8143494D02*
G01*
X2582418Y8128000D01*
X2572004Y8117586D01*
X2556509Y8112252D01*
X2551175Y8112252D01*
X2535681Y8117586D01*
X2525268Y8128000D01*
X2519934Y8143494D01*
X2519934Y8148573D01*
X2525268Y8164321D01*
X2535681Y8174736D01*
X2551175Y8179815D01*
X2556509Y8179815D01*
X2572004Y8174736D01*
X2582418Y8164321D01*
X2587497Y8143494D01*
X2587497Y8117586D01*
X2582418Y8091423D01*
X2572004Y8075929D01*
X2556509Y8070850D01*
X2546095Y8070850D01*
X2530347Y8075929D01*
X2525268Y8086344D01*
X4101084Y7491856D02*
G01*
X4184141Y7491856D01*
X4199890Y7486522D01*
X4204970Y7481443D01*
X4210050Y7471029D01*
X4210050Y7460614D01*
X4204970Y7450201D01*
X4199890Y7444867D01*
X4184141Y7439787D01*
X4173727Y7439787D01*
X4121911Y7526146D02*
G01*
X4116577Y7536306D01*
X4101084Y7552054D01*
X4210050Y7552054D01*
X6107684Y7491856D02*
G01*
X6190741Y7491856D01*
X6206490Y7486522D01*
X6211570Y7481443D01*
X6216650Y7471029D01*
X6216650Y7460614D01*
X6211570Y7450201D01*
X6206490Y7444867D01*
X6190741Y7439787D01*
X6180327Y7439787D01*
X6133591Y7531227D02*
G01*
X6128511Y7531227D01*
X6118097Y7536306D01*
X6112763Y7541640D01*
X6107684Y7552054D01*
X6107684Y7572883D01*
X6112763Y7583296D01*
X6118097Y7588377D01*
X6128511Y7593456D01*
X6138925Y7593456D01*
X6149340Y7588377D01*
X6164834Y7577962D01*
X6216650Y7526146D01*
X6216650Y7598790D01*
X8152384Y7491856D02*
G01*
X8235441Y7491856D01*
X8251190Y7486522D01*
X8256270Y7481443D01*
X8261350Y7471029D01*
X8261350Y7460614D01*
X8256270Y7450201D01*
X8251190Y7444867D01*
X8235441Y7439787D01*
X8225027Y7439787D01*
X8152384Y7536306D02*
G01*
X8152384Y7593456D01*
X8194040Y7562469D01*
X8194040Y7577962D01*
X8199120Y7588377D01*
X8204200Y7593456D01*
X8219947Y7598790D01*
X8230361Y7598790D01*
X8245856Y7593456D01*
X8256270Y7583296D01*
X8261350Y7567548D01*
X8261350Y7552054D01*
X8256270Y7536306D01*
X8251190Y7531227D01*
X8240775Y7526146D01*
X10197084Y7504556D02*
G01*
X10280141Y7504556D01*
X10295890Y7499222D01*
X10300970Y7494143D01*
X10306050Y7483729D01*
X10306050Y7473314D01*
X10300970Y7462901D01*
X10295890Y7457567D01*
X10280141Y7452487D01*
X10269727Y7452487D01*
X10197084Y7590662D02*
G01*
X10269727Y7538846D01*
X10269727Y7616570D01*
X10197084Y7590662D02*
G01*
X10306050Y7590662D01*
X6008115Y3442843D02*
G01*
X5925058Y3442843D01*
X5909309Y3448177D01*
X5904229Y3453256D01*
X5899150Y3463670D01*
X5899150Y3474085D01*
X5904229Y3484498D01*
X5909309Y3489832D01*
X5925058Y3494912D01*
X5935472Y3494912D01*
X6008115Y3346322D02*
G01*
X6008115Y3398393D01*
X5961379Y3403472D01*
X5966459Y3398393D01*
X5971793Y3382645D01*
X5971793Y3367151D01*
X5966459Y3351403D01*
X5956300Y3341243D01*
X5940552Y3335909D01*
X5930138Y3335909D01*
X5914643Y3341243D01*
X5904229Y3351403D01*
X5899150Y3367151D01*
X5899150Y3382645D01*
X5904229Y3398393D01*
X5909309Y3403472D01*
X5919724Y3408553D01*
X8052815Y3430143D02*
G01*
X7969758Y3430143D01*
X7954009Y3435477D01*
X7948929Y3440556D01*
X7943850Y3450970D01*
X7943850Y3461385D01*
X7948929Y3471798D01*
X7954009Y3477132D01*
X7969758Y3482212D01*
X7980172Y3482212D01*
X8037322Y3333622D02*
G01*
X8047736Y3338703D01*
X8052815Y3354451D01*
X8052815Y3364864D01*
X8047736Y3380359D01*
X8031988Y3390772D01*
X8006079Y3395853D01*
X7980172Y3395853D01*
X7959343Y3390772D01*
X7948929Y3380359D01*
X7943850Y3364864D01*
X7943850Y3359530D01*
X7948929Y3344037D01*
X7959343Y3333622D01*
X7974838Y3328543D01*
X7980172Y3328543D01*
X7995665Y3333622D01*
X8006079Y3344037D01*
X8011159Y3359530D01*
X8011159Y3364864D01*
X8006079Y3380359D01*
X7995665Y3390772D01*
X7980172Y3395853D01*
X10072115Y3417443D02*
G01*
X9989058Y3417443D01*
X9973309Y3422777D01*
X9968229Y3427856D01*
X9963150Y3438270D01*
X9963150Y3448685D01*
X9968229Y3459098D01*
X9973309Y3464432D01*
X9989058Y3469512D01*
X9999472Y3469512D01*
X10072115Y3310509D02*
G01*
X9963150Y3362579D01*
X10072115Y3383153D02*
G01*
X10072115Y3310509D01*
X12104115Y3404743D02*
G01*
X12021058Y3404743D01*
X12005309Y3410077D01*
X12000229Y3415156D01*
X11995150Y3425570D01*
X11995150Y3435985D01*
X12000229Y3446398D01*
X12005309Y3451732D01*
X12021058Y3456812D01*
X12031472Y3456812D01*
X12104115Y3344545D02*
G01*
X12099036Y3360293D01*
X12088622Y3365372D01*
X12078208Y3365372D01*
X12067793Y3360293D01*
X12062459Y3349879D01*
X12057379Y3329051D01*
X12052300Y3313303D01*
X12041886Y3303143D01*
X12031472Y3297809D01*
X12015724Y3297809D01*
X12005309Y3303143D01*
X12000229Y3308222D01*
X11995150Y3323717D01*
X11995150Y3344545D01*
X12000229Y3360293D01*
X12005309Y3365372D01*
X12015724Y3370453D01*
X12031472Y3370453D01*
X12041886Y3365372D01*
X12052300Y3354959D01*
X12057379Y3339464D01*
X12062459Y3318637D01*
X12067793Y3308222D01*
X12078208Y3303143D01*
X12088622Y3303143D01*
X12099036Y3308222D01*
X12104115Y3323717D01*
X12104115Y3344545D01*
X1486915Y4521200D02*
G01*
X1377950Y4521200D01*
X1486915Y4521200D02*
G01*
X1486915Y4474463D01*
X1481836Y4458970D01*
X1476502Y4453636D01*
X1466087Y4448555D01*
X1450594Y4448555D01*
X1440179Y4453636D01*
X1435100Y4458970D01*
X1429765Y4474463D01*
X1429765Y4521200D01*
X1466087Y4414265D02*
G01*
X1471421Y4403852D01*
X1486915Y4388104D01*
X1377950Y4388104D01*
X5078729Y8507984D02*
G01*
X5078729Y8591042D01*
X5084063Y8606789D01*
X5089143Y8611870D01*
X5099558Y8616950D01*
X5109972Y8616950D01*
X5120386Y8611870D01*
X5125720Y8606789D01*
X5130800Y8591042D01*
X5130800Y8580628D01*
X5044440Y8507984D02*
G01*
X5044440Y8616950D01*
X5044440Y8507984D02*
G01*
X4997704Y8507984D01*
X4982209Y8513063D01*
X4977129Y8518397D01*
X4971795Y8528812D01*
X4971795Y8544305D01*
X4977129Y8554720D01*
X4982209Y8559800D01*
X4997704Y8565134D01*
X5044440Y8565134D01*
X4937506Y8528812D02*
G01*
X4927091Y8523478D01*
X4911597Y8507984D01*
X4911597Y8616950D01*
X7098029Y8533384D02*
G01*
X7098029Y8616442D01*
X7103363Y8632189D01*
X7108443Y8637270D01*
X7118858Y8642350D01*
X7129272Y8642350D01*
X7139686Y8637270D01*
X7145020Y8632189D01*
X7150100Y8616442D01*
X7150100Y8606028D01*
X7063740Y8533384D02*
G01*
X7063740Y8642350D01*
X7063740Y8533384D02*
G01*
X7017004Y8533384D01*
X7001509Y8538463D01*
X6996429Y8543797D01*
X6991095Y8554212D01*
X6991095Y8569705D01*
X6996429Y8580120D01*
X7001509Y8585200D01*
X7017004Y8590534D01*
X7063740Y8590534D01*
X6951725Y8559292D02*
G01*
X6951725Y8554212D01*
X6946391Y8543797D01*
X6941311Y8538463D01*
X6930897Y8533384D01*
X6910070Y8533384D01*
X6899656Y8538463D01*
X6894575Y8543797D01*
X6889241Y8554212D01*
X6889241Y8564626D01*
X6894575Y8575039D01*
X6904990Y8590534D01*
X6956806Y8642350D01*
X6884161Y8642350D01*
X9091929Y8520684D02*
G01*
X9091929Y8603742D01*
X9097263Y8619489D01*
X9102343Y8624570D01*
X9112758Y8629650D01*
X9123172Y8629650D01*
X9133586Y8624570D01*
X9138920Y8619489D01*
X9144000Y8603742D01*
X9144000Y8593328D01*
X9057640Y8520684D02*
G01*
X9057640Y8629650D01*
X9057640Y8520684D02*
G01*
X9010904Y8520684D01*
X8995409Y8525763D01*
X8990329Y8531097D01*
X8984995Y8541512D01*
X8984995Y8557005D01*
X8990329Y8567420D01*
X8995409Y8572500D01*
X9010904Y8577834D01*
X9057640Y8577834D01*
X8940291Y8520684D02*
G01*
X8883141Y8520684D01*
X8914384Y8562339D01*
X8898890Y8562339D01*
X8888475Y8567420D01*
X8883141Y8572500D01*
X8878061Y8588247D01*
X8878061Y8598662D01*
X8883141Y8614155D01*
X8893556Y8624570D01*
X8909050Y8629650D01*
X8924797Y8629650D01*
X8940291Y8624570D01*
X8945625Y8619489D01*
X8950706Y8609076D01*
X11149329Y8533384D02*
G01*
X11149329Y8616442D01*
X11154663Y8632189D01*
X11159743Y8637270D01*
X11170158Y8642350D01*
X11180572Y8642350D01*
X11190986Y8637270D01*
X11196320Y8632189D01*
X11201400Y8616442D01*
X11201400Y8606028D01*
X11115040Y8533384D02*
G01*
X11115040Y8642350D01*
X11115040Y8533384D02*
G01*
X11068304Y8533384D01*
X11052809Y8538463D01*
X11047729Y8543797D01*
X11042395Y8554212D01*
X11042395Y8569705D01*
X11047729Y8580120D01*
X11052809Y8585200D01*
X11068304Y8590534D01*
X11115040Y8590534D01*
X10956290Y8533384D02*
G01*
X11008106Y8606028D01*
X10930127Y8606028D01*
X10956290Y8533384D02*
G01*
X10956290Y8642350D01*
X5106670Y2414015D02*
G01*
X5106670Y2330957D01*
X5101336Y2315210D01*
X5096256Y2310129D01*
X5085841Y2305050D01*
X5075427Y2305050D01*
X5065013Y2310129D01*
X5059679Y2315210D01*
X5054600Y2330957D01*
X5054600Y2341371D01*
X5140959Y2414015D02*
G01*
X5140959Y2305050D01*
X5140959Y2414015D02*
G01*
X5187695Y2414015D01*
X5203190Y2408936D01*
X5208270Y2403602D01*
X5213604Y2393187D01*
X5213604Y2377694D01*
X5208270Y2367279D01*
X5203190Y2362200D01*
X5187695Y2356865D01*
X5140959Y2356865D01*
X5310124Y2414015D02*
G01*
X5258308Y2414015D01*
X5252974Y2367279D01*
X5258308Y2372360D01*
X5273802Y2377694D01*
X5289550Y2377694D01*
X5305043Y2372360D01*
X5315458Y2362200D01*
X5320538Y2346452D01*
X5320538Y2336037D01*
X5315458Y2320544D01*
X5305043Y2310129D01*
X5289550Y2305050D01*
X5273802Y2305050D01*
X5258308Y2310129D01*
X5252974Y2315210D01*
X5247893Y2325623D01*
X7151370Y2401315D02*
G01*
X7151370Y2318257D01*
X7146036Y2302510D01*
X7140956Y2297429D01*
X7130541Y2292350D01*
X7120127Y2292350D01*
X7109713Y2297429D01*
X7104379Y2302510D01*
X7099300Y2318257D01*
X7099300Y2328671D01*
X7185659Y2401315D02*
G01*
X7185659Y2292350D01*
X7185659Y2401315D02*
G01*
X7232395Y2401315D01*
X7247890Y2396236D01*
X7252970Y2390902D01*
X7258304Y2380487D01*
X7258304Y2364994D01*
X7252970Y2354579D01*
X7247890Y2349500D01*
X7232395Y2344165D01*
X7185659Y2344165D01*
X7354824Y2385821D02*
G01*
X7349743Y2396236D01*
X7334250Y2401315D01*
X7323836Y2401315D01*
X7308088Y2396236D01*
X7297674Y2380487D01*
X7292593Y2354579D01*
X7292593Y2328671D01*
X7297674Y2307844D01*
X7308088Y2297429D01*
X7323836Y2292350D01*
X7328915Y2292350D01*
X7344409Y2297429D01*
X7354824Y2307844D01*
X7360158Y2323337D01*
X7360158Y2328671D01*
X7354824Y2344165D01*
X7344409Y2354579D01*
X7328915Y2359660D01*
X7323836Y2359660D01*
X7308088Y2354579D01*
X7297674Y2344165D01*
X7292593Y2328671D01*
X9170670Y2401315D02*
G01*
X9170670Y2318257D01*
X9165336Y2302510D01*
X9160256Y2297429D01*
X9149841Y2292350D01*
X9139427Y2292350D01*
X9129013Y2297429D01*
X9123679Y2302510D01*
X9118600Y2318257D01*
X9118600Y2328671D01*
X9204959Y2401315D02*
G01*
X9204959Y2292350D01*
X9204959Y2401315D02*
G01*
X9251695Y2401315D01*
X9267190Y2396236D01*
X9272270Y2390902D01*
X9277604Y2380487D01*
X9277604Y2364994D01*
X9272270Y2354579D01*
X9267190Y2349500D01*
X9251695Y2344165D01*
X9204959Y2344165D01*
X9384538Y2401315D02*
G01*
X9332722Y2292350D01*
X9311893Y2401315D02*
G01*
X9384538Y2401315D01*
X11189970Y2375915D02*
G01*
X11189970Y2292857D01*
X11184636Y2277110D01*
X11179556Y2272029D01*
X11169141Y2266950D01*
X11158727Y2266950D01*
X11148313Y2272029D01*
X11142979Y2277110D01*
X11137900Y2292857D01*
X11137900Y2303271D01*
X11224259Y2375915D02*
G01*
X11224259Y2266950D01*
X11224259Y2375915D02*
G01*
X11270995Y2375915D01*
X11286490Y2370836D01*
X11291570Y2365502D01*
X11296904Y2355087D01*
X11296904Y2339594D01*
X11291570Y2329179D01*
X11286490Y2324100D01*
X11270995Y2318765D01*
X11224259Y2318765D01*
X11357102Y2375915D02*
G01*
X11341608Y2370836D01*
X11336274Y2360421D01*
X11336274Y2350007D01*
X11341608Y2339594D01*
X11352022Y2334260D01*
X11372850Y2329179D01*
X11388343Y2324100D01*
X11398758Y2313686D01*
X11403838Y2303271D01*
X11403838Y2287523D01*
X11398758Y2277110D01*
X11393424Y2272029D01*
X11377929Y2266950D01*
X11357102Y2266950D01*
X11341608Y2272029D01*
X11336274Y2277110D01*
X11331193Y2287523D01*
X11331193Y2303271D01*
X11336274Y2313686D01*
X11346688Y2324100D01*
X11362436Y2329179D01*
X11383009Y2334260D01*
X11393424Y2339594D01*
X11398758Y2350007D01*
X11398758Y2360421D01*
X11393424Y2370836D01*
X11377929Y2375915D01*
X11357102Y2375915D01*
X2984500Y6338315D02*
G01*
X2984500Y6229350D01*
X3096768Y6312407D02*
G01*
X3091434Y6322821D01*
X3081020Y6333236D01*
X3070859Y6338315D01*
X3050031Y6338315D01*
X3039618Y6333236D01*
X3029204Y6322821D01*
X3023870Y6312407D01*
X3018790Y6296660D01*
X3018790Y6270752D01*
X3023870Y6255257D01*
X3029204Y6244844D01*
X3039618Y6234429D01*
X3050031Y6229350D01*
X3070859Y6229350D01*
X3081020Y6234429D01*
X3091434Y6244844D01*
X3096768Y6255257D01*
X3131058Y6317487D02*
G01*
X3141472Y6322821D01*
X3156965Y6338315D01*
X3156965Y6229350D01*
G36*
X2789428Y3649421D02*
G01*
X2777947Y3536492D01*
X2752445Y3529025D01*
X2727858Y3518915D01*
X2704592Y3506063D01*
X2616606Y3577793D01*
X2556306Y3517493D01*
X2628036Y3429508D01*
X2615234Y3406241D01*
X2605024Y3381654D01*
X2597658Y3356101D01*
X2484729Y3344672D01*
X2484729Y3259328D01*
X2597658Y3247898D01*
X2605024Y3222345D01*
X2615234Y3197758D01*
X2628036Y3174492D01*
X2556306Y3086506D01*
X2616606Y3026206D01*
X2704592Y3097936D01*
X2721914Y3088081D01*
X2739999Y3079699D01*
X2790240Y3200958D01*
X2778658Y3206546D01*
X2767838Y3213506D01*
X2757881Y3221685D01*
X2748940Y3230930D01*
X2741117Y3241243D01*
X2734614Y3252368D01*
X2729484Y3264153D01*
X2725775Y3276447D01*
X2723489Y3289147D01*
X2722727Y3302000D01*
X2723540Y3315462D01*
X2726029Y3328720D01*
X2730144Y3341573D01*
X2735783Y3353866D01*
X2742895Y3365296D01*
X2751328Y3375812D01*
X2761081Y3385159D01*
X2771851Y3393287D01*
X2783535Y3399993D01*
X2795981Y3405276D01*
X2808935Y3408883D01*
X2822295Y3410965D01*
X2835808Y3411321D01*
X2849168Y3410051D01*
X2862376Y3407105D01*
X2875076Y3402584D01*
X2887167Y3396538D01*
X2898343Y3389020D01*
X2908554Y3380232D01*
X2917647Y3370173D01*
X2925368Y3359150D01*
X2931718Y3347212D01*
X2936494Y3334613D01*
X2939745Y3321507D01*
X2941269Y3308146D01*
X2941218Y3294634D01*
X2939491Y3281273D01*
X2936138Y3268167D01*
X2931160Y3255670D01*
X2924708Y3243783D01*
X2916834Y3232861D01*
X2907690Y3222955D01*
X2897378Y3214268D01*
X2886100Y3206902D01*
X2873959Y3200958D01*
X2924200Y3079699D01*
X2942285Y3088081D01*
X2959608Y3097936D01*
X3047593Y3026206D01*
X3107893Y3086506D01*
X3036163Y3174492D01*
X3048965Y3197758D01*
X3059176Y3222345D01*
X3066542Y3247898D01*
X3179470Y3259328D01*
X3179470Y3344672D01*
X3066542Y3356101D01*
X3059176Y3381654D01*
X3048965Y3406241D01*
X3036163Y3429508D01*
X3107893Y3517493D01*
X3047593Y3577793D01*
X2959608Y3506063D01*
X2936341Y3518915D01*
X2911754Y3529025D01*
X2886252Y3536492D01*
X2874772Y3649421D01*
G37*
D12*
X2959608Y3097936D02*
G01*
X3047568Y3026206D01*
X3107893Y3086531D01*
X3036163Y3174492D01*
X3066567Y3247872D02*
G01*
X3179495Y3259353D01*
X3179495Y3344646D01*
X3066567Y3356127D01*
X3036163Y3429507D02*
G01*
X3107893Y3517468D01*
X3047568Y3577793D01*
X2959608Y3506063D01*
X2886227Y3536467D02*
G01*
X2874746Y3649395D01*
X2789453Y3649395D01*
X2777972Y3536467D01*
X2704591Y3506063D02*
G01*
X2616631Y3577793D01*
X2556306Y3517468D01*
X2628036Y3429507D01*
X2597632Y3356127D02*
G01*
X2484704Y3344646D01*
X2484704Y3259353D01*
X2597632Y3247872D01*
X2628036Y3174492D02*
G01*
X2556306Y3086531D01*
X2616631Y3026206D01*
X2704591Y3097936D01*
X2739999Y3079699D02*
G01*
X2790240Y3200958D01*
X2873959Y3200958D02*
G01*
X2924200Y3079699D01*
D13*
X4965700Y6108700D02*
G01*
X4965700Y5989320D01*
X4965700Y5727700D02*
G01*
X4965700Y5839460D01*
X6985000Y6121400D02*
G01*
X6985000Y6002020D01*
X6985000Y5740400D02*
G01*
X6985000Y5852160D01*
X9017000Y6121400D02*
G01*
X9017000Y6002020D01*
X9017000Y5740400D02*
G01*
X9017000Y5852160D01*
X11049000Y6121400D02*
G01*
X11049000Y6002020D01*
X11049000Y5740400D02*
G01*
X11049000Y5852160D01*
X5575300Y5156200D02*
G01*
X5575300Y5036820D01*
X5575300Y4775200D02*
G01*
X5575300Y4886960D01*
X7620000Y5156200D02*
G01*
X7620000Y5036820D01*
X7620000Y4775200D02*
G01*
X7620000Y4886960D01*
X9677400Y5156200D02*
G01*
X9677400Y5036820D01*
X9677400Y4775200D02*
G01*
X9677400Y4886960D01*
X11722100Y5156200D02*
G01*
X11722100Y5036820D01*
X11722100Y4775200D02*
G01*
X11722100Y4886960D01*
X2222500Y7886700D02*
G01*
X2222500Y7505700D01*
X4264609Y6475196D02*
G01*
X4264609Y8455177D01*
X4264609Y6475196D02*
G01*
X5844590Y6475196D01*
X4264609Y8455177D02*
G01*
X5844590Y8455177D01*
X5844590Y6475196D02*
G01*
X5844590Y8455177D01*
X6271209Y6475196D02*
G01*
X6271209Y8455177D01*
X6271209Y6475196D02*
G01*
X7851190Y6475196D01*
X6271209Y8455177D02*
G01*
X7851190Y8455177D01*
X7851190Y6475196D02*
G01*
X7851190Y8455177D01*
X8315909Y6475196D02*
G01*
X8315909Y8455177D01*
X8315909Y6475196D02*
G01*
X9895890Y6475196D01*
X8315909Y8455177D02*
G01*
X9895890Y8455177D01*
X9895890Y6475196D02*
G01*
X9895890Y8455177D01*
X10360609Y6487896D02*
G01*
X10360609Y8467877D01*
X10360609Y6487896D02*
G01*
X11940590Y6487896D01*
X10360609Y8467877D02*
G01*
X11940590Y8467877D01*
X11940590Y6487896D02*
G01*
X11940590Y8467877D01*
X5844590Y4459503D02*
G01*
X5844590Y2479522D01*
X5844590Y4459503D02*
G01*
X4264609Y4459503D01*
X5844590Y2479522D02*
G01*
X4264609Y2479522D01*
X4264609Y4459503D02*
G01*
X4264609Y2479522D01*
X7889290Y4446803D02*
G01*
X7889290Y2466822D01*
X7889290Y4446803D02*
G01*
X6309309Y4446803D01*
X7889290Y2466822D02*
G01*
X6309309Y2466822D01*
X6309309Y4446803D02*
G01*
X6309309Y2466822D01*
X9908590Y4434103D02*
G01*
X9908590Y2454122D01*
X9908590Y4434103D02*
G01*
X8328609Y4434103D01*
X9908590Y2454122D02*
G01*
X8328609Y2454122D01*
X8328609Y4434103D02*
G01*
X8328609Y2454122D01*
X11940590Y4421403D02*
G01*
X11940590Y2441422D01*
X11940590Y4421403D02*
G01*
X10360609Y4421403D01*
X11940590Y2441422D02*
G01*
X10360609Y2441422D01*
X10360609Y4421403D02*
G01*
X10360609Y2441422D01*
X782320Y4641824D02*
G01*
X782320Y6941820D01*
X901700Y4718177D02*
G01*
X901700Y6868160D01*
X1558696Y6868160D01*
X781481Y4640579D02*
G01*
X1681479Y4640579D01*
X1681479Y6940575D01*
X784021Y6941820D02*
G01*
X1684020Y6941820D01*
X901700Y4716779D02*
G01*
X1558696Y4716779D01*
X1678939Y6050279D02*
G01*
X1673860Y6045200D01*
X1498600Y6045200D01*
X1498600Y5537200D01*
X1676400Y5537200D01*
X1678939Y5539739D01*
X1559560Y4721860D02*
G01*
X1559560Y5537200D01*
X1562100Y6868160D02*
G01*
X1562100Y6045200D01*
X1554479Y4826000D02*
G01*
X1490979Y4889500D01*
X1559560Y4958079D01*
X1557020Y4950460D01*
D10*
X5456605Y8664295D02*
G01*
X4756607Y8664295D01*
X4756607Y9284309D01*
X4756607Y9364294D01*
X5456605Y9364294D01*
X5456605Y9284309D01*
X5456605Y8664295D01*
X4756607Y9284309D02*
G01*
X5456605Y9284309D01*
X7475905Y8689695D02*
G01*
X6775907Y8689695D01*
X6775907Y9309709D01*
X6775907Y9389694D01*
X7475905Y9389694D01*
X7475905Y9309709D01*
X7475905Y8689695D01*
X6775907Y9309709D02*
G01*
X7475905Y9309709D01*
X9469805Y8676995D02*
G01*
X8769807Y8676995D01*
X8769807Y9297009D01*
X8769807Y9376994D01*
X9469805Y9376994D01*
X9469805Y9297009D01*
X9469805Y8676995D01*
X8769807Y9297009D02*
G01*
X9469805Y9297009D01*
X11527205Y8689695D02*
G01*
X10827207Y8689695D01*
X10827207Y9309709D01*
X10827207Y9389694D01*
X11527205Y9389694D01*
X11527205Y9309709D01*
X11527205Y8689695D01*
X10827207Y9309709D02*
G01*
X11527205Y9309709D01*
X4728794Y2257704D02*
G01*
X5428792Y2257704D01*
X5428792Y1637690D01*
X5428792Y1557705D01*
X4728794Y1557705D01*
X4728794Y1637690D01*
X4728794Y2257704D01*
X5428792Y1637690D02*
G01*
X4728794Y1637690D01*
X6773494Y2245004D02*
G01*
X7473492Y2245004D01*
X7473492Y1624990D01*
X7473492Y1545005D01*
X6773494Y1545005D01*
X6773494Y1624990D01*
X6773494Y2245004D01*
X7473492Y1624990D02*
G01*
X6773494Y1624990D01*
X8792794Y2245004D02*
G01*
X9492792Y2245004D01*
X9492792Y1624990D01*
X9492792Y1545005D01*
X8792794Y1545005D01*
X8792794Y1624990D01*
X8792794Y2245004D01*
X9492792Y1624990D02*
G01*
X8792794Y1624990D01*
X10812094Y2219604D02*
G01*
X11512092Y2219604D01*
X11512092Y1599590D01*
X11512092Y1519605D01*
X10812094Y1519605D01*
X10812094Y1599590D01*
X10812094Y2219604D01*
X11512092Y1599590D02*
G01*
X10812094Y1599590D01*
D13*
X2260600Y5130800D02*
G01*
X4038600Y5130800D01*
X4038600Y6146800D02*
G01*
X2260600Y6146800D01*
X2260600Y5130800D02*
G01*
X2260600Y5384800D01*
X4038600Y5130800D02*
G01*
X4038600Y5384800D01*
X4038600Y6146800D02*
G01*
X4038600Y5892800D01*
X4038600Y5384800D02*
G01*
X2260600Y5384800D01*
X4038600Y5384800D02*
G01*
X4038600Y5537200D01*
X2260600Y5384800D02*
G01*
X2260600Y5892800D01*
X4038600Y5892800D02*
G01*
X2260600Y5892800D01*
X4038600Y5892800D02*
G01*
X4038600Y5740400D01*
X2260600Y5892800D02*
G01*
X2260600Y6146800D01*
D12*
G75*
G01*
X2924200Y3079699D02*
G03*
X2959608Y3097936I-92094J222292D01*
G75*
G01*
X3036164Y3174492D02*
G03*
X3066567Y3247873I-204039J127528D01*
G75*
G01*
X3066567Y3356127D02*
G03*
X3036164Y3429508I-234442J-54147D01*
G75*
G01*
X2959608Y3506064D02*
G03*
X2886227Y3536467I-127528J-204039D01*
G75*
G01*
X2777973Y3536467D02*
G03*
X2704592Y3506064I54147J-234442D01*
G75*
G01*
X2628036Y3429508D02*
G03*
X2597633Y3356127I204039J-127528D01*
G75*
G01*
X2597633Y3247873D02*
G03*
X2628036Y3174492I234442J54147D01*
G75*
G01*
X2704592Y3097936D02*
G03*
X2740000Y3079699I127502J204055D01*
G75*
G01*
X2790241Y3200959D02*
G02*
X2722728Y3302000I41859J101045D01*
G75*
G01*
X2722728Y3302000D02*
G02*
X2873959Y3200959I109372J4D01*
D13*
G75*
G01*
X4965690Y6108690D02*
G03*
X4965690Y5727710I-187046J-190490D01*
G75*
G01*
X6984990Y6121390D02*
G03*
X6984990Y5740410I-187046J-190490D01*
G75*
G01*
X9016990Y6121390D02*
G03*
X9016990Y5740410I-187046J-190490D01*
G75*
G01*
X11048990Y6121390D02*
G03*
X11048990Y5740410I-187046J-190490D01*
G75*
G01*
X5575290Y5156190D02*
G03*
X5575290Y4775210I-187046J-190490D01*
G75*
G01*
X7619990Y5156190D02*
G03*
X7619990Y4775210I-187046J-190490D01*
G75*
G01*
X9677390Y5156190D02*
G03*
X9677390Y4775210I-187046J-190490D01*
G75*
G01*
X11722090Y5156190D02*
G03*
X11722090Y4775210I-187046J-190490D01*
G75*
G01*
X2222500Y7886700D02*
G02*
X2222500Y7505700I254000J-190500D01*
G75*
G01*
X4038597Y5537200D02*
G02*
X4038597Y5740400I0J101600D01*
G75*
G01
X2730500Y7696200D02*
G03X2730500Y7696200I-254000J0D01*
M02*
