G04 Layer: BottomLayer*
G04 EasyEDA v6.5.8, 2022-08-15 07:29:34*
G04 028e3914a6f949ed9ca799ef75e4ed4f,10*
G04 Gerber Generator version 0.2*
G04 Scale: 100 percent, Rotated: No, Reflected: No *
G04 Dimensions in millimeters *
G04 leading zeros omitted , absolute positions ,4 integer and 5 decimal *
%FSLAX45Y45*%
%MOMM*%

%ADD10C,0.6096*%
%ADD11C,0.4060*%
%ADD12C,0.6100*%
%ADD13C,1.2192*%
%ADD14C,1.6510*%
%ADD15C,1.8000*%
%ADD16R,1.8000X1.8000*%
%ADD17C,2.5000*%
%ADD18R,1.6510X1.6510*%
%ADD19C,1.7780*%
%ADD20R,2.0320X2.0320*%
%ADD21C,2.0320*%
%ADD22R,1.6002X1.6002*%
%ADD23C,1.6002*%
%ADD24C,0.6200*%
%ADD25C,0.0159*%

%LPD*%
D10*
X2349500Y7696200D02*
G01*
X825500Y7696200D01*
X825500Y5283200D01*
X1104900Y5283200D01*
D11*
X5346700Y7658100D02*
G01*
X4572000Y7658100D01*
X8518652Y4094098D02*
G01*
X8102600Y4094098D01*
X8102600Y7658100D01*
X7366000Y7658100D01*
X8953500Y5930900D02*
G01*
X8953500Y5372100D01*
X4572000Y3314700D02*
G01*
X1435100Y3314700D01*
X1231900Y3517900D01*
X1231900Y5664200D01*
X1104900Y5791200D01*
X6499352Y4106798D02*
G01*
X6499352Y3314700D01*
X5681979Y3314700D01*
X5681979Y3314700D02*
G01*
X5651500Y3314700D01*
X5654547Y4119498D02*
G01*
X5654547Y5257800D01*
X4724400Y7340600D02*
G01*
X6743700Y7340600D01*
X6743700Y6324600D01*
X6921500Y6324600D01*
X6921500Y5930900D01*
X1358900Y5791200D02*
G01*
X1968500Y5791200D01*
X1968500Y7340600D01*
X3568700Y7340600D01*
X8724900Y3517900D02*
G01*
X10553700Y3517900D01*
X10553700Y4078351D01*
X10550652Y4081398D01*
X4051300Y4343400D02*
G01*
X4051300Y5054600D01*
X4927600Y5054600D01*
X4927600Y5892800D01*
X4902200Y5918200D01*
D12*
X4454652Y6815201D02*
G01*
X4454652Y5257800D01*
X3911600Y5257800D01*
X9718547Y4094098D02*
G01*
X9718547Y3721100D01*
X7708900Y3721100D01*
X7708900Y4097146D01*
X7699247Y4106798D01*
D10*
X11750547Y6827901D02*
G01*
X11750547Y5918200D01*
X10998200Y5918200D01*
X10985500Y5930900D01*
X9705847Y6815201D02*
G01*
X9705847Y5918200D01*
X8966200Y5918200D01*
X8953500Y5930900D01*
X7661147Y6815201D02*
G01*
X7661147Y5918200D01*
X6934200Y5918200D01*
X6921500Y5930900D01*
X5654547Y6815201D02*
G01*
X5654547Y5905500D01*
X4914900Y5905500D01*
X4902200Y5918200D01*
X10550652Y4081398D02*
G01*
X10550652Y4572000D01*
X11658600Y4572000D01*
X11658600Y4965700D01*
X8518652Y4094098D02*
G01*
X8518652Y4572000D01*
X9613900Y4572000D01*
X9613900Y4965700D01*
X6499352Y4106798D02*
G01*
X6499352Y4584700D01*
X7569200Y4584700D01*
X7569200Y4953000D01*
X7556500Y4965700D01*
X4454652Y4119498D02*
G01*
X4454652Y4597400D01*
X5524500Y4597400D01*
X5524500Y4953000D01*
X5511800Y4965700D01*
X2603500Y7696200D02*
G01*
X3924300Y7696200D01*
X3911600Y7683500D01*
X3911600Y6019800D01*
D13*
X11150600Y6628003D02*
G01*
X11150600Y7899400D01*
X11010900Y8039100D01*
X11010900Y9020987D01*
X11002187Y9029700D01*
X7061200Y6615303D02*
G01*
X7061200Y7962900D01*
X6959600Y8064500D01*
X6959600Y9020987D01*
X6950887Y9029700D01*
X11150600Y4281296D02*
G01*
X11150600Y3213100D01*
X11341100Y3022600D01*
X11341100Y1883587D01*
X11337112Y1879600D01*
X10550652Y2881503D02*
G01*
X10998200Y2881503D01*
X10987100Y2870403D01*
X10987100Y1879600D01*
X8518652Y2894329D02*
G01*
X8967724Y2892552D01*
X8967724Y1905000D01*
X7099300Y4306696D02*
G01*
X7099300Y3263900D01*
X7302500Y3060700D01*
X7302500Y1908987D01*
X7298512Y1905000D01*
X6499352Y2907029D02*
G01*
X6948424Y2905252D01*
X6948424Y1905000D01*
X5054600Y4319396D02*
G01*
X5054600Y3314700D01*
X5270500Y3098800D01*
X5270500Y1934387D01*
X5253812Y1917700D01*
X4454652Y2919603D02*
G01*
X4914900Y2919603D01*
X4903800Y2908503D01*
X4903800Y1917700D01*
X11750547Y8027670D02*
G01*
X11352275Y8029447D01*
X11352275Y9029700D01*
X9705847Y8015096D02*
G01*
X9309100Y8015096D01*
X9294799Y8029397D01*
X9294799Y9017000D01*
X7661147Y8015096D02*
G01*
X7315200Y8015096D01*
X7300899Y8029397D01*
X7300899Y9029700D01*
X5654547Y8014970D02*
G01*
X5281675Y8016747D01*
X5281675Y9004300D01*
D10*
X8505952Y6815201D02*
G01*
X8505952Y7112000D01*
X10566400Y7112000D01*
X10566400Y6843648D01*
X10550652Y6827901D01*
X1358900Y5283200D02*
G01*
X1968500Y4673600D01*
X3924300Y4673600D01*
X3924300Y5245100D01*
X3911600Y5257800D01*
X4454652Y6815201D02*
G01*
X4454652Y7137400D01*
X6464300Y7137400D01*
X6464300Y6818248D01*
X6461252Y6815201D01*
G36*
X4565650Y6000750D02*
G01*
X4730750Y6000750D01*
X4730750Y5835650D01*
X4565650Y5835650D01*
G37*
D14*
G01*
X4902200Y5918200D03*
G36*
X6584950Y6013450D02*
G01*
X6750050Y6013450D01*
X6750050Y5848350D01*
X6584950Y5848350D01*
G37*
G01*
X6921500Y5930900D03*
G36*
X8616950Y6013450D02*
G01*
X8782050Y6013450D01*
X8782050Y5848350D01*
X8616950Y5848350D01*
G37*
G01*
X8953500Y5930900D03*
G36*
X10648950Y6013450D02*
G01*
X10814050Y6013450D01*
X10814050Y5848350D01*
X10648950Y5848350D01*
G37*
G01*
X10985500Y5930900D03*
G36*
X5175250Y5048250D02*
G01*
X5340350Y5048250D01*
X5340350Y4883150D01*
X5175250Y4883150D01*
G37*
G01*
X5511800Y4965700D03*
G36*
X7219950Y5048250D02*
G01*
X7385050Y5048250D01*
X7385050Y4883150D01*
X7219950Y4883150D01*
G37*
G01*
X7556500Y4965700D03*
G36*
X9277350Y5048250D02*
G01*
X9442450Y5048250D01*
X9442450Y4883150D01*
X9277350Y4883150D01*
G37*
G01*
X9613900Y4965700D03*
G36*
X11322050Y5048250D02*
G01*
X11487150Y5048250D01*
X11487150Y4883150D01*
X11322050Y4883150D01*
G37*
G01*
X11658600Y4965700D03*
D15*
G01*
X2603500Y7696200D03*
D16*
G01*
X2349500Y7696200D03*
D17*
G01*
X5054600Y6615303D03*
G01*
X5654547Y6815201D03*
G01*
X4454652Y6815201D03*
G01*
X4454652Y8015096D03*
G01*
X5654547Y8015096D03*
G01*
X7061200Y6615303D03*
G01*
X7661147Y6815201D03*
G01*
X6461252Y6815201D03*
G01*
X6461252Y8015096D03*
G01*
X7661147Y8015096D03*
G01*
X9105900Y6615303D03*
G01*
X9705847Y6815201D03*
G01*
X8505952Y6815201D03*
G01*
X8505952Y8015096D03*
G01*
X9705847Y8015096D03*
G01*
X11150600Y6628003D03*
G01*
X11750547Y6827901D03*
G01*
X10550652Y6827901D03*
G01*
X10550652Y8027796D03*
G01*
X11750547Y8027796D03*
G01*
X5054600Y4319396D03*
G01*
X4454652Y4119498D03*
G01*
X5654547Y4119498D03*
G01*
X5654547Y2919603D03*
G01*
X4454652Y2919603D03*
G01*
X7099300Y4306696D03*
G01*
X6499352Y4106798D03*
G01*
X7699247Y4106798D03*
G01*
X7699247Y2906903D03*
G01*
X6499352Y2906903D03*
G01*
X9118600Y4293996D03*
G01*
X8518652Y4094098D03*
G01*
X9718547Y4094098D03*
G01*
X9718547Y2894203D03*
G01*
X8518652Y2894203D03*
G01*
X11150600Y4281296D03*
G01*
X10550652Y4081398D03*
G01*
X11750547Y4081398D03*
G01*
X11750547Y2881503D03*
G01*
X10550652Y2881503D03*
D18*
G01*
X1358900Y5283200D03*
D19*
G01*
X1104900Y5283200D03*
G01*
X1358900Y5537200D03*
G01*
X1104900Y5537200D03*
G01*
X1358900Y5791200D03*
G01*
X1104900Y5791200D03*
G01*
X1358900Y6045200D03*
G01*
X1104900Y6045200D03*
G01*
X1358900Y6299200D03*
G01*
X1104900Y6299200D03*
D20*
G01*
X5281599Y9004300D03*
D21*
G01*
X4931587Y9004300D03*
D20*
G01*
X7300899Y9029700D03*
D21*
G01*
X6950887Y9029700D03*
D20*
G01*
X9294799Y9017000D03*
D21*
G01*
X8944787Y9017000D03*
D20*
G01*
X11352199Y9029700D03*
D21*
G01*
X11002187Y9029700D03*
G36*
X4802200Y2019300D02*
G01*
X5005400Y2019300D01*
X5005400Y1816100D01*
X4802200Y1816100D01*
G37*
G01*
X5253812Y1917700D03*
G36*
X6846900Y2006600D02*
G01*
X7050100Y2006600D01*
X7050100Y1803400D01*
X6846900Y1803400D01*
G37*
G01*
X7298512Y1905000D03*
G36*
X8866200Y2006600D02*
G01*
X9069400Y2006600D01*
X9069400Y1803400D01*
X8866200Y1803400D01*
G37*
G01*
X9317812Y1905000D03*
G36*
X10885500Y1981200D02*
G01*
X11088700Y1981200D01*
X11088700Y1778000D01*
X10885500Y1778000D01*
G37*
G01*
X11337112Y1879600D03*
D22*
G01*
X3911600Y6019800D03*
D23*
G01*
X3657600Y6019800D03*
G01*
X2895600Y6019800D03*
G01*
X2641600Y6019800D03*
G01*
X3403600Y6019800D03*
G01*
X3149600Y6019800D03*
G01*
X2387600Y6019800D03*
G01*
X2387600Y5257800D03*
G01*
X2641600Y5257800D03*
G01*
X2895600Y5257800D03*
G01*
X3149600Y5257800D03*
G01*
X3403600Y5257800D03*
G01*
X3657600Y5257800D03*
G01*
X3911600Y5257800D03*
D24*
G01*
X4051300Y4343400D03*
G01*
X8724900Y3517900D03*
G01*
X3568700Y7340600D03*
G01*
X3568700Y7340600D03*
G01*
X3568700Y7340600D03*
G01*
X4724400Y7340600D03*
G01*
X5654547Y5257800D03*
G01*
X5681979Y3314700D03*
G01*
X4572000Y3314700D03*
G01*
X8953500Y5372100D03*
G01*
X7366000Y7658100D03*
G01*
X5346700Y7658100D03*
G01*
X4572000Y7658100D03*
M02*
