; NON-PLATED HOLES START AT T1
; THROUGH (PLATED) HOLES START AT T100
M48
INCH
T1C0.125984
T100C0.031497
T101C0.040000
T102C0.051181
T103C0.015748
T104C0.035000
%
T1
X039613Y001420
X001613Y001420
X039613Y028420
X001613Y028420
T100
X036613Y017436
X036613Y011420
X036613Y018420
X029613Y017436
X029613Y011420
X001613Y019436
X022613Y017436
X022613Y011420
X015613Y012404
X029613Y018420
X022613Y018420
X036613Y012404
X015613Y017436
X015613Y011420
X001613Y020420
X029613Y012404
X015613Y018420
X022613Y012404
T101
X001613Y013420
X032991Y027420
X027613Y002420
X033235Y002420
X025991Y027420
X002613Y015420
X001613Y015420
X002613Y012420
X026235Y002420
X001613Y012420
X018991Y027420
X017613Y027420
X019235Y002420
X020613Y002420
X034613Y002420
X002613Y014420
X013613Y002420
X001613Y014420
X011991Y027420
X002613Y011420
X031613Y027420
X001613Y011420
X010613Y027420
X012235Y002420
X024613Y027420
X002613Y013420
T102
X013613Y006270
X020613Y010420
X010613Y005420
X031613Y019420
X027613Y010420
X017613Y005420
X034613Y019420
X024613Y010420
X031613Y025420
X020613Y006270
X013613Y024420
X034613Y004420
X027613Y006270
X010613Y023570
X031613Y010420
X017613Y023570
X034613Y010420
X024613Y005420
X020613Y024420
X010613Y019420
X027613Y024420
X017613Y019420
X013613Y019420
X010613Y025420
X034613Y006270
X031613Y005420
X017613Y025420
X024613Y023570
X013613Y004420
X020613Y019420
X010613Y010420
X027613Y019420
X017613Y010420
X013613Y010420
X034613Y024420
X024613Y019420
X031613Y023570
X020613Y004420
X027613Y004420
X024613Y025420
T103
X007613Y008420
X008612Y009434
X018613Y012420
X011613Y012420
X025613Y014420
X014613Y007420
X006600Y017425
X013613Y009420
X012613Y013420
X014613Y013420
X008612Y023409
T104
X015613Y009420
X029613Y020420
X022613Y020420
X004613Y020420
X015613Y024420
X036613Y009420
X015613Y005420
X029613Y009420
X036613Y024420
X015613Y020420
X022613Y009420
X036613Y005420
X029613Y024420
X008613Y020420
X022613Y024420
X029613Y005420
X036613Y020420
X022613Y005420
T00
M30
