G04 MADE WITH FRITZING*
G04 WWW.FRITZING.ORG*
G04 DOUBLE SIDED*
G04 HOLES PLATED*
G04 CONTOUR ON CENTER OF CONTOUR VECTOR*
%ASAXBY*%
%FSLAX23Y23*%
%MOIN*%
%OFA0B0*%
%SFA1.0B1.0*%
%ADD10C,0.090000*%
%ADD11C,0.072992*%
%ADD12C,0.085000*%
%ADD13C,0.049370*%
%ADD14C,0.084000*%
%ADD15C,0.100000*%
%ADD16C,0.135984*%
%ADD17R,0.090000X0.090000*%
%ADD18R,0.072992X0.072992*%
%ADD19R,0.084000X0.084000*%
%LNMASK1*%
G90*
G70*
G54D10*
X3161Y2742D03*
X3299Y2742D03*
X2461Y2742D03*
X2599Y2742D03*
X1761Y2742D03*
X1899Y2742D03*
X1061Y2742D03*
X1199Y2742D03*
G54D11*
X1561Y1744D03*
X1561Y1842D03*
X2261Y1744D03*
X2261Y1842D03*
X2961Y1744D03*
X2961Y1842D03*
X3661Y1744D03*
X3661Y1842D03*
X1561Y1240D03*
X1561Y1142D03*
X2261Y1240D03*
X2261Y1142D03*
X2961Y1240D03*
X2961Y1142D03*
X3661Y1240D03*
X3661Y1142D03*
G54D12*
X3661Y942D03*
X3661Y542D03*
X2961Y942D03*
X2961Y542D03*
X2261Y942D03*
X2261Y542D03*
X1561Y942D03*
X1561Y542D03*
X3661Y2442D03*
X3661Y2042D03*
X2961Y2442D03*
X2961Y2042D03*
X2261Y2442D03*
X2261Y2042D03*
X1561Y2442D03*
X1561Y2042D03*
G54D10*
X3461Y242D03*
X3324Y242D03*
X2761Y242D03*
X2624Y242D03*
X2061Y242D03*
X1924Y242D03*
X1361Y242D03*
X1224Y242D03*
G54D13*
X861Y2341D03*
X861Y943D03*
G54D12*
X861Y2042D03*
X461Y2042D03*
G54D11*
X161Y1944D03*
X161Y2042D03*
G54D14*
X261Y1542D03*
X261Y1442D03*
X261Y1342D03*
X261Y1242D03*
X261Y1142D03*
X161Y1542D03*
X161Y1442D03*
X161Y1342D03*
X161Y1242D03*
X161Y1142D03*
G54D15*
X1361Y2442D03*
X1061Y1942D03*
X1361Y1942D03*
X1061Y2542D03*
X1061Y2357D03*
X1361Y2442D03*
X1061Y1942D03*
X1361Y1942D03*
X1061Y2542D03*
X1061Y2357D03*
X2061Y2442D03*
X1761Y1942D03*
X2061Y1942D03*
X1761Y2542D03*
X1761Y2357D03*
X2061Y2442D03*
X1761Y1942D03*
X2061Y1942D03*
X1761Y2542D03*
X1761Y2357D03*
X3461Y2442D03*
X3161Y1942D03*
X3461Y1942D03*
X3161Y2542D03*
X3161Y2357D03*
X3461Y2442D03*
X3161Y1942D03*
X3461Y1942D03*
X3161Y2542D03*
X3161Y2357D03*
X1061Y542D03*
X1361Y1042D03*
X1061Y1042D03*
X1361Y442D03*
X1361Y627D03*
X1061Y542D03*
X1361Y1042D03*
X1061Y1042D03*
X1361Y442D03*
X1361Y627D03*
X1761Y542D03*
X2061Y1042D03*
X1761Y1042D03*
X2061Y442D03*
X2061Y627D03*
X1761Y542D03*
X2061Y1042D03*
X1761Y1042D03*
X2061Y442D03*
X2061Y627D03*
X2461Y542D03*
X2761Y1042D03*
X2461Y1042D03*
X2761Y442D03*
X2761Y627D03*
X2461Y542D03*
X2761Y1042D03*
X2461Y1042D03*
X2761Y442D03*
X2761Y627D03*
X3161Y542D03*
X3461Y1042D03*
X3161Y1042D03*
X3461Y442D03*
X3461Y627D03*
X3161Y542D03*
X3461Y1042D03*
X3161Y1042D03*
X3461Y442D03*
X3461Y627D03*
G54D13*
X660Y1743D03*
G54D16*
X3961Y2842D03*
X3961Y142D03*
X161Y2842D03*
X161Y142D03*
G54D15*
X2761Y2442D03*
X2461Y1942D03*
X2761Y1942D03*
X2461Y2542D03*
X2461Y2357D03*
X2761Y2442D03*
X2461Y1942D03*
X2761Y1942D03*
X2461Y2542D03*
X2461Y2357D03*
G54D13*
X1261Y1342D03*
X1461Y1342D03*
X1461Y742D03*
X1161Y1242D03*
X761Y842D03*
X1361Y942D03*
X1861Y1242D03*
X2561Y1442D03*
G54D17*
X3161Y2742D03*
X2461Y2742D03*
X1761Y2742D03*
X1061Y2742D03*
G54D18*
X1561Y1744D03*
X2261Y1744D03*
X2961Y1744D03*
X3661Y1744D03*
X1561Y1240D03*
X2261Y1240D03*
X2961Y1240D03*
X3661Y1240D03*
G54D17*
X3461Y242D03*
X2761Y242D03*
X2061Y242D03*
X1361Y242D03*
G54D18*
X161Y1944D03*
G54D19*
X161Y1542D03*
G04 End of Mask1*
M02*