; NON-PLATED HOLES START AT T1
; THROUGH (PLATED) HOLES START AT T100
M48
INCH
T1C0.125984
T100C0.039370
T101C0.015748
T102C0.040000
T103C0.051181
T104C0.035000
T105C0.031497
%
T1
X041613Y023938
X001613Y001938
X001613Y023938
X041613Y001938
T100
X040613Y009001
X040613Y018844
X040613Y014907
X040613Y010970
X040613Y007033
X040613Y020812
X040613Y016875
X040613Y012938
X040613Y005064
T101
X002613Y008936
X024599Y011940
X008612Y021927
X008612Y007952
X024599Y014940
X006600Y015943
T102
X001613Y012938
X002613Y011938
X001613Y009938
X001613Y013938
X002613Y012938
X002613Y009938
X002613Y013938
X001613Y010938
X001613Y011938
X002613Y010938
T103
X031613Y020788
X025613Y015788
X028613Y015788
X022613Y021788
X022613Y019938
X028613Y021788
X013613Y004088
X019613Y004088
X028613Y019938
X010613Y010088
X016613Y010088
X031613Y015788
X013613Y010088
X019613Y010088
X013613Y005938
X019613Y005938
X019613Y020788
X013613Y020788
X025613Y004088
X022613Y010088
X010613Y005088
X016613Y005088
X025613Y010088
X028613Y010088
X016613Y015788
X010613Y015788
X025613Y005938
X025613Y020788
X031613Y004088
X019613Y015788
X013613Y015788
X016613Y021788
X010613Y021788
X022613Y005088
X016613Y019938
X010613Y019938
X031613Y010088
X028613Y005088
X022613Y015788
X031613Y005938
T104
X008613Y018938
X004613Y018938
T105
X001613Y018938
X001613Y017954
T00
M30
