G04 MADE WITH FRITZING*
G04 WWW.FRITZING.ORG*
G04 DOUBLE SIDED*
G04 HOLES PLATED*
G04 CONTOUR ON CENTER OF CONTOUR VECTOR*
%ASAXBY*%
%FSLAX23Y23*%
%MOIN*%
%OFA0B0*%
%SFA1.0B1.0*%
%ADD10C,0.039370*%
%ADD11C,0.080000*%
%ADD12C,0.062992*%
%ADD13C,0.075000*%
%ADD14C,0.074000*%
%ADD15C,0.090000*%
%ADD16R,0.080000X0.080000*%
%ADD17R,0.062992X0.062992*%
%ADD18R,0.074000X0.074000*%
%ADD19C,0.048000*%
%ADD20C,0.024000*%
%LNCOPPER0*%
G90*
G70*
G54D10*
X1261Y1342D03*
X1461Y1342D03*
X1461Y742D03*
X1161Y1242D03*
X761Y842D03*
X1361Y942D03*
X1861Y1242D03*
X2561Y1442D03*
G54D11*
X3161Y2742D03*
X3299Y2742D03*
X2461Y2742D03*
X2599Y2742D03*
X1761Y2742D03*
X1899Y2742D03*
X1061Y2742D03*
X1199Y2742D03*
G54D12*
X1561Y1744D03*
X1561Y1842D03*
X2261Y1744D03*
X2261Y1842D03*
X2961Y1744D03*
X2961Y1842D03*
X3661Y1744D03*
X3661Y1842D03*
X1561Y1240D03*
X1561Y1142D03*
X2261Y1240D03*
X2261Y1142D03*
X2961Y1240D03*
X2961Y1142D03*
X3661Y1240D03*
X3661Y1142D03*
G54D13*
X3661Y1042D03*
X3661Y642D03*
X2961Y1042D03*
X2961Y642D03*
X2261Y1042D03*
X2261Y642D03*
X1561Y1042D03*
X1561Y642D03*
X3661Y2342D03*
X3661Y1942D03*
X2961Y2342D03*
X2961Y1942D03*
X2261Y2342D03*
X2261Y1942D03*
X1561Y2342D03*
X1561Y1942D03*
G54D11*
X3461Y242D03*
X3324Y242D03*
X2761Y242D03*
X2624Y242D03*
X2061Y242D03*
X1924Y242D03*
X1361Y242D03*
X1224Y242D03*
G54D10*
X861Y2341D03*
X861Y943D03*
G54D13*
X861Y2042D03*
X461Y2042D03*
G54D12*
X161Y1944D03*
X161Y2042D03*
G54D14*
X261Y1542D03*
X261Y1442D03*
X261Y1342D03*
X261Y1242D03*
X261Y1142D03*
X161Y1542D03*
X161Y1442D03*
X161Y1342D03*
X161Y1242D03*
X161Y1142D03*
G54D15*
X1361Y2442D03*
X1061Y1942D03*
X1361Y1942D03*
X1061Y2542D03*
X1061Y2357D03*
X2061Y2442D03*
X1761Y1942D03*
X2061Y1942D03*
X1761Y2542D03*
X1761Y2357D03*
X2761Y2442D03*
X2461Y1942D03*
X2761Y1942D03*
X2461Y2542D03*
X2461Y2357D03*
X3461Y2442D03*
X3161Y1942D03*
X3461Y1942D03*
X3161Y2542D03*
X3161Y2357D03*
X1061Y542D03*
X1361Y1042D03*
X1061Y1042D03*
X1361Y442D03*
X1361Y627D03*
X1761Y542D03*
X2061Y1042D03*
X1761Y1042D03*
X2061Y442D03*
X2061Y627D03*
X2461Y542D03*
X2761Y1042D03*
X2461Y1042D03*
X2761Y442D03*
X2761Y627D03*
X3161Y542D03*
X3461Y1042D03*
X3161Y1042D03*
X3461Y442D03*
X3461Y627D03*
G54D10*
X660Y1743D03*
G54D16*
X3161Y2742D03*
X2461Y2742D03*
X1761Y2742D03*
X1061Y2742D03*
G54D17*
X1561Y1744D03*
X2261Y1744D03*
X2961Y1744D03*
X3661Y1744D03*
X1561Y1240D03*
X2261Y1240D03*
X2961Y1240D03*
X3661Y1240D03*
G54D16*
X3461Y242D03*
X2761Y242D03*
X2061Y242D03*
X1361Y242D03*
G54D17*
X161Y1944D03*
G54D18*
X161Y1542D03*
G54D19*
X1061Y2590D02*
X1061Y2700D01*
D02*
X1241Y2742D02*
X1360Y2742D01*
D02*
X1360Y2742D02*
X1361Y2490D01*
D02*
X1761Y2590D02*
X1761Y2700D01*
D02*
X2060Y2742D02*
X2061Y2490D01*
D02*
X1941Y2742D02*
X2060Y2742D01*
D02*
X2461Y2700D02*
X2461Y2590D01*
D02*
X2762Y2490D02*
X2763Y2742D01*
D02*
X2763Y2742D02*
X2641Y2742D01*
D02*
X3161Y2700D02*
X3161Y2590D01*
D02*
X3341Y2742D02*
X3463Y2742D01*
D02*
X3463Y2742D02*
X3462Y2490D01*
D02*
X1361Y284D02*
X1361Y394D01*
D02*
X1061Y240D02*
X1181Y242D01*
D02*
X1061Y494D02*
X1061Y240D01*
D02*
X2061Y284D02*
X2061Y394D01*
D02*
X1761Y494D02*
X1760Y240D01*
D02*
X1760Y240D02*
X1881Y242D01*
D02*
X2761Y394D02*
X2761Y284D01*
D02*
X2461Y494D02*
X2459Y240D01*
D02*
X2459Y240D02*
X2581Y242D01*
D02*
X3163Y240D02*
X3281Y242D01*
D02*
X3162Y494D02*
X3163Y240D01*
D02*
X3461Y284D02*
X3461Y394D01*
D02*
X2763Y2043D02*
X2762Y1990D01*
D02*
X3463Y2043D02*
X2763Y2043D01*
D02*
X3462Y1990D02*
X3463Y2043D01*
G54D20*
D02*
X1761Y1642D02*
X1761Y1905D01*
D02*
X661Y1642D02*
X1761Y1642D01*
D02*
X660Y1724D02*
X661Y1642D01*
D02*
X1361Y1442D02*
X1361Y1079D01*
D02*
X292Y1442D02*
X1361Y1442D01*
D02*
X2061Y1342D02*
X2061Y1079D01*
D02*
X1480Y1342D02*
X2061Y1342D01*
D02*
X292Y1342D02*
X1242Y1342D01*
G54D19*
D02*
X2559Y644D02*
X2301Y642D01*
D02*
X2963Y844D02*
X2559Y844D01*
D02*
X2559Y844D02*
X2559Y644D01*
D02*
X2962Y682D02*
X2963Y844D01*
D02*
X3163Y644D02*
X3001Y642D01*
D02*
X3163Y844D02*
X3163Y644D01*
D02*
X3662Y844D02*
X3163Y844D01*
D02*
X3662Y682D02*
X3662Y844D01*
D02*
X1961Y842D02*
X1787Y1016D01*
D02*
X2261Y842D02*
X1961Y842D01*
D02*
X2435Y1016D02*
X2261Y842D01*
D02*
X1061Y844D02*
X1061Y994D01*
D02*
X1760Y844D02*
X1061Y844D01*
D02*
X1761Y994D02*
X1760Y844D01*
D02*
X2260Y2243D02*
X2261Y2302D01*
D02*
X2963Y2243D02*
X2260Y2243D01*
D02*
X2962Y2302D02*
X2963Y2243D01*
G54D20*
D02*
X1480Y742D02*
X2261Y742D01*
D02*
X2261Y742D02*
X2561Y942D01*
D02*
X2561Y942D02*
X2561Y1242D01*
D02*
X2561Y1242D02*
X2461Y1242D01*
D02*
X2461Y1242D02*
X2461Y1905D01*
G54D19*
D02*
X1360Y2143D02*
X1361Y1990D01*
D02*
X2060Y2143D02*
X1360Y2143D01*
D02*
X2061Y1990D02*
X2060Y2143D01*
G54D20*
D02*
X292Y1242D02*
X1142Y1242D01*
D02*
X3762Y944D02*
X3463Y944D01*
D02*
X3463Y944D02*
X3462Y1005D01*
D02*
X761Y823D02*
X761Y142D01*
D02*
X761Y142D02*
X3761Y142D01*
D02*
X3761Y142D02*
X3762Y944D01*
D02*
X3163Y1743D02*
X3162Y1905D01*
D02*
X1660Y1243D02*
X1842Y1242D01*
D02*
X1660Y944D02*
X1660Y1243D01*
D02*
X1380Y942D02*
X1660Y944D01*
D02*
X2580Y1442D02*
X3163Y1443D01*
D02*
X3163Y1443D02*
X3163Y1743D01*
G54D19*
D02*
X1260Y2041D02*
X1335Y1968D01*
D02*
X890Y2042D02*
X1260Y2041D01*
G54D20*
D02*
X60Y1441D02*
X130Y1442D01*
D02*
X842Y2341D02*
X60Y2341D01*
D02*
X60Y2341D02*
X60Y1441D01*
D02*
X842Y943D02*
X60Y943D01*
D02*
X60Y943D02*
X60Y1141D01*
D02*
X60Y1141D02*
X130Y1142D01*
G54D19*
D02*
X861Y1843D02*
X462Y1843D01*
D02*
X462Y1843D02*
X462Y1543D01*
D02*
X861Y2013D02*
X861Y1843D01*
D02*
X462Y1543D02*
X292Y1542D01*
G54D20*
D02*
X161Y1917D02*
X161Y1573D01*
G54D19*
D02*
X433Y2042D02*
X188Y2042D01*
G04 End of Copper0*
M02*