G04 MADE WITH FRITZING*
G04 WWW.FRITZING.ORG*
G04 DOUBLE SIDED*
G04 HOLES PLATED*
G04 CONTOUR ON CENTER OF CONTOUR VECTOR*
%ASAXBY*%
%FSLAX23Y23*%
%MOIN*%
%OFA0B0*%
%SFA1.0B1.0*%
%ADD10C,0.085000*%
%ADD11C,0.072992*%
%ADD12C,0.084000*%
%ADD13C,0.100000*%
%ADD14C,0.089370*%
%ADD15C,0.049370*%
%ADD16C,0.135984*%
%ADD17R,0.072992X0.072992*%
%ADD18R,0.084000X0.084000*%
%ADD19R,0.089370X0.089370*%
%LNMASK0*%
G90*
G70*
G54D10*
X861Y1894D03*
X461Y1894D03*
G54D11*
X161Y1795D03*
X161Y1894D03*
G54D12*
X261Y1394D03*
X261Y1294D03*
X261Y1194D03*
X261Y1094D03*
X261Y994D03*
X161Y1394D03*
X161Y1294D03*
X161Y1194D03*
X161Y1094D03*
X161Y994D03*
G54D13*
X1361Y2079D03*
X1061Y1579D03*
X1361Y1579D03*
X1061Y2179D03*
X1061Y1994D03*
X1961Y2079D03*
X1661Y1579D03*
X1961Y1579D03*
X1661Y2179D03*
X1661Y1994D03*
X2561Y2079D03*
X2261Y1579D03*
X2561Y1579D03*
X2261Y2179D03*
X2261Y1994D03*
X3161Y2079D03*
X2861Y1579D03*
X3161Y1579D03*
X2861Y2179D03*
X2861Y1994D03*
X1061Y509D03*
X1361Y1009D03*
X1061Y1009D03*
X1361Y409D03*
X1361Y594D03*
X1661Y509D03*
X1961Y1009D03*
X1661Y1009D03*
X1961Y409D03*
X1961Y594D03*
X2261Y509D03*
X2561Y1009D03*
X2261Y1009D03*
X2561Y409D03*
X2561Y594D03*
X2861Y509D03*
X3161Y1009D03*
X2861Y1009D03*
X3161Y409D03*
X3161Y594D03*
G54D14*
X4061Y2081D03*
X4061Y1884D03*
X4061Y1688D03*
X4061Y1491D03*
X4061Y1294D03*
X4061Y1097D03*
X4061Y900D03*
X4061Y703D03*
X4061Y506D03*
G54D15*
X660Y1594D03*
X261Y894D03*
G54D16*
X4161Y2394D03*
X4161Y194D03*
X161Y2394D03*
X161Y194D03*
G54D15*
X861Y2193D03*
X861Y795D03*
X2460Y1194D03*
X2460Y1494D03*
G54D17*
X161Y1795D03*
G54D18*
X161Y1394D03*
G54D19*
X4061Y2081D03*
G04 End of Mask0*
M02*