G04 MADE WITH FRITZING*
G04 WWW.FRITZING.ORG*
G04 DOUBLE SIDED*
G04 HOLES PLATED*
G04 CONTOUR ON CENTER OF CONTOUR VECTOR*
%ASAXBY*%
%FSLAX23Y23*%
%MOIN*%
%OFA0B0*%
%SFA1.0B1.0*%
%ADD10C,0.075000*%
%ADD11C,0.062992*%
%ADD12C,0.074000*%
%ADD13C,0.090000*%
%ADD14C,0.079370*%
%ADD15C,0.039370*%
%ADD16R,0.062992X0.062992*%
%ADD17R,0.074000X0.074000*%
%ADD18R,0.079370X0.079370*%
%ADD19C,0.024000*%
%ADD20C,0.048000*%
%LNCOPPER0*%
G90*
G70*
G54D10*
X861Y1894D03*
X461Y1894D03*
G54D11*
X161Y1795D03*
X161Y1894D03*
G54D12*
X261Y1394D03*
X261Y1294D03*
X261Y1194D03*
X261Y1094D03*
X261Y994D03*
X161Y1394D03*
X161Y1294D03*
X161Y1194D03*
X161Y1094D03*
X161Y994D03*
G54D13*
X1361Y2079D03*
X1061Y1579D03*
X1361Y1579D03*
X1061Y2179D03*
X1061Y1994D03*
X1961Y2079D03*
X1661Y1579D03*
X1961Y1579D03*
X1661Y2179D03*
X1661Y1994D03*
X2561Y2079D03*
X2261Y1579D03*
X2561Y1579D03*
X2261Y2179D03*
X2261Y1994D03*
X3161Y2079D03*
X2861Y1579D03*
X3161Y1579D03*
X2861Y2179D03*
X2861Y1994D03*
X1061Y509D03*
X1361Y1009D03*
X1061Y1009D03*
X1361Y409D03*
X1361Y594D03*
X1661Y509D03*
X1961Y1009D03*
X1661Y1009D03*
X1961Y409D03*
X1961Y594D03*
X2261Y509D03*
X2561Y1009D03*
X2261Y1009D03*
X2561Y409D03*
X2561Y594D03*
X2861Y509D03*
X3161Y1009D03*
X2861Y1009D03*
X3161Y409D03*
X3161Y594D03*
G54D14*
X4061Y2081D03*
X4061Y1884D03*
X4061Y1688D03*
X4061Y1491D03*
X4061Y1294D03*
X4061Y1097D03*
X4061Y900D03*
X4061Y703D03*
X4061Y506D03*
G54D15*
X660Y1594D03*
X261Y894D03*
X861Y2193D03*
X861Y795D03*
X2460Y1194D03*
X2460Y1494D03*
G54D16*
X161Y1795D03*
G54D17*
X161Y1394D03*
G54D18*
X4061Y2081D03*
G54D19*
X161Y1769D02*
X161Y1425D01*
D02*
X433Y1894D02*
X188Y1894D01*
D02*
X660Y1494D02*
X660Y1575D01*
D02*
X1633Y1555D02*
X1560Y1494D01*
D02*
X1560Y1494D02*
X660Y1494D01*
D02*
X1260Y1893D02*
X1350Y1614D01*
D02*
X890Y1894D02*
X1260Y1893D01*
D02*
X1461Y1695D02*
X1385Y1607D01*
D02*
X1860Y1695D02*
X1461Y1695D01*
D02*
X1937Y1607D02*
X1860Y1695D01*
D02*
X2460Y1695D02*
X2537Y1607D01*
D02*
X2061Y1695D02*
X2460Y1695D01*
D02*
X1985Y1607D02*
X2061Y1695D01*
D02*
X2661Y1695D02*
X2585Y1607D01*
D02*
X3060Y1695D02*
X2661Y1695D01*
D02*
X3137Y1607D02*
X3060Y1695D01*
D02*
X2361Y894D02*
X2285Y981D01*
D02*
X2760Y894D02*
X2361Y894D01*
D02*
X2837Y981D02*
X2760Y894D01*
D02*
X2160Y894D02*
X2237Y981D01*
D02*
X1761Y894D02*
X2160Y894D01*
D02*
X1685Y981D02*
X1761Y894D01*
D02*
X1560Y894D02*
X1637Y981D01*
D02*
X1161Y894D02*
X1560Y894D01*
D02*
X1085Y981D02*
X1161Y894D01*
D02*
X2561Y1046D02*
X2562Y1293D01*
D02*
X2562Y1293D02*
X292Y1294D01*
D02*
X1962Y1046D02*
X1962Y1194D01*
D02*
X1962Y1194D02*
X292Y1194D01*
D02*
X1362Y1095D02*
X292Y1094D01*
D02*
X1362Y1046D02*
X1362Y1095D01*
D02*
X3060Y795D02*
X3146Y976D01*
D02*
X960Y795D02*
X3060Y795D01*
D02*
X960Y993D02*
X960Y795D01*
D02*
X292Y994D02*
X960Y993D01*
D02*
X60Y1293D02*
X130Y1294D01*
D02*
X842Y2193D02*
X60Y2193D01*
D02*
X60Y2193D02*
X60Y1293D01*
D02*
X842Y795D02*
X60Y795D01*
D02*
X60Y795D02*
X60Y993D01*
D02*
X60Y993D02*
X130Y994D01*
D02*
X861Y1695D02*
X462Y1695D01*
D02*
X462Y1695D02*
X462Y1395D01*
D02*
X861Y1865D02*
X861Y1695D01*
D02*
X462Y1395D02*
X292Y1394D01*
D02*
X1962Y1494D02*
X2441Y1494D01*
D02*
X1962Y1542D02*
X1962Y1494D01*
G54D20*
D02*
X3360Y1293D02*
X4031Y1294D01*
D02*
X3360Y495D02*
X3360Y1293D01*
D02*
X3195Y424D02*
X3360Y495D01*
D02*
X3360Y2193D02*
X3360Y1494D01*
D02*
X3360Y1494D02*
X4031Y1491D01*
D02*
X2909Y2180D02*
X3360Y2193D01*
D02*
X3462Y1695D02*
X4031Y1688D01*
D02*
X3462Y2295D02*
X3462Y1695D01*
D02*
X2460Y2295D02*
X3462Y2295D01*
D02*
X2303Y2203D02*
X2460Y2295D01*
D02*
X3561Y1893D02*
X4031Y1885D01*
D02*
X3561Y2394D02*
X3561Y1893D01*
D02*
X1691Y2200D02*
X1962Y2394D01*
D02*
X1962Y2394D02*
X3561Y2394D01*
D02*
X3660Y2493D02*
X3660Y2094D01*
D02*
X3660Y2094D02*
X4031Y2082D01*
D02*
X1461Y2493D02*
X3660Y2493D01*
D02*
X1099Y2208D02*
X1461Y2493D01*
D02*
X3462Y1095D02*
X4031Y1097D01*
D02*
X3462Y294D02*
X3462Y1095D01*
D02*
X2661Y294D02*
X3462Y294D01*
D02*
X2585Y381D02*
X2661Y294D01*
D02*
X2160Y195D02*
X1986Y382D01*
D02*
X3561Y894D02*
X3561Y195D01*
D02*
X4031Y900D02*
X3561Y894D01*
D02*
X3561Y195D02*
X2160Y195D01*
D02*
X1662Y93D02*
X1394Y374D01*
D02*
X3660Y93D02*
X1662Y93D01*
D02*
X4031Y703D02*
X3660Y693D01*
D02*
X3660Y693D02*
X3660Y93D01*
G04 End of Copper0*
M02*