G04 MADE WITH FRITZING*
G04 WWW.FRITZING.ORG*
G04 DOUBLE SIDED*
G04 HOLES PLATED*
G04 CONTOUR ON CENTER OF CONTOUR VECTOR*
%ASAXBY*%
%FSLAX23Y23*%
%MOIN*%
%OFA0B0*%
%SFA1.0B1.0*%
%ADD10C,0.080000*%
%ADD11C,0.062992*%
%ADD12C,0.075000*%
%ADD13C,0.039370*%
%ADD14C,0.074000*%
%ADD15C,0.090000*%
%ADD16R,0.080000X0.080000*%
%ADD17R,0.062992X0.062992*%
%ADD18R,0.074000X0.074000*%
%ADD19C,0.024000*%
%LNCOPPER1*%
G90*
G70*
G54D10*
X3161Y2742D03*
X3299Y2742D03*
X2461Y2742D03*
X2599Y2742D03*
X1761Y2742D03*
X1899Y2742D03*
X1061Y2742D03*
X1199Y2742D03*
G54D11*
X1561Y1744D03*
X1561Y1842D03*
X2261Y1744D03*
X2261Y1842D03*
X2961Y1744D03*
X2961Y1842D03*
X3661Y1744D03*
X3661Y1842D03*
X1561Y1240D03*
X1561Y1142D03*
X2261Y1240D03*
X2261Y1142D03*
X2961Y1240D03*
X2961Y1142D03*
X3661Y1240D03*
X3661Y1142D03*
G54D12*
X3661Y942D03*
X3661Y542D03*
X2961Y942D03*
X2961Y542D03*
X2261Y942D03*
X2261Y542D03*
X1561Y942D03*
X1561Y542D03*
X3661Y2442D03*
X3661Y2042D03*
X2961Y2442D03*
X2961Y2042D03*
X2261Y2442D03*
X2261Y2042D03*
X1561Y2442D03*
X1561Y2042D03*
G54D10*
X3461Y242D03*
X3324Y242D03*
X2761Y242D03*
X2624Y242D03*
X2061Y242D03*
X1924Y242D03*
X1361Y242D03*
X1224Y242D03*
G54D13*
X861Y2341D03*
X861Y943D03*
G54D12*
X861Y2042D03*
X461Y2042D03*
G54D11*
X161Y1944D03*
X161Y2042D03*
G54D14*
X261Y1542D03*
X261Y1442D03*
X261Y1342D03*
X261Y1242D03*
X261Y1142D03*
X161Y1542D03*
X161Y1442D03*
X161Y1342D03*
X161Y1242D03*
X161Y1142D03*
G54D15*
X1361Y2442D03*
X1061Y1942D03*
X1361Y1942D03*
X1061Y2542D03*
X1061Y2357D03*
X1361Y2442D03*
X1061Y1942D03*
X1361Y1942D03*
X1061Y2542D03*
X1061Y2357D03*
X2061Y2442D03*
X1761Y1942D03*
X2061Y1942D03*
X1761Y2542D03*
X1761Y2357D03*
X2061Y2442D03*
X1761Y1942D03*
X2061Y1942D03*
X1761Y2542D03*
X1761Y2357D03*
X3461Y2442D03*
X3161Y1942D03*
X3461Y1942D03*
X3161Y2542D03*
X3161Y2357D03*
X3461Y2442D03*
X3161Y1942D03*
X3461Y1942D03*
X3161Y2542D03*
X3161Y2357D03*
X1061Y542D03*
X1361Y1042D03*
X1061Y1042D03*
X1361Y442D03*
X1361Y627D03*
X1061Y542D03*
X1361Y1042D03*
X1061Y1042D03*
X1361Y442D03*
X1361Y627D03*
X1761Y542D03*
X2061Y1042D03*
X1761Y1042D03*
X2061Y442D03*
X2061Y627D03*
X1761Y542D03*
X2061Y1042D03*
X1761Y1042D03*
X2061Y442D03*
X2061Y627D03*
X2461Y542D03*
X2761Y1042D03*
X2461Y1042D03*
X2761Y442D03*
X2761Y627D03*
X2461Y542D03*
X2761Y1042D03*
X2461Y1042D03*
X2761Y442D03*
X2761Y627D03*
X3161Y542D03*
X3461Y1042D03*
X3161Y1042D03*
X3461Y442D03*
X3461Y627D03*
X3161Y542D03*
X3461Y1042D03*
X3161Y1042D03*
X3461Y442D03*
X3461Y627D03*
G54D13*
X660Y1743D03*
G54D15*
X2761Y2442D03*
X2461Y1942D03*
X2761Y1942D03*
X2461Y2542D03*
X2461Y2357D03*
X2761Y2442D03*
X2461Y1942D03*
X2761Y1942D03*
X2461Y2542D03*
X2461Y2357D03*
G54D13*
X1261Y1342D03*
X1461Y1342D03*
X1461Y742D03*
X1161Y1242D03*
X761Y842D03*
X1361Y942D03*
X1861Y1242D03*
X2561Y1442D03*
G54D16*
X3161Y2742D03*
X2461Y2742D03*
X1761Y2742D03*
X1061Y2742D03*
G54D17*
X1561Y1744D03*
X2261Y1744D03*
X2961Y1744D03*
X3661Y1744D03*
X1561Y1240D03*
X2261Y1240D03*
X2961Y1240D03*
X3661Y1240D03*
G54D16*
X3461Y242D03*
X2761Y242D03*
X2061Y242D03*
X1361Y242D03*
G54D17*
X161Y1944D03*
G54D18*
X161Y1542D03*
G54D19*
X1045Y1975D02*
X870Y2324D01*
D02*
X641Y1743D02*
X60Y1743D01*
D02*
X60Y1743D02*
X60Y1441D01*
D02*
X60Y1441D02*
X139Y1364D01*
D02*
X3634Y1744D02*
X3161Y1742D01*
D02*
X3161Y1742D02*
X3161Y1905D01*
D02*
X3661Y1869D02*
X3661Y2013D01*
D02*
X3461Y2242D02*
X3641Y2422D01*
D02*
X3461Y1979D02*
X3461Y2242D01*
D02*
X2961Y1869D02*
X2961Y2013D01*
D02*
X2941Y2422D02*
X2761Y2242D01*
D02*
X2761Y2242D02*
X2761Y1979D01*
D02*
X2061Y2242D02*
X2241Y2422D01*
D02*
X2061Y1979D02*
X2061Y2242D01*
D02*
X1361Y2242D02*
X1361Y1979D01*
D02*
X1541Y2422D02*
X1361Y2242D01*
D02*
X2934Y1744D02*
X2461Y1742D01*
D02*
X2461Y1742D02*
X2461Y1905D01*
D02*
X2261Y1869D02*
X2261Y2013D01*
D02*
X2234Y1744D02*
X1761Y1742D01*
D02*
X1761Y1742D02*
X1761Y1905D01*
D02*
X1561Y1869D02*
X1561Y2013D01*
D02*
X1534Y1744D02*
X1061Y1742D01*
D02*
X1061Y1742D02*
X1061Y1905D01*
D02*
X3661Y1115D02*
X3661Y971D01*
D02*
X3634Y1241D02*
X3461Y1242D01*
D02*
X3461Y1242D02*
X3461Y1079D01*
D02*
X2934Y1241D02*
X2761Y1242D01*
D02*
X2761Y1242D02*
X2761Y1079D01*
D02*
X2961Y1115D02*
X2961Y971D01*
D02*
X3161Y742D02*
X2982Y562D01*
D02*
X3161Y1005D02*
X3161Y742D01*
D02*
X2282Y562D02*
X2461Y742D01*
D02*
X2461Y742D02*
X2461Y1005D01*
D02*
X2261Y1115D02*
X2261Y971D01*
D02*
X2234Y1241D02*
X2061Y1242D01*
D02*
X2061Y1242D02*
X2061Y1079D01*
D02*
X1582Y562D02*
X1761Y742D01*
D02*
X1761Y742D02*
X1761Y1005D01*
D02*
X1561Y1115D02*
X1561Y971D01*
D02*
X1061Y1542D02*
X1061Y1079D01*
D02*
X292Y1542D02*
X1061Y1542D01*
D02*
X1280Y1342D02*
X1442Y1342D01*
D02*
X61Y742D02*
X1442Y742D01*
D02*
X61Y1142D02*
X61Y742D01*
D02*
X139Y1220D02*
X61Y1142D01*
D02*
X1161Y1542D02*
X2661Y1542D01*
D02*
X2661Y1542D02*
X2661Y1042D01*
D02*
X1161Y1261D02*
X1161Y1542D01*
D02*
X2661Y1042D02*
X2725Y1042D01*
D02*
X1361Y1242D02*
X1534Y1241D01*
D02*
X1361Y1079D02*
X1361Y1242D01*
D02*
X292Y1142D02*
X761Y1142D01*
D02*
X761Y1142D02*
X761Y861D01*
D02*
X880Y943D02*
X1342Y942D01*
D02*
X1861Y1442D02*
X2542Y1442D01*
D02*
X1861Y1261D02*
X1861Y1423D01*
G04 End of Copper1*
M02*