G04 MADE WITH FRITZING*
G04 WWW.FRITZING.ORG*
G04 DOUBLE SIDED*
G04 HOLES PLATED*
G04 CONTOUR ON CENTER OF CONTOUR VECTOR*
%ASAXBY*%
%FSLAX23Y23*%
%MOIN*%
%OFA0B0*%
%SFA1.0B1.0*%
%ADD10C,0.080000*%
%ADD11C,0.062992*%
%ADD12C,0.075000*%
%ADD13C,0.039370*%
%ADD14C,0.074000*%
%ADD15C,0.090000*%
%ADD16R,0.080000X0.080000*%
%ADD17R,0.062992X0.062992*%
%ADD18R,0.074000X0.074000*%
%ADD19C,0.024000*%
%ADD20C,0.048000*%
%LNCOPPER0*%
G90*
G70*
G54D10*
X3161Y2742D03*
X3299Y2742D03*
X2461Y2742D03*
X2599Y2742D03*
X1761Y2742D03*
X1899Y2742D03*
X1061Y2742D03*
X1199Y2742D03*
G54D11*
X1561Y1744D03*
X1561Y1842D03*
X2261Y1744D03*
X2261Y1842D03*
X2961Y1744D03*
X2961Y1842D03*
X3661Y1744D03*
X3661Y1842D03*
X1561Y1240D03*
X1561Y1142D03*
X2261Y1240D03*
X2261Y1142D03*
X2961Y1240D03*
X2961Y1142D03*
X3661Y1240D03*
X3661Y1142D03*
G54D12*
X3661Y942D03*
X3661Y542D03*
X2961Y942D03*
X2961Y542D03*
X2261Y942D03*
X2261Y542D03*
X1561Y942D03*
X1561Y542D03*
X3661Y2442D03*
X3661Y2042D03*
X2961Y2442D03*
X2961Y2042D03*
X2261Y2442D03*
X2261Y2042D03*
X1561Y2442D03*
X1561Y2042D03*
G54D10*
X3461Y242D03*
X3324Y242D03*
X2761Y242D03*
X2624Y242D03*
X2061Y242D03*
X1924Y242D03*
X1361Y242D03*
X1224Y242D03*
G54D13*
X861Y2341D03*
X861Y943D03*
G54D12*
X861Y2042D03*
X461Y2042D03*
G54D11*
X161Y1944D03*
X161Y2042D03*
G54D14*
X261Y1542D03*
X261Y1442D03*
X261Y1342D03*
X261Y1242D03*
X261Y1142D03*
X161Y1542D03*
X161Y1442D03*
X161Y1342D03*
X161Y1242D03*
X161Y1142D03*
G54D15*
X1361Y2442D03*
X1061Y1942D03*
X1361Y1942D03*
X1061Y2542D03*
X1061Y2357D03*
X2061Y2442D03*
X1761Y1942D03*
X2061Y1942D03*
X1761Y2542D03*
X1761Y2357D03*
X3461Y2442D03*
X3161Y1942D03*
X3461Y1942D03*
X3161Y2542D03*
X3161Y2357D03*
X2761Y2442D03*
X2461Y1942D03*
X2761Y1942D03*
X2461Y2542D03*
X2461Y2357D03*
X1061Y542D03*
X1361Y1042D03*
X1061Y1042D03*
X1361Y442D03*
X1361Y627D03*
X1761Y542D03*
X2061Y1042D03*
X1761Y1042D03*
X2061Y442D03*
X2061Y627D03*
X2461Y542D03*
X2761Y1042D03*
X2461Y1042D03*
X2761Y442D03*
X2761Y627D03*
X3161Y542D03*
X3461Y1042D03*
X3161Y1042D03*
X3461Y442D03*
X3461Y627D03*
G54D13*
X660Y1743D03*
X1261Y1342D03*
X1461Y1342D03*
X1461Y742D03*
X1161Y1242D03*
X761Y842D03*
X1361Y942D03*
X1861Y1242D03*
X2561Y1442D03*
G54D16*
X3161Y2742D03*
X2461Y2742D03*
X1761Y2742D03*
X1061Y2742D03*
G54D17*
X1561Y1744D03*
X2261Y1744D03*
X2961Y1744D03*
X3661Y1744D03*
X1561Y1240D03*
X2261Y1240D03*
X2961Y1240D03*
X3661Y1240D03*
G54D16*
X3461Y242D03*
X2761Y242D03*
X2061Y242D03*
X1361Y242D03*
G54D17*
X161Y1944D03*
G54D18*
X161Y1542D03*
G54D19*
X1260Y2041D02*
X1335Y1968D01*
D02*
X890Y2042D02*
X1260Y2041D01*
D02*
X60Y1441D02*
X130Y1442D01*
D02*
X842Y2341D02*
X60Y2341D01*
D02*
X60Y2341D02*
X60Y1441D01*
D02*
X842Y943D02*
X60Y943D01*
D02*
X60Y943D02*
X60Y1141D01*
D02*
X60Y1141D02*
X130Y1142D01*
D02*
X861Y1843D02*
X462Y1843D01*
D02*
X462Y1843D02*
X462Y1543D01*
D02*
X861Y2013D02*
X861Y1843D01*
D02*
X462Y1543D02*
X292Y1542D01*
D02*
X161Y1917D02*
X161Y1573D01*
D02*
X433Y2042D02*
X188Y2042D01*
G54D20*
D02*
X1061Y2579D02*
X1061Y2711D01*
D02*
X1214Y2715D02*
X1344Y2474D01*
D02*
X1761Y2579D02*
X1761Y2711D01*
D02*
X1914Y2715D02*
X2044Y2474D01*
D02*
X2461Y2711D02*
X2461Y2579D01*
D02*
X2744Y2474D02*
X2614Y2715D01*
D02*
X3161Y2711D02*
X3161Y2579D01*
D02*
X3314Y2715D02*
X3444Y2474D01*
D02*
X1361Y273D02*
X1361Y405D01*
D02*
X1079Y510D02*
X1209Y269D01*
D02*
X2061Y273D02*
X2061Y405D01*
D02*
X1779Y510D02*
X1909Y269D01*
D02*
X2761Y405D02*
X2761Y273D01*
D02*
X2479Y510D02*
X2609Y269D01*
D02*
X3179Y510D02*
X3309Y269D01*
D02*
X3461Y273D02*
X3461Y405D01*
G54D19*
D02*
X2761Y1642D02*
X2761Y1905D01*
D02*
X3461Y1642D02*
X2761Y1642D01*
D02*
X3461Y1905D02*
X3461Y1642D01*
D02*
X1761Y1642D02*
X1761Y1905D01*
D02*
X661Y1642D02*
X1761Y1642D01*
D02*
X660Y1724D02*
X661Y1642D01*
D02*
X1361Y1442D02*
X1361Y1079D01*
D02*
X292Y1442D02*
X1361Y1442D01*
D02*
X2061Y1342D02*
X2061Y1079D01*
D02*
X1480Y1342D02*
X2061Y1342D01*
D02*
X292Y1342D02*
X1242Y1342D01*
D02*
X2561Y842D02*
X2282Y562D01*
D02*
X2761Y842D02*
X2561Y842D01*
D02*
X2945Y566D02*
X2761Y842D01*
D02*
X3261Y842D02*
X2982Y562D01*
D02*
X3645Y566D02*
X3461Y842D01*
D02*
X3461Y842D02*
X3261Y842D01*
D02*
X1961Y842D02*
X1787Y1016D01*
D02*
X2435Y1016D02*
X2261Y842D01*
D02*
X2261Y842D02*
X1961Y842D01*
D02*
X1261Y842D02*
X1087Y1016D01*
D02*
X1561Y842D02*
X1261Y842D01*
D02*
X1735Y1016D02*
X1561Y842D01*
D02*
X2461Y2142D02*
X2277Y2418D01*
D02*
X2661Y2142D02*
X2461Y2142D01*
D02*
X2941Y2422D02*
X2661Y2142D01*
D02*
X1480Y742D02*
X2261Y742D01*
D02*
X2261Y742D02*
X2561Y942D01*
D02*
X2561Y942D02*
X2561Y1242D01*
D02*
X2561Y1242D02*
X2461Y1242D01*
D02*
X2461Y1242D02*
X2461Y1905D01*
D02*
X1561Y2242D02*
X1382Y1973D01*
D02*
X1861Y2242D02*
X1561Y2242D01*
D02*
X2041Y1973D02*
X1861Y2242D01*
D02*
X292Y1242D02*
X1142Y1242D01*
D02*
X3761Y1042D02*
X3498Y1042D01*
D02*
X761Y823D02*
X761Y161D01*
D02*
X3761Y142D02*
X3761Y1042D01*
D02*
X780Y142D02*
X3761Y142D01*
D02*
X3161Y2242D02*
X3161Y1979D01*
D02*
X2580Y1442D02*
X3861Y1442D01*
D02*
X3861Y1442D02*
X3861Y2242D01*
D02*
X3861Y2242D02*
X3161Y2242D01*
D02*
X1378Y952D02*
X1845Y1232D01*
G04 End of Copper0*
M02*