M48
METRIC,LZ,000.000
;FILE_FORMAT=3:3
;TYPE=PLATED
;Layer: PTH_Through
;EasyEDA v6.5.8, 2022-08-15 07:29:34
;028e3914a6f949ed9ca799ef75e4ed4f,10
;Gerber Generator version 0.2
;Holesize 1 = 0.316 mm
T01C0.316
;Holesize 2 = 0.320 mm
T02C0.320
;Holesize 3 = 0.501 mm
T03C0.501
;Holesize 4 = 0.712 mm
T04C0.712
;Holesize 5 = 0.800 mm
T05C0.800
;Holesize 6 = 0.900 mm
T06C0.900
;Holesize 7 = 0.915 mm
T07C0.915
;Holesize 8 = 1.000 mm
T08C1.000
;Holesize 9 = 1.016 mm
T09C1.016
;Holesize 10 = 1.100 mm
T10C1.100
;Holesize 11 = 1.200 mm
T11C1.200
%
G05
G90
T01
X060325Y071882
X065405Y076962
X065405Y076962
X067945Y079502
X070485Y082042
X073025Y084582
X075565Y087122
X060325Y053086
X062865Y050546
X065405Y048006
X067945Y045466
X070485Y042926
X073025Y040386
X075565Y037846
X027453Y086995
T02
X062865Y074422
T03
X024511Y094996
X024511Y084836
X050165Y053848
X040005Y053848
X035306Y094869
X035306Y084709
T04
X088646Y030480
X091186Y030480
X088646Y062230
X091186Y062230
X052705Y069723
X055245Y069723
X085979Y055626
X085979Y053086
X085979Y040386
X085979Y037846
X085979Y050546
X085979Y048006
X085979Y042926
X085979Y045466
X085979Y035306
X093599Y035306
X093599Y037846
X093599Y040386
X093599Y042926
X093599Y045466
X093599Y048006
X093599Y050546
X093599Y053086
X093599Y055626
X085979Y087630
X085979Y085090
X085979Y072390
X085979Y069850
X085979Y082550
X085979Y080010
X085979Y074930
X085979Y077470
X085979Y067310
X093599Y067310
X093599Y069850
X093599Y072390
X093599Y074930
X093599Y077470
X093599Y080010
X093599Y082550
X093599Y085090
X093599Y087630
X065786Y084455
X068326Y084455
T05
X043815Y040259
X033655Y040259
X026162Y040259
X028702Y040259
T06
X046101Y077470
X046101Y069850
T07
X035306Y080495G85X035306Y080541
X037846Y080495G85X037846Y080541
X040386Y080495G85X040386Y080541
X024511Y080495G85X024511Y080541
X027051Y080495G85X027051Y080541
X029591Y080495G85X029591Y080541
X032893Y056284G85X032893Y056238
X030353Y056284G85X030353Y056238
X027813Y056284G85X027813Y056238
X033020Y062126G85X033020Y062080
X030480Y062126G85X030480Y062080
X027940Y062126G85X027940Y062080
X033020Y067968G85X033020Y067922
X030480Y067968G85X030480Y067922
X027940Y067968G85X027940Y067922
X046101Y082365
X046083Y092365
X050419Y082365
X050401Y092365
T08
X070485Y058166
X067945Y058166
X065405Y058166
X062865Y058166
X060325Y058166
X057785Y058166
X055245Y058166
X055245Y065786
X073025Y058166
X075565Y058166
X057785Y065786
X060325Y065786
X062865Y065786
X065405Y065786
X067945Y065786
X070485Y065786
X073025Y065786
X075565Y065786
X052705Y065786
X050165Y065786
X047625Y065786
X045085Y065786
X042545Y065786
X042545Y058166
X045085Y058166
X047625Y058166
X050165Y058166
X052705Y058166
X075819Y093726
X075819Y091186
X058547Y084836
X056515Y084836
T09
X064262Y093345
X059182Y093345
X061722Y093345
T10
X104521Y035176G85X104521Y035182
X101981Y035176G85X101981Y035182
X104521Y037716G85X104521Y037722
X101981Y037716G85X101981Y037722
X104521Y040256G85X104521Y040262
X101981Y040256G85X101981Y040262
X104521Y042796G85X104521Y042802
X101981Y042796G85X101981Y042802
X104521Y045336G85X104521Y045342
X101981Y045336G85X101981Y045342
X104521Y066926G85X104521Y066932
X101981Y066926G85X101981Y066932
X104521Y069466G85X104521Y069472
X101981Y069466G85X101981Y069472
X104521Y072006G85X104521Y072012
X101981Y072006G85X101981Y072012
X104521Y074546G85X104521Y074552
X101981Y074546G85X101981Y074552
X104521Y077086G85X104521Y077092
X101981Y077086G85X101981Y077092
T11
X011049Y040373G85X011049Y040367
X011049Y036872G85X011049Y036867
X011049Y066662G85X011049Y066656
X011049Y063161G85X011049Y063156
X011049Y085077G85X011049Y085071
X011049Y081576G85X011049Y081571
M30
