; NON-PLATED HOLES START AT T1
; THROUGH (PLATED) HOLES START AT T100
M48
INCH
T1C0.125984
T100C0.031497
T101C0.038000
T102C0.040000
T103C0.015748
T104C0.035000
T105C0.042000
T106C0.030000
%
T1
X001449Y001234
X041949Y027734
X001449Y027734
X041949Y001234
T100
X002448Y013734
X002448Y012750
T101
X010449Y011234
X009449Y011234
X011449Y011234
X010449Y013234
X009449Y013234
X011449Y013234
X010449Y015234
X009449Y015234
X011449Y015234
T102
X038949Y003234
X037949Y019734
X037949Y016734
X001449Y018234
X037949Y007234
X001449Y019612
X037949Y004234
X038949Y017734
X038949Y005234
X037949Y018734
X037949Y015734
X037949Y006234
X038949Y019734
X037949Y003234
X038949Y016734
X001449Y007234
X038949Y007234
X001449Y008612
X038949Y004234
X037949Y017734
X001449Y023234
X037949Y005234
X038949Y018734
X001449Y024612
X038949Y015734
X038949Y006234
T103
X012449Y023234
X024465Y019720
X027427Y005210
X028431Y023736
X028431Y004257
X009967Y016715
X017437Y014247
X008449Y019715
X022457Y017711
X023461Y009227
X007448Y020715
X026473Y021728
X025469Y007219
X027427Y022732
X026473Y006215
X013471Y016255
X016449Y020715
X024465Y008223
X023461Y018716
X025469Y020724
X022457Y010231
T104
X012449Y017734
X004449Y013734
X012449Y019234
X018449Y010734
X016449Y017734
X004449Y009734
X016449Y019234
X014449Y010734
T105
X009449Y023234
X008449Y023234
X007449Y023234
T106
X034449Y008234
X019449Y012234
X031449Y010234
X031449Y022734
X017449Y015234
X034449Y011234
X034449Y023734
X028449Y012234
X019447Y016734
X026449Y015234
X031449Y006234
X031449Y018734
X034449Y007234
X034449Y019734
X020449Y012234
X031449Y021734
X034449Y010234
X034449Y022734
X031449Y005234
X031449Y017734
X034449Y006234
X034449Y018734
X031449Y020734
X032447Y001734
X034449Y021734
X023449Y012234
X021449Y015234
X031449Y004234
X031449Y016734
X034449Y005234
X034449Y017734
X017449Y012234
X034449Y020734
X015449Y015234
X026449Y012234
X031449Y003234
X031449Y015734
X024449Y015234
X034449Y004234
X034449Y016734
X018449Y015234
X005449Y021734
X034449Y003234
X034449Y015734
X027449Y015234
X033449Y014234
X020449Y016734
X021449Y012234
X006450Y021734
X015449Y012234
X024449Y012234
X022449Y015234
X018449Y012234
X027449Y012234
X016449Y015234
X025449Y015234
X032447Y014234
X010950Y021734
X019449Y015234
X028449Y015234
X031449Y009234
X022449Y012234
X020449Y015234
X031449Y008234
X033449Y001734
X016449Y012234
X034449Y009234
X009949Y021734
X025449Y012234
X031449Y011234
X031449Y023734
X023449Y015234
X031449Y007234
X031449Y019734
T00
M30
