; NON-PLATED HOLES START AT T1
; THROUGH (PLATED) HOLES START AT T100
M48
INCH
T1C0.125984
T100C0.015748
T101C0.035000
T102C0.042000
T103C0.030000
T104C0.031497
T105C0.038000
T106C0.040000
%
T1
X048398Y001610
X001398Y035610
X001398Y001610
X048398Y035610
T100
X039399Y001633
X037387Y013610
X036381Y004603
X037387Y023622
X039399Y013610
X037387Y015621
X036381Y014616
X026417Y031622
X038393Y022616
X041411Y005609
X038393Y014616
X026417Y023622
X048405Y008627
X035375Y010591
X018417Y002591
X023399Y004603
X029387Y024628
X029387Y008627
X017411Y005609
X020381Y025634
X032405Y017634
X016405Y026592
X023399Y008627
X044381Y024628
X015399Y001633
X034417Y015621
X044381Y008627
X044381Y026592
X043375Y002591
X019375Y019598
X033411Y016627
X044381Y028604
X037387Y034592
X016405Y011597
X011375Y000627
X041411Y010591
X016405Y003597
X027375Y027598
X018417Y011597
X043375Y016627
X021387Y013610
X015399Y025634
X038393Y035598
X044381Y003597
X015399Y009633
X047399Y022616
X011375Y014616
X011375Y024628
X044381Y021610
X022393Y014616
X019375Y014616
X026417Y011597
X042417Y029610
X013387Y016627
X033411Y033586
X030393Y029610
T101
X005398Y017610
X005398Y013610
X018398Y016610
X018398Y012610
T102
X020398Y024610
X020398Y027590
T103
X023398Y007610
X022398Y018610
X021398Y029610
X023398Y010610
X022398Y021610
X021398Y032610
X016398Y018610
X026398Y007610
X030398Y008608
X025398Y018610
X030398Y009610
X024398Y029610
X016398Y021610
X026398Y010610
X020398Y023610
X025398Y021610
X024398Y032610
X019398Y018610
X028398Y018610
X027398Y029610
X019398Y021610
X028398Y021610
X021398Y007610
X027398Y032610
X020398Y018610
X021398Y010610
X020398Y021610
X018398Y031612
X024398Y007610
X023398Y018610
X022398Y029610
X024398Y010610
X018398Y030610
X023398Y021610
X022398Y032610
X017398Y018610
X027398Y007610
X026398Y018610
X025398Y029610
X017398Y021610
X027398Y010610
X026398Y021610
X025398Y032610
X028398Y029610
X022398Y007610
X028398Y032610
X021398Y018610
X020398Y029610
X022398Y010610
X021398Y021610
X020398Y032610
X015398Y018610
X025398Y007610
X024398Y018610
X015398Y021610
X025398Y010610
X023398Y029610
X024398Y021610
X023398Y032610
X018398Y018610
X028398Y007610
X027398Y018610
X026398Y029610
X018398Y021610
X028398Y010610
X027398Y021610
X020398Y007610
X019397Y023610
X026398Y032610
X020398Y010610
T104
X002398Y017625
X002398Y018610
T105
X010398Y017610
X010398Y021610
X009398Y017610
X009398Y021610
X011398Y017610
X011398Y021610
X010398Y019610
X009398Y019610
X011398Y019610
T106
X048398Y013610
X001398Y029610
X047398Y013610
X048398Y010610
X048398Y028610
X047398Y010610
X047398Y028610
X048398Y025610
X047398Y025610
X001398Y013610
X001398Y014988
X048398Y012610
X047398Y012610
X048398Y027610
X047398Y027610
X001398Y030988
X048398Y014610
X047398Y014610
X048398Y011610
X048398Y029610
X047398Y011610
X047398Y029610
X048398Y026610
X001398Y024610
X001398Y025988
X047398Y026610
T00
M30
