G04 MADE WITH FRITZING*
G04 WWW.FRITZING.ORG*
G04 DOUBLE SIDED*
G04 HOLES PLATED*
G04 CONTOUR ON CENTER OF CONTOUR VECTOR*
%ASAXBY*%
%FSLAX23Y23*%
%MOIN*%
%OFA0B0*%
%SFA1.0B1.0*%
%ADD10C,0.080000*%
%ADD11C,0.084000*%
%ADD12C,0.090000*%
%ADD13C,0.085000*%
%ADD14C,0.072992*%
%ADD15C,0.088000*%
%ADD16C,0.092000*%
%ADD17C,0.049370*%
%ADD18C,0.135984*%
%ADD19R,0.084000X0.084000*%
%ADD20R,0.090000X0.090000*%
%ADD21R,0.072992X0.072992*%
%ADD22R,0.092000X0.092000*%
%ADD23R,0.001000X0.001000*%
%LNMASK0*%
G90*
G70*
G54D10*
X2040Y2361D03*
X1940Y2361D03*
X1840Y3061D03*
X1840Y3161D03*
X3040Y961D03*
X3040Y861D03*
G54D11*
X4740Y2561D03*
X4740Y2661D03*
X4740Y2761D03*
X4740Y2861D03*
X4740Y2961D03*
X4840Y2561D03*
X4840Y2661D03*
X4840Y2761D03*
X4840Y2861D03*
X4840Y2961D03*
X4740Y1061D03*
X4740Y1161D03*
X4740Y1261D03*
X4740Y1361D03*
X4740Y1461D03*
X4840Y1061D03*
X4840Y1161D03*
X4840Y1261D03*
X4840Y1361D03*
X4840Y1461D03*
G54D12*
X140Y1361D03*
X140Y1499D03*
G54D13*
X540Y1361D03*
X540Y1761D03*
G54D14*
X240Y1763D03*
X240Y1861D03*
G54D13*
X1840Y1261D03*
X1840Y1661D03*
G54D15*
X1140Y2161D03*
X1040Y2161D03*
X940Y2161D03*
X1140Y1761D03*
X1040Y1761D03*
X940Y1761D03*
X1140Y1961D03*
X1040Y1961D03*
X940Y1961D03*
G54D16*
X2040Y2461D03*
X2040Y2759D03*
G54D12*
X140Y2461D03*
X140Y2599D03*
X140Y2961D03*
X140Y3099D03*
G54D17*
X1138Y2463D03*
X1339Y1663D03*
X3241Y1763D03*
X3341Y1663D03*
X3442Y1562D03*
X4438Y2860D03*
X4740Y2262D03*
X4438Y2659D03*
X2738Y2760D03*
X3739Y3459D03*
X3341Y3359D03*
X3039Y2961D03*
X4242Y2961D03*
X2939Y2463D03*
X4438Y2463D03*
X3739Y2362D03*
X2642Y2362D03*
X3839Y2262D03*
X3839Y3560D03*
X1641Y2659D03*
X3638Y1462D03*
X2340Y460D03*
X3638Y460D03*
X3739Y1361D03*
X2642Y1160D03*
X2139Y1361D03*
X1641Y1160D03*
X1641Y360D03*
X4841Y863D03*
X4438Y863D03*
X4438Y2161D03*
X4438Y360D03*
X4338Y1663D03*
X3940Y1361D03*
X3739Y1562D03*
X3839Y1462D03*
X1938Y1960D03*
X1842Y1160D03*
X1842Y259D03*
X4338Y259D03*
X2939Y863D03*
X2340Y863D03*
X1540Y963D03*
X1540Y163D03*
X3940Y163D03*
X3538Y1059D03*
X1741Y561D03*
X4141Y561D03*
X4141Y1059D03*
X2038Y2563D03*
X1540Y2563D03*
X1938Y1462D03*
X2239Y1462D03*
X1138Y1462D03*
X1138Y63D03*
X2642Y3162D03*
G54D18*
X140Y161D03*
X140Y3561D03*
X4840Y3561D03*
X4840Y161D03*
G54D19*
X4840Y2561D03*
X4840Y1061D03*
G54D20*
X140Y1361D03*
G54D21*
X240Y1763D03*
G54D22*
X2040Y2460D03*
G54D20*
X140Y2461D03*
X140Y2961D03*
G54D23*
X2033Y3301D02*
X2046Y3301D01*
X2133Y3301D02*
X2146Y3301D01*
X2233Y3301D02*
X2246Y3301D01*
X2333Y3301D02*
X2346Y3301D01*
X2433Y3301D02*
X2446Y3301D01*
X2533Y3301D02*
X2546Y3301D01*
X2633Y3301D02*
X2646Y3301D01*
X2733Y3301D02*
X2746Y3301D01*
X2833Y3301D02*
X2846Y3301D01*
X2028Y3300D02*
X2050Y3300D01*
X2128Y3300D02*
X2150Y3300D01*
X2228Y3300D02*
X2250Y3300D01*
X2328Y3300D02*
X2350Y3300D01*
X2428Y3300D02*
X2450Y3300D01*
X2528Y3300D02*
X2550Y3300D01*
X2628Y3300D02*
X2650Y3300D01*
X2728Y3300D02*
X2750Y3300D01*
X2828Y3300D02*
X2850Y3300D01*
X2025Y3299D02*
X2053Y3299D01*
X2125Y3299D02*
X2153Y3299D01*
X2225Y3299D02*
X2253Y3299D01*
X2325Y3299D02*
X2353Y3299D01*
X2425Y3299D02*
X2453Y3299D01*
X2525Y3299D02*
X2553Y3299D01*
X2625Y3299D02*
X2653Y3299D01*
X2725Y3299D02*
X2753Y3299D01*
X2825Y3299D02*
X2853Y3299D01*
X2023Y3298D02*
X2055Y3298D01*
X2123Y3298D02*
X2155Y3298D01*
X2223Y3298D02*
X2255Y3298D01*
X2323Y3298D02*
X2355Y3298D01*
X2423Y3298D02*
X2455Y3298D01*
X2523Y3298D02*
X2555Y3298D01*
X2623Y3298D02*
X2655Y3298D01*
X2723Y3298D02*
X2755Y3298D01*
X2823Y3298D02*
X2855Y3298D01*
X2021Y3297D02*
X2057Y3297D01*
X2121Y3297D02*
X2157Y3297D01*
X2221Y3297D02*
X2257Y3297D01*
X2321Y3297D02*
X2357Y3297D01*
X2421Y3297D02*
X2457Y3297D01*
X2521Y3297D02*
X2557Y3297D01*
X2621Y3297D02*
X2657Y3297D01*
X2721Y3297D02*
X2757Y3297D01*
X2821Y3297D02*
X2857Y3297D01*
X2019Y3296D02*
X2059Y3296D01*
X2119Y3296D02*
X2159Y3296D01*
X2219Y3296D02*
X2259Y3296D01*
X2319Y3296D02*
X2359Y3296D01*
X2419Y3296D02*
X2459Y3296D01*
X2519Y3296D02*
X2559Y3296D01*
X2619Y3296D02*
X2659Y3296D01*
X2719Y3296D02*
X2759Y3296D01*
X2819Y3296D02*
X2859Y3296D01*
X2018Y3295D02*
X2061Y3295D01*
X2118Y3295D02*
X2161Y3295D01*
X2218Y3295D02*
X2261Y3295D01*
X2318Y3295D02*
X2361Y3295D01*
X2418Y3295D02*
X2461Y3295D01*
X2518Y3295D02*
X2561Y3295D01*
X2618Y3295D02*
X2661Y3295D01*
X2718Y3295D02*
X2761Y3295D01*
X2818Y3295D02*
X2861Y3295D01*
X2016Y3294D02*
X2062Y3294D01*
X2116Y3294D02*
X2162Y3294D01*
X2216Y3294D02*
X2262Y3294D01*
X2316Y3294D02*
X2362Y3294D01*
X2416Y3294D02*
X2462Y3294D01*
X2516Y3294D02*
X2562Y3294D01*
X2616Y3294D02*
X2662Y3294D01*
X2716Y3294D02*
X2762Y3294D01*
X2816Y3294D02*
X2862Y3294D01*
X2015Y3293D02*
X2064Y3293D01*
X2115Y3293D02*
X2164Y3293D01*
X2215Y3293D02*
X2264Y3293D01*
X2315Y3293D02*
X2364Y3293D01*
X2415Y3293D02*
X2463Y3293D01*
X2515Y3293D02*
X2563Y3293D01*
X2615Y3293D02*
X2663Y3293D01*
X2715Y3293D02*
X2763Y3293D01*
X2815Y3293D02*
X2863Y3293D01*
X2014Y3292D02*
X2065Y3292D01*
X2114Y3292D02*
X2165Y3292D01*
X2214Y3292D02*
X2265Y3292D01*
X2314Y3292D02*
X2365Y3292D01*
X2414Y3292D02*
X2465Y3292D01*
X2514Y3292D02*
X2565Y3292D01*
X2614Y3292D02*
X2665Y3292D01*
X2714Y3292D02*
X2765Y3292D01*
X2814Y3292D02*
X2865Y3292D01*
X2012Y3291D02*
X2066Y3291D01*
X2112Y3291D02*
X2166Y3291D01*
X2212Y3291D02*
X2266Y3291D01*
X2312Y3291D02*
X2366Y3291D01*
X2412Y3291D02*
X2466Y3291D01*
X2512Y3291D02*
X2566Y3291D01*
X2612Y3291D02*
X2666Y3291D01*
X2712Y3291D02*
X2766Y3291D01*
X2812Y3291D02*
X2866Y3291D01*
X2011Y3290D02*
X2067Y3290D01*
X2111Y3290D02*
X2167Y3290D01*
X2211Y3290D02*
X2267Y3290D01*
X2311Y3290D02*
X2367Y3290D01*
X2411Y3290D02*
X2467Y3290D01*
X2511Y3290D02*
X2567Y3290D01*
X2611Y3290D02*
X2667Y3290D01*
X2711Y3290D02*
X2767Y3290D01*
X2811Y3290D02*
X2867Y3290D01*
X2010Y3289D02*
X2068Y3289D01*
X2110Y3289D02*
X2168Y3289D01*
X2210Y3289D02*
X2268Y3289D01*
X2310Y3289D02*
X2368Y3289D01*
X2410Y3289D02*
X2468Y3289D01*
X2510Y3289D02*
X2568Y3289D01*
X2610Y3289D02*
X2668Y3289D01*
X2710Y3289D02*
X2768Y3289D01*
X2810Y3289D02*
X2868Y3289D01*
X2010Y3288D02*
X2069Y3288D01*
X2110Y3288D02*
X2169Y3288D01*
X2210Y3288D02*
X2269Y3288D01*
X2310Y3288D02*
X2369Y3288D01*
X2410Y3288D02*
X2469Y3288D01*
X2510Y3288D02*
X2569Y3288D01*
X2610Y3288D02*
X2669Y3288D01*
X2710Y3288D02*
X2769Y3288D01*
X2810Y3288D02*
X2869Y3288D01*
X2009Y3287D02*
X2070Y3287D01*
X2109Y3287D02*
X2170Y3287D01*
X2209Y3287D02*
X2270Y3287D01*
X2309Y3287D02*
X2370Y3287D01*
X2409Y3287D02*
X2470Y3287D01*
X2509Y3287D02*
X2570Y3287D01*
X2609Y3287D02*
X2670Y3287D01*
X2709Y3287D02*
X2770Y3287D01*
X2809Y3287D02*
X2870Y3287D01*
X2008Y3286D02*
X2070Y3286D01*
X2108Y3286D02*
X2170Y3286D01*
X2208Y3286D02*
X2270Y3286D01*
X2308Y3286D02*
X2370Y3286D01*
X2408Y3286D02*
X2470Y3286D01*
X2508Y3286D02*
X2570Y3286D01*
X2608Y3286D02*
X2670Y3286D01*
X2708Y3286D02*
X2770Y3286D01*
X2808Y3286D02*
X2870Y3286D01*
X2007Y3285D02*
X2071Y3285D01*
X2107Y3285D02*
X2171Y3285D01*
X2207Y3285D02*
X2271Y3285D01*
X2307Y3285D02*
X2371Y3285D01*
X2407Y3285D02*
X2471Y3285D01*
X2507Y3285D02*
X2571Y3285D01*
X2607Y3285D02*
X2671Y3285D01*
X2707Y3285D02*
X2771Y3285D01*
X2807Y3285D02*
X2871Y3285D01*
X2007Y3284D02*
X2072Y3284D01*
X2107Y3284D02*
X2172Y3284D01*
X2207Y3284D02*
X2272Y3284D01*
X2307Y3284D02*
X2372Y3284D01*
X2407Y3284D02*
X2472Y3284D01*
X2507Y3284D02*
X2572Y3284D01*
X2607Y3284D02*
X2672Y3284D01*
X2706Y3284D02*
X2772Y3284D01*
X2806Y3284D02*
X2872Y3284D01*
X2006Y3283D02*
X2072Y3283D01*
X2106Y3283D02*
X2172Y3283D01*
X2206Y3283D02*
X2272Y3283D01*
X2306Y3283D02*
X2372Y3283D01*
X2406Y3283D02*
X2472Y3283D01*
X2506Y3283D02*
X2572Y3283D01*
X2606Y3283D02*
X2672Y3283D01*
X2706Y3283D02*
X2772Y3283D01*
X2806Y3283D02*
X2872Y3283D01*
X2005Y3282D02*
X2073Y3282D01*
X2105Y3282D02*
X2173Y3282D01*
X2205Y3282D02*
X2273Y3282D01*
X2305Y3282D02*
X2373Y3282D01*
X2405Y3282D02*
X2473Y3282D01*
X2505Y3282D02*
X2573Y3282D01*
X2605Y3282D02*
X2673Y3282D01*
X2705Y3282D02*
X2773Y3282D01*
X2805Y3282D02*
X2873Y3282D01*
X2005Y3281D02*
X2074Y3281D01*
X2105Y3281D02*
X2174Y3281D01*
X2205Y3281D02*
X2274Y3281D01*
X2305Y3281D02*
X2374Y3281D01*
X2405Y3281D02*
X2474Y3281D01*
X2505Y3281D02*
X2574Y3281D01*
X2605Y3281D02*
X2674Y3281D01*
X2705Y3281D02*
X2774Y3281D01*
X2805Y3281D02*
X2874Y3281D01*
X2004Y3280D02*
X2074Y3280D01*
X2104Y3280D02*
X2174Y3280D01*
X2204Y3280D02*
X2274Y3280D01*
X2304Y3280D02*
X2374Y3280D01*
X2404Y3280D02*
X2474Y3280D01*
X2504Y3280D02*
X2574Y3280D01*
X2604Y3280D02*
X2674Y3280D01*
X2704Y3280D02*
X2774Y3280D01*
X2804Y3280D02*
X2874Y3280D01*
X2004Y3279D02*
X2075Y3279D01*
X2104Y3279D02*
X2175Y3279D01*
X2204Y3279D02*
X2275Y3279D01*
X2304Y3279D02*
X2375Y3279D01*
X2404Y3279D02*
X2475Y3279D01*
X2504Y3279D02*
X2575Y3279D01*
X2604Y3279D02*
X2675Y3279D01*
X2704Y3279D02*
X2775Y3279D01*
X2804Y3279D02*
X2875Y3279D01*
X2003Y3278D02*
X2075Y3278D01*
X2103Y3278D02*
X2175Y3278D01*
X2203Y3278D02*
X2275Y3278D01*
X2303Y3278D02*
X2375Y3278D01*
X2403Y3278D02*
X2475Y3278D01*
X2503Y3278D02*
X2575Y3278D01*
X2603Y3278D02*
X2675Y3278D01*
X2703Y3278D02*
X2775Y3278D01*
X2803Y3278D02*
X2875Y3278D01*
X2003Y3277D02*
X2076Y3277D01*
X2103Y3277D02*
X2176Y3277D01*
X2203Y3277D02*
X2276Y3277D01*
X2303Y3277D02*
X2376Y3277D01*
X2403Y3277D02*
X2476Y3277D01*
X2503Y3277D02*
X2576Y3277D01*
X2603Y3277D02*
X2676Y3277D01*
X2703Y3277D02*
X2776Y3277D01*
X2803Y3277D02*
X2876Y3277D01*
X2002Y3276D02*
X2076Y3276D01*
X2102Y3276D02*
X2176Y3276D01*
X2202Y3276D02*
X2276Y3276D01*
X2302Y3276D02*
X2376Y3276D01*
X2402Y3276D02*
X2476Y3276D01*
X2502Y3276D02*
X2576Y3276D01*
X2602Y3276D02*
X2676Y3276D01*
X2702Y3276D02*
X2776Y3276D01*
X2802Y3276D02*
X2876Y3276D01*
X2002Y3275D02*
X2076Y3275D01*
X2102Y3275D02*
X2176Y3275D01*
X2202Y3275D02*
X2276Y3275D01*
X2302Y3275D02*
X2376Y3275D01*
X2402Y3275D02*
X2476Y3275D01*
X2502Y3275D02*
X2576Y3275D01*
X2602Y3275D02*
X2676Y3275D01*
X2702Y3275D02*
X2776Y3275D01*
X2802Y3275D02*
X2876Y3275D01*
X2002Y3274D02*
X2077Y3274D01*
X2102Y3274D02*
X2177Y3274D01*
X2202Y3274D02*
X2277Y3274D01*
X2302Y3274D02*
X2377Y3274D01*
X2402Y3274D02*
X2477Y3274D01*
X2502Y3274D02*
X2577Y3274D01*
X2602Y3274D02*
X2677Y3274D01*
X2702Y3274D02*
X2777Y3274D01*
X2802Y3274D02*
X2877Y3274D01*
X2001Y3273D02*
X2077Y3273D01*
X2101Y3273D02*
X2177Y3273D01*
X2201Y3273D02*
X2277Y3273D01*
X2301Y3273D02*
X2377Y3273D01*
X2401Y3273D02*
X2477Y3273D01*
X2501Y3273D02*
X2577Y3273D01*
X2601Y3273D02*
X2677Y3273D01*
X2701Y3273D02*
X2777Y3273D01*
X2801Y3273D02*
X2877Y3273D01*
X2001Y3272D02*
X2077Y3272D01*
X2101Y3272D02*
X2177Y3272D01*
X2201Y3272D02*
X2277Y3272D01*
X2301Y3272D02*
X2377Y3272D01*
X2401Y3272D02*
X2477Y3272D01*
X2501Y3272D02*
X2577Y3272D01*
X2601Y3272D02*
X2677Y3272D01*
X2701Y3272D02*
X2777Y3272D01*
X2801Y3272D02*
X2877Y3272D01*
X2001Y3271D02*
X2077Y3271D01*
X2101Y3271D02*
X2177Y3271D01*
X2201Y3271D02*
X2277Y3271D01*
X2301Y3271D02*
X2377Y3271D01*
X2401Y3271D02*
X2477Y3271D01*
X2501Y3271D02*
X2577Y3271D01*
X2601Y3271D02*
X2677Y3271D01*
X2701Y3271D02*
X2777Y3271D01*
X2801Y3271D02*
X2877Y3271D01*
X2001Y3270D02*
X2078Y3270D01*
X2101Y3270D02*
X2178Y3270D01*
X2201Y3270D02*
X2278Y3270D01*
X2301Y3270D02*
X2378Y3270D01*
X2401Y3270D02*
X2478Y3270D01*
X2501Y3270D02*
X2578Y3270D01*
X2601Y3270D02*
X2678Y3270D01*
X2701Y3270D02*
X2778Y3270D01*
X2801Y3270D02*
X2878Y3270D01*
X2000Y3269D02*
X2078Y3269D01*
X2100Y3269D02*
X2178Y3269D01*
X2200Y3269D02*
X2278Y3269D01*
X2300Y3269D02*
X2378Y3269D01*
X2400Y3269D02*
X2478Y3269D01*
X2500Y3269D02*
X2578Y3269D01*
X2600Y3269D02*
X2678Y3269D01*
X2700Y3269D02*
X2778Y3269D01*
X2800Y3269D02*
X2878Y3269D01*
X2000Y3268D02*
X2078Y3268D01*
X2100Y3268D02*
X2178Y3268D01*
X2200Y3268D02*
X2278Y3268D01*
X2300Y3268D02*
X2378Y3268D01*
X2400Y3268D02*
X2478Y3268D01*
X2500Y3268D02*
X2578Y3268D01*
X2600Y3268D02*
X2678Y3268D01*
X2700Y3268D02*
X2778Y3268D01*
X2800Y3268D02*
X2878Y3268D01*
X2000Y3267D02*
X2078Y3267D01*
X2100Y3267D02*
X2178Y3267D01*
X2200Y3267D02*
X2278Y3267D01*
X2300Y3267D02*
X2378Y3267D01*
X2400Y3267D02*
X2478Y3267D01*
X2500Y3267D02*
X2578Y3267D01*
X2600Y3267D02*
X2678Y3267D01*
X2700Y3267D02*
X2778Y3267D01*
X2800Y3267D02*
X2878Y3267D01*
X2000Y3266D02*
X2078Y3266D01*
X2100Y3266D02*
X2178Y3266D01*
X2200Y3266D02*
X2278Y3266D01*
X2300Y3266D02*
X2378Y3266D01*
X2400Y3266D02*
X2478Y3266D01*
X2500Y3266D02*
X2578Y3266D01*
X2600Y3266D02*
X2678Y3266D01*
X2700Y3266D02*
X2778Y3266D01*
X2800Y3266D02*
X2878Y3266D01*
X2000Y3265D02*
X2078Y3265D01*
X2100Y3265D02*
X2178Y3265D01*
X2200Y3265D02*
X2278Y3265D01*
X2300Y3265D02*
X2378Y3265D01*
X2400Y3265D02*
X2478Y3265D01*
X2500Y3265D02*
X2578Y3265D01*
X2600Y3265D02*
X2678Y3265D01*
X2700Y3265D02*
X2778Y3265D01*
X2800Y3265D02*
X2878Y3265D01*
X2000Y3264D02*
X2079Y3264D01*
X2100Y3264D02*
X2179Y3264D01*
X2200Y3264D02*
X2279Y3264D01*
X2300Y3264D02*
X2379Y3264D01*
X2400Y3264D02*
X2479Y3264D01*
X2500Y3264D02*
X2579Y3264D01*
X2600Y3264D02*
X2678Y3264D01*
X2700Y3264D02*
X2778Y3264D01*
X2800Y3264D02*
X2878Y3264D01*
X2000Y3263D02*
X2079Y3263D01*
X2100Y3263D02*
X2179Y3263D01*
X2200Y3263D02*
X2279Y3263D01*
X2300Y3263D02*
X2379Y3263D01*
X2400Y3263D02*
X2479Y3263D01*
X2500Y3263D02*
X2579Y3263D01*
X2600Y3263D02*
X2679Y3263D01*
X2700Y3263D02*
X2779Y3263D01*
X2800Y3263D02*
X2879Y3263D01*
X2000Y3262D02*
X2079Y3262D01*
X2100Y3262D02*
X2179Y3262D01*
X2200Y3262D02*
X2279Y3262D01*
X2300Y3262D02*
X2379Y3262D01*
X2400Y3262D02*
X2479Y3262D01*
X2500Y3262D02*
X2579Y3262D01*
X2600Y3262D02*
X2679Y3262D01*
X2700Y3262D02*
X2779Y3262D01*
X2800Y3262D02*
X2879Y3262D01*
X2000Y3261D02*
X2079Y3261D01*
X2100Y3261D02*
X2179Y3261D01*
X2200Y3261D02*
X2279Y3261D01*
X2300Y3261D02*
X2379Y3261D01*
X2400Y3261D02*
X2479Y3261D01*
X2500Y3261D02*
X2579Y3261D01*
X2600Y3261D02*
X2679Y3261D01*
X2700Y3261D02*
X2779Y3261D01*
X2800Y3261D02*
X2879Y3261D01*
X2000Y3260D02*
X2079Y3260D01*
X2100Y3260D02*
X2179Y3260D01*
X2200Y3260D02*
X2279Y3260D01*
X2300Y3260D02*
X2379Y3260D01*
X2400Y3260D02*
X2479Y3260D01*
X2500Y3260D02*
X2579Y3260D01*
X2600Y3260D02*
X2679Y3260D01*
X2700Y3260D02*
X2779Y3260D01*
X2800Y3260D02*
X2879Y3260D01*
X2000Y3259D02*
X2079Y3259D01*
X2100Y3259D02*
X2179Y3259D01*
X2200Y3259D02*
X2279Y3259D01*
X2300Y3259D02*
X2378Y3259D01*
X2400Y3259D02*
X2478Y3259D01*
X2500Y3259D02*
X2578Y3259D01*
X2600Y3259D02*
X2678Y3259D01*
X2700Y3259D02*
X2778Y3259D01*
X2800Y3259D02*
X2878Y3259D01*
X2000Y3258D02*
X2078Y3258D01*
X2100Y3258D02*
X2178Y3258D01*
X2200Y3258D02*
X2278Y3258D01*
X2300Y3258D02*
X2378Y3258D01*
X2400Y3258D02*
X2478Y3258D01*
X2500Y3258D02*
X2578Y3258D01*
X2600Y3258D02*
X2678Y3258D01*
X2700Y3258D02*
X2778Y3258D01*
X2800Y3258D02*
X2878Y3258D01*
X2000Y3257D02*
X2078Y3257D01*
X2100Y3257D02*
X2178Y3257D01*
X2200Y3257D02*
X2278Y3257D01*
X2300Y3257D02*
X2378Y3257D01*
X2400Y3257D02*
X2478Y3257D01*
X2500Y3257D02*
X2578Y3257D01*
X2600Y3257D02*
X2678Y3257D01*
X2700Y3257D02*
X2778Y3257D01*
X2800Y3257D02*
X2878Y3257D01*
X2000Y3256D02*
X2078Y3256D01*
X2100Y3256D02*
X2178Y3256D01*
X2200Y3256D02*
X2278Y3256D01*
X2300Y3256D02*
X2378Y3256D01*
X2400Y3256D02*
X2478Y3256D01*
X2500Y3256D02*
X2578Y3256D01*
X2600Y3256D02*
X2678Y3256D01*
X2700Y3256D02*
X2778Y3256D01*
X2800Y3256D02*
X2878Y3256D01*
X2000Y3255D02*
X2078Y3255D01*
X2100Y3255D02*
X2178Y3255D01*
X2200Y3255D02*
X2278Y3255D01*
X2300Y3255D02*
X2378Y3255D01*
X2400Y3255D02*
X2478Y3255D01*
X2500Y3255D02*
X2578Y3255D01*
X2600Y3255D02*
X2678Y3255D01*
X2700Y3255D02*
X2778Y3255D01*
X2800Y3255D02*
X2878Y3255D01*
X2001Y3254D02*
X2078Y3254D01*
X2101Y3254D02*
X2178Y3254D01*
X2201Y3254D02*
X2278Y3254D01*
X2301Y3254D02*
X2378Y3254D01*
X2400Y3254D02*
X2478Y3254D01*
X2500Y3254D02*
X2578Y3254D01*
X2600Y3254D02*
X2678Y3254D01*
X2700Y3254D02*
X2778Y3254D01*
X2800Y3254D02*
X2878Y3254D01*
X2001Y3253D02*
X2078Y3253D01*
X2101Y3253D02*
X2178Y3253D01*
X2201Y3253D02*
X2278Y3253D01*
X2301Y3253D02*
X2378Y3253D01*
X2401Y3253D02*
X2478Y3253D01*
X2501Y3253D02*
X2578Y3253D01*
X2601Y3253D02*
X2678Y3253D01*
X2701Y3253D02*
X2778Y3253D01*
X2801Y3253D02*
X2878Y3253D01*
X2001Y3252D02*
X2077Y3252D01*
X2101Y3252D02*
X2177Y3252D01*
X2201Y3252D02*
X2277Y3252D01*
X2301Y3252D02*
X2377Y3252D01*
X2401Y3252D02*
X2477Y3252D01*
X2501Y3252D02*
X2577Y3252D01*
X2601Y3252D02*
X2677Y3252D01*
X2701Y3252D02*
X2777Y3252D01*
X2801Y3252D02*
X2877Y3252D01*
X2001Y3251D02*
X2077Y3251D01*
X2101Y3251D02*
X2177Y3251D01*
X2201Y3251D02*
X2277Y3251D01*
X2301Y3251D02*
X2377Y3251D01*
X2401Y3251D02*
X2477Y3251D01*
X2501Y3251D02*
X2577Y3251D01*
X2601Y3251D02*
X2677Y3251D01*
X2701Y3251D02*
X2777Y3251D01*
X2801Y3251D02*
X2877Y3251D01*
X2002Y3250D02*
X2077Y3250D01*
X2102Y3250D02*
X2177Y3250D01*
X2201Y3250D02*
X2277Y3250D01*
X2301Y3250D02*
X2377Y3250D01*
X2401Y3250D02*
X2477Y3250D01*
X2501Y3250D02*
X2577Y3250D01*
X2601Y3250D02*
X2677Y3250D01*
X2701Y3250D02*
X2777Y3250D01*
X2801Y3250D02*
X2877Y3250D01*
X2002Y3249D02*
X2077Y3249D01*
X2102Y3249D02*
X2177Y3249D01*
X2202Y3249D02*
X2277Y3249D01*
X2302Y3249D02*
X2377Y3249D01*
X2402Y3249D02*
X2477Y3249D01*
X2502Y3249D02*
X2576Y3249D01*
X2602Y3249D02*
X2676Y3249D01*
X2702Y3249D02*
X2776Y3249D01*
X2802Y3249D02*
X2876Y3249D01*
X2002Y3248D02*
X2076Y3248D01*
X2102Y3248D02*
X2176Y3248D01*
X2202Y3248D02*
X2276Y3248D01*
X2302Y3248D02*
X2376Y3248D01*
X2402Y3248D02*
X2476Y3248D01*
X2502Y3248D02*
X2576Y3248D01*
X2602Y3248D02*
X2676Y3248D01*
X2702Y3248D02*
X2776Y3248D01*
X2802Y3248D02*
X2876Y3248D01*
X2003Y3247D02*
X2076Y3247D01*
X2103Y3247D02*
X2176Y3247D01*
X2203Y3247D02*
X2276Y3247D01*
X2303Y3247D02*
X2376Y3247D01*
X2403Y3247D02*
X2476Y3247D01*
X2502Y3247D02*
X2576Y3247D01*
X2602Y3247D02*
X2676Y3247D01*
X2702Y3247D02*
X2776Y3247D01*
X2802Y3247D02*
X2876Y3247D01*
X2003Y3246D02*
X2075Y3246D01*
X2103Y3246D02*
X2175Y3246D01*
X2203Y3246D02*
X2275Y3246D01*
X2303Y3246D02*
X2375Y3246D01*
X2403Y3246D02*
X2475Y3246D01*
X2503Y3246D02*
X2575Y3246D01*
X2603Y3246D02*
X2675Y3246D01*
X2703Y3246D02*
X2775Y3246D01*
X2803Y3246D02*
X2875Y3246D01*
X2003Y3245D02*
X2075Y3245D01*
X2103Y3245D02*
X2175Y3245D01*
X2203Y3245D02*
X2275Y3245D01*
X2303Y3245D02*
X2375Y3245D01*
X2403Y3245D02*
X2475Y3245D01*
X2503Y3245D02*
X2575Y3245D01*
X2603Y3245D02*
X2675Y3245D01*
X2703Y3245D02*
X2775Y3245D01*
X2803Y3245D02*
X2875Y3245D01*
X2004Y3244D02*
X2074Y3244D01*
X2104Y3244D02*
X2174Y3244D01*
X2204Y3244D02*
X2274Y3244D01*
X2304Y3244D02*
X2374Y3244D01*
X2404Y3244D02*
X2474Y3244D01*
X2504Y3244D02*
X2574Y3244D01*
X2604Y3244D02*
X2674Y3244D01*
X2704Y3244D02*
X2774Y3244D01*
X2804Y3244D02*
X2874Y3244D01*
X2004Y3243D02*
X2074Y3243D01*
X2104Y3243D02*
X2174Y3243D01*
X2204Y3243D02*
X2274Y3243D01*
X2304Y3243D02*
X2374Y3243D01*
X2404Y3243D02*
X2474Y3243D01*
X2504Y3243D02*
X2574Y3243D01*
X2604Y3243D02*
X2674Y3243D01*
X2704Y3243D02*
X2774Y3243D01*
X2804Y3243D02*
X2874Y3243D01*
X2005Y3242D02*
X2073Y3242D01*
X2105Y3242D02*
X2173Y3242D01*
X2205Y3242D02*
X2273Y3242D01*
X2305Y3242D02*
X2373Y3242D01*
X2405Y3242D02*
X2473Y3242D01*
X2505Y3242D02*
X2573Y3242D01*
X2605Y3242D02*
X2673Y3242D01*
X2705Y3242D02*
X2773Y3242D01*
X2805Y3242D02*
X2873Y3242D01*
X2006Y3241D02*
X2073Y3241D01*
X2106Y3241D02*
X2173Y3241D01*
X2206Y3241D02*
X2273Y3241D01*
X2306Y3241D02*
X2373Y3241D01*
X2406Y3241D02*
X2473Y3241D01*
X2506Y3241D02*
X2573Y3241D01*
X2606Y3241D02*
X2673Y3241D01*
X2706Y3241D02*
X2773Y3241D01*
X2806Y3241D02*
X2873Y3241D01*
X2006Y3240D02*
X2072Y3240D01*
X2106Y3240D02*
X2172Y3240D01*
X2206Y3240D02*
X2272Y3240D01*
X2306Y3240D02*
X2372Y3240D01*
X2406Y3240D02*
X2472Y3240D01*
X2506Y3240D02*
X2572Y3240D01*
X2606Y3240D02*
X2672Y3240D01*
X2706Y3240D02*
X2772Y3240D01*
X2806Y3240D02*
X2872Y3240D01*
X2007Y3239D02*
X2071Y3239D01*
X2107Y3239D02*
X2171Y3239D01*
X2207Y3239D02*
X2271Y3239D01*
X2307Y3239D02*
X2371Y3239D01*
X2407Y3239D02*
X2471Y3239D01*
X2507Y3239D02*
X2571Y3239D01*
X2607Y3239D02*
X2671Y3239D01*
X2707Y3239D02*
X2771Y3239D01*
X2807Y3239D02*
X2871Y3239D01*
X2008Y3238D02*
X2071Y3238D01*
X2108Y3238D02*
X2171Y3238D01*
X2208Y3238D02*
X2271Y3238D01*
X2308Y3238D02*
X2371Y3238D01*
X2408Y3238D02*
X2471Y3238D01*
X2508Y3238D02*
X2571Y3238D01*
X2608Y3238D02*
X2671Y3238D01*
X2708Y3238D02*
X2771Y3238D01*
X2808Y3238D02*
X2871Y3238D01*
X2008Y3237D02*
X2070Y3237D01*
X2108Y3237D02*
X2170Y3237D01*
X2208Y3237D02*
X2270Y3237D01*
X2308Y3237D02*
X2370Y3237D01*
X2408Y3237D02*
X2470Y3237D01*
X2508Y3237D02*
X2570Y3237D01*
X2608Y3237D02*
X2670Y3237D01*
X2708Y3237D02*
X2770Y3237D01*
X2808Y3237D02*
X2870Y3237D01*
X2009Y3236D02*
X2069Y3236D01*
X2109Y3236D02*
X2169Y3236D01*
X2209Y3236D02*
X2269Y3236D01*
X2309Y3236D02*
X2369Y3236D01*
X2409Y3236D02*
X2469Y3236D01*
X2509Y3236D02*
X2569Y3236D01*
X2609Y3236D02*
X2669Y3236D01*
X2709Y3236D02*
X2769Y3236D01*
X2809Y3236D02*
X2869Y3236D01*
X2010Y3235D02*
X2068Y3235D01*
X2110Y3235D02*
X2168Y3235D01*
X2210Y3235D02*
X2268Y3235D01*
X2310Y3235D02*
X2368Y3235D01*
X2410Y3235D02*
X2468Y3235D01*
X2510Y3235D02*
X2568Y3235D01*
X2610Y3235D02*
X2668Y3235D01*
X2710Y3235D02*
X2768Y3235D01*
X2810Y3235D02*
X2868Y3235D01*
X2011Y3234D02*
X2067Y3234D01*
X2111Y3234D02*
X2167Y3234D01*
X2211Y3234D02*
X2267Y3234D01*
X2311Y3234D02*
X2367Y3234D01*
X2411Y3234D02*
X2467Y3234D01*
X2511Y3234D02*
X2567Y3234D01*
X2611Y3234D02*
X2667Y3234D01*
X2711Y3234D02*
X2767Y3234D01*
X2811Y3234D02*
X2867Y3234D01*
X2012Y3233D02*
X2066Y3233D01*
X2112Y3233D02*
X2166Y3233D01*
X2212Y3233D02*
X2266Y3233D01*
X2312Y3233D02*
X2366Y3233D01*
X2412Y3233D02*
X2466Y3233D01*
X2512Y3233D02*
X2566Y3233D01*
X2612Y3233D02*
X2666Y3233D01*
X2712Y3233D02*
X2766Y3233D01*
X2812Y3233D02*
X2866Y3233D01*
X2013Y3232D02*
X2065Y3232D01*
X2113Y3232D02*
X2165Y3232D01*
X2213Y3232D02*
X2265Y3232D01*
X2313Y3232D02*
X2365Y3232D01*
X2413Y3232D02*
X2465Y3232D01*
X2513Y3232D02*
X2565Y3232D01*
X2613Y3232D02*
X2665Y3232D01*
X2713Y3232D02*
X2765Y3232D01*
X2813Y3232D02*
X2865Y3232D01*
X2014Y3231D02*
X2064Y3231D01*
X2114Y3231D02*
X2164Y3231D01*
X2214Y3231D02*
X2264Y3231D01*
X2314Y3231D02*
X2364Y3231D01*
X2414Y3231D02*
X2464Y3231D01*
X2514Y3231D02*
X2564Y3231D01*
X2614Y3231D02*
X2664Y3231D01*
X2714Y3231D02*
X2764Y3231D01*
X2814Y3231D02*
X2864Y3231D01*
X2016Y3230D02*
X2063Y3230D01*
X2116Y3230D02*
X2163Y3230D01*
X2216Y3230D02*
X2263Y3230D01*
X2316Y3230D02*
X2363Y3230D01*
X2415Y3230D02*
X2463Y3230D01*
X2515Y3230D02*
X2563Y3230D01*
X2615Y3230D02*
X2663Y3230D01*
X2715Y3230D02*
X2763Y3230D01*
X2815Y3230D02*
X2863Y3230D01*
X2017Y3229D02*
X2061Y3229D01*
X2117Y3229D02*
X2161Y3229D01*
X2217Y3229D02*
X2261Y3229D01*
X2317Y3229D02*
X2361Y3229D01*
X2417Y3229D02*
X2461Y3229D01*
X2517Y3229D02*
X2561Y3229D01*
X2617Y3229D02*
X2661Y3229D01*
X2717Y3229D02*
X2761Y3229D01*
X2817Y3229D02*
X2861Y3229D01*
X2018Y3228D02*
X2060Y3228D01*
X2118Y3228D02*
X2160Y3228D01*
X2218Y3228D02*
X2260Y3228D01*
X2318Y3228D02*
X2360Y3228D01*
X2418Y3228D02*
X2460Y3228D01*
X2518Y3228D02*
X2560Y3228D01*
X2618Y3228D02*
X2660Y3228D01*
X2718Y3228D02*
X2760Y3228D01*
X2818Y3228D02*
X2860Y3228D01*
X2020Y3227D02*
X2058Y3227D01*
X2120Y3227D02*
X2158Y3227D01*
X2220Y3227D02*
X2258Y3227D01*
X2320Y3227D02*
X2358Y3227D01*
X2420Y3227D02*
X2458Y3227D01*
X2520Y3227D02*
X2558Y3227D01*
X2620Y3227D02*
X2658Y3227D01*
X2720Y3227D02*
X2758Y3227D01*
X2820Y3227D02*
X2858Y3227D01*
X2022Y3226D02*
X2056Y3226D01*
X2122Y3226D02*
X2156Y3226D01*
X2222Y3226D02*
X2256Y3226D01*
X2322Y3226D02*
X2356Y3226D01*
X2422Y3226D02*
X2456Y3226D01*
X2522Y3226D02*
X2556Y3226D01*
X2622Y3226D02*
X2656Y3226D01*
X2722Y3226D02*
X2756Y3226D01*
X2822Y3226D02*
X2856Y3226D01*
X2024Y3225D02*
X2054Y3225D01*
X2124Y3225D02*
X2154Y3225D01*
X2224Y3225D02*
X2254Y3225D01*
X2324Y3225D02*
X2354Y3225D01*
X2424Y3225D02*
X2454Y3225D01*
X2524Y3225D02*
X2554Y3225D01*
X2624Y3225D02*
X2654Y3225D01*
X2724Y3225D02*
X2754Y3225D01*
X2824Y3225D02*
X2854Y3225D01*
X2027Y3224D02*
X2052Y3224D01*
X2127Y3224D02*
X2152Y3224D01*
X2227Y3224D02*
X2252Y3224D01*
X2327Y3224D02*
X2352Y3224D01*
X2427Y3224D02*
X2452Y3224D01*
X2527Y3224D02*
X2552Y3224D01*
X2627Y3224D02*
X2652Y3224D01*
X2727Y3224D02*
X2752Y3224D01*
X2827Y3224D02*
X2852Y3224D01*
X2030Y3223D02*
X2048Y3223D01*
X2130Y3223D02*
X2148Y3223D01*
X2230Y3223D02*
X2248Y3223D01*
X2330Y3223D02*
X2348Y3223D01*
X2430Y3223D02*
X2448Y3223D01*
X2530Y3223D02*
X2548Y3223D01*
X2630Y3223D02*
X2648Y3223D01*
X2730Y3223D02*
X2748Y3223D01*
X2830Y3223D02*
X2848Y3223D01*
X2036Y3222D02*
X2043Y3222D01*
X2136Y3222D02*
X2143Y3222D01*
X2236Y3222D02*
X2243Y3222D01*
X2336Y3222D02*
X2343Y3222D01*
X2436Y3222D02*
X2443Y3222D01*
X2536Y3222D02*
X2543Y3222D01*
X2636Y3222D02*
X2643Y3222D01*
X2736Y3222D02*
X2742Y3222D01*
X2836Y3222D02*
X2842Y3222D01*
X2032Y3001D02*
X2046Y3001D01*
X2132Y3001D02*
X2146Y3001D01*
X2232Y3001D02*
X2246Y3001D01*
X2332Y3001D02*
X2346Y3001D01*
X2432Y3001D02*
X2446Y3001D01*
X2532Y3001D02*
X2546Y3001D01*
X2632Y3001D02*
X2646Y3001D01*
X2732Y3001D02*
X2746Y3001D01*
X2832Y3001D02*
X2846Y3001D01*
X2028Y3000D02*
X2050Y3000D01*
X2128Y3000D02*
X2150Y3000D01*
X2228Y3000D02*
X2250Y3000D01*
X2328Y3000D02*
X2350Y3000D01*
X2428Y3000D02*
X2450Y3000D01*
X2528Y3000D02*
X2550Y3000D01*
X2628Y3000D02*
X2650Y3000D01*
X2728Y3000D02*
X2750Y3000D01*
X2828Y3000D02*
X2850Y3000D01*
X2025Y2999D02*
X2053Y2999D01*
X2125Y2999D02*
X2153Y2999D01*
X2225Y2999D02*
X2253Y2999D01*
X2325Y2999D02*
X2353Y2999D01*
X2425Y2999D02*
X2453Y2999D01*
X2525Y2999D02*
X2553Y2999D01*
X2625Y2999D02*
X2653Y2999D01*
X2725Y2999D02*
X2753Y2999D01*
X2825Y2999D02*
X2853Y2999D01*
X2023Y2998D02*
X2056Y2998D01*
X2123Y2998D02*
X2156Y2998D01*
X2223Y2998D02*
X2256Y2998D01*
X2323Y2998D02*
X2356Y2998D01*
X2423Y2998D02*
X2456Y2998D01*
X2523Y2998D02*
X2556Y2998D01*
X2623Y2998D02*
X2656Y2998D01*
X2723Y2998D02*
X2756Y2998D01*
X2823Y2998D02*
X2856Y2998D01*
X2021Y2997D02*
X2058Y2997D01*
X2121Y2997D02*
X2158Y2997D01*
X2221Y2997D02*
X2258Y2997D01*
X2321Y2997D02*
X2358Y2997D01*
X2421Y2997D02*
X2458Y2997D01*
X2521Y2997D02*
X2558Y2997D01*
X2621Y2997D02*
X2658Y2997D01*
X2721Y2997D02*
X2758Y2997D01*
X2821Y2997D02*
X2858Y2997D01*
X2019Y2996D02*
X2059Y2996D01*
X2119Y2996D02*
X2159Y2996D01*
X2219Y2996D02*
X2259Y2996D01*
X2319Y2996D02*
X2359Y2996D01*
X2419Y2996D02*
X2459Y2996D01*
X2519Y2996D02*
X2559Y2996D01*
X2619Y2996D02*
X2659Y2996D01*
X2719Y2996D02*
X2759Y2996D01*
X2819Y2996D02*
X2859Y2996D01*
X2018Y2995D02*
X2061Y2995D01*
X2117Y2995D02*
X2161Y2995D01*
X2217Y2995D02*
X2261Y2995D01*
X2317Y2995D02*
X2361Y2995D01*
X2417Y2995D02*
X2461Y2995D01*
X2517Y2995D02*
X2561Y2995D01*
X2617Y2995D02*
X2661Y2995D01*
X2717Y2995D02*
X2761Y2995D01*
X2817Y2995D02*
X2861Y2995D01*
X2016Y2994D02*
X2062Y2994D01*
X2116Y2994D02*
X2162Y2994D01*
X2216Y2994D02*
X2262Y2994D01*
X2316Y2994D02*
X2362Y2994D01*
X2416Y2994D02*
X2462Y2994D01*
X2516Y2994D02*
X2562Y2994D01*
X2616Y2994D02*
X2662Y2994D01*
X2716Y2994D02*
X2762Y2994D01*
X2816Y2994D02*
X2862Y2994D01*
X2015Y2993D02*
X2064Y2993D01*
X2115Y2993D02*
X2164Y2993D01*
X2215Y2993D02*
X2264Y2993D01*
X2315Y2993D02*
X2364Y2993D01*
X2415Y2993D02*
X2464Y2993D01*
X2515Y2993D02*
X2564Y2993D01*
X2615Y2993D02*
X2664Y2993D01*
X2715Y2993D02*
X2764Y2993D01*
X2815Y2993D02*
X2864Y2993D01*
X2014Y2992D02*
X2065Y2992D01*
X2114Y2992D02*
X2165Y2992D01*
X2214Y2992D02*
X2265Y2992D01*
X2314Y2992D02*
X2365Y2992D01*
X2414Y2992D02*
X2465Y2992D01*
X2513Y2992D02*
X2565Y2992D01*
X2613Y2992D02*
X2665Y2992D01*
X2713Y2992D02*
X2765Y2992D01*
X2813Y2992D02*
X2865Y2992D01*
X2012Y2991D02*
X2066Y2991D01*
X2112Y2991D02*
X2166Y2991D01*
X2212Y2991D02*
X2266Y2991D01*
X2312Y2991D02*
X2366Y2991D01*
X2412Y2991D02*
X2466Y2991D01*
X2512Y2991D02*
X2566Y2991D01*
X2612Y2991D02*
X2666Y2991D01*
X2712Y2991D02*
X2766Y2991D01*
X2812Y2991D02*
X2866Y2991D01*
X2011Y2990D02*
X2067Y2990D01*
X2111Y2990D02*
X2167Y2990D01*
X2211Y2990D02*
X2267Y2990D01*
X2311Y2990D02*
X2367Y2990D01*
X2411Y2990D02*
X2467Y2990D01*
X2511Y2990D02*
X2567Y2990D01*
X2611Y2990D02*
X2667Y2990D01*
X2711Y2990D02*
X2767Y2990D01*
X2811Y2990D02*
X2867Y2990D01*
X2010Y2989D02*
X2068Y2989D01*
X2110Y2989D02*
X2168Y2989D01*
X2210Y2989D02*
X2268Y2989D01*
X2310Y2989D02*
X2368Y2989D01*
X2410Y2989D02*
X2468Y2989D01*
X2510Y2989D02*
X2568Y2989D01*
X2610Y2989D02*
X2668Y2989D01*
X2710Y2989D02*
X2768Y2989D01*
X2810Y2989D02*
X2868Y2989D01*
X2010Y2988D02*
X2069Y2988D01*
X2110Y2988D02*
X2169Y2988D01*
X2210Y2988D02*
X2269Y2988D01*
X2310Y2988D02*
X2369Y2988D01*
X2410Y2988D02*
X2469Y2988D01*
X2509Y2988D02*
X2569Y2988D01*
X2609Y2988D02*
X2669Y2988D01*
X2709Y2988D02*
X2769Y2988D01*
X2809Y2988D02*
X2869Y2988D01*
X2009Y2987D02*
X2070Y2987D01*
X2109Y2987D02*
X2170Y2987D01*
X2209Y2987D02*
X2270Y2987D01*
X2309Y2987D02*
X2370Y2987D01*
X2409Y2987D02*
X2470Y2987D01*
X2509Y2987D02*
X2570Y2987D01*
X2609Y2987D02*
X2670Y2987D01*
X2709Y2987D02*
X2770Y2987D01*
X2809Y2987D02*
X2870Y2987D01*
X2008Y2986D02*
X2070Y2986D01*
X2108Y2986D02*
X2170Y2986D01*
X2208Y2986D02*
X2270Y2986D01*
X2308Y2986D02*
X2370Y2986D01*
X2408Y2986D02*
X2470Y2986D01*
X2508Y2986D02*
X2570Y2986D01*
X2608Y2986D02*
X2670Y2986D01*
X2708Y2986D02*
X2770Y2986D01*
X2808Y2986D02*
X2870Y2986D01*
X2007Y2985D02*
X2071Y2985D01*
X2107Y2985D02*
X2171Y2985D01*
X2207Y2985D02*
X2271Y2985D01*
X2307Y2985D02*
X2371Y2985D01*
X2407Y2985D02*
X2471Y2985D01*
X2507Y2985D02*
X2571Y2985D01*
X2607Y2985D02*
X2671Y2985D01*
X2707Y2985D02*
X2771Y2985D01*
X2807Y2985D02*
X2871Y2985D01*
X2007Y2984D02*
X2072Y2984D01*
X2106Y2984D02*
X2172Y2984D01*
X2206Y2984D02*
X2272Y2984D01*
X2306Y2984D02*
X2372Y2984D01*
X2406Y2984D02*
X2472Y2984D01*
X2506Y2984D02*
X2572Y2984D01*
X2606Y2984D02*
X2672Y2984D01*
X2706Y2984D02*
X2772Y2984D01*
X2806Y2984D02*
X2872Y2984D01*
X2006Y2983D02*
X2073Y2983D01*
X2106Y2983D02*
X2172Y2983D01*
X2206Y2983D02*
X2272Y2983D01*
X2306Y2983D02*
X2372Y2983D01*
X2406Y2983D02*
X2472Y2983D01*
X2506Y2983D02*
X2572Y2983D01*
X2606Y2983D02*
X2672Y2983D01*
X2706Y2983D02*
X2772Y2983D01*
X2806Y2983D02*
X2872Y2983D01*
X2005Y2982D02*
X2073Y2982D01*
X2105Y2982D02*
X2173Y2982D01*
X2205Y2982D02*
X2273Y2982D01*
X2305Y2982D02*
X2373Y2982D01*
X2405Y2982D02*
X2473Y2982D01*
X2505Y2982D02*
X2573Y2982D01*
X2605Y2982D02*
X2673Y2982D01*
X2705Y2982D02*
X2773Y2982D01*
X2805Y2982D02*
X2873Y2982D01*
X2005Y2981D02*
X2074Y2981D01*
X2105Y2981D02*
X2174Y2981D01*
X2205Y2981D02*
X2274Y2981D01*
X2305Y2981D02*
X2374Y2981D01*
X2405Y2981D02*
X2474Y2981D01*
X2505Y2981D02*
X2574Y2981D01*
X2605Y2981D02*
X2674Y2981D01*
X2705Y2981D02*
X2774Y2981D01*
X2805Y2981D02*
X2874Y2981D01*
X2004Y2980D02*
X2074Y2980D01*
X2104Y2980D02*
X2174Y2980D01*
X2204Y2980D02*
X2274Y2980D01*
X2304Y2980D02*
X2374Y2980D01*
X2404Y2980D02*
X2474Y2980D01*
X2504Y2980D02*
X2574Y2980D01*
X2604Y2980D02*
X2674Y2980D01*
X2704Y2980D02*
X2774Y2980D01*
X2804Y2980D02*
X2874Y2980D01*
X2004Y2979D02*
X2075Y2979D01*
X2104Y2979D02*
X2175Y2979D01*
X2204Y2979D02*
X2275Y2979D01*
X2304Y2979D02*
X2375Y2979D01*
X2404Y2979D02*
X2475Y2979D01*
X2504Y2979D02*
X2575Y2979D01*
X2604Y2979D02*
X2675Y2979D01*
X2704Y2979D02*
X2775Y2979D01*
X2804Y2979D02*
X2875Y2979D01*
X2003Y2978D02*
X2075Y2978D01*
X2103Y2978D02*
X2175Y2978D01*
X2203Y2978D02*
X2275Y2978D01*
X2303Y2978D02*
X2375Y2978D01*
X2403Y2978D02*
X2475Y2978D01*
X2503Y2978D02*
X2575Y2978D01*
X2603Y2978D02*
X2675Y2978D01*
X2703Y2978D02*
X2775Y2978D01*
X2803Y2978D02*
X2875Y2978D01*
X2003Y2977D02*
X2076Y2977D01*
X2103Y2977D02*
X2176Y2977D01*
X2203Y2977D02*
X2276Y2977D01*
X2303Y2977D02*
X2376Y2977D01*
X2403Y2977D02*
X2476Y2977D01*
X2503Y2977D02*
X2576Y2977D01*
X2603Y2977D02*
X2676Y2977D01*
X2703Y2977D02*
X2776Y2977D01*
X2803Y2977D02*
X2876Y2977D01*
X2002Y2976D02*
X2076Y2976D01*
X2102Y2976D02*
X2176Y2976D01*
X2202Y2976D02*
X2276Y2976D01*
X2302Y2976D02*
X2376Y2976D01*
X2402Y2976D02*
X2476Y2976D01*
X2502Y2976D02*
X2576Y2976D01*
X2602Y2976D02*
X2676Y2976D01*
X2702Y2976D02*
X2776Y2976D01*
X2802Y2976D02*
X2876Y2976D01*
X2002Y2975D02*
X2076Y2975D01*
X2102Y2975D02*
X2176Y2975D01*
X2202Y2975D02*
X2276Y2975D01*
X2302Y2975D02*
X2376Y2975D01*
X2402Y2975D02*
X2476Y2975D01*
X2502Y2975D02*
X2576Y2975D01*
X2602Y2975D02*
X2676Y2975D01*
X2702Y2975D02*
X2776Y2975D01*
X2802Y2975D02*
X2876Y2975D01*
X2002Y2974D02*
X2077Y2974D01*
X2102Y2974D02*
X2177Y2974D01*
X2202Y2974D02*
X2277Y2974D01*
X2302Y2974D02*
X2377Y2974D01*
X2402Y2974D02*
X2477Y2974D01*
X2502Y2974D02*
X2577Y2974D01*
X2602Y2974D02*
X2677Y2974D01*
X2702Y2974D02*
X2777Y2974D01*
X2802Y2974D02*
X2877Y2974D01*
X2001Y2973D02*
X2077Y2973D01*
X2101Y2973D02*
X2177Y2973D01*
X2201Y2973D02*
X2277Y2973D01*
X2301Y2973D02*
X2377Y2973D01*
X2401Y2973D02*
X2477Y2973D01*
X2501Y2973D02*
X2577Y2973D01*
X2601Y2973D02*
X2677Y2973D01*
X2701Y2973D02*
X2777Y2973D01*
X2801Y2973D02*
X2877Y2973D01*
X2001Y2972D02*
X2077Y2972D01*
X2101Y2972D02*
X2177Y2972D01*
X2201Y2972D02*
X2277Y2972D01*
X2301Y2972D02*
X2377Y2972D01*
X2401Y2972D02*
X2477Y2972D01*
X2501Y2972D02*
X2577Y2972D01*
X2601Y2972D02*
X2677Y2972D01*
X2701Y2972D02*
X2777Y2972D01*
X2801Y2972D02*
X2877Y2972D01*
X2001Y2971D02*
X2078Y2971D01*
X2101Y2971D02*
X2178Y2971D01*
X2201Y2971D02*
X2277Y2971D01*
X2301Y2971D02*
X2377Y2971D01*
X2401Y2971D02*
X2477Y2971D01*
X2501Y2971D02*
X2577Y2971D01*
X2601Y2971D02*
X2677Y2971D01*
X2701Y2971D02*
X2777Y2971D01*
X2801Y2971D02*
X2877Y2971D01*
X2001Y2970D02*
X2078Y2970D01*
X2101Y2970D02*
X2178Y2970D01*
X2201Y2970D02*
X2278Y2970D01*
X2301Y2970D02*
X2378Y2970D01*
X2401Y2970D02*
X2478Y2970D01*
X2501Y2970D02*
X2578Y2970D01*
X2601Y2970D02*
X2678Y2970D01*
X2701Y2970D02*
X2778Y2970D01*
X2801Y2970D02*
X2878Y2970D01*
X2000Y2969D02*
X2078Y2969D01*
X2100Y2969D02*
X2178Y2969D01*
X2200Y2969D02*
X2278Y2969D01*
X2300Y2969D02*
X2378Y2969D01*
X2400Y2969D02*
X2478Y2969D01*
X2500Y2969D02*
X2578Y2969D01*
X2600Y2969D02*
X2678Y2969D01*
X2700Y2969D02*
X2778Y2969D01*
X2800Y2969D02*
X2878Y2969D01*
X2000Y2968D02*
X2078Y2968D01*
X2100Y2968D02*
X2178Y2968D01*
X2200Y2968D02*
X2278Y2968D01*
X2300Y2968D02*
X2378Y2968D01*
X2400Y2968D02*
X2478Y2968D01*
X2500Y2968D02*
X2578Y2968D01*
X2600Y2968D02*
X2678Y2968D01*
X2700Y2968D02*
X2778Y2968D01*
X2800Y2968D02*
X2878Y2968D01*
X2000Y2967D02*
X2078Y2967D01*
X2100Y2967D02*
X2178Y2967D01*
X2200Y2967D02*
X2278Y2967D01*
X2300Y2967D02*
X2378Y2967D01*
X2400Y2967D02*
X2478Y2967D01*
X2500Y2967D02*
X2578Y2967D01*
X2600Y2967D02*
X2678Y2967D01*
X2700Y2967D02*
X2778Y2967D01*
X2800Y2967D02*
X2878Y2967D01*
X2000Y2966D02*
X2078Y2966D01*
X2100Y2966D02*
X2178Y2966D01*
X2200Y2966D02*
X2278Y2966D01*
X2300Y2966D02*
X2378Y2966D01*
X2400Y2966D02*
X2478Y2966D01*
X2500Y2966D02*
X2578Y2966D01*
X2600Y2966D02*
X2678Y2966D01*
X2700Y2966D02*
X2778Y2966D01*
X2800Y2966D02*
X2878Y2966D01*
X2000Y2965D02*
X2079Y2965D01*
X2100Y2965D02*
X2178Y2965D01*
X2200Y2965D02*
X2278Y2965D01*
X2300Y2965D02*
X2378Y2965D01*
X2400Y2965D02*
X2478Y2965D01*
X2500Y2965D02*
X2578Y2965D01*
X2600Y2965D02*
X2678Y2965D01*
X2700Y2965D02*
X2778Y2965D01*
X2800Y2965D02*
X2878Y2965D01*
X2000Y2964D02*
X2079Y2964D01*
X2100Y2964D02*
X2179Y2964D01*
X2200Y2964D02*
X2279Y2964D01*
X2300Y2964D02*
X2379Y2964D01*
X2400Y2964D02*
X2479Y2964D01*
X2500Y2964D02*
X2579Y2964D01*
X2600Y2964D02*
X2679Y2964D01*
X2700Y2964D02*
X2778Y2964D01*
X2800Y2964D02*
X2878Y2964D01*
X2000Y2963D02*
X2079Y2963D01*
X2100Y2963D02*
X2179Y2963D01*
X2200Y2963D02*
X2279Y2963D01*
X2300Y2963D02*
X2379Y2963D01*
X2400Y2963D02*
X2479Y2963D01*
X2500Y2963D02*
X2579Y2963D01*
X2600Y2963D02*
X2679Y2963D01*
X2700Y2963D02*
X2779Y2963D01*
X2800Y2963D02*
X2879Y2963D01*
X2000Y2962D02*
X2079Y2962D01*
X2100Y2962D02*
X2179Y2962D01*
X2200Y2962D02*
X2279Y2962D01*
X2300Y2962D02*
X2379Y2962D01*
X2400Y2962D02*
X2479Y2962D01*
X2500Y2962D02*
X2579Y2962D01*
X2600Y2962D02*
X2679Y2962D01*
X2700Y2962D02*
X2779Y2962D01*
X2800Y2962D02*
X2879Y2962D01*
X2000Y2961D02*
X2079Y2961D01*
X2100Y2961D02*
X2179Y2961D01*
X2200Y2961D02*
X2279Y2961D01*
X2300Y2961D02*
X2379Y2961D01*
X2400Y2961D02*
X2479Y2961D01*
X2500Y2961D02*
X2579Y2961D01*
X2600Y2961D02*
X2679Y2961D01*
X2700Y2961D02*
X2779Y2961D01*
X2800Y2961D02*
X2879Y2961D01*
X2000Y2960D02*
X2079Y2960D01*
X2100Y2960D02*
X2179Y2960D01*
X2200Y2960D02*
X2279Y2960D01*
X2300Y2960D02*
X2379Y2960D01*
X2400Y2960D02*
X2479Y2960D01*
X2500Y2960D02*
X2579Y2960D01*
X2600Y2960D02*
X2679Y2960D01*
X2700Y2960D02*
X2779Y2960D01*
X2800Y2960D02*
X2879Y2960D01*
X2000Y2959D02*
X2079Y2959D01*
X2100Y2959D02*
X2179Y2959D01*
X2200Y2959D02*
X2279Y2959D01*
X2300Y2959D02*
X2378Y2959D01*
X2400Y2959D02*
X2478Y2959D01*
X2500Y2959D02*
X2578Y2959D01*
X2600Y2959D02*
X2678Y2959D01*
X2700Y2959D02*
X2778Y2959D01*
X2800Y2959D02*
X2878Y2959D01*
X2000Y2958D02*
X2078Y2958D01*
X2100Y2958D02*
X2178Y2958D01*
X2200Y2958D02*
X2278Y2958D01*
X2300Y2958D02*
X2378Y2958D01*
X2400Y2958D02*
X2478Y2958D01*
X2500Y2958D02*
X2578Y2958D01*
X2600Y2958D02*
X2678Y2958D01*
X2700Y2958D02*
X2778Y2958D01*
X2800Y2958D02*
X2878Y2958D01*
X2000Y2957D02*
X2078Y2957D01*
X2100Y2957D02*
X2178Y2957D01*
X2200Y2957D02*
X2278Y2957D01*
X2300Y2957D02*
X2378Y2957D01*
X2400Y2957D02*
X2478Y2957D01*
X2500Y2957D02*
X2578Y2957D01*
X2600Y2957D02*
X2678Y2957D01*
X2700Y2957D02*
X2778Y2957D01*
X2800Y2957D02*
X2878Y2957D01*
X2000Y2956D02*
X2078Y2956D01*
X2100Y2956D02*
X2178Y2956D01*
X2200Y2956D02*
X2278Y2956D01*
X2300Y2956D02*
X2378Y2956D01*
X2400Y2956D02*
X2478Y2956D01*
X2500Y2956D02*
X2578Y2956D01*
X2600Y2956D02*
X2678Y2956D01*
X2700Y2956D02*
X2778Y2956D01*
X2800Y2956D02*
X2878Y2956D01*
X2000Y2955D02*
X2078Y2955D01*
X2100Y2955D02*
X2178Y2955D01*
X2200Y2955D02*
X2278Y2955D01*
X2300Y2955D02*
X2378Y2955D01*
X2400Y2955D02*
X2478Y2955D01*
X2500Y2955D02*
X2578Y2955D01*
X2600Y2955D02*
X2678Y2955D01*
X2700Y2955D02*
X2778Y2955D01*
X2800Y2955D02*
X2878Y2955D01*
X2001Y2954D02*
X2078Y2954D01*
X2101Y2954D02*
X2178Y2954D01*
X2201Y2954D02*
X2278Y2954D01*
X2301Y2954D02*
X2378Y2954D01*
X2401Y2954D02*
X2478Y2954D01*
X2501Y2954D02*
X2578Y2954D01*
X2600Y2954D02*
X2678Y2954D01*
X2700Y2954D02*
X2778Y2954D01*
X2800Y2954D02*
X2878Y2954D01*
X2001Y2953D02*
X2078Y2953D01*
X2101Y2953D02*
X2178Y2953D01*
X2201Y2953D02*
X2278Y2953D01*
X2301Y2953D02*
X2378Y2953D01*
X2401Y2953D02*
X2478Y2953D01*
X2501Y2953D02*
X2578Y2953D01*
X2601Y2953D02*
X2678Y2953D01*
X2701Y2953D02*
X2778Y2953D01*
X2801Y2953D02*
X2878Y2953D01*
X2001Y2952D02*
X2077Y2952D01*
X2101Y2952D02*
X2177Y2952D01*
X2201Y2952D02*
X2277Y2952D01*
X2301Y2952D02*
X2377Y2952D01*
X2401Y2952D02*
X2477Y2952D01*
X2501Y2952D02*
X2577Y2952D01*
X2601Y2952D02*
X2677Y2952D01*
X2701Y2952D02*
X2777Y2952D01*
X2801Y2952D02*
X2877Y2952D01*
X2001Y2951D02*
X2077Y2951D01*
X2101Y2951D02*
X2177Y2951D01*
X2201Y2951D02*
X2277Y2951D01*
X2301Y2951D02*
X2377Y2951D01*
X2401Y2951D02*
X2477Y2951D01*
X2501Y2951D02*
X2577Y2951D01*
X2601Y2951D02*
X2677Y2951D01*
X2701Y2951D02*
X2777Y2951D01*
X2801Y2951D02*
X2877Y2951D01*
X2002Y2950D02*
X2077Y2950D01*
X2102Y2950D02*
X2177Y2950D01*
X2202Y2950D02*
X2277Y2950D01*
X2302Y2950D02*
X2377Y2950D01*
X2401Y2950D02*
X2477Y2950D01*
X2501Y2950D02*
X2577Y2950D01*
X2601Y2950D02*
X2677Y2950D01*
X2701Y2950D02*
X2777Y2950D01*
X2801Y2950D02*
X2877Y2950D01*
X2002Y2949D02*
X2077Y2949D01*
X2102Y2949D02*
X2177Y2949D01*
X2202Y2949D02*
X2276Y2949D01*
X2302Y2949D02*
X2376Y2949D01*
X2402Y2949D02*
X2476Y2949D01*
X2502Y2949D02*
X2576Y2949D01*
X2602Y2949D02*
X2676Y2949D01*
X2702Y2949D02*
X2776Y2949D01*
X2802Y2949D02*
X2876Y2949D01*
X2002Y2948D02*
X2076Y2948D01*
X2102Y2948D02*
X2176Y2948D01*
X2202Y2948D02*
X2276Y2948D01*
X2302Y2948D02*
X2376Y2948D01*
X2402Y2948D02*
X2476Y2948D01*
X2502Y2948D02*
X2576Y2948D01*
X2602Y2948D02*
X2676Y2948D01*
X2702Y2948D02*
X2776Y2948D01*
X2802Y2948D02*
X2876Y2948D01*
X2003Y2947D02*
X2076Y2947D01*
X2103Y2947D02*
X2176Y2947D01*
X2203Y2947D02*
X2276Y2947D01*
X2303Y2947D02*
X2376Y2947D01*
X2403Y2947D02*
X2476Y2947D01*
X2503Y2947D02*
X2576Y2947D01*
X2603Y2947D02*
X2676Y2947D01*
X2703Y2947D02*
X2776Y2947D01*
X2802Y2947D02*
X2876Y2947D01*
X2003Y2946D02*
X2075Y2946D01*
X2103Y2946D02*
X2175Y2946D01*
X2203Y2946D02*
X2275Y2946D01*
X2303Y2946D02*
X2375Y2946D01*
X2403Y2946D02*
X2475Y2946D01*
X2503Y2946D02*
X2575Y2946D01*
X2603Y2946D02*
X2675Y2946D01*
X2703Y2946D02*
X2775Y2946D01*
X2803Y2946D02*
X2875Y2946D01*
X2003Y2945D02*
X2075Y2945D01*
X2103Y2945D02*
X2175Y2945D01*
X2203Y2945D02*
X2275Y2945D01*
X2303Y2945D02*
X2375Y2945D01*
X2403Y2945D02*
X2475Y2945D01*
X2503Y2945D02*
X2575Y2945D01*
X2603Y2945D02*
X2675Y2945D01*
X2703Y2945D02*
X2775Y2945D01*
X2803Y2945D02*
X2875Y2945D01*
X2004Y2944D02*
X2074Y2944D01*
X2104Y2944D02*
X2174Y2944D01*
X2204Y2944D02*
X2274Y2944D01*
X2304Y2944D02*
X2374Y2944D01*
X2404Y2944D02*
X2474Y2944D01*
X2504Y2944D02*
X2574Y2944D01*
X2604Y2944D02*
X2674Y2944D01*
X2704Y2944D02*
X2774Y2944D01*
X2804Y2944D02*
X2874Y2944D01*
X2004Y2943D02*
X2074Y2943D01*
X2104Y2943D02*
X2174Y2943D01*
X2204Y2943D02*
X2274Y2943D01*
X2304Y2943D02*
X2374Y2943D01*
X2404Y2943D02*
X2474Y2943D01*
X2504Y2943D02*
X2574Y2943D01*
X2604Y2943D02*
X2674Y2943D01*
X2704Y2943D02*
X2774Y2943D01*
X2804Y2943D02*
X2874Y2943D01*
X2005Y2942D02*
X2073Y2942D01*
X2105Y2942D02*
X2173Y2942D01*
X2205Y2942D02*
X2273Y2942D01*
X2305Y2942D02*
X2373Y2942D01*
X2405Y2942D02*
X2473Y2942D01*
X2505Y2942D02*
X2573Y2942D01*
X2605Y2942D02*
X2673Y2942D01*
X2705Y2942D02*
X2773Y2942D01*
X2805Y2942D02*
X2873Y2942D01*
X2006Y2941D02*
X2073Y2941D01*
X2106Y2941D02*
X2173Y2941D01*
X2206Y2941D02*
X2273Y2941D01*
X2306Y2941D02*
X2373Y2941D01*
X2406Y2941D02*
X2473Y2941D01*
X2506Y2941D02*
X2573Y2941D01*
X2606Y2941D02*
X2673Y2941D01*
X2706Y2941D02*
X2773Y2941D01*
X2806Y2941D02*
X2873Y2941D01*
X2006Y2940D02*
X2072Y2940D01*
X2106Y2940D02*
X2172Y2940D01*
X2206Y2940D02*
X2272Y2940D01*
X2306Y2940D02*
X2372Y2940D01*
X2406Y2940D02*
X2472Y2940D01*
X2506Y2940D02*
X2572Y2940D01*
X2606Y2940D02*
X2672Y2940D01*
X2706Y2940D02*
X2772Y2940D01*
X2806Y2940D02*
X2872Y2940D01*
X2007Y2939D02*
X2071Y2939D01*
X2107Y2939D02*
X2171Y2939D01*
X2207Y2939D02*
X2271Y2939D01*
X2307Y2939D02*
X2371Y2939D01*
X2407Y2939D02*
X2471Y2939D01*
X2507Y2939D02*
X2571Y2939D01*
X2607Y2939D02*
X2671Y2939D01*
X2707Y2939D02*
X2771Y2939D01*
X2807Y2939D02*
X2871Y2939D01*
X2008Y2938D02*
X2071Y2938D01*
X2108Y2938D02*
X2171Y2938D01*
X2208Y2938D02*
X2271Y2938D01*
X2308Y2938D02*
X2371Y2938D01*
X2408Y2938D02*
X2471Y2938D01*
X2508Y2938D02*
X2571Y2938D01*
X2608Y2938D02*
X2671Y2938D01*
X2708Y2938D02*
X2771Y2938D01*
X2808Y2938D02*
X2871Y2938D01*
X2008Y2937D02*
X2070Y2937D01*
X2108Y2937D02*
X2170Y2937D01*
X2208Y2937D02*
X2270Y2937D01*
X2308Y2937D02*
X2370Y2937D01*
X2408Y2937D02*
X2470Y2937D01*
X2508Y2937D02*
X2570Y2937D01*
X2608Y2937D02*
X2670Y2937D01*
X2708Y2937D02*
X2770Y2937D01*
X2808Y2937D02*
X2870Y2937D01*
X2009Y2936D02*
X2069Y2936D01*
X2109Y2936D02*
X2169Y2936D01*
X2209Y2936D02*
X2269Y2936D01*
X2309Y2936D02*
X2369Y2936D01*
X2409Y2936D02*
X2469Y2936D01*
X2509Y2936D02*
X2569Y2936D01*
X2609Y2936D02*
X2669Y2936D01*
X2709Y2936D02*
X2769Y2936D01*
X2809Y2936D02*
X2869Y2936D01*
X2010Y2935D02*
X2068Y2935D01*
X2110Y2935D02*
X2168Y2935D01*
X2210Y2935D02*
X2268Y2935D01*
X2310Y2935D02*
X2368Y2935D01*
X2410Y2935D02*
X2468Y2935D01*
X2510Y2935D02*
X2568Y2935D01*
X2610Y2935D02*
X2668Y2935D01*
X2710Y2935D02*
X2768Y2935D01*
X2810Y2935D02*
X2868Y2935D01*
X2011Y2934D02*
X2067Y2934D01*
X2111Y2934D02*
X2167Y2934D01*
X2211Y2934D02*
X2267Y2934D01*
X2311Y2934D02*
X2367Y2934D01*
X2411Y2934D02*
X2467Y2934D01*
X2511Y2934D02*
X2567Y2934D01*
X2611Y2934D02*
X2667Y2934D01*
X2711Y2934D02*
X2767Y2934D01*
X2811Y2934D02*
X2867Y2934D01*
X2012Y2933D02*
X2066Y2933D01*
X2112Y2933D02*
X2166Y2933D01*
X2212Y2933D02*
X2266Y2933D01*
X2312Y2933D02*
X2366Y2933D01*
X2412Y2933D02*
X2466Y2933D01*
X2512Y2933D02*
X2566Y2933D01*
X2612Y2933D02*
X2666Y2933D01*
X2712Y2933D02*
X2766Y2933D01*
X2812Y2933D02*
X2866Y2933D01*
X2013Y2932D02*
X2065Y2932D01*
X2113Y2932D02*
X2165Y2932D01*
X2213Y2932D02*
X2265Y2932D01*
X2313Y2932D02*
X2365Y2932D01*
X2413Y2932D02*
X2465Y2932D01*
X2513Y2932D02*
X2565Y2932D01*
X2613Y2932D02*
X2665Y2932D01*
X2713Y2932D02*
X2765Y2932D01*
X2813Y2932D02*
X2865Y2932D01*
X2014Y2931D02*
X2064Y2931D01*
X2114Y2931D02*
X2164Y2931D01*
X2214Y2931D02*
X2264Y2931D01*
X2314Y2931D02*
X2364Y2931D01*
X2414Y2931D02*
X2464Y2931D01*
X2514Y2931D02*
X2564Y2931D01*
X2614Y2931D02*
X2664Y2931D01*
X2714Y2931D02*
X2764Y2931D01*
X2814Y2931D02*
X2864Y2931D01*
X2016Y2930D02*
X2063Y2930D01*
X2116Y2930D02*
X2163Y2930D01*
X2216Y2930D02*
X2263Y2930D01*
X2316Y2930D02*
X2363Y2930D01*
X2416Y2930D02*
X2463Y2930D01*
X2516Y2930D02*
X2563Y2930D01*
X2616Y2930D02*
X2663Y2930D01*
X2716Y2930D02*
X2763Y2930D01*
X2816Y2930D02*
X2863Y2930D01*
X2017Y2929D02*
X2061Y2929D01*
X2117Y2929D02*
X2161Y2929D01*
X2217Y2929D02*
X2261Y2929D01*
X2317Y2929D02*
X2361Y2929D01*
X2417Y2929D02*
X2461Y2929D01*
X2517Y2929D02*
X2561Y2929D01*
X2617Y2929D02*
X2661Y2929D01*
X2717Y2929D02*
X2761Y2929D01*
X2817Y2929D02*
X2861Y2929D01*
X2019Y2928D02*
X2060Y2928D01*
X2119Y2928D02*
X2160Y2928D01*
X2219Y2928D02*
X2260Y2928D01*
X2319Y2928D02*
X2360Y2928D01*
X2419Y2928D02*
X2460Y2928D01*
X2518Y2928D02*
X2560Y2928D01*
X2618Y2928D02*
X2660Y2928D01*
X2718Y2928D02*
X2760Y2928D01*
X2818Y2928D02*
X2860Y2928D01*
X2020Y2927D02*
X2058Y2927D01*
X2120Y2927D02*
X2158Y2927D01*
X2220Y2927D02*
X2258Y2927D01*
X2320Y2927D02*
X2358Y2927D01*
X2420Y2927D02*
X2458Y2927D01*
X2520Y2927D02*
X2558Y2927D01*
X2620Y2927D02*
X2658Y2927D01*
X2720Y2927D02*
X2758Y2927D01*
X2820Y2927D02*
X2858Y2927D01*
X2022Y2926D02*
X2056Y2926D01*
X2122Y2926D02*
X2156Y2926D01*
X2222Y2926D02*
X2256Y2926D01*
X2322Y2926D02*
X2356Y2926D01*
X2422Y2926D02*
X2456Y2926D01*
X2522Y2926D02*
X2556Y2926D01*
X2622Y2926D02*
X2656Y2926D01*
X2722Y2926D02*
X2756Y2926D01*
X2822Y2926D02*
X2856Y2926D01*
X2024Y2925D02*
X2054Y2925D01*
X2124Y2925D02*
X2154Y2925D01*
X2224Y2925D02*
X2254Y2925D01*
X2324Y2925D02*
X2354Y2925D01*
X2424Y2925D02*
X2454Y2925D01*
X2524Y2925D02*
X2554Y2925D01*
X2624Y2925D02*
X2654Y2925D01*
X2724Y2925D02*
X2754Y2925D01*
X2824Y2925D02*
X2854Y2925D01*
X2027Y2924D02*
X2052Y2924D01*
X2127Y2924D02*
X2152Y2924D01*
X2227Y2924D02*
X2251Y2924D01*
X2327Y2924D02*
X2351Y2924D01*
X2427Y2924D02*
X2451Y2924D01*
X2527Y2924D02*
X2551Y2924D01*
X2627Y2924D02*
X2651Y2924D01*
X2727Y2924D02*
X2751Y2924D01*
X2827Y2924D02*
X2851Y2924D01*
X2031Y2923D02*
X2048Y2923D01*
X2131Y2923D02*
X2148Y2923D01*
X2231Y2923D02*
X2248Y2923D01*
X2330Y2923D02*
X2348Y2923D01*
X2430Y2923D02*
X2448Y2923D01*
X2530Y2923D02*
X2548Y2923D01*
X2630Y2923D02*
X2648Y2923D01*
X2730Y2923D02*
X2748Y2923D01*
X2830Y2923D02*
X2848Y2923D01*
X2037Y2922D02*
X2042Y2922D01*
X2137Y2922D02*
X2142Y2922D01*
X2237Y2922D02*
X2242Y2922D01*
X2337Y2922D02*
X2342Y2922D01*
X2437Y2922D02*
X2442Y2922D01*
X2537Y2922D02*
X2542Y2922D01*
X2637Y2922D02*
X2642Y2922D01*
X2737Y2922D02*
X2742Y2922D01*
X2837Y2922D02*
X2842Y2922D01*
X1531Y2201D02*
X1547Y2201D01*
X1631Y2201D02*
X1647Y2201D01*
X1731Y2201D02*
X1747Y2201D01*
X1831Y2201D02*
X1847Y2201D01*
X1931Y2201D02*
X1947Y2201D01*
X2031Y2201D02*
X2047Y2201D01*
X2131Y2201D02*
X2147Y2201D01*
X2231Y2201D02*
X2247Y2201D01*
X2331Y2201D02*
X2347Y2201D01*
X2431Y2201D02*
X2447Y2201D01*
X2531Y2201D02*
X2547Y2201D01*
X2631Y2201D02*
X2647Y2201D01*
X2731Y2201D02*
X2747Y2201D01*
X2831Y2201D02*
X2847Y2201D01*
X1527Y2200D02*
X1551Y2200D01*
X1627Y2200D02*
X1651Y2200D01*
X1727Y2200D02*
X1751Y2200D01*
X1827Y2200D02*
X1851Y2200D01*
X1927Y2200D02*
X1951Y2200D01*
X2027Y2200D02*
X2051Y2200D01*
X2127Y2200D02*
X2151Y2200D01*
X2227Y2200D02*
X2251Y2200D01*
X2327Y2200D02*
X2351Y2200D01*
X2427Y2200D02*
X2451Y2200D01*
X2527Y2200D02*
X2551Y2200D01*
X2627Y2200D02*
X2651Y2200D01*
X2727Y2200D02*
X2751Y2200D01*
X2827Y2200D02*
X2851Y2200D01*
X1525Y2199D02*
X1554Y2199D01*
X1625Y2199D02*
X1654Y2199D01*
X1725Y2199D02*
X1754Y2199D01*
X1825Y2199D02*
X1854Y2199D01*
X1925Y2199D02*
X1954Y2199D01*
X2025Y2199D02*
X2054Y2199D01*
X2124Y2199D02*
X2154Y2199D01*
X2224Y2199D02*
X2254Y2199D01*
X2324Y2199D02*
X2354Y2199D01*
X2424Y2199D02*
X2454Y2199D01*
X2524Y2199D02*
X2554Y2199D01*
X2624Y2199D02*
X2654Y2199D01*
X2724Y2199D02*
X2754Y2199D01*
X2824Y2199D02*
X2854Y2199D01*
X1522Y2198D02*
X1556Y2198D01*
X1622Y2198D02*
X1656Y2198D01*
X1722Y2198D02*
X1756Y2198D01*
X1822Y2198D02*
X1856Y2198D01*
X1922Y2198D02*
X1956Y2198D01*
X2022Y2198D02*
X2056Y2198D01*
X2122Y2198D02*
X2156Y2198D01*
X2222Y2198D02*
X2256Y2198D01*
X2322Y2198D02*
X2356Y2198D01*
X2422Y2198D02*
X2456Y2198D01*
X2522Y2198D02*
X2556Y2198D01*
X2622Y2198D02*
X2656Y2198D01*
X2722Y2198D02*
X2756Y2198D01*
X2822Y2198D02*
X2856Y2198D01*
X1520Y2197D02*
X1558Y2197D01*
X1620Y2197D02*
X1658Y2197D01*
X1720Y2197D02*
X1758Y2197D01*
X1820Y2197D02*
X1858Y2197D01*
X1920Y2197D02*
X1958Y2197D01*
X2020Y2197D02*
X2058Y2197D01*
X2120Y2197D02*
X2158Y2197D01*
X2220Y2197D02*
X2258Y2197D01*
X2320Y2197D02*
X2358Y2197D01*
X2420Y2197D02*
X2458Y2197D01*
X2520Y2197D02*
X2558Y2197D01*
X2620Y2197D02*
X2658Y2197D01*
X2720Y2197D02*
X2758Y2197D01*
X2820Y2197D02*
X2858Y2197D01*
X1519Y2196D02*
X1560Y2196D01*
X1619Y2196D02*
X1660Y2196D01*
X1719Y2196D02*
X1760Y2196D01*
X1819Y2196D02*
X1860Y2196D01*
X1919Y2196D02*
X1960Y2196D01*
X2019Y2196D02*
X2060Y2196D01*
X2119Y2196D02*
X2160Y2196D01*
X2219Y2196D02*
X2260Y2196D01*
X2319Y2196D02*
X2360Y2196D01*
X2419Y2196D02*
X2460Y2196D01*
X2519Y2196D02*
X2560Y2196D01*
X2619Y2196D02*
X2660Y2196D01*
X2719Y2196D02*
X2760Y2196D01*
X2819Y2196D02*
X2860Y2196D01*
X1517Y2195D02*
X1561Y2195D01*
X1617Y2195D02*
X1661Y2195D01*
X1717Y2195D02*
X1761Y2195D01*
X1817Y2195D02*
X1861Y2195D01*
X1917Y2195D02*
X1961Y2195D01*
X2017Y2195D02*
X2061Y2195D01*
X2117Y2195D02*
X2161Y2195D01*
X2217Y2195D02*
X2261Y2195D01*
X2317Y2195D02*
X2361Y2195D01*
X2417Y2195D02*
X2461Y2195D01*
X2517Y2195D02*
X2561Y2195D01*
X2617Y2195D02*
X2661Y2195D01*
X2717Y2195D02*
X2761Y2195D01*
X2817Y2195D02*
X2861Y2195D01*
X1516Y2194D02*
X1563Y2194D01*
X1616Y2194D02*
X1663Y2194D01*
X1716Y2194D02*
X1763Y2194D01*
X1816Y2194D02*
X1863Y2194D01*
X1916Y2194D02*
X1963Y2194D01*
X2016Y2194D02*
X2063Y2194D01*
X2116Y2194D02*
X2163Y2194D01*
X2216Y2194D02*
X2263Y2194D01*
X2316Y2194D02*
X2363Y2194D01*
X2416Y2194D02*
X2462Y2194D01*
X2516Y2194D02*
X2562Y2194D01*
X2616Y2194D02*
X2662Y2194D01*
X2716Y2194D02*
X2762Y2194D01*
X2816Y2194D02*
X2862Y2194D01*
X1515Y2193D02*
X1564Y2193D01*
X1615Y2193D02*
X1664Y2193D01*
X1715Y2193D02*
X1764Y2193D01*
X1815Y2193D02*
X1864Y2193D01*
X1915Y2193D02*
X1964Y2193D01*
X2014Y2193D02*
X2064Y2193D01*
X2114Y2193D02*
X2164Y2193D01*
X2214Y2193D02*
X2264Y2193D01*
X2314Y2193D02*
X2364Y2193D01*
X2414Y2193D02*
X2464Y2193D01*
X2514Y2193D02*
X2564Y2193D01*
X2614Y2193D02*
X2664Y2193D01*
X2714Y2193D02*
X2764Y2193D01*
X2814Y2193D02*
X2864Y2193D01*
X1513Y2192D02*
X1565Y2192D01*
X1613Y2192D02*
X1665Y2192D01*
X1713Y2192D02*
X1765Y2192D01*
X1813Y2192D02*
X1865Y2192D01*
X1913Y2192D02*
X1965Y2192D01*
X2013Y2192D02*
X2065Y2192D01*
X2113Y2192D02*
X2165Y2192D01*
X2213Y2192D02*
X2265Y2192D01*
X2313Y2192D02*
X2365Y2192D01*
X2413Y2192D02*
X2465Y2192D01*
X2513Y2192D02*
X2565Y2192D01*
X2613Y2192D02*
X2665Y2192D01*
X2713Y2192D02*
X2765Y2192D01*
X2813Y2192D02*
X2865Y2192D01*
X1512Y2191D02*
X1566Y2191D01*
X1612Y2191D02*
X1666Y2191D01*
X1712Y2191D02*
X1766Y2191D01*
X1812Y2191D02*
X1866Y2191D01*
X1912Y2191D02*
X1966Y2191D01*
X2012Y2191D02*
X2066Y2191D01*
X2112Y2191D02*
X2166Y2191D01*
X2212Y2191D02*
X2266Y2191D01*
X2312Y2191D02*
X2366Y2191D01*
X2412Y2191D02*
X2466Y2191D01*
X2512Y2191D02*
X2566Y2191D01*
X2612Y2191D02*
X2666Y2191D01*
X2712Y2191D02*
X2766Y2191D01*
X2812Y2191D02*
X2866Y2191D01*
X1511Y2190D02*
X1567Y2190D01*
X1611Y2190D02*
X1667Y2190D01*
X1711Y2190D02*
X1767Y2190D01*
X1811Y2190D02*
X1867Y2190D01*
X1911Y2190D02*
X1967Y2190D01*
X2011Y2190D02*
X2067Y2190D01*
X2111Y2190D02*
X2167Y2190D01*
X2211Y2190D02*
X2267Y2190D01*
X2311Y2190D02*
X2367Y2190D01*
X2411Y2190D02*
X2467Y2190D01*
X2511Y2190D02*
X2567Y2190D01*
X2611Y2190D02*
X2667Y2190D01*
X2711Y2190D02*
X2767Y2190D01*
X2811Y2190D02*
X2867Y2190D01*
X1510Y2189D02*
X1568Y2189D01*
X1610Y2189D02*
X1668Y2189D01*
X1710Y2189D02*
X1768Y2189D01*
X1810Y2189D02*
X1868Y2189D01*
X1910Y2189D02*
X1968Y2189D01*
X2010Y2189D02*
X2068Y2189D01*
X2110Y2189D02*
X2168Y2189D01*
X2210Y2189D02*
X2268Y2189D01*
X2310Y2189D02*
X2368Y2189D01*
X2410Y2189D02*
X2468Y2189D01*
X2510Y2189D02*
X2568Y2189D01*
X2610Y2189D02*
X2668Y2189D01*
X2710Y2189D02*
X2768Y2189D01*
X2810Y2189D02*
X2868Y2189D01*
X1509Y2188D02*
X1569Y2188D01*
X1609Y2188D02*
X1669Y2188D01*
X1709Y2188D02*
X1769Y2188D01*
X1809Y2188D02*
X1869Y2188D01*
X1909Y2188D02*
X1969Y2188D01*
X2009Y2188D02*
X2069Y2188D01*
X2109Y2188D02*
X2169Y2188D01*
X2209Y2188D02*
X2269Y2188D01*
X2309Y2188D02*
X2369Y2188D01*
X2409Y2188D02*
X2469Y2188D01*
X2509Y2188D02*
X2569Y2188D01*
X2609Y2188D02*
X2669Y2188D01*
X2709Y2188D02*
X2769Y2188D01*
X2809Y2188D02*
X2869Y2188D01*
X1509Y2187D02*
X1570Y2187D01*
X1609Y2187D02*
X1670Y2187D01*
X1709Y2187D02*
X1770Y2187D01*
X1809Y2187D02*
X1870Y2187D01*
X1909Y2187D02*
X1970Y2187D01*
X2009Y2187D02*
X2070Y2187D01*
X2109Y2187D02*
X2170Y2187D01*
X2209Y2187D02*
X2270Y2187D01*
X2309Y2187D02*
X2370Y2187D01*
X2409Y2187D02*
X2470Y2187D01*
X2508Y2187D02*
X2570Y2187D01*
X2608Y2187D02*
X2670Y2187D01*
X2708Y2187D02*
X2770Y2187D01*
X2808Y2187D02*
X2870Y2187D01*
X1508Y2186D02*
X1571Y2186D01*
X1608Y2186D02*
X1671Y2186D01*
X1708Y2186D02*
X1771Y2186D01*
X1808Y2186D02*
X1871Y2186D01*
X1908Y2186D02*
X1971Y2186D01*
X2008Y2186D02*
X2071Y2186D01*
X2108Y2186D02*
X2171Y2186D01*
X2208Y2186D02*
X2271Y2186D01*
X2308Y2186D02*
X2371Y2186D01*
X2408Y2186D02*
X2471Y2186D01*
X2508Y2186D02*
X2571Y2186D01*
X2608Y2186D02*
X2671Y2186D01*
X2708Y2186D02*
X2770Y2186D01*
X2808Y2186D02*
X2870Y2186D01*
X1507Y2185D02*
X1571Y2185D01*
X1607Y2185D02*
X1671Y2185D01*
X1707Y2185D02*
X1771Y2185D01*
X1807Y2185D02*
X1871Y2185D01*
X1907Y2185D02*
X1971Y2185D01*
X2007Y2185D02*
X2071Y2185D01*
X2107Y2185D02*
X2171Y2185D01*
X2207Y2185D02*
X2271Y2185D01*
X2307Y2185D02*
X2371Y2185D01*
X2407Y2185D02*
X2471Y2185D01*
X2507Y2185D02*
X2571Y2185D01*
X2607Y2185D02*
X2671Y2185D01*
X2707Y2185D02*
X2771Y2185D01*
X2807Y2185D02*
X2871Y2185D01*
X1506Y2184D02*
X1572Y2184D01*
X1606Y2184D02*
X1672Y2184D01*
X1706Y2184D02*
X1772Y2184D01*
X1806Y2184D02*
X1872Y2184D01*
X1906Y2184D02*
X1972Y2184D01*
X2006Y2184D02*
X2072Y2184D01*
X2106Y2184D02*
X2172Y2184D01*
X2206Y2184D02*
X2272Y2184D01*
X2306Y2184D02*
X2372Y2184D01*
X2406Y2184D02*
X2472Y2184D01*
X2506Y2184D02*
X2572Y2184D01*
X2606Y2184D02*
X2672Y2184D01*
X2706Y2184D02*
X2772Y2184D01*
X2806Y2184D02*
X2872Y2184D01*
X1506Y2183D02*
X1573Y2183D01*
X1606Y2183D02*
X1673Y2183D01*
X1706Y2183D02*
X1773Y2183D01*
X1806Y2183D02*
X1873Y2183D01*
X1906Y2183D02*
X1973Y2183D01*
X2006Y2183D02*
X2073Y2183D01*
X2106Y2183D02*
X2173Y2183D01*
X2206Y2183D02*
X2273Y2183D01*
X2306Y2183D02*
X2373Y2183D01*
X2406Y2183D02*
X2473Y2183D01*
X2506Y2183D02*
X2573Y2183D01*
X2606Y2183D02*
X2673Y2183D01*
X2706Y2183D02*
X2773Y2183D01*
X2806Y2183D02*
X2873Y2183D01*
X1505Y2182D02*
X1573Y2182D01*
X1605Y2182D02*
X1673Y2182D01*
X1705Y2182D02*
X1773Y2182D01*
X1805Y2182D02*
X1873Y2182D01*
X1905Y2182D02*
X1973Y2182D01*
X2005Y2182D02*
X2073Y2182D01*
X2105Y2182D02*
X2173Y2182D01*
X2205Y2182D02*
X2273Y2182D01*
X2305Y2182D02*
X2373Y2182D01*
X2405Y2182D02*
X2473Y2182D01*
X2505Y2182D02*
X2573Y2182D01*
X2605Y2182D02*
X2673Y2182D01*
X2705Y2182D02*
X2773Y2182D01*
X2805Y2182D02*
X2873Y2182D01*
X1505Y2181D02*
X1574Y2181D01*
X1605Y2181D02*
X1674Y2181D01*
X1705Y2181D02*
X1774Y2181D01*
X1805Y2181D02*
X1874Y2181D01*
X1905Y2181D02*
X1974Y2181D01*
X2005Y2181D02*
X2074Y2181D01*
X2105Y2181D02*
X2174Y2181D01*
X2205Y2181D02*
X2274Y2181D01*
X2305Y2181D02*
X2374Y2181D01*
X2405Y2181D02*
X2474Y2181D01*
X2504Y2181D02*
X2574Y2181D01*
X2604Y2181D02*
X2674Y2181D01*
X2704Y2181D02*
X2774Y2181D01*
X2804Y2181D02*
X2874Y2181D01*
X1504Y2180D02*
X1574Y2180D01*
X1604Y2180D02*
X1674Y2180D01*
X1704Y2180D02*
X1774Y2180D01*
X1804Y2180D02*
X1874Y2180D01*
X1904Y2180D02*
X1974Y2180D01*
X2004Y2180D02*
X2074Y2180D01*
X2104Y2180D02*
X2174Y2180D01*
X2204Y2180D02*
X2274Y2180D01*
X2304Y2180D02*
X2374Y2180D01*
X2404Y2180D02*
X2474Y2180D01*
X2504Y2180D02*
X2574Y2180D01*
X2604Y2180D02*
X2674Y2180D01*
X2704Y2180D02*
X2774Y2180D01*
X2804Y2180D02*
X2874Y2180D01*
X1504Y2179D02*
X1575Y2179D01*
X1604Y2179D02*
X1675Y2179D01*
X1704Y2179D02*
X1775Y2179D01*
X1804Y2179D02*
X1875Y2179D01*
X1904Y2179D02*
X1975Y2179D01*
X2004Y2179D02*
X2075Y2179D01*
X2104Y2179D02*
X2175Y2179D01*
X2204Y2179D02*
X2275Y2179D01*
X2304Y2179D02*
X2375Y2179D01*
X2404Y2179D02*
X2475Y2179D01*
X2503Y2179D02*
X2575Y2179D01*
X2603Y2179D02*
X2675Y2179D01*
X2703Y2179D02*
X2775Y2179D01*
X2803Y2179D02*
X2875Y2179D01*
X1503Y2178D02*
X1575Y2178D01*
X1603Y2178D02*
X1675Y2178D01*
X1703Y2178D02*
X1775Y2178D01*
X1803Y2178D02*
X1875Y2178D01*
X1903Y2178D02*
X1975Y2178D01*
X2003Y2178D02*
X2075Y2178D01*
X2103Y2178D02*
X2175Y2178D01*
X2203Y2178D02*
X2275Y2178D01*
X2303Y2178D02*
X2375Y2178D01*
X2403Y2178D02*
X2475Y2178D01*
X2503Y2178D02*
X2575Y2178D01*
X2603Y2178D02*
X2675Y2178D01*
X2703Y2178D02*
X2775Y2178D01*
X2803Y2178D02*
X2875Y2178D01*
X1503Y2177D02*
X1576Y2177D01*
X1603Y2177D02*
X1676Y2177D01*
X1703Y2177D02*
X1776Y2177D01*
X1803Y2177D02*
X1876Y2177D01*
X1903Y2177D02*
X1976Y2177D01*
X2003Y2177D02*
X2076Y2177D01*
X2103Y2177D02*
X2176Y2177D01*
X2203Y2177D02*
X2276Y2177D01*
X2303Y2177D02*
X2376Y2177D01*
X2403Y2177D02*
X2476Y2177D01*
X2503Y2177D02*
X2576Y2177D01*
X2603Y2177D02*
X2676Y2177D01*
X2703Y2177D02*
X2776Y2177D01*
X2803Y2177D02*
X2876Y2177D01*
X1502Y2176D02*
X1576Y2176D01*
X1602Y2176D02*
X1676Y2176D01*
X1702Y2176D02*
X1776Y2176D01*
X1802Y2176D02*
X1876Y2176D01*
X1902Y2176D02*
X1976Y2176D01*
X2002Y2176D02*
X2076Y2176D01*
X2102Y2176D02*
X2176Y2176D01*
X2202Y2176D02*
X2276Y2176D01*
X2302Y2176D02*
X2376Y2176D01*
X2402Y2176D02*
X2476Y2176D01*
X2502Y2176D02*
X2576Y2176D01*
X2602Y2176D02*
X2676Y2176D01*
X2702Y2176D02*
X2776Y2176D01*
X2802Y2176D02*
X2876Y2176D01*
X1502Y2175D02*
X1577Y2175D01*
X1602Y2175D02*
X1677Y2175D01*
X1702Y2175D02*
X1776Y2175D01*
X1802Y2175D02*
X1876Y2175D01*
X1902Y2175D02*
X1976Y2175D01*
X2002Y2175D02*
X2076Y2175D01*
X2102Y2175D02*
X2176Y2175D01*
X2202Y2175D02*
X2276Y2175D01*
X2302Y2175D02*
X2376Y2175D01*
X2402Y2175D02*
X2476Y2175D01*
X2502Y2175D02*
X2576Y2175D01*
X2602Y2175D02*
X2676Y2175D01*
X2702Y2175D02*
X2776Y2175D01*
X2802Y2175D02*
X2876Y2175D01*
X1502Y2174D02*
X1577Y2174D01*
X1602Y2174D02*
X1677Y2174D01*
X1702Y2174D02*
X1777Y2174D01*
X1802Y2174D02*
X1877Y2174D01*
X1902Y2174D02*
X1977Y2174D01*
X2002Y2174D02*
X2077Y2174D01*
X2102Y2174D02*
X2177Y2174D01*
X2202Y2174D02*
X2277Y2174D01*
X2302Y2174D02*
X2377Y2174D01*
X2402Y2174D02*
X2477Y2174D01*
X2502Y2174D02*
X2577Y2174D01*
X2602Y2174D02*
X2677Y2174D01*
X2702Y2174D02*
X2777Y2174D01*
X2802Y2174D02*
X2877Y2174D01*
X1501Y2173D02*
X1577Y2173D01*
X1601Y2173D02*
X1677Y2173D01*
X1701Y2173D02*
X1777Y2173D01*
X1801Y2173D02*
X1877Y2173D01*
X1901Y2173D02*
X1977Y2173D01*
X2001Y2173D02*
X2077Y2173D01*
X2101Y2173D02*
X2177Y2173D01*
X2201Y2173D02*
X2277Y2173D01*
X2301Y2173D02*
X2377Y2173D01*
X2401Y2173D02*
X2477Y2173D01*
X2501Y2173D02*
X2577Y2173D01*
X2601Y2173D02*
X2677Y2173D01*
X2701Y2173D02*
X2777Y2173D01*
X2801Y2173D02*
X2877Y2173D01*
X1501Y2172D02*
X1577Y2172D01*
X1601Y2172D02*
X1677Y2172D01*
X1701Y2172D02*
X1777Y2172D01*
X1801Y2172D02*
X1877Y2172D01*
X1901Y2172D02*
X1977Y2172D01*
X2001Y2172D02*
X2077Y2172D01*
X2101Y2172D02*
X2177Y2172D01*
X2201Y2172D02*
X2277Y2172D01*
X2301Y2172D02*
X2377Y2172D01*
X2401Y2172D02*
X2477Y2172D01*
X2501Y2172D02*
X2577Y2172D01*
X2601Y2172D02*
X2677Y2172D01*
X2701Y2172D02*
X2777Y2172D01*
X2801Y2172D02*
X2877Y2172D01*
X1501Y2171D02*
X1578Y2171D01*
X1601Y2171D02*
X1678Y2171D01*
X1701Y2171D02*
X1778Y2171D01*
X1801Y2171D02*
X1878Y2171D01*
X1901Y2171D02*
X1978Y2171D01*
X2001Y2171D02*
X2078Y2171D01*
X2101Y2171D02*
X2178Y2171D01*
X2201Y2171D02*
X2278Y2171D01*
X2301Y2171D02*
X2378Y2171D01*
X2401Y2171D02*
X2478Y2171D01*
X2501Y2171D02*
X2578Y2171D01*
X2601Y2171D02*
X2678Y2171D01*
X2701Y2171D02*
X2777Y2171D01*
X2801Y2171D02*
X2877Y2171D01*
X1501Y2170D02*
X1578Y2170D01*
X1601Y2170D02*
X1678Y2170D01*
X1701Y2170D02*
X1778Y2170D01*
X1801Y2170D02*
X1878Y2170D01*
X1901Y2170D02*
X1978Y2170D01*
X2001Y2170D02*
X2078Y2170D01*
X2101Y2170D02*
X2178Y2170D01*
X2201Y2170D02*
X2278Y2170D01*
X2301Y2170D02*
X2378Y2170D01*
X2401Y2170D02*
X2478Y2170D01*
X2501Y2170D02*
X2578Y2170D01*
X2601Y2170D02*
X2678Y2170D01*
X2701Y2170D02*
X2778Y2170D01*
X2801Y2170D02*
X2878Y2170D01*
X1500Y2169D02*
X1578Y2169D01*
X1600Y2169D02*
X1678Y2169D01*
X1700Y2169D02*
X1778Y2169D01*
X1800Y2169D02*
X1878Y2169D01*
X1900Y2169D02*
X1978Y2169D01*
X2000Y2169D02*
X2078Y2169D01*
X2100Y2169D02*
X2178Y2169D01*
X2200Y2169D02*
X2278Y2169D01*
X2300Y2169D02*
X2378Y2169D01*
X2400Y2169D02*
X2478Y2169D01*
X2500Y2169D02*
X2578Y2169D01*
X2600Y2169D02*
X2678Y2169D01*
X2700Y2169D02*
X2778Y2169D01*
X2800Y2169D02*
X2878Y2169D01*
X1500Y2168D02*
X1578Y2168D01*
X1600Y2168D02*
X1678Y2168D01*
X1700Y2168D02*
X1778Y2168D01*
X1800Y2168D02*
X1878Y2168D01*
X1900Y2168D02*
X1978Y2168D01*
X2000Y2168D02*
X2078Y2168D01*
X2100Y2168D02*
X2178Y2168D01*
X2200Y2168D02*
X2278Y2168D01*
X2300Y2168D02*
X2378Y2168D01*
X2400Y2168D02*
X2478Y2168D01*
X2500Y2168D02*
X2578Y2168D01*
X2600Y2168D02*
X2678Y2168D01*
X2700Y2168D02*
X2778Y2168D01*
X2800Y2168D02*
X2878Y2168D01*
X1500Y2167D02*
X1578Y2167D01*
X1600Y2167D02*
X1678Y2167D01*
X1700Y2167D02*
X1778Y2167D01*
X1800Y2167D02*
X1878Y2167D01*
X1900Y2167D02*
X1978Y2167D01*
X2000Y2167D02*
X2078Y2167D01*
X2100Y2167D02*
X2178Y2167D01*
X2200Y2167D02*
X2278Y2167D01*
X2300Y2167D02*
X2378Y2167D01*
X2400Y2167D02*
X2478Y2167D01*
X2500Y2167D02*
X2578Y2167D01*
X2600Y2167D02*
X2678Y2167D01*
X2700Y2167D02*
X2778Y2167D01*
X2800Y2167D02*
X2878Y2167D01*
X1500Y2166D02*
X1578Y2166D01*
X1600Y2166D02*
X1678Y2166D01*
X1700Y2166D02*
X1778Y2166D01*
X1800Y2166D02*
X1878Y2166D01*
X1900Y2166D02*
X1978Y2166D01*
X2000Y2166D02*
X2078Y2166D01*
X2100Y2166D02*
X2178Y2166D01*
X2200Y2166D02*
X2278Y2166D01*
X2300Y2166D02*
X2378Y2166D01*
X2400Y2166D02*
X2478Y2166D01*
X2500Y2166D02*
X2578Y2166D01*
X2600Y2166D02*
X2678Y2166D01*
X2700Y2166D02*
X2778Y2166D01*
X2800Y2166D02*
X2878Y2166D01*
X1500Y2165D02*
X1579Y2165D01*
X1600Y2165D02*
X1679Y2165D01*
X1700Y2165D02*
X1779Y2165D01*
X1800Y2165D02*
X1879Y2165D01*
X1900Y2165D02*
X1979Y2165D01*
X2000Y2165D02*
X2079Y2165D01*
X2100Y2165D02*
X2178Y2165D01*
X2200Y2165D02*
X2278Y2165D01*
X2300Y2165D02*
X2378Y2165D01*
X2400Y2165D02*
X2478Y2165D01*
X2500Y2165D02*
X2578Y2165D01*
X2600Y2165D02*
X2678Y2165D01*
X2700Y2165D02*
X2778Y2165D01*
X2800Y2165D02*
X2878Y2165D01*
X1500Y2164D02*
X1579Y2164D01*
X1600Y2164D02*
X1679Y2164D01*
X1700Y2164D02*
X1779Y2164D01*
X1800Y2164D02*
X1879Y2164D01*
X1900Y2164D02*
X1979Y2164D01*
X2000Y2164D02*
X2079Y2164D01*
X2100Y2164D02*
X2179Y2164D01*
X2200Y2164D02*
X2279Y2164D01*
X2300Y2164D02*
X2379Y2164D01*
X2400Y2164D02*
X2479Y2164D01*
X2500Y2164D02*
X2579Y2164D01*
X2600Y2164D02*
X2679Y2164D01*
X2700Y2164D02*
X2779Y2164D01*
X2800Y2164D02*
X2878Y2164D01*
X1500Y2163D02*
X1579Y2163D01*
X1600Y2163D02*
X1679Y2163D01*
X1700Y2163D02*
X1779Y2163D01*
X1800Y2163D02*
X1879Y2163D01*
X1900Y2163D02*
X1979Y2163D01*
X2000Y2163D02*
X2079Y2163D01*
X2100Y2163D02*
X2179Y2163D01*
X2200Y2163D02*
X2279Y2163D01*
X2300Y2163D02*
X2379Y2163D01*
X2400Y2163D02*
X2479Y2163D01*
X2500Y2163D02*
X2579Y2163D01*
X2600Y2163D02*
X2679Y2163D01*
X2700Y2163D02*
X2779Y2163D01*
X2800Y2163D02*
X2879Y2163D01*
X1500Y2162D02*
X1579Y2162D01*
X1600Y2162D02*
X1679Y2162D01*
X1700Y2162D02*
X1779Y2162D01*
X1800Y2162D02*
X1879Y2162D01*
X1900Y2162D02*
X1979Y2162D01*
X2000Y2162D02*
X2079Y2162D01*
X2100Y2162D02*
X2179Y2162D01*
X2200Y2162D02*
X2279Y2162D01*
X2300Y2162D02*
X2379Y2162D01*
X2400Y2162D02*
X2479Y2162D01*
X2500Y2162D02*
X2579Y2162D01*
X2600Y2162D02*
X2679Y2162D01*
X2700Y2162D02*
X2779Y2162D01*
X2800Y2162D02*
X2879Y2162D01*
X1500Y2161D02*
X1579Y2161D01*
X1600Y2161D02*
X1679Y2161D01*
X1700Y2161D02*
X1779Y2161D01*
X1800Y2161D02*
X1879Y2161D01*
X1900Y2161D02*
X1979Y2161D01*
X2000Y2161D02*
X2079Y2161D01*
X2100Y2161D02*
X2179Y2161D01*
X2200Y2161D02*
X2279Y2161D01*
X2300Y2161D02*
X2379Y2161D01*
X2400Y2161D02*
X2479Y2161D01*
X2500Y2161D02*
X2579Y2161D01*
X2600Y2161D02*
X2679Y2161D01*
X2700Y2161D02*
X2779Y2161D01*
X2800Y2161D02*
X2879Y2161D01*
X1500Y2160D02*
X1579Y2160D01*
X1600Y2160D02*
X1679Y2160D01*
X1700Y2160D02*
X1779Y2160D01*
X1800Y2160D02*
X1879Y2160D01*
X1900Y2160D02*
X1979Y2160D01*
X2000Y2160D02*
X2079Y2160D01*
X2100Y2160D02*
X2179Y2160D01*
X2200Y2160D02*
X2279Y2160D01*
X2300Y2160D02*
X2379Y2160D01*
X2400Y2160D02*
X2479Y2160D01*
X2500Y2160D02*
X2579Y2160D01*
X2600Y2160D02*
X2679Y2160D01*
X2700Y2160D02*
X2779Y2160D01*
X2800Y2160D02*
X2878Y2160D01*
X1500Y2159D02*
X1579Y2159D01*
X1600Y2159D02*
X1679Y2159D01*
X1700Y2159D02*
X1779Y2159D01*
X1800Y2159D02*
X1879Y2159D01*
X1900Y2159D02*
X1979Y2159D01*
X2000Y2159D02*
X2079Y2159D01*
X2100Y2159D02*
X2178Y2159D01*
X2200Y2159D02*
X2278Y2159D01*
X2300Y2159D02*
X2378Y2159D01*
X2400Y2159D02*
X2478Y2159D01*
X2500Y2159D02*
X2578Y2159D01*
X2600Y2159D02*
X2678Y2159D01*
X2700Y2159D02*
X2778Y2159D01*
X2800Y2159D02*
X2878Y2159D01*
X1500Y2158D02*
X1578Y2158D01*
X1600Y2158D02*
X1678Y2158D01*
X1700Y2158D02*
X1778Y2158D01*
X1800Y2158D02*
X1878Y2158D01*
X1900Y2158D02*
X1978Y2158D01*
X2000Y2158D02*
X2078Y2158D01*
X2100Y2158D02*
X2178Y2158D01*
X2200Y2158D02*
X2278Y2158D01*
X2300Y2158D02*
X2378Y2158D01*
X2400Y2158D02*
X2478Y2158D01*
X2500Y2158D02*
X2578Y2158D01*
X2600Y2158D02*
X2678Y2158D01*
X2700Y2158D02*
X2778Y2158D01*
X2800Y2158D02*
X2878Y2158D01*
X1500Y2157D02*
X1578Y2157D01*
X1600Y2157D02*
X1678Y2157D01*
X1700Y2157D02*
X1778Y2157D01*
X1800Y2157D02*
X1878Y2157D01*
X1900Y2157D02*
X1978Y2157D01*
X2000Y2157D02*
X2078Y2157D01*
X2100Y2157D02*
X2178Y2157D01*
X2200Y2157D02*
X2278Y2157D01*
X2300Y2157D02*
X2378Y2157D01*
X2400Y2157D02*
X2478Y2157D01*
X2500Y2157D02*
X2578Y2157D01*
X2600Y2157D02*
X2678Y2157D01*
X2700Y2157D02*
X2778Y2157D01*
X2800Y2157D02*
X2878Y2157D01*
X1500Y2156D02*
X1578Y2156D01*
X1600Y2156D02*
X1678Y2156D01*
X1700Y2156D02*
X1778Y2156D01*
X1800Y2156D02*
X1878Y2156D01*
X1900Y2156D02*
X1978Y2156D01*
X2000Y2156D02*
X2078Y2156D01*
X2100Y2156D02*
X2178Y2156D01*
X2200Y2156D02*
X2278Y2156D01*
X2300Y2156D02*
X2378Y2156D01*
X2400Y2156D02*
X2478Y2156D01*
X2500Y2156D02*
X2578Y2156D01*
X2600Y2156D02*
X2678Y2156D01*
X2700Y2156D02*
X2778Y2156D01*
X2800Y2156D02*
X2878Y2156D01*
X1500Y2155D02*
X1578Y2155D01*
X1600Y2155D02*
X1678Y2155D01*
X1700Y2155D02*
X1778Y2155D01*
X1800Y2155D02*
X1878Y2155D01*
X1900Y2155D02*
X1978Y2155D01*
X2000Y2155D02*
X2078Y2155D01*
X2100Y2155D02*
X2178Y2155D01*
X2200Y2155D02*
X2278Y2155D01*
X2300Y2155D02*
X2378Y2155D01*
X2400Y2155D02*
X2478Y2155D01*
X2500Y2155D02*
X2578Y2155D01*
X2600Y2155D02*
X2678Y2155D01*
X2700Y2155D02*
X2778Y2155D01*
X2800Y2155D02*
X2878Y2155D01*
X1501Y2154D02*
X1578Y2154D01*
X1601Y2154D02*
X1678Y2154D01*
X1701Y2154D02*
X1778Y2154D01*
X1801Y2154D02*
X1878Y2154D01*
X1901Y2154D02*
X1978Y2154D01*
X2001Y2154D02*
X2078Y2154D01*
X2101Y2154D02*
X2178Y2154D01*
X2201Y2154D02*
X2278Y2154D01*
X2301Y2154D02*
X2378Y2154D01*
X2401Y2154D02*
X2478Y2154D01*
X2501Y2154D02*
X2578Y2154D01*
X2601Y2154D02*
X2678Y2154D01*
X2701Y2154D02*
X2778Y2154D01*
X2801Y2154D02*
X2878Y2154D01*
X1501Y2153D02*
X1578Y2153D01*
X1601Y2153D02*
X1678Y2153D01*
X1701Y2153D02*
X1778Y2153D01*
X1801Y2153D02*
X1878Y2153D01*
X1901Y2153D02*
X1978Y2153D01*
X2001Y2153D02*
X2078Y2153D01*
X2101Y2153D02*
X2178Y2153D01*
X2201Y2153D02*
X2278Y2153D01*
X2301Y2153D02*
X2378Y2153D01*
X2401Y2153D02*
X2478Y2153D01*
X2501Y2153D02*
X2578Y2153D01*
X2601Y2153D02*
X2678Y2153D01*
X2701Y2153D02*
X2777Y2153D01*
X2801Y2153D02*
X2877Y2153D01*
X1501Y2152D02*
X1577Y2152D01*
X1601Y2152D02*
X1677Y2152D01*
X1701Y2152D02*
X1777Y2152D01*
X1801Y2152D02*
X1877Y2152D01*
X1901Y2152D02*
X1977Y2152D01*
X2001Y2152D02*
X2077Y2152D01*
X2101Y2152D02*
X2177Y2152D01*
X2201Y2152D02*
X2277Y2152D01*
X2301Y2152D02*
X2377Y2152D01*
X2401Y2152D02*
X2477Y2152D01*
X2501Y2152D02*
X2577Y2152D01*
X2601Y2152D02*
X2677Y2152D01*
X2701Y2152D02*
X2777Y2152D01*
X2801Y2152D02*
X2877Y2152D01*
X1501Y2151D02*
X1577Y2151D01*
X1601Y2151D02*
X1677Y2151D01*
X1701Y2151D02*
X1777Y2151D01*
X1801Y2151D02*
X1877Y2151D01*
X1901Y2151D02*
X1977Y2151D01*
X2001Y2151D02*
X2077Y2151D01*
X2101Y2151D02*
X2177Y2151D01*
X2201Y2151D02*
X2277Y2151D01*
X2301Y2151D02*
X2377Y2151D01*
X2401Y2151D02*
X2477Y2151D01*
X2501Y2151D02*
X2577Y2151D01*
X2601Y2151D02*
X2677Y2151D01*
X2701Y2151D02*
X2777Y2151D01*
X2801Y2151D02*
X2877Y2151D01*
X1502Y2150D02*
X1577Y2150D01*
X1602Y2150D02*
X1677Y2150D01*
X1702Y2150D02*
X1777Y2150D01*
X1802Y2150D02*
X1877Y2150D01*
X1902Y2150D02*
X1977Y2150D01*
X2002Y2150D02*
X2077Y2150D01*
X2102Y2150D02*
X2177Y2150D01*
X2202Y2150D02*
X2277Y2150D01*
X2302Y2150D02*
X2377Y2150D01*
X2402Y2150D02*
X2477Y2150D01*
X2502Y2150D02*
X2577Y2150D01*
X2602Y2150D02*
X2677Y2150D01*
X2702Y2150D02*
X2777Y2150D01*
X2802Y2150D02*
X2877Y2150D01*
X1502Y2149D02*
X1576Y2149D01*
X1602Y2149D02*
X1676Y2149D01*
X1702Y2149D02*
X1776Y2149D01*
X1802Y2149D02*
X1876Y2149D01*
X1902Y2149D02*
X1976Y2149D01*
X2002Y2149D02*
X2076Y2149D01*
X2102Y2149D02*
X2176Y2149D01*
X2202Y2149D02*
X2276Y2149D01*
X2302Y2149D02*
X2376Y2149D01*
X2402Y2149D02*
X2476Y2149D01*
X2502Y2149D02*
X2576Y2149D01*
X2602Y2149D02*
X2676Y2149D01*
X2702Y2149D02*
X2776Y2149D01*
X2802Y2149D02*
X2876Y2149D01*
X1502Y2148D02*
X1576Y2148D01*
X1602Y2148D02*
X1676Y2148D01*
X1702Y2148D02*
X1776Y2148D01*
X1802Y2148D02*
X1876Y2148D01*
X1902Y2148D02*
X1976Y2148D01*
X2002Y2148D02*
X2076Y2148D01*
X2102Y2148D02*
X2176Y2148D01*
X2202Y2148D02*
X2276Y2148D01*
X2302Y2148D02*
X2376Y2148D01*
X2402Y2148D02*
X2476Y2148D01*
X2502Y2148D02*
X2576Y2148D01*
X2602Y2148D02*
X2676Y2148D01*
X2702Y2148D02*
X2776Y2148D01*
X2802Y2148D02*
X2876Y2148D01*
X1503Y2147D02*
X1576Y2147D01*
X1603Y2147D02*
X1676Y2147D01*
X1703Y2147D02*
X1776Y2147D01*
X1803Y2147D02*
X1876Y2147D01*
X1903Y2147D02*
X1976Y2147D01*
X2003Y2147D02*
X2076Y2147D01*
X2103Y2147D02*
X2176Y2147D01*
X2203Y2147D02*
X2276Y2147D01*
X2303Y2147D02*
X2376Y2147D01*
X2403Y2147D02*
X2476Y2147D01*
X2503Y2147D02*
X2576Y2147D01*
X2603Y2147D02*
X2676Y2147D01*
X2703Y2147D02*
X2776Y2147D01*
X2803Y2147D02*
X2876Y2147D01*
X1503Y2146D02*
X1575Y2146D01*
X1603Y2146D02*
X1675Y2146D01*
X1703Y2146D02*
X1775Y2146D01*
X1803Y2146D02*
X1875Y2146D01*
X1903Y2146D02*
X1975Y2146D01*
X2003Y2146D02*
X2075Y2146D01*
X2103Y2146D02*
X2175Y2146D01*
X2203Y2146D02*
X2275Y2146D01*
X2303Y2146D02*
X2375Y2146D01*
X2403Y2146D02*
X2475Y2146D01*
X2503Y2146D02*
X2575Y2146D01*
X2603Y2146D02*
X2675Y2146D01*
X2703Y2146D02*
X2775Y2146D01*
X2803Y2146D02*
X2875Y2146D01*
X1504Y2145D02*
X1575Y2145D01*
X1604Y2145D02*
X1675Y2145D01*
X1704Y2145D02*
X1775Y2145D01*
X1804Y2145D02*
X1875Y2145D01*
X1904Y2145D02*
X1975Y2145D01*
X2004Y2145D02*
X2075Y2145D01*
X2104Y2145D02*
X2175Y2145D01*
X2204Y2145D02*
X2275Y2145D01*
X2304Y2145D02*
X2375Y2145D01*
X2404Y2145D02*
X2475Y2145D01*
X2504Y2145D02*
X2575Y2145D01*
X2604Y2145D02*
X2675Y2145D01*
X2703Y2145D02*
X2775Y2145D01*
X2803Y2145D02*
X2875Y2145D01*
X1504Y2144D02*
X1574Y2144D01*
X1604Y2144D02*
X1674Y2144D01*
X1704Y2144D02*
X1774Y2144D01*
X1804Y2144D02*
X1874Y2144D01*
X1904Y2144D02*
X1974Y2144D01*
X2004Y2144D02*
X2074Y2144D01*
X2104Y2144D02*
X2174Y2144D01*
X2204Y2144D02*
X2274Y2144D01*
X2304Y2144D02*
X2374Y2144D01*
X2404Y2144D02*
X2474Y2144D01*
X2504Y2144D02*
X2574Y2144D01*
X2604Y2144D02*
X2674Y2144D01*
X2704Y2144D02*
X2774Y2144D01*
X2804Y2144D02*
X2874Y2144D01*
X1505Y2143D02*
X1574Y2143D01*
X1605Y2143D02*
X1674Y2143D01*
X1705Y2143D02*
X1774Y2143D01*
X1805Y2143D02*
X1874Y2143D01*
X1905Y2143D02*
X1974Y2143D01*
X2005Y2143D02*
X2074Y2143D01*
X2105Y2143D02*
X2174Y2143D01*
X2205Y2143D02*
X2274Y2143D01*
X2305Y2143D02*
X2374Y2143D01*
X2405Y2143D02*
X2474Y2143D01*
X2505Y2143D02*
X2574Y2143D01*
X2605Y2143D02*
X2674Y2143D01*
X2704Y2143D02*
X2774Y2143D01*
X2804Y2143D02*
X2874Y2143D01*
X1505Y2142D02*
X1573Y2142D01*
X1605Y2142D02*
X1673Y2142D01*
X1705Y2142D02*
X1773Y2142D01*
X1805Y2142D02*
X1873Y2142D01*
X1905Y2142D02*
X1973Y2142D01*
X2005Y2142D02*
X2073Y2142D01*
X2105Y2142D02*
X2173Y2142D01*
X2205Y2142D02*
X2273Y2142D01*
X2305Y2142D02*
X2373Y2142D01*
X2405Y2142D02*
X2473Y2142D01*
X2505Y2142D02*
X2573Y2142D01*
X2605Y2142D02*
X2673Y2142D01*
X2705Y2142D02*
X2773Y2142D01*
X2805Y2142D02*
X2873Y2142D01*
X1506Y2141D02*
X1573Y2141D01*
X1606Y2141D02*
X1673Y2141D01*
X1706Y2141D02*
X1773Y2141D01*
X1806Y2141D02*
X1873Y2141D01*
X1906Y2141D02*
X1973Y2141D01*
X2006Y2141D02*
X2073Y2141D01*
X2106Y2141D02*
X2173Y2141D01*
X2206Y2141D02*
X2273Y2141D01*
X2306Y2141D02*
X2373Y2141D01*
X2406Y2141D02*
X2473Y2141D01*
X2506Y2141D02*
X2573Y2141D01*
X2606Y2141D02*
X2673Y2141D01*
X2706Y2141D02*
X2773Y2141D01*
X2806Y2141D02*
X2873Y2141D01*
X1506Y2140D02*
X1572Y2140D01*
X1606Y2140D02*
X1672Y2140D01*
X1706Y2140D02*
X1772Y2140D01*
X1806Y2140D02*
X1872Y2140D01*
X1906Y2140D02*
X1972Y2140D01*
X2006Y2140D02*
X2072Y2140D01*
X2106Y2140D02*
X2172Y2140D01*
X2206Y2140D02*
X2272Y2140D01*
X2306Y2140D02*
X2372Y2140D01*
X2406Y2140D02*
X2472Y2140D01*
X2506Y2140D02*
X2572Y2140D01*
X2606Y2140D02*
X2672Y2140D01*
X2706Y2140D02*
X2772Y2140D01*
X2806Y2140D02*
X2872Y2140D01*
X1507Y2139D02*
X1571Y2139D01*
X1607Y2139D02*
X1671Y2139D01*
X1707Y2139D02*
X1771Y2139D01*
X1807Y2139D02*
X1871Y2139D01*
X1907Y2139D02*
X1971Y2139D01*
X2007Y2139D02*
X2071Y2139D01*
X2107Y2139D02*
X2171Y2139D01*
X2207Y2139D02*
X2271Y2139D01*
X2307Y2139D02*
X2371Y2139D01*
X2407Y2139D02*
X2471Y2139D01*
X2507Y2139D02*
X2571Y2139D01*
X2607Y2139D02*
X2671Y2139D01*
X2707Y2139D02*
X2771Y2139D01*
X2807Y2139D02*
X2871Y2139D01*
X1508Y2138D02*
X1571Y2138D01*
X1608Y2138D02*
X1671Y2138D01*
X1708Y2138D02*
X1771Y2138D01*
X1808Y2138D02*
X1871Y2138D01*
X1908Y2138D02*
X1971Y2138D01*
X2008Y2138D02*
X2071Y2138D01*
X2108Y2138D02*
X2171Y2138D01*
X2208Y2138D02*
X2271Y2138D01*
X2308Y2138D02*
X2371Y2138D01*
X2408Y2138D02*
X2471Y2138D01*
X2508Y2138D02*
X2571Y2138D01*
X2608Y2138D02*
X2670Y2138D01*
X2708Y2138D02*
X2770Y2138D01*
X2808Y2138D02*
X2870Y2138D01*
X1509Y2137D02*
X1570Y2137D01*
X1609Y2137D02*
X1670Y2137D01*
X1709Y2137D02*
X1770Y2137D01*
X1809Y2137D02*
X1870Y2137D01*
X1909Y2137D02*
X1970Y2137D01*
X2009Y2137D02*
X2070Y2137D01*
X2109Y2137D02*
X2170Y2137D01*
X2209Y2137D02*
X2270Y2137D01*
X2309Y2137D02*
X2370Y2137D01*
X2409Y2137D02*
X2470Y2137D01*
X2509Y2137D02*
X2570Y2137D01*
X2609Y2137D02*
X2670Y2137D01*
X2709Y2137D02*
X2770Y2137D01*
X2808Y2137D02*
X2870Y2137D01*
X1509Y2136D02*
X1569Y2136D01*
X1609Y2136D02*
X1669Y2136D01*
X1709Y2136D02*
X1769Y2136D01*
X1809Y2136D02*
X1869Y2136D01*
X1909Y2136D02*
X1969Y2136D01*
X2009Y2136D02*
X2069Y2136D01*
X2109Y2136D02*
X2169Y2136D01*
X2209Y2136D02*
X2269Y2136D01*
X2309Y2136D02*
X2369Y2136D01*
X2409Y2136D02*
X2469Y2136D01*
X2509Y2136D02*
X2569Y2136D01*
X2609Y2136D02*
X2669Y2136D01*
X2709Y2136D02*
X2769Y2136D01*
X2809Y2136D02*
X2869Y2136D01*
X1510Y2135D02*
X1568Y2135D01*
X1610Y2135D02*
X1668Y2135D01*
X1710Y2135D02*
X1768Y2135D01*
X1810Y2135D02*
X1868Y2135D01*
X1910Y2135D02*
X1968Y2135D01*
X2010Y2135D02*
X2068Y2135D01*
X2110Y2135D02*
X2168Y2135D01*
X2210Y2135D02*
X2268Y2135D01*
X2310Y2135D02*
X2368Y2135D01*
X2410Y2135D02*
X2468Y2135D01*
X2510Y2135D02*
X2568Y2135D01*
X2610Y2135D02*
X2668Y2135D01*
X2710Y2135D02*
X2768Y2135D01*
X2810Y2135D02*
X2868Y2135D01*
X1511Y2134D02*
X1567Y2134D01*
X1611Y2134D02*
X1667Y2134D01*
X1711Y2134D02*
X1767Y2134D01*
X1811Y2134D02*
X1867Y2134D01*
X1911Y2134D02*
X1967Y2134D01*
X2011Y2134D02*
X2067Y2134D01*
X2111Y2134D02*
X2167Y2134D01*
X2211Y2134D02*
X2267Y2134D01*
X2311Y2134D02*
X2367Y2134D01*
X2411Y2134D02*
X2467Y2134D01*
X2511Y2134D02*
X2567Y2134D01*
X2611Y2134D02*
X2667Y2134D01*
X2711Y2134D02*
X2767Y2134D01*
X2811Y2134D02*
X2867Y2134D01*
X1512Y2133D02*
X1566Y2133D01*
X1612Y2133D02*
X1666Y2133D01*
X1712Y2133D02*
X1766Y2133D01*
X1812Y2133D02*
X1866Y2133D01*
X1912Y2133D02*
X1966Y2133D01*
X2012Y2133D02*
X2066Y2133D01*
X2112Y2133D02*
X2166Y2133D01*
X2212Y2133D02*
X2266Y2133D01*
X2312Y2133D02*
X2366Y2133D01*
X2412Y2133D02*
X2466Y2133D01*
X2512Y2133D02*
X2566Y2133D01*
X2612Y2133D02*
X2666Y2133D01*
X2712Y2133D02*
X2766Y2133D01*
X2812Y2133D02*
X2866Y2133D01*
X1513Y2132D02*
X1565Y2132D01*
X1613Y2132D02*
X1665Y2132D01*
X1713Y2132D02*
X1765Y2132D01*
X1813Y2132D02*
X1865Y2132D01*
X1913Y2132D02*
X1965Y2132D01*
X2013Y2132D02*
X2065Y2132D01*
X2113Y2132D02*
X2165Y2132D01*
X2213Y2132D02*
X2265Y2132D01*
X2313Y2132D02*
X2365Y2132D01*
X2413Y2132D02*
X2465Y2132D01*
X2513Y2132D02*
X2565Y2132D01*
X2613Y2132D02*
X2665Y2132D01*
X2713Y2132D02*
X2765Y2132D01*
X2813Y2132D02*
X2865Y2132D01*
X1515Y2131D02*
X1564Y2131D01*
X1615Y2131D02*
X1664Y2131D01*
X1715Y2131D02*
X1764Y2131D01*
X1815Y2131D02*
X1864Y2131D01*
X1915Y2131D02*
X1964Y2131D01*
X2015Y2131D02*
X2064Y2131D01*
X2115Y2131D02*
X2164Y2131D01*
X2215Y2131D02*
X2264Y2131D01*
X2315Y2131D02*
X2364Y2131D01*
X2415Y2131D02*
X2464Y2131D01*
X2514Y2131D02*
X2564Y2131D01*
X2614Y2131D02*
X2664Y2131D01*
X2714Y2131D02*
X2764Y2131D01*
X2814Y2131D02*
X2864Y2131D01*
X1516Y2130D02*
X1563Y2130D01*
X1616Y2130D02*
X1663Y2130D01*
X1716Y2130D02*
X1763Y2130D01*
X1816Y2130D02*
X1863Y2130D01*
X1916Y2130D02*
X1962Y2130D01*
X2016Y2130D02*
X2062Y2130D01*
X2116Y2130D02*
X2162Y2130D01*
X2216Y2130D02*
X2262Y2130D01*
X2316Y2130D02*
X2362Y2130D01*
X2416Y2130D02*
X2462Y2130D01*
X2516Y2130D02*
X2562Y2130D01*
X2616Y2130D02*
X2662Y2130D01*
X2716Y2130D02*
X2762Y2130D01*
X2816Y2130D02*
X2862Y2130D01*
X1517Y2129D02*
X1561Y2129D01*
X1617Y2129D02*
X1661Y2129D01*
X1717Y2129D02*
X1761Y2129D01*
X1817Y2129D02*
X1861Y2129D01*
X1917Y2129D02*
X1961Y2129D01*
X2017Y2129D02*
X2061Y2129D01*
X2117Y2129D02*
X2161Y2129D01*
X2217Y2129D02*
X2261Y2129D01*
X2317Y2129D02*
X2361Y2129D01*
X2417Y2129D02*
X2461Y2129D01*
X2517Y2129D02*
X2561Y2129D01*
X2617Y2129D02*
X2661Y2129D01*
X2717Y2129D02*
X2761Y2129D01*
X2817Y2129D02*
X2861Y2129D01*
X1519Y2128D02*
X1560Y2128D01*
X1619Y2128D02*
X1660Y2128D01*
X1719Y2128D02*
X1760Y2128D01*
X1819Y2128D02*
X1860Y2128D01*
X1919Y2128D02*
X1960Y2128D01*
X2019Y2128D02*
X2060Y2128D01*
X2119Y2128D02*
X2160Y2128D01*
X2219Y2128D02*
X2260Y2128D01*
X2319Y2128D02*
X2360Y2128D01*
X2419Y2128D02*
X2459Y2128D01*
X2519Y2128D02*
X2559Y2128D01*
X2619Y2128D02*
X2659Y2128D01*
X2719Y2128D02*
X2759Y2128D01*
X2819Y2128D02*
X2859Y2128D01*
X1521Y2127D02*
X1558Y2127D01*
X1621Y2127D02*
X1658Y2127D01*
X1721Y2127D02*
X1758Y2127D01*
X1821Y2127D02*
X1858Y2127D01*
X1920Y2127D02*
X1958Y2127D01*
X2020Y2127D02*
X2058Y2127D01*
X2120Y2127D02*
X2158Y2127D01*
X2220Y2127D02*
X2258Y2127D01*
X2320Y2127D02*
X2358Y2127D01*
X2420Y2127D02*
X2458Y2127D01*
X2520Y2127D02*
X2558Y2127D01*
X2620Y2127D02*
X2658Y2127D01*
X2720Y2127D02*
X2758Y2127D01*
X2820Y2127D02*
X2858Y2127D01*
X1522Y2126D02*
X1556Y2126D01*
X1622Y2126D02*
X1656Y2126D01*
X1722Y2126D02*
X1756Y2126D01*
X1822Y2126D02*
X1856Y2126D01*
X1922Y2126D02*
X1956Y2126D01*
X2022Y2126D02*
X2056Y2126D01*
X2122Y2126D02*
X2156Y2126D01*
X2222Y2126D02*
X2256Y2126D01*
X2322Y2126D02*
X2356Y2126D01*
X2422Y2126D02*
X2456Y2126D01*
X2522Y2126D02*
X2556Y2126D01*
X2622Y2126D02*
X2656Y2126D01*
X2722Y2126D02*
X2756Y2126D01*
X2822Y2126D02*
X2856Y2126D01*
X1525Y2125D02*
X1554Y2125D01*
X1625Y2125D02*
X1654Y2125D01*
X1725Y2125D02*
X1754Y2125D01*
X1825Y2125D02*
X1854Y2125D01*
X1925Y2125D02*
X1954Y2125D01*
X2025Y2125D02*
X2054Y2125D01*
X2125Y2125D02*
X2154Y2125D01*
X2225Y2125D02*
X2254Y2125D01*
X2325Y2125D02*
X2354Y2125D01*
X2425Y2125D02*
X2454Y2125D01*
X2525Y2125D02*
X2554Y2125D01*
X2625Y2125D02*
X2654Y2125D01*
X2725Y2125D02*
X2754Y2125D01*
X2825Y2125D02*
X2854Y2125D01*
X1527Y2124D02*
X1551Y2124D01*
X1627Y2124D02*
X1651Y2124D01*
X1727Y2124D02*
X1751Y2124D01*
X1827Y2124D02*
X1851Y2124D01*
X1927Y2124D02*
X1951Y2124D01*
X2027Y2124D02*
X2051Y2124D01*
X2127Y2124D02*
X2151Y2124D01*
X2227Y2124D02*
X2251Y2124D01*
X2327Y2124D02*
X2351Y2124D01*
X2427Y2124D02*
X2451Y2124D01*
X2527Y2124D02*
X2551Y2124D01*
X2627Y2124D02*
X2651Y2124D01*
X2727Y2124D02*
X2751Y2124D01*
X2827Y2124D02*
X2851Y2124D01*
X1531Y2123D02*
X1547Y2123D01*
X1631Y2123D02*
X1647Y2123D01*
X1731Y2123D02*
X1747Y2123D01*
X1831Y2123D02*
X1847Y2123D01*
X1931Y2123D02*
X1947Y2123D01*
X2031Y2123D02*
X2047Y2123D01*
X2131Y2123D02*
X2147Y2123D01*
X2231Y2123D02*
X2247Y2123D01*
X2331Y2123D02*
X2347Y2123D01*
X2431Y2123D02*
X2447Y2123D01*
X2531Y2123D02*
X2547Y2123D01*
X2631Y2123D02*
X2647Y2123D01*
X2731Y2123D02*
X2747Y2123D01*
X2831Y2123D02*
X2847Y2123D01*
X1538Y1902D02*
X1540Y1902D01*
X1638Y1902D02*
X1640Y1902D01*
X1738Y1902D02*
X1740Y1902D01*
X1838Y1902D02*
X1840Y1902D01*
X1938Y1902D02*
X1940Y1902D01*
X2038Y1902D02*
X2040Y1902D01*
X2138Y1902D02*
X2140Y1902D01*
X2238Y1902D02*
X2240Y1902D01*
X2338Y1902D02*
X2340Y1902D01*
X2438Y1902D02*
X2440Y1902D01*
X2538Y1902D02*
X2540Y1902D01*
X2638Y1902D02*
X2640Y1902D01*
X2738Y1902D02*
X2740Y1902D01*
X2838Y1902D02*
X2840Y1902D01*
X1531Y1901D02*
X1548Y1901D01*
X1631Y1901D02*
X1648Y1901D01*
X1731Y1901D02*
X1748Y1901D01*
X1831Y1901D02*
X1848Y1901D01*
X1931Y1901D02*
X1948Y1901D01*
X2031Y1901D02*
X2048Y1901D01*
X2131Y1901D02*
X2147Y1901D01*
X2231Y1901D02*
X2247Y1901D01*
X2331Y1901D02*
X2347Y1901D01*
X2431Y1901D02*
X2447Y1901D01*
X2531Y1901D02*
X2547Y1901D01*
X2631Y1901D02*
X2647Y1901D01*
X2731Y1901D02*
X2747Y1901D01*
X2831Y1901D02*
X2847Y1901D01*
X1527Y1900D02*
X1551Y1900D01*
X1627Y1900D02*
X1651Y1900D01*
X1727Y1900D02*
X1751Y1900D01*
X1827Y1900D02*
X1851Y1900D01*
X1927Y1900D02*
X1951Y1900D01*
X2027Y1900D02*
X2051Y1900D01*
X2127Y1900D02*
X2151Y1900D01*
X2227Y1900D02*
X2251Y1900D01*
X2327Y1900D02*
X2351Y1900D01*
X2427Y1900D02*
X2451Y1900D01*
X2527Y1900D02*
X2551Y1900D01*
X2627Y1900D02*
X2651Y1900D01*
X2727Y1900D02*
X2751Y1900D01*
X2827Y1900D02*
X2851Y1900D01*
X1524Y1899D02*
X1554Y1899D01*
X1624Y1899D02*
X1654Y1899D01*
X1724Y1899D02*
X1754Y1899D01*
X1824Y1899D02*
X1854Y1899D01*
X1924Y1899D02*
X1954Y1899D01*
X2024Y1899D02*
X2054Y1899D01*
X2124Y1899D02*
X2154Y1899D01*
X2224Y1899D02*
X2254Y1899D01*
X2324Y1899D02*
X2354Y1899D01*
X2424Y1899D02*
X2454Y1899D01*
X2524Y1899D02*
X2554Y1899D01*
X2624Y1899D02*
X2654Y1899D01*
X2724Y1899D02*
X2754Y1899D01*
X2824Y1899D02*
X2854Y1899D01*
X1522Y1898D02*
X1556Y1898D01*
X1622Y1898D02*
X1656Y1898D01*
X1722Y1898D02*
X1756Y1898D01*
X1822Y1898D02*
X1856Y1898D01*
X1922Y1898D02*
X1956Y1898D01*
X2022Y1898D02*
X2056Y1898D01*
X2122Y1898D02*
X2156Y1898D01*
X2222Y1898D02*
X2256Y1898D01*
X2322Y1898D02*
X2356Y1898D01*
X2422Y1898D02*
X2456Y1898D01*
X2522Y1898D02*
X2556Y1898D01*
X2622Y1898D02*
X2656Y1898D01*
X2722Y1898D02*
X2756Y1898D01*
X2822Y1898D02*
X2856Y1898D01*
X1520Y1897D02*
X1558Y1897D01*
X1620Y1897D02*
X1658Y1897D01*
X1720Y1897D02*
X1758Y1897D01*
X1820Y1897D02*
X1858Y1897D01*
X1920Y1897D02*
X1958Y1897D01*
X2020Y1897D02*
X2058Y1897D01*
X2120Y1897D02*
X2158Y1897D01*
X2220Y1897D02*
X2258Y1897D01*
X2320Y1897D02*
X2358Y1897D01*
X2420Y1897D02*
X2458Y1897D01*
X2520Y1897D02*
X2558Y1897D01*
X2620Y1897D02*
X2658Y1897D01*
X2720Y1897D02*
X2758Y1897D01*
X2820Y1897D02*
X2858Y1897D01*
X1519Y1896D02*
X1560Y1896D01*
X1619Y1896D02*
X1660Y1896D01*
X1719Y1896D02*
X1760Y1896D01*
X1819Y1896D02*
X1860Y1896D01*
X1919Y1896D02*
X1960Y1896D01*
X2019Y1896D02*
X2060Y1896D01*
X2119Y1896D02*
X2160Y1896D01*
X2219Y1896D02*
X2260Y1896D01*
X2319Y1896D02*
X2360Y1896D01*
X2419Y1896D02*
X2460Y1896D01*
X2519Y1896D02*
X2560Y1896D01*
X2619Y1896D02*
X2660Y1896D01*
X2719Y1896D02*
X2760Y1896D01*
X2819Y1896D02*
X2860Y1896D01*
X1517Y1895D02*
X1561Y1895D01*
X1617Y1895D02*
X1661Y1895D01*
X1717Y1895D02*
X1761Y1895D01*
X1817Y1895D02*
X1861Y1895D01*
X1917Y1895D02*
X1961Y1895D01*
X2017Y1895D02*
X2061Y1895D01*
X2117Y1895D02*
X2161Y1895D01*
X2217Y1895D02*
X2261Y1895D01*
X2317Y1895D02*
X2361Y1895D01*
X2417Y1895D02*
X2461Y1895D01*
X2517Y1895D02*
X2561Y1895D01*
X2617Y1895D02*
X2661Y1895D01*
X2717Y1895D02*
X2761Y1895D01*
X2817Y1895D02*
X2861Y1895D01*
X1516Y1894D02*
X1563Y1894D01*
X1616Y1894D02*
X1663Y1894D01*
X1716Y1894D02*
X1763Y1894D01*
X1816Y1894D02*
X1863Y1894D01*
X1916Y1894D02*
X1963Y1894D01*
X2016Y1894D02*
X2063Y1894D01*
X2116Y1894D02*
X2163Y1894D01*
X2216Y1894D02*
X2263Y1894D01*
X2316Y1894D02*
X2363Y1894D01*
X2416Y1894D02*
X2463Y1894D01*
X2516Y1894D02*
X2563Y1894D01*
X2616Y1894D02*
X2663Y1894D01*
X2716Y1894D02*
X2763Y1894D01*
X2816Y1894D02*
X2863Y1894D01*
X1514Y1893D02*
X1564Y1893D01*
X1614Y1893D02*
X1664Y1893D01*
X1714Y1893D02*
X1764Y1893D01*
X1814Y1893D02*
X1864Y1893D01*
X1914Y1893D02*
X1964Y1893D01*
X2014Y1893D02*
X2064Y1893D01*
X2114Y1893D02*
X2164Y1893D01*
X2214Y1893D02*
X2264Y1893D01*
X2314Y1893D02*
X2364Y1893D01*
X2414Y1893D02*
X2464Y1893D01*
X2514Y1893D02*
X2564Y1893D01*
X2614Y1893D02*
X2664Y1893D01*
X2714Y1893D02*
X2764Y1893D01*
X2814Y1893D02*
X2864Y1893D01*
X1513Y1892D02*
X1565Y1892D01*
X1613Y1892D02*
X1665Y1892D01*
X1713Y1892D02*
X1765Y1892D01*
X1813Y1892D02*
X1865Y1892D01*
X1913Y1892D02*
X1965Y1892D01*
X2013Y1892D02*
X2065Y1892D01*
X2113Y1892D02*
X2165Y1892D01*
X2213Y1892D02*
X2265Y1892D01*
X2313Y1892D02*
X2365Y1892D01*
X2413Y1892D02*
X2465Y1892D01*
X2513Y1892D02*
X2565Y1892D01*
X2613Y1892D02*
X2665Y1892D01*
X2713Y1892D02*
X2765Y1892D01*
X2813Y1892D02*
X2865Y1892D01*
X1512Y1891D02*
X1566Y1891D01*
X1612Y1891D02*
X1666Y1891D01*
X1712Y1891D02*
X1766Y1891D01*
X1812Y1891D02*
X1866Y1891D01*
X1912Y1891D02*
X1966Y1891D01*
X2012Y1891D02*
X2066Y1891D01*
X2112Y1891D02*
X2166Y1891D01*
X2212Y1891D02*
X2266Y1891D01*
X2312Y1891D02*
X2366Y1891D01*
X2412Y1891D02*
X2466Y1891D01*
X2512Y1891D02*
X2566Y1891D01*
X2612Y1891D02*
X2666Y1891D01*
X2712Y1891D02*
X2766Y1891D01*
X2812Y1891D02*
X2866Y1891D01*
X1511Y1890D02*
X1567Y1890D01*
X1611Y1890D02*
X1667Y1890D01*
X1711Y1890D02*
X1767Y1890D01*
X1811Y1890D02*
X1867Y1890D01*
X1911Y1890D02*
X1967Y1890D01*
X2011Y1890D02*
X2067Y1890D01*
X2111Y1890D02*
X2167Y1890D01*
X2211Y1890D02*
X2267Y1890D01*
X2311Y1890D02*
X2367Y1890D01*
X2411Y1890D02*
X2467Y1890D01*
X2511Y1890D02*
X2567Y1890D01*
X2611Y1890D02*
X2667Y1890D01*
X2711Y1890D02*
X2767Y1890D01*
X2811Y1890D02*
X2867Y1890D01*
X1510Y1889D02*
X1568Y1889D01*
X1610Y1889D02*
X1668Y1889D01*
X1710Y1889D02*
X1768Y1889D01*
X1810Y1889D02*
X1868Y1889D01*
X1910Y1889D02*
X1968Y1889D01*
X2010Y1889D02*
X2068Y1889D01*
X2110Y1889D02*
X2168Y1889D01*
X2210Y1889D02*
X2268Y1889D01*
X2310Y1889D02*
X2368Y1889D01*
X2410Y1889D02*
X2468Y1889D01*
X2510Y1889D02*
X2568Y1889D01*
X2610Y1889D02*
X2668Y1889D01*
X2710Y1889D02*
X2768Y1889D01*
X2810Y1889D02*
X2868Y1889D01*
X1509Y1888D02*
X1569Y1888D01*
X1609Y1888D02*
X1669Y1888D01*
X1709Y1888D02*
X1769Y1888D01*
X1809Y1888D02*
X1869Y1888D01*
X1909Y1888D02*
X1969Y1888D01*
X2009Y1888D02*
X2069Y1888D01*
X2109Y1888D02*
X2169Y1888D01*
X2209Y1888D02*
X2269Y1888D01*
X2309Y1888D02*
X2369Y1888D01*
X2409Y1888D02*
X2469Y1888D01*
X2509Y1888D02*
X2569Y1888D01*
X2609Y1888D02*
X2669Y1888D01*
X2709Y1888D02*
X2769Y1888D01*
X2809Y1888D02*
X2869Y1888D01*
X1509Y1887D02*
X1570Y1887D01*
X1609Y1887D02*
X1670Y1887D01*
X1709Y1887D02*
X1770Y1887D01*
X1809Y1887D02*
X1870Y1887D01*
X1909Y1887D02*
X1970Y1887D01*
X2008Y1887D02*
X2070Y1887D01*
X2108Y1887D02*
X2170Y1887D01*
X2208Y1887D02*
X2270Y1887D01*
X2308Y1887D02*
X2370Y1887D01*
X2408Y1887D02*
X2470Y1887D01*
X2508Y1887D02*
X2570Y1887D01*
X2608Y1887D02*
X2670Y1887D01*
X2708Y1887D02*
X2770Y1887D01*
X2808Y1887D02*
X2870Y1887D01*
X1508Y1886D02*
X1571Y1886D01*
X1608Y1886D02*
X1671Y1886D01*
X1708Y1886D02*
X1771Y1886D01*
X1808Y1886D02*
X1871Y1886D01*
X1908Y1886D02*
X1971Y1886D01*
X2008Y1886D02*
X2071Y1886D01*
X2108Y1886D02*
X2171Y1886D01*
X2208Y1886D02*
X2271Y1886D01*
X2308Y1886D02*
X2371Y1886D01*
X2408Y1886D02*
X2471Y1886D01*
X2508Y1886D02*
X2571Y1886D01*
X2608Y1886D02*
X2671Y1886D01*
X2708Y1886D02*
X2771Y1886D01*
X2808Y1886D02*
X2871Y1886D01*
X1507Y1885D02*
X1571Y1885D01*
X1607Y1885D02*
X1671Y1885D01*
X1707Y1885D02*
X1771Y1885D01*
X1807Y1885D02*
X1871Y1885D01*
X1907Y1885D02*
X1971Y1885D01*
X2007Y1885D02*
X2071Y1885D01*
X2107Y1885D02*
X2171Y1885D01*
X2207Y1885D02*
X2271Y1885D01*
X2307Y1885D02*
X2371Y1885D01*
X2407Y1885D02*
X2471Y1885D01*
X2507Y1885D02*
X2571Y1885D01*
X2607Y1885D02*
X2671Y1885D01*
X2707Y1885D02*
X2771Y1885D01*
X2807Y1885D02*
X2871Y1885D01*
X1506Y1884D02*
X1572Y1884D01*
X1606Y1884D02*
X1672Y1884D01*
X1706Y1884D02*
X1772Y1884D01*
X1806Y1884D02*
X1872Y1884D01*
X1906Y1884D02*
X1972Y1884D01*
X2006Y1884D02*
X2072Y1884D01*
X2106Y1884D02*
X2172Y1884D01*
X2206Y1884D02*
X2272Y1884D01*
X2306Y1884D02*
X2372Y1884D01*
X2406Y1884D02*
X2472Y1884D01*
X2506Y1884D02*
X2572Y1884D01*
X2606Y1884D02*
X2672Y1884D01*
X2706Y1884D02*
X2772Y1884D01*
X2806Y1884D02*
X2872Y1884D01*
X1506Y1883D02*
X1573Y1883D01*
X1606Y1883D02*
X1673Y1883D01*
X1706Y1883D02*
X1773Y1883D01*
X1806Y1883D02*
X1873Y1883D01*
X1906Y1883D02*
X1973Y1883D01*
X2006Y1883D02*
X2073Y1883D01*
X2106Y1883D02*
X2173Y1883D01*
X2206Y1883D02*
X2273Y1883D01*
X2306Y1883D02*
X2373Y1883D01*
X2406Y1883D02*
X2473Y1883D01*
X2506Y1883D02*
X2573Y1883D01*
X2606Y1883D02*
X2673Y1883D01*
X2706Y1883D02*
X2773Y1883D01*
X2806Y1883D02*
X2873Y1883D01*
X1505Y1882D02*
X1573Y1882D01*
X1605Y1882D02*
X1673Y1882D01*
X1705Y1882D02*
X1773Y1882D01*
X1805Y1882D02*
X1873Y1882D01*
X1905Y1882D02*
X1973Y1882D01*
X2005Y1882D02*
X2073Y1882D01*
X2105Y1882D02*
X2173Y1882D01*
X2205Y1882D02*
X2273Y1882D01*
X2305Y1882D02*
X2373Y1882D01*
X2405Y1882D02*
X2473Y1882D01*
X2505Y1882D02*
X2573Y1882D01*
X2605Y1882D02*
X2673Y1882D01*
X2705Y1882D02*
X2773Y1882D01*
X2805Y1882D02*
X2873Y1882D01*
X1505Y1881D02*
X1574Y1881D01*
X1605Y1881D02*
X1674Y1881D01*
X1705Y1881D02*
X1774Y1881D01*
X1805Y1881D02*
X1874Y1881D01*
X1905Y1881D02*
X1974Y1881D01*
X2005Y1881D02*
X2074Y1881D01*
X2105Y1881D02*
X2174Y1881D01*
X2204Y1881D02*
X2274Y1881D01*
X2304Y1881D02*
X2374Y1881D01*
X2404Y1881D02*
X2474Y1881D01*
X2504Y1881D02*
X2574Y1881D01*
X2604Y1881D02*
X2674Y1881D01*
X2704Y1881D02*
X2774Y1881D01*
X2804Y1881D02*
X2874Y1881D01*
X1504Y1880D02*
X1574Y1880D01*
X1604Y1880D02*
X1674Y1880D01*
X1704Y1880D02*
X1774Y1880D01*
X1804Y1880D02*
X1874Y1880D01*
X1904Y1880D02*
X1974Y1880D01*
X2004Y1880D02*
X2074Y1880D01*
X2104Y1880D02*
X2174Y1880D01*
X2204Y1880D02*
X2274Y1880D01*
X2304Y1880D02*
X2374Y1880D01*
X2404Y1880D02*
X2474Y1880D01*
X2504Y1880D02*
X2574Y1880D01*
X2604Y1880D02*
X2674Y1880D01*
X2704Y1880D02*
X2774Y1880D01*
X2804Y1880D02*
X2874Y1880D01*
X1504Y1879D02*
X1575Y1879D01*
X1604Y1879D02*
X1675Y1879D01*
X1704Y1879D02*
X1775Y1879D01*
X1804Y1879D02*
X1875Y1879D01*
X1904Y1879D02*
X1975Y1879D01*
X2004Y1879D02*
X2075Y1879D01*
X2104Y1879D02*
X2175Y1879D01*
X2203Y1879D02*
X2275Y1879D01*
X2303Y1879D02*
X2375Y1879D01*
X2403Y1879D02*
X2475Y1879D01*
X2503Y1879D02*
X2575Y1879D01*
X2603Y1879D02*
X2675Y1879D01*
X2703Y1879D02*
X2775Y1879D01*
X2803Y1879D02*
X2875Y1879D01*
X1503Y1878D02*
X1575Y1878D01*
X1603Y1878D02*
X1675Y1878D01*
X1703Y1878D02*
X1775Y1878D01*
X1803Y1878D02*
X1875Y1878D01*
X1903Y1878D02*
X1975Y1878D01*
X2003Y1878D02*
X2075Y1878D01*
X2103Y1878D02*
X2175Y1878D01*
X2203Y1878D02*
X2275Y1878D01*
X2303Y1878D02*
X2375Y1878D01*
X2403Y1878D02*
X2475Y1878D01*
X2503Y1878D02*
X2575Y1878D01*
X2603Y1878D02*
X2675Y1878D01*
X2703Y1878D02*
X2775Y1878D01*
X2803Y1878D02*
X2875Y1878D01*
X1503Y1877D02*
X1576Y1877D01*
X1603Y1877D02*
X1676Y1877D01*
X1703Y1877D02*
X1776Y1877D01*
X1803Y1877D02*
X1876Y1877D01*
X1903Y1877D02*
X1976Y1877D01*
X2003Y1877D02*
X2076Y1877D01*
X2103Y1877D02*
X2176Y1877D01*
X2203Y1877D02*
X2276Y1877D01*
X2303Y1877D02*
X2376Y1877D01*
X2403Y1877D02*
X2476Y1877D01*
X2503Y1877D02*
X2576Y1877D01*
X2603Y1877D02*
X2676Y1877D01*
X2703Y1877D02*
X2776Y1877D01*
X2803Y1877D02*
X2876Y1877D01*
X1502Y1876D02*
X1576Y1876D01*
X1602Y1876D02*
X1676Y1876D01*
X1702Y1876D02*
X1776Y1876D01*
X1802Y1876D02*
X1876Y1876D01*
X1902Y1876D02*
X1976Y1876D01*
X2002Y1876D02*
X2076Y1876D01*
X2102Y1876D02*
X2176Y1876D01*
X2202Y1876D02*
X2276Y1876D01*
X2302Y1876D02*
X2376Y1876D01*
X2402Y1876D02*
X2476Y1876D01*
X2502Y1876D02*
X2576Y1876D01*
X2602Y1876D02*
X2676Y1876D01*
X2702Y1876D02*
X2776Y1876D01*
X2802Y1876D02*
X2876Y1876D01*
X1502Y1875D02*
X1577Y1875D01*
X1602Y1875D02*
X1677Y1875D01*
X1702Y1875D02*
X1777Y1875D01*
X1802Y1875D02*
X1876Y1875D01*
X1902Y1875D02*
X1976Y1875D01*
X2002Y1875D02*
X2076Y1875D01*
X2102Y1875D02*
X2176Y1875D01*
X2202Y1875D02*
X2276Y1875D01*
X2302Y1875D02*
X2376Y1875D01*
X2402Y1875D02*
X2476Y1875D01*
X2502Y1875D02*
X2576Y1875D01*
X2602Y1875D02*
X2676Y1875D01*
X2702Y1875D02*
X2776Y1875D01*
X2802Y1875D02*
X2876Y1875D01*
X1502Y1874D02*
X1577Y1874D01*
X1602Y1874D02*
X1677Y1874D01*
X1702Y1874D02*
X1777Y1874D01*
X1802Y1874D02*
X1877Y1874D01*
X1902Y1874D02*
X1977Y1874D01*
X2002Y1874D02*
X2077Y1874D01*
X2102Y1874D02*
X2177Y1874D01*
X2202Y1874D02*
X2277Y1874D01*
X2302Y1874D02*
X2377Y1874D01*
X2402Y1874D02*
X2477Y1874D01*
X2502Y1874D02*
X2577Y1874D01*
X2602Y1874D02*
X2677Y1874D01*
X2701Y1874D02*
X2777Y1874D01*
X2801Y1874D02*
X2877Y1874D01*
X1501Y1873D02*
X1577Y1873D01*
X1601Y1873D02*
X1677Y1873D01*
X1701Y1873D02*
X1777Y1873D01*
X1801Y1873D02*
X1877Y1873D01*
X1901Y1873D02*
X1977Y1873D01*
X2001Y1873D02*
X2077Y1873D01*
X2101Y1873D02*
X2177Y1873D01*
X2201Y1873D02*
X2277Y1873D01*
X2301Y1873D02*
X2377Y1873D01*
X2401Y1873D02*
X2477Y1873D01*
X2501Y1873D02*
X2577Y1873D01*
X2601Y1873D02*
X2677Y1873D01*
X2701Y1873D02*
X2777Y1873D01*
X2801Y1873D02*
X2877Y1873D01*
X1501Y1872D02*
X1577Y1872D01*
X1601Y1872D02*
X1677Y1872D01*
X1701Y1872D02*
X1777Y1872D01*
X1801Y1872D02*
X1877Y1872D01*
X1901Y1872D02*
X1977Y1872D01*
X2001Y1872D02*
X2077Y1872D01*
X2101Y1872D02*
X2177Y1872D01*
X2201Y1872D02*
X2277Y1872D01*
X2301Y1872D02*
X2377Y1872D01*
X2401Y1872D02*
X2477Y1872D01*
X2501Y1872D02*
X2577Y1872D01*
X2601Y1872D02*
X2677Y1872D01*
X2701Y1872D02*
X2777Y1872D01*
X2801Y1872D02*
X2877Y1872D01*
X1501Y1871D02*
X1578Y1871D01*
X1601Y1871D02*
X1678Y1871D01*
X1701Y1871D02*
X1778Y1871D01*
X1801Y1871D02*
X1878Y1871D01*
X1901Y1871D02*
X1978Y1871D01*
X2001Y1871D02*
X2078Y1871D01*
X2101Y1871D02*
X2178Y1871D01*
X2201Y1871D02*
X2278Y1871D01*
X2301Y1871D02*
X2378Y1871D01*
X2401Y1871D02*
X2478Y1871D01*
X2501Y1871D02*
X2578Y1871D01*
X2601Y1871D02*
X2678Y1871D01*
X2701Y1871D02*
X2778Y1871D01*
X2801Y1871D02*
X2878Y1871D01*
X1501Y1870D02*
X1578Y1870D01*
X1601Y1870D02*
X1678Y1870D01*
X1701Y1870D02*
X1778Y1870D01*
X1801Y1870D02*
X1878Y1870D01*
X1901Y1870D02*
X1978Y1870D01*
X2001Y1870D02*
X2078Y1870D01*
X2101Y1870D02*
X2178Y1870D01*
X2201Y1870D02*
X2278Y1870D01*
X2301Y1870D02*
X2378Y1870D01*
X2401Y1870D02*
X2478Y1870D01*
X2501Y1870D02*
X2578Y1870D01*
X2601Y1870D02*
X2678Y1870D01*
X2700Y1870D02*
X2778Y1870D01*
X2800Y1870D02*
X2878Y1870D01*
X1500Y1869D02*
X1578Y1869D01*
X1600Y1869D02*
X1678Y1869D01*
X1700Y1869D02*
X1778Y1869D01*
X1800Y1869D02*
X1878Y1869D01*
X1900Y1869D02*
X1978Y1869D01*
X2000Y1869D02*
X2078Y1869D01*
X2100Y1869D02*
X2178Y1869D01*
X2200Y1869D02*
X2278Y1869D01*
X2300Y1869D02*
X2378Y1869D01*
X2400Y1869D02*
X2478Y1869D01*
X2500Y1869D02*
X2578Y1869D01*
X2600Y1869D02*
X2678Y1869D01*
X2700Y1869D02*
X2778Y1869D01*
X2800Y1869D02*
X2878Y1869D01*
X1500Y1868D02*
X1578Y1868D01*
X1600Y1868D02*
X1678Y1868D01*
X1700Y1868D02*
X1778Y1868D01*
X1800Y1868D02*
X1878Y1868D01*
X1900Y1868D02*
X1978Y1868D01*
X2000Y1868D02*
X2078Y1868D01*
X2100Y1868D02*
X2178Y1868D01*
X2200Y1868D02*
X2278Y1868D01*
X2300Y1868D02*
X2378Y1868D01*
X2400Y1868D02*
X2478Y1868D01*
X2500Y1868D02*
X2578Y1868D01*
X2600Y1868D02*
X2678Y1868D01*
X2700Y1868D02*
X2778Y1868D01*
X2800Y1868D02*
X2878Y1868D01*
X1500Y1867D02*
X1578Y1867D01*
X1600Y1867D02*
X1678Y1867D01*
X1700Y1867D02*
X1778Y1867D01*
X1800Y1867D02*
X1878Y1867D01*
X1900Y1867D02*
X1978Y1867D01*
X2000Y1867D02*
X2078Y1867D01*
X2100Y1867D02*
X2178Y1867D01*
X2200Y1867D02*
X2278Y1867D01*
X2300Y1867D02*
X2378Y1867D01*
X2400Y1867D02*
X2478Y1867D01*
X2500Y1867D02*
X2578Y1867D01*
X2600Y1867D02*
X2678Y1867D01*
X2700Y1867D02*
X2778Y1867D01*
X2800Y1867D02*
X2878Y1867D01*
X1500Y1866D02*
X1578Y1866D01*
X1600Y1866D02*
X1678Y1866D01*
X1700Y1866D02*
X1778Y1866D01*
X1800Y1866D02*
X1878Y1866D01*
X1900Y1866D02*
X1978Y1866D01*
X2000Y1866D02*
X2078Y1866D01*
X2100Y1866D02*
X2178Y1866D01*
X2200Y1866D02*
X2278Y1866D01*
X2300Y1866D02*
X2378Y1866D01*
X2400Y1866D02*
X2478Y1866D01*
X2500Y1866D02*
X2578Y1866D01*
X2600Y1866D02*
X2678Y1866D01*
X2700Y1866D02*
X2778Y1866D01*
X2800Y1866D02*
X2878Y1866D01*
X1500Y1865D02*
X1579Y1865D01*
X1600Y1865D02*
X1679Y1865D01*
X1700Y1865D02*
X1779Y1865D01*
X1800Y1865D02*
X1879Y1865D01*
X1900Y1865D02*
X1979Y1865D01*
X2000Y1865D02*
X2079Y1865D01*
X2100Y1865D02*
X2179Y1865D01*
X2200Y1865D02*
X2279Y1865D01*
X2300Y1865D02*
X2378Y1865D01*
X2400Y1865D02*
X2478Y1865D01*
X2500Y1865D02*
X2578Y1865D01*
X2600Y1865D02*
X2678Y1865D01*
X2700Y1865D02*
X2778Y1865D01*
X2800Y1865D02*
X2878Y1865D01*
X1500Y1864D02*
X1579Y1864D01*
X1600Y1864D02*
X1679Y1864D01*
X1700Y1864D02*
X1779Y1864D01*
X1800Y1864D02*
X1879Y1864D01*
X1900Y1864D02*
X1979Y1864D01*
X2000Y1864D02*
X2079Y1864D01*
X2100Y1864D02*
X2179Y1864D01*
X2200Y1864D02*
X2279Y1864D01*
X2300Y1864D02*
X2379Y1864D01*
X2400Y1864D02*
X2479Y1864D01*
X2500Y1864D02*
X2579Y1864D01*
X2600Y1864D02*
X2679Y1864D01*
X2700Y1864D02*
X2779Y1864D01*
X2800Y1864D02*
X2878Y1864D01*
X1500Y1863D02*
X1579Y1863D01*
X1600Y1863D02*
X1679Y1863D01*
X1700Y1863D02*
X1779Y1863D01*
X1800Y1863D02*
X1879Y1863D01*
X1900Y1863D02*
X1979Y1863D01*
X2000Y1863D02*
X2079Y1863D01*
X2100Y1863D02*
X2179Y1863D01*
X2200Y1863D02*
X2279Y1863D01*
X2300Y1863D02*
X2379Y1863D01*
X2400Y1863D02*
X2479Y1863D01*
X2500Y1863D02*
X2579Y1863D01*
X2600Y1863D02*
X2679Y1863D01*
X2700Y1863D02*
X2779Y1863D01*
X2800Y1863D02*
X2879Y1863D01*
X1500Y1862D02*
X1579Y1862D01*
X1600Y1862D02*
X1679Y1862D01*
X1700Y1862D02*
X1779Y1862D01*
X1800Y1862D02*
X1879Y1862D01*
X1900Y1862D02*
X1979Y1862D01*
X2000Y1862D02*
X2079Y1862D01*
X2100Y1862D02*
X2179Y1862D01*
X2200Y1862D02*
X2279Y1862D01*
X2300Y1862D02*
X2379Y1862D01*
X2400Y1862D02*
X2479Y1862D01*
X2500Y1862D02*
X2579Y1862D01*
X2600Y1862D02*
X2679Y1862D01*
X2700Y1862D02*
X2779Y1862D01*
X2800Y1862D02*
X2879Y1862D01*
X1500Y1861D02*
X1579Y1861D01*
X1600Y1861D02*
X1679Y1861D01*
X1700Y1861D02*
X1779Y1861D01*
X1800Y1861D02*
X1879Y1861D01*
X1900Y1861D02*
X1979Y1861D01*
X2000Y1861D02*
X2079Y1861D01*
X2100Y1861D02*
X2179Y1861D01*
X2200Y1861D02*
X2279Y1861D01*
X2300Y1861D02*
X2379Y1861D01*
X2400Y1861D02*
X2479Y1861D01*
X2500Y1861D02*
X2579Y1861D01*
X2600Y1861D02*
X2679Y1861D01*
X2700Y1861D02*
X2779Y1861D01*
X2800Y1861D02*
X2879Y1861D01*
X1500Y1860D02*
X1579Y1860D01*
X1600Y1860D02*
X1679Y1860D01*
X1700Y1860D02*
X1779Y1860D01*
X1800Y1860D02*
X1879Y1860D01*
X1900Y1860D02*
X1979Y1860D01*
X2000Y1860D02*
X2079Y1860D01*
X2100Y1860D02*
X2179Y1860D01*
X2200Y1860D02*
X2279Y1860D01*
X2300Y1860D02*
X2379Y1860D01*
X2400Y1860D02*
X2479Y1860D01*
X2500Y1860D02*
X2579Y1860D01*
X2600Y1860D02*
X2679Y1860D01*
X2700Y1860D02*
X2779Y1860D01*
X2800Y1860D02*
X2878Y1860D01*
X1500Y1859D02*
X1579Y1859D01*
X1600Y1859D02*
X1679Y1859D01*
X1700Y1859D02*
X1779Y1859D01*
X1800Y1859D02*
X1879Y1859D01*
X1900Y1859D02*
X1979Y1859D01*
X2000Y1859D02*
X2079Y1859D01*
X2100Y1859D02*
X2178Y1859D01*
X2200Y1859D02*
X2278Y1859D01*
X2300Y1859D02*
X2378Y1859D01*
X2400Y1859D02*
X2478Y1859D01*
X2500Y1859D02*
X2578Y1859D01*
X2600Y1859D02*
X2678Y1859D01*
X2700Y1859D02*
X2778Y1859D01*
X2800Y1859D02*
X2878Y1859D01*
X1500Y1858D02*
X1578Y1858D01*
X1600Y1858D02*
X1678Y1858D01*
X1700Y1858D02*
X1778Y1858D01*
X1800Y1858D02*
X1878Y1858D01*
X1900Y1858D02*
X1978Y1858D01*
X2000Y1858D02*
X2078Y1858D01*
X2100Y1858D02*
X2178Y1858D01*
X2200Y1858D02*
X2278Y1858D01*
X2300Y1858D02*
X2378Y1858D01*
X2400Y1858D02*
X2478Y1858D01*
X2500Y1858D02*
X2578Y1858D01*
X2600Y1858D02*
X2678Y1858D01*
X2700Y1858D02*
X2778Y1858D01*
X2800Y1858D02*
X2878Y1858D01*
X1500Y1857D02*
X1578Y1857D01*
X1600Y1857D02*
X1678Y1857D01*
X1700Y1857D02*
X1778Y1857D01*
X1800Y1857D02*
X1878Y1857D01*
X1900Y1857D02*
X1978Y1857D01*
X2000Y1857D02*
X2078Y1857D01*
X2100Y1857D02*
X2178Y1857D01*
X2200Y1857D02*
X2278Y1857D01*
X2300Y1857D02*
X2378Y1857D01*
X2400Y1857D02*
X2478Y1857D01*
X2500Y1857D02*
X2578Y1857D01*
X2600Y1857D02*
X2678Y1857D01*
X2700Y1857D02*
X2778Y1857D01*
X2800Y1857D02*
X2878Y1857D01*
X1500Y1856D02*
X1578Y1856D01*
X1600Y1856D02*
X1678Y1856D01*
X1700Y1856D02*
X1778Y1856D01*
X1800Y1856D02*
X1878Y1856D01*
X1900Y1856D02*
X1978Y1856D01*
X2000Y1856D02*
X2078Y1856D01*
X2100Y1856D02*
X2178Y1856D01*
X2200Y1856D02*
X2278Y1856D01*
X2300Y1856D02*
X2378Y1856D01*
X2400Y1856D02*
X2478Y1856D01*
X2500Y1856D02*
X2578Y1856D01*
X2600Y1856D02*
X2678Y1856D01*
X2700Y1856D02*
X2778Y1856D01*
X2800Y1856D02*
X2878Y1856D01*
X1500Y1855D02*
X1578Y1855D01*
X1600Y1855D02*
X1678Y1855D01*
X1700Y1855D02*
X1778Y1855D01*
X1800Y1855D02*
X1878Y1855D01*
X1900Y1855D02*
X1978Y1855D01*
X2000Y1855D02*
X2078Y1855D01*
X2100Y1855D02*
X2178Y1855D01*
X2200Y1855D02*
X2278Y1855D01*
X2300Y1855D02*
X2378Y1855D01*
X2400Y1855D02*
X2478Y1855D01*
X2500Y1855D02*
X2578Y1855D01*
X2600Y1855D02*
X2678Y1855D01*
X2700Y1855D02*
X2778Y1855D01*
X2800Y1855D02*
X2878Y1855D01*
X1501Y1854D02*
X1578Y1854D01*
X1601Y1854D02*
X1678Y1854D01*
X1701Y1854D02*
X1778Y1854D01*
X1801Y1854D02*
X1878Y1854D01*
X1901Y1854D02*
X1978Y1854D01*
X2001Y1854D02*
X2078Y1854D01*
X2101Y1854D02*
X2178Y1854D01*
X2201Y1854D02*
X2278Y1854D01*
X2301Y1854D02*
X2378Y1854D01*
X2401Y1854D02*
X2478Y1854D01*
X2501Y1854D02*
X2578Y1854D01*
X2601Y1854D02*
X2678Y1854D01*
X2701Y1854D02*
X2778Y1854D01*
X2801Y1854D02*
X2878Y1854D01*
X1501Y1853D02*
X1578Y1853D01*
X1601Y1853D02*
X1678Y1853D01*
X1701Y1853D02*
X1778Y1853D01*
X1801Y1853D02*
X1878Y1853D01*
X1901Y1853D02*
X1978Y1853D01*
X2001Y1853D02*
X2078Y1853D01*
X2101Y1853D02*
X2178Y1853D01*
X2201Y1853D02*
X2278Y1853D01*
X2301Y1853D02*
X2378Y1853D01*
X2401Y1853D02*
X2478Y1853D01*
X2501Y1853D02*
X2577Y1853D01*
X2601Y1853D02*
X2677Y1853D01*
X2701Y1853D02*
X2777Y1853D01*
X2801Y1853D02*
X2877Y1853D01*
X1501Y1852D02*
X1577Y1852D01*
X1601Y1852D02*
X1677Y1852D01*
X1701Y1852D02*
X1777Y1852D01*
X1801Y1852D02*
X1877Y1852D01*
X1901Y1852D02*
X1977Y1852D01*
X2001Y1852D02*
X2077Y1852D01*
X2101Y1852D02*
X2177Y1852D01*
X2201Y1852D02*
X2277Y1852D01*
X2301Y1852D02*
X2377Y1852D01*
X2401Y1852D02*
X2477Y1852D01*
X2501Y1852D02*
X2577Y1852D01*
X2601Y1852D02*
X2677Y1852D01*
X2701Y1852D02*
X2777Y1852D01*
X2801Y1852D02*
X2877Y1852D01*
X1501Y1851D02*
X1577Y1851D01*
X1601Y1851D02*
X1677Y1851D01*
X1701Y1851D02*
X1777Y1851D01*
X1801Y1851D02*
X1877Y1851D01*
X1901Y1851D02*
X1977Y1851D01*
X2001Y1851D02*
X2077Y1851D01*
X2101Y1851D02*
X2177Y1851D01*
X2201Y1851D02*
X2277Y1851D01*
X2301Y1851D02*
X2377Y1851D01*
X2401Y1851D02*
X2477Y1851D01*
X2501Y1851D02*
X2577Y1851D01*
X2601Y1851D02*
X2677Y1851D01*
X2701Y1851D02*
X2777Y1851D01*
X2801Y1851D02*
X2877Y1851D01*
X1502Y1850D02*
X1577Y1850D01*
X1602Y1850D02*
X1677Y1850D01*
X1702Y1850D02*
X1777Y1850D01*
X1802Y1850D02*
X1877Y1850D01*
X1902Y1850D02*
X1977Y1850D01*
X2002Y1850D02*
X2077Y1850D01*
X2102Y1850D02*
X2177Y1850D01*
X2202Y1850D02*
X2277Y1850D01*
X2302Y1850D02*
X2377Y1850D01*
X2402Y1850D02*
X2477Y1850D01*
X2502Y1850D02*
X2577Y1850D01*
X2602Y1850D02*
X2677Y1850D01*
X2702Y1850D02*
X2777Y1850D01*
X2802Y1850D02*
X2877Y1850D01*
X1502Y1849D02*
X1576Y1849D01*
X1602Y1849D02*
X1676Y1849D01*
X1702Y1849D02*
X1776Y1849D01*
X1802Y1849D02*
X1876Y1849D01*
X1902Y1849D02*
X1976Y1849D01*
X2002Y1849D02*
X2076Y1849D01*
X2102Y1849D02*
X2176Y1849D01*
X2202Y1849D02*
X2276Y1849D01*
X2302Y1849D02*
X2376Y1849D01*
X2402Y1849D02*
X2476Y1849D01*
X2502Y1849D02*
X2576Y1849D01*
X2602Y1849D02*
X2676Y1849D01*
X2702Y1849D02*
X2776Y1849D01*
X2802Y1849D02*
X2876Y1849D01*
X1502Y1848D02*
X1576Y1848D01*
X1602Y1848D02*
X1676Y1848D01*
X1702Y1848D02*
X1776Y1848D01*
X1802Y1848D02*
X1876Y1848D01*
X1902Y1848D02*
X1976Y1848D01*
X2002Y1848D02*
X2076Y1848D01*
X2102Y1848D02*
X2176Y1848D01*
X2202Y1848D02*
X2276Y1848D01*
X2302Y1848D02*
X2376Y1848D01*
X2402Y1848D02*
X2476Y1848D01*
X2502Y1848D02*
X2576Y1848D01*
X2602Y1848D02*
X2676Y1848D01*
X2702Y1848D02*
X2776Y1848D01*
X2802Y1848D02*
X2876Y1848D01*
X1503Y1847D02*
X1576Y1847D01*
X1603Y1847D02*
X1676Y1847D01*
X1703Y1847D02*
X1776Y1847D01*
X1803Y1847D02*
X1876Y1847D01*
X1903Y1847D02*
X1976Y1847D01*
X2003Y1847D02*
X2076Y1847D01*
X2103Y1847D02*
X2176Y1847D01*
X2203Y1847D02*
X2276Y1847D01*
X2303Y1847D02*
X2376Y1847D01*
X2403Y1847D02*
X2476Y1847D01*
X2503Y1847D02*
X2576Y1847D01*
X2603Y1847D02*
X2676Y1847D01*
X2703Y1847D02*
X2776Y1847D01*
X2803Y1847D02*
X2876Y1847D01*
X1503Y1846D02*
X1575Y1846D01*
X1603Y1846D02*
X1675Y1846D01*
X1703Y1846D02*
X1775Y1846D01*
X1803Y1846D02*
X1875Y1846D01*
X1903Y1846D02*
X1975Y1846D01*
X2003Y1846D02*
X2075Y1846D01*
X2103Y1846D02*
X2175Y1846D01*
X2203Y1846D02*
X2275Y1846D01*
X2303Y1846D02*
X2375Y1846D01*
X2403Y1846D02*
X2475Y1846D01*
X2503Y1846D02*
X2575Y1846D01*
X2603Y1846D02*
X2675Y1846D01*
X2703Y1846D02*
X2775Y1846D01*
X2803Y1846D02*
X2875Y1846D01*
X1504Y1845D02*
X1575Y1845D01*
X1604Y1845D02*
X1675Y1845D01*
X1704Y1845D02*
X1775Y1845D01*
X1804Y1845D02*
X1875Y1845D01*
X1904Y1845D02*
X1975Y1845D01*
X2004Y1845D02*
X2075Y1845D01*
X2104Y1845D02*
X2175Y1845D01*
X2204Y1845D02*
X2275Y1845D01*
X2304Y1845D02*
X2375Y1845D01*
X2404Y1845D02*
X2475Y1845D01*
X2504Y1845D02*
X2575Y1845D01*
X2604Y1845D02*
X2675Y1845D01*
X2704Y1845D02*
X2775Y1845D01*
X2804Y1845D02*
X2875Y1845D01*
X1504Y1844D02*
X1574Y1844D01*
X1604Y1844D02*
X1674Y1844D01*
X1704Y1844D02*
X1774Y1844D01*
X1804Y1844D02*
X1874Y1844D01*
X1904Y1844D02*
X1974Y1844D01*
X2004Y1844D02*
X2074Y1844D01*
X2104Y1844D02*
X2174Y1844D01*
X2204Y1844D02*
X2274Y1844D01*
X2304Y1844D02*
X2374Y1844D01*
X2404Y1844D02*
X2474Y1844D01*
X2504Y1844D02*
X2574Y1844D01*
X2604Y1844D02*
X2674Y1844D01*
X2704Y1844D02*
X2774Y1844D01*
X2804Y1844D02*
X2874Y1844D01*
X1505Y1843D02*
X1574Y1843D01*
X1605Y1843D02*
X1674Y1843D01*
X1705Y1843D02*
X1774Y1843D01*
X1805Y1843D02*
X1874Y1843D01*
X1905Y1843D02*
X1974Y1843D01*
X2005Y1843D02*
X2074Y1843D01*
X2105Y1843D02*
X2174Y1843D01*
X2205Y1843D02*
X2274Y1843D01*
X2305Y1843D02*
X2374Y1843D01*
X2405Y1843D02*
X2474Y1843D01*
X2505Y1843D02*
X2574Y1843D01*
X2605Y1843D02*
X2674Y1843D01*
X2705Y1843D02*
X2774Y1843D01*
X2805Y1843D02*
X2874Y1843D01*
X1505Y1842D02*
X1573Y1842D01*
X1605Y1842D02*
X1673Y1842D01*
X1705Y1842D02*
X1773Y1842D01*
X1805Y1842D02*
X1873Y1842D01*
X1905Y1842D02*
X1973Y1842D01*
X2005Y1842D02*
X2073Y1842D01*
X2105Y1842D02*
X2173Y1842D01*
X2205Y1842D02*
X2273Y1842D01*
X2305Y1842D02*
X2373Y1842D01*
X2405Y1842D02*
X2473Y1842D01*
X2505Y1842D02*
X2573Y1842D01*
X2605Y1842D02*
X2673Y1842D01*
X2705Y1842D02*
X2773Y1842D01*
X2805Y1842D02*
X2873Y1842D01*
X1506Y1841D02*
X1573Y1841D01*
X1606Y1841D02*
X1673Y1841D01*
X1706Y1841D02*
X1773Y1841D01*
X1806Y1841D02*
X1873Y1841D01*
X1906Y1841D02*
X1973Y1841D01*
X2006Y1841D02*
X2073Y1841D01*
X2106Y1841D02*
X2173Y1841D01*
X2206Y1841D02*
X2273Y1841D01*
X2306Y1841D02*
X2373Y1841D01*
X2406Y1841D02*
X2473Y1841D01*
X2506Y1841D02*
X2573Y1841D01*
X2606Y1841D02*
X2673Y1841D01*
X2706Y1841D02*
X2772Y1841D01*
X2806Y1841D02*
X2872Y1841D01*
X1506Y1840D02*
X1572Y1840D01*
X1606Y1840D02*
X1672Y1840D01*
X1706Y1840D02*
X1772Y1840D01*
X1806Y1840D02*
X1872Y1840D01*
X1906Y1840D02*
X1972Y1840D01*
X2006Y1840D02*
X2072Y1840D01*
X2106Y1840D02*
X2172Y1840D01*
X2206Y1840D02*
X2272Y1840D01*
X2306Y1840D02*
X2372Y1840D01*
X2406Y1840D02*
X2472Y1840D01*
X2506Y1840D02*
X2572Y1840D01*
X2606Y1840D02*
X2672Y1840D01*
X2706Y1840D02*
X2772Y1840D01*
X2806Y1840D02*
X2872Y1840D01*
X1507Y1839D02*
X1571Y1839D01*
X1607Y1839D02*
X1671Y1839D01*
X1707Y1839D02*
X1771Y1839D01*
X1807Y1839D02*
X1871Y1839D01*
X1907Y1839D02*
X1971Y1839D01*
X2007Y1839D02*
X2071Y1839D01*
X2107Y1839D02*
X2171Y1839D01*
X2207Y1839D02*
X2271Y1839D01*
X2307Y1839D02*
X2371Y1839D01*
X2407Y1839D02*
X2471Y1839D01*
X2507Y1839D02*
X2571Y1839D01*
X2607Y1839D02*
X2671Y1839D01*
X2707Y1839D02*
X2771Y1839D01*
X2807Y1839D02*
X2871Y1839D01*
X1508Y1838D02*
X1571Y1838D01*
X1608Y1838D02*
X1671Y1838D01*
X1708Y1838D02*
X1771Y1838D01*
X1808Y1838D02*
X1871Y1838D01*
X1908Y1838D02*
X1971Y1838D01*
X2008Y1838D02*
X2071Y1838D01*
X2108Y1838D02*
X2170Y1838D01*
X2208Y1838D02*
X2270Y1838D01*
X2308Y1838D02*
X2370Y1838D01*
X2408Y1838D02*
X2470Y1838D01*
X2508Y1838D02*
X2570Y1838D01*
X2608Y1838D02*
X2670Y1838D01*
X2708Y1838D02*
X2770Y1838D01*
X2808Y1838D02*
X2870Y1838D01*
X1509Y1837D02*
X1570Y1837D01*
X1609Y1837D02*
X1670Y1837D01*
X1709Y1837D02*
X1770Y1837D01*
X1809Y1837D02*
X1870Y1837D01*
X1909Y1837D02*
X1970Y1837D01*
X2009Y1837D02*
X2070Y1837D01*
X2109Y1837D02*
X2170Y1837D01*
X2209Y1837D02*
X2270Y1837D01*
X2309Y1837D02*
X2370Y1837D01*
X2409Y1837D02*
X2470Y1837D01*
X2509Y1837D02*
X2570Y1837D01*
X2609Y1837D02*
X2670Y1837D01*
X2709Y1837D02*
X2770Y1837D01*
X2809Y1837D02*
X2870Y1837D01*
X1509Y1836D02*
X1569Y1836D01*
X1609Y1836D02*
X1669Y1836D01*
X1709Y1836D02*
X1769Y1836D01*
X1809Y1836D02*
X1869Y1836D01*
X1909Y1836D02*
X1969Y1836D01*
X2009Y1836D02*
X2069Y1836D01*
X2109Y1836D02*
X2169Y1836D01*
X2209Y1836D02*
X2269Y1836D01*
X2309Y1836D02*
X2369Y1836D01*
X2409Y1836D02*
X2469Y1836D01*
X2509Y1836D02*
X2569Y1836D01*
X2609Y1836D02*
X2669Y1836D01*
X2709Y1836D02*
X2769Y1836D01*
X2809Y1836D02*
X2869Y1836D01*
X1510Y1835D02*
X1568Y1835D01*
X1610Y1835D02*
X1668Y1835D01*
X1710Y1835D02*
X1768Y1835D01*
X1810Y1835D02*
X1868Y1835D01*
X1910Y1835D02*
X1968Y1835D01*
X2010Y1835D02*
X2068Y1835D01*
X2110Y1835D02*
X2168Y1835D01*
X2210Y1835D02*
X2268Y1835D01*
X2310Y1835D02*
X2368Y1835D01*
X2410Y1835D02*
X2468Y1835D01*
X2510Y1835D02*
X2568Y1835D01*
X2610Y1835D02*
X2668Y1835D01*
X2710Y1835D02*
X2768Y1835D01*
X2810Y1835D02*
X2868Y1835D01*
X1511Y1834D02*
X1567Y1834D01*
X1611Y1834D02*
X1667Y1834D01*
X1711Y1834D02*
X1767Y1834D01*
X1811Y1834D02*
X1867Y1834D01*
X1911Y1834D02*
X1967Y1834D01*
X2011Y1834D02*
X2067Y1834D01*
X2111Y1834D02*
X2167Y1834D01*
X2211Y1834D02*
X2267Y1834D01*
X2311Y1834D02*
X2367Y1834D01*
X2411Y1834D02*
X2467Y1834D01*
X2511Y1834D02*
X2567Y1834D01*
X2611Y1834D02*
X2667Y1834D01*
X2711Y1834D02*
X2767Y1834D01*
X2811Y1834D02*
X2867Y1834D01*
X1512Y1833D02*
X1566Y1833D01*
X1612Y1833D02*
X1666Y1833D01*
X1712Y1833D02*
X1766Y1833D01*
X1812Y1833D02*
X1866Y1833D01*
X1912Y1833D02*
X1966Y1833D01*
X2012Y1833D02*
X2066Y1833D01*
X2112Y1833D02*
X2166Y1833D01*
X2212Y1833D02*
X2266Y1833D01*
X2312Y1833D02*
X2366Y1833D01*
X2412Y1833D02*
X2466Y1833D01*
X2512Y1833D02*
X2566Y1833D01*
X2612Y1833D02*
X2666Y1833D01*
X2712Y1833D02*
X2766Y1833D01*
X2812Y1833D02*
X2866Y1833D01*
X1513Y1832D02*
X1565Y1832D01*
X1613Y1832D02*
X1665Y1832D01*
X1713Y1832D02*
X1765Y1832D01*
X1813Y1832D02*
X1865Y1832D01*
X1913Y1832D02*
X1965Y1832D01*
X2013Y1832D02*
X2065Y1832D01*
X2113Y1832D02*
X2165Y1832D01*
X2213Y1832D02*
X2265Y1832D01*
X2313Y1832D02*
X2365Y1832D01*
X2413Y1832D02*
X2465Y1832D01*
X2513Y1832D02*
X2565Y1832D01*
X2613Y1832D02*
X2665Y1832D01*
X2713Y1832D02*
X2765Y1832D01*
X2813Y1832D02*
X2865Y1832D01*
X1515Y1831D02*
X1564Y1831D01*
X1615Y1831D02*
X1664Y1831D01*
X1715Y1831D02*
X1764Y1831D01*
X1815Y1831D02*
X1864Y1831D01*
X1915Y1831D02*
X1964Y1831D01*
X2015Y1831D02*
X2064Y1831D01*
X2115Y1831D02*
X2164Y1831D01*
X2215Y1831D02*
X2264Y1831D01*
X2315Y1831D02*
X2364Y1831D01*
X2415Y1831D02*
X2464Y1831D01*
X2515Y1831D02*
X2564Y1831D01*
X2615Y1831D02*
X2664Y1831D01*
X2715Y1831D02*
X2764Y1831D01*
X2815Y1831D02*
X2864Y1831D01*
X1516Y1830D02*
X1562Y1830D01*
X1616Y1830D02*
X1662Y1830D01*
X1716Y1830D02*
X1762Y1830D01*
X1816Y1830D02*
X1862Y1830D01*
X1916Y1830D02*
X1962Y1830D01*
X2016Y1830D02*
X2062Y1830D01*
X2116Y1830D02*
X2162Y1830D01*
X2216Y1830D02*
X2262Y1830D01*
X2316Y1830D02*
X2362Y1830D01*
X2416Y1830D02*
X2462Y1830D01*
X2516Y1830D02*
X2562Y1830D01*
X2616Y1830D02*
X2662Y1830D01*
X2716Y1830D02*
X2762Y1830D01*
X2816Y1830D02*
X2862Y1830D01*
X1517Y1829D02*
X1561Y1829D01*
X1617Y1829D02*
X1661Y1829D01*
X1717Y1829D02*
X1761Y1829D01*
X1817Y1829D02*
X1861Y1829D01*
X1917Y1829D02*
X1961Y1829D01*
X2017Y1829D02*
X2061Y1829D01*
X2117Y1829D02*
X2161Y1829D01*
X2217Y1829D02*
X2261Y1829D01*
X2317Y1829D02*
X2361Y1829D01*
X2417Y1829D02*
X2461Y1829D01*
X2517Y1829D02*
X2561Y1829D01*
X2617Y1829D02*
X2661Y1829D01*
X2717Y1829D02*
X2761Y1829D01*
X2817Y1829D02*
X2861Y1829D01*
X1519Y1828D02*
X1559Y1828D01*
X1619Y1828D02*
X1659Y1828D01*
X1719Y1828D02*
X1759Y1828D01*
X1819Y1828D02*
X1859Y1828D01*
X1919Y1828D02*
X1959Y1828D01*
X2019Y1828D02*
X2059Y1828D01*
X2119Y1828D02*
X2159Y1828D01*
X2219Y1828D02*
X2259Y1828D01*
X2319Y1828D02*
X2359Y1828D01*
X2419Y1828D02*
X2459Y1828D01*
X2519Y1828D02*
X2559Y1828D01*
X2619Y1828D02*
X2659Y1828D01*
X2719Y1828D02*
X2759Y1828D01*
X2819Y1828D02*
X2859Y1828D01*
X1521Y1827D02*
X1558Y1827D01*
X1621Y1827D02*
X1658Y1827D01*
X1721Y1827D02*
X1758Y1827D01*
X1821Y1827D02*
X1858Y1827D01*
X1921Y1827D02*
X1958Y1827D01*
X2021Y1827D02*
X2058Y1827D01*
X2121Y1827D02*
X2158Y1827D01*
X2221Y1827D02*
X2258Y1827D01*
X2321Y1827D02*
X2358Y1827D01*
X2421Y1827D02*
X2458Y1827D01*
X2521Y1827D02*
X2558Y1827D01*
X2621Y1827D02*
X2658Y1827D01*
X2721Y1827D02*
X2758Y1827D01*
X2821Y1827D02*
X2858Y1827D01*
X1523Y1826D02*
X1556Y1826D01*
X1623Y1826D02*
X1656Y1826D01*
X1723Y1826D02*
X1756Y1826D01*
X1823Y1826D02*
X1856Y1826D01*
X1923Y1826D02*
X1956Y1826D01*
X2023Y1826D02*
X2056Y1826D01*
X2123Y1826D02*
X2156Y1826D01*
X2223Y1826D02*
X2256Y1826D01*
X2323Y1826D02*
X2356Y1826D01*
X2423Y1826D02*
X2456Y1826D01*
X2523Y1826D02*
X2556Y1826D01*
X2623Y1826D02*
X2656Y1826D01*
X2723Y1826D02*
X2756Y1826D01*
X2823Y1826D02*
X2856Y1826D01*
X1525Y1825D02*
X1554Y1825D01*
X1625Y1825D02*
X1654Y1825D01*
X1725Y1825D02*
X1754Y1825D01*
X1825Y1825D02*
X1854Y1825D01*
X1925Y1825D02*
X1954Y1825D01*
X2025Y1825D02*
X2054Y1825D01*
X2125Y1825D02*
X2154Y1825D01*
X2225Y1825D02*
X2254Y1825D01*
X2325Y1825D02*
X2354Y1825D01*
X2425Y1825D02*
X2454Y1825D01*
X2525Y1825D02*
X2554Y1825D01*
X2625Y1825D02*
X2654Y1825D01*
X2725Y1825D02*
X2754Y1825D01*
X2825Y1825D02*
X2853Y1825D01*
X1528Y1824D02*
X1551Y1824D01*
X1628Y1824D02*
X1651Y1824D01*
X1728Y1824D02*
X1751Y1824D01*
X1828Y1824D02*
X1851Y1824D01*
X1928Y1824D02*
X1951Y1824D01*
X2028Y1824D02*
X2051Y1824D01*
X2128Y1824D02*
X2151Y1824D01*
X2228Y1824D02*
X2251Y1824D01*
X2328Y1824D02*
X2351Y1824D01*
X2428Y1824D02*
X2451Y1824D01*
X2528Y1824D02*
X2551Y1824D01*
X2628Y1824D02*
X2651Y1824D01*
X2728Y1824D02*
X2751Y1824D01*
X2828Y1824D02*
X2851Y1824D01*
X1532Y1823D02*
X1547Y1823D01*
X1632Y1823D02*
X1647Y1823D01*
X1732Y1823D02*
X1747Y1823D01*
X1832Y1823D02*
X1847Y1823D01*
X1932Y1823D02*
X1947Y1823D01*
X2032Y1823D02*
X2047Y1823D01*
X2132Y1823D02*
X2147Y1823D01*
X2232Y1823D02*
X2247Y1823D01*
X2332Y1823D02*
X2347Y1823D01*
X2432Y1823D02*
X2447Y1823D01*
X2532Y1823D02*
X2547Y1823D01*
X2632Y1823D02*
X2647Y1823D01*
X2732Y1823D02*
X2747Y1823D01*
X2832Y1823D02*
X2847Y1823D01*
X2036Y1102D02*
X2043Y1102D01*
X2136Y1102D02*
X2143Y1102D01*
X2236Y1102D02*
X2243Y1102D01*
X2336Y1102D02*
X2343Y1102D01*
X2436Y1102D02*
X2443Y1102D01*
X2536Y1102D02*
X2543Y1102D01*
X2635Y1102D02*
X2643Y1102D01*
X2735Y1102D02*
X2743Y1102D01*
X2835Y1102D02*
X2843Y1102D01*
X2030Y1101D02*
X2048Y1101D01*
X2130Y1101D02*
X2148Y1101D01*
X2230Y1101D02*
X2248Y1101D01*
X2330Y1101D02*
X2348Y1101D01*
X2430Y1101D02*
X2448Y1101D01*
X2530Y1101D02*
X2548Y1101D01*
X2630Y1101D02*
X2648Y1101D01*
X2730Y1101D02*
X2748Y1101D01*
X2830Y1101D02*
X2848Y1101D01*
X2027Y1100D02*
X2052Y1100D01*
X2127Y1100D02*
X2152Y1100D01*
X2227Y1100D02*
X2252Y1100D01*
X2327Y1100D02*
X2352Y1100D01*
X2427Y1100D02*
X2452Y1100D01*
X2527Y1100D02*
X2552Y1100D01*
X2627Y1100D02*
X2652Y1100D01*
X2727Y1100D02*
X2752Y1100D01*
X2827Y1100D02*
X2852Y1100D01*
X2024Y1099D02*
X2055Y1099D01*
X2124Y1099D02*
X2155Y1099D01*
X2224Y1099D02*
X2255Y1099D01*
X2324Y1099D02*
X2354Y1099D01*
X2424Y1099D02*
X2454Y1099D01*
X2524Y1099D02*
X2554Y1099D01*
X2624Y1099D02*
X2654Y1099D01*
X2724Y1099D02*
X2754Y1099D01*
X2824Y1099D02*
X2854Y1099D01*
X2022Y1098D02*
X2057Y1098D01*
X2122Y1098D02*
X2157Y1098D01*
X2222Y1098D02*
X2257Y1098D01*
X2322Y1098D02*
X2357Y1098D01*
X2422Y1098D02*
X2457Y1098D01*
X2522Y1098D02*
X2557Y1098D01*
X2622Y1098D02*
X2657Y1098D01*
X2722Y1098D02*
X2756Y1098D01*
X2822Y1098D02*
X2856Y1098D01*
X2020Y1097D02*
X2058Y1097D01*
X2120Y1097D02*
X2158Y1097D01*
X2220Y1097D02*
X2258Y1097D01*
X2320Y1097D02*
X2358Y1097D01*
X2420Y1097D02*
X2458Y1097D01*
X2520Y1097D02*
X2558Y1097D01*
X2620Y1097D02*
X2658Y1097D01*
X2720Y1097D02*
X2758Y1097D01*
X2820Y1097D02*
X2858Y1097D01*
X2018Y1096D02*
X2060Y1096D01*
X2118Y1096D02*
X2160Y1096D01*
X2218Y1096D02*
X2260Y1096D01*
X2318Y1096D02*
X2360Y1096D01*
X2418Y1096D02*
X2460Y1096D01*
X2518Y1096D02*
X2560Y1096D01*
X2618Y1096D02*
X2660Y1096D01*
X2718Y1096D02*
X2760Y1096D01*
X2818Y1096D02*
X2860Y1096D01*
X2017Y1095D02*
X2062Y1095D01*
X2117Y1095D02*
X2162Y1095D01*
X2217Y1095D02*
X2262Y1095D01*
X2317Y1095D02*
X2362Y1095D01*
X2417Y1095D02*
X2462Y1095D01*
X2517Y1095D02*
X2561Y1095D01*
X2617Y1095D02*
X2661Y1095D01*
X2717Y1095D02*
X2761Y1095D01*
X2817Y1095D02*
X2861Y1095D01*
X2015Y1094D02*
X2063Y1094D01*
X2115Y1094D02*
X2163Y1094D01*
X2215Y1094D02*
X2263Y1094D01*
X2315Y1094D02*
X2363Y1094D01*
X2415Y1094D02*
X2463Y1094D01*
X2515Y1094D02*
X2563Y1094D01*
X2615Y1094D02*
X2663Y1094D01*
X2715Y1094D02*
X2763Y1094D01*
X2815Y1094D02*
X2863Y1094D01*
X2014Y1093D02*
X2064Y1093D01*
X2114Y1093D02*
X2164Y1093D01*
X2214Y1093D02*
X2264Y1093D01*
X2314Y1093D02*
X2364Y1093D01*
X2414Y1093D02*
X2464Y1093D01*
X2514Y1093D02*
X2564Y1093D01*
X2614Y1093D02*
X2664Y1093D01*
X2714Y1093D02*
X2764Y1093D01*
X2814Y1093D02*
X2864Y1093D01*
X2013Y1092D02*
X2065Y1092D01*
X2113Y1092D02*
X2165Y1092D01*
X2213Y1092D02*
X2265Y1092D01*
X2313Y1092D02*
X2365Y1092D01*
X2413Y1092D02*
X2465Y1092D01*
X2513Y1092D02*
X2565Y1092D01*
X2613Y1092D02*
X2665Y1092D01*
X2713Y1092D02*
X2765Y1092D01*
X2813Y1092D02*
X2865Y1092D01*
X2012Y1091D02*
X2066Y1091D01*
X2112Y1091D02*
X2166Y1091D01*
X2212Y1091D02*
X2266Y1091D01*
X2312Y1091D02*
X2366Y1091D01*
X2412Y1091D02*
X2466Y1091D01*
X2512Y1091D02*
X2566Y1091D01*
X2612Y1091D02*
X2666Y1091D01*
X2712Y1091D02*
X2766Y1091D01*
X2812Y1091D02*
X2866Y1091D01*
X2011Y1090D02*
X2067Y1090D01*
X2111Y1090D02*
X2167Y1090D01*
X2211Y1090D02*
X2267Y1090D01*
X2311Y1090D02*
X2367Y1090D01*
X2411Y1090D02*
X2467Y1090D01*
X2511Y1090D02*
X2567Y1090D01*
X2611Y1090D02*
X2667Y1090D01*
X2711Y1090D02*
X2767Y1090D01*
X2811Y1090D02*
X2867Y1090D01*
X2010Y1089D02*
X2068Y1089D01*
X2110Y1089D02*
X2168Y1089D01*
X2210Y1089D02*
X2268Y1089D01*
X2310Y1089D02*
X2368Y1089D01*
X2410Y1089D02*
X2468Y1089D01*
X2510Y1089D02*
X2568Y1089D01*
X2610Y1089D02*
X2668Y1089D01*
X2710Y1089D02*
X2768Y1089D01*
X2810Y1089D02*
X2868Y1089D01*
X2009Y1088D02*
X2069Y1088D01*
X2109Y1088D02*
X2169Y1088D01*
X2209Y1088D02*
X2269Y1088D01*
X2309Y1088D02*
X2369Y1088D01*
X2409Y1088D02*
X2469Y1088D01*
X2509Y1088D02*
X2569Y1088D01*
X2609Y1088D02*
X2669Y1088D01*
X2709Y1088D02*
X2769Y1088D01*
X2809Y1088D02*
X2869Y1088D01*
X2008Y1087D02*
X2070Y1087D01*
X2108Y1087D02*
X2170Y1087D01*
X2208Y1087D02*
X2270Y1087D01*
X2308Y1087D02*
X2370Y1087D01*
X2408Y1087D02*
X2470Y1087D01*
X2508Y1087D02*
X2570Y1087D01*
X2608Y1087D02*
X2670Y1087D01*
X2708Y1087D02*
X2770Y1087D01*
X2808Y1087D02*
X2870Y1087D01*
X2008Y1086D02*
X2071Y1086D01*
X2108Y1086D02*
X2171Y1086D01*
X2208Y1086D02*
X2271Y1086D01*
X2308Y1086D02*
X2371Y1086D01*
X2408Y1086D02*
X2471Y1086D01*
X2508Y1086D02*
X2571Y1086D01*
X2608Y1086D02*
X2671Y1086D01*
X2708Y1086D02*
X2771Y1086D01*
X2808Y1086D02*
X2871Y1086D01*
X2007Y1085D02*
X2072Y1085D01*
X2107Y1085D02*
X2171Y1085D01*
X2207Y1085D02*
X2271Y1085D01*
X2307Y1085D02*
X2371Y1085D01*
X2407Y1085D02*
X2471Y1085D01*
X2507Y1085D02*
X2571Y1085D01*
X2607Y1085D02*
X2671Y1085D01*
X2707Y1085D02*
X2771Y1085D01*
X2807Y1085D02*
X2871Y1085D01*
X2006Y1084D02*
X2072Y1084D01*
X2106Y1084D02*
X2172Y1084D01*
X2206Y1084D02*
X2272Y1084D01*
X2306Y1084D02*
X2372Y1084D01*
X2406Y1084D02*
X2472Y1084D01*
X2506Y1084D02*
X2572Y1084D01*
X2606Y1084D02*
X2672Y1084D01*
X2706Y1084D02*
X2772Y1084D01*
X2806Y1084D02*
X2872Y1084D01*
X2006Y1083D02*
X2073Y1083D01*
X2106Y1083D02*
X2173Y1083D01*
X2206Y1083D02*
X2273Y1083D01*
X2306Y1083D02*
X2373Y1083D01*
X2406Y1083D02*
X2473Y1083D01*
X2506Y1083D02*
X2573Y1083D01*
X2606Y1083D02*
X2673Y1083D01*
X2706Y1083D02*
X2773Y1083D01*
X2806Y1083D02*
X2873Y1083D01*
X2005Y1082D02*
X2073Y1082D01*
X2105Y1082D02*
X2173Y1082D01*
X2205Y1082D02*
X2273Y1082D01*
X2305Y1082D02*
X2373Y1082D01*
X2405Y1082D02*
X2473Y1082D01*
X2505Y1082D02*
X2573Y1082D01*
X2605Y1082D02*
X2673Y1082D01*
X2705Y1082D02*
X2773Y1082D01*
X2805Y1082D02*
X2873Y1082D01*
X2004Y1081D02*
X2074Y1081D01*
X2104Y1081D02*
X2174Y1081D01*
X2204Y1081D02*
X2274Y1081D01*
X2304Y1081D02*
X2374Y1081D01*
X2404Y1081D02*
X2474Y1081D01*
X2504Y1081D02*
X2574Y1081D01*
X2604Y1081D02*
X2674Y1081D01*
X2704Y1081D02*
X2774Y1081D01*
X2804Y1081D02*
X2874Y1081D01*
X2004Y1080D02*
X2074Y1080D01*
X2104Y1080D02*
X2174Y1080D01*
X2204Y1080D02*
X2274Y1080D01*
X2304Y1080D02*
X2374Y1080D01*
X2404Y1080D02*
X2474Y1080D01*
X2504Y1080D02*
X2574Y1080D01*
X2604Y1080D02*
X2674Y1080D01*
X2704Y1080D02*
X2774Y1080D01*
X2804Y1080D02*
X2874Y1080D01*
X2003Y1079D02*
X2075Y1079D01*
X2103Y1079D02*
X2175Y1079D01*
X2203Y1079D02*
X2275Y1079D01*
X2303Y1079D02*
X2375Y1079D01*
X2403Y1079D02*
X2475Y1079D01*
X2503Y1079D02*
X2575Y1079D01*
X2603Y1079D02*
X2675Y1079D01*
X2703Y1079D02*
X2775Y1079D01*
X2803Y1079D02*
X2875Y1079D01*
X2003Y1078D02*
X2075Y1078D01*
X2103Y1078D02*
X2175Y1078D01*
X2203Y1078D02*
X2275Y1078D01*
X2303Y1078D02*
X2375Y1078D01*
X2403Y1078D02*
X2475Y1078D01*
X2503Y1078D02*
X2575Y1078D01*
X2603Y1078D02*
X2675Y1078D01*
X2703Y1078D02*
X2775Y1078D01*
X2803Y1078D02*
X2875Y1078D01*
X2003Y1077D02*
X2076Y1077D01*
X2103Y1077D02*
X2176Y1077D01*
X2203Y1077D02*
X2276Y1077D01*
X2303Y1077D02*
X2376Y1077D01*
X2403Y1077D02*
X2476Y1077D01*
X2502Y1077D02*
X2576Y1077D01*
X2602Y1077D02*
X2676Y1077D01*
X2702Y1077D02*
X2776Y1077D01*
X2802Y1077D02*
X2876Y1077D01*
X2002Y1076D02*
X2076Y1076D01*
X2102Y1076D02*
X2176Y1076D01*
X2202Y1076D02*
X2276Y1076D01*
X2302Y1076D02*
X2376Y1076D01*
X2402Y1076D02*
X2476Y1076D01*
X2502Y1076D02*
X2576Y1076D01*
X2602Y1076D02*
X2676Y1076D01*
X2702Y1076D02*
X2776Y1076D01*
X2802Y1076D02*
X2876Y1076D01*
X2002Y1075D02*
X2077Y1075D01*
X2102Y1075D02*
X2177Y1075D01*
X2202Y1075D02*
X2277Y1075D01*
X2302Y1075D02*
X2377Y1075D01*
X2402Y1075D02*
X2477Y1075D01*
X2502Y1075D02*
X2577Y1075D01*
X2602Y1075D02*
X2677Y1075D01*
X2702Y1075D02*
X2776Y1075D01*
X2802Y1075D02*
X2876Y1075D01*
X2002Y1074D02*
X2077Y1074D01*
X2102Y1074D02*
X2177Y1074D01*
X2201Y1074D02*
X2277Y1074D01*
X2301Y1074D02*
X2377Y1074D01*
X2401Y1074D02*
X2477Y1074D01*
X2501Y1074D02*
X2577Y1074D01*
X2601Y1074D02*
X2677Y1074D01*
X2701Y1074D02*
X2777Y1074D01*
X2801Y1074D02*
X2877Y1074D01*
X2001Y1073D02*
X2077Y1073D01*
X2101Y1073D02*
X2177Y1073D01*
X2201Y1073D02*
X2277Y1073D01*
X2301Y1073D02*
X2377Y1073D01*
X2401Y1073D02*
X2477Y1073D01*
X2501Y1073D02*
X2577Y1073D01*
X2601Y1073D02*
X2677Y1073D01*
X2701Y1073D02*
X2777Y1073D01*
X2801Y1073D02*
X2877Y1073D01*
X2001Y1072D02*
X2077Y1072D01*
X2101Y1072D02*
X2177Y1072D01*
X2201Y1072D02*
X2277Y1072D01*
X2301Y1072D02*
X2377Y1072D01*
X2401Y1072D02*
X2477Y1072D01*
X2501Y1072D02*
X2577Y1072D01*
X2601Y1072D02*
X2677Y1072D01*
X2701Y1072D02*
X2777Y1072D01*
X2801Y1072D02*
X2877Y1072D01*
X2001Y1071D02*
X2078Y1071D01*
X2101Y1071D02*
X2178Y1071D01*
X2201Y1071D02*
X2278Y1071D01*
X2301Y1071D02*
X2378Y1071D01*
X2401Y1071D02*
X2478Y1071D01*
X2501Y1071D02*
X2578Y1071D01*
X2601Y1071D02*
X2678Y1071D01*
X2701Y1071D02*
X2778Y1071D01*
X2801Y1071D02*
X2878Y1071D01*
X2001Y1070D02*
X2078Y1070D01*
X2101Y1070D02*
X2178Y1070D01*
X2201Y1070D02*
X2278Y1070D01*
X2301Y1070D02*
X2378Y1070D01*
X2400Y1070D02*
X2478Y1070D01*
X2500Y1070D02*
X2578Y1070D01*
X2600Y1070D02*
X2678Y1070D01*
X2700Y1070D02*
X2778Y1070D01*
X2800Y1070D02*
X2878Y1070D01*
X2000Y1069D02*
X2078Y1069D01*
X2100Y1069D02*
X2178Y1069D01*
X2200Y1069D02*
X2278Y1069D01*
X2300Y1069D02*
X2378Y1069D01*
X2400Y1069D02*
X2478Y1069D01*
X2500Y1069D02*
X2578Y1069D01*
X2600Y1069D02*
X2678Y1069D01*
X2700Y1069D02*
X2778Y1069D01*
X2800Y1069D02*
X2878Y1069D01*
X2000Y1068D02*
X2078Y1068D01*
X2100Y1068D02*
X2178Y1068D01*
X2200Y1068D02*
X2278Y1068D01*
X2300Y1068D02*
X2378Y1068D01*
X2400Y1068D02*
X2478Y1068D01*
X2500Y1068D02*
X2578Y1068D01*
X2600Y1068D02*
X2678Y1068D01*
X2700Y1068D02*
X2778Y1068D01*
X2800Y1068D02*
X2878Y1068D01*
X2000Y1067D02*
X2078Y1067D01*
X2100Y1067D02*
X2178Y1067D01*
X2200Y1067D02*
X2278Y1067D01*
X2300Y1067D02*
X2378Y1067D01*
X2400Y1067D02*
X2478Y1067D01*
X2500Y1067D02*
X2578Y1067D01*
X2600Y1067D02*
X2678Y1067D01*
X2700Y1067D02*
X2778Y1067D01*
X2800Y1067D02*
X2878Y1067D01*
X2000Y1066D02*
X2078Y1066D01*
X2100Y1066D02*
X2178Y1066D01*
X2200Y1066D02*
X2278Y1066D01*
X2300Y1066D02*
X2378Y1066D01*
X2400Y1066D02*
X2478Y1066D01*
X2500Y1066D02*
X2578Y1066D01*
X2600Y1066D02*
X2678Y1066D01*
X2700Y1066D02*
X2778Y1066D01*
X2800Y1066D02*
X2878Y1066D01*
X2000Y1065D02*
X2079Y1065D01*
X2100Y1065D02*
X2179Y1065D01*
X2200Y1065D02*
X2279Y1065D01*
X2300Y1065D02*
X2378Y1065D01*
X2400Y1065D02*
X2478Y1065D01*
X2500Y1065D02*
X2578Y1065D01*
X2600Y1065D02*
X2678Y1065D01*
X2700Y1065D02*
X2778Y1065D01*
X2800Y1065D02*
X2878Y1065D01*
X2000Y1064D02*
X2079Y1064D01*
X2100Y1064D02*
X2179Y1064D01*
X2200Y1064D02*
X2279Y1064D01*
X2300Y1064D02*
X2379Y1064D01*
X2400Y1064D02*
X2479Y1064D01*
X2500Y1064D02*
X2579Y1064D01*
X2600Y1064D02*
X2679Y1064D01*
X2700Y1064D02*
X2779Y1064D01*
X2800Y1064D02*
X2879Y1064D01*
X2000Y1063D02*
X2079Y1063D01*
X2100Y1063D02*
X2179Y1063D01*
X2200Y1063D02*
X2279Y1063D01*
X2300Y1063D02*
X2379Y1063D01*
X2400Y1063D02*
X2479Y1063D01*
X2500Y1063D02*
X2579Y1063D01*
X2600Y1063D02*
X2679Y1063D01*
X2700Y1063D02*
X2779Y1063D01*
X2800Y1063D02*
X2879Y1063D01*
X2000Y1062D02*
X2079Y1062D01*
X2100Y1062D02*
X2179Y1062D01*
X2200Y1062D02*
X2279Y1062D01*
X2300Y1062D02*
X2379Y1062D01*
X2400Y1062D02*
X2479Y1062D01*
X2500Y1062D02*
X2579Y1062D01*
X2600Y1062D02*
X2679Y1062D01*
X2700Y1062D02*
X2779Y1062D01*
X2800Y1062D02*
X2879Y1062D01*
X2000Y1061D02*
X2079Y1061D01*
X2100Y1061D02*
X2179Y1061D01*
X2200Y1061D02*
X2279Y1061D01*
X2300Y1061D02*
X2379Y1061D01*
X2400Y1061D02*
X2479Y1061D01*
X2500Y1061D02*
X2579Y1061D01*
X2600Y1061D02*
X2679Y1061D01*
X2700Y1061D02*
X2779Y1061D01*
X2800Y1061D02*
X2879Y1061D01*
X2000Y1060D02*
X2079Y1060D01*
X2100Y1060D02*
X2179Y1060D01*
X2200Y1060D02*
X2279Y1060D01*
X2300Y1060D02*
X2379Y1060D01*
X2400Y1060D02*
X2479Y1060D01*
X2500Y1060D02*
X2579Y1060D01*
X2600Y1060D02*
X2678Y1060D01*
X2700Y1060D02*
X2778Y1060D01*
X2800Y1060D02*
X2878Y1060D01*
X2000Y1059D02*
X2078Y1059D01*
X2100Y1059D02*
X2178Y1059D01*
X2200Y1059D02*
X2278Y1059D01*
X2300Y1059D02*
X2378Y1059D01*
X2400Y1059D02*
X2478Y1059D01*
X2500Y1059D02*
X2578Y1059D01*
X2600Y1059D02*
X2678Y1059D01*
X2700Y1059D02*
X2778Y1059D01*
X2800Y1059D02*
X2878Y1059D01*
X2000Y1058D02*
X2078Y1058D01*
X2100Y1058D02*
X2178Y1058D01*
X2200Y1058D02*
X2278Y1058D01*
X2300Y1058D02*
X2378Y1058D01*
X2400Y1058D02*
X2478Y1058D01*
X2500Y1058D02*
X2578Y1058D01*
X2600Y1058D02*
X2678Y1058D01*
X2700Y1058D02*
X2778Y1058D01*
X2800Y1058D02*
X2878Y1058D01*
X2000Y1057D02*
X2078Y1057D01*
X2100Y1057D02*
X2178Y1057D01*
X2200Y1057D02*
X2278Y1057D01*
X2300Y1057D02*
X2378Y1057D01*
X2400Y1057D02*
X2478Y1057D01*
X2500Y1057D02*
X2578Y1057D01*
X2600Y1057D02*
X2678Y1057D01*
X2700Y1057D02*
X2778Y1057D01*
X2800Y1057D02*
X2878Y1057D01*
X2000Y1056D02*
X2078Y1056D01*
X2100Y1056D02*
X2178Y1056D01*
X2200Y1056D02*
X2278Y1056D01*
X2300Y1056D02*
X2378Y1056D01*
X2400Y1056D02*
X2478Y1056D01*
X2500Y1056D02*
X2578Y1056D01*
X2600Y1056D02*
X2678Y1056D01*
X2700Y1056D02*
X2778Y1056D01*
X2800Y1056D02*
X2878Y1056D01*
X2000Y1055D02*
X2078Y1055D01*
X2100Y1055D02*
X2178Y1055D01*
X2200Y1055D02*
X2278Y1055D01*
X2300Y1055D02*
X2378Y1055D01*
X2400Y1055D02*
X2478Y1055D01*
X2500Y1055D02*
X2578Y1055D01*
X2600Y1055D02*
X2678Y1055D01*
X2700Y1055D02*
X2778Y1055D01*
X2800Y1055D02*
X2878Y1055D01*
X2001Y1054D02*
X2078Y1054D01*
X2101Y1054D02*
X2178Y1054D01*
X2201Y1054D02*
X2278Y1054D01*
X2301Y1054D02*
X2378Y1054D01*
X2401Y1054D02*
X2478Y1054D01*
X2501Y1054D02*
X2578Y1054D01*
X2601Y1054D02*
X2678Y1054D01*
X2701Y1054D02*
X2778Y1054D01*
X2801Y1054D02*
X2878Y1054D01*
X2001Y1053D02*
X2077Y1053D01*
X2101Y1053D02*
X2177Y1053D01*
X2201Y1053D02*
X2277Y1053D01*
X2301Y1053D02*
X2377Y1053D01*
X2401Y1053D02*
X2477Y1053D01*
X2501Y1053D02*
X2577Y1053D01*
X2601Y1053D02*
X2677Y1053D01*
X2701Y1053D02*
X2777Y1053D01*
X2801Y1053D02*
X2877Y1053D01*
X2001Y1052D02*
X2077Y1052D01*
X2101Y1052D02*
X2177Y1052D01*
X2201Y1052D02*
X2277Y1052D01*
X2301Y1052D02*
X2377Y1052D01*
X2401Y1052D02*
X2477Y1052D01*
X2501Y1052D02*
X2577Y1052D01*
X2601Y1052D02*
X2677Y1052D01*
X2701Y1052D02*
X2777Y1052D01*
X2801Y1052D02*
X2877Y1052D01*
X2001Y1051D02*
X2077Y1051D01*
X2101Y1051D02*
X2177Y1051D01*
X2201Y1051D02*
X2277Y1051D01*
X2301Y1051D02*
X2377Y1051D01*
X2401Y1051D02*
X2477Y1051D01*
X2501Y1051D02*
X2577Y1051D01*
X2601Y1051D02*
X2677Y1051D01*
X2701Y1051D02*
X2777Y1051D01*
X2801Y1051D02*
X2877Y1051D01*
X2002Y1050D02*
X2077Y1050D01*
X2102Y1050D02*
X2177Y1050D01*
X2202Y1050D02*
X2277Y1050D01*
X2302Y1050D02*
X2377Y1050D01*
X2402Y1050D02*
X2477Y1050D01*
X2502Y1050D02*
X2577Y1050D01*
X2602Y1050D02*
X2677Y1050D01*
X2702Y1050D02*
X2777Y1050D01*
X2802Y1050D02*
X2877Y1050D01*
X2002Y1049D02*
X2076Y1049D01*
X2102Y1049D02*
X2176Y1049D01*
X2202Y1049D02*
X2276Y1049D01*
X2302Y1049D02*
X2376Y1049D01*
X2402Y1049D02*
X2476Y1049D01*
X2502Y1049D02*
X2576Y1049D01*
X2602Y1049D02*
X2676Y1049D01*
X2702Y1049D02*
X2776Y1049D01*
X2802Y1049D02*
X2876Y1049D01*
X2002Y1048D02*
X2076Y1048D01*
X2102Y1048D02*
X2176Y1048D01*
X2202Y1048D02*
X2276Y1048D01*
X2302Y1048D02*
X2376Y1048D01*
X2402Y1048D02*
X2476Y1048D01*
X2502Y1048D02*
X2576Y1048D01*
X2602Y1048D02*
X2676Y1048D01*
X2702Y1048D02*
X2776Y1048D01*
X2802Y1048D02*
X2876Y1048D01*
X2003Y1047D02*
X2076Y1047D01*
X2103Y1047D02*
X2176Y1047D01*
X2203Y1047D02*
X2276Y1047D01*
X2303Y1047D02*
X2376Y1047D01*
X2403Y1047D02*
X2476Y1047D01*
X2503Y1047D02*
X2576Y1047D01*
X2603Y1047D02*
X2676Y1047D01*
X2703Y1047D02*
X2776Y1047D01*
X2803Y1047D02*
X2876Y1047D01*
X2003Y1046D02*
X2075Y1046D01*
X2103Y1046D02*
X2175Y1046D01*
X2203Y1046D02*
X2275Y1046D01*
X2303Y1046D02*
X2375Y1046D01*
X2403Y1046D02*
X2475Y1046D01*
X2503Y1046D02*
X2575Y1046D01*
X2603Y1046D02*
X2675Y1046D01*
X2703Y1046D02*
X2775Y1046D01*
X2803Y1046D02*
X2875Y1046D01*
X2004Y1045D02*
X2075Y1045D01*
X2104Y1045D02*
X2175Y1045D01*
X2204Y1045D02*
X2275Y1045D01*
X2304Y1045D02*
X2375Y1045D01*
X2404Y1045D02*
X2475Y1045D01*
X2504Y1045D02*
X2575Y1045D01*
X2604Y1045D02*
X2675Y1045D01*
X2704Y1045D02*
X2775Y1045D01*
X2804Y1045D02*
X2875Y1045D01*
X2004Y1044D02*
X2074Y1044D01*
X2104Y1044D02*
X2174Y1044D01*
X2204Y1044D02*
X2274Y1044D01*
X2304Y1044D02*
X2374Y1044D01*
X2404Y1044D02*
X2474Y1044D01*
X2504Y1044D02*
X2574Y1044D01*
X2604Y1044D02*
X2674Y1044D01*
X2704Y1044D02*
X2774Y1044D01*
X2804Y1044D02*
X2874Y1044D01*
X2005Y1043D02*
X2074Y1043D01*
X2105Y1043D02*
X2174Y1043D01*
X2205Y1043D02*
X2274Y1043D01*
X2305Y1043D02*
X2374Y1043D01*
X2405Y1043D02*
X2474Y1043D01*
X2505Y1043D02*
X2574Y1043D01*
X2605Y1043D02*
X2674Y1043D01*
X2705Y1043D02*
X2774Y1043D01*
X2805Y1043D02*
X2874Y1043D01*
X2005Y1042D02*
X2073Y1042D01*
X2105Y1042D02*
X2173Y1042D01*
X2205Y1042D02*
X2273Y1042D01*
X2305Y1042D02*
X2373Y1042D01*
X2405Y1042D02*
X2473Y1042D01*
X2505Y1042D02*
X2573Y1042D01*
X2605Y1042D02*
X2673Y1042D01*
X2705Y1042D02*
X2773Y1042D01*
X2805Y1042D02*
X2873Y1042D01*
X2006Y1041D02*
X2072Y1041D01*
X2106Y1041D02*
X2172Y1041D01*
X2206Y1041D02*
X2272Y1041D01*
X2306Y1041D02*
X2372Y1041D01*
X2406Y1041D02*
X2472Y1041D01*
X2506Y1041D02*
X2572Y1041D01*
X2606Y1041D02*
X2672Y1041D01*
X2706Y1041D02*
X2772Y1041D01*
X2806Y1041D02*
X2872Y1041D01*
X2007Y1040D02*
X2072Y1040D01*
X2107Y1040D02*
X2172Y1040D01*
X2207Y1040D02*
X2272Y1040D01*
X2307Y1040D02*
X2372Y1040D01*
X2407Y1040D02*
X2472Y1040D01*
X2507Y1040D02*
X2572Y1040D01*
X2607Y1040D02*
X2672Y1040D01*
X2706Y1040D02*
X2772Y1040D01*
X2806Y1040D02*
X2872Y1040D01*
X2007Y1039D02*
X2071Y1039D01*
X2107Y1039D02*
X2171Y1039D01*
X2207Y1039D02*
X2271Y1039D01*
X2307Y1039D02*
X2371Y1039D01*
X2407Y1039D02*
X2471Y1039D01*
X2507Y1039D02*
X2571Y1039D01*
X2607Y1039D02*
X2671Y1039D01*
X2707Y1039D02*
X2771Y1039D01*
X2807Y1039D02*
X2871Y1039D01*
X2008Y1038D02*
X2070Y1038D01*
X2108Y1038D02*
X2170Y1038D01*
X2208Y1038D02*
X2270Y1038D01*
X2308Y1038D02*
X2370Y1038D01*
X2408Y1038D02*
X2470Y1038D01*
X2508Y1038D02*
X2570Y1038D01*
X2608Y1038D02*
X2670Y1038D01*
X2708Y1038D02*
X2770Y1038D01*
X2808Y1038D02*
X2870Y1038D01*
X2009Y1037D02*
X2070Y1037D01*
X2109Y1037D02*
X2170Y1037D01*
X2209Y1037D02*
X2270Y1037D01*
X2309Y1037D02*
X2370Y1037D01*
X2409Y1037D02*
X2470Y1037D01*
X2509Y1037D02*
X2570Y1037D01*
X2609Y1037D02*
X2670Y1037D01*
X2709Y1037D02*
X2770Y1037D01*
X2809Y1037D02*
X2870Y1037D01*
X2010Y1036D02*
X2069Y1036D01*
X2110Y1036D02*
X2169Y1036D01*
X2210Y1036D02*
X2269Y1036D01*
X2310Y1036D02*
X2369Y1036D01*
X2410Y1036D02*
X2469Y1036D01*
X2510Y1036D02*
X2569Y1036D01*
X2610Y1036D02*
X2669Y1036D01*
X2710Y1036D02*
X2769Y1036D01*
X2810Y1036D02*
X2869Y1036D01*
X2011Y1035D02*
X2068Y1035D01*
X2111Y1035D02*
X2168Y1035D01*
X2210Y1035D02*
X2268Y1035D01*
X2310Y1035D02*
X2368Y1035D01*
X2410Y1035D02*
X2468Y1035D01*
X2510Y1035D02*
X2568Y1035D01*
X2610Y1035D02*
X2668Y1035D01*
X2710Y1035D02*
X2768Y1035D01*
X2810Y1035D02*
X2868Y1035D01*
X2011Y1034D02*
X2067Y1034D01*
X2111Y1034D02*
X2167Y1034D01*
X2211Y1034D02*
X2267Y1034D01*
X2311Y1034D02*
X2367Y1034D01*
X2411Y1034D02*
X2467Y1034D01*
X2511Y1034D02*
X2567Y1034D01*
X2611Y1034D02*
X2667Y1034D01*
X2711Y1034D02*
X2767Y1034D01*
X2811Y1034D02*
X2867Y1034D01*
X2013Y1033D02*
X2066Y1033D01*
X2113Y1033D02*
X2166Y1033D01*
X2213Y1033D02*
X2266Y1033D01*
X2313Y1033D02*
X2366Y1033D01*
X2412Y1033D02*
X2466Y1033D01*
X2512Y1033D02*
X2566Y1033D01*
X2612Y1033D02*
X2666Y1033D01*
X2712Y1033D02*
X2766Y1033D01*
X2812Y1033D02*
X2866Y1033D01*
X2014Y1032D02*
X2065Y1032D01*
X2114Y1032D02*
X2165Y1032D01*
X2214Y1032D02*
X2265Y1032D01*
X2314Y1032D02*
X2365Y1032D01*
X2414Y1032D02*
X2465Y1032D01*
X2514Y1032D02*
X2565Y1032D01*
X2614Y1032D02*
X2665Y1032D01*
X2714Y1032D02*
X2765Y1032D01*
X2814Y1032D02*
X2865Y1032D01*
X2015Y1031D02*
X2063Y1031D01*
X2115Y1031D02*
X2163Y1031D01*
X2215Y1031D02*
X2263Y1031D01*
X2315Y1031D02*
X2363Y1031D01*
X2415Y1031D02*
X2463Y1031D01*
X2515Y1031D02*
X2563Y1031D01*
X2615Y1031D02*
X2663Y1031D01*
X2715Y1031D02*
X2763Y1031D01*
X2815Y1031D02*
X2863Y1031D01*
X2016Y1030D02*
X2062Y1030D01*
X2116Y1030D02*
X2162Y1030D01*
X2216Y1030D02*
X2262Y1030D01*
X2316Y1030D02*
X2362Y1030D01*
X2416Y1030D02*
X2462Y1030D01*
X2516Y1030D02*
X2562Y1030D01*
X2616Y1030D02*
X2662Y1030D01*
X2716Y1030D02*
X2762Y1030D01*
X2816Y1030D02*
X2862Y1030D01*
X2018Y1029D02*
X2061Y1029D01*
X2118Y1029D02*
X2161Y1029D01*
X2218Y1029D02*
X2261Y1029D01*
X2318Y1029D02*
X2361Y1029D01*
X2418Y1029D02*
X2461Y1029D01*
X2518Y1029D02*
X2561Y1029D01*
X2618Y1029D02*
X2661Y1029D01*
X2718Y1029D02*
X2761Y1029D01*
X2818Y1029D02*
X2861Y1029D01*
X2019Y1028D02*
X2059Y1028D01*
X2119Y1028D02*
X2159Y1028D01*
X2219Y1028D02*
X2259Y1028D01*
X2319Y1028D02*
X2359Y1028D01*
X2419Y1028D02*
X2459Y1028D01*
X2519Y1028D02*
X2559Y1028D01*
X2619Y1028D02*
X2659Y1028D01*
X2719Y1028D02*
X2759Y1028D01*
X2819Y1028D02*
X2859Y1028D01*
X2021Y1027D02*
X2057Y1027D01*
X2121Y1027D02*
X2157Y1027D01*
X2221Y1027D02*
X2257Y1027D01*
X2321Y1027D02*
X2357Y1027D01*
X2421Y1027D02*
X2457Y1027D01*
X2521Y1027D02*
X2557Y1027D01*
X2621Y1027D02*
X2657Y1027D01*
X2721Y1027D02*
X2757Y1027D01*
X2821Y1027D02*
X2857Y1027D01*
X2023Y1026D02*
X2055Y1026D01*
X2123Y1026D02*
X2155Y1026D01*
X2223Y1026D02*
X2255Y1026D01*
X2323Y1026D02*
X2355Y1026D01*
X2423Y1026D02*
X2455Y1026D01*
X2523Y1026D02*
X2555Y1026D01*
X2623Y1026D02*
X2655Y1026D01*
X2723Y1026D02*
X2755Y1026D01*
X2823Y1026D02*
X2855Y1026D01*
X2025Y1025D02*
X2053Y1025D01*
X2125Y1025D02*
X2153Y1025D01*
X2225Y1025D02*
X2253Y1025D01*
X2325Y1025D02*
X2353Y1025D01*
X2425Y1025D02*
X2453Y1025D01*
X2525Y1025D02*
X2553Y1025D01*
X2625Y1025D02*
X2653Y1025D01*
X2725Y1025D02*
X2753Y1025D01*
X2825Y1025D02*
X2853Y1025D01*
X2028Y1024D02*
X2050Y1024D01*
X2128Y1024D02*
X2150Y1024D01*
X2228Y1024D02*
X2250Y1024D01*
X2328Y1024D02*
X2350Y1024D01*
X2428Y1024D02*
X2450Y1024D01*
X2528Y1024D02*
X2550Y1024D01*
X2628Y1024D02*
X2650Y1024D01*
X2728Y1024D02*
X2750Y1024D01*
X2828Y1024D02*
X2850Y1024D01*
X2033Y1023D02*
X2046Y1023D01*
X2133Y1023D02*
X2146Y1023D01*
X2233Y1023D02*
X2246Y1023D01*
X2333Y1023D02*
X2346Y1023D01*
X2433Y1023D02*
X2446Y1023D01*
X2533Y1023D02*
X2546Y1023D01*
X2633Y1023D02*
X2646Y1023D01*
X2733Y1023D02*
X2746Y1023D01*
X2833Y1023D02*
X2846Y1023D01*
X2035Y802D02*
X2043Y802D01*
X2135Y802D02*
X2143Y802D01*
X2235Y802D02*
X2243Y802D01*
X2335Y802D02*
X2343Y802D01*
X2435Y802D02*
X2443Y802D01*
X2535Y802D02*
X2543Y802D01*
X2635Y802D02*
X2643Y802D01*
X2735Y802D02*
X2743Y802D01*
X2835Y802D02*
X2843Y802D01*
X2030Y801D02*
X2049Y801D01*
X2130Y801D02*
X2149Y801D01*
X2230Y801D02*
X2249Y801D01*
X2330Y801D02*
X2349Y801D01*
X2430Y801D02*
X2449Y801D01*
X2530Y801D02*
X2549Y801D01*
X2630Y801D02*
X2649Y801D01*
X2730Y801D02*
X2749Y801D01*
X2830Y801D02*
X2848Y801D01*
X2026Y800D02*
X2052Y800D01*
X2126Y800D02*
X2152Y800D01*
X2226Y800D02*
X2252Y800D01*
X2326Y800D02*
X2352Y800D01*
X2426Y800D02*
X2452Y800D01*
X2526Y800D02*
X2552Y800D01*
X2626Y800D02*
X2652Y800D01*
X2726Y800D02*
X2752Y800D01*
X2826Y800D02*
X2852Y800D01*
X2024Y799D02*
X2055Y799D01*
X2124Y799D02*
X2155Y799D01*
X2224Y799D02*
X2255Y799D01*
X2324Y799D02*
X2355Y799D01*
X2424Y799D02*
X2455Y799D01*
X2524Y799D02*
X2555Y799D01*
X2624Y799D02*
X2655Y799D01*
X2724Y799D02*
X2755Y799D01*
X2824Y799D02*
X2855Y799D01*
X2022Y798D02*
X2057Y798D01*
X2122Y798D02*
X2157Y798D01*
X2222Y798D02*
X2257Y798D01*
X2322Y798D02*
X2357Y798D01*
X2422Y798D02*
X2457Y798D01*
X2522Y798D02*
X2557Y798D01*
X2622Y798D02*
X2657Y798D01*
X2722Y798D02*
X2757Y798D01*
X2822Y798D02*
X2857Y798D01*
X2020Y797D02*
X2058Y797D01*
X2120Y797D02*
X2158Y797D01*
X2220Y797D02*
X2258Y797D01*
X2320Y797D02*
X2358Y797D01*
X2420Y797D02*
X2458Y797D01*
X2520Y797D02*
X2558Y797D01*
X2620Y797D02*
X2658Y797D01*
X2720Y797D02*
X2758Y797D01*
X2820Y797D02*
X2858Y797D01*
X2018Y796D02*
X2060Y796D01*
X2118Y796D02*
X2160Y796D01*
X2218Y796D02*
X2260Y796D01*
X2318Y796D02*
X2360Y796D01*
X2418Y796D02*
X2460Y796D01*
X2518Y796D02*
X2560Y796D01*
X2618Y796D02*
X2660Y796D01*
X2718Y796D02*
X2760Y796D01*
X2818Y796D02*
X2860Y796D01*
X2017Y795D02*
X2062Y795D01*
X2117Y795D02*
X2162Y795D01*
X2217Y795D02*
X2262Y795D01*
X2317Y795D02*
X2362Y795D01*
X2417Y795D02*
X2462Y795D01*
X2517Y795D02*
X2562Y795D01*
X2617Y795D02*
X2662Y795D01*
X2717Y795D02*
X2762Y795D01*
X2817Y795D02*
X2862Y795D01*
X2015Y794D02*
X2063Y794D01*
X2115Y794D02*
X2163Y794D01*
X2215Y794D02*
X2263Y794D01*
X2315Y794D02*
X2363Y794D01*
X2415Y794D02*
X2463Y794D01*
X2515Y794D02*
X2563Y794D01*
X2615Y794D02*
X2663Y794D01*
X2715Y794D02*
X2763Y794D01*
X2815Y794D02*
X2863Y794D01*
X2014Y793D02*
X2064Y793D01*
X2114Y793D02*
X2164Y793D01*
X2214Y793D02*
X2264Y793D01*
X2314Y793D02*
X2364Y793D01*
X2414Y793D02*
X2464Y793D01*
X2514Y793D02*
X2564Y793D01*
X2614Y793D02*
X2664Y793D01*
X2714Y793D02*
X2764Y793D01*
X2814Y793D02*
X2864Y793D01*
X2013Y792D02*
X2065Y792D01*
X2113Y792D02*
X2165Y792D01*
X2213Y792D02*
X2265Y792D01*
X2313Y792D02*
X2365Y792D01*
X2413Y792D02*
X2465Y792D01*
X2513Y792D02*
X2565Y792D01*
X2613Y792D02*
X2665Y792D01*
X2713Y792D02*
X2765Y792D01*
X2813Y792D02*
X2865Y792D01*
X2012Y791D02*
X2067Y791D01*
X2112Y791D02*
X2167Y791D01*
X2212Y791D02*
X2267Y791D01*
X2312Y791D02*
X2367Y791D01*
X2412Y791D02*
X2467Y791D01*
X2512Y791D02*
X2567Y791D01*
X2612Y791D02*
X2667Y791D01*
X2712Y791D02*
X2766Y791D01*
X2812Y791D02*
X2866Y791D01*
X2011Y790D02*
X2068Y790D01*
X2111Y790D02*
X2168Y790D01*
X2211Y790D02*
X2268Y790D01*
X2311Y790D02*
X2368Y790D01*
X2411Y790D02*
X2467Y790D01*
X2511Y790D02*
X2567Y790D01*
X2611Y790D02*
X2667Y790D01*
X2711Y790D02*
X2767Y790D01*
X2811Y790D02*
X2867Y790D01*
X2010Y789D02*
X2068Y789D01*
X2110Y789D02*
X2168Y789D01*
X2210Y789D02*
X2268Y789D01*
X2310Y789D02*
X2368Y789D01*
X2410Y789D02*
X2468Y789D01*
X2510Y789D02*
X2568Y789D01*
X2610Y789D02*
X2668Y789D01*
X2710Y789D02*
X2768Y789D01*
X2810Y789D02*
X2868Y789D01*
X2009Y788D02*
X2069Y788D01*
X2109Y788D02*
X2169Y788D01*
X2209Y788D02*
X2269Y788D01*
X2309Y788D02*
X2369Y788D01*
X2409Y788D02*
X2469Y788D01*
X2509Y788D02*
X2569Y788D01*
X2609Y788D02*
X2669Y788D01*
X2709Y788D02*
X2769Y788D01*
X2809Y788D02*
X2869Y788D01*
X2008Y787D02*
X2070Y787D01*
X2108Y787D02*
X2170Y787D01*
X2208Y787D02*
X2270Y787D01*
X2308Y787D02*
X2370Y787D01*
X2408Y787D02*
X2470Y787D01*
X2508Y787D02*
X2570Y787D01*
X2608Y787D02*
X2670Y787D01*
X2708Y787D02*
X2770Y787D01*
X2808Y787D02*
X2870Y787D01*
X2008Y786D02*
X2071Y786D01*
X2108Y786D02*
X2171Y786D01*
X2208Y786D02*
X2271Y786D01*
X2308Y786D02*
X2371Y786D01*
X2408Y786D02*
X2471Y786D01*
X2508Y786D02*
X2571Y786D01*
X2608Y786D02*
X2671Y786D01*
X2707Y786D02*
X2771Y786D01*
X2807Y786D02*
X2871Y786D01*
X2007Y785D02*
X2072Y785D01*
X2107Y785D02*
X2172Y785D01*
X2207Y785D02*
X2272Y785D01*
X2307Y785D02*
X2372Y785D01*
X2407Y785D02*
X2472Y785D01*
X2507Y785D02*
X2572Y785D01*
X2607Y785D02*
X2672Y785D01*
X2707Y785D02*
X2771Y785D01*
X2807Y785D02*
X2871Y785D01*
X2006Y784D02*
X2072Y784D01*
X2106Y784D02*
X2172Y784D01*
X2206Y784D02*
X2272Y784D01*
X2306Y784D02*
X2372Y784D01*
X2406Y784D02*
X2472Y784D01*
X2506Y784D02*
X2572Y784D01*
X2606Y784D02*
X2672Y784D01*
X2706Y784D02*
X2772Y784D01*
X2806Y784D02*
X2872Y784D01*
X2006Y783D02*
X2073Y783D01*
X2106Y783D02*
X2173Y783D01*
X2206Y783D02*
X2273Y783D01*
X2306Y783D02*
X2373Y783D01*
X2406Y783D02*
X2473Y783D01*
X2506Y783D02*
X2573Y783D01*
X2606Y783D02*
X2673Y783D01*
X2705Y783D02*
X2773Y783D01*
X2805Y783D02*
X2873Y783D01*
X2005Y782D02*
X2073Y782D01*
X2105Y782D02*
X2173Y782D01*
X2205Y782D02*
X2273Y782D01*
X2305Y782D02*
X2373Y782D01*
X2405Y782D02*
X2473Y782D01*
X2505Y782D02*
X2573Y782D01*
X2605Y782D02*
X2673Y782D01*
X2705Y782D02*
X2773Y782D01*
X2805Y782D02*
X2873Y782D01*
X2004Y781D02*
X2074Y781D01*
X2104Y781D02*
X2174Y781D01*
X2204Y781D02*
X2274Y781D01*
X2304Y781D02*
X2374Y781D01*
X2404Y781D02*
X2474Y781D01*
X2504Y781D02*
X2574Y781D01*
X2604Y781D02*
X2674Y781D01*
X2704Y781D02*
X2774Y781D01*
X2804Y781D02*
X2874Y781D01*
X2004Y780D02*
X2075Y780D01*
X2104Y780D02*
X2175Y780D01*
X2204Y780D02*
X2274Y780D01*
X2304Y780D02*
X2374Y780D01*
X2404Y780D02*
X2474Y780D01*
X2504Y780D02*
X2574Y780D01*
X2604Y780D02*
X2674Y780D01*
X2704Y780D02*
X2774Y780D01*
X2804Y780D02*
X2874Y780D01*
X2003Y779D02*
X2075Y779D01*
X2103Y779D02*
X2175Y779D01*
X2203Y779D02*
X2275Y779D01*
X2303Y779D02*
X2375Y779D01*
X2403Y779D02*
X2475Y779D01*
X2503Y779D02*
X2575Y779D01*
X2603Y779D02*
X2675Y779D01*
X2703Y779D02*
X2775Y779D01*
X2803Y779D02*
X2875Y779D01*
X2003Y778D02*
X2075Y778D01*
X2103Y778D02*
X2175Y778D01*
X2203Y778D02*
X2275Y778D01*
X2303Y778D02*
X2375Y778D01*
X2403Y778D02*
X2475Y778D01*
X2503Y778D02*
X2575Y778D01*
X2603Y778D02*
X2675Y778D01*
X2703Y778D02*
X2775Y778D01*
X2803Y778D02*
X2875Y778D01*
X2003Y777D02*
X2076Y777D01*
X2103Y777D02*
X2176Y777D01*
X2202Y777D02*
X2276Y777D01*
X2302Y777D02*
X2376Y777D01*
X2402Y777D02*
X2476Y777D01*
X2502Y777D02*
X2576Y777D01*
X2602Y777D02*
X2676Y777D01*
X2702Y777D02*
X2776Y777D01*
X2802Y777D02*
X2876Y777D01*
X2002Y776D02*
X2076Y776D01*
X2102Y776D02*
X2176Y776D01*
X2202Y776D02*
X2276Y776D01*
X2302Y776D02*
X2376Y776D01*
X2402Y776D02*
X2476Y776D01*
X2502Y776D02*
X2576Y776D01*
X2602Y776D02*
X2676Y776D01*
X2702Y776D02*
X2776Y776D01*
X2802Y776D02*
X2876Y776D01*
X2002Y775D02*
X2077Y775D01*
X2102Y775D02*
X2177Y775D01*
X2202Y775D02*
X2277Y775D01*
X2302Y775D02*
X2377Y775D01*
X2402Y775D02*
X2477Y775D01*
X2502Y775D02*
X2577Y775D01*
X2602Y775D02*
X2677Y775D01*
X2702Y775D02*
X2777Y775D01*
X2802Y775D02*
X2877Y775D01*
X2001Y774D02*
X2077Y774D01*
X2101Y774D02*
X2177Y774D01*
X2201Y774D02*
X2277Y774D01*
X2301Y774D02*
X2377Y774D01*
X2401Y774D02*
X2477Y774D01*
X2501Y774D02*
X2577Y774D01*
X2601Y774D02*
X2677Y774D01*
X2701Y774D02*
X2777Y774D01*
X2801Y774D02*
X2877Y774D01*
X2001Y773D02*
X2077Y773D01*
X2101Y773D02*
X2177Y773D01*
X2201Y773D02*
X2277Y773D01*
X2301Y773D02*
X2377Y773D01*
X2401Y773D02*
X2477Y773D01*
X2501Y773D02*
X2577Y773D01*
X2601Y773D02*
X2677Y773D01*
X2701Y773D02*
X2777Y773D01*
X2801Y773D02*
X2877Y773D01*
X2001Y772D02*
X2077Y772D01*
X2101Y772D02*
X2177Y772D01*
X2201Y772D02*
X2277Y772D01*
X2301Y772D02*
X2377Y772D01*
X2401Y772D02*
X2477Y772D01*
X2501Y772D02*
X2577Y772D01*
X2601Y772D02*
X2677Y772D01*
X2701Y772D02*
X2777Y772D01*
X2801Y772D02*
X2877Y772D01*
X2001Y771D02*
X2078Y771D01*
X2101Y771D02*
X2178Y771D01*
X2201Y771D02*
X2278Y771D01*
X2301Y771D02*
X2378Y771D01*
X2401Y771D02*
X2478Y771D01*
X2501Y771D02*
X2578Y771D01*
X2601Y771D02*
X2678Y771D01*
X2701Y771D02*
X2778Y771D01*
X2801Y771D02*
X2878Y771D01*
X2001Y770D02*
X2078Y770D01*
X2101Y770D02*
X2178Y770D01*
X2200Y770D02*
X2278Y770D01*
X2300Y770D02*
X2378Y770D01*
X2400Y770D02*
X2478Y770D01*
X2500Y770D02*
X2578Y770D01*
X2600Y770D02*
X2678Y770D01*
X2700Y770D02*
X2778Y770D01*
X2800Y770D02*
X2878Y770D01*
X2000Y769D02*
X2078Y769D01*
X2100Y769D02*
X2178Y769D01*
X2200Y769D02*
X2278Y769D01*
X2300Y769D02*
X2378Y769D01*
X2400Y769D02*
X2478Y769D01*
X2500Y769D02*
X2578Y769D01*
X2600Y769D02*
X2678Y769D01*
X2700Y769D02*
X2778Y769D01*
X2800Y769D02*
X2878Y769D01*
X2000Y768D02*
X2078Y768D01*
X2100Y768D02*
X2178Y768D01*
X2200Y768D02*
X2278Y768D01*
X2300Y768D02*
X2378Y768D01*
X2400Y768D02*
X2478Y768D01*
X2500Y768D02*
X2578Y768D01*
X2600Y768D02*
X2678Y768D01*
X2700Y768D02*
X2778Y768D01*
X2800Y768D02*
X2878Y768D01*
X2000Y767D02*
X2078Y767D01*
X2100Y767D02*
X2178Y767D01*
X2200Y767D02*
X2278Y767D01*
X2300Y767D02*
X2378Y767D01*
X2400Y767D02*
X2478Y767D01*
X2500Y767D02*
X2578Y767D01*
X2600Y767D02*
X2678Y767D01*
X2700Y767D02*
X2778Y767D01*
X2800Y767D02*
X2878Y767D01*
X2000Y766D02*
X2078Y766D01*
X2100Y766D02*
X2178Y766D01*
X2200Y766D02*
X2278Y766D01*
X2300Y766D02*
X2378Y766D01*
X2400Y766D02*
X2478Y766D01*
X2500Y766D02*
X2578Y766D01*
X2600Y766D02*
X2678Y766D01*
X2700Y766D02*
X2778Y766D01*
X2800Y766D02*
X2878Y766D01*
X2000Y765D02*
X2079Y765D01*
X2100Y765D02*
X2179Y765D01*
X2200Y765D02*
X2279Y765D01*
X2300Y765D02*
X2379Y765D01*
X2400Y765D02*
X2479Y765D01*
X2500Y765D02*
X2578Y765D01*
X2600Y765D02*
X2678Y765D01*
X2700Y765D02*
X2778Y765D01*
X2800Y765D02*
X2878Y765D01*
X2000Y764D02*
X2079Y764D01*
X2100Y764D02*
X2179Y764D01*
X2200Y764D02*
X2279Y764D01*
X2300Y764D02*
X2379Y764D01*
X2400Y764D02*
X2479Y764D01*
X2500Y764D02*
X2579Y764D01*
X2600Y764D02*
X2679Y764D01*
X2700Y764D02*
X2779Y764D01*
X2800Y764D02*
X2879Y764D01*
X2000Y763D02*
X2079Y763D01*
X2100Y763D02*
X2179Y763D01*
X2200Y763D02*
X2279Y763D01*
X2300Y763D02*
X2379Y763D01*
X2400Y763D02*
X2479Y763D01*
X2500Y763D02*
X2579Y763D01*
X2600Y763D02*
X2679Y763D01*
X2700Y763D02*
X2779Y763D01*
X2800Y763D02*
X2879Y763D01*
X2000Y762D02*
X2079Y762D01*
X2100Y762D02*
X2179Y762D01*
X2200Y762D02*
X2279Y762D01*
X2300Y762D02*
X2379Y762D01*
X2400Y762D02*
X2479Y762D01*
X2500Y762D02*
X2579Y762D01*
X2600Y762D02*
X2679Y762D01*
X2700Y762D02*
X2779Y762D01*
X2800Y762D02*
X2879Y762D01*
X2000Y761D02*
X2079Y761D01*
X2100Y761D02*
X2179Y761D01*
X2200Y761D02*
X2279Y761D01*
X2300Y761D02*
X2379Y761D01*
X2400Y761D02*
X2479Y761D01*
X2500Y761D02*
X2579Y761D01*
X2600Y761D02*
X2679Y761D01*
X2700Y761D02*
X2779Y761D01*
X2800Y761D02*
X2879Y761D01*
X2000Y760D02*
X2079Y760D01*
X2100Y760D02*
X2179Y760D01*
X2200Y760D02*
X2279Y760D01*
X2300Y760D02*
X2379Y760D01*
X2400Y760D02*
X2479Y760D01*
X2500Y760D02*
X2579Y760D01*
X2600Y760D02*
X2678Y760D01*
X2700Y760D02*
X2778Y760D01*
X2800Y760D02*
X2878Y760D01*
X2000Y759D02*
X2078Y759D01*
X2100Y759D02*
X2178Y759D01*
X2200Y759D02*
X2278Y759D01*
X2300Y759D02*
X2378Y759D01*
X2400Y759D02*
X2478Y759D01*
X2500Y759D02*
X2578Y759D01*
X2600Y759D02*
X2678Y759D01*
X2700Y759D02*
X2778Y759D01*
X2800Y759D02*
X2878Y759D01*
X2000Y758D02*
X2078Y758D01*
X2100Y758D02*
X2178Y758D01*
X2200Y758D02*
X2278Y758D01*
X2300Y758D02*
X2378Y758D01*
X2400Y758D02*
X2478Y758D01*
X2500Y758D02*
X2578Y758D01*
X2600Y758D02*
X2678Y758D01*
X2700Y758D02*
X2778Y758D01*
X2800Y758D02*
X2878Y758D01*
X2000Y757D02*
X2078Y757D01*
X2100Y757D02*
X2178Y757D01*
X2200Y757D02*
X2278Y757D01*
X2300Y757D02*
X2378Y757D01*
X2400Y757D02*
X2478Y757D01*
X2500Y757D02*
X2578Y757D01*
X2600Y757D02*
X2678Y757D01*
X2700Y757D02*
X2778Y757D01*
X2800Y757D02*
X2878Y757D01*
X2000Y756D02*
X2078Y756D01*
X2100Y756D02*
X2178Y756D01*
X2200Y756D02*
X2278Y756D01*
X2300Y756D02*
X2378Y756D01*
X2400Y756D02*
X2478Y756D01*
X2500Y756D02*
X2578Y756D01*
X2600Y756D02*
X2678Y756D01*
X2700Y756D02*
X2778Y756D01*
X2800Y756D02*
X2878Y756D01*
X2000Y755D02*
X2078Y755D01*
X2100Y755D02*
X2178Y755D01*
X2200Y755D02*
X2278Y755D01*
X2300Y755D02*
X2378Y755D01*
X2400Y755D02*
X2478Y755D01*
X2500Y755D02*
X2578Y755D01*
X2600Y755D02*
X2678Y755D01*
X2700Y755D02*
X2778Y755D01*
X2800Y755D02*
X2878Y755D01*
X2001Y754D02*
X2078Y754D01*
X2101Y754D02*
X2178Y754D01*
X2201Y754D02*
X2278Y754D01*
X2301Y754D02*
X2378Y754D01*
X2401Y754D02*
X2478Y754D01*
X2501Y754D02*
X2578Y754D01*
X2601Y754D02*
X2678Y754D01*
X2701Y754D02*
X2778Y754D01*
X2801Y754D02*
X2878Y754D01*
X2001Y753D02*
X2077Y753D01*
X2101Y753D02*
X2177Y753D01*
X2201Y753D02*
X2277Y753D01*
X2301Y753D02*
X2377Y753D01*
X2401Y753D02*
X2477Y753D01*
X2501Y753D02*
X2577Y753D01*
X2601Y753D02*
X2677Y753D01*
X2701Y753D02*
X2777Y753D01*
X2801Y753D02*
X2877Y753D01*
X2001Y752D02*
X2077Y752D01*
X2101Y752D02*
X2177Y752D01*
X2201Y752D02*
X2277Y752D01*
X2301Y752D02*
X2377Y752D01*
X2401Y752D02*
X2477Y752D01*
X2501Y752D02*
X2577Y752D01*
X2601Y752D02*
X2677Y752D01*
X2701Y752D02*
X2777Y752D01*
X2801Y752D02*
X2877Y752D01*
X2001Y751D02*
X2077Y751D01*
X2101Y751D02*
X2177Y751D01*
X2201Y751D02*
X2277Y751D01*
X2301Y751D02*
X2377Y751D01*
X2401Y751D02*
X2477Y751D01*
X2501Y751D02*
X2577Y751D01*
X2601Y751D02*
X2677Y751D01*
X2701Y751D02*
X2777Y751D01*
X2801Y751D02*
X2877Y751D01*
X2002Y750D02*
X2077Y750D01*
X2102Y750D02*
X2177Y750D01*
X2202Y750D02*
X2277Y750D01*
X2302Y750D02*
X2377Y750D01*
X2402Y750D02*
X2477Y750D01*
X2502Y750D02*
X2577Y750D01*
X2602Y750D02*
X2677Y750D01*
X2702Y750D02*
X2777Y750D01*
X2802Y750D02*
X2877Y750D01*
X2002Y749D02*
X2076Y749D01*
X2102Y749D02*
X2176Y749D01*
X2202Y749D02*
X2276Y749D01*
X2302Y749D02*
X2376Y749D01*
X2402Y749D02*
X2476Y749D01*
X2502Y749D02*
X2576Y749D01*
X2602Y749D02*
X2676Y749D01*
X2702Y749D02*
X2776Y749D01*
X2802Y749D02*
X2876Y749D01*
X2002Y748D02*
X2076Y748D01*
X2102Y748D02*
X2176Y748D01*
X2202Y748D02*
X2276Y748D01*
X2302Y748D02*
X2376Y748D01*
X2402Y748D02*
X2476Y748D01*
X2502Y748D02*
X2576Y748D01*
X2602Y748D02*
X2676Y748D01*
X2702Y748D02*
X2776Y748D01*
X2802Y748D02*
X2876Y748D01*
X2003Y747D02*
X2076Y747D01*
X2103Y747D02*
X2176Y747D01*
X2203Y747D02*
X2276Y747D01*
X2303Y747D02*
X2376Y747D01*
X2403Y747D02*
X2476Y747D01*
X2503Y747D02*
X2576Y747D01*
X2603Y747D02*
X2676Y747D01*
X2703Y747D02*
X2776Y747D01*
X2803Y747D02*
X2876Y747D01*
X2003Y746D02*
X2075Y746D01*
X2103Y746D02*
X2175Y746D01*
X2203Y746D02*
X2275Y746D01*
X2303Y746D02*
X2375Y746D01*
X2403Y746D02*
X2475Y746D01*
X2503Y746D02*
X2575Y746D01*
X2603Y746D02*
X2675Y746D01*
X2703Y746D02*
X2775Y746D01*
X2803Y746D02*
X2875Y746D01*
X2004Y745D02*
X2075Y745D01*
X2104Y745D02*
X2175Y745D01*
X2204Y745D02*
X2275Y745D01*
X2304Y745D02*
X2375Y745D01*
X2404Y745D02*
X2475Y745D01*
X2504Y745D02*
X2575Y745D01*
X2604Y745D02*
X2675Y745D01*
X2704Y745D02*
X2775Y745D01*
X2804Y745D02*
X2875Y745D01*
X2004Y744D02*
X2074Y744D01*
X2104Y744D02*
X2174Y744D01*
X2204Y744D02*
X2274Y744D01*
X2304Y744D02*
X2374Y744D01*
X2404Y744D02*
X2474Y744D01*
X2504Y744D02*
X2574Y744D01*
X2604Y744D02*
X2674Y744D01*
X2704Y744D02*
X2774Y744D01*
X2804Y744D02*
X2874Y744D01*
X2005Y743D02*
X2074Y743D01*
X2105Y743D02*
X2174Y743D01*
X2205Y743D02*
X2274Y743D01*
X2305Y743D02*
X2374Y743D01*
X2405Y743D02*
X2474Y743D01*
X2505Y743D02*
X2574Y743D01*
X2605Y743D02*
X2674Y743D01*
X2705Y743D02*
X2774Y743D01*
X2805Y743D02*
X2874Y743D01*
X2005Y742D02*
X2073Y742D01*
X2105Y742D02*
X2173Y742D01*
X2205Y742D02*
X2273Y742D01*
X2305Y742D02*
X2373Y742D01*
X2405Y742D02*
X2473Y742D01*
X2505Y742D02*
X2573Y742D01*
X2605Y742D02*
X2673Y742D01*
X2705Y742D02*
X2773Y742D01*
X2805Y742D02*
X2873Y742D01*
X2006Y741D02*
X2072Y741D01*
X2106Y741D02*
X2172Y741D01*
X2206Y741D02*
X2272Y741D01*
X2306Y741D02*
X2372Y741D01*
X2406Y741D02*
X2472Y741D01*
X2506Y741D02*
X2572Y741D01*
X2606Y741D02*
X2672Y741D01*
X2706Y741D02*
X2772Y741D01*
X2806Y741D02*
X2872Y741D01*
X2007Y740D02*
X2072Y740D01*
X2107Y740D02*
X2172Y740D01*
X2207Y740D02*
X2272Y740D01*
X2307Y740D02*
X2372Y740D01*
X2407Y740D02*
X2472Y740D01*
X2507Y740D02*
X2572Y740D01*
X2607Y740D02*
X2672Y740D01*
X2707Y740D02*
X2772Y740D01*
X2807Y740D02*
X2872Y740D01*
X2007Y739D02*
X2071Y739D01*
X2107Y739D02*
X2171Y739D01*
X2207Y739D02*
X2271Y739D01*
X2307Y739D02*
X2371Y739D01*
X2407Y739D02*
X2471Y739D01*
X2507Y739D02*
X2571Y739D01*
X2607Y739D02*
X2671Y739D01*
X2707Y739D02*
X2771Y739D01*
X2807Y739D02*
X2871Y739D01*
X2008Y738D02*
X2070Y738D01*
X2108Y738D02*
X2170Y738D01*
X2208Y738D02*
X2270Y738D01*
X2308Y738D02*
X2370Y738D01*
X2408Y738D02*
X2470Y738D01*
X2508Y738D02*
X2570Y738D01*
X2608Y738D02*
X2670Y738D01*
X2708Y738D02*
X2770Y738D01*
X2808Y738D02*
X2870Y738D01*
X2009Y737D02*
X2070Y737D01*
X2109Y737D02*
X2170Y737D01*
X2209Y737D02*
X2270Y737D01*
X2309Y737D02*
X2370Y737D01*
X2409Y737D02*
X2470Y737D01*
X2509Y737D02*
X2570Y737D01*
X2609Y737D02*
X2669Y737D01*
X2709Y737D02*
X2769Y737D01*
X2809Y737D02*
X2869Y737D01*
X2010Y736D02*
X2069Y736D01*
X2110Y736D02*
X2169Y736D01*
X2210Y736D02*
X2269Y736D01*
X2310Y736D02*
X2369Y736D01*
X2410Y736D02*
X2469Y736D01*
X2510Y736D02*
X2569Y736D01*
X2610Y736D02*
X2669Y736D01*
X2710Y736D02*
X2769Y736D01*
X2810Y736D02*
X2869Y736D01*
X2011Y735D02*
X2068Y735D01*
X2111Y735D02*
X2168Y735D01*
X2211Y735D02*
X2268Y735D01*
X2311Y735D02*
X2368Y735D01*
X2411Y735D02*
X2468Y735D01*
X2511Y735D02*
X2568Y735D01*
X2611Y735D02*
X2668Y735D01*
X2711Y735D02*
X2768Y735D01*
X2811Y735D02*
X2868Y735D01*
X2012Y734D02*
X2067Y734D01*
X2112Y734D02*
X2167Y734D01*
X2211Y734D02*
X2267Y734D01*
X2311Y734D02*
X2367Y734D01*
X2411Y734D02*
X2467Y734D01*
X2511Y734D02*
X2567Y734D01*
X2611Y734D02*
X2667Y734D01*
X2711Y734D02*
X2767Y734D01*
X2811Y734D02*
X2867Y734D01*
X2013Y733D02*
X2066Y733D01*
X2113Y733D02*
X2166Y733D01*
X2213Y733D02*
X2266Y733D01*
X2313Y733D02*
X2366Y733D01*
X2413Y733D02*
X2466Y733D01*
X2513Y733D02*
X2566Y733D01*
X2613Y733D02*
X2666Y733D01*
X2713Y733D02*
X2766Y733D01*
X2813Y733D02*
X2866Y733D01*
X2014Y732D02*
X2065Y732D01*
X2114Y732D02*
X2165Y732D01*
X2214Y732D02*
X2265Y732D01*
X2314Y732D02*
X2365Y732D01*
X2414Y732D02*
X2465Y732D01*
X2514Y732D02*
X2565Y732D01*
X2614Y732D02*
X2665Y732D01*
X2714Y732D02*
X2765Y732D01*
X2814Y732D02*
X2865Y732D01*
X2015Y731D02*
X2063Y731D01*
X2115Y731D02*
X2163Y731D01*
X2215Y731D02*
X2263Y731D01*
X2315Y731D02*
X2363Y731D01*
X2415Y731D02*
X2463Y731D01*
X2515Y731D02*
X2563Y731D01*
X2615Y731D02*
X2663Y731D01*
X2715Y731D02*
X2763Y731D01*
X2815Y731D02*
X2863Y731D01*
X2016Y730D02*
X2062Y730D01*
X2116Y730D02*
X2162Y730D01*
X2216Y730D02*
X2262Y730D01*
X2316Y730D02*
X2362Y730D01*
X2416Y730D02*
X2462Y730D01*
X2516Y730D02*
X2562Y730D01*
X2616Y730D02*
X2662Y730D01*
X2716Y730D02*
X2762Y730D01*
X2816Y730D02*
X2862Y730D01*
X2018Y729D02*
X2061Y729D01*
X2118Y729D02*
X2161Y729D01*
X2218Y729D02*
X2261Y729D01*
X2318Y729D02*
X2361Y729D01*
X2418Y729D02*
X2461Y729D01*
X2518Y729D02*
X2561Y729D01*
X2618Y729D02*
X2661Y729D01*
X2718Y729D02*
X2761Y729D01*
X2818Y729D02*
X2861Y729D01*
X2019Y728D02*
X2059Y728D01*
X2119Y728D02*
X2159Y728D01*
X2219Y728D02*
X2259Y728D01*
X2319Y728D02*
X2359Y728D01*
X2419Y728D02*
X2459Y728D01*
X2519Y728D02*
X2559Y728D01*
X2619Y728D02*
X2659Y728D01*
X2719Y728D02*
X2759Y728D01*
X2819Y728D02*
X2859Y728D01*
X2021Y727D02*
X2057Y727D01*
X2121Y727D02*
X2157Y727D01*
X2221Y727D02*
X2257Y727D01*
X2321Y727D02*
X2357Y727D01*
X2421Y727D02*
X2457Y727D01*
X2521Y727D02*
X2557Y727D01*
X2621Y727D02*
X2657Y727D01*
X2721Y727D02*
X2757Y727D01*
X2821Y727D02*
X2857Y727D01*
X2023Y726D02*
X2055Y726D01*
X2123Y726D02*
X2155Y726D01*
X2223Y726D02*
X2255Y726D01*
X2323Y726D02*
X2355Y726D01*
X2423Y726D02*
X2455Y726D01*
X2523Y726D02*
X2555Y726D01*
X2623Y726D02*
X2655Y726D01*
X2723Y726D02*
X2755Y726D01*
X2823Y726D02*
X2855Y726D01*
X2026Y725D02*
X2053Y725D01*
X2126Y725D02*
X2153Y725D01*
X2226Y725D02*
X2253Y725D01*
X2326Y725D02*
X2353Y725D01*
X2425Y725D02*
X2453Y725D01*
X2525Y725D02*
X2553Y725D01*
X2625Y725D02*
X2653Y725D01*
X2725Y725D02*
X2753Y725D01*
X2825Y725D02*
X2853Y725D01*
X2029Y724D02*
X2050Y724D01*
X2129Y724D02*
X2150Y724D01*
X2229Y724D02*
X2250Y724D01*
X2329Y724D02*
X2350Y724D01*
X2429Y724D02*
X2450Y724D01*
X2529Y724D02*
X2550Y724D01*
X2629Y724D02*
X2650Y724D01*
X2729Y724D02*
X2750Y724D01*
X2829Y724D02*
X2850Y724D01*
X2033Y723D02*
X2045Y723D01*
X2133Y723D02*
X2145Y723D01*
X2233Y723D02*
X2245Y723D01*
X2333Y723D02*
X2345Y723D01*
X2433Y723D02*
X2445Y723D01*
X2533Y723D02*
X2545Y723D01*
X2633Y723D02*
X2645Y723D01*
X2733Y723D02*
X2745Y723D01*
X2833Y723D02*
X2845Y723D01*
D02*
G04 End of Mask0*
M02*