G04 MADE WITH FRITZING*
G04 WWW.FRITZING.ORG*
G04 DOUBLE SIDED*
G04 HOLES PLATED*
G04 CONTOUR ON CENTER OF CONTOUR VECTOR*
%ASAXBY*%
%FSLAX23Y23*%
%MOIN*%
%OFA0B0*%
%SFA1.0B1.0*%
%ADD10C,0.039370*%
%ADD11C,0.082000*%
%ADD12C,0.070000*%
%ADD13C,0.075000*%
%ADD14C,0.074000*%
%ADD15C,0.080000*%
%ADD16C,0.062992*%
%ADD17C,0.078000*%
%ADD18R,0.082000X0.082000*%
%ADD19R,0.074000X0.074000*%
%ADD20R,0.080000X0.080000*%
%ADD21R,0.062992X0.062992*%
%ADD22C,0.048000*%
%ADD23C,0.024000*%
%ADD24R,0.001000X0.001000*%
%LNCOPPER0*%
G90*
G70*
G54D10*
X2843Y426D03*
X2743Y521D03*
X2647Y622D03*
X2547Y722D03*
X2447Y822D03*
X2346Y923D03*
X2246Y1023D03*
X2843Y2374D03*
X2743Y2273D03*
X2647Y2173D03*
X2547Y2072D03*
X2447Y1972D03*
X2346Y1872D03*
X2246Y1771D03*
X1744Y1425D03*
G54D11*
X745Y2323D03*
X845Y2323D03*
X945Y2323D03*
G54D12*
X995Y2173D03*
X1095Y2173D03*
G54D13*
X1645Y1773D03*
X1245Y1773D03*
X1645Y1923D03*
X1245Y1923D03*
G54D10*
X1347Y1626D03*
X997Y1672D03*
X1245Y2323D03*
X745Y2072D03*
X1645Y2072D03*
G54D12*
X545Y2173D03*
X645Y2173D03*
X2845Y1523D03*
X1645Y1223D03*
X2745Y1523D03*
X1545Y1223D03*
X2645Y1523D03*
X2545Y1523D03*
X2445Y1523D03*
X2345Y1523D03*
X1545Y1523D03*
X1645Y1523D03*
X1745Y1523D03*
X1845Y1523D03*
X2245Y1523D03*
X2045Y1523D03*
X2145Y1523D03*
X1945Y1523D03*
X2045Y1223D03*
X1945Y1223D03*
X1845Y1223D03*
X1745Y1223D03*
X2245Y1223D03*
X2145Y1223D03*
X2645Y1223D03*
X2545Y1223D03*
X2445Y1223D03*
X2345Y1223D03*
X2845Y1223D03*
X2745Y1223D03*
X3145Y2373D03*
X3445Y2173D03*
X3145Y2273D03*
X3445Y2073D03*
X3145Y2173D03*
X3445Y1973D03*
X3145Y2073D03*
X3445Y1873D03*
X3145Y1973D03*
X3445Y1773D03*
X3145Y1873D03*
X3445Y1673D03*
X3145Y1773D03*
X3145Y1573D03*
X3145Y1673D03*
X3445Y1573D03*
X3445Y2373D03*
X3445Y2273D03*
X3145Y1123D03*
X3445Y923D03*
X3145Y1023D03*
X3445Y823D03*
X3145Y923D03*
X3445Y723D03*
X3145Y823D03*
X3445Y623D03*
X3145Y723D03*
X3445Y523D03*
X3145Y623D03*
X3445Y423D03*
X3145Y523D03*
X3145Y323D03*
X3145Y423D03*
X3445Y323D03*
X3445Y1123D03*
X3445Y1023D03*
X2045Y1673D03*
X1945Y1673D03*
X3345Y173D03*
X3245Y173D03*
X3345Y1423D03*
X3245Y1423D03*
G54D14*
X3795Y1573D03*
X3795Y1673D03*
X3795Y1773D03*
X3795Y1873D03*
X3795Y1973D03*
X3895Y1573D03*
X3895Y1673D03*
X3895Y1773D03*
X3895Y1873D03*
X3895Y1973D03*
X3795Y323D03*
X3795Y423D03*
X3795Y523D03*
X3795Y623D03*
X3795Y723D03*
X3895Y323D03*
X3895Y423D03*
X3895Y523D03*
X3895Y623D03*
X3895Y723D03*
G54D15*
X145Y723D03*
X145Y861D03*
G54D13*
X445Y973D03*
X445Y1373D03*
G54D16*
X245Y1275D03*
X245Y1373D03*
G54D13*
X1445Y1073D03*
X1845Y1073D03*
G54D17*
X1145Y1523D03*
X1045Y1523D03*
X945Y1523D03*
X1145Y1123D03*
X1045Y1123D03*
X945Y1123D03*
X1145Y1323D03*
X1045Y1323D03*
X945Y1323D03*
G54D15*
X145Y1823D03*
X145Y1961D03*
X145Y2323D03*
X145Y2461D03*
G54D10*
X845Y1972D03*
G54D18*
X745Y2323D03*
G54D19*
X3895Y1573D03*
X3895Y323D03*
G54D20*
X145Y723D03*
G54D21*
X245Y1275D03*
G54D20*
X145Y1823D03*
X145Y2323D03*
G54D22*
X405Y1373D02*
X283Y1373D01*
D02*
X443Y722D02*
X445Y934D01*
D02*
X187Y723D02*
X443Y722D01*
G54D23*
D02*
X147Y1274D02*
X218Y1275D01*
D02*
X145Y892D02*
X147Y1274D01*
G54D22*
D02*
X1145Y1365D02*
X1145Y1482D01*
D02*
X1145Y1282D02*
X1145Y1165D01*
D02*
X1945Y1636D02*
X1945Y1561D01*
D02*
X3245Y325D02*
X3245Y1386D01*
D02*
X3182Y324D02*
X3245Y325D01*
G54D23*
D02*
X3345Y325D02*
X3345Y1397D01*
D02*
X3419Y324D02*
X3345Y325D01*
D02*
X3764Y423D02*
X3471Y423D01*
D02*
X3764Y523D02*
X3471Y523D01*
D02*
X3764Y623D02*
X3471Y623D01*
D02*
X3471Y723D02*
X3764Y723D01*
D02*
X3764Y1673D02*
X3471Y1673D01*
D02*
X3764Y1773D02*
X3471Y1773D01*
D02*
X3764Y1873D02*
X3471Y1873D01*
D02*
X3471Y1973D02*
X3764Y1973D01*
D02*
X3892Y1475D02*
X3894Y1542D01*
D02*
X3596Y1575D02*
X3596Y1475D01*
D02*
X3596Y1475D02*
X3892Y1475D01*
D02*
X3471Y1574D02*
X3596Y1575D01*
D02*
X3993Y1676D02*
X3926Y1674D01*
D02*
X3993Y2374D02*
X3993Y1676D01*
D02*
X3471Y2373D02*
X3993Y2374D01*
D02*
X3993Y426D02*
X3926Y424D01*
D02*
X3993Y1124D02*
X3993Y426D01*
D02*
X3471Y1123D02*
X3993Y1124D01*
D02*
X3892Y2072D02*
X3894Y2005D01*
D02*
X3471Y2073D02*
X3892Y2072D01*
D02*
X3892Y822D02*
X3894Y755D01*
D02*
X3471Y823D02*
X3892Y822D01*
D02*
X1845Y1197D02*
X1845Y1102D01*
D02*
X2862Y426D02*
X3119Y424D01*
D02*
X3119Y523D02*
X2762Y521D01*
D02*
X3119Y623D02*
X2666Y622D01*
D02*
X3119Y723D02*
X2566Y722D01*
D02*
X3119Y823D02*
X2466Y822D01*
D02*
X3119Y923D02*
X2365Y923D01*
D02*
X3119Y1023D02*
X2265Y1023D01*
D02*
X2145Y1124D02*
X3119Y1123D01*
D02*
X2145Y1197D02*
X2145Y1124D01*
G54D22*
D02*
X3144Y175D02*
X3208Y174D01*
D02*
X3145Y286D02*
X3144Y175D01*
G54D23*
D02*
X3446Y175D02*
X3445Y297D01*
D02*
X3371Y174D02*
X3446Y175D01*
D02*
X3596Y325D02*
X3471Y324D01*
D02*
X3596Y225D02*
X3596Y325D01*
D02*
X3892Y225D02*
X3596Y225D01*
D02*
X3894Y292D02*
X3892Y225D01*
G54D22*
D02*
X3144Y1425D02*
X3145Y1536D01*
D02*
X3207Y1424D02*
X3144Y1425D01*
G54D23*
D02*
X3446Y1425D02*
X3445Y1547D01*
D02*
X3371Y1424D02*
X3446Y1425D01*
D02*
X2862Y2374D02*
X3119Y2373D01*
D02*
X2045Y1550D02*
X2045Y1647D01*
D02*
X2762Y2273D02*
X3119Y2273D01*
D02*
X2666Y2173D02*
X3119Y2173D01*
D02*
X2566Y2072D02*
X3119Y2073D01*
D02*
X2466Y1972D02*
X3119Y1973D01*
D02*
X2365Y1872D02*
X3119Y1873D01*
D02*
X2265Y1771D02*
X3119Y1773D01*
D02*
X2145Y1676D02*
X3119Y1673D01*
D02*
X2145Y1550D02*
X2145Y1676D01*
G54D22*
D02*
X1186Y1323D02*
X1945Y1324D01*
D02*
X1945Y1324D02*
X1945Y1486D01*
D02*
X1146Y973D02*
X485Y973D01*
D02*
X1145Y1082D02*
X1146Y973D01*
G54D23*
D02*
X1725Y1425D02*
X1347Y1425D01*
D02*
X1347Y1425D02*
X1347Y1607D01*
D02*
X945Y1293D02*
X945Y1154D01*
D02*
X945Y1354D02*
X945Y1493D01*
D02*
X343Y2123D02*
X147Y2123D01*
D02*
X147Y2123D02*
X145Y1992D01*
D02*
X343Y2474D02*
X343Y2123D01*
D02*
X176Y2463D02*
X343Y2474D01*
D02*
X1645Y1745D02*
X1645Y1550D01*
D02*
X1744Y1922D02*
X1674Y1923D01*
D02*
X1745Y1550D02*
X1744Y1922D01*
D02*
X1245Y1802D02*
X1245Y1895D01*
D02*
X1245Y2304D02*
X1245Y1952D01*
D02*
X977Y2323D02*
X1226Y2323D01*
G54D22*
D02*
X845Y2002D02*
X845Y2280D01*
D02*
X1145Y1972D02*
X875Y1972D01*
D02*
X1145Y1565D02*
X1145Y1972D01*
G54D23*
D02*
X978Y1672D02*
X145Y1672D01*
D02*
X145Y1672D02*
X145Y1792D01*
D02*
X1645Y2053D02*
X1645Y1952D01*
D02*
X745Y1972D02*
X745Y2053D01*
D02*
X176Y1962D02*
X745Y1972D01*
D02*
X745Y2472D02*
X745Y2356D01*
D02*
X3345Y2472D02*
X745Y2472D01*
D02*
X3345Y1450D02*
X3345Y2472D01*
D02*
X2045Y2323D02*
X2045Y1700D01*
D02*
X1264Y2323D02*
X2045Y2323D01*
D02*
X545Y2323D02*
X545Y2200D01*
D02*
X713Y2323D02*
X545Y2323D01*
G54D24*
X3139Y2408D02*
X3149Y2408D01*
X3439Y2408D02*
X3449Y2408D01*
X3135Y2407D02*
X3153Y2407D01*
X3435Y2407D02*
X3453Y2407D01*
X3132Y2406D02*
X3156Y2406D01*
X3432Y2406D02*
X3456Y2406D01*
X3130Y2405D02*
X3158Y2405D01*
X3430Y2405D02*
X3458Y2405D01*
X3128Y2404D02*
X3160Y2404D01*
X3427Y2404D02*
X3460Y2404D01*
X3126Y2403D02*
X3162Y2403D01*
X3426Y2403D02*
X3462Y2403D01*
X3124Y2402D02*
X3164Y2402D01*
X3424Y2402D02*
X3464Y2402D01*
X3123Y2401D02*
X3165Y2401D01*
X3423Y2401D02*
X3465Y2401D01*
X3122Y2400D02*
X3166Y2400D01*
X3422Y2400D02*
X3466Y2400D01*
X3120Y2399D02*
X3167Y2399D01*
X3420Y2399D02*
X3467Y2399D01*
X3119Y2398D02*
X3168Y2398D01*
X3419Y2398D02*
X3468Y2398D01*
X3119Y2397D02*
X3169Y2397D01*
X3418Y2397D02*
X3469Y2397D01*
X3118Y2396D02*
X3170Y2396D01*
X3418Y2396D02*
X3470Y2396D01*
X3117Y2395D02*
X3171Y2395D01*
X3417Y2395D02*
X3471Y2395D01*
X3116Y2394D02*
X3172Y2394D01*
X3416Y2394D02*
X3472Y2394D01*
X3115Y2393D02*
X3172Y2393D01*
X3415Y2393D02*
X3472Y2393D01*
X3115Y2392D02*
X3173Y2392D01*
X3415Y2392D02*
X3473Y2392D01*
X3114Y2391D02*
X3174Y2391D01*
X3414Y2391D02*
X3474Y2391D01*
X3114Y2390D02*
X3174Y2390D01*
X3414Y2390D02*
X3474Y2390D01*
X3113Y2389D02*
X3175Y2389D01*
X3413Y2389D02*
X3475Y2389D01*
X3113Y2388D02*
X3139Y2388D01*
X3149Y2388D02*
X3175Y2388D01*
X3413Y2388D02*
X3439Y2388D01*
X3449Y2388D02*
X3475Y2388D01*
X3112Y2387D02*
X3137Y2387D01*
X3151Y2387D02*
X3176Y2387D01*
X3412Y2387D02*
X3437Y2387D01*
X3451Y2387D02*
X3475Y2387D01*
X3112Y2386D02*
X3135Y2386D01*
X3153Y2386D02*
X3176Y2386D01*
X3412Y2386D02*
X3435Y2386D01*
X3453Y2386D02*
X3476Y2386D01*
X3112Y2385D02*
X3134Y2385D01*
X3154Y2385D02*
X3176Y2385D01*
X3412Y2385D02*
X3434Y2385D01*
X3454Y2385D02*
X3476Y2385D01*
X3111Y2384D02*
X3133Y2384D01*
X3155Y2384D02*
X3177Y2384D01*
X3411Y2384D02*
X3433Y2384D01*
X3455Y2384D02*
X3477Y2384D01*
X3111Y2383D02*
X3132Y2383D01*
X3156Y2383D02*
X3177Y2383D01*
X3411Y2383D02*
X3432Y2383D01*
X3456Y2383D02*
X3477Y2383D01*
X3111Y2382D02*
X3131Y2382D01*
X3157Y2382D02*
X3177Y2382D01*
X3411Y2382D02*
X3431Y2382D01*
X3457Y2382D02*
X3477Y2382D01*
X3110Y2381D02*
X3130Y2381D01*
X3158Y2381D02*
X3177Y2381D01*
X3410Y2381D02*
X3430Y2381D01*
X3457Y2381D02*
X3477Y2381D01*
X3110Y2380D02*
X3130Y2380D01*
X3158Y2380D02*
X3178Y2380D01*
X3410Y2380D02*
X3430Y2380D01*
X3458Y2380D02*
X3478Y2380D01*
X3110Y2379D02*
X3129Y2379D01*
X3159Y2379D02*
X3178Y2379D01*
X3410Y2379D02*
X3429Y2379D01*
X3458Y2379D02*
X3478Y2379D01*
X3110Y2378D02*
X3129Y2378D01*
X3159Y2378D02*
X3178Y2378D01*
X3410Y2378D02*
X3429Y2378D01*
X3459Y2378D02*
X3478Y2378D01*
X3110Y2377D02*
X3129Y2377D01*
X3159Y2377D02*
X3178Y2377D01*
X3410Y2377D02*
X3429Y2377D01*
X3459Y2377D02*
X3478Y2377D01*
X3110Y2376D02*
X3129Y2376D01*
X3159Y2376D02*
X3178Y2376D01*
X3410Y2376D02*
X3429Y2376D01*
X3459Y2376D02*
X3478Y2376D01*
X3110Y2375D02*
X3129Y2375D01*
X3159Y2375D02*
X3178Y2375D01*
X3409Y2375D02*
X3428Y2375D01*
X3459Y2375D02*
X3478Y2375D01*
X3109Y2374D02*
X3128Y2374D01*
X3159Y2374D02*
X3178Y2374D01*
X3409Y2374D02*
X3428Y2374D01*
X3459Y2374D02*
X3478Y2374D01*
X3109Y2373D02*
X3128Y2373D01*
X3159Y2373D02*
X3178Y2373D01*
X3409Y2373D02*
X3428Y2373D01*
X3459Y2373D02*
X3478Y2373D01*
X3110Y2372D02*
X3129Y2372D01*
X3159Y2372D02*
X3178Y2372D01*
X3409Y2372D02*
X3428Y2372D01*
X3459Y2372D02*
X3478Y2372D01*
X3110Y2371D02*
X3129Y2371D01*
X3159Y2371D02*
X3178Y2371D01*
X3410Y2371D02*
X3429Y2371D01*
X3459Y2371D02*
X3478Y2371D01*
X3110Y2370D02*
X3129Y2370D01*
X3159Y2370D02*
X3178Y2370D01*
X3410Y2370D02*
X3429Y2370D01*
X3459Y2370D02*
X3478Y2370D01*
X3110Y2369D02*
X3129Y2369D01*
X3159Y2369D02*
X3178Y2369D01*
X3410Y2369D02*
X3429Y2369D01*
X3459Y2369D02*
X3478Y2369D01*
X3110Y2368D02*
X3129Y2368D01*
X3159Y2368D02*
X3178Y2368D01*
X3410Y2368D02*
X3429Y2368D01*
X3458Y2368D02*
X3478Y2368D01*
X3110Y2367D02*
X3130Y2367D01*
X3158Y2367D02*
X3178Y2367D01*
X3410Y2367D02*
X3430Y2367D01*
X3458Y2367D02*
X3478Y2367D01*
X3110Y2366D02*
X3130Y2366D01*
X3157Y2366D02*
X3177Y2366D01*
X3410Y2366D02*
X3430Y2366D01*
X3457Y2366D02*
X3477Y2366D01*
X3111Y2365D02*
X3131Y2365D01*
X3157Y2365D02*
X3177Y2365D01*
X3411Y2365D02*
X3431Y2365D01*
X3457Y2365D02*
X3477Y2365D01*
X3111Y2364D02*
X3132Y2364D01*
X3156Y2364D02*
X3177Y2364D01*
X3411Y2364D02*
X3432Y2364D01*
X3456Y2364D02*
X3477Y2364D01*
X3111Y2363D02*
X3133Y2363D01*
X3155Y2363D02*
X3177Y2363D01*
X3411Y2363D02*
X3433Y2363D01*
X3455Y2363D02*
X3477Y2363D01*
X3112Y2362D02*
X3134Y2362D01*
X3154Y2362D02*
X3176Y2362D01*
X3412Y2362D02*
X3434Y2362D01*
X3454Y2362D02*
X3476Y2362D01*
X3112Y2361D02*
X3135Y2361D01*
X3153Y2361D02*
X3176Y2361D01*
X3412Y2361D02*
X3435Y2361D01*
X3453Y2361D02*
X3476Y2361D01*
X3112Y2360D02*
X3137Y2360D01*
X3151Y2360D02*
X3175Y2360D01*
X3412Y2360D02*
X3437Y2360D01*
X3451Y2360D02*
X3475Y2360D01*
X3113Y2359D02*
X3139Y2359D01*
X3148Y2359D02*
X3175Y2359D01*
X3413Y2359D02*
X3439Y2359D01*
X3448Y2359D02*
X3475Y2359D01*
X3113Y2358D02*
X3175Y2358D01*
X3413Y2358D02*
X3474Y2358D01*
X3114Y2357D02*
X3174Y2357D01*
X3414Y2357D02*
X3474Y2357D01*
X3114Y2356D02*
X3173Y2356D01*
X3414Y2356D02*
X3473Y2356D01*
X3115Y2355D02*
X3173Y2355D01*
X3415Y2355D02*
X3473Y2355D01*
X3116Y2354D02*
X3172Y2354D01*
X3415Y2354D02*
X3472Y2354D01*
X3116Y2353D02*
X3172Y2353D01*
X3416Y2353D02*
X3472Y2353D01*
X3117Y2352D02*
X3171Y2352D01*
X3417Y2352D02*
X3471Y2352D01*
X3118Y2351D02*
X3170Y2351D01*
X3418Y2351D02*
X3470Y2351D01*
X3119Y2350D02*
X3169Y2350D01*
X3419Y2350D02*
X3469Y2350D01*
X3120Y2349D02*
X3168Y2349D01*
X3419Y2349D02*
X3468Y2349D01*
X3121Y2348D02*
X3167Y2348D01*
X3421Y2348D02*
X3467Y2348D01*
X3122Y2347D02*
X3166Y2347D01*
X3422Y2347D02*
X3466Y2347D01*
X3123Y2346D02*
X3165Y2346D01*
X3423Y2346D02*
X3465Y2346D01*
X3124Y2345D02*
X3163Y2345D01*
X3424Y2345D02*
X3463Y2345D01*
X3126Y2344D02*
X3162Y2344D01*
X3426Y2344D02*
X3462Y2344D01*
X3128Y2343D02*
X3160Y2343D01*
X3428Y2343D02*
X3460Y2343D01*
X3130Y2342D02*
X3158Y2342D01*
X3430Y2342D02*
X3458Y2342D01*
X3132Y2341D02*
X3156Y2341D01*
X3432Y2341D02*
X3456Y2341D01*
X3135Y2340D02*
X3153Y2340D01*
X3435Y2340D02*
X3453Y2340D01*
X3140Y2339D02*
X3148Y2339D01*
X3440Y2339D02*
X3448Y2339D01*
X3139Y2308D02*
X3149Y2308D01*
X3439Y2308D02*
X3449Y2308D01*
X3135Y2307D02*
X3153Y2307D01*
X3435Y2307D02*
X3453Y2307D01*
X3132Y2306D02*
X3156Y2306D01*
X3432Y2306D02*
X3456Y2306D01*
X3130Y2305D02*
X3158Y2305D01*
X3429Y2305D02*
X3458Y2305D01*
X3127Y2304D02*
X3160Y2304D01*
X3427Y2304D02*
X3460Y2304D01*
X3126Y2303D02*
X3162Y2303D01*
X3426Y2303D02*
X3462Y2303D01*
X3124Y2302D02*
X3164Y2302D01*
X3424Y2302D02*
X3464Y2302D01*
X3123Y2301D02*
X3165Y2301D01*
X3423Y2301D02*
X3465Y2301D01*
X3122Y2300D02*
X3166Y2300D01*
X3422Y2300D02*
X3466Y2300D01*
X3120Y2299D02*
X3167Y2299D01*
X3420Y2299D02*
X3467Y2299D01*
X3119Y2298D02*
X3168Y2298D01*
X3419Y2298D02*
X3468Y2298D01*
X3118Y2297D02*
X3169Y2297D01*
X3418Y2297D02*
X3469Y2297D01*
X3118Y2296D02*
X3170Y2296D01*
X3418Y2296D02*
X3470Y2296D01*
X3117Y2295D02*
X3171Y2295D01*
X3417Y2295D02*
X3471Y2295D01*
X3116Y2294D02*
X3172Y2294D01*
X3416Y2294D02*
X3472Y2294D01*
X3115Y2293D02*
X3172Y2293D01*
X3415Y2293D02*
X3472Y2293D01*
X3115Y2292D02*
X3173Y2292D01*
X3415Y2292D02*
X3473Y2292D01*
X3114Y2291D02*
X3174Y2291D01*
X3414Y2291D02*
X3474Y2291D01*
X3114Y2290D02*
X3174Y2290D01*
X3414Y2290D02*
X3474Y2290D01*
X3113Y2289D02*
X3175Y2289D01*
X3413Y2289D02*
X3475Y2289D01*
X3113Y2288D02*
X3139Y2288D01*
X3149Y2288D02*
X3175Y2288D01*
X3413Y2288D02*
X3439Y2288D01*
X3449Y2288D02*
X3475Y2288D01*
X3112Y2287D02*
X3137Y2287D01*
X3151Y2287D02*
X3176Y2287D01*
X3412Y2287D02*
X3436Y2287D01*
X3451Y2287D02*
X3475Y2287D01*
X3112Y2286D02*
X3135Y2286D01*
X3153Y2286D02*
X3176Y2286D01*
X3412Y2286D02*
X3435Y2286D01*
X3453Y2286D02*
X3476Y2286D01*
X3112Y2285D02*
X3134Y2285D01*
X3154Y2285D02*
X3176Y2285D01*
X3412Y2285D02*
X3434Y2285D01*
X3454Y2285D02*
X3476Y2285D01*
X3111Y2284D02*
X3133Y2284D01*
X3155Y2284D02*
X3177Y2284D01*
X3411Y2284D02*
X3433Y2284D01*
X3455Y2284D02*
X3477Y2284D01*
X3111Y2283D02*
X3132Y2283D01*
X3156Y2283D02*
X3177Y2283D01*
X3411Y2283D02*
X3432Y2283D01*
X3456Y2283D02*
X3477Y2283D01*
X3111Y2282D02*
X3131Y2282D01*
X3157Y2282D02*
X3177Y2282D01*
X3411Y2282D02*
X3431Y2282D01*
X3457Y2282D02*
X3477Y2282D01*
X3110Y2281D02*
X3130Y2281D01*
X3158Y2281D02*
X3177Y2281D01*
X3410Y2281D02*
X3430Y2281D01*
X3457Y2281D02*
X3477Y2281D01*
X3110Y2280D02*
X3130Y2280D01*
X3158Y2280D02*
X3178Y2280D01*
X3410Y2280D02*
X3430Y2280D01*
X3458Y2280D02*
X3478Y2280D01*
X3110Y2279D02*
X3129Y2279D01*
X3159Y2279D02*
X3178Y2279D01*
X3410Y2279D02*
X3429Y2279D01*
X3458Y2279D02*
X3478Y2279D01*
X3110Y2278D02*
X3129Y2278D01*
X3159Y2278D02*
X3178Y2278D01*
X3410Y2278D02*
X3429Y2278D01*
X3459Y2278D02*
X3478Y2278D01*
X3110Y2277D02*
X3129Y2277D01*
X3159Y2277D02*
X3178Y2277D01*
X3410Y2277D02*
X3429Y2277D01*
X3459Y2277D02*
X3478Y2277D01*
X3110Y2276D02*
X3129Y2276D01*
X3159Y2276D02*
X3178Y2276D01*
X3410Y2276D02*
X3429Y2276D01*
X3459Y2276D02*
X3478Y2276D01*
X3110Y2275D02*
X3129Y2275D01*
X3159Y2275D02*
X3178Y2275D01*
X3409Y2275D02*
X3428Y2275D01*
X3459Y2275D02*
X3478Y2275D01*
X3109Y2274D02*
X3128Y2274D01*
X3159Y2274D02*
X3178Y2274D01*
X3409Y2274D02*
X3428Y2274D01*
X3459Y2274D02*
X3478Y2274D01*
X3109Y2273D02*
X3128Y2273D01*
X3159Y2273D02*
X3178Y2273D01*
X3409Y2273D02*
X3428Y2273D01*
X3459Y2273D02*
X3478Y2273D01*
X3110Y2272D02*
X3129Y2272D01*
X3159Y2272D02*
X3178Y2272D01*
X3409Y2272D02*
X3428Y2272D01*
X3459Y2272D02*
X3478Y2272D01*
X3110Y2271D02*
X3129Y2271D01*
X3159Y2271D02*
X3178Y2271D01*
X3410Y2271D02*
X3429Y2271D01*
X3459Y2271D02*
X3478Y2271D01*
X3110Y2270D02*
X3129Y2270D01*
X3159Y2270D02*
X3178Y2270D01*
X3410Y2270D02*
X3429Y2270D01*
X3459Y2270D02*
X3478Y2270D01*
X3110Y2269D02*
X3129Y2269D01*
X3159Y2269D02*
X3178Y2269D01*
X3410Y2269D02*
X3429Y2269D01*
X3459Y2269D02*
X3478Y2269D01*
X3110Y2268D02*
X3129Y2268D01*
X3159Y2268D02*
X3178Y2268D01*
X3410Y2268D02*
X3429Y2268D01*
X3458Y2268D02*
X3478Y2268D01*
X3110Y2267D02*
X3130Y2267D01*
X3158Y2267D02*
X3178Y2267D01*
X3410Y2267D02*
X3430Y2267D01*
X3458Y2267D02*
X3478Y2267D01*
X3110Y2266D02*
X3130Y2266D01*
X3157Y2266D02*
X3177Y2266D01*
X3410Y2266D02*
X3430Y2266D01*
X3457Y2266D02*
X3477Y2266D01*
X3111Y2265D02*
X3131Y2265D01*
X3157Y2265D02*
X3177Y2265D01*
X3411Y2265D02*
X3431Y2265D01*
X3457Y2265D02*
X3477Y2265D01*
X3111Y2264D02*
X3132Y2264D01*
X3156Y2264D02*
X3177Y2264D01*
X3411Y2264D02*
X3432Y2264D01*
X3456Y2264D02*
X3477Y2264D01*
X3111Y2263D02*
X3133Y2263D01*
X3155Y2263D02*
X3177Y2263D01*
X3411Y2263D02*
X3433Y2263D01*
X3455Y2263D02*
X3477Y2263D01*
X3112Y2262D02*
X3134Y2262D01*
X3154Y2262D02*
X3176Y2262D01*
X3412Y2262D02*
X3434Y2262D01*
X3454Y2262D02*
X3476Y2262D01*
X3112Y2261D02*
X3135Y2261D01*
X3153Y2261D02*
X3176Y2261D01*
X3412Y2261D02*
X3435Y2261D01*
X3453Y2261D02*
X3476Y2261D01*
X3112Y2260D02*
X3137Y2260D01*
X3151Y2260D02*
X3175Y2260D01*
X3412Y2260D02*
X3437Y2260D01*
X3451Y2260D02*
X3475Y2260D01*
X3113Y2259D02*
X3140Y2259D01*
X3148Y2259D02*
X3175Y2259D01*
X3413Y2259D02*
X3440Y2259D01*
X3448Y2259D02*
X3475Y2259D01*
X3113Y2258D02*
X3175Y2258D01*
X3413Y2258D02*
X3474Y2258D01*
X3114Y2257D02*
X3174Y2257D01*
X3414Y2257D02*
X3474Y2257D01*
X3114Y2256D02*
X3173Y2256D01*
X3414Y2256D02*
X3473Y2256D01*
X3115Y2255D02*
X3173Y2255D01*
X3415Y2255D02*
X3473Y2255D01*
X3116Y2254D02*
X3172Y2254D01*
X3415Y2254D02*
X3472Y2254D01*
X3116Y2253D02*
X3172Y2253D01*
X3416Y2253D02*
X3472Y2253D01*
X3117Y2252D02*
X3171Y2252D01*
X3417Y2252D02*
X3471Y2252D01*
X3118Y2251D02*
X3170Y2251D01*
X3418Y2251D02*
X3470Y2251D01*
X3119Y2250D02*
X3169Y2250D01*
X3419Y2250D02*
X3469Y2250D01*
X3120Y2249D02*
X3168Y2249D01*
X3419Y2249D02*
X3468Y2249D01*
X3121Y2248D02*
X3167Y2248D01*
X3421Y2248D02*
X3467Y2248D01*
X3122Y2247D02*
X3166Y2247D01*
X3422Y2247D02*
X3466Y2247D01*
X3123Y2246D02*
X3165Y2246D01*
X3423Y2246D02*
X3465Y2246D01*
X3124Y2245D02*
X3163Y2245D01*
X3424Y2245D02*
X3463Y2245D01*
X3126Y2244D02*
X3162Y2244D01*
X3426Y2244D02*
X3462Y2244D01*
X3128Y2243D02*
X3160Y2243D01*
X3428Y2243D02*
X3460Y2243D01*
X3130Y2242D02*
X3158Y2242D01*
X3430Y2242D02*
X3458Y2242D01*
X3132Y2241D02*
X3156Y2241D01*
X3432Y2241D02*
X3456Y2241D01*
X3135Y2240D02*
X3153Y2240D01*
X3435Y2240D02*
X3453Y2240D01*
X3140Y2239D02*
X3148Y2239D01*
X3440Y2239D02*
X3448Y2239D01*
X3139Y2208D02*
X3149Y2208D01*
X3439Y2208D02*
X3449Y2208D01*
X3135Y2207D02*
X3153Y2207D01*
X3435Y2207D02*
X3453Y2207D01*
X3132Y2206D02*
X3156Y2206D01*
X3432Y2206D02*
X3456Y2206D01*
X3129Y2205D02*
X3158Y2205D01*
X3429Y2205D02*
X3458Y2205D01*
X3127Y2204D02*
X3160Y2204D01*
X3427Y2204D02*
X3460Y2204D01*
X3126Y2203D02*
X3162Y2203D01*
X3426Y2203D02*
X3462Y2203D01*
X3124Y2202D02*
X3164Y2202D01*
X3424Y2202D02*
X3464Y2202D01*
X3123Y2201D02*
X3165Y2201D01*
X3423Y2201D02*
X3465Y2201D01*
X3122Y2200D02*
X3166Y2200D01*
X3422Y2200D02*
X3466Y2200D01*
X3120Y2199D02*
X3167Y2199D01*
X3420Y2199D02*
X3467Y2199D01*
X3119Y2198D02*
X3168Y2198D01*
X3419Y2198D02*
X3468Y2198D01*
X3118Y2197D02*
X3169Y2197D01*
X3418Y2197D02*
X3469Y2197D01*
X3118Y2196D02*
X3170Y2196D01*
X3418Y2196D02*
X3470Y2196D01*
X3117Y2195D02*
X3171Y2195D01*
X3417Y2195D02*
X3471Y2195D01*
X3116Y2194D02*
X3172Y2194D01*
X3416Y2194D02*
X3472Y2194D01*
X3115Y2193D02*
X3172Y2193D01*
X3415Y2193D02*
X3472Y2193D01*
X3115Y2192D02*
X3173Y2192D01*
X3415Y2192D02*
X3473Y2192D01*
X3114Y2191D02*
X3174Y2191D01*
X3414Y2191D02*
X3474Y2191D01*
X3114Y2190D02*
X3174Y2190D01*
X3414Y2190D02*
X3474Y2190D01*
X3113Y2189D02*
X3175Y2189D01*
X3413Y2189D02*
X3475Y2189D01*
X3113Y2188D02*
X3139Y2188D01*
X3149Y2188D02*
X3175Y2188D01*
X3413Y2188D02*
X3439Y2188D01*
X3449Y2188D02*
X3475Y2188D01*
X3112Y2187D02*
X3136Y2187D01*
X3151Y2187D02*
X3176Y2187D01*
X3412Y2187D02*
X3436Y2187D01*
X3451Y2187D02*
X3475Y2187D01*
X3112Y2186D02*
X3135Y2186D01*
X3153Y2186D02*
X3176Y2186D01*
X3412Y2186D02*
X3435Y2186D01*
X3453Y2186D02*
X3476Y2186D01*
X3112Y2185D02*
X3134Y2185D01*
X3154Y2185D02*
X3176Y2185D01*
X3412Y2185D02*
X3434Y2185D01*
X3454Y2185D02*
X3476Y2185D01*
X3111Y2184D02*
X3133Y2184D01*
X3155Y2184D02*
X3177Y2184D01*
X3411Y2184D02*
X3433Y2184D01*
X3455Y2184D02*
X3477Y2184D01*
X3111Y2183D02*
X3132Y2183D01*
X3156Y2183D02*
X3177Y2183D01*
X3411Y2183D02*
X3432Y2183D01*
X3456Y2183D02*
X3477Y2183D01*
X3111Y2182D02*
X3131Y2182D01*
X3157Y2182D02*
X3177Y2182D01*
X3411Y2182D02*
X3431Y2182D01*
X3457Y2182D02*
X3477Y2182D01*
X3110Y2181D02*
X3130Y2181D01*
X3158Y2181D02*
X3177Y2181D01*
X3410Y2181D02*
X3430Y2181D01*
X3457Y2181D02*
X3477Y2181D01*
X3110Y2180D02*
X3130Y2180D01*
X3158Y2180D02*
X3178Y2180D01*
X3410Y2180D02*
X3430Y2180D01*
X3458Y2180D02*
X3478Y2180D01*
X3110Y2179D02*
X3129Y2179D01*
X3159Y2179D02*
X3178Y2179D01*
X3410Y2179D02*
X3429Y2179D01*
X3459Y2179D02*
X3478Y2179D01*
X3110Y2178D02*
X3129Y2178D01*
X3159Y2178D02*
X3178Y2178D01*
X3410Y2178D02*
X3429Y2178D01*
X3459Y2178D02*
X3478Y2178D01*
X3110Y2177D02*
X3129Y2177D01*
X3159Y2177D02*
X3178Y2177D01*
X3410Y2177D02*
X3429Y2177D01*
X3459Y2177D02*
X3478Y2177D01*
X3110Y2176D02*
X3129Y2176D01*
X3159Y2176D02*
X3178Y2176D01*
X3410Y2176D02*
X3429Y2176D01*
X3459Y2176D02*
X3478Y2176D01*
X3110Y2175D02*
X3129Y2175D01*
X3159Y2175D02*
X3178Y2175D01*
X3409Y2175D02*
X3428Y2175D01*
X3459Y2175D02*
X3478Y2175D01*
X3109Y2174D02*
X3128Y2174D01*
X3159Y2174D02*
X3178Y2174D01*
X3409Y2174D02*
X3428Y2174D01*
X3459Y2174D02*
X3478Y2174D01*
X3109Y2173D02*
X3128Y2173D01*
X3159Y2173D02*
X3178Y2173D01*
X3409Y2173D02*
X3428Y2173D01*
X3459Y2173D02*
X3478Y2173D01*
X3110Y2172D02*
X3129Y2172D01*
X3159Y2172D02*
X3178Y2172D01*
X3409Y2172D02*
X3428Y2172D01*
X3459Y2172D02*
X3478Y2172D01*
X3110Y2171D02*
X3129Y2171D01*
X3159Y2171D02*
X3178Y2171D01*
X3410Y2171D02*
X3429Y2171D01*
X3459Y2171D02*
X3478Y2171D01*
X3110Y2170D02*
X3129Y2170D01*
X3159Y2170D02*
X3178Y2170D01*
X3410Y2170D02*
X3429Y2170D01*
X3459Y2170D02*
X3478Y2170D01*
X3110Y2169D02*
X3129Y2169D01*
X3159Y2169D02*
X3178Y2169D01*
X3410Y2169D02*
X3429Y2169D01*
X3459Y2169D02*
X3478Y2169D01*
X3110Y2168D02*
X3129Y2168D01*
X3158Y2168D02*
X3178Y2168D01*
X3410Y2168D02*
X3429Y2168D01*
X3458Y2168D02*
X3478Y2168D01*
X3110Y2167D02*
X3130Y2167D01*
X3158Y2167D02*
X3178Y2167D01*
X3410Y2167D02*
X3430Y2167D01*
X3458Y2167D02*
X3478Y2167D01*
X3110Y2166D02*
X3130Y2166D01*
X3157Y2166D02*
X3177Y2166D01*
X3410Y2166D02*
X3430Y2166D01*
X3457Y2166D02*
X3477Y2166D01*
X3111Y2165D02*
X3131Y2165D01*
X3157Y2165D02*
X3177Y2165D01*
X3411Y2165D02*
X3431Y2165D01*
X3457Y2165D02*
X3477Y2165D01*
X3111Y2164D02*
X3132Y2164D01*
X3156Y2164D02*
X3177Y2164D01*
X3411Y2164D02*
X3432Y2164D01*
X3456Y2164D02*
X3477Y2164D01*
X3111Y2163D02*
X3133Y2163D01*
X3155Y2163D02*
X3177Y2163D01*
X3411Y2163D02*
X3433Y2163D01*
X3455Y2163D02*
X3477Y2163D01*
X3112Y2162D02*
X3134Y2162D01*
X3154Y2162D02*
X3176Y2162D01*
X3412Y2162D02*
X3434Y2162D01*
X3454Y2162D02*
X3476Y2162D01*
X3112Y2161D02*
X3135Y2161D01*
X3153Y2161D02*
X3176Y2161D01*
X3412Y2161D02*
X3435Y2161D01*
X3453Y2161D02*
X3476Y2161D01*
X3112Y2160D02*
X3137Y2160D01*
X3151Y2160D02*
X3175Y2160D01*
X3412Y2160D02*
X3437Y2160D01*
X3451Y2160D02*
X3475Y2160D01*
X3113Y2159D02*
X3140Y2159D01*
X3148Y2159D02*
X3175Y2159D01*
X3413Y2159D02*
X3440Y2159D01*
X3448Y2159D02*
X3475Y2159D01*
X3113Y2158D02*
X3175Y2158D01*
X3413Y2158D02*
X3474Y2158D01*
X3114Y2157D02*
X3174Y2157D01*
X3414Y2157D02*
X3474Y2157D01*
X3114Y2156D02*
X3173Y2156D01*
X3414Y2156D02*
X3473Y2156D01*
X3115Y2155D02*
X3173Y2155D01*
X3415Y2155D02*
X3473Y2155D01*
X3116Y2154D02*
X3172Y2154D01*
X3416Y2154D02*
X3472Y2154D01*
X3116Y2153D02*
X3172Y2153D01*
X3416Y2153D02*
X3472Y2153D01*
X3117Y2152D02*
X3171Y2152D01*
X3417Y2152D02*
X3471Y2152D01*
X3118Y2151D02*
X3170Y2151D01*
X3418Y2151D02*
X3470Y2151D01*
X3119Y2150D02*
X3169Y2150D01*
X3419Y2150D02*
X3469Y2150D01*
X3120Y2149D02*
X3168Y2149D01*
X3419Y2149D02*
X3468Y2149D01*
X3121Y2148D02*
X3167Y2148D01*
X3421Y2148D02*
X3467Y2148D01*
X3122Y2147D02*
X3166Y2147D01*
X3422Y2147D02*
X3466Y2147D01*
X3123Y2146D02*
X3165Y2146D01*
X3423Y2146D02*
X3465Y2146D01*
X3124Y2145D02*
X3163Y2145D01*
X3424Y2145D02*
X3463Y2145D01*
X3126Y2144D02*
X3162Y2144D01*
X3426Y2144D02*
X3462Y2144D01*
X3128Y2143D02*
X3160Y2143D01*
X3428Y2143D02*
X3460Y2143D01*
X3130Y2142D02*
X3158Y2142D01*
X3430Y2142D02*
X3458Y2142D01*
X3132Y2141D02*
X3156Y2141D01*
X3432Y2141D02*
X3456Y2141D01*
X3135Y2140D02*
X3153Y2140D01*
X3435Y2140D02*
X3453Y2140D01*
X3140Y2139D02*
X3148Y2139D01*
X3440Y2139D02*
X3448Y2139D01*
X3139Y2108D02*
X3149Y2108D01*
X3439Y2108D02*
X3449Y2108D01*
X3135Y2107D02*
X3153Y2107D01*
X3434Y2107D02*
X3453Y2107D01*
X3132Y2106D02*
X3156Y2106D01*
X3432Y2106D02*
X3456Y2106D01*
X3129Y2105D02*
X3158Y2105D01*
X3429Y2105D02*
X3458Y2105D01*
X3127Y2104D02*
X3160Y2104D01*
X3427Y2104D02*
X3460Y2104D01*
X3126Y2103D02*
X3162Y2103D01*
X3426Y2103D02*
X3462Y2103D01*
X3124Y2102D02*
X3164Y2102D01*
X3424Y2102D02*
X3464Y2102D01*
X3123Y2101D02*
X3165Y2101D01*
X3423Y2101D02*
X3465Y2101D01*
X3122Y2100D02*
X3166Y2100D01*
X3421Y2100D02*
X3466Y2100D01*
X3120Y2099D02*
X3167Y2099D01*
X3420Y2099D02*
X3467Y2099D01*
X3119Y2098D02*
X3168Y2098D01*
X3419Y2098D02*
X3468Y2098D01*
X3118Y2097D02*
X3169Y2097D01*
X3418Y2097D02*
X3469Y2097D01*
X3118Y2096D02*
X3170Y2096D01*
X3418Y2096D02*
X3470Y2096D01*
X3117Y2095D02*
X3171Y2095D01*
X3417Y2095D02*
X3471Y2095D01*
X3116Y2094D02*
X3172Y2094D01*
X3416Y2094D02*
X3472Y2094D01*
X3115Y2093D02*
X3172Y2093D01*
X3415Y2093D02*
X3472Y2093D01*
X3115Y2092D02*
X3173Y2092D01*
X3415Y2092D02*
X3473Y2092D01*
X3114Y2091D02*
X3174Y2091D01*
X3414Y2091D02*
X3474Y2091D01*
X3114Y2090D02*
X3174Y2090D01*
X3414Y2090D02*
X3474Y2090D01*
X3113Y2089D02*
X3175Y2089D01*
X3413Y2089D02*
X3475Y2089D01*
X3113Y2088D02*
X3139Y2088D01*
X3149Y2088D02*
X3175Y2088D01*
X3413Y2088D02*
X3439Y2088D01*
X3449Y2088D02*
X3475Y2088D01*
X3112Y2087D02*
X3136Y2087D01*
X3151Y2087D02*
X3176Y2087D01*
X3412Y2087D02*
X3436Y2087D01*
X3451Y2087D02*
X3475Y2087D01*
X3112Y2086D02*
X3135Y2086D01*
X3153Y2086D02*
X3176Y2086D01*
X3412Y2086D02*
X3435Y2086D01*
X3453Y2086D02*
X3476Y2086D01*
X3112Y2085D02*
X3134Y2085D01*
X3154Y2085D02*
X3176Y2085D01*
X3411Y2085D02*
X3434Y2085D01*
X3454Y2085D02*
X3476Y2085D01*
X3111Y2084D02*
X3133Y2084D01*
X3155Y2084D02*
X3177Y2084D01*
X3411Y2084D02*
X3433Y2084D01*
X3455Y2084D02*
X3477Y2084D01*
X3111Y2083D02*
X3132Y2083D01*
X3156Y2083D02*
X3177Y2083D01*
X3411Y2083D02*
X3432Y2083D01*
X3456Y2083D02*
X3477Y2083D01*
X3111Y2082D02*
X3131Y2082D01*
X3157Y2082D02*
X3177Y2082D01*
X3411Y2082D02*
X3431Y2082D01*
X3457Y2082D02*
X3477Y2082D01*
X3110Y2081D02*
X3130Y2081D01*
X3158Y2081D02*
X3177Y2081D01*
X3410Y2081D02*
X3430Y2081D01*
X3458Y2081D02*
X3477Y2081D01*
X3110Y2080D02*
X3130Y2080D01*
X3158Y2080D02*
X3178Y2080D01*
X3410Y2080D02*
X3430Y2080D01*
X3458Y2080D02*
X3478Y2080D01*
X3110Y2079D02*
X3129Y2079D01*
X3159Y2079D02*
X3178Y2079D01*
X3410Y2079D02*
X3429Y2079D01*
X3459Y2079D02*
X3478Y2079D01*
X3110Y2078D02*
X3129Y2078D01*
X3159Y2078D02*
X3178Y2078D01*
X3410Y2078D02*
X3429Y2078D01*
X3459Y2078D02*
X3478Y2078D01*
X3110Y2077D02*
X3129Y2077D01*
X3159Y2077D02*
X3178Y2077D01*
X3410Y2077D02*
X3429Y2077D01*
X3459Y2077D02*
X3478Y2077D01*
X3110Y2076D02*
X3129Y2076D01*
X3159Y2076D02*
X3178Y2076D01*
X3410Y2076D02*
X3429Y2076D01*
X3459Y2076D02*
X3478Y2076D01*
X3109Y2075D02*
X3129Y2075D01*
X3159Y2075D02*
X3178Y2075D01*
X3409Y2075D02*
X3428Y2075D01*
X3459Y2075D02*
X3478Y2075D01*
X3109Y2074D02*
X3128Y2074D01*
X3159Y2074D02*
X3178Y2074D01*
X3409Y2074D02*
X3428Y2074D01*
X3459Y2074D02*
X3478Y2074D01*
X3109Y2073D02*
X3128Y2073D01*
X3159Y2073D02*
X3178Y2073D01*
X3409Y2073D02*
X3428Y2073D01*
X3459Y2073D02*
X3478Y2073D01*
X3110Y2072D02*
X3129Y2072D01*
X3159Y2072D02*
X3178Y2072D01*
X3409Y2072D02*
X3428Y2072D01*
X3459Y2072D02*
X3478Y2072D01*
X3110Y2071D02*
X3129Y2071D01*
X3159Y2071D02*
X3178Y2071D01*
X3410Y2071D02*
X3429Y2071D01*
X3459Y2071D02*
X3478Y2071D01*
X3110Y2070D02*
X3129Y2070D01*
X3159Y2070D02*
X3178Y2070D01*
X3410Y2070D02*
X3429Y2070D01*
X3459Y2070D02*
X3478Y2070D01*
X3110Y2069D02*
X3129Y2069D01*
X3159Y2069D02*
X3178Y2069D01*
X3410Y2069D02*
X3429Y2069D01*
X3459Y2069D02*
X3478Y2069D01*
X3110Y2068D02*
X3129Y2068D01*
X3158Y2068D02*
X3178Y2068D01*
X3410Y2068D02*
X3429Y2068D01*
X3458Y2068D02*
X3478Y2068D01*
X3110Y2067D02*
X3130Y2067D01*
X3158Y2067D02*
X3178Y2067D01*
X3410Y2067D02*
X3430Y2067D01*
X3458Y2067D02*
X3478Y2067D01*
X3110Y2066D02*
X3130Y2066D01*
X3157Y2066D02*
X3177Y2066D01*
X3410Y2066D02*
X3430Y2066D01*
X3457Y2066D02*
X3477Y2066D01*
X3111Y2065D02*
X3131Y2065D01*
X3157Y2065D02*
X3177Y2065D01*
X3411Y2065D02*
X3431Y2065D01*
X3457Y2065D02*
X3477Y2065D01*
X3111Y2064D02*
X3132Y2064D01*
X3156Y2064D02*
X3177Y2064D01*
X3411Y2064D02*
X3432Y2064D01*
X3456Y2064D02*
X3477Y2064D01*
X3111Y2063D02*
X3133Y2063D01*
X3155Y2063D02*
X3177Y2063D01*
X3411Y2063D02*
X3433Y2063D01*
X3455Y2063D02*
X3477Y2063D01*
X3112Y2062D02*
X3134Y2062D01*
X3154Y2062D02*
X3176Y2062D01*
X3412Y2062D02*
X3434Y2062D01*
X3454Y2062D02*
X3476Y2062D01*
X3112Y2061D02*
X3135Y2061D01*
X3153Y2061D02*
X3176Y2061D01*
X3412Y2061D02*
X3435Y2061D01*
X3453Y2061D02*
X3476Y2061D01*
X3112Y2060D02*
X3137Y2060D01*
X3151Y2060D02*
X3175Y2060D01*
X3412Y2060D02*
X3437Y2060D01*
X3451Y2060D02*
X3475Y2060D01*
X3113Y2059D02*
X3140Y2059D01*
X3148Y2059D02*
X3175Y2059D01*
X3413Y2059D02*
X3440Y2059D01*
X3448Y2059D02*
X3475Y2059D01*
X3113Y2058D02*
X3175Y2058D01*
X3413Y2058D02*
X3474Y2058D01*
X3114Y2057D02*
X3174Y2057D01*
X3414Y2057D02*
X3474Y2057D01*
X3114Y2056D02*
X3173Y2056D01*
X3414Y2056D02*
X3473Y2056D01*
X3115Y2055D02*
X3173Y2055D01*
X3415Y2055D02*
X3473Y2055D01*
X3116Y2054D02*
X3172Y2054D01*
X3416Y2054D02*
X3472Y2054D01*
X3116Y2053D02*
X3172Y2053D01*
X3416Y2053D02*
X3472Y2053D01*
X3117Y2052D02*
X3171Y2052D01*
X3417Y2052D02*
X3471Y2052D01*
X3118Y2051D02*
X3170Y2051D01*
X3418Y2051D02*
X3470Y2051D01*
X3119Y2050D02*
X3169Y2050D01*
X3419Y2050D02*
X3469Y2050D01*
X3120Y2049D02*
X3168Y2049D01*
X3420Y2049D02*
X3468Y2049D01*
X3121Y2048D02*
X3167Y2048D01*
X3421Y2048D02*
X3467Y2048D01*
X3122Y2047D02*
X3166Y2047D01*
X3422Y2047D02*
X3466Y2047D01*
X3123Y2046D02*
X3165Y2046D01*
X3423Y2046D02*
X3465Y2046D01*
X3124Y2045D02*
X3163Y2045D01*
X3424Y2045D02*
X3463Y2045D01*
X3126Y2044D02*
X3162Y2044D01*
X3426Y2044D02*
X3462Y2044D01*
X3128Y2043D02*
X3160Y2043D01*
X3428Y2043D02*
X3460Y2043D01*
X3130Y2042D02*
X3158Y2042D01*
X3430Y2042D02*
X3458Y2042D01*
X3132Y2041D02*
X3156Y2041D01*
X3432Y2041D02*
X3455Y2041D01*
X3135Y2040D02*
X3153Y2040D01*
X3435Y2040D02*
X3452Y2040D01*
X3140Y2039D02*
X3148Y2039D01*
X3440Y2039D02*
X3448Y2039D01*
X3139Y2008D02*
X3149Y2008D01*
X3439Y2008D02*
X3449Y2008D01*
X3134Y2007D02*
X3153Y2007D01*
X3434Y2007D02*
X3453Y2007D01*
X3132Y2006D02*
X3156Y2006D01*
X3432Y2006D02*
X3456Y2006D01*
X3129Y2005D02*
X3158Y2005D01*
X3429Y2005D02*
X3458Y2005D01*
X3127Y2004D02*
X3160Y2004D01*
X3427Y2004D02*
X3460Y2004D01*
X3126Y2003D02*
X3162Y2003D01*
X3426Y2003D02*
X3462Y2003D01*
X3124Y2002D02*
X3164Y2002D01*
X3424Y2002D02*
X3464Y2002D01*
X3123Y2001D02*
X3165Y2001D01*
X3423Y2001D02*
X3465Y2001D01*
X3122Y2000D02*
X3166Y2000D01*
X3421Y2000D02*
X3466Y2000D01*
X3120Y1999D02*
X3167Y1999D01*
X3420Y1999D02*
X3467Y1999D01*
X3119Y1998D02*
X3168Y1998D01*
X3419Y1998D02*
X3468Y1998D01*
X3118Y1997D02*
X3169Y1997D01*
X3418Y1997D02*
X3469Y1997D01*
X3118Y1996D02*
X3170Y1996D01*
X3418Y1996D02*
X3470Y1996D01*
X3117Y1995D02*
X3171Y1995D01*
X3417Y1995D02*
X3471Y1995D01*
X3116Y1994D02*
X3172Y1994D01*
X3416Y1994D02*
X3472Y1994D01*
X3115Y1993D02*
X3172Y1993D01*
X3415Y1993D02*
X3472Y1993D01*
X3115Y1992D02*
X3173Y1992D01*
X3415Y1992D02*
X3473Y1992D01*
X3114Y1991D02*
X3174Y1991D01*
X3414Y1991D02*
X3474Y1991D01*
X3114Y1990D02*
X3174Y1990D01*
X3414Y1990D02*
X3474Y1990D01*
X3113Y1989D02*
X3175Y1989D01*
X3413Y1989D02*
X3475Y1989D01*
X3113Y1988D02*
X3139Y1988D01*
X3149Y1988D02*
X3175Y1988D01*
X3413Y1988D02*
X3439Y1988D01*
X3449Y1988D02*
X3475Y1988D01*
X3112Y1987D02*
X3136Y1987D01*
X3151Y1987D02*
X3176Y1987D01*
X3412Y1987D02*
X3436Y1987D01*
X3451Y1987D02*
X3475Y1987D01*
X3112Y1986D02*
X3135Y1986D01*
X3153Y1986D02*
X3176Y1986D01*
X3412Y1986D02*
X3435Y1986D01*
X3453Y1986D02*
X3476Y1986D01*
X3112Y1985D02*
X3134Y1985D01*
X3154Y1985D02*
X3176Y1985D01*
X3411Y1985D02*
X3434Y1985D01*
X3454Y1985D02*
X3476Y1985D01*
X3111Y1984D02*
X3133Y1984D01*
X3155Y1984D02*
X3177Y1984D01*
X3411Y1984D02*
X3433Y1984D01*
X3455Y1984D02*
X3477Y1984D01*
X3111Y1983D02*
X3132Y1983D01*
X3156Y1983D02*
X3177Y1983D01*
X3411Y1983D02*
X3432Y1983D01*
X3456Y1983D02*
X3477Y1983D01*
X3111Y1982D02*
X3131Y1982D01*
X3157Y1982D02*
X3177Y1982D01*
X3411Y1982D02*
X3431Y1982D01*
X3457Y1982D02*
X3477Y1982D01*
X3110Y1981D02*
X3130Y1981D01*
X3158Y1981D02*
X3177Y1981D01*
X3410Y1981D02*
X3430Y1981D01*
X3458Y1981D02*
X3477Y1981D01*
X3110Y1980D02*
X3130Y1980D01*
X3158Y1980D02*
X3178Y1980D01*
X3410Y1980D02*
X3430Y1980D01*
X3458Y1980D02*
X3478Y1980D01*
X3110Y1979D02*
X3129Y1979D01*
X3159Y1979D02*
X3178Y1979D01*
X3410Y1979D02*
X3429Y1979D01*
X3459Y1979D02*
X3478Y1979D01*
X3110Y1978D02*
X3129Y1978D01*
X3159Y1978D02*
X3178Y1978D01*
X3410Y1978D02*
X3429Y1978D01*
X3459Y1978D02*
X3478Y1978D01*
X3110Y1977D02*
X3129Y1977D01*
X3159Y1977D02*
X3178Y1977D01*
X3410Y1977D02*
X3429Y1977D01*
X3459Y1977D02*
X3478Y1977D01*
X3110Y1976D02*
X3129Y1976D01*
X3159Y1976D02*
X3178Y1976D01*
X3410Y1976D02*
X3429Y1976D01*
X3459Y1976D02*
X3478Y1976D01*
X3109Y1975D02*
X3129Y1975D01*
X3159Y1975D02*
X3178Y1975D01*
X3409Y1975D02*
X3428Y1975D01*
X3459Y1975D02*
X3478Y1975D01*
X3109Y1974D02*
X3128Y1974D01*
X3159Y1974D02*
X3178Y1974D01*
X3409Y1974D02*
X3428Y1974D01*
X3459Y1974D02*
X3478Y1974D01*
X3109Y1973D02*
X3128Y1973D01*
X3159Y1973D02*
X3178Y1973D01*
X3409Y1973D02*
X3428Y1973D01*
X3459Y1973D02*
X3478Y1973D01*
X3110Y1972D02*
X3129Y1972D01*
X3159Y1972D02*
X3178Y1972D01*
X3409Y1972D02*
X3428Y1972D01*
X3459Y1972D02*
X3478Y1972D01*
X3110Y1971D02*
X3129Y1971D01*
X3159Y1971D02*
X3178Y1971D01*
X3410Y1971D02*
X3429Y1971D01*
X3459Y1971D02*
X3478Y1971D01*
X3110Y1970D02*
X3129Y1970D01*
X3159Y1970D02*
X3178Y1970D01*
X3410Y1970D02*
X3429Y1970D01*
X3459Y1970D02*
X3478Y1970D01*
X3110Y1969D02*
X3129Y1969D01*
X3159Y1969D02*
X3178Y1969D01*
X3410Y1969D02*
X3429Y1969D01*
X3459Y1969D02*
X3478Y1969D01*
X3110Y1968D02*
X3129Y1968D01*
X3158Y1968D02*
X3178Y1968D01*
X3410Y1968D02*
X3429Y1968D01*
X3458Y1968D02*
X3478Y1968D01*
X3110Y1967D02*
X3130Y1967D01*
X3158Y1967D02*
X3178Y1967D01*
X3410Y1967D02*
X3430Y1967D01*
X3458Y1967D02*
X3478Y1967D01*
X3110Y1966D02*
X3130Y1966D01*
X3157Y1966D02*
X3177Y1966D01*
X3410Y1966D02*
X3430Y1966D01*
X3457Y1966D02*
X3477Y1966D01*
X3111Y1965D02*
X3131Y1965D01*
X3157Y1965D02*
X3177Y1965D01*
X3411Y1965D02*
X3431Y1965D01*
X3457Y1965D02*
X3477Y1965D01*
X3111Y1964D02*
X3132Y1964D01*
X3156Y1964D02*
X3177Y1964D01*
X3411Y1964D02*
X3432Y1964D01*
X3456Y1964D02*
X3477Y1964D01*
X3111Y1963D02*
X3133Y1963D01*
X3155Y1963D02*
X3177Y1963D01*
X3411Y1963D02*
X3433Y1963D01*
X3455Y1963D02*
X3477Y1963D01*
X3112Y1962D02*
X3134Y1962D01*
X3154Y1962D02*
X3176Y1962D01*
X3412Y1962D02*
X3434Y1962D01*
X3454Y1962D02*
X3476Y1962D01*
X3112Y1961D02*
X3135Y1961D01*
X3153Y1961D02*
X3176Y1961D01*
X3412Y1961D02*
X3435Y1961D01*
X3453Y1961D02*
X3476Y1961D01*
X3112Y1960D02*
X3137Y1960D01*
X3151Y1960D02*
X3175Y1960D01*
X3412Y1960D02*
X3437Y1960D01*
X3451Y1960D02*
X3475Y1960D01*
X3113Y1959D02*
X3140Y1959D01*
X3148Y1959D02*
X3175Y1959D01*
X3413Y1959D02*
X3440Y1959D01*
X3448Y1959D02*
X3475Y1959D01*
X3113Y1958D02*
X3175Y1958D01*
X3413Y1958D02*
X3474Y1958D01*
X3114Y1957D02*
X3174Y1957D01*
X3414Y1957D02*
X3474Y1957D01*
X3114Y1956D02*
X3173Y1956D01*
X3414Y1956D02*
X3473Y1956D01*
X3115Y1955D02*
X3173Y1955D01*
X3415Y1955D02*
X3473Y1955D01*
X3116Y1954D02*
X3172Y1954D01*
X3416Y1954D02*
X3472Y1954D01*
X3116Y1953D02*
X3172Y1953D01*
X3416Y1953D02*
X3472Y1953D01*
X3117Y1952D02*
X3171Y1952D01*
X3417Y1952D02*
X3471Y1952D01*
X3118Y1951D02*
X3170Y1951D01*
X3418Y1951D02*
X3470Y1951D01*
X3119Y1950D02*
X3169Y1950D01*
X3419Y1950D02*
X3469Y1950D01*
X3120Y1949D02*
X3168Y1949D01*
X3420Y1949D02*
X3468Y1949D01*
X3121Y1948D02*
X3167Y1948D01*
X3421Y1948D02*
X3467Y1948D01*
X3122Y1947D02*
X3166Y1947D01*
X3422Y1947D02*
X3466Y1947D01*
X3123Y1946D02*
X3165Y1946D01*
X3423Y1946D02*
X3465Y1946D01*
X3124Y1945D02*
X3163Y1945D01*
X3424Y1945D02*
X3463Y1945D01*
X3126Y1944D02*
X3162Y1944D01*
X3426Y1944D02*
X3462Y1944D01*
X3128Y1943D02*
X3160Y1943D01*
X3428Y1943D02*
X3460Y1943D01*
X3130Y1942D02*
X3158Y1942D01*
X3430Y1942D02*
X3458Y1942D01*
X3132Y1941D02*
X3155Y1941D01*
X3432Y1941D02*
X3455Y1941D01*
X3135Y1940D02*
X3152Y1940D01*
X3435Y1940D02*
X3452Y1940D01*
X3140Y1939D02*
X3148Y1939D01*
X3440Y1939D02*
X3448Y1939D01*
X3138Y1908D02*
X3149Y1908D01*
X3438Y1908D02*
X3449Y1908D01*
X3134Y1907D02*
X3153Y1907D01*
X3434Y1907D02*
X3453Y1907D01*
X3132Y1906D02*
X3156Y1906D01*
X3432Y1906D02*
X3456Y1906D01*
X3129Y1905D02*
X3158Y1905D01*
X3429Y1905D02*
X3458Y1905D01*
X3127Y1904D02*
X3160Y1904D01*
X3427Y1904D02*
X3460Y1904D01*
X3126Y1903D02*
X3162Y1903D01*
X3426Y1903D02*
X3462Y1903D01*
X3124Y1902D02*
X3164Y1902D01*
X3424Y1902D02*
X3464Y1902D01*
X3123Y1901D02*
X3165Y1901D01*
X3423Y1901D02*
X3465Y1901D01*
X3121Y1900D02*
X3166Y1900D01*
X3421Y1900D02*
X3466Y1900D01*
X3120Y1899D02*
X3167Y1899D01*
X3420Y1899D02*
X3467Y1899D01*
X3119Y1898D02*
X3168Y1898D01*
X3419Y1898D02*
X3468Y1898D01*
X3118Y1897D02*
X3169Y1897D01*
X3418Y1897D02*
X3469Y1897D01*
X3118Y1896D02*
X3170Y1896D01*
X3418Y1896D02*
X3470Y1896D01*
X3117Y1895D02*
X3171Y1895D01*
X3417Y1895D02*
X3471Y1895D01*
X3116Y1894D02*
X3172Y1894D01*
X3416Y1894D02*
X3472Y1894D01*
X3115Y1893D02*
X3172Y1893D01*
X3415Y1893D02*
X3472Y1893D01*
X3115Y1892D02*
X3173Y1892D01*
X3415Y1892D02*
X3473Y1892D01*
X3114Y1891D02*
X3174Y1891D01*
X3414Y1891D02*
X3474Y1891D01*
X3114Y1890D02*
X3174Y1890D01*
X3414Y1890D02*
X3474Y1890D01*
X3113Y1889D02*
X3175Y1889D01*
X3413Y1889D02*
X3475Y1889D01*
X3113Y1888D02*
X3139Y1888D01*
X3149Y1888D02*
X3175Y1888D01*
X3413Y1888D02*
X3439Y1888D01*
X3449Y1888D02*
X3475Y1888D01*
X3112Y1887D02*
X3136Y1887D01*
X3151Y1887D02*
X3176Y1887D01*
X3412Y1887D02*
X3436Y1887D01*
X3451Y1887D02*
X3476Y1887D01*
X3112Y1886D02*
X3135Y1886D01*
X3153Y1886D02*
X3176Y1886D01*
X3412Y1886D02*
X3435Y1886D01*
X3453Y1886D02*
X3476Y1886D01*
X3112Y1885D02*
X3134Y1885D01*
X3154Y1885D02*
X3176Y1885D01*
X3411Y1885D02*
X3434Y1885D01*
X3454Y1885D02*
X3476Y1885D01*
X3111Y1884D02*
X3133Y1884D01*
X3155Y1884D02*
X3177Y1884D01*
X3411Y1884D02*
X3433Y1884D01*
X3455Y1884D02*
X3477Y1884D01*
X3111Y1883D02*
X3132Y1883D01*
X3156Y1883D02*
X3177Y1883D01*
X3411Y1883D02*
X3432Y1883D01*
X3456Y1883D02*
X3477Y1883D01*
X3111Y1882D02*
X3131Y1882D01*
X3157Y1882D02*
X3177Y1882D01*
X3411Y1882D02*
X3431Y1882D01*
X3457Y1882D02*
X3477Y1882D01*
X3110Y1881D02*
X3130Y1881D01*
X3158Y1881D02*
X3177Y1881D01*
X3410Y1881D02*
X3430Y1881D01*
X3458Y1881D02*
X3477Y1881D01*
X3110Y1880D02*
X3130Y1880D01*
X3158Y1880D02*
X3178Y1880D01*
X3410Y1880D02*
X3430Y1880D01*
X3458Y1880D02*
X3478Y1880D01*
X3110Y1879D02*
X3129Y1879D01*
X3159Y1879D02*
X3178Y1879D01*
X3410Y1879D02*
X3429Y1879D01*
X3459Y1879D02*
X3478Y1879D01*
X3110Y1878D02*
X3129Y1878D01*
X3159Y1878D02*
X3178Y1878D01*
X3410Y1878D02*
X3429Y1878D01*
X3459Y1878D02*
X3478Y1878D01*
X3110Y1877D02*
X3129Y1877D01*
X3159Y1877D02*
X3178Y1877D01*
X3410Y1877D02*
X3429Y1877D01*
X3459Y1877D02*
X3478Y1877D01*
X3110Y1876D02*
X3129Y1876D01*
X3159Y1876D02*
X3178Y1876D01*
X3410Y1876D02*
X3429Y1876D01*
X3459Y1876D02*
X3478Y1876D01*
X3109Y1875D02*
X3129Y1875D01*
X3159Y1875D02*
X3178Y1875D01*
X3409Y1875D02*
X3428Y1875D01*
X3459Y1875D02*
X3478Y1875D01*
X3109Y1874D02*
X3128Y1874D01*
X3159Y1874D02*
X3178Y1874D01*
X3409Y1874D02*
X3428Y1874D01*
X3459Y1874D02*
X3478Y1874D01*
X3109Y1873D02*
X3128Y1873D01*
X3159Y1873D02*
X3178Y1873D01*
X3409Y1873D02*
X3428Y1873D01*
X3459Y1873D02*
X3478Y1873D01*
X3110Y1872D02*
X3129Y1872D01*
X3159Y1872D02*
X3178Y1872D01*
X3409Y1872D02*
X3428Y1872D01*
X3459Y1872D02*
X3478Y1872D01*
X3110Y1871D02*
X3129Y1871D01*
X3159Y1871D02*
X3178Y1871D01*
X3410Y1871D02*
X3429Y1871D01*
X3459Y1871D02*
X3478Y1871D01*
X3110Y1870D02*
X3129Y1870D01*
X3159Y1870D02*
X3178Y1870D01*
X3410Y1870D02*
X3429Y1870D01*
X3459Y1870D02*
X3478Y1870D01*
X3110Y1869D02*
X3129Y1869D01*
X3159Y1869D02*
X3178Y1869D01*
X3410Y1869D02*
X3429Y1869D01*
X3459Y1869D02*
X3478Y1869D01*
X3110Y1868D02*
X3129Y1868D01*
X3158Y1868D02*
X3178Y1868D01*
X3410Y1868D02*
X3429Y1868D01*
X3458Y1868D02*
X3478Y1868D01*
X3110Y1867D02*
X3130Y1867D01*
X3158Y1867D02*
X3178Y1867D01*
X3410Y1867D02*
X3430Y1867D01*
X3458Y1867D02*
X3478Y1867D01*
X3110Y1866D02*
X3130Y1866D01*
X3157Y1866D02*
X3177Y1866D01*
X3410Y1866D02*
X3430Y1866D01*
X3457Y1866D02*
X3477Y1866D01*
X3111Y1865D02*
X3131Y1865D01*
X3157Y1865D02*
X3177Y1865D01*
X3411Y1865D02*
X3431Y1865D01*
X3457Y1865D02*
X3477Y1865D01*
X3111Y1864D02*
X3132Y1864D01*
X3156Y1864D02*
X3177Y1864D01*
X3411Y1864D02*
X3432Y1864D01*
X3456Y1864D02*
X3477Y1864D01*
X3111Y1863D02*
X3133Y1863D01*
X3155Y1863D02*
X3177Y1863D01*
X3411Y1863D02*
X3433Y1863D01*
X3455Y1863D02*
X3477Y1863D01*
X3112Y1862D02*
X3134Y1862D01*
X3154Y1862D02*
X3176Y1862D01*
X3412Y1862D02*
X3434Y1862D01*
X3454Y1862D02*
X3476Y1862D01*
X3112Y1861D02*
X3135Y1861D01*
X3153Y1861D02*
X3176Y1861D01*
X3412Y1861D02*
X3435Y1861D01*
X3453Y1861D02*
X3476Y1861D01*
X3112Y1860D02*
X3137Y1860D01*
X3151Y1860D02*
X3175Y1860D01*
X3412Y1860D02*
X3437Y1860D01*
X3451Y1860D02*
X3475Y1860D01*
X3113Y1859D02*
X3140Y1859D01*
X3148Y1859D02*
X3175Y1859D01*
X3413Y1859D02*
X3440Y1859D01*
X3448Y1859D02*
X3475Y1859D01*
X3113Y1858D02*
X3174Y1858D01*
X3413Y1858D02*
X3474Y1858D01*
X3114Y1857D02*
X3174Y1857D01*
X3414Y1857D02*
X3474Y1857D01*
X3114Y1856D02*
X3173Y1856D01*
X3414Y1856D02*
X3473Y1856D01*
X3115Y1855D02*
X3173Y1855D01*
X3415Y1855D02*
X3473Y1855D01*
X3116Y1854D02*
X3172Y1854D01*
X3416Y1854D02*
X3472Y1854D01*
X3116Y1853D02*
X3172Y1853D01*
X3416Y1853D02*
X3471Y1853D01*
X3117Y1852D02*
X3171Y1852D01*
X3417Y1852D02*
X3471Y1852D01*
X3118Y1851D02*
X3170Y1851D01*
X3418Y1851D02*
X3470Y1851D01*
X3119Y1850D02*
X3169Y1850D01*
X3419Y1850D02*
X3469Y1850D01*
X3120Y1849D02*
X3168Y1849D01*
X3420Y1849D02*
X3468Y1849D01*
X3121Y1848D02*
X3167Y1848D01*
X3421Y1848D02*
X3467Y1848D01*
X3122Y1847D02*
X3166Y1847D01*
X3422Y1847D02*
X3466Y1847D01*
X3123Y1846D02*
X3165Y1846D01*
X3423Y1846D02*
X3465Y1846D01*
X3125Y1845D02*
X3163Y1845D01*
X3424Y1845D02*
X3463Y1845D01*
X3126Y1844D02*
X3162Y1844D01*
X3426Y1844D02*
X3462Y1844D01*
X3128Y1843D02*
X3160Y1843D01*
X3428Y1843D02*
X3460Y1843D01*
X3130Y1842D02*
X3158Y1842D01*
X3430Y1842D02*
X3458Y1842D01*
X3132Y1841D02*
X3155Y1841D01*
X3432Y1841D02*
X3455Y1841D01*
X3135Y1840D02*
X3152Y1840D01*
X3435Y1840D02*
X3452Y1840D01*
X3140Y1839D02*
X3148Y1839D01*
X3440Y1839D02*
X3448Y1839D01*
X3138Y1808D02*
X3149Y1808D01*
X3438Y1808D02*
X3449Y1808D01*
X3134Y1807D02*
X3153Y1807D01*
X3434Y1807D02*
X3453Y1807D01*
X3132Y1806D02*
X3156Y1806D01*
X3432Y1806D02*
X3456Y1806D01*
X3129Y1805D02*
X3158Y1805D01*
X3429Y1805D02*
X3458Y1805D01*
X3127Y1804D02*
X3161Y1804D01*
X3427Y1804D02*
X3460Y1804D01*
X3126Y1803D02*
X3162Y1803D01*
X3426Y1803D02*
X3462Y1803D01*
X3124Y1802D02*
X3164Y1802D01*
X3424Y1802D02*
X3464Y1802D01*
X3123Y1801D02*
X3165Y1801D01*
X3423Y1801D02*
X3465Y1801D01*
X3121Y1800D02*
X3166Y1800D01*
X3421Y1800D02*
X3466Y1800D01*
X3120Y1799D02*
X3167Y1799D01*
X3420Y1799D02*
X3467Y1799D01*
X3119Y1798D02*
X3169Y1798D01*
X3419Y1798D02*
X3468Y1798D01*
X3118Y1797D02*
X3169Y1797D01*
X3418Y1797D02*
X3469Y1797D01*
X3118Y1796D02*
X3170Y1796D01*
X3418Y1796D02*
X3470Y1796D01*
X3117Y1795D02*
X3171Y1795D01*
X3417Y1795D02*
X3471Y1795D01*
X3116Y1794D02*
X3172Y1794D01*
X3416Y1794D02*
X3472Y1794D01*
X3115Y1793D02*
X3172Y1793D01*
X3415Y1793D02*
X3472Y1793D01*
X3115Y1792D02*
X3173Y1792D01*
X3415Y1792D02*
X3473Y1792D01*
X3114Y1791D02*
X3174Y1791D01*
X3414Y1791D02*
X3474Y1791D01*
X3114Y1790D02*
X3174Y1790D01*
X3414Y1790D02*
X3474Y1790D01*
X3113Y1789D02*
X3175Y1789D01*
X3413Y1789D02*
X3475Y1789D01*
X3113Y1788D02*
X3139Y1788D01*
X3149Y1788D02*
X3175Y1788D01*
X3413Y1788D02*
X3439Y1788D01*
X3449Y1788D02*
X3475Y1788D01*
X3112Y1787D02*
X3136Y1787D01*
X3151Y1787D02*
X3176Y1787D01*
X3412Y1787D02*
X3436Y1787D01*
X3451Y1787D02*
X3476Y1787D01*
X3112Y1786D02*
X3135Y1786D01*
X3153Y1786D02*
X3176Y1786D01*
X3412Y1786D02*
X3435Y1786D01*
X3453Y1786D02*
X3476Y1786D01*
X3112Y1785D02*
X3134Y1785D01*
X3154Y1785D02*
X3176Y1785D01*
X3411Y1785D02*
X3434Y1785D01*
X3454Y1785D02*
X3476Y1785D01*
X3111Y1784D02*
X3133Y1784D01*
X3155Y1784D02*
X3177Y1784D01*
X3411Y1784D02*
X3433Y1784D01*
X3455Y1784D02*
X3477Y1784D01*
X3111Y1783D02*
X3132Y1783D01*
X3156Y1783D02*
X3177Y1783D01*
X3411Y1783D02*
X3432Y1783D01*
X3456Y1783D02*
X3477Y1783D01*
X3111Y1782D02*
X3131Y1782D01*
X3157Y1782D02*
X3177Y1782D01*
X3411Y1782D02*
X3431Y1782D01*
X3457Y1782D02*
X3477Y1782D01*
X3110Y1781D02*
X3130Y1781D01*
X3158Y1781D02*
X3177Y1781D01*
X3410Y1781D02*
X3430Y1781D01*
X3458Y1781D02*
X3477Y1781D01*
X3110Y1780D02*
X3130Y1780D01*
X3158Y1780D02*
X3178Y1780D01*
X3410Y1780D02*
X3430Y1780D01*
X3458Y1780D02*
X3478Y1780D01*
X3110Y1779D02*
X3129Y1779D01*
X3159Y1779D02*
X3178Y1779D01*
X3410Y1779D02*
X3429Y1779D01*
X3459Y1779D02*
X3478Y1779D01*
X3110Y1778D02*
X3129Y1778D01*
X3159Y1778D02*
X3178Y1778D01*
X3410Y1778D02*
X3429Y1778D01*
X3459Y1778D02*
X3478Y1778D01*
X3110Y1777D02*
X3129Y1777D01*
X3159Y1777D02*
X3178Y1777D01*
X3410Y1777D02*
X3429Y1777D01*
X3459Y1777D02*
X3478Y1777D01*
X3110Y1776D02*
X3129Y1776D01*
X3159Y1776D02*
X3178Y1776D01*
X3410Y1776D02*
X3429Y1776D01*
X3459Y1776D02*
X3478Y1776D01*
X3109Y1775D02*
X3129Y1775D01*
X3159Y1775D02*
X3178Y1775D01*
X3409Y1775D02*
X3428Y1775D01*
X3459Y1775D02*
X3478Y1775D01*
X3109Y1774D02*
X3128Y1774D01*
X3159Y1774D02*
X3178Y1774D01*
X3409Y1774D02*
X3428Y1774D01*
X3459Y1774D02*
X3478Y1774D01*
X3109Y1773D02*
X3128Y1773D01*
X3159Y1773D02*
X3178Y1773D01*
X3409Y1773D02*
X3428Y1773D01*
X3459Y1773D02*
X3478Y1773D01*
X3110Y1772D02*
X3129Y1772D01*
X3159Y1772D02*
X3178Y1772D01*
X3409Y1772D02*
X3428Y1772D01*
X3459Y1772D02*
X3478Y1772D01*
X3110Y1771D02*
X3129Y1771D01*
X3159Y1771D02*
X3178Y1771D01*
X3410Y1771D02*
X3429Y1771D01*
X3459Y1771D02*
X3478Y1771D01*
X3110Y1770D02*
X3129Y1770D01*
X3159Y1770D02*
X3178Y1770D01*
X3410Y1770D02*
X3429Y1770D01*
X3459Y1770D02*
X3478Y1770D01*
X3110Y1769D02*
X3129Y1769D01*
X3159Y1769D02*
X3178Y1769D01*
X3410Y1769D02*
X3429Y1769D01*
X3459Y1769D02*
X3478Y1769D01*
X3110Y1768D02*
X3129Y1768D01*
X3158Y1768D02*
X3178Y1768D01*
X3410Y1768D02*
X3429Y1768D01*
X3458Y1768D02*
X3478Y1768D01*
X3110Y1767D02*
X3130Y1767D01*
X3158Y1767D02*
X3178Y1767D01*
X3410Y1767D02*
X3430Y1767D01*
X3458Y1767D02*
X3478Y1767D01*
X3110Y1766D02*
X3130Y1766D01*
X3157Y1766D02*
X3177Y1766D01*
X3410Y1766D02*
X3430Y1766D01*
X3457Y1766D02*
X3477Y1766D01*
X3111Y1765D02*
X3131Y1765D01*
X3157Y1765D02*
X3177Y1765D01*
X3411Y1765D02*
X3431Y1765D01*
X3457Y1765D02*
X3477Y1765D01*
X3111Y1764D02*
X3132Y1764D01*
X3156Y1764D02*
X3177Y1764D01*
X3411Y1764D02*
X3432Y1764D01*
X3456Y1764D02*
X3477Y1764D01*
X3111Y1763D02*
X3133Y1763D01*
X3155Y1763D02*
X3177Y1763D01*
X3411Y1763D02*
X3433Y1763D01*
X3455Y1763D02*
X3477Y1763D01*
X3112Y1762D02*
X3134Y1762D01*
X3154Y1762D02*
X3176Y1762D01*
X3412Y1762D02*
X3434Y1762D01*
X3454Y1762D02*
X3476Y1762D01*
X3112Y1761D02*
X3135Y1761D01*
X3153Y1761D02*
X3176Y1761D01*
X3412Y1761D02*
X3435Y1761D01*
X3453Y1761D02*
X3476Y1761D01*
X3112Y1760D02*
X3137Y1760D01*
X3151Y1760D02*
X3175Y1760D01*
X3412Y1760D02*
X3437Y1760D01*
X3451Y1760D02*
X3475Y1760D01*
X3113Y1759D02*
X3140Y1759D01*
X3148Y1759D02*
X3175Y1759D01*
X3413Y1759D02*
X3440Y1759D01*
X3448Y1759D02*
X3475Y1759D01*
X3113Y1758D02*
X3174Y1758D01*
X3413Y1758D02*
X3474Y1758D01*
X3114Y1757D02*
X3174Y1757D01*
X3414Y1757D02*
X3474Y1757D01*
X3114Y1756D02*
X3173Y1756D01*
X3414Y1756D02*
X3473Y1756D01*
X3115Y1755D02*
X3173Y1755D01*
X3415Y1755D02*
X3473Y1755D01*
X3116Y1754D02*
X3172Y1754D01*
X3416Y1754D02*
X3472Y1754D01*
X3116Y1753D02*
X3172Y1753D01*
X3416Y1753D02*
X3471Y1753D01*
X3117Y1752D02*
X3171Y1752D01*
X3417Y1752D02*
X3471Y1752D01*
X3118Y1751D02*
X3170Y1751D01*
X3418Y1751D02*
X3470Y1751D01*
X3119Y1750D02*
X3169Y1750D01*
X3419Y1750D02*
X3469Y1750D01*
X3120Y1749D02*
X3168Y1749D01*
X3420Y1749D02*
X3468Y1749D01*
X3121Y1748D02*
X3167Y1748D01*
X3421Y1748D02*
X3467Y1748D01*
X3122Y1747D02*
X3166Y1747D01*
X3422Y1747D02*
X3466Y1747D01*
X3123Y1746D02*
X3165Y1746D01*
X3423Y1746D02*
X3465Y1746D01*
X3125Y1745D02*
X3163Y1745D01*
X3424Y1745D02*
X3463Y1745D01*
X3126Y1744D02*
X3162Y1744D01*
X3426Y1744D02*
X3462Y1744D01*
X3128Y1743D02*
X3160Y1743D01*
X3428Y1743D02*
X3460Y1743D01*
X3130Y1742D02*
X3158Y1742D01*
X3430Y1742D02*
X3458Y1742D01*
X3132Y1741D02*
X3155Y1741D01*
X3432Y1741D02*
X3455Y1741D01*
X3135Y1740D02*
X3152Y1740D01*
X3435Y1740D02*
X3452Y1740D01*
X3140Y1739D02*
X3148Y1739D01*
X3440Y1739D02*
X3448Y1739D01*
X3138Y1708D02*
X3150Y1708D01*
X3438Y1708D02*
X3450Y1708D01*
X3134Y1707D02*
X3154Y1707D01*
X3434Y1707D02*
X3453Y1707D01*
X3132Y1706D02*
X3156Y1706D01*
X3432Y1706D02*
X3456Y1706D01*
X3129Y1705D02*
X3159Y1705D01*
X3429Y1705D02*
X3458Y1705D01*
X3127Y1704D02*
X3161Y1704D01*
X3427Y1704D02*
X3460Y1704D01*
X3126Y1703D02*
X3162Y1703D01*
X3426Y1703D02*
X3462Y1703D01*
X3124Y1702D02*
X3164Y1702D01*
X3424Y1702D02*
X3464Y1702D01*
X3123Y1701D02*
X3165Y1701D01*
X3423Y1701D02*
X3465Y1701D01*
X3121Y1700D02*
X3166Y1700D01*
X3421Y1700D02*
X3466Y1700D01*
X3120Y1699D02*
X3168Y1699D01*
X3420Y1699D02*
X3467Y1699D01*
X3119Y1698D02*
X3169Y1698D01*
X3419Y1698D02*
X3468Y1698D01*
X3118Y1697D02*
X3169Y1697D01*
X3418Y1697D02*
X3469Y1697D01*
X3118Y1696D02*
X3170Y1696D01*
X3417Y1696D02*
X3470Y1696D01*
X3117Y1695D02*
X3171Y1695D01*
X3417Y1695D02*
X3471Y1695D01*
X3116Y1694D02*
X3172Y1694D01*
X3416Y1694D02*
X3472Y1694D01*
X3115Y1693D02*
X3172Y1693D01*
X3415Y1693D02*
X3472Y1693D01*
X3115Y1692D02*
X3173Y1692D01*
X3415Y1692D02*
X3473Y1692D01*
X3114Y1691D02*
X3174Y1691D01*
X3414Y1691D02*
X3474Y1691D01*
X3114Y1690D02*
X3174Y1690D01*
X3414Y1690D02*
X3474Y1690D01*
X3113Y1689D02*
X3175Y1689D01*
X3413Y1689D02*
X3475Y1689D01*
X3113Y1688D02*
X3139Y1688D01*
X3149Y1688D02*
X3175Y1688D01*
X3413Y1688D02*
X3439Y1688D01*
X3449Y1688D02*
X3475Y1688D01*
X3112Y1687D02*
X3136Y1687D01*
X3151Y1687D02*
X3176Y1687D01*
X3412Y1687D02*
X3436Y1687D01*
X3451Y1687D02*
X3476Y1687D01*
X3112Y1686D02*
X3135Y1686D01*
X3153Y1686D02*
X3176Y1686D01*
X3412Y1686D02*
X3435Y1686D01*
X3453Y1686D02*
X3476Y1686D01*
X3112Y1685D02*
X3134Y1685D01*
X3154Y1685D02*
X3176Y1685D01*
X3411Y1685D02*
X3434Y1685D01*
X3454Y1685D02*
X3476Y1685D01*
X3111Y1684D02*
X3133Y1684D01*
X3155Y1684D02*
X3177Y1684D01*
X3411Y1684D02*
X3433Y1684D01*
X3455Y1684D02*
X3477Y1684D01*
X3111Y1683D02*
X3132Y1683D01*
X3156Y1683D02*
X3177Y1683D01*
X3411Y1683D02*
X3432Y1683D01*
X3456Y1683D02*
X3477Y1683D01*
X3111Y1682D02*
X3131Y1682D01*
X3157Y1682D02*
X3177Y1682D01*
X3411Y1682D02*
X3431Y1682D01*
X3457Y1682D02*
X3477Y1682D01*
X3110Y1681D02*
X3130Y1681D01*
X3158Y1681D02*
X3178Y1681D01*
X3410Y1681D02*
X3430Y1681D01*
X3458Y1681D02*
X3477Y1681D01*
X3110Y1680D02*
X3130Y1680D01*
X3158Y1680D02*
X3178Y1680D01*
X3410Y1680D02*
X3430Y1680D01*
X3458Y1680D02*
X3478Y1680D01*
X3110Y1679D02*
X3129Y1679D01*
X3159Y1679D02*
X3178Y1679D01*
X3410Y1679D02*
X3429Y1679D01*
X3459Y1679D02*
X3478Y1679D01*
X3110Y1678D02*
X3129Y1678D01*
X3159Y1678D02*
X3178Y1678D01*
X3410Y1678D02*
X3429Y1678D01*
X3459Y1678D02*
X3478Y1678D01*
X3110Y1677D02*
X3129Y1677D01*
X3159Y1677D02*
X3178Y1677D01*
X3410Y1677D02*
X3429Y1677D01*
X3459Y1677D02*
X3478Y1677D01*
X3110Y1676D02*
X3129Y1676D01*
X3159Y1676D02*
X3178Y1676D01*
X3410Y1676D02*
X3429Y1676D01*
X3459Y1676D02*
X3478Y1676D01*
X3109Y1675D02*
X3129Y1675D01*
X3159Y1675D02*
X3178Y1675D01*
X3409Y1675D02*
X3428Y1675D01*
X3459Y1675D02*
X3478Y1675D01*
X3109Y1674D02*
X3128Y1674D01*
X3159Y1674D02*
X3178Y1674D01*
X3409Y1674D02*
X3428Y1674D01*
X3459Y1674D02*
X3478Y1674D01*
X3109Y1673D02*
X3128Y1673D01*
X3159Y1673D02*
X3178Y1673D01*
X3409Y1673D02*
X3428Y1673D01*
X3459Y1673D02*
X3478Y1673D01*
X3110Y1672D02*
X3129Y1672D01*
X3159Y1672D02*
X3178Y1672D01*
X3409Y1672D02*
X3428Y1672D01*
X3459Y1672D02*
X3478Y1672D01*
X3110Y1671D02*
X3129Y1671D01*
X3159Y1671D02*
X3178Y1671D01*
X3410Y1671D02*
X3429Y1671D01*
X3459Y1671D02*
X3478Y1671D01*
X3110Y1670D02*
X3129Y1670D01*
X3159Y1670D02*
X3178Y1670D01*
X3410Y1670D02*
X3429Y1670D01*
X3459Y1670D02*
X3478Y1670D01*
X3110Y1669D02*
X3129Y1669D01*
X3159Y1669D02*
X3178Y1669D01*
X3410Y1669D02*
X3429Y1669D01*
X3459Y1669D02*
X3478Y1669D01*
X3110Y1668D02*
X3129Y1668D01*
X3158Y1668D02*
X3178Y1668D01*
X3410Y1668D02*
X3429Y1668D01*
X3458Y1668D02*
X3478Y1668D01*
X3110Y1667D02*
X3130Y1667D01*
X3158Y1667D02*
X3178Y1667D01*
X3410Y1667D02*
X3430Y1667D01*
X3458Y1667D02*
X3478Y1667D01*
X3110Y1666D02*
X3130Y1666D01*
X3157Y1666D02*
X3177Y1666D01*
X3410Y1666D02*
X3430Y1666D01*
X3457Y1666D02*
X3477Y1666D01*
X3111Y1665D02*
X3131Y1665D01*
X3157Y1665D02*
X3177Y1665D01*
X3411Y1665D02*
X3431Y1665D01*
X3457Y1665D02*
X3477Y1665D01*
X3111Y1664D02*
X3132Y1664D01*
X3156Y1664D02*
X3177Y1664D01*
X3411Y1664D02*
X3432Y1664D01*
X3456Y1664D02*
X3477Y1664D01*
X3111Y1663D02*
X3133Y1663D01*
X3155Y1663D02*
X3177Y1663D01*
X3411Y1663D02*
X3433Y1663D01*
X3455Y1663D02*
X3477Y1663D01*
X3112Y1662D02*
X3134Y1662D01*
X3154Y1662D02*
X3176Y1662D01*
X3412Y1662D02*
X3434Y1662D01*
X3454Y1662D02*
X3476Y1662D01*
X3112Y1661D02*
X3135Y1661D01*
X3153Y1661D02*
X3176Y1661D01*
X3412Y1661D02*
X3435Y1661D01*
X3453Y1661D02*
X3476Y1661D01*
X3112Y1660D02*
X3137Y1660D01*
X3151Y1660D02*
X3175Y1660D01*
X3412Y1660D02*
X3437Y1660D01*
X3451Y1660D02*
X3475Y1660D01*
X3113Y1659D02*
X3140Y1659D01*
X3148Y1659D02*
X3175Y1659D01*
X3413Y1659D02*
X3440Y1659D01*
X3448Y1659D02*
X3475Y1659D01*
X3113Y1658D02*
X3174Y1658D01*
X3413Y1658D02*
X3474Y1658D01*
X3114Y1657D02*
X3174Y1657D01*
X3414Y1657D02*
X3474Y1657D01*
X3114Y1656D02*
X3173Y1656D01*
X3414Y1656D02*
X3473Y1656D01*
X3115Y1655D02*
X3173Y1655D01*
X3415Y1655D02*
X3473Y1655D01*
X3116Y1654D02*
X3172Y1654D01*
X3416Y1654D02*
X3472Y1654D01*
X3116Y1653D02*
X3172Y1653D01*
X3416Y1653D02*
X3471Y1653D01*
X3117Y1652D02*
X3171Y1652D01*
X3417Y1652D02*
X3471Y1652D01*
X3118Y1651D02*
X3170Y1651D01*
X3418Y1651D02*
X3470Y1651D01*
X3119Y1650D02*
X3169Y1650D01*
X3419Y1650D02*
X3469Y1650D01*
X3120Y1649D02*
X3168Y1649D01*
X3420Y1649D02*
X3468Y1649D01*
X3121Y1648D02*
X3167Y1648D01*
X3421Y1648D02*
X3467Y1648D01*
X3122Y1647D02*
X3166Y1647D01*
X3422Y1647D02*
X3466Y1647D01*
X3123Y1646D02*
X3165Y1646D01*
X3423Y1646D02*
X3465Y1646D01*
X3125Y1645D02*
X3163Y1645D01*
X3424Y1645D02*
X3463Y1645D01*
X3126Y1644D02*
X3162Y1644D01*
X3426Y1644D02*
X3462Y1644D01*
X3128Y1643D02*
X3160Y1643D01*
X3428Y1643D02*
X3460Y1643D01*
X3130Y1642D02*
X3158Y1642D01*
X3430Y1642D02*
X3458Y1642D01*
X3132Y1641D02*
X3155Y1641D01*
X3432Y1641D02*
X3455Y1641D01*
X3136Y1640D02*
X3152Y1640D01*
X3435Y1640D02*
X3452Y1640D01*
X3140Y1639D02*
X3148Y1639D01*
X3440Y1639D02*
X3448Y1639D01*
X3138Y1608D02*
X3150Y1608D01*
X3438Y1608D02*
X3450Y1608D01*
X3134Y1607D02*
X3154Y1607D01*
X3434Y1607D02*
X3454Y1607D01*
X3132Y1606D02*
X3156Y1606D01*
X3431Y1606D02*
X3456Y1606D01*
X3129Y1605D02*
X3159Y1605D01*
X3429Y1605D02*
X3459Y1605D01*
X3127Y1604D02*
X3161Y1604D01*
X3427Y1604D02*
X3461Y1604D01*
X3126Y1603D02*
X3162Y1603D01*
X3426Y1603D02*
X3462Y1603D01*
X3124Y1602D02*
X3164Y1602D01*
X3424Y1602D02*
X3464Y1602D01*
X3123Y1601D02*
X3165Y1601D01*
X3423Y1601D02*
X3465Y1601D01*
X3121Y1600D02*
X3166Y1600D01*
X3421Y1600D02*
X3466Y1600D01*
X3120Y1599D02*
X3168Y1599D01*
X3420Y1599D02*
X3467Y1599D01*
X3119Y1598D02*
X3169Y1598D01*
X3419Y1598D02*
X3469Y1598D01*
X3118Y1597D02*
X3169Y1597D01*
X3418Y1597D02*
X3469Y1597D01*
X3118Y1596D02*
X3170Y1596D01*
X3417Y1596D02*
X3470Y1596D01*
X3117Y1595D02*
X3171Y1595D01*
X3417Y1595D02*
X3471Y1595D01*
X3116Y1594D02*
X3172Y1594D01*
X3416Y1594D02*
X3472Y1594D01*
X3115Y1593D02*
X3172Y1593D01*
X3415Y1593D02*
X3472Y1593D01*
X3115Y1592D02*
X3173Y1592D01*
X3415Y1592D02*
X3473Y1592D01*
X3114Y1591D02*
X3174Y1591D01*
X3414Y1591D02*
X3474Y1591D01*
X3114Y1590D02*
X3174Y1590D01*
X3414Y1590D02*
X3474Y1590D01*
X3113Y1589D02*
X3175Y1589D01*
X3413Y1589D02*
X3475Y1589D01*
X3113Y1588D02*
X3139Y1588D01*
X3149Y1588D02*
X3175Y1588D01*
X3413Y1588D02*
X3439Y1588D01*
X3449Y1588D02*
X3475Y1588D01*
X3112Y1587D02*
X3136Y1587D01*
X3151Y1587D02*
X3176Y1587D01*
X3412Y1587D02*
X3436Y1587D01*
X3451Y1587D02*
X3476Y1587D01*
X3112Y1586D02*
X3135Y1586D01*
X3153Y1586D02*
X3176Y1586D01*
X3412Y1586D02*
X3435Y1586D01*
X3453Y1586D02*
X3476Y1586D01*
X3112Y1585D02*
X3134Y1585D01*
X3154Y1585D02*
X3176Y1585D01*
X3411Y1585D02*
X3434Y1585D01*
X3454Y1585D02*
X3476Y1585D01*
X3111Y1584D02*
X3133Y1584D01*
X3155Y1584D02*
X3177Y1584D01*
X3411Y1584D02*
X3433Y1584D01*
X3455Y1584D02*
X3477Y1584D01*
X3111Y1583D02*
X3132Y1583D01*
X3156Y1583D02*
X3177Y1583D01*
X3411Y1583D02*
X3432Y1583D01*
X3456Y1583D02*
X3477Y1583D01*
X3111Y1582D02*
X3131Y1582D01*
X3157Y1582D02*
X3177Y1582D01*
X3411Y1582D02*
X3431Y1582D01*
X3457Y1582D02*
X3477Y1582D01*
X3110Y1581D02*
X3130Y1581D01*
X3158Y1581D02*
X3178Y1581D01*
X3410Y1581D02*
X3430Y1581D01*
X3458Y1581D02*
X3477Y1581D01*
X3110Y1580D02*
X3130Y1580D01*
X3158Y1580D02*
X3178Y1580D01*
X3410Y1580D02*
X3430Y1580D01*
X3458Y1580D02*
X3478Y1580D01*
X3110Y1579D02*
X3129Y1579D01*
X3159Y1579D02*
X3178Y1579D01*
X3410Y1579D02*
X3429Y1579D01*
X3459Y1579D02*
X3478Y1579D01*
X3110Y1578D02*
X3129Y1578D01*
X3159Y1578D02*
X3178Y1578D01*
X3410Y1578D02*
X3429Y1578D01*
X3459Y1578D02*
X3478Y1578D01*
X3110Y1577D02*
X3129Y1577D01*
X3159Y1577D02*
X3178Y1577D01*
X3410Y1577D02*
X3429Y1577D01*
X3459Y1577D02*
X3478Y1577D01*
X3110Y1576D02*
X3129Y1576D01*
X3159Y1576D02*
X3178Y1576D01*
X3410Y1576D02*
X3429Y1576D01*
X3459Y1576D02*
X3478Y1576D01*
X3109Y1575D02*
X3129Y1575D01*
X3159Y1575D02*
X3178Y1575D01*
X3409Y1575D02*
X3428Y1575D01*
X3459Y1575D02*
X3478Y1575D01*
X3109Y1574D02*
X3128Y1574D01*
X3159Y1574D02*
X3178Y1574D01*
X3409Y1574D02*
X3428Y1574D01*
X3459Y1574D02*
X3478Y1574D01*
X3109Y1573D02*
X3128Y1573D01*
X3159Y1573D02*
X3178Y1573D01*
X3409Y1573D02*
X3428Y1573D01*
X3459Y1573D02*
X3478Y1573D01*
X3110Y1572D02*
X3129Y1572D01*
X3159Y1572D02*
X3178Y1572D01*
X3409Y1572D02*
X3428Y1572D01*
X3459Y1572D02*
X3478Y1572D01*
X3110Y1571D02*
X3129Y1571D01*
X3159Y1571D02*
X3178Y1571D01*
X3410Y1571D02*
X3429Y1571D01*
X3459Y1571D02*
X3478Y1571D01*
X3110Y1570D02*
X3129Y1570D01*
X3159Y1570D02*
X3178Y1570D01*
X3410Y1570D02*
X3429Y1570D01*
X3459Y1570D02*
X3478Y1570D01*
X3110Y1569D02*
X3129Y1569D01*
X3159Y1569D02*
X3178Y1569D01*
X3410Y1569D02*
X3429Y1569D01*
X3459Y1569D02*
X3478Y1569D01*
X3110Y1568D02*
X3129Y1568D01*
X3158Y1568D02*
X3178Y1568D01*
X3410Y1568D02*
X3429Y1568D01*
X3458Y1568D02*
X3478Y1568D01*
X3110Y1567D02*
X3130Y1567D01*
X3158Y1567D02*
X3178Y1567D01*
X3410Y1567D02*
X3430Y1567D01*
X3458Y1567D02*
X3478Y1567D01*
X3110Y1566D02*
X3130Y1566D01*
X3157Y1566D02*
X3177Y1566D01*
X3410Y1566D02*
X3430Y1566D01*
X3457Y1566D02*
X3477Y1566D01*
X3111Y1565D02*
X3131Y1565D01*
X3157Y1565D02*
X3177Y1565D01*
X3411Y1565D02*
X3431Y1565D01*
X3457Y1565D02*
X3477Y1565D01*
X3111Y1564D02*
X3132Y1564D01*
X3156Y1564D02*
X3177Y1564D01*
X3411Y1564D02*
X3432Y1564D01*
X3456Y1564D02*
X3477Y1564D01*
X3111Y1563D02*
X3133Y1563D01*
X3155Y1563D02*
X3177Y1563D01*
X3411Y1563D02*
X3433Y1563D01*
X3455Y1563D02*
X3477Y1563D01*
X3112Y1562D02*
X3134Y1562D01*
X3154Y1562D02*
X3176Y1562D01*
X3412Y1562D02*
X3434Y1562D01*
X3454Y1562D02*
X3476Y1562D01*
X3112Y1561D02*
X3135Y1561D01*
X3153Y1561D02*
X3176Y1561D01*
X3412Y1561D02*
X3435Y1561D01*
X3453Y1561D02*
X3476Y1561D01*
X3112Y1560D02*
X3137Y1560D01*
X3151Y1560D02*
X3175Y1560D01*
X3412Y1560D02*
X3437Y1560D01*
X3451Y1560D02*
X3475Y1560D01*
X3113Y1559D02*
X3140Y1559D01*
X3148Y1559D02*
X3175Y1559D01*
X3413Y1559D02*
X3440Y1559D01*
X3448Y1559D02*
X3475Y1559D01*
X1538Y1558D02*
X1550Y1558D01*
X1638Y1558D02*
X1650Y1558D01*
X1738Y1558D02*
X1750Y1558D01*
X1838Y1558D02*
X1850Y1558D01*
X1938Y1558D02*
X1950Y1558D01*
X2038Y1558D02*
X2050Y1558D01*
X2138Y1558D02*
X2150Y1558D01*
X2238Y1558D02*
X2250Y1558D01*
X2338Y1558D02*
X2350Y1558D01*
X2438Y1558D02*
X2450Y1558D01*
X2538Y1558D02*
X2550Y1558D01*
X2638Y1558D02*
X2650Y1558D01*
X2738Y1558D02*
X2750Y1558D01*
X2838Y1558D02*
X2850Y1558D01*
X3113Y1558D02*
X3174Y1558D01*
X3413Y1558D02*
X3474Y1558D01*
X1535Y1557D02*
X1554Y1557D01*
X1635Y1557D02*
X1654Y1557D01*
X1734Y1557D02*
X1754Y1557D01*
X1834Y1557D02*
X1854Y1557D01*
X1934Y1557D02*
X1954Y1557D01*
X2034Y1557D02*
X2054Y1557D01*
X2134Y1557D02*
X2154Y1557D01*
X2234Y1557D02*
X2254Y1557D01*
X2334Y1557D02*
X2354Y1557D01*
X2434Y1557D02*
X2454Y1557D01*
X2534Y1557D02*
X2554Y1557D01*
X2634Y1557D02*
X2654Y1557D01*
X2734Y1557D02*
X2754Y1557D01*
X2834Y1557D02*
X2854Y1557D01*
X3114Y1557D02*
X3174Y1557D01*
X3414Y1557D02*
X3474Y1557D01*
X1532Y1556D02*
X1557Y1556D01*
X1632Y1556D02*
X1657Y1556D01*
X1732Y1556D02*
X1757Y1556D01*
X1832Y1556D02*
X1857Y1556D01*
X1932Y1556D02*
X1957Y1556D01*
X2032Y1556D02*
X2057Y1556D01*
X2132Y1556D02*
X2156Y1556D01*
X2232Y1556D02*
X2256Y1556D01*
X2332Y1556D02*
X2356Y1556D01*
X2432Y1556D02*
X2456Y1556D01*
X2532Y1556D02*
X2556Y1556D01*
X2632Y1556D02*
X2656Y1556D01*
X2732Y1556D02*
X2756Y1556D01*
X2832Y1556D02*
X2856Y1556D01*
X3114Y1556D02*
X3173Y1556D01*
X3414Y1556D02*
X3473Y1556D01*
X1530Y1555D02*
X1559Y1555D01*
X1629Y1555D02*
X1659Y1555D01*
X1729Y1555D02*
X1759Y1555D01*
X1829Y1555D02*
X1859Y1555D01*
X1929Y1555D02*
X1959Y1555D01*
X2029Y1555D02*
X2059Y1555D01*
X2129Y1555D02*
X2159Y1555D01*
X2229Y1555D02*
X2259Y1555D01*
X2329Y1555D02*
X2359Y1555D01*
X2429Y1555D02*
X2459Y1555D01*
X2529Y1555D02*
X2559Y1555D01*
X2629Y1555D02*
X2659Y1555D01*
X2729Y1555D02*
X2759Y1555D01*
X2829Y1555D02*
X2859Y1555D01*
X3115Y1555D02*
X3173Y1555D01*
X3415Y1555D02*
X3473Y1555D01*
X1528Y1554D02*
X1561Y1554D01*
X1628Y1554D02*
X1661Y1554D01*
X1727Y1554D02*
X1761Y1554D01*
X1827Y1554D02*
X1861Y1554D01*
X1927Y1554D02*
X1961Y1554D01*
X2027Y1554D02*
X2061Y1554D01*
X2127Y1554D02*
X2161Y1554D01*
X2227Y1554D02*
X2261Y1554D01*
X2327Y1554D02*
X2361Y1554D01*
X2427Y1554D02*
X2461Y1554D01*
X2527Y1554D02*
X2561Y1554D01*
X2627Y1554D02*
X2661Y1554D01*
X2727Y1554D02*
X2761Y1554D01*
X2827Y1554D02*
X2861Y1554D01*
X3116Y1554D02*
X3172Y1554D01*
X3416Y1554D02*
X3472Y1554D01*
X1526Y1553D02*
X1562Y1553D01*
X1626Y1553D02*
X1662Y1553D01*
X1726Y1553D02*
X1762Y1553D01*
X1826Y1553D02*
X1862Y1553D01*
X1926Y1553D02*
X1962Y1553D01*
X2026Y1553D02*
X2062Y1553D01*
X2126Y1553D02*
X2162Y1553D01*
X2226Y1553D02*
X2262Y1553D01*
X2326Y1553D02*
X2362Y1553D01*
X2426Y1553D02*
X2462Y1553D01*
X2526Y1553D02*
X2562Y1553D01*
X2626Y1553D02*
X2662Y1553D01*
X2726Y1553D02*
X2762Y1553D01*
X2826Y1553D02*
X2862Y1553D01*
X3116Y1553D02*
X3172Y1553D01*
X3416Y1553D02*
X3471Y1553D01*
X1524Y1552D02*
X1564Y1552D01*
X1624Y1552D02*
X1664Y1552D01*
X1724Y1552D02*
X1764Y1552D01*
X1824Y1552D02*
X1864Y1552D01*
X1924Y1552D02*
X1964Y1552D01*
X2024Y1552D02*
X2064Y1552D01*
X2124Y1552D02*
X2164Y1552D01*
X2224Y1552D02*
X2264Y1552D01*
X2324Y1552D02*
X2364Y1552D01*
X2424Y1552D02*
X2464Y1552D01*
X2524Y1552D02*
X2564Y1552D01*
X2624Y1552D02*
X2664Y1552D01*
X2724Y1552D02*
X2764Y1552D01*
X2824Y1552D02*
X2864Y1552D01*
X3117Y1552D02*
X3171Y1552D01*
X3417Y1552D02*
X3471Y1552D01*
X1523Y1551D02*
X1565Y1551D01*
X1623Y1551D02*
X1665Y1551D01*
X1723Y1551D02*
X1765Y1551D01*
X1823Y1551D02*
X1865Y1551D01*
X1923Y1551D02*
X1965Y1551D01*
X2023Y1551D02*
X2065Y1551D01*
X2123Y1551D02*
X2165Y1551D01*
X2223Y1551D02*
X2265Y1551D01*
X2323Y1551D02*
X2365Y1551D01*
X2423Y1551D02*
X2465Y1551D01*
X2523Y1551D02*
X2565Y1551D01*
X2623Y1551D02*
X2665Y1551D01*
X2723Y1551D02*
X2765Y1551D01*
X2823Y1551D02*
X2865Y1551D01*
X3118Y1551D02*
X3170Y1551D01*
X3418Y1551D02*
X3470Y1551D01*
X1522Y1550D02*
X1567Y1550D01*
X1622Y1550D02*
X1667Y1550D01*
X1722Y1550D02*
X1767Y1550D01*
X1822Y1550D02*
X1867Y1550D01*
X1922Y1550D02*
X1967Y1550D01*
X2022Y1550D02*
X2067Y1550D01*
X2122Y1550D02*
X2167Y1550D01*
X2222Y1550D02*
X2267Y1550D01*
X2322Y1550D02*
X2367Y1550D01*
X2422Y1550D02*
X2467Y1550D01*
X2522Y1550D02*
X2567Y1550D01*
X2621Y1550D02*
X2666Y1550D01*
X2721Y1550D02*
X2766Y1550D01*
X2821Y1550D02*
X2866Y1550D01*
X3119Y1550D02*
X3169Y1550D01*
X3419Y1550D02*
X3469Y1550D01*
X1521Y1549D02*
X1568Y1549D01*
X1621Y1549D02*
X1668Y1549D01*
X1721Y1549D02*
X1768Y1549D01*
X1820Y1549D02*
X1868Y1549D01*
X1920Y1549D02*
X1968Y1549D01*
X2020Y1549D02*
X2068Y1549D01*
X2120Y1549D02*
X2168Y1549D01*
X2220Y1549D02*
X2268Y1549D01*
X2320Y1549D02*
X2368Y1549D01*
X2420Y1549D02*
X2468Y1549D01*
X2520Y1549D02*
X2568Y1549D01*
X2620Y1549D02*
X2668Y1549D01*
X2720Y1549D02*
X2768Y1549D01*
X2820Y1549D02*
X2868Y1549D01*
X3120Y1549D02*
X3168Y1549D01*
X3420Y1549D02*
X3468Y1549D01*
X1520Y1548D02*
X1569Y1548D01*
X1620Y1548D02*
X1669Y1548D01*
X1719Y1548D02*
X1769Y1548D01*
X1819Y1548D02*
X1869Y1548D01*
X1919Y1548D02*
X1969Y1548D01*
X2019Y1548D02*
X2069Y1548D01*
X2119Y1548D02*
X2169Y1548D01*
X2219Y1548D02*
X2269Y1548D01*
X2319Y1548D02*
X2369Y1548D01*
X2419Y1548D02*
X2469Y1548D01*
X2519Y1548D02*
X2569Y1548D01*
X2619Y1548D02*
X2669Y1548D01*
X2719Y1548D02*
X2769Y1548D01*
X2819Y1548D02*
X2869Y1548D01*
X3121Y1548D02*
X3167Y1548D01*
X3421Y1548D02*
X3467Y1548D01*
X1519Y1547D02*
X1570Y1547D01*
X1619Y1547D02*
X1670Y1547D01*
X1719Y1547D02*
X1770Y1547D01*
X1819Y1547D02*
X1870Y1547D01*
X1919Y1547D02*
X1970Y1547D01*
X2019Y1547D02*
X2070Y1547D01*
X2119Y1547D02*
X2170Y1547D01*
X2219Y1547D02*
X2270Y1547D01*
X2319Y1547D02*
X2370Y1547D01*
X2418Y1547D02*
X2470Y1547D01*
X2518Y1547D02*
X2570Y1547D01*
X2618Y1547D02*
X2670Y1547D01*
X2718Y1547D02*
X2770Y1547D01*
X2818Y1547D02*
X2869Y1547D01*
X3122Y1547D02*
X3166Y1547D01*
X3422Y1547D02*
X3466Y1547D01*
X1518Y1546D02*
X1571Y1546D01*
X1618Y1546D02*
X1671Y1546D01*
X1718Y1546D02*
X1771Y1546D01*
X1818Y1546D02*
X1871Y1546D01*
X1918Y1546D02*
X1970Y1546D01*
X2018Y1546D02*
X2070Y1546D01*
X2118Y1546D02*
X2170Y1546D01*
X2218Y1546D02*
X2270Y1546D01*
X2318Y1546D02*
X2370Y1546D01*
X2418Y1546D02*
X2470Y1546D01*
X2518Y1546D02*
X2570Y1546D01*
X2618Y1546D02*
X2670Y1546D01*
X2718Y1546D02*
X2770Y1546D01*
X2818Y1546D02*
X2870Y1546D01*
X3123Y1546D02*
X3165Y1546D01*
X3423Y1546D02*
X3465Y1546D01*
X1517Y1545D02*
X1571Y1545D01*
X1617Y1545D02*
X1671Y1545D01*
X1717Y1545D02*
X1771Y1545D01*
X1817Y1545D02*
X1871Y1545D01*
X1917Y1545D02*
X1971Y1545D01*
X2017Y1545D02*
X2071Y1545D01*
X2117Y1545D02*
X2171Y1545D01*
X2217Y1545D02*
X2271Y1545D01*
X2317Y1545D02*
X2371Y1545D01*
X2417Y1545D02*
X2471Y1545D01*
X2517Y1545D02*
X2571Y1545D01*
X2617Y1545D02*
X2671Y1545D01*
X2717Y1545D02*
X2771Y1545D01*
X2817Y1545D02*
X2871Y1545D01*
X3125Y1545D02*
X3163Y1545D01*
X3425Y1545D02*
X3463Y1545D01*
X1516Y1544D02*
X1572Y1544D01*
X1616Y1544D02*
X1672Y1544D01*
X1716Y1544D02*
X1772Y1544D01*
X1816Y1544D02*
X1872Y1544D01*
X1916Y1544D02*
X1972Y1544D01*
X2016Y1544D02*
X2072Y1544D01*
X2116Y1544D02*
X2172Y1544D01*
X2216Y1544D02*
X2272Y1544D01*
X2316Y1544D02*
X2372Y1544D01*
X2416Y1544D02*
X2472Y1544D01*
X2516Y1544D02*
X2572Y1544D01*
X2616Y1544D02*
X2672Y1544D01*
X2716Y1544D02*
X2772Y1544D01*
X2816Y1544D02*
X2872Y1544D01*
X3126Y1544D02*
X3162Y1544D01*
X3426Y1544D02*
X3462Y1544D01*
X1516Y1543D02*
X1573Y1543D01*
X1616Y1543D02*
X1673Y1543D01*
X1716Y1543D02*
X1773Y1543D01*
X1816Y1543D02*
X1873Y1543D01*
X1916Y1543D02*
X1973Y1543D01*
X2016Y1543D02*
X2073Y1543D01*
X2116Y1543D02*
X2173Y1543D01*
X2216Y1543D02*
X2273Y1543D01*
X2316Y1543D02*
X2373Y1543D01*
X2415Y1543D02*
X2473Y1543D01*
X2515Y1543D02*
X2573Y1543D01*
X2615Y1543D02*
X2673Y1543D01*
X2715Y1543D02*
X2773Y1543D01*
X2815Y1543D02*
X2872Y1543D01*
X3128Y1543D02*
X3160Y1543D01*
X3428Y1543D02*
X3460Y1543D01*
X1515Y1542D02*
X1573Y1542D01*
X1615Y1542D02*
X1673Y1542D01*
X1715Y1542D02*
X1773Y1542D01*
X1815Y1542D02*
X1873Y1542D01*
X1915Y1542D02*
X1973Y1542D01*
X2015Y1542D02*
X2073Y1542D01*
X2115Y1542D02*
X2173Y1542D01*
X2215Y1542D02*
X2273Y1542D01*
X2315Y1542D02*
X2373Y1542D01*
X2415Y1542D02*
X2473Y1542D01*
X2515Y1542D02*
X2573Y1542D01*
X2615Y1542D02*
X2673Y1542D01*
X2715Y1542D02*
X2773Y1542D01*
X2815Y1542D02*
X2873Y1542D01*
X3130Y1542D02*
X3158Y1542D01*
X3430Y1542D02*
X3458Y1542D01*
X1514Y1541D02*
X1574Y1541D01*
X1614Y1541D02*
X1674Y1541D01*
X1714Y1541D02*
X1774Y1541D01*
X1814Y1541D02*
X1874Y1541D01*
X1914Y1541D02*
X1974Y1541D01*
X2014Y1541D02*
X2074Y1541D01*
X2114Y1541D02*
X2174Y1541D01*
X2214Y1541D02*
X2274Y1541D01*
X2314Y1541D02*
X2374Y1541D01*
X2414Y1541D02*
X2474Y1541D01*
X2514Y1541D02*
X2574Y1541D01*
X2614Y1541D02*
X2674Y1541D01*
X2714Y1541D02*
X2774Y1541D01*
X2814Y1541D02*
X2874Y1541D01*
X3133Y1541D02*
X3155Y1541D01*
X3432Y1541D02*
X3455Y1541D01*
X1514Y1540D02*
X1574Y1540D01*
X1614Y1540D02*
X1674Y1540D01*
X1714Y1540D02*
X1774Y1540D01*
X1814Y1540D02*
X1874Y1540D01*
X1914Y1540D02*
X1974Y1540D01*
X2014Y1540D02*
X2074Y1540D01*
X2114Y1540D02*
X2174Y1540D01*
X2214Y1540D02*
X2274Y1540D01*
X2314Y1540D02*
X2374Y1540D01*
X2414Y1540D02*
X2474Y1540D01*
X2514Y1540D02*
X2574Y1540D01*
X2614Y1540D02*
X2674Y1540D01*
X2714Y1540D02*
X2774Y1540D01*
X2814Y1540D02*
X2874Y1540D01*
X3136Y1540D02*
X3152Y1540D01*
X3436Y1540D02*
X3452Y1540D01*
X1513Y1539D02*
X1575Y1539D01*
X1613Y1539D02*
X1675Y1539D01*
X1713Y1539D02*
X1775Y1539D01*
X1813Y1539D02*
X1875Y1539D01*
X1913Y1539D02*
X1975Y1539D01*
X2013Y1539D02*
X2075Y1539D01*
X2113Y1539D02*
X2175Y1539D01*
X2213Y1539D02*
X2275Y1539D01*
X2313Y1539D02*
X2375Y1539D01*
X2413Y1539D02*
X2475Y1539D01*
X2513Y1539D02*
X2575Y1539D01*
X2613Y1539D02*
X2675Y1539D01*
X2713Y1539D02*
X2775Y1539D01*
X2813Y1539D02*
X2875Y1539D01*
X3140Y1539D02*
X3148Y1539D01*
X3440Y1539D02*
X3447Y1539D01*
X1513Y1538D02*
X1539Y1538D01*
X1549Y1538D02*
X1575Y1538D01*
X1613Y1538D02*
X1639Y1538D01*
X1649Y1538D02*
X1675Y1538D01*
X1713Y1538D02*
X1739Y1538D01*
X1749Y1538D02*
X1775Y1538D01*
X1813Y1538D02*
X1839Y1538D01*
X1849Y1538D02*
X1875Y1538D01*
X1913Y1538D02*
X1939Y1538D01*
X1949Y1538D02*
X1975Y1538D01*
X2013Y1538D02*
X2039Y1538D01*
X2049Y1538D02*
X2075Y1538D01*
X2113Y1538D02*
X2139Y1538D01*
X2149Y1538D02*
X2175Y1538D01*
X2213Y1538D02*
X2239Y1538D01*
X2249Y1538D02*
X2275Y1538D01*
X2313Y1538D02*
X2339Y1538D01*
X2349Y1538D02*
X2375Y1538D01*
X2413Y1538D02*
X2439Y1538D01*
X2449Y1538D02*
X2475Y1538D01*
X2513Y1538D02*
X2539Y1538D01*
X2549Y1538D02*
X2575Y1538D01*
X2613Y1538D02*
X2639Y1538D01*
X2649Y1538D02*
X2675Y1538D01*
X2713Y1538D02*
X2739Y1538D01*
X2749Y1538D02*
X2775Y1538D01*
X2813Y1538D02*
X2839Y1538D01*
X2849Y1538D02*
X2875Y1538D01*
X1513Y1537D02*
X1537Y1537D01*
X1552Y1537D02*
X1576Y1537D01*
X1612Y1537D02*
X1637Y1537D01*
X1652Y1537D02*
X1676Y1537D01*
X1712Y1537D02*
X1737Y1537D01*
X1752Y1537D02*
X1776Y1537D01*
X1812Y1537D02*
X1837Y1537D01*
X1852Y1537D02*
X1876Y1537D01*
X1912Y1537D02*
X1936Y1537D01*
X1952Y1537D02*
X1976Y1537D01*
X2012Y1537D02*
X2036Y1537D01*
X2052Y1537D02*
X2076Y1537D01*
X2112Y1537D02*
X2136Y1537D01*
X2152Y1537D02*
X2176Y1537D01*
X2212Y1537D02*
X2236Y1537D01*
X2252Y1537D02*
X2276Y1537D01*
X2312Y1537D02*
X2336Y1537D01*
X2352Y1537D02*
X2376Y1537D01*
X2412Y1537D02*
X2436Y1537D01*
X2452Y1537D02*
X2476Y1537D01*
X2512Y1537D02*
X2536Y1537D01*
X2552Y1537D02*
X2576Y1537D01*
X2612Y1537D02*
X2636Y1537D01*
X2652Y1537D02*
X2676Y1537D01*
X2712Y1537D02*
X2736Y1537D01*
X2752Y1537D02*
X2776Y1537D01*
X2812Y1537D02*
X2836Y1537D01*
X2852Y1537D02*
X2876Y1537D01*
X1512Y1536D02*
X1535Y1536D01*
X1553Y1536D02*
X1576Y1536D01*
X1612Y1536D02*
X1635Y1536D01*
X1653Y1536D02*
X1676Y1536D01*
X1712Y1536D02*
X1735Y1536D01*
X1753Y1536D02*
X1776Y1536D01*
X1812Y1536D02*
X1835Y1536D01*
X1853Y1536D02*
X1876Y1536D01*
X1912Y1536D02*
X1935Y1536D01*
X1953Y1536D02*
X1976Y1536D01*
X2012Y1536D02*
X2035Y1536D01*
X2053Y1536D02*
X2076Y1536D01*
X2112Y1536D02*
X2135Y1536D01*
X2153Y1536D02*
X2176Y1536D01*
X2212Y1536D02*
X2235Y1536D01*
X2253Y1536D02*
X2276Y1536D01*
X2312Y1536D02*
X2335Y1536D01*
X2353Y1536D02*
X2376Y1536D01*
X2412Y1536D02*
X2435Y1536D01*
X2453Y1536D02*
X2476Y1536D01*
X2512Y1536D02*
X2535Y1536D01*
X2553Y1536D02*
X2576Y1536D01*
X2612Y1536D02*
X2635Y1536D01*
X2653Y1536D02*
X2676Y1536D01*
X2712Y1536D02*
X2735Y1536D01*
X2753Y1536D02*
X2776Y1536D01*
X2812Y1536D02*
X2835Y1536D01*
X2853Y1536D02*
X2876Y1536D01*
X1512Y1535D02*
X1534Y1535D01*
X1554Y1535D02*
X1577Y1535D01*
X1612Y1535D02*
X1634Y1535D01*
X1654Y1535D02*
X1677Y1535D01*
X1712Y1535D02*
X1734Y1535D01*
X1754Y1535D02*
X1777Y1535D01*
X1812Y1535D02*
X1834Y1535D01*
X1854Y1535D02*
X1877Y1535D01*
X1912Y1535D02*
X1934Y1535D01*
X1954Y1535D02*
X1977Y1535D01*
X2012Y1535D02*
X2034Y1535D01*
X2054Y1535D02*
X2076Y1535D01*
X2112Y1535D02*
X2134Y1535D01*
X2154Y1535D02*
X2176Y1535D01*
X2212Y1535D02*
X2234Y1535D01*
X2254Y1535D02*
X2276Y1535D01*
X2312Y1535D02*
X2334Y1535D01*
X2354Y1535D02*
X2376Y1535D01*
X2412Y1535D02*
X2434Y1535D01*
X2454Y1535D02*
X2476Y1535D01*
X2512Y1535D02*
X2534Y1535D01*
X2554Y1535D02*
X2576Y1535D01*
X2612Y1535D02*
X2634Y1535D01*
X2654Y1535D02*
X2676Y1535D01*
X2712Y1535D02*
X2734Y1535D01*
X2754Y1535D02*
X2776Y1535D01*
X2812Y1535D02*
X2834Y1535D01*
X2854Y1535D02*
X2876Y1535D01*
X1511Y1534D02*
X1533Y1534D01*
X1556Y1534D02*
X1577Y1534D01*
X1611Y1534D02*
X1633Y1534D01*
X1655Y1534D02*
X1677Y1534D01*
X1711Y1534D02*
X1733Y1534D01*
X1755Y1534D02*
X1777Y1534D01*
X1811Y1534D02*
X1833Y1534D01*
X1855Y1534D02*
X1877Y1534D01*
X1911Y1534D02*
X1933Y1534D01*
X1955Y1534D02*
X1977Y1534D01*
X2011Y1534D02*
X2033Y1534D01*
X2055Y1534D02*
X2077Y1534D01*
X2111Y1534D02*
X2133Y1534D01*
X2155Y1534D02*
X2177Y1534D01*
X2211Y1534D02*
X2233Y1534D01*
X2255Y1534D02*
X2277Y1534D01*
X2311Y1534D02*
X2333Y1534D01*
X2355Y1534D02*
X2377Y1534D01*
X2411Y1534D02*
X2433Y1534D01*
X2455Y1534D02*
X2477Y1534D01*
X2511Y1534D02*
X2533Y1534D01*
X2555Y1534D02*
X2577Y1534D01*
X2611Y1534D02*
X2633Y1534D01*
X2655Y1534D02*
X2677Y1534D01*
X2711Y1534D02*
X2733Y1534D01*
X2755Y1534D02*
X2777Y1534D01*
X2811Y1534D02*
X2833Y1534D01*
X2855Y1534D02*
X2877Y1534D01*
X1511Y1533D02*
X1532Y1533D01*
X1556Y1533D02*
X1577Y1533D01*
X1611Y1533D02*
X1632Y1533D01*
X1656Y1533D02*
X1677Y1533D01*
X1711Y1533D02*
X1732Y1533D01*
X1756Y1533D02*
X1777Y1533D01*
X1811Y1533D02*
X1832Y1533D01*
X1856Y1533D02*
X1877Y1533D01*
X1911Y1533D02*
X1932Y1533D01*
X1956Y1533D02*
X1977Y1533D01*
X2011Y1533D02*
X2032Y1533D01*
X2056Y1533D02*
X2077Y1533D01*
X2111Y1533D02*
X2132Y1533D01*
X2156Y1533D02*
X2177Y1533D01*
X2211Y1533D02*
X2232Y1533D01*
X2256Y1533D02*
X2277Y1533D01*
X2311Y1533D02*
X2332Y1533D01*
X2356Y1533D02*
X2377Y1533D01*
X2411Y1533D02*
X2432Y1533D01*
X2456Y1533D02*
X2477Y1533D01*
X2511Y1533D02*
X2532Y1533D01*
X2556Y1533D02*
X2577Y1533D01*
X2611Y1533D02*
X2632Y1533D01*
X2656Y1533D02*
X2677Y1533D01*
X2711Y1533D02*
X2732Y1533D01*
X2756Y1533D02*
X2777Y1533D01*
X2811Y1533D02*
X2832Y1533D01*
X2856Y1533D02*
X2877Y1533D01*
X1511Y1532D02*
X1531Y1532D01*
X1557Y1532D02*
X1577Y1532D01*
X1611Y1532D02*
X1631Y1532D01*
X1657Y1532D02*
X1677Y1532D01*
X1711Y1532D02*
X1731Y1532D01*
X1757Y1532D02*
X1777Y1532D01*
X1811Y1532D02*
X1831Y1532D01*
X1857Y1532D02*
X1877Y1532D01*
X1911Y1532D02*
X1931Y1532D01*
X1957Y1532D02*
X1977Y1532D01*
X2011Y1532D02*
X2031Y1532D01*
X2057Y1532D02*
X2077Y1532D01*
X2111Y1532D02*
X2131Y1532D01*
X2157Y1532D02*
X2177Y1532D01*
X2211Y1532D02*
X2231Y1532D01*
X2257Y1532D02*
X2277Y1532D01*
X2311Y1532D02*
X2331Y1532D01*
X2357Y1532D02*
X2377Y1532D01*
X2411Y1532D02*
X2431Y1532D01*
X2457Y1532D02*
X2477Y1532D01*
X2511Y1532D02*
X2531Y1532D01*
X2557Y1532D02*
X2577Y1532D01*
X2611Y1532D02*
X2631Y1532D01*
X2657Y1532D02*
X2677Y1532D01*
X2711Y1532D02*
X2731Y1532D01*
X2757Y1532D02*
X2777Y1532D01*
X2811Y1532D02*
X2831Y1532D01*
X2857Y1532D02*
X2877Y1532D01*
X1511Y1531D02*
X1530Y1531D01*
X1558Y1531D02*
X1578Y1531D01*
X1611Y1531D02*
X1630Y1531D01*
X1658Y1531D02*
X1678Y1531D01*
X1711Y1531D02*
X1730Y1531D01*
X1758Y1531D02*
X1778Y1531D01*
X1811Y1531D02*
X1830Y1531D01*
X1858Y1531D02*
X1878Y1531D01*
X1911Y1531D02*
X1930Y1531D01*
X1958Y1531D02*
X1978Y1531D01*
X2010Y1531D02*
X2030Y1531D01*
X2058Y1531D02*
X2078Y1531D01*
X2110Y1531D02*
X2130Y1531D01*
X2158Y1531D02*
X2178Y1531D01*
X2210Y1531D02*
X2230Y1531D01*
X2258Y1531D02*
X2278Y1531D01*
X2310Y1531D02*
X2330Y1531D01*
X2358Y1531D02*
X2378Y1531D01*
X2410Y1531D02*
X2430Y1531D01*
X2458Y1531D02*
X2478Y1531D01*
X2510Y1531D02*
X2530Y1531D01*
X2558Y1531D02*
X2578Y1531D01*
X2610Y1531D02*
X2630Y1531D01*
X2658Y1531D02*
X2678Y1531D01*
X2710Y1531D02*
X2730Y1531D01*
X2758Y1531D02*
X2778Y1531D01*
X2810Y1531D02*
X2830Y1531D01*
X2858Y1531D02*
X2878Y1531D01*
X1510Y1530D02*
X1530Y1530D01*
X1558Y1530D02*
X1578Y1530D01*
X1610Y1530D02*
X1630Y1530D01*
X1658Y1530D02*
X1678Y1530D01*
X1710Y1530D02*
X1730Y1530D01*
X1758Y1530D02*
X1778Y1530D01*
X1810Y1530D02*
X1830Y1530D01*
X1858Y1530D02*
X1878Y1530D01*
X1910Y1530D02*
X1930Y1530D01*
X1958Y1530D02*
X1978Y1530D01*
X2010Y1530D02*
X2030Y1530D01*
X2058Y1530D02*
X2078Y1530D01*
X2110Y1530D02*
X2130Y1530D01*
X2158Y1530D02*
X2178Y1530D01*
X2210Y1530D02*
X2230Y1530D01*
X2258Y1530D02*
X2278Y1530D01*
X2310Y1530D02*
X2330Y1530D01*
X2358Y1530D02*
X2378Y1530D01*
X2410Y1530D02*
X2430Y1530D01*
X2458Y1530D02*
X2478Y1530D01*
X2510Y1530D02*
X2530Y1530D01*
X2558Y1530D02*
X2578Y1530D01*
X2610Y1530D02*
X2630Y1530D01*
X2658Y1530D02*
X2678Y1530D01*
X2710Y1530D02*
X2730Y1530D01*
X2758Y1530D02*
X2778Y1530D01*
X2810Y1530D02*
X2830Y1530D01*
X2858Y1530D02*
X2878Y1530D01*
X1510Y1529D02*
X1529Y1529D01*
X1559Y1529D02*
X1578Y1529D01*
X1610Y1529D02*
X1629Y1529D01*
X1659Y1529D02*
X1678Y1529D01*
X1710Y1529D02*
X1729Y1529D01*
X1759Y1529D02*
X1778Y1529D01*
X1810Y1529D02*
X1829Y1529D01*
X1859Y1529D02*
X1878Y1529D01*
X1910Y1529D02*
X1929Y1529D01*
X1959Y1529D02*
X1978Y1529D01*
X2010Y1529D02*
X2029Y1529D01*
X2059Y1529D02*
X2078Y1529D01*
X2110Y1529D02*
X2129Y1529D01*
X2159Y1529D02*
X2178Y1529D01*
X2210Y1529D02*
X2229Y1529D01*
X2259Y1529D02*
X2278Y1529D01*
X2310Y1529D02*
X2329Y1529D01*
X2359Y1529D02*
X2378Y1529D01*
X2410Y1529D02*
X2429Y1529D01*
X2459Y1529D02*
X2478Y1529D01*
X2510Y1529D02*
X2529Y1529D01*
X2559Y1529D02*
X2578Y1529D01*
X2610Y1529D02*
X2629Y1529D01*
X2659Y1529D02*
X2678Y1529D01*
X2710Y1529D02*
X2729Y1529D01*
X2759Y1529D02*
X2778Y1529D01*
X2810Y1529D02*
X2829Y1529D01*
X2859Y1529D02*
X2878Y1529D01*
X1510Y1528D02*
X1529Y1528D01*
X1559Y1528D02*
X1578Y1528D01*
X1610Y1528D02*
X1629Y1528D01*
X1659Y1528D02*
X1678Y1528D01*
X1710Y1528D02*
X1729Y1528D01*
X1759Y1528D02*
X1778Y1528D01*
X1810Y1528D02*
X1829Y1528D01*
X1859Y1528D02*
X1878Y1528D01*
X1910Y1528D02*
X1929Y1528D01*
X1959Y1528D02*
X1978Y1528D01*
X2010Y1528D02*
X2029Y1528D01*
X2059Y1528D02*
X2078Y1528D01*
X2110Y1528D02*
X2129Y1528D01*
X2159Y1528D02*
X2178Y1528D01*
X2210Y1528D02*
X2229Y1528D01*
X2259Y1528D02*
X2278Y1528D01*
X2310Y1528D02*
X2329Y1528D01*
X2359Y1528D02*
X2378Y1528D01*
X2410Y1528D02*
X2429Y1528D01*
X2459Y1528D02*
X2478Y1528D01*
X2510Y1528D02*
X2529Y1528D01*
X2559Y1528D02*
X2578Y1528D01*
X2610Y1528D02*
X2629Y1528D01*
X2659Y1528D02*
X2678Y1528D01*
X2710Y1528D02*
X2729Y1528D01*
X2759Y1528D02*
X2778Y1528D01*
X2810Y1528D02*
X2829Y1528D01*
X2859Y1528D02*
X2878Y1528D01*
X1510Y1527D02*
X1529Y1527D01*
X1559Y1527D02*
X1578Y1527D01*
X1610Y1527D02*
X1629Y1527D01*
X1659Y1527D02*
X1678Y1527D01*
X1710Y1527D02*
X1729Y1527D01*
X1759Y1527D02*
X1778Y1527D01*
X1810Y1527D02*
X1829Y1527D01*
X1859Y1527D02*
X1878Y1527D01*
X1910Y1527D02*
X1929Y1527D01*
X1959Y1527D02*
X1978Y1527D01*
X2010Y1527D02*
X2029Y1527D01*
X2059Y1527D02*
X2078Y1527D01*
X2110Y1527D02*
X2129Y1527D01*
X2159Y1527D02*
X2178Y1527D01*
X2210Y1527D02*
X2229Y1527D01*
X2259Y1527D02*
X2278Y1527D01*
X2310Y1527D02*
X2329Y1527D01*
X2359Y1527D02*
X2378Y1527D01*
X2410Y1527D02*
X2429Y1527D01*
X2459Y1527D02*
X2478Y1527D01*
X2510Y1527D02*
X2529Y1527D01*
X2559Y1527D02*
X2578Y1527D01*
X2610Y1527D02*
X2629Y1527D01*
X2659Y1527D02*
X2678Y1527D01*
X2710Y1527D02*
X2729Y1527D01*
X2759Y1527D02*
X2778Y1527D01*
X2810Y1527D02*
X2829Y1527D01*
X2859Y1527D02*
X2878Y1527D01*
X1510Y1526D02*
X1529Y1526D01*
X1559Y1526D02*
X1579Y1526D01*
X1610Y1526D02*
X1629Y1526D01*
X1659Y1526D02*
X1679Y1526D01*
X1710Y1526D02*
X1729Y1526D01*
X1759Y1526D02*
X1778Y1526D01*
X1810Y1526D02*
X1829Y1526D01*
X1859Y1526D02*
X1878Y1526D01*
X1910Y1526D02*
X1929Y1526D01*
X1959Y1526D02*
X1978Y1526D01*
X2010Y1526D02*
X2029Y1526D01*
X2059Y1526D02*
X2078Y1526D01*
X2110Y1526D02*
X2129Y1526D01*
X2159Y1526D02*
X2178Y1526D01*
X2210Y1526D02*
X2229Y1526D01*
X2259Y1526D02*
X2278Y1526D01*
X2310Y1526D02*
X2329Y1526D01*
X2359Y1526D02*
X2378Y1526D01*
X2410Y1526D02*
X2429Y1526D01*
X2459Y1526D02*
X2478Y1526D01*
X2510Y1526D02*
X2529Y1526D01*
X2559Y1526D02*
X2578Y1526D01*
X2610Y1526D02*
X2629Y1526D01*
X2659Y1526D02*
X2678Y1526D01*
X2710Y1526D02*
X2729Y1526D01*
X2759Y1526D02*
X2778Y1526D01*
X2810Y1526D02*
X2829Y1526D01*
X2859Y1526D02*
X2878Y1526D01*
X1510Y1525D02*
X1529Y1525D01*
X1560Y1525D02*
X1579Y1525D01*
X1610Y1525D02*
X1629Y1525D01*
X1660Y1525D02*
X1679Y1525D01*
X1710Y1525D02*
X1729Y1525D01*
X1760Y1525D02*
X1779Y1525D01*
X1810Y1525D02*
X1829Y1525D01*
X1860Y1525D02*
X1879Y1525D01*
X1910Y1525D02*
X1929Y1525D01*
X1959Y1525D02*
X1979Y1525D01*
X2010Y1525D02*
X2029Y1525D01*
X2059Y1525D02*
X2079Y1525D01*
X2110Y1525D02*
X2129Y1525D01*
X2159Y1525D02*
X2178Y1525D01*
X2210Y1525D02*
X2229Y1525D01*
X2259Y1525D02*
X2278Y1525D01*
X2310Y1525D02*
X2329Y1525D01*
X2359Y1525D02*
X2378Y1525D01*
X2410Y1525D02*
X2429Y1525D01*
X2459Y1525D02*
X2478Y1525D01*
X2510Y1525D02*
X2529Y1525D01*
X2559Y1525D02*
X2578Y1525D01*
X2610Y1525D02*
X2629Y1525D01*
X2659Y1525D02*
X2678Y1525D01*
X2710Y1525D02*
X2729Y1525D01*
X2759Y1525D02*
X2778Y1525D01*
X2810Y1525D02*
X2829Y1525D01*
X2859Y1525D02*
X2878Y1525D01*
X1510Y1524D02*
X1529Y1524D01*
X1560Y1524D02*
X1579Y1524D01*
X1610Y1524D02*
X1629Y1524D01*
X1660Y1524D02*
X1679Y1524D01*
X1710Y1524D02*
X1729Y1524D01*
X1760Y1524D02*
X1779Y1524D01*
X1810Y1524D02*
X1829Y1524D01*
X1860Y1524D02*
X1879Y1524D01*
X1910Y1524D02*
X1929Y1524D01*
X1960Y1524D02*
X1979Y1524D01*
X2010Y1524D02*
X2029Y1524D01*
X2060Y1524D02*
X2079Y1524D01*
X2110Y1524D02*
X2129Y1524D01*
X2160Y1524D02*
X2179Y1524D01*
X2210Y1524D02*
X2229Y1524D01*
X2260Y1524D02*
X2279Y1524D01*
X2310Y1524D02*
X2329Y1524D01*
X2360Y1524D02*
X2379Y1524D01*
X2410Y1524D02*
X2429Y1524D01*
X2460Y1524D02*
X2478Y1524D01*
X2510Y1524D02*
X2529Y1524D01*
X2559Y1524D02*
X2578Y1524D01*
X2610Y1524D02*
X2629Y1524D01*
X2659Y1524D02*
X2678Y1524D01*
X2710Y1524D02*
X2729Y1524D01*
X2759Y1524D02*
X2778Y1524D01*
X2809Y1524D02*
X2828Y1524D01*
X2859Y1524D02*
X2878Y1524D01*
X1510Y1523D02*
X1529Y1523D01*
X1560Y1523D02*
X1579Y1523D01*
X1610Y1523D02*
X1629Y1523D01*
X1660Y1523D02*
X1679Y1523D01*
X1710Y1523D02*
X1729Y1523D01*
X1760Y1523D02*
X1779Y1523D01*
X1810Y1523D02*
X1829Y1523D01*
X1860Y1523D02*
X1879Y1523D01*
X1910Y1523D02*
X1929Y1523D01*
X1960Y1523D02*
X1979Y1523D01*
X2010Y1523D02*
X2029Y1523D01*
X2060Y1523D02*
X2079Y1523D01*
X2110Y1523D02*
X2129Y1523D01*
X2160Y1523D02*
X2179Y1523D01*
X2210Y1523D02*
X2229Y1523D01*
X2259Y1523D02*
X2279Y1523D01*
X2310Y1523D02*
X2329Y1523D01*
X2359Y1523D02*
X2378Y1523D01*
X2410Y1523D02*
X2429Y1523D01*
X2459Y1523D02*
X2478Y1523D01*
X2510Y1523D02*
X2529Y1523D01*
X2559Y1523D02*
X2578Y1523D01*
X2610Y1523D02*
X2629Y1523D01*
X2659Y1523D02*
X2678Y1523D01*
X2710Y1523D02*
X2729Y1523D01*
X2759Y1523D02*
X2778Y1523D01*
X2810Y1523D02*
X2829Y1523D01*
X2859Y1523D02*
X2878Y1523D01*
X1510Y1522D02*
X1529Y1522D01*
X1560Y1522D02*
X1579Y1522D01*
X1610Y1522D02*
X1629Y1522D01*
X1660Y1522D02*
X1679Y1522D01*
X1710Y1522D02*
X1729Y1522D01*
X1759Y1522D02*
X1779Y1522D01*
X1810Y1522D02*
X1829Y1522D01*
X1859Y1522D02*
X1879Y1522D01*
X1910Y1522D02*
X1929Y1522D01*
X1959Y1522D02*
X1978Y1522D01*
X2010Y1522D02*
X2029Y1522D01*
X2059Y1522D02*
X2078Y1522D01*
X2110Y1522D02*
X2129Y1522D01*
X2159Y1522D02*
X2178Y1522D01*
X2210Y1522D02*
X2229Y1522D01*
X2259Y1522D02*
X2278Y1522D01*
X2310Y1522D02*
X2329Y1522D01*
X2359Y1522D02*
X2378Y1522D01*
X2410Y1522D02*
X2429Y1522D01*
X2459Y1522D02*
X2478Y1522D01*
X2510Y1522D02*
X2529Y1522D01*
X2559Y1522D02*
X2578Y1522D01*
X2610Y1522D02*
X2629Y1522D01*
X2659Y1522D02*
X2678Y1522D01*
X2710Y1522D02*
X2729Y1522D01*
X2759Y1522D02*
X2778Y1522D01*
X2810Y1522D02*
X2829Y1522D01*
X2859Y1522D02*
X2878Y1522D01*
X1510Y1521D02*
X1529Y1521D01*
X1559Y1521D02*
X1578Y1521D01*
X1610Y1521D02*
X1629Y1521D01*
X1659Y1521D02*
X1678Y1521D01*
X1710Y1521D02*
X1729Y1521D01*
X1759Y1521D02*
X1778Y1521D01*
X1810Y1521D02*
X1829Y1521D01*
X1859Y1521D02*
X1878Y1521D01*
X1910Y1521D02*
X1929Y1521D01*
X1959Y1521D02*
X1978Y1521D01*
X2010Y1521D02*
X2029Y1521D01*
X2059Y1521D02*
X2078Y1521D01*
X2110Y1521D02*
X2129Y1521D01*
X2159Y1521D02*
X2178Y1521D01*
X2210Y1521D02*
X2229Y1521D01*
X2259Y1521D02*
X2278Y1521D01*
X2310Y1521D02*
X2329Y1521D01*
X2359Y1521D02*
X2378Y1521D01*
X2410Y1521D02*
X2429Y1521D01*
X2459Y1521D02*
X2478Y1521D01*
X2510Y1521D02*
X2529Y1521D01*
X2559Y1521D02*
X2578Y1521D01*
X2610Y1521D02*
X2629Y1521D01*
X2659Y1521D02*
X2678Y1521D01*
X2710Y1521D02*
X2729Y1521D01*
X2759Y1521D02*
X2778Y1521D01*
X2810Y1521D02*
X2829Y1521D01*
X2859Y1521D02*
X2878Y1521D01*
X1510Y1520D02*
X1529Y1520D01*
X1559Y1520D02*
X1578Y1520D01*
X1610Y1520D02*
X1629Y1520D01*
X1659Y1520D02*
X1678Y1520D01*
X1710Y1520D02*
X1729Y1520D01*
X1759Y1520D02*
X1778Y1520D01*
X1810Y1520D02*
X1829Y1520D01*
X1859Y1520D02*
X1878Y1520D01*
X1910Y1520D02*
X1929Y1520D01*
X1959Y1520D02*
X1978Y1520D01*
X2010Y1520D02*
X2029Y1520D01*
X2059Y1520D02*
X2078Y1520D01*
X2110Y1520D02*
X2129Y1520D01*
X2159Y1520D02*
X2178Y1520D01*
X2210Y1520D02*
X2229Y1520D01*
X2259Y1520D02*
X2278Y1520D01*
X2310Y1520D02*
X2329Y1520D01*
X2359Y1520D02*
X2378Y1520D01*
X2410Y1520D02*
X2429Y1520D01*
X2459Y1520D02*
X2478Y1520D01*
X2510Y1520D02*
X2529Y1520D01*
X2559Y1520D02*
X2578Y1520D01*
X2610Y1520D02*
X2629Y1520D01*
X2659Y1520D02*
X2678Y1520D01*
X2710Y1520D02*
X2729Y1520D01*
X2759Y1520D02*
X2778Y1520D01*
X2810Y1520D02*
X2829Y1520D01*
X2859Y1520D02*
X2878Y1520D01*
X1510Y1519D02*
X1529Y1519D01*
X1559Y1519D02*
X1578Y1519D01*
X1610Y1519D02*
X1629Y1519D01*
X1659Y1519D02*
X1678Y1519D01*
X1710Y1519D02*
X1729Y1519D01*
X1759Y1519D02*
X1778Y1519D01*
X1810Y1519D02*
X1829Y1519D01*
X1859Y1519D02*
X1878Y1519D01*
X1910Y1519D02*
X1929Y1519D01*
X1959Y1519D02*
X1978Y1519D01*
X2010Y1519D02*
X2029Y1519D01*
X2059Y1519D02*
X2078Y1519D01*
X2110Y1519D02*
X2129Y1519D01*
X2159Y1519D02*
X2178Y1519D01*
X2210Y1519D02*
X2229Y1519D01*
X2259Y1519D02*
X2278Y1519D01*
X2310Y1519D02*
X2329Y1519D01*
X2359Y1519D02*
X2378Y1519D01*
X2410Y1519D02*
X2429Y1519D01*
X2459Y1519D02*
X2478Y1519D01*
X2510Y1519D02*
X2529Y1519D01*
X2559Y1519D02*
X2578Y1519D01*
X2610Y1519D02*
X2629Y1519D01*
X2659Y1519D02*
X2678Y1519D01*
X2710Y1519D02*
X2729Y1519D01*
X2759Y1519D02*
X2778Y1519D01*
X2810Y1519D02*
X2829Y1519D01*
X2859Y1519D02*
X2878Y1519D01*
X1510Y1518D02*
X1530Y1518D01*
X1559Y1518D02*
X1578Y1518D01*
X1610Y1518D02*
X1630Y1518D01*
X1659Y1518D02*
X1678Y1518D01*
X1710Y1518D02*
X1730Y1518D01*
X1759Y1518D02*
X1778Y1518D01*
X1810Y1518D02*
X1830Y1518D01*
X1859Y1518D02*
X1878Y1518D01*
X1910Y1518D02*
X1930Y1518D01*
X1959Y1518D02*
X1978Y1518D01*
X2010Y1518D02*
X2030Y1518D01*
X2059Y1518D02*
X2078Y1518D01*
X2110Y1518D02*
X2130Y1518D01*
X2159Y1518D02*
X2178Y1518D01*
X2210Y1518D02*
X2230Y1518D01*
X2259Y1518D02*
X2278Y1518D01*
X2310Y1518D02*
X2329Y1518D01*
X2359Y1518D02*
X2378Y1518D01*
X2410Y1518D02*
X2429Y1518D01*
X2459Y1518D02*
X2478Y1518D01*
X2510Y1518D02*
X2529Y1518D01*
X2559Y1518D02*
X2578Y1518D01*
X2610Y1518D02*
X2629Y1518D01*
X2659Y1518D02*
X2678Y1518D01*
X2710Y1518D02*
X2729Y1518D01*
X2759Y1518D02*
X2778Y1518D01*
X2810Y1518D02*
X2829Y1518D01*
X2859Y1518D02*
X2878Y1518D01*
X1510Y1517D02*
X1530Y1517D01*
X1558Y1517D02*
X1578Y1517D01*
X1610Y1517D02*
X1630Y1517D01*
X1658Y1517D02*
X1678Y1517D01*
X1710Y1517D02*
X1730Y1517D01*
X1758Y1517D02*
X1778Y1517D01*
X1810Y1517D02*
X1830Y1517D01*
X1858Y1517D02*
X1878Y1517D01*
X1910Y1517D02*
X1930Y1517D01*
X1958Y1517D02*
X1978Y1517D01*
X2010Y1517D02*
X2030Y1517D01*
X2058Y1517D02*
X2078Y1517D01*
X2110Y1517D02*
X2130Y1517D01*
X2158Y1517D02*
X2178Y1517D01*
X2210Y1517D02*
X2230Y1517D01*
X2258Y1517D02*
X2278Y1517D01*
X2310Y1517D02*
X2330Y1517D01*
X2358Y1517D02*
X2378Y1517D01*
X2410Y1517D02*
X2430Y1517D01*
X2458Y1517D02*
X2478Y1517D01*
X2510Y1517D02*
X2530Y1517D01*
X2558Y1517D02*
X2578Y1517D01*
X2610Y1517D02*
X2630Y1517D01*
X2658Y1517D02*
X2678Y1517D01*
X2710Y1517D02*
X2730Y1517D01*
X2758Y1517D02*
X2778Y1517D01*
X2810Y1517D02*
X2830Y1517D01*
X2858Y1517D02*
X2878Y1517D01*
X1511Y1516D02*
X1531Y1516D01*
X1558Y1516D02*
X1578Y1516D01*
X1611Y1516D02*
X1631Y1516D01*
X1658Y1516D02*
X1678Y1516D01*
X1711Y1516D02*
X1731Y1516D01*
X1758Y1516D02*
X1778Y1516D01*
X1811Y1516D02*
X1831Y1516D01*
X1858Y1516D02*
X1878Y1516D01*
X1911Y1516D02*
X1931Y1516D01*
X1958Y1516D02*
X1978Y1516D01*
X2011Y1516D02*
X2031Y1516D01*
X2058Y1516D02*
X2078Y1516D01*
X2111Y1516D02*
X2131Y1516D01*
X2158Y1516D02*
X2178Y1516D01*
X2211Y1516D02*
X2231Y1516D01*
X2258Y1516D02*
X2278Y1516D01*
X2311Y1516D02*
X2331Y1516D01*
X2358Y1516D02*
X2378Y1516D01*
X2411Y1516D02*
X2431Y1516D01*
X2457Y1516D02*
X2478Y1516D01*
X2511Y1516D02*
X2531Y1516D01*
X2557Y1516D02*
X2577Y1516D01*
X2611Y1516D02*
X2631Y1516D01*
X2657Y1516D02*
X2677Y1516D01*
X2710Y1516D02*
X2731Y1516D01*
X2757Y1516D02*
X2777Y1516D01*
X2810Y1516D02*
X2830Y1516D01*
X2857Y1516D02*
X2877Y1516D01*
X1511Y1515D02*
X1531Y1515D01*
X1557Y1515D02*
X1577Y1515D01*
X1611Y1515D02*
X1631Y1515D01*
X1657Y1515D02*
X1677Y1515D01*
X1711Y1515D02*
X1731Y1515D01*
X1757Y1515D02*
X1777Y1515D01*
X1811Y1515D02*
X1831Y1515D01*
X1857Y1515D02*
X1877Y1515D01*
X1911Y1515D02*
X1931Y1515D01*
X1957Y1515D02*
X1977Y1515D01*
X2011Y1515D02*
X2031Y1515D01*
X2057Y1515D02*
X2077Y1515D01*
X2111Y1515D02*
X2131Y1515D01*
X2157Y1515D02*
X2177Y1515D01*
X2211Y1515D02*
X2231Y1515D01*
X2257Y1515D02*
X2277Y1515D01*
X2311Y1515D02*
X2331Y1515D01*
X2357Y1515D02*
X2377Y1515D01*
X2411Y1515D02*
X2431Y1515D01*
X2457Y1515D02*
X2477Y1515D01*
X2511Y1515D02*
X2531Y1515D01*
X2557Y1515D02*
X2577Y1515D01*
X2611Y1515D02*
X2631Y1515D01*
X2657Y1515D02*
X2677Y1515D01*
X2711Y1515D02*
X2731Y1515D01*
X2757Y1515D02*
X2777Y1515D01*
X2811Y1515D02*
X2831Y1515D01*
X2857Y1515D02*
X2877Y1515D01*
X1511Y1514D02*
X1532Y1514D01*
X1556Y1514D02*
X1577Y1514D01*
X1611Y1514D02*
X1632Y1514D01*
X1656Y1514D02*
X1677Y1514D01*
X1711Y1514D02*
X1732Y1514D01*
X1756Y1514D02*
X1777Y1514D01*
X1811Y1514D02*
X1832Y1514D01*
X1856Y1514D02*
X1877Y1514D01*
X1911Y1514D02*
X1932Y1514D01*
X1956Y1514D02*
X1977Y1514D01*
X2011Y1514D02*
X2032Y1514D01*
X2056Y1514D02*
X2077Y1514D01*
X2111Y1514D02*
X2132Y1514D01*
X2156Y1514D02*
X2177Y1514D01*
X2211Y1514D02*
X2232Y1514D01*
X2256Y1514D02*
X2277Y1514D01*
X2311Y1514D02*
X2332Y1514D01*
X2356Y1514D02*
X2377Y1514D01*
X2411Y1514D02*
X2432Y1514D01*
X2456Y1514D02*
X2477Y1514D01*
X2511Y1514D02*
X2532Y1514D01*
X2556Y1514D02*
X2577Y1514D01*
X2611Y1514D02*
X2632Y1514D01*
X2656Y1514D02*
X2677Y1514D01*
X2711Y1514D02*
X2732Y1514D01*
X2756Y1514D02*
X2777Y1514D01*
X2811Y1514D02*
X2832Y1514D01*
X2856Y1514D02*
X2877Y1514D01*
X1512Y1513D02*
X1533Y1513D01*
X1555Y1513D02*
X1577Y1513D01*
X1612Y1513D02*
X1633Y1513D01*
X1655Y1513D02*
X1677Y1513D01*
X1711Y1513D02*
X1733Y1513D01*
X1755Y1513D02*
X1777Y1513D01*
X1811Y1513D02*
X1833Y1513D01*
X1855Y1513D02*
X1877Y1513D01*
X1911Y1513D02*
X1933Y1513D01*
X1955Y1513D02*
X1977Y1513D01*
X2011Y1513D02*
X2033Y1513D01*
X2055Y1513D02*
X2077Y1513D01*
X2111Y1513D02*
X2133Y1513D01*
X2155Y1513D02*
X2177Y1513D01*
X2211Y1513D02*
X2233Y1513D01*
X2255Y1513D02*
X2277Y1513D01*
X2311Y1513D02*
X2333Y1513D01*
X2355Y1513D02*
X2377Y1513D01*
X2411Y1513D02*
X2433Y1513D01*
X2455Y1513D02*
X2477Y1513D01*
X2511Y1513D02*
X2533Y1513D01*
X2555Y1513D02*
X2577Y1513D01*
X2611Y1513D02*
X2633Y1513D01*
X2655Y1513D02*
X2677Y1513D01*
X2711Y1513D02*
X2733Y1513D01*
X2755Y1513D02*
X2777Y1513D01*
X2811Y1513D02*
X2833Y1513D01*
X2855Y1513D02*
X2877Y1513D01*
X1512Y1512D02*
X1534Y1512D01*
X1554Y1512D02*
X1576Y1512D01*
X1612Y1512D02*
X1634Y1512D01*
X1654Y1512D02*
X1676Y1512D01*
X1712Y1512D02*
X1734Y1512D01*
X1754Y1512D02*
X1776Y1512D01*
X1812Y1512D02*
X1834Y1512D01*
X1854Y1512D02*
X1876Y1512D01*
X1912Y1512D02*
X1934Y1512D01*
X1954Y1512D02*
X1976Y1512D01*
X2012Y1512D02*
X2034Y1512D01*
X2054Y1512D02*
X2076Y1512D01*
X2112Y1512D02*
X2134Y1512D01*
X2154Y1512D02*
X2176Y1512D01*
X2212Y1512D02*
X2234Y1512D01*
X2254Y1512D02*
X2276Y1512D01*
X2312Y1512D02*
X2334Y1512D01*
X2354Y1512D02*
X2376Y1512D01*
X2412Y1512D02*
X2434Y1512D01*
X2454Y1512D02*
X2476Y1512D01*
X2512Y1512D02*
X2534Y1512D01*
X2554Y1512D02*
X2576Y1512D01*
X2612Y1512D02*
X2634Y1512D01*
X2654Y1512D02*
X2676Y1512D01*
X2712Y1512D02*
X2734Y1512D01*
X2754Y1512D02*
X2776Y1512D01*
X2812Y1512D02*
X2834Y1512D01*
X2854Y1512D02*
X2876Y1512D01*
X1512Y1511D02*
X1536Y1511D01*
X1553Y1511D02*
X1576Y1511D01*
X1612Y1511D02*
X1635Y1511D01*
X1653Y1511D02*
X1676Y1511D01*
X1712Y1511D02*
X1735Y1511D01*
X1753Y1511D02*
X1776Y1511D01*
X1812Y1511D02*
X1835Y1511D01*
X1853Y1511D02*
X1876Y1511D01*
X1912Y1511D02*
X1935Y1511D01*
X1953Y1511D02*
X1976Y1511D01*
X2012Y1511D02*
X2035Y1511D01*
X2053Y1511D02*
X2076Y1511D01*
X2112Y1511D02*
X2135Y1511D01*
X2153Y1511D02*
X2176Y1511D01*
X2212Y1511D02*
X2235Y1511D01*
X2253Y1511D02*
X2276Y1511D01*
X2312Y1511D02*
X2335Y1511D01*
X2353Y1511D02*
X2376Y1511D01*
X2412Y1511D02*
X2435Y1511D01*
X2453Y1511D02*
X2476Y1511D01*
X2512Y1511D02*
X2535Y1511D01*
X2553Y1511D02*
X2576Y1511D01*
X2612Y1511D02*
X2635Y1511D01*
X2653Y1511D02*
X2676Y1511D01*
X2712Y1511D02*
X2735Y1511D01*
X2753Y1511D02*
X2776Y1511D01*
X2812Y1511D02*
X2835Y1511D01*
X2853Y1511D02*
X2876Y1511D01*
X1513Y1510D02*
X1537Y1510D01*
X1551Y1510D02*
X1576Y1510D01*
X1613Y1510D02*
X1637Y1510D01*
X1651Y1510D02*
X1676Y1510D01*
X1713Y1510D02*
X1737Y1510D01*
X1751Y1510D02*
X1776Y1510D01*
X1813Y1510D02*
X1837Y1510D01*
X1851Y1510D02*
X1876Y1510D01*
X1913Y1510D02*
X1937Y1510D01*
X1951Y1510D02*
X1976Y1510D01*
X2013Y1510D02*
X2037Y1510D01*
X2051Y1510D02*
X2076Y1510D01*
X2113Y1510D02*
X2137Y1510D01*
X2151Y1510D02*
X2176Y1510D01*
X2213Y1510D02*
X2237Y1510D01*
X2251Y1510D02*
X2276Y1510D01*
X2313Y1510D02*
X2337Y1510D01*
X2351Y1510D02*
X2376Y1510D01*
X2413Y1510D02*
X2437Y1510D01*
X2451Y1510D02*
X2476Y1510D01*
X2513Y1510D02*
X2537Y1510D01*
X2551Y1510D02*
X2576Y1510D01*
X2612Y1510D02*
X2637Y1510D01*
X2651Y1510D02*
X2675Y1510D01*
X2712Y1510D02*
X2737Y1510D01*
X2751Y1510D02*
X2775Y1510D01*
X2812Y1510D02*
X2837Y1510D01*
X2851Y1510D02*
X2875Y1510D01*
X1513Y1509D02*
X1540Y1509D01*
X1548Y1509D02*
X1575Y1509D01*
X1613Y1509D02*
X1640Y1509D01*
X1648Y1509D02*
X1675Y1509D01*
X1713Y1509D02*
X1740Y1509D01*
X1748Y1509D02*
X1775Y1509D01*
X1813Y1509D02*
X1840Y1509D01*
X1848Y1509D02*
X1875Y1509D01*
X1913Y1509D02*
X1940Y1509D01*
X1948Y1509D02*
X1975Y1509D01*
X2013Y1509D02*
X2040Y1509D01*
X2048Y1509D02*
X2075Y1509D01*
X2113Y1509D02*
X2140Y1509D01*
X2148Y1509D02*
X2175Y1509D01*
X2213Y1509D02*
X2240Y1509D01*
X2248Y1509D02*
X2275Y1509D01*
X2313Y1509D02*
X2340Y1509D01*
X2348Y1509D02*
X2375Y1509D01*
X2413Y1509D02*
X2440Y1509D01*
X2448Y1509D02*
X2475Y1509D01*
X2513Y1509D02*
X2540Y1509D01*
X2548Y1509D02*
X2575Y1509D01*
X2613Y1509D02*
X2640Y1509D01*
X2648Y1509D02*
X2675Y1509D01*
X2713Y1509D02*
X2740Y1509D01*
X2748Y1509D02*
X2775Y1509D01*
X2813Y1509D02*
X2840Y1509D01*
X2848Y1509D02*
X2875Y1509D01*
X1514Y1508D02*
X1575Y1508D01*
X1614Y1508D02*
X1675Y1508D01*
X1714Y1508D02*
X1775Y1508D01*
X1814Y1508D02*
X1875Y1508D01*
X1914Y1508D02*
X1975Y1508D01*
X2014Y1508D02*
X2075Y1508D01*
X2114Y1508D02*
X2175Y1508D01*
X2214Y1508D02*
X2275Y1508D01*
X2313Y1508D02*
X2375Y1508D01*
X2413Y1508D02*
X2475Y1508D01*
X2513Y1508D02*
X2575Y1508D01*
X2613Y1508D02*
X2675Y1508D01*
X2713Y1508D02*
X2775Y1508D01*
X2813Y1508D02*
X2875Y1508D01*
X1514Y1507D02*
X1574Y1507D01*
X1614Y1507D02*
X1674Y1507D01*
X1714Y1507D02*
X1774Y1507D01*
X1814Y1507D02*
X1874Y1507D01*
X1914Y1507D02*
X1974Y1507D01*
X2014Y1507D02*
X2074Y1507D01*
X2114Y1507D02*
X2174Y1507D01*
X2214Y1507D02*
X2274Y1507D01*
X2314Y1507D02*
X2374Y1507D01*
X2414Y1507D02*
X2474Y1507D01*
X2514Y1507D02*
X2574Y1507D01*
X2614Y1507D02*
X2674Y1507D01*
X2714Y1507D02*
X2774Y1507D01*
X2814Y1507D02*
X2874Y1507D01*
X1515Y1506D02*
X1574Y1506D01*
X1615Y1506D02*
X1674Y1506D01*
X1715Y1506D02*
X1774Y1506D01*
X1815Y1506D02*
X1874Y1506D01*
X1915Y1506D02*
X1974Y1506D01*
X2015Y1506D02*
X2074Y1506D01*
X2115Y1506D02*
X2174Y1506D01*
X2215Y1506D02*
X2274Y1506D01*
X2315Y1506D02*
X2374Y1506D01*
X2415Y1506D02*
X2474Y1506D01*
X2515Y1506D02*
X2573Y1506D01*
X2615Y1506D02*
X2673Y1506D01*
X2714Y1506D02*
X2773Y1506D01*
X2814Y1506D02*
X2873Y1506D01*
X1515Y1505D02*
X1573Y1505D01*
X1615Y1505D02*
X1673Y1505D01*
X1715Y1505D02*
X1773Y1505D01*
X1815Y1505D02*
X1873Y1505D01*
X1915Y1505D02*
X1973Y1505D01*
X2015Y1505D02*
X2073Y1505D01*
X2115Y1505D02*
X2173Y1505D01*
X2215Y1505D02*
X2273Y1505D01*
X2315Y1505D02*
X2373Y1505D01*
X2415Y1505D02*
X2473Y1505D01*
X2515Y1505D02*
X2573Y1505D01*
X2615Y1505D02*
X2673Y1505D01*
X2715Y1505D02*
X2773Y1505D01*
X2815Y1505D02*
X2873Y1505D01*
X1516Y1504D02*
X1572Y1504D01*
X1616Y1504D02*
X1672Y1504D01*
X1716Y1504D02*
X1772Y1504D01*
X1816Y1504D02*
X1872Y1504D01*
X1916Y1504D02*
X1972Y1504D01*
X2016Y1504D02*
X2072Y1504D01*
X2116Y1504D02*
X2172Y1504D01*
X2216Y1504D02*
X2272Y1504D01*
X2316Y1504D02*
X2372Y1504D01*
X2416Y1504D02*
X2472Y1504D01*
X2516Y1504D02*
X2572Y1504D01*
X2616Y1504D02*
X2672Y1504D01*
X2716Y1504D02*
X2772Y1504D01*
X2816Y1504D02*
X2872Y1504D01*
X1517Y1503D02*
X1572Y1503D01*
X1617Y1503D02*
X1672Y1503D01*
X1717Y1503D02*
X1772Y1503D01*
X1817Y1503D02*
X1872Y1503D01*
X1917Y1503D02*
X1972Y1503D01*
X2017Y1503D02*
X2072Y1503D01*
X2116Y1503D02*
X2172Y1503D01*
X2216Y1503D02*
X2272Y1503D01*
X2316Y1503D02*
X2372Y1503D01*
X2416Y1503D02*
X2472Y1503D01*
X2516Y1503D02*
X2572Y1503D01*
X2616Y1503D02*
X2672Y1503D01*
X2716Y1503D02*
X2772Y1503D01*
X2816Y1503D02*
X2872Y1503D01*
X1517Y1502D02*
X1571Y1502D01*
X1617Y1502D02*
X1671Y1502D01*
X1717Y1502D02*
X1771Y1502D01*
X1817Y1502D02*
X1871Y1502D01*
X1917Y1502D02*
X1971Y1502D01*
X2017Y1502D02*
X2071Y1502D01*
X2117Y1502D02*
X2171Y1502D01*
X2217Y1502D02*
X2271Y1502D01*
X2317Y1502D02*
X2371Y1502D01*
X2417Y1502D02*
X2471Y1502D01*
X2517Y1502D02*
X2571Y1502D01*
X2617Y1502D02*
X2671Y1502D01*
X2717Y1502D02*
X2771Y1502D01*
X2817Y1502D02*
X2871Y1502D01*
X1518Y1501D02*
X1570Y1501D01*
X1618Y1501D02*
X1670Y1501D01*
X1718Y1501D02*
X1770Y1501D01*
X1818Y1501D02*
X1870Y1501D01*
X1918Y1501D02*
X1970Y1501D01*
X2018Y1501D02*
X2070Y1501D01*
X2118Y1501D02*
X2170Y1501D01*
X2218Y1501D02*
X2270Y1501D01*
X2318Y1501D02*
X2370Y1501D01*
X2418Y1501D02*
X2470Y1501D01*
X2518Y1501D02*
X2570Y1501D01*
X2618Y1501D02*
X2670Y1501D01*
X2718Y1501D02*
X2770Y1501D01*
X2818Y1501D02*
X2870Y1501D01*
X1519Y1500D02*
X1569Y1500D01*
X1619Y1500D02*
X1669Y1500D01*
X1719Y1500D02*
X1769Y1500D01*
X1819Y1500D02*
X1869Y1500D01*
X1919Y1500D02*
X1969Y1500D01*
X2019Y1500D02*
X2069Y1500D01*
X2119Y1500D02*
X2169Y1500D01*
X2219Y1500D02*
X2269Y1500D01*
X2319Y1500D02*
X2369Y1500D01*
X2419Y1500D02*
X2469Y1500D01*
X2519Y1500D02*
X2569Y1500D01*
X2619Y1500D02*
X2669Y1500D01*
X2719Y1500D02*
X2769Y1500D01*
X2819Y1500D02*
X2869Y1500D01*
X1520Y1499D02*
X1568Y1499D01*
X1620Y1499D02*
X1668Y1499D01*
X1720Y1499D02*
X1768Y1499D01*
X1820Y1499D02*
X1868Y1499D01*
X1920Y1499D02*
X1968Y1499D01*
X2020Y1499D02*
X2068Y1499D01*
X2120Y1499D02*
X2168Y1499D01*
X2220Y1499D02*
X2268Y1499D01*
X2320Y1499D02*
X2368Y1499D01*
X2420Y1499D02*
X2468Y1499D01*
X2520Y1499D02*
X2568Y1499D01*
X2620Y1499D02*
X2668Y1499D01*
X2720Y1499D02*
X2768Y1499D01*
X2820Y1499D02*
X2868Y1499D01*
X1521Y1498D02*
X1567Y1498D01*
X1621Y1498D02*
X1667Y1498D01*
X1721Y1498D02*
X1767Y1498D01*
X1821Y1498D02*
X1867Y1498D01*
X1921Y1498D02*
X1967Y1498D01*
X2021Y1498D02*
X2067Y1498D01*
X2121Y1498D02*
X2167Y1498D01*
X2221Y1498D02*
X2267Y1498D01*
X2321Y1498D02*
X2367Y1498D01*
X2421Y1498D02*
X2467Y1498D01*
X2521Y1498D02*
X2567Y1498D01*
X2621Y1498D02*
X2667Y1498D01*
X2721Y1498D02*
X2767Y1498D01*
X2821Y1498D02*
X2867Y1498D01*
X1522Y1497D02*
X1566Y1497D01*
X1622Y1497D02*
X1666Y1497D01*
X1722Y1497D02*
X1766Y1497D01*
X1822Y1497D02*
X1866Y1497D01*
X1922Y1497D02*
X1966Y1497D01*
X2022Y1497D02*
X2066Y1497D01*
X2122Y1497D02*
X2166Y1497D01*
X2222Y1497D02*
X2266Y1497D01*
X2322Y1497D02*
X2366Y1497D01*
X2422Y1497D02*
X2466Y1497D01*
X2522Y1497D02*
X2566Y1497D01*
X2622Y1497D02*
X2666Y1497D01*
X2722Y1497D02*
X2766Y1497D01*
X2822Y1497D02*
X2866Y1497D01*
X1523Y1496D02*
X1565Y1496D01*
X1623Y1496D02*
X1665Y1496D01*
X1723Y1496D02*
X1765Y1496D01*
X1823Y1496D02*
X1865Y1496D01*
X1923Y1496D02*
X1965Y1496D01*
X2023Y1496D02*
X2065Y1496D01*
X2123Y1496D02*
X2165Y1496D01*
X2223Y1496D02*
X2265Y1496D01*
X2323Y1496D02*
X2365Y1496D01*
X2423Y1496D02*
X2465Y1496D01*
X2523Y1496D02*
X2565Y1496D01*
X2623Y1496D02*
X2665Y1496D01*
X2723Y1496D02*
X2765Y1496D01*
X2823Y1496D02*
X2865Y1496D01*
X1525Y1495D02*
X1564Y1495D01*
X1625Y1495D02*
X1663Y1495D01*
X1725Y1495D02*
X1763Y1495D01*
X1825Y1495D02*
X1863Y1495D01*
X1925Y1495D02*
X1963Y1495D01*
X2025Y1495D02*
X2063Y1495D01*
X2125Y1495D02*
X2163Y1495D01*
X2225Y1495D02*
X2263Y1495D01*
X2325Y1495D02*
X2363Y1495D01*
X2425Y1495D02*
X2463Y1495D01*
X2525Y1495D02*
X2563Y1495D01*
X2625Y1495D02*
X2663Y1495D01*
X2725Y1495D02*
X2763Y1495D01*
X2825Y1495D02*
X2863Y1495D01*
X1526Y1494D02*
X1562Y1494D01*
X1626Y1494D02*
X1662Y1494D01*
X1726Y1494D02*
X1762Y1494D01*
X1826Y1494D02*
X1862Y1494D01*
X1926Y1494D02*
X1962Y1494D01*
X2026Y1494D02*
X2062Y1494D01*
X2126Y1494D02*
X2162Y1494D01*
X2226Y1494D02*
X2262Y1494D01*
X2326Y1494D02*
X2362Y1494D01*
X2426Y1494D02*
X2462Y1494D01*
X2526Y1494D02*
X2562Y1494D01*
X2626Y1494D02*
X2662Y1494D01*
X2726Y1494D02*
X2762Y1494D01*
X2826Y1494D02*
X2862Y1494D01*
X1528Y1493D02*
X1560Y1493D01*
X1628Y1493D02*
X1660Y1493D01*
X1728Y1493D02*
X1760Y1493D01*
X1828Y1493D02*
X1860Y1493D01*
X1928Y1493D02*
X1960Y1493D01*
X2028Y1493D02*
X2060Y1493D01*
X2128Y1493D02*
X2160Y1493D01*
X2228Y1493D02*
X2260Y1493D01*
X2328Y1493D02*
X2360Y1493D01*
X2428Y1493D02*
X2460Y1493D01*
X2528Y1493D02*
X2560Y1493D01*
X2628Y1493D02*
X2660Y1493D01*
X2728Y1493D02*
X2760Y1493D01*
X2828Y1493D02*
X2860Y1493D01*
X1530Y1492D02*
X1558Y1492D01*
X1630Y1492D02*
X1658Y1492D01*
X1730Y1492D02*
X1758Y1492D01*
X1830Y1492D02*
X1858Y1492D01*
X1930Y1492D02*
X1958Y1492D01*
X2030Y1492D02*
X2058Y1492D01*
X2130Y1492D02*
X2158Y1492D01*
X2230Y1492D02*
X2258Y1492D01*
X2330Y1492D02*
X2358Y1492D01*
X2430Y1492D02*
X2458Y1492D01*
X2530Y1492D02*
X2558Y1492D01*
X2630Y1492D02*
X2658Y1492D01*
X2730Y1492D02*
X2758Y1492D01*
X2830Y1492D02*
X2858Y1492D01*
X1533Y1491D02*
X1556Y1491D01*
X1633Y1491D02*
X1656Y1491D01*
X1733Y1491D02*
X1755Y1491D01*
X1833Y1491D02*
X1855Y1491D01*
X1933Y1491D02*
X1955Y1491D01*
X2033Y1491D02*
X2055Y1491D01*
X2133Y1491D02*
X2155Y1491D01*
X2233Y1491D02*
X2255Y1491D01*
X2333Y1491D02*
X2355Y1491D01*
X2433Y1491D02*
X2455Y1491D01*
X2533Y1491D02*
X2555Y1491D01*
X2633Y1491D02*
X2655Y1491D01*
X2733Y1491D02*
X2755Y1491D01*
X2833Y1491D02*
X2855Y1491D01*
X1536Y1490D02*
X1552Y1490D01*
X1636Y1490D02*
X1652Y1490D01*
X1736Y1490D02*
X1752Y1490D01*
X1836Y1490D02*
X1852Y1490D01*
X1936Y1490D02*
X1952Y1490D01*
X2036Y1490D02*
X2052Y1490D01*
X2136Y1490D02*
X2152Y1490D01*
X2236Y1490D02*
X2252Y1490D01*
X2336Y1490D02*
X2352Y1490D01*
X2436Y1490D02*
X2452Y1490D01*
X2536Y1490D02*
X2552Y1490D01*
X2636Y1490D02*
X2652Y1490D01*
X2736Y1490D02*
X2752Y1490D01*
X2836Y1490D02*
X2852Y1490D01*
X1541Y1489D02*
X1548Y1489D01*
X1641Y1489D02*
X1648Y1489D01*
X1741Y1489D02*
X1748Y1489D01*
X1841Y1489D02*
X1848Y1489D01*
X1941Y1489D02*
X1948Y1489D01*
X2041Y1489D02*
X2048Y1489D01*
X2140Y1489D02*
X2148Y1489D01*
X2240Y1489D02*
X2248Y1489D01*
X2340Y1489D02*
X2348Y1489D01*
X2440Y1489D02*
X2448Y1489D01*
X2540Y1489D02*
X2548Y1489D01*
X2640Y1489D02*
X2648Y1489D01*
X2740Y1489D02*
X2748Y1489D01*
X2840Y1489D02*
X2848Y1489D01*
X1538Y1258D02*
X1550Y1258D01*
X1638Y1258D02*
X1650Y1258D01*
X1738Y1258D02*
X1750Y1258D01*
X1838Y1258D02*
X1850Y1258D01*
X1938Y1258D02*
X1950Y1258D01*
X2038Y1258D02*
X2050Y1258D01*
X2138Y1258D02*
X2150Y1258D01*
X2238Y1258D02*
X2250Y1258D01*
X2338Y1258D02*
X2350Y1258D01*
X2438Y1258D02*
X2450Y1258D01*
X2538Y1258D02*
X2550Y1258D01*
X2638Y1258D02*
X2650Y1258D01*
X2738Y1258D02*
X2750Y1258D01*
X2838Y1258D02*
X2850Y1258D01*
X1534Y1257D02*
X1554Y1257D01*
X1634Y1257D02*
X1654Y1257D01*
X1734Y1257D02*
X1754Y1257D01*
X1834Y1257D02*
X1854Y1257D01*
X1934Y1257D02*
X1954Y1257D01*
X2034Y1257D02*
X2054Y1257D01*
X2134Y1257D02*
X2154Y1257D01*
X2234Y1257D02*
X2254Y1257D01*
X2334Y1257D02*
X2354Y1257D01*
X2434Y1257D02*
X2454Y1257D01*
X2534Y1257D02*
X2554Y1257D01*
X2634Y1257D02*
X2654Y1257D01*
X2734Y1257D02*
X2754Y1257D01*
X2834Y1257D02*
X2854Y1257D01*
X1532Y1256D02*
X1557Y1256D01*
X1632Y1256D02*
X1657Y1256D01*
X1732Y1256D02*
X1757Y1256D01*
X1832Y1256D02*
X1857Y1256D01*
X1932Y1256D02*
X1957Y1256D01*
X2032Y1256D02*
X2057Y1256D01*
X2132Y1256D02*
X2157Y1256D01*
X2232Y1256D02*
X2257Y1256D01*
X2332Y1256D02*
X2357Y1256D01*
X2431Y1256D02*
X2457Y1256D01*
X2531Y1256D02*
X2557Y1256D01*
X2631Y1256D02*
X2657Y1256D01*
X2731Y1256D02*
X2757Y1256D01*
X2831Y1256D02*
X2857Y1256D01*
X1529Y1255D02*
X1559Y1255D01*
X1629Y1255D02*
X1659Y1255D01*
X1729Y1255D02*
X1759Y1255D01*
X1829Y1255D02*
X1859Y1255D01*
X1929Y1255D02*
X1959Y1255D01*
X2029Y1255D02*
X2059Y1255D01*
X2129Y1255D02*
X2159Y1255D01*
X2229Y1255D02*
X2259Y1255D01*
X2329Y1255D02*
X2359Y1255D01*
X2429Y1255D02*
X2459Y1255D01*
X2529Y1255D02*
X2559Y1255D01*
X2629Y1255D02*
X2659Y1255D01*
X2729Y1255D02*
X2759Y1255D01*
X2829Y1255D02*
X2859Y1255D01*
X1527Y1254D02*
X1561Y1254D01*
X1627Y1254D02*
X1661Y1254D01*
X1727Y1254D02*
X1761Y1254D01*
X1827Y1254D02*
X1861Y1254D01*
X1927Y1254D02*
X1961Y1254D01*
X2027Y1254D02*
X2061Y1254D01*
X2127Y1254D02*
X2161Y1254D01*
X2227Y1254D02*
X2261Y1254D01*
X2327Y1254D02*
X2361Y1254D01*
X2427Y1254D02*
X2461Y1254D01*
X2527Y1254D02*
X2561Y1254D01*
X2627Y1254D02*
X2661Y1254D01*
X2727Y1254D02*
X2761Y1254D01*
X2827Y1254D02*
X2861Y1254D01*
X1526Y1253D02*
X1563Y1253D01*
X1626Y1253D02*
X1663Y1253D01*
X1726Y1253D02*
X1763Y1253D01*
X1826Y1253D02*
X1863Y1253D01*
X1926Y1253D02*
X1963Y1253D01*
X2026Y1253D02*
X2063Y1253D01*
X2126Y1253D02*
X2163Y1253D01*
X2226Y1253D02*
X2262Y1253D01*
X2326Y1253D02*
X2362Y1253D01*
X2426Y1253D02*
X2462Y1253D01*
X2526Y1253D02*
X2562Y1253D01*
X2626Y1253D02*
X2662Y1253D01*
X2726Y1253D02*
X2762Y1253D01*
X2826Y1253D02*
X2862Y1253D01*
X1524Y1252D02*
X1564Y1252D01*
X1624Y1252D02*
X1664Y1252D01*
X1724Y1252D02*
X1764Y1252D01*
X1824Y1252D02*
X1864Y1252D01*
X1924Y1252D02*
X1964Y1252D01*
X2024Y1252D02*
X2064Y1252D01*
X2124Y1252D02*
X2164Y1252D01*
X2224Y1252D02*
X2264Y1252D01*
X2324Y1252D02*
X2364Y1252D01*
X2424Y1252D02*
X2464Y1252D01*
X2524Y1252D02*
X2564Y1252D01*
X2624Y1252D02*
X2664Y1252D01*
X2724Y1252D02*
X2764Y1252D01*
X2824Y1252D02*
X2864Y1252D01*
X1523Y1251D02*
X1565Y1251D01*
X1623Y1251D02*
X1665Y1251D01*
X1723Y1251D02*
X1765Y1251D01*
X1823Y1251D02*
X1865Y1251D01*
X1923Y1251D02*
X1965Y1251D01*
X2023Y1251D02*
X2065Y1251D01*
X2123Y1251D02*
X2165Y1251D01*
X2223Y1251D02*
X2265Y1251D01*
X2323Y1251D02*
X2365Y1251D01*
X2423Y1251D02*
X2465Y1251D01*
X2523Y1251D02*
X2565Y1251D01*
X2623Y1251D02*
X2665Y1251D01*
X2723Y1251D02*
X2765Y1251D01*
X2823Y1251D02*
X2865Y1251D01*
X1522Y1250D02*
X1567Y1250D01*
X1622Y1250D02*
X1667Y1250D01*
X1722Y1250D02*
X1767Y1250D01*
X1822Y1250D02*
X1867Y1250D01*
X1922Y1250D02*
X1967Y1250D01*
X2022Y1250D02*
X2067Y1250D01*
X2122Y1250D02*
X2167Y1250D01*
X2222Y1250D02*
X2267Y1250D01*
X2321Y1250D02*
X2367Y1250D01*
X2421Y1250D02*
X2467Y1250D01*
X2521Y1250D02*
X2567Y1250D01*
X2621Y1250D02*
X2667Y1250D01*
X2721Y1250D02*
X2767Y1250D01*
X2821Y1250D02*
X2867Y1250D01*
X1520Y1249D02*
X1568Y1249D01*
X1620Y1249D02*
X1668Y1249D01*
X1720Y1249D02*
X1768Y1249D01*
X1820Y1249D02*
X1868Y1249D01*
X1920Y1249D02*
X1968Y1249D01*
X2020Y1249D02*
X2068Y1249D01*
X2120Y1249D02*
X2168Y1249D01*
X2220Y1249D02*
X2268Y1249D01*
X2320Y1249D02*
X2368Y1249D01*
X2420Y1249D02*
X2468Y1249D01*
X2520Y1249D02*
X2568Y1249D01*
X2620Y1249D02*
X2668Y1249D01*
X2720Y1249D02*
X2768Y1249D01*
X2820Y1249D02*
X2868Y1249D01*
X1519Y1248D02*
X1569Y1248D01*
X1619Y1248D02*
X1669Y1248D01*
X1719Y1248D02*
X1769Y1248D01*
X1819Y1248D02*
X1869Y1248D01*
X1919Y1248D02*
X1969Y1248D01*
X2019Y1248D02*
X2069Y1248D01*
X2119Y1248D02*
X2169Y1248D01*
X2219Y1248D02*
X2269Y1248D01*
X2319Y1248D02*
X2369Y1248D01*
X2419Y1248D02*
X2469Y1248D01*
X2519Y1248D02*
X2569Y1248D01*
X2619Y1248D02*
X2669Y1248D01*
X2719Y1248D02*
X2769Y1248D01*
X2819Y1248D02*
X2869Y1248D01*
X1519Y1247D02*
X1570Y1247D01*
X1619Y1247D02*
X1670Y1247D01*
X1719Y1247D02*
X1770Y1247D01*
X1819Y1247D02*
X1870Y1247D01*
X1919Y1247D02*
X1970Y1247D01*
X2019Y1247D02*
X2070Y1247D01*
X2119Y1247D02*
X2170Y1247D01*
X2218Y1247D02*
X2270Y1247D01*
X2318Y1247D02*
X2370Y1247D01*
X2418Y1247D02*
X2470Y1247D01*
X2518Y1247D02*
X2570Y1247D01*
X2618Y1247D02*
X2670Y1247D01*
X2718Y1247D02*
X2770Y1247D01*
X2818Y1247D02*
X2870Y1247D01*
X1518Y1246D02*
X1571Y1246D01*
X1618Y1246D02*
X1671Y1246D01*
X1718Y1246D02*
X1771Y1246D01*
X1818Y1246D02*
X1871Y1246D01*
X1918Y1246D02*
X1971Y1246D01*
X2018Y1246D02*
X2071Y1246D01*
X2118Y1246D02*
X2171Y1246D01*
X2218Y1246D02*
X2270Y1246D01*
X2318Y1246D02*
X2370Y1246D01*
X2418Y1246D02*
X2470Y1246D01*
X2518Y1246D02*
X2570Y1246D01*
X2618Y1246D02*
X2670Y1246D01*
X2718Y1246D02*
X2770Y1246D01*
X2818Y1246D02*
X2870Y1246D01*
X1517Y1245D02*
X1571Y1245D01*
X1617Y1245D02*
X1671Y1245D01*
X1717Y1245D02*
X1771Y1245D01*
X1817Y1245D02*
X1871Y1245D01*
X1917Y1245D02*
X1971Y1245D01*
X2017Y1245D02*
X2071Y1245D01*
X2117Y1245D02*
X2171Y1245D01*
X2217Y1245D02*
X2271Y1245D01*
X2317Y1245D02*
X2371Y1245D01*
X2417Y1245D02*
X2471Y1245D01*
X2517Y1245D02*
X2571Y1245D01*
X2617Y1245D02*
X2671Y1245D01*
X2717Y1245D02*
X2771Y1245D01*
X2817Y1245D02*
X2871Y1245D01*
X1516Y1244D02*
X1572Y1244D01*
X1616Y1244D02*
X1672Y1244D01*
X1716Y1244D02*
X1772Y1244D01*
X1816Y1244D02*
X1872Y1244D01*
X1916Y1244D02*
X1972Y1244D01*
X2016Y1244D02*
X2072Y1244D01*
X2116Y1244D02*
X2172Y1244D01*
X2216Y1244D02*
X2272Y1244D01*
X2316Y1244D02*
X2372Y1244D01*
X2416Y1244D02*
X2472Y1244D01*
X2516Y1244D02*
X2572Y1244D01*
X2616Y1244D02*
X2672Y1244D01*
X2716Y1244D02*
X2772Y1244D01*
X2816Y1244D02*
X2872Y1244D01*
X1516Y1243D02*
X1573Y1243D01*
X1616Y1243D02*
X1673Y1243D01*
X1716Y1243D02*
X1773Y1243D01*
X1816Y1243D02*
X1873Y1243D01*
X1916Y1243D02*
X1973Y1243D01*
X2016Y1243D02*
X2073Y1243D01*
X2116Y1243D02*
X2173Y1243D01*
X2215Y1243D02*
X2273Y1243D01*
X2315Y1243D02*
X2373Y1243D01*
X2415Y1243D02*
X2473Y1243D01*
X2515Y1243D02*
X2573Y1243D01*
X2615Y1243D02*
X2673Y1243D01*
X2715Y1243D02*
X2773Y1243D01*
X2815Y1243D02*
X2873Y1243D01*
X1515Y1242D02*
X1573Y1242D01*
X1615Y1242D02*
X1673Y1242D01*
X1715Y1242D02*
X1773Y1242D01*
X1815Y1242D02*
X1873Y1242D01*
X1915Y1242D02*
X1973Y1242D01*
X2015Y1242D02*
X2073Y1242D01*
X2115Y1242D02*
X2173Y1242D01*
X2215Y1242D02*
X2273Y1242D01*
X2315Y1242D02*
X2373Y1242D01*
X2415Y1242D02*
X2473Y1242D01*
X2515Y1242D02*
X2573Y1242D01*
X2615Y1242D02*
X2673Y1242D01*
X2715Y1242D02*
X2773Y1242D01*
X2815Y1242D02*
X2873Y1242D01*
X1514Y1241D02*
X1574Y1241D01*
X1614Y1241D02*
X1674Y1241D01*
X1714Y1241D02*
X1774Y1241D01*
X1814Y1241D02*
X1874Y1241D01*
X1914Y1241D02*
X1974Y1241D01*
X2014Y1241D02*
X2074Y1241D01*
X2114Y1241D02*
X2174Y1241D01*
X2214Y1241D02*
X2274Y1241D01*
X2314Y1241D02*
X2374Y1241D01*
X2414Y1241D02*
X2474Y1241D01*
X2514Y1241D02*
X2574Y1241D01*
X2614Y1241D02*
X2674Y1241D01*
X2714Y1241D02*
X2774Y1241D01*
X2814Y1241D02*
X2874Y1241D01*
X1514Y1240D02*
X1574Y1240D01*
X1614Y1240D02*
X1674Y1240D01*
X1714Y1240D02*
X1774Y1240D01*
X1814Y1240D02*
X1874Y1240D01*
X1914Y1240D02*
X1974Y1240D01*
X2014Y1240D02*
X2074Y1240D01*
X2114Y1240D02*
X2174Y1240D01*
X2214Y1240D02*
X2274Y1240D01*
X2314Y1240D02*
X2374Y1240D01*
X2414Y1240D02*
X2474Y1240D01*
X2514Y1240D02*
X2574Y1240D01*
X2614Y1240D02*
X2674Y1240D01*
X2714Y1240D02*
X2774Y1240D01*
X2814Y1240D02*
X2874Y1240D01*
X1513Y1239D02*
X1575Y1239D01*
X1613Y1239D02*
X1675Y1239D01*
X1713Y1239D02*
X1775Y1239D01*
X1813Y1239D02*
X1875Y1239D01*
X1913Y1239D02*
X1975Y1239D01*
X2013Y1239D02*
X2075Y1239D01*
X2113Y1239D02*
X2175Y1239D01*
X2213Y1239D02*
X2275Y1239D01*
X2313Y1239D02*
X2375Y1239D01*
X2413Y1239D02*
X2475Y1239D01*
X2513Y1239D02*
X2575Y1239D01*
X2613Y1239D02*
X2675Y1239D01*
X2713Y1239D02*
X2775Y1239D01*
X2813Y1239D02*
X2875Y1239D01*
X1513Y1238D02*
X1539Y1238D01*
X1550Y1238D02*
X1575Y1238D01*
X1613Y1238D02*
X1639Y1238D01*
X1650Y1238D02*
X1675Y1238D01*
X1713Y1238D02*
X1739Y1238D01*
X1750Y1238D02*
X1775Y1238D01*
X1813Y1238D02*
X1839Y1238D01*
X1850Y1238D02*
X1875Y1238D01*
X1913Y1238D02*
X1939Y1238D01*
X1950Y1238D02*
X1975Y1238D01*
X2013Y1238D02*
X2039Y1238D01*
X2050Y1238D02*
X2075Y1238D01*
X2113Y1238D02*
X2139Y1238D01*
X2150Y1238D02*
X2175Y1238D01*
X2213Y1238D02*
X2239Y1238D01*
X2250Y1238D02*
X2275Y1238D01*
X2313Y1238D02*
X2339Y1238D01*
X2350Y1238D02*
X2375Y1238D01*
X2413Y1238D02*
X2439Y1238D01*
X2450Y1238D02*
X2475Y1238D01*
X2513Y1238D02*
X2539Y1238D01*
X2549Y1238D02*
X2575Y1238D01*
X2613Y1238D02*
X2639Y1238D01*
X2649Y1238D02*
X2675Y1238D01*
X2713Y1238D02*
X2738Y1238D01*
X2749Y1238D02*
X2775Y1238D01*
X2813Y1238D02*
X2838Y1238D01*
X2849Y1238D02*
X2875Y1238D01*
X1512Y1237D02*
X1536Y1237D01*
X1552Y1237D02*
X1576Y1237D01*
X1612Y1237D02*
X1636Y1237D01*
X1652Y1237D02*
X1676Y1237D01*
X1712Y1237D02*
X1736Y1237D01*
X1752Y1237D02*
X1776Y1237D01*
X1812Y1237D02*
X1836Y1237D01*
X1852Y1237D02*
X1876Y1237D01*
X1912Y1237D02*
X1936Y1237D01*
X1952Y1237D02*
X1976Y1237D01*
X2012Y1237D02*
X2036Y1237D01*
X2052Y1237D02*
X2076Y1237D01*
X2112Y1237D02*
X2136Y1237D01*
X2152Y1237D02*
X2176Y1237D01*
X2212Y1237D02*
X2236Y1237D01*
X2252Y1237D02*
X2276Y1237D01*
X2312Y1237D02*
X2336Y1237D01*
X2352Y1237D02*
X2376Y1237D01*
X2412Y1237D02*
X2436Y1237D01*
X2452Y1237D02*
X2476Y1237D01*
X2512Y1237D02*
X2536Y1237D01*
X2552Y1237D02*
X2576Y1237D01*
X2612Y1237D02*
X2636Y1237D01*
X2652Y1237D02*
X2676Y1237D01*
X2712Y1237D02*
X2736Y1237D01*
X2752Y1237D02*
X2776Y1237D01*
X2812Y1237D02*
X2836Y1237D01*
X2852Y1237D02*
X2876Y1237D01*
X1512Y1236D02*
X1535Y1236D01*
X1553Y1236D02*
X1576Y1236D01*
X1612Y1236D02*
X1635Y1236D01*
X1653Y1236D02*
X1676Y1236D01*
X1712Y1236D02*
X1735Y1236D01*
X1753Y1236D02*
X1776Y1236D01*
X1812Y1236D02*
X1835Y1236D01*
X1853Y1236D02*
X1876Y1236D01*
X1912Y1236D02*
X1935Y1236D01*
X1953Y1236D02*
X1976Y1236D01*
X2012Y1236D02*
X2035Y1236D01*
X2053Y1236D02*
X2076Y1236D01*
X2112Y1236D02*
X2135Y1236D01*
X2153Y1236D02*
X2176Y1236D01*
X2212Y1236D02*
X2235Y1236D01*
X2253Y1236D02*
X2276Y1236D01*
X2312Y1236D02*
X2335Y1236D01*
X2353Y1236D02*
X2376Y1236D01*
X2412Y1236D02*
X2435Y1236D01*
X2453Y1236D02*
X2476Y1236D01*
X2512Y1236D02*
X2535Y1236D01*
X2553Y1236D02*
X2576Y1236D01*
X2612Y1236D02*
X2635Y1236D01*
X2653Y1236D02*
X2676Y1236D01*
X2712Y1236D02*
X2735Y1236D01*
X2753Y1236D02*
X2776Y1236D01*
X2812Y1236D02*
X2835Y1236D01*
X2853Y1236D02*
X2876Y1236D01*
X1512Y1235D02*
X1534Y1235D01*
X1555Y1235D02*
X1577Y1235D01*
X1612Y1235D02*
X1634Y1235D01*
X1654Y1235D02*
X1677Y1235D01*
X1712Y1235D02*
X1734Y1235D01*
X1754Y1235D02*
X1777Y1235D01*
X1812Y1235D02*
X1834Y1235D01*
X1854Y1235D02*
X1877Y1235D01*
X1912Y1235D02*
X1934Y1235D01*
X1954Y1235D02*
X1977Y1235D01*
X2012Y1235D02*
X2034Y1235D01*
X2054Y1235D02*
X2077Y1235D01*
X2112Y1235D02*
X2134Y1235D01*
X2154Y1235D02*
X2176Y1235D01*
X2212Y1235D02*
X2234Y1235D01*
X2254Y1235D02*
X2276Y1235D01*
X2312Y1235D02*
X2334Y1235D01*
X2354Y1235D02*
X2376Y1235D01*
X2412Y1235D02*
X2434Y1235D01*
X2454Y1235D02*
X2476Y1235D01*
X2512Y1235D02*
X2534Y1235D01*
X2554Y1235D02*
X2576Y1235D01*
X2612Y1235D02*
X2634Y1235D01*
X2654Y1235D02*
X2676Y1235D01*
X2712Y1235D02*
X2734Y1235D01*
X2754Y1235D02*
X2776Y1235D01*
X2812Y1235D02*
X2834Y1235D01*
X2854Y1235D02*
X2876Y1235D01*
X1511Y1234D02*
X1533Y1234D01*
X1556Y1234D02*
X1577Y1234D01*
X1611Y1234D02*
X1633Y1234D01*
X1656Y1234D02*
X1677Y1234D01*
X1711Y1234D02*
X1733Y1234D01*
X1756Y1234D02*
X1777Y1234D01*
X1811Y1234D02*
X1833Y1234D01*
X1856Y1234D02*
X1877Y1234D01*
X1911Y1234D02*
X1933Y1234D01*
X1955Y1234D02*
X1977Y1234D01*
X2011Y1234D02*
X2033Y1234D01*
X2055Y1234D02*
X2077Y1234D01*
X2111Y1234D02*
X2133Y1234D01*
X2155Y1234D02*
X2177Y1234D01*
X2211Y1234D02*
X2233Y1234D01*
X2255Y1234D02*
X2277Y1234D01*
X2311Y1234D02*
X2333Y1234D01*
X2355Y1234D02*
X2377Y1234D01*
X2411Y1234D02*
X2433Y1234D01*
X2455Y1234D02*
X2477Y1234D01*
X2511Y1234D02*
X2533Y1234D01*
X2555Y1234D02*
X2577Y1234D01*
X2611Y1234D02*
X2633Y1234D01*
X2655Y1234D02*
X2677Y1234D01*
X2711Y1234D02*
X2733Y1234D01*
X2755Y1234D02*
X2777Y1234D01*
X2811Y1234D02*
X2833Y1234D01*
X2855Y1234D02*
X2877Y1234D01*
X1511Y1233D02*
X1532Y1233D01*
X1556Y1233D02*
X1577Y1233D01*
X1611Y1233D02*
X1632Y1233D01*
X1656Y1233D02*
X1677Y1233D01*
X1711Y1233D02*
X1732Y1233D01*
X1756Y1233D02*
X1777Y1233D01*
X1811Y1233D02*
X1832Y1233D01*
X1856Y1233D02*
X1877Y1233D01*
X1911Y1233D02*
X1932Y1233D01*
X1956Y1233D02*
X1977Y1233D01*
X2011Y1233D02*
X2032Y1233D01*
X2056Y1233D02*
X2077Y1233D01*
X2111Y1233D02*
X2132Y1233D01*
X2156Y1233D02*
X2177Y1233D01*
X2211Y1233D02*
X2232Y1233D01*
X2256Y1233D02*
X2277Y1233D01*
X2311Y1233D02*
X2332Y1233D01*
X2356Y1233D02*
X2377Y1233D01*
X2411Y1233D02*
X2432Y1233D01*
X2456Y1233D02*
X2477Y1233D01*
X2511Y1233D02*
X2532Y1233D01*
X2556Y1233D02*
X2577Y1233D01*
X2611Y1233D02*
X2632Y1233D01*
X2656Y1233D02*
X2677Y1233D01*
X2711Y1233D02*
X2732Y1233D01*
X2756Y1233D02*
X2777Y1233D01*
X2811Y1233D02*
X2832Y1233D01*
X2856Y1233D02*
X2877Y1233D01*
X1511Y1232D02*
X1531Y1232D01*
X1557Y1232D02*
X1577Y1232D01*
X1611Y1232D02*
X1631Y1232D01*
X1657Y1232D02*
X1677Y1232D01*
X1711Y1232D02*
X1731Y1232D01*
X1757Y1232D02*
X1777Y1232D01*
X1811Y1232D02*
X1831Y1232D01*
X1857Y1232D02*
X1877Y1232D01*
X1911Y1232D02*
X1931Y1232D01*
X1957Y1232D02*
X1977Y1232D01*
X2011Y1232D02*
X2031Y1232D01*
X2057Y1232D02*
X2077Y1232D01*
X2111Y1232D02*
X2131Y1232D01*
X2157Y1232D02*
X2177Y1232D01*
X2211Y1232D02*
X2231Y1232D01*
X2257Y1232D02*
X2277Y1232D01*
X2311Y1232D02*
X2331Y1232D01*
X2357Y1232D02*
X2377Y1232D01*
X2411Y1232D02*
X2431Y1232D01*
X2457Y1232D02*
X2477Y1232D01*
X2511Y1232D02*
X2531Y1232D01*
X2557Y1232D02*
X2577Y1232D01*
X2611Y1232D02*
X2631Y1232D01*
X2657Y1232D02*
X2677Y1232D01*
X2711Y1232D02*
X2731Y1232D01*
X2757Y1232D02*
X2777Y1232D01*
X2811Y1232D02*
X2831Y1232D01*
X2857Y1232D02*
X2877Y1232D01*
X1511Y1231D02*
X1530Y1231D01*
X1558Y1231D02*
X1578Y1231D01*
X1611Y1231D02*
X1630Y1231D01*
X1658Y1231D02*
X1678Y1231D01*
X1711Y1231D02*
X1730Y1231D01*
X1758Y1231D02*
X1778Y1231D01*
X1811Y1231D02*
X1830Y1231D01*
X1858Y1231D02*
X1878Y1231D01*
X1910Y1231D02*
X1930Y1231D01*
X1958Y1231D02*
X1978Y1231D01*
X2010Y1231D02*
X2030Y1231D01*
X2058Y1231D02*
X2078Y1231D01*
X2110Y1231D02*
X2130Y1231D01*
X2158Y1231D02*
X2178Y1231D01*
X2210Y1231D02*
X2230Y1231D01*
X2258Y1231D02*
X2278Y1231D01*
X2310Y1231D02*
X2330Y1231D01*
X2358Y1231D02*
X2378Y1231D01*
X2410Y1231D02*
X2430Y1231D01*
X2458Y1231D02*
X2478Y1231D01*
X2510Y1231D02*
X2530Y1231D01*
X2558Y1231D02*
X2578Y1231D01*
X2610Y1231D02*
X2630Y1231D01*
X2658Y1231D02*
X2678Y1231D01*
X2710Y1231D02*
X2730Y1231D01*
X2758Y1231D02*
X2778Y1231D01*
X2810Y1231D02*
X2830Y1231D01*
X2858Y1231D02*
X2878Y1231D01*
X1510Y1230D02*
X1530Y1230D01*
X1558Y1230D02*
X1578Y1230D01*
X1610Y1230D02*
X1630Y1230D01*
X1658Y1230D02*
X1678Y1230D01*
X1710Y1230D02*
X1730Y1230D01*
X1758Y1230D02*
X1778Y1230D01*
X1810Y1230D02*
X1830Y1230D01*
X1858Y1230D02*
X1878Y1230D01*
X1910Y1230D02*
X1930Y1230D01*
X1958Y1230D02*
X1978Y1230D01*
X2010Y1230D02*
X2030Y1230D01*
X2058Y1230D02*
X2078Y1230D01*
X2110Y1230D02*
X2130Y1230D01*
X2158Y1230D02*
X2178Y1230D01*
X2210Y1230D02*
X2230Y1230D01*
X2258Y1230D02*
X2278Y1230D01*
X2310Y1230D02*
X2330Y1230D01*
X2358Y1230D02*
X2378Y1230D01*
X2410Y1230D02*
X2430Y1230D01*
X2458Y1230D02*
X2478Y1230D01*
X2510Y1230D02*
X2530Y1230D01*
X2558Y1230D02*
X2578Y1230D01*
X2610Y1230D02*
X2630Y1230D01*
X2658Y1230D02*
X2678Y1230D01*
X2710Y1230D02*
X2730Y1230D01*
X2758Y1230D02*
X2778Y1230D01*
X2810Y1230D02*
X2830Y1230D01*
X2858Y1230D02*
X2878Y1230D01*
X1510Y1229D02*
X1529Y1229D01*
X1559Y1229D02*
X1578Y1229D01*
X1610Y1229D02*
X1629Y1229D01*
X1659Y1229D02*
X1678Y1229D01*
X1710Y1229D02*
X1729Y1229D01*
X1759Y1229D02*
X1778Y1229D01*
X1810Y1229D02*
X1829Y1229D01*
X1859Y1229D02*
X1878Y1229D01*
X1910Y1229D02*
X1929Y1229D01*
X1959Y1229D02*
X1978Y1229D01*
X2010Y1229D02*
X2029Y1229D01*
X2059Y1229D02*
X2078Y1229D01*
X2110Y1229D02*
X2129Y1229D01*
X2159Y1229D02*
X2178Y1229D01*
X2210Y1229D02*
X2229Y1229D01*
X2259Y1229D02*
X2278Y1229D01*
X2310Y1229D02*
X2329Y1229D01*
X2359Y1229D02*
X2378Y1229D01*
X2410Y1229D02*
X2429Y1229D01*
X2459Y1229D02*
X2478Y1229D01*
X2510Y1229D02*
X2529Y1229D01*
X2559Y1229D02*
X2578Y1229D01*
X2610Y1229D02*
X2629Y1229D01*
X2659Y1229D02*
X2678Y1229D01*
X2710Y1229D02*
X2729Y1229D01*
X2759Y1229D02*
X2778Y1229D01*
X2810Y1229D02*
X2829Y1229D01*
X2859Y1229D02*
X2878Y1229D01*
X1510Y1228D02*
X1529Y1228D01*
X1559Y1228D02*
X1578Y1228D01*
X1610Y1228D02*
X1629Y1228D01*
X1659Y1228D02*
X1678Y1228D01*
X1710Y1228D02*
X1729Y1228D01*
X1759Y1228D02*
X1778Y1228D01*
X1810Y1228D02*
X1829Y1228D01*
X1859Y1228D02*
X1878Y1228D01*
X1910Y1228D02*
X1929Y1228D01*
X1959Y1228D02*
X1978Y1228D01*
X2010Y1228D02*
X2029Y1228D01*
X2059Y1228D02*
X2078Y1228D01*
X2110Y1228D02*
X2129Y1228D01*
X2159Y1228D02*
X2178Y1228D01*
X2210Y1228D02*
X2229Y1228D01*
X2259Y1228D02*
X2278Y1228D01*
X2310Y1228D02*
X2329Y1228D01*
X2359Y1228D02*
X2378Y1228D01*
X2410Y1228D02*
X2429Y1228D01*
X2459Y1228D02*
X2478Y1228D01*
X2510Y1228D02*
X2529Y1228D01*
X2559Y1228D02*
X2578Y1228D01*
X2610Y1228D02*
X2629Y1228D01*
X2659Y1228D02*
X2678Y1228D01*
X2710Y1228D02*
X2729Y1228D01*
X2759Y1228D02*
X2778Y1228D01*
X2810Y1228D02*
X2829Y1228D01*
X2859Y1228D02*
X2878Y1228D01*
X1510Y1227D02*
X1529Y1227D01*
X1559Y1227D02*
X1578Y1227D01*
X1610Y1227D02*
X1629Y1227D01*
X1659Y1227D02*
X1678Y1227D01*
X1710Y1227D02*
X1729Y1227D01*
X1759Y1227D02*
X1778Y1227D01*
X1810Y1227D02*
X1829Y1227D01*
X1859Y1227D02*
X1878Y1227D01*
X1910Y1227D02*
X1929Y1227D01*
X1959Y1227D02*
X1978Y1227D01*
X2010Y1227D02*
X2029Y1227D01*
X2059Y1227D02*
X2078Y1227D01*
X2110Y1227D02*
X2129Y1227D01*
X2159Y1227D02*
X2178Y1227D01*
X2210Y1227D02*
X2229Y1227D01*
X2259Y1227D02*
X2278Y1227D01*
X2310Y1227D02*
X2329Y1227D01*
X2359Y1227D02*
X2378Y1227D01*
X2410Y1227D02*
X2429Y1227D01*
X2459Y1227D02*
X2478Y1227D01*
X2510Y1227D02*
X2529Y1227D01*
X2559Y1227D02*
X2578Y1227D01*
X2610Y1227D02*
X2629Y1227D01*
X2659Y1227D02*
X2678Y1227D01*
X2710Y1227D02*
X2729Y1227D01*
X2759Y1227D02*
X2778Y1227D01*
X2810Y1227D02*
X2829Y1227D01*
X2859Y1227D02*
X2878Y1227D01*
X1510Y1226D02*
X1529Y1226D01*
X1559Y1226D02*
X1579Y1226D01*
X1610Y1226D02*
X1629Y1226D01*
X1659Y1226D02*
X1679Y1226D01*
X1710Y1226D02*
X1729Y1226D01*
X1759Y1226D02*
X1778Y1226D01*
X1810Y1226D02*
X1829Y1226D01*
X1859Y1226D02*
X1878Y1226D01*
X1910Y1226D02*
X1929Y1226D01*
X1959Y1226D02*
X1978Y1226D01*
X2010Y1226D02*
X2029Y1226D01*
X2059Y1226D02*
X2078Y1226D01*
X2110Y1226D02*
X2129Y1226D01*
X2159Y1226D02*
X2178Y1226D01*
X2210Y1226D02*
X2229Y1226D01*
X2259Y1226D02*
X2278Y1226D01*
X2310Y1226D02*
X2329Y1226D01*
X2359Y1226D02*
X2378Y1226D01*
X2410Y1226D02*
X2429Y1226D01*
X2459Y1226D02*
X2478Y1226D01*
X2510Y1226D02*
X2529Y1226D01*
X2559Y1226D02*
X2578Y1226D01*
X2610Y1226D02*
X2629Y1226D01*
X2659Y1226D02*
X2678Y1226D01*
X2710Y1226D02*
X2729Y1226D01*
X2759Y1226D02*
X2778Y1226D01*
X2810Y1226D02*
X2829Y1226D01*
X2859Y1226D02*
X2878Y1226D01*
X1510Y1225D02*
X1529Y1225D01*
X1560Y1225D02*
X1579Y1225D01*
X1610Y1225D02*
X1629Y1225D01*
X1660Y1225D02*
X1679Y1225D01*
X1710Y1225D02*
X1729Y1225D01*
X1760Y1225D02*
X1779Y1225D01*
X1810Y1225D02*
X1829Y1225D01*
X1860Y1225D02*
X1879Y1225D01*
X1910Y1225D02*
X1929Y1225D01*
X1959Y1225D02*
X1979Y1225D01*
X2010Y1225D02*
X2029Y1225D01*
X2059Y1225D02*
X2079Y1225D01*
X2110Y1225D02*
X2129Y1225D01*
X2159Y1225D02*
X2178Y1225D01*
X2210Y1225D02*
X2229Y1225D01*
X2259Y1225D02*
X2278Y1225D01*
X2310Y1225D02*
X2329Y1225D01*
X2359Y1225D02*
X2378Y1225D01*
X2410Y1225D02*
X2429Y1225D01*
X2459Y1225D02*
X2478Y1225D01*
X2510Y1225D02*
X2529Y1225D01*
X2559Y1225D02*
X2578Y1225D01*
X2610Y1225D02*
X2629Y1225D01*
X2659Y1225D02*
X2678Y1225D01*
X2710Y1225D02*
X2729Y1225D01*
X2759Y1225D02*
X2778Y1225D01*
X2810Y1225D02*
X2829Y1225D01*
X2859Y1225D02*
X2878Y1225D01*
X1510Y1224D02*
X1529Y1224D01*
X1560Y1224D02*
X1579Y1224D01*
X1610Y1224D02*
X1629Y1224D01*
X1660Y1224D02*
X1679Y1224D01*
X1710Y1224D02*
X1729Y1224D01*
X1760Y1224D02*
X1779Y1224D01*
X1810Y1224D02*
X1829Y1224D01*
X1860Y1224D02*
X1879Y1224D01*
X1910Y1224D02*
X1929Y1224D01*
X1960Y1224D02*
X1979Y1224D01*
X2010Y1224D02*
X2029Y1224D01*
X2060Y1224D02*
X2079Y1224D01*
X2110Y1224D02*
X2129Y1224D01*
X2160Y1224D02*
X2179Y1224D01*
X2210Y1224D02*
X2229Y1224D01*
X2260Y1224D02*
X2279Y1224D01*
X2310Y1224D02*
X2329Y1224D01*
X2360Y1224D02*
X2379Y1224D01*
X2410Y1224D02*
X2429Y1224D01*
X2460Y1224D02*
X2478Y1224D01*
X2510Y1224D02*
X2529Y1224D01*
X2559Y1224D02*
X2578Y1224D01*
X2610Y1224D02*
X2629Y1224D01*
X2659Y1224D02*
X2678Y1224D01*
X2709Y1224D02*
X2729Y1224D01*
X2759Y1224D02*
X2778Y1224D01*
X2809Y1224D02*
X2828Y1224D01*
X2859Y1224D02*
X2878Y1224D01*
X1510Y1223D02*
X1529Y1223D01*
X1560Y1223D02*
X1579Y1223D01*
X1610Y1223D02*
X1629Y1223D01*
X1660Y1223D02*
X1679Y1223D01*
X1710Y1223D02*
X1729Y1223D01*
X1760Y1223D02*
X1779Y1223D01*
X1810Y1223D02*
X1829Y1223D01*
X1860Y1223D02*
X1879Y1223D01*
X1910Y1223D02*
X1929Y1223D01*
X1960Y1223D02*
X1979Y1223D01*
X2010Y1223D02*
X2029Y1223D01*
X2060Y1223D02*
X2079Y1223D01*
X2110Y1223D02*
X2129Y1223D01*
X2160Y1223D02*
X2179Y1223D01*
X2210Y1223D02*
X2229Y1223D01*
X2259Y1223D02*
X2279Y1223D01*
X2310Y1223D02*
X2329Y1223D01*
X2359Y1223D02*
X2378Y1223D01*
X2410Y1223D02*
X2429Y1223D01*
X2459Y1223D02*
X2478Y1223D01*
X2510Y1223D02*
X2529Y1223D01*
X2559Y1223D02*
X2578Y1223D01*
X2610Y1223D02*
X2629Y1223D01*
X2659Y1223D02*
X2678Y1223D01*
X2710Y1223D02*
X2729Y1223D01*
X2759Y1223D02*
X2778Y1223D01*
X2810Y1223D02*
X2829Y1223D01*
X2859Y1223D02*
X2878Y1223D01*
X1510Y1222D02*
X1529Y1222D01*
X1560Y1222D02*
X1579Y1222D01*
X1610Y1222D02*
X1629Y1222D01*
X1660Y1222D02*
X1679Y1222D01*
X1710Y1222D02*
X1729Y1222D01*
X1759Y1222D02*
X1779Y1222D01*
X1810Y1222D02*
X1829Y1222D01*
X1859Y1222D02*
X1879Y1222D01*
X1910Y1222D02*
X1929Y1222D01*
X1959Y1222D02*
X1978Y1222D01*
X2010Y1222D02*
X2029Y1222D01*
X2059Y1222D02*
X2078Y1222D01*
X2110Y1222D02*
X2129Y1222D01*
X2159Y1222D02*
X2178Y1222D01*
X2210Y1222D02*
X2229Y1222D01*
X2259Y1222D02*
X2278Y1222D01*
X2310Y1222D02*
X2329Y1222D01*
X2359Y1222D02*
X2378Y1222D01*
X2410Y1222D02*
X2429Y1222D01*
X2459Y1222D02*
X2478Y1222D01*
X2510Y1222D02*
X2529Y1222D01*
X2559Y1222D02*
X2578Y1222D01*
X2610Y1222D02*
X2629Y1222D01*
X2659Y1222D02*
X2678Y1222D01*
X2710Y1222D02*
X2729Y1222D01*
X2759Y1222D02*
X2778Y1222D01*
X2810Y1222D02*
X2829Y1222D01*
X2859Y1222D02*
X2878Y1222D01*
X1510Y1221D02*
X1529Y1221D01*
X1559Y1221D02*
X1578Y1221D01*
X1610Y1221D02*
X1629Y1221D01*
X1659Y1221D02*
X1678Y1221D01*
X1710Y1221D02*
X1729Y1221D01*
X1759Y1221D02*
X1778Y1221D01*
X1810Y1221D02*
X1829Y1221D01*
X1859Y1221D02*
X1878Y1221D01*
X1910Y1221D02*
X1929Y1221D01*
X1959Y1221D02*
X1978Y1221D01*
X2010Y1221D02*
X2029Y1221D01*
X2059Y1221D02*
X2078Y1221D01*
X2110Y1221D02*
X2129Y1221D01*
X2159Y1221D02*
X2178Y1221D01*
X2210Y1221D02*
X2229Y1221D01*
X2259Y1221D02*
X2278Y1221D01*
X2310Y1221D02*
X2329Y1221D01*
X2359Y1221D02*
X2378Y1221D01*
X2410Y1221D02*
X2429Y1221D01*
X2459Y1221D02*
X2478Y1221D01*
X2510Y1221D02*
X2529Y1221D01*
X2559Y1221D02*
X2578Y1221D01*
X2610Y1221D02*
X2629Y1221D01*
X2659Y1221D02*
X2678Y1221D01*
X2710Y1221D02*
X2729Y1221D01*
X2759Y1221D02*
X2778Y1221D01*
X2810Y1221D02*
X2829Y1221D01*
X2859Y1221D02*
X2878Y1221D01*
X1510Y1220D02*
X1529Y1220D01*
X1559Y1220D02*
X1578Y1220D01*
X1610Y1220D02*
X1629Y1220D01*
X1659Y1220D02*
X1678Y1220D01*
X1710Y1220D02*
X1729Y1220D01*
X1759Y1220D02*
X1778Y1220D01*
X1810Y1220D02*
X1829Y1220D01*
X1859Y1220D02*
X1878Y1220D01*
X1910Y1220D02*
X1929Y1220D01*
X1959Y1220D02*
X1978Y1220D01*
X2010Y1220D02*
X2029Y1220D01*
X2059Y1220D02*
X2078Y1220D01*
X2110Y1220D02*
X2129Y1220D01*
X2159Y1220D02*
X2178Y1220D01*
X2210Y1220D02*
X2229Y1220D01*
X2259Y1220D02*
X2278Y1220D01*
X2310Y1220D02*
X2329Y1220D01*
X2359Y1220D02*
X2378Y1220D01*
X2410Y1220D02*
X2429Y1220D01*
X2459Y1220D02*
X2478Y1220D01*
X2510Y1220D02*
X2529Y1220D01*
X2559Y1220D02*
X2578Y1220D01*
X2610Y1220D02*
X2629Y1220D01*
X2659Y1220D02*
X2678Y1220D01*
X2710Y1220D02*
X2729Y1220D01*
X2759Y1220D02*
X2778Y1220D01*
X2810Y1220D02*
X2829Y1220D01*
X2859Y1220D02*
X2878Y1220D01*
X1510Y1219D02*
X1529Y1219D01*
X1559Y1219D02*
X1578Y1219D01*
X1610Y1219D02*
X1629Y1219D01*
X1659Y1219D02*
X1678Y1219D01*
X1710Y1219D02*
X1729Y1219D01*
X1759Y1219D02*
X1778Y1219D01*
X1810Y1219D02*
X1829Y1219D01*
X1859Y1219D02*
X1878Y1219D01*
X1910Y1219D02*
X1929Y1219D01*
X1959Y1219D02*
X1978Y1219D01*
X2010Y1219D02*
X2029Y1219D01*
X2059Y1219D02*
X2078Y1219D01*
X2110Y1219D02*
X2129Y1219D01*
X2159Y1219D02*
X2178Y1219D01*
X2210Y1219D02*
X2229Y1219D01*
X2259Y1219D02*
X2278Y1219D01*
X2310Y1219D02*
X2329Y1219D01*
X2359Y1219D02*
X2378Y1219D01*
X2410Y1219D02*
X2429Y1219D01*
X2459Y1219D02*
X2478Y1219D01*
X2510Y1219D02*
X2529Y1219D01*
X2559Y1219D02*
X2578Y1219D01*
X2610Y1219D02*
X2629Y1219D01*
X2659Y1219D02*
X2678Y1219D01*
X2710Y1219D02*
X2729Y1219D01*
X2759Y1219D02*
X2778Y1219D01*
X2810Y1219D02*
X2829Y1219D01*
X2859Y1219D02*
X2878Y1219D01*
X1510Y1218D02*
X1530Y1218D01*
X1559Y1218D02*
X1578Y1218D01*
X1610Y1218D02*
X1630Y1218D01*
X1659Y1218D02*
X1678Y1218D01*
X1710Y1218D02*
X1730Y1218D01*
X1759Y1218D02*
X1778Y1218D01*
X1810Y1218D02*
X1830Y1218D01*
X1859Y1218D02*
X1878Y1218D01*
X1910Y1218D02*
X1930Y1218D01*
X1959Y1218D02*
X1978Y1218D01*
X2010Y1218D02*
X2030Y1218D01*
X2059Y1218D02*
X2078Y1218D01*
X2110Y1218D02*
X2130Y1218D01*
X2159Y1218D02*
X2178Y1218D01*
X2210Y1218D02*
X2230Y1218D01*
X2259Y1218D02*
X2278Y1218D01*
X2310Y1218D02*
X2330Y1218D01*
X2359Y1218D02*
X2378Y1218D01*
X2410Y1218D02*
X2429Y1218D01*
X2459Y1218D02*
X2478Y1218D01*
X2510Y1218D02*
X2529Y1218D01*
X2559Y1218D02*
X2578Y1218D01*
X2610Y1218D02*
X2629Y1218D01*
X2659Y1218D02*
X2678Y1218D01*
X2710Y1218D02*
X2729Y1218D01*
X2759Y1218D02*
X2778Y1218D01*
X2810Y1218D02*
X2829Y1218D01*
X2858Y1218D02*
X2878Y1218D01*
X1510Y1217D02*
X1530Y1217D01*
X1558Y1217D02*
X1578Y1217D01*
X1610Y1217D02*
X1630Y1217D01*
X1658Y1217D02*
X1678Y1217D01*
X1710Y1217D02*
X1730Y1217D01*
X1758Y1217D02*
X1778Y1217D01*
X1810Y1217D02*
X1830Y1217D01*
X1858Y1217D02*
X1878Y1217D01*
X1910Y1217D02*
X1930Y1217D01*
X1958Y1217D02*
X1978Y1217D01*
X2010Y1217D02*
X2030Y1217D01*
X2058Y1217D02*
X2078Y1217D01*
X2110Y1217D02*
X2130Y1217D01*
X2158Y1217D02*
X2178Y1217D01*
X2210Y1217D02*
X2230Y1217D01*
X2258Y1217D02*
X2278Y1217D01*
X2310Y1217D02*
X2330Y1217D01*
X2358Y1217D02*
X2378Y1217D01*
X2410Y1217D02*
X2430Y1217D01*
X2458Y1217D02*
X2478Y1217D01*
X2510Y1217D02*
X2530Y1217D01*
X2558Y1217D02*
X2578Y1217D01*
X2610Y1217D02*
X2630Y1217D01*
X2658Y1217D02*
X2678Y1217D01*
X2710Y1217D02*
X2730Y1217D01*
X2758Y1217D02*
X2778Y1217D01*
X2810Y1217D02*
X2830Y1217D01*
X2858Y1217D02*
X2878Y1217D01*
X1511Y1216D02*
X1531Y1216D01*
X1558Y1216D02*
X1578Y1216D01*
X1611Y1216D02*
X1631Y1216D01*
X1658Y1216D02*
X1678Y1216D01*
X1711Y1216D02*
X1731Y1216D01*
X1758Y1216D02*
X1778Y1216D01*
X1811Y1216D02*
X1831Y1216D01*
X1858Y1216D02*
X1878Y1216D01*
X1911Y1216D02*
X1931Y1216D01*
X1958Y1216D02*
X1978Y1216D01*
X2011Y1216D02*
X2031Y1216D01*
X2058Y1216D02*
X2078Y1216D01*
X2111Y1216D02*
X2131Y1216D01*
X2158Y1216D02*
X2178Y1216D01*
X2211Y1216D02*
X2231Y1216D01*
X2258Y1216D02*
X2278Y1216D01*
X2311Y1216D02*
X2331Y1216D01*
X2357Y1216D02*
X2378Y1216D01*
X2411Y1216D02*
X2431Y1216D01*
X2457Y1216D02*
X2477Y1216D01*
X2511Y1216D02*
X2531Y1216D01*
X2557Y1216D02*
X2577Y1216D01*
X2611Y1216D02*
X2631Y1216D01*
X2657Y1216D02*
X2677Y1216D01*
X2710Y1216D02*
X2731Y1216D01*
X2757Y1216D02*
X2777Y1216D01*
X2810Y1216D02*
X2831Y1216D01*
X2857Y1216D02*
X2877Y1216D01*
X1511Y1215D02*
X1531Y1215D01*
X1557Y1215D02*
X1577Y1215D01*
X1611Y1215D02*
X1631Y1215D01*
X1657Y1215D02*
X1677Y1215D01*
X1711Y1215D02*
X1731Y1215D01*
X1757Y1215D02*
X1777Y1215D01*
X1811Y1215D02*
X1831Y1215D01*
X1857Y1215D02*
X1877Y1215D01*
X1911Y1215D02*
X1931Y1215D01*
X1957Y1215D02*
X1977Y1215D01*
X2011Y1215D02*
X2031Y1215D01*
X2057Y1215D02*
X2077Y1215D01*
X2111Y1215D02*
X2131Y1215D01*
X2157Y1215D02*
X2177Y1215D01*
X2211Y1215D02*
X2231Y1215D01*
X2257Y1215D02*
X2277Y1215D01*
X2311Y1215D02*
X2331Y1215D01*
X2357Y1215D02*
X2377Y1215D01*
X2411Y1215D02*
X2431Y1215D01*
X2457Y1215D02*
X2477Y1215D01*
X2511Y1215D02*
X2531Y1215D01*
X2557Y1215D02*
X2577Y1215D01*
X2611Y1215D02*
X2631Y1215D01*
X2657Y1215D02*
X2677Y1215D01*
X2711Y1215D02*
X2731Y1215D01*
X2757Y1215D02*
X2777Y1215D01*
X2811Y1215D02*
X2831Y1215D01*
X2857Y1215D02*
X2877Y1215D01*
X1511Y1214D02*
X1532Y1214D01*
X1556Y1214D02*
X1577Y1214D01*
X1611Y1214D02*
X1632Y1214D01*
X1656Y1214D02*
X1677Y1214D01*
X1711Y1214D02*
X1732Y1214D01*
X1756Y1214D02*
X1777Y1214D01*
X1811Y1214D02*
X1832Y1214D01*
X1856Y1214D02*
X1877Y1214D01*
X1911Y1214D02*
X1932Y1214D01*
X1956Y1214D02*
X1977Y1214D01*
X2011Y1214D02*
X2032Y1214D01*
X2056Y1214D02*
X2077Y1214D01*
X2111Y1214D02*
X2132Y1214D01*
X2156Y1214D02*
X2177Y1214D01*
X2211Y1214D02*
X2232Y1214D01*
X2256Y1214D02*
X2277Y1214D01*
X2311Y1214D02*
X2332Y1214D01*
X2356Y1214D02*
X2377Y1214D01*
X2411Y1214D02*
X2432Y1214D01*
X2456Y1214D02*
X2477Y1214D01*
X2511Y1214D02*
X2532Y1214D01*
X2556Y1214D02*
X2577Y1214D01*
X2611Y1214D02*
X2632Y1214D01*
X2656Y1214D02*
X2677Y1214D01*
X2711Y1214D02*
X2732Y1214D01*
X2756Y1214D02*
X2777Y1214D01*
X2811Y1214D02*
X2832Y1214D01*
X2856Y1214D02*
X2877Y1214D01*
X1512Y1213D02*
X1533Y1213D01*
X1555Y1213D02*
X1577Y1213D01*
X1612Y1213D02*
X1633Y1213D01*
X1655Y1213D02*
X1677Y1213D01*
X1712Y1213D02*
X1733Y1213D01*
X1755Y1213D02*
X1777Y1213D01*
X1811Y1213D02*
X1833Y1213D01*
X1855Y1213D02*
X1877Y1213D01*
X1911Y1213D02*
X1933Y1213D01*
X1955Y1213D02*
X1977Y1213D01*
X2011Y1213D02*
X2033Y1213D01*
X2055Y1213D02*
X2077Y1213D01*
X2111Y1213D02*
X2133Y1213D01*
X2155Y1213D02*
X2177Y1213D01*
X2211Y1213D02*
X2233Y1213D01*
X2255Y1213D02*
X2277Y1213D01*
X2311Y1213D02*
X2333Y1213D01*
X2355Y1213D02*
X2377Y1213D01*
X2411Y1213D02*
X2433Y1213D01*
X2455Y1213D02*
X2477Y1213D01*
X2511Y1213D02*
X2533Y1213D01*
X2555Y1213D02*
X2577Y1213D01*
X2611Y1213D02*
X2633Y1213D01*
X2655Y1213D02*
X2677Y1213D01*
X2711Y1213D02*
X2733Y1213D01*
X2755Y1213D02*
X2777Y1213D01*
X2811Y1213D02*
X2833Y1213D01*
X2855Y1213D02*
X2877Y1213D01*
X1512Y1212D02*
X1534Y1212D01*
X1554Y1212D02*
X1576Y1212D01*
X1612Y1212D02*
X1634Y1212D01*
X1654Y1212D02*
X1676Y1212D01*
X1712Y1212D02*
X1734Y1212D01*
X1754Y1212D02*
X1776Y1212D01*
X1812Y1212D02*
X1834Y1212D01*
X1854Y1212D02*
X1876Y1212D01*
X1912Y1212D02*
X1934Y1212D01*
X1954Y1212D02*
X1976Y1212D01*
X2012Y1212D02*
X2034Y1212D01*
X2054Y1212D02*
X2076Y1212D01*
X2112Y1212D02*
X2134Y1212D01*
X2154Y1212D02*
X2176Y1212D01*
X2212Y1212D02*
X2234Y1212D01*
X2254Y1212D02*
X2276Y1212D01*
X2312Y1212D02*
X2334Y1212D01*
X2354Y1212D02*
X2376Y1212D01*
X2412Y1212D02*
X2434Y1212D01*
X2454Y1212D02*
X2476Y1212D01*
X2512Y1212D02*
X2534Y1212D01*
X2554Y1212D02*
X2576Y1212D01*
X2612Y1212D02*
X2634Y1212D01*
X2654Y1212D02*
X2676Y1212D01*
X2712Y1212D02*
X2734Y1212D01*
X2754Y1212D02*
X2776Y1212D01*
X2812Y1212D02*
X2834Y1212D01*
X2854Y1212D02*
X2876Y1212D01*
X1512Y1211D02*
X1536Y1211D01*
X1553Y1211D02*
X1576Y1211D01*
X1612Y1211D02*
X1636Y1211D01*
X1653Y1211D02*
X1676Y1211D01*
X1712Y1211D02*
X1736Y1211D01*
X1753Y1211D02*
X1776Y1211D01*
X1812Y1211D02*
X1836Y1211D01*
X1853Y1211D02*
X1876Y1211D01*
X1912Y1211D02*
X1936Y1211D01*
X1953Y1211D02*
X1976Y1211D01*
X2012Y1211D02*
X2036Y1211D01*
X2053Y1211D02*
X2076Y1211D01*
X2112Y1211D02*
X2135Y1211D01*
X2153Y1211D02*
X2176Y1211D01*
X2212Y1211D02*
X2235Y1211D01*
X2253Y1211D02*
X2276Y1211D01*
X2312Y1211D02*
X2335Y1211D01*
X2353Y1211D02*
X2376Y1211D01*
X2412Y1211D02*
X2435Y1211D01*
X2453Y1211D02*
X2476Y1211D01*
X2512Y1211D02*
X2535Y1211D01*
X2553Y1211D02*
X2576Y1211D01*
X2612Y1211D02*
X2635Y1211D01*
X2653Y1211D02*
X2676Y1211D01*
X2712Y1211D02*
X2735Y1211D01*
X2753Y1211D02*
X2776Y1211D01*
X2812Y1211D02*
X2835Y1211D01*
X2853Y1211D02*
X2876Y1211D01*
X1513Y1210D02*
X1537Y1210D01*
X1551Y1210D02*
X1576Y1210D01*
X1613Y1210D02*
X1637Y1210D01*
X1651Y1210D02*
X1676Y1210D01*
X1713Y1210D02*
X1737Y1210D01*
X1751Y1210D02*
X1776Y1210D01*
X1813Y1210D02*
X1837Y1210D01*
X1851Y1210D02*
X1876Y1210D01*
X1913Y1210D02*
X1937Y1210D01*
X1951Y1210D02*
X1976Y1210D01*
X2013Y1210D02*
X2037Y1210D01*
X2051Y1210D02*
X2076Y1210D01*
X2113Y1210D02*
X2137Y1210D01*
X2151Y1210D02*
X2176Y1210D01*
X2213Y1210D02*
X2237Y1210D01*
X2251Y1210D02*
X2276Y1210D01*
X2313Y1210D02*
X2337Y1210D01*
X2351Y1210D02*
X2376Y1210D01*
X2413Y1210D02*
X2437Y1210D01*
X2451Y1210D02*
X2476Y1210D01*
X2513Y1210D02*
X2537Y1210D01*
X2551Y1210D02*
X2575Y1210D01*
X2613Y1210D02*
X2637Y1210D01*
X2651Y1210D02*
X2675Y1210D01*
X2712Y1210D02*
X2737Y1210D01*
X2751Y1210D02*
X2775Y1210D01*
X2812Y1210D02*
X2837Y1210D01*
X2851Y1210D02*
X2875Y1210D01*
X1513Y1209D02*
X1540Y1209D01*
X1548Y1209D02*
X1575Y1209D01*
X1613Y1209D02*
X1640Y1209D01*
X1648Y1209D02*
X1675Y1209D01*
X1713Y1209D02*
X1740Y1209D01*
X1748Y1209D02*
X1775Y1209D01*
X1813Y1209D02*
X1840Y1209D01*
X1848Y1209D02*
X1875Y1209D01*
X1913Y1209D02*
X1940Y1209D01*
X1948Y1209D02*
X1975Y1209D01*
X2013Y1209D02*
X2040Y1209D01*
X2048Y1209D02*
X2075Y1209D01*
X2113Y1209D02*
X2140Y1209D01*
X2148Y1209D02*
X2175Y1209D01*
X2213Y1209D02*
X2240Y1209D01*
X2248Y1209D02*
X2275Y1209D01*
X2313Y1209D02*
X2340Y1209D01*
X2348Y1209D02*
X2375Y1209D01*
X2413Y1209D02*
X2440Y1209D01*
X2448Y1209D02*
X2475Y1209D01*
X2513Y1209D02*
X2540Y1209D01*
X2548Y1209D02*
X2575Y1209D01*
X2613Y1209D02*
X2640Y1209D01*
X2648Y1209D02*
X2675Y1209D01*
X2713Y1209D02*
X2740Y1209D01*
X2748Y1209D02*
X2775Y1209D01*
X2813Y1209D02*
X2840Y1209D01*
X2848Y1209D02*
X2875Y1209D01*
X1514Y1208D02*
X1575Y1208D01*
X1614Y1208D02*
X1675Y1208D01*
X1714Y1208D02*
X1775Y1208D01*
X1814Y1208D02*
X1875Y1208D01*
X1914Y1208D02*
X1975Y1208D01*
X2014Y1208D02*
X2075Y1208D01*
X2114Y1208D02*
X2175Y1208D01*
X2214Y1208D02*
X2275Y1208D01*
X2314Y1208D02*
X2375Y1208D01*
X2413Y1208D02*
X2475Y1208D01*
X2513Y1208D02*
X2575Y1208D01*
X2613Y1208D02*
X2675Y1208D01*
X2713Y1208D02*
X2775Y1208D01*
X2813Y1208D02*
X2874Y1208D01*
X1514Y1207D02*
X1574Y1207D01*
X1614Y1207D02*
X1674Y1207D01*
X1714Y1207D02*
X1774Y1207D01*
X1814Y1207D02*
X1874Y1207D01*
X1914Y1207D02*
X1974Y1207D01*
X2014Y1207D02*
X2074Y1207D01*
X2114Y1207D02*
X2174Y1207D01*
X2214Y1207D02*
X2274Y1207D01*
X2314Y1207D02*
X2374Y1207D01*
X2414Y1207D02*
X2474Y1207D01*
X2514Y1207D02*
X2574Y1207D01*
X2614Y1207D02*
X2674Y1207D01*
X2714Y1207D02*
X2774Y1207D01*
X2814Y1207D02*
X2874Y1207D01*
X1515Y1206D02*
X1574Y1206D01*
X1615Y1206D02*
X1674Y1206D01*
X1715Y1206D02*
X1774Y1206D01*
X1815Y1206D02*
X1874Y1206D01*
X1915Y1206D02*
X1974Y1206D01*
X2015Y1206D02*
X2074Y1206D01*
X2115Y1206D02*
X2174Y1206D01*
X2215Y1206D02*
X2274Y1206D01*
X2315Y1206D02*
X2374Y1206D01*
X2415Y1206D02*
X2473Y1206D01*
X2515Y1206D02*
X2573Y1206D01*
X2615Y1206D02*
X2673Y1206D01*
X2715Y1206D02*
X2773Y1206D01*
X2815Y1206D02*
X2873Y1206D01*
X1515Y1205D02*
X1573Y1205D01*
X1615Y1205D02*
X1673Y1205D01*
X1715Y1205D02*
X1773Y1205D01*
X1815Y1205D02*
X1873Y1205D01*
X1915Y1205D02*
X1973Y1205D01*
X2015Y1205D02*
X2073Y1205D01*
X2115Y1205D02*
X2173Y1205D01*
X2215Y1205D02*
X2273Y1205D01*
X2315Y1205D02*
X2373Y1205D01*
X2415Y1205D02*
X2473Y1205D01*
X2515Y1205D02*
X2573Y1205D01*
X2615Y1205D02*
X2673Y1205D01*
X2715Y1205D02*
X2773Y1205D01*
X2815Y1205D02*
X2873Y1205D01*
X1516Y1204D02*
X1572Y1204D01*
X1616Y1204D02*
X1672Y1204D01*
X1716Y1204D02*
X1772Y1204D01*
X1816Y1204D02*
X1872Y1204D01*
X1916Y1204D02*
X1972Y1204D01*
X2016Y1204D02*
X2072Y1204D01*
X2116Y1204D02*
X2172Y1204D01*
X2216Y1204D02*
X2272Y1204D01*
X2316Y1204D02*
X2372Y1204D01*
X2416Y1204D02*
X2472Y1204D01*
X2516Y1204D02*
X2572Y1204D01*
X2616Y1204D02*
X2672Y1204D01*
X2716Y1204D02*
X2772Y1204D01*
X2816Y1204D02*
X2872Y1204D01*
X1517Y1203D02*
X1572Y1203D01*
X1617Y1203D02*
X1672Y1203D01*
X1717Y1203D02*
X1772Y1203D01*
X1817Y1203D02*
X1872Y1203D01*
X1917Y1203D02*
X1972Y1203D01*
X2017Y1203D02*
X2072Y1203D01*
X2117Y1203D02*
X2172Y1203D01*
X2217Y1203D02*
X2272Y1203D01*
X2316Y1203D02*
X2372Y1203D01*
X2416Y1203D02*
X2472Y1203D01*
X2516Y1203D02*
X2572Y1203D01*
X2616Y1203D02*
X2672Y1203D01*
X2716Y1203D02*
X2772Y1203D01*
X2816Y1203D02*
X2872Y1203D01*
X1517Y1202D02*
X1571Y1202D01*
X1617Y1202D02*
X1671Y1202D01*
X1717Y1202D02*
X1771Y1202D01*
X1817Y1202D02*
X1871Y1202D01*
X1917Y1202D02*
X1971Y1202D01*
X2017Y1202D02*
X2071Y1202D01*
X2117Y1202D02*
X2171Y1202D01*
X2217Y1202D02*
X2271Y1202D01*
X2317Y1202D02*
X2371Y1202D01*
X2417Y1202D02*
X2471Y1202D01*
X2517Y1202D02*
X2571Y1202D01*
X2617Y1202D02*
X2671Y1202D01*
X2717Y1202D02*
X2771Y1202D01*
X2817Y1202D02*
X2871Y1202D01*
X1518Y1201D02*
X1570Y1201D01*
X1618Y1201D02*
X1670Y1201D01*
X1718Y1201D02*
X1770Y1201D01*
X1818Y1201D02*
X1870Y1201D01*
X1918Y1201D02*
X1970Y1201D01*
X2018Y1201D02*
X2070Y1201D01*
X2118Y1201D02*
X2170Y1201D01*
X2218Y1201D02*
X2270Y1201D01*
X2318Y1201D02*
X2370Y1201D01*
X2418Y1201D02*
X2470Y1201D01*
X2518Y1201D02*
X2570Y1201D01*
X2618Y1201D02*
X2670Y1201D01*
X2718Y1201D02*
X2770Y1201D01*
X2818Y1201D02*
X2870Y1201D01*
X1519Y1200D02*
X1569Y1200D01*
X1619Y1200D02*
X1669Y1200D01*
X1719Y1200D02*
X1769Y1200D01*
X1819Y1200D02*
X1869Y1200D01*
X1919Y1200D02*
X1969Y1200D01*
X2019Y1200D02*
X2069Y1200D01*
X2119Y1200D02*
X2169Y1200D01*
X2219Y1200D02*
X2269Y1200D01*
X2319Y1200D02*
X2369Y1200D01*
X2419Y1200D02*
X2469Y1200D01*
X2519Y1200D02*
X2569Y1200D01*
X2619Y1200D02*
X2669Y1200D01*
X2719Y1200D02*
X2769Y1200D01*
X2819Y1200D02*
X2869Y1200D01*
X1520Y1199D02*
X1568Y1199D01*
X1620Y1199D02*
X1668Y1199D01*
X1720Y1199D02*
X1768Y1199D01*
X1820Y1199D02*
X1868Y1199D01*
X1920Y1199D02*
X1968Y1199D01*
X2020Y1199D02*
X2068Y1199D01*
X2120Y1199D02*
X2168Y1199D01*
X2220Y1199D02*
X2268Y1199D01*
X2320Y1199D02*
X2368Y1199D01*
X2420Y1199D02*
X2468Y1199D01*
X2520Y1199D02*
X2568Y1199D01*
X2620Y1199D02*
X2668Y1199D01*
X2720Y1199D02*
X2768Y1199D01*
X2820Y1199D02*
X2868Y1199D01*
X1521Y1198D02*
X1567Y1198D01*
X1621Y1198D02*
X1667Y1198D01*
X1721Y1198D02*
X1767Y1198D01*
X1821Y1198D02*
X1867Y1198D01*
X1921Y1198D02*
X1967Y1198D01*
X2021Y1198D02*
X2067Y1198D01*
X2121Y1198D02*
X2167Y1198D01*
X2221Y1198D02*
X2267Y1198D01*
X2321Y1198D02*
X2367Y1198D01*
X2421Y1198D02*
X2467Y1198D01*
X2521Y1198D02*
X2567Y1198D01*
X2621Y1198D02*
X2667Y1198D01*
X2721Y1198D02*
X2767Y1198D01*
X2821Y1198D02*
X2867Y1198D01*
X1522Y1197D02*
X1566Y1197D01*
X1622Y1197D02*
X1666Y1197D01*
X1722Y1197D02*
X1766Y1197D01*
X1822Y1197D02*
X1866Y1197D01*
X1922Y1197D02*
X1966Y1197D01*
X2022Y1197D02*
X2066Y1197D01*
X2122Y1197D02*
X2166Y1197D01*
X2222Y1197D02*
X2266Y1197D01*
X2322Y1197D02*
X2366Y1197D01*
X2422Y1197D02*
X2466Y1197D01*
X2522Y1197D02*
X2566Y1197D01*
X2622Y1197D02*
X2666Y1197D01*
X2722Y1197D02*
X2766Y1197D01*
X2822Y1197D02*
X2866Y1197D01*
X1523Y1196D02*
X1565Y1196D01*
X1623Y1196D02*
X1665Y1196D01*
X1723Y1196D02*
X1765Y1196D01*
X1823Y1196D02*
X1865Y1196D01*
X1923Y1196D02*
X1965Y1196D01*
X2023Y1196D02*
X2065Y1196D01*
X2123Y1196D02*
X2165Y1196D01*
X2223Y1196D02*
X2265Y1196D01*
X2323Y1196D02*
X2365Y1196D01*
X2423Y1196D02*
X2465Y1196D01*
X2523Y1196D02*
X2565Y1196D01*
X2623Y1196D02*
X2665Y1196D01*
X2723Y1196D02*
X2765Y1196D01*
X2823Y1196D02*
X2865Y1196D01*
X1525Y1195D02*
X1563Y1195D01*
X1625Y1195D02*
X1663Y1195D01*
X1725Y1195D02*
X1763Y1195D01*
X1825Y1195D02*
X1863Y1195D01*
X1925Y1195D02*
X1963Y1195D01*
X2025Y1195D02*
X2063Y1195D01*
X2125Y1195D02*
X2163Y1195D01*
X2225Y1195D02*
X2263Y1195D01*
X2325Y1195D02*
X2363Y1195D01*
X2425Y1195D02*
X2463Y1195D01*
X2525Y1195D02*
X2563Y1195D01*
X2625Y1195D02*
X2663Y1195D01*
X2725Y1195D02*
X2763Y1195D01*
X2825Y1195D02*
X2863Y1195D01*
X1527Y1194D02*
X1562Y1194D01*
X1627Y1194D02*
X1662Y1194D01*
X1727Y1194D02*
X1762Y1194D01*
X1827Y1194D02*
X1862Y1194D01*
X1926Y1194D02*
X1962Y1194D01*
X2026Y1194D02*
X2062Y1194D01*
X2126Y1194D02*
X2162Y1194D01*
X2226Y1194D02*
X2262Y1194D01*
X2326Y1194D02*
X2362Y1194D01*
X2426Y1194D02*
X2462Y1194D01*
X2526Y1194D02*
X2562Y1194D01*
X2626Y1194D02*
X2662Y1194D01*
X2726Y1194D02*
X2762Y1194D01*
X2826Y1194D02*
X2862Y1194D01*
X1528Y1193D02*
X1560Y1193D01*
X1628Y1193D02*
X1660Y1193D01*
X1728Y1193D02*
X1760Y1193D01*
X1828Y1193D02*
X1860Y1193D01*
X1928Y1193D02*
X1960Y1193D01*
X2028Y1193D02*
X2060Y1193D01*
X2128Y1193D02*
X2160Y1193D01*
X2228Y1193D02*
X2260Y1193D01*
X2328Y1193D02*
X2360Y1193D01*
X2428Y1193D02*
X2460Y1193D01*
X2528Y1193D02*
X2560Y1193D01*
X2628Y1193D02*
X2660Y1193D01*
X2728Y1193D02*
X2760Y1193D01*
X2828Y1193D02*
X2860Y1193D01*
X1530Y1192D02*
X1558Y1192D01*
X1630Y1192D02*
X1658Y1192D01*
X1730Y1192D02*
X1758Y1192D01*
X1830Y1192D02*
X1858Y1192D01*
X1930Y1192D02*
X1958Y1192D01*
X2030Y1192D02*
X2058Y1192D01*
X2130Y1192D02*
X2158Y1192D01*
X2230Y1192D02*
X2258Y1192D01*
X2330Y1192D02*
X2358Y1192D01*
X2430Y1192D02*
X2458Y1192D01*
X2530Y1192D02*
X2558Y1192D01*
X2630Y1192D02*
X2658Y1192D01*
X2730Y1192D02*
X2758Y1192D01*
X2830Y1192D02*
X2858Y1192D01*
X1533Y1191D02*
X1555Y1191D01*
X1633Y1191D02*
X1655Y1191D01*
X1733Y1191D02*
X1755Y1191D01*
X1833Y1191D02*
X1855Y1191D01*
X1933Y1191D02*
X1955Y1191D01*
X2033Y1191D02*
X2055Y1191D01*
X2133Y1191D02*
X2155Y1191D01*
X2233Y1191D02*
X2255Y1191D01*
X2333Y1191D02*
X2355Y1191D01*
X2433Y1191D02*
X2455Y1191D01*
X2533Y1191D02*
X2555Y1191D01*
X2633Y1191D02*
X2655Y1191D01*
X2733Y1191D02*
X2755Y1191D01*
X2833Y1191D02*
X2855Y1191D01*
X1536Y1190D02*
X1552Y1190D01*
X1636Y1190D02*
X1652Y1190D01*
X1736Y1190D02*
X1752Y1190D01*
X1836Y1190D02*
X1852Y1190D01*
X1936Y1190D02*
X1952Y1190D01*
X2036Y1190D02*
X2052Y1190D01*
X2136Y1190D02*
X2152Y1190D01*
X2236Y1190D02*
X2252Y1190D01*
X2336Y1190D02*
X2352Y1190D01*
X2436Y1190D02*
X2452Y1190D01*
X2536Y1190D02*
X2552Y1190D01*
X2636Y1190D02*
X2652Y1190D01*
X2736Y1190D02*
X2752Y1190D01*
X2836Y1190D02*
X2852Y1190D01*
X1541Y1189D02*
X1547Y1189D01*
X1641Y1189D02*
X1647Y1189D01*
X1741Y1189D02*
X1747Y1189D01*
X1841Y1189D02*
X1847Y1189D01*
X1941Y1189D02*
X1947Y1189D01*
X2041Y1189D02*
X2047Y1189D01*
X2141Y1189D02*
X2147Y1189D01*
X2241Y1189D02*
X2247Y1189D01*
X2341Y1189D02*
X2347Y1189D01*
X2441Y1189D02*
X2447Y1189D01*
X2541Y1189D02*
X2547Y1189D01*
X2641Y1189D02*
X2647Y1189D01*
X2741Y1189D02*
X2747Y1189D01*
X2841Y1189D02*
X2847Y1189D01*
X3138Y1158D02*
X3150Y1158D01*
X3438Y1158D02*
X3450Y1158D01*
X3134Y1157D02*
X3154Y1157D01*
X3434Y1157D02*
X3454Y1157D01*
X3131Y1156D02*
X3157Y1156D01*
X3431Y1156D02*
X3456Y1156D01*
X3129Y1155D02*
X3159Y1155D01*
X3429Y1155D02*
X3459Y1155D01*
X3127Y1154D02*
X3161Y1154D01*
X3427Y1154D02*
X3461Y1154D01*
X3125Y1153D02*
X3162Y1153D01*
X3425Y1153D02*
X3462Y1153D01*
X3124Y1152D02*
X3164Y1152D01*
X3424Y1152D02*
X3464Y1152D01*
X3123Y1151D02*
X3165Y1151D01*
X3423Y1151D02*
X3465Y1151D01*
X3121Y1150D02*
X3166Y1150D01*
X3421Y1150D02*
X3466Y1150D01*
X3120Y1149D02*
X3168Y1149D01*
X3420Y1149D02*
X3468Y1149D01*
X3119Y1148D02*
X3169Y1148D01*
X3419Y1148D02*
X3469Y1148D01*
X3118Y1147D02*
X3170Y1147D01*
X3418Y1147D02*
X3469Y1147D01*
X3117Y1146D02*
X3170Y1146D01*
X3417Y1146D02*
X3470Y1146D01*
X3117Y1145D02*
X3171Y1145D01*
X3417Y1145D02*
X3471Y1145D01*
X3116Y1144D02*
X3172Y1144D01*
X3416Y1144D02*
X3472Y1144D01*
X3115Y1143D02*
X3172Y1143D01*
X3415Y1143D02*
X3472Y1143D01*
X3115Y1142D02*
X3173Y1142D01*
X3415Y1142D02*
X3473Y1142D01*
X3114Y1141D02*
X3174Y1141D01*
X3414Y1141D02*
X3474Y1141D01*
X3114Y1140D02*
X3174Y1140D01*
X3414Y1140D02*
X3474Y1140D01*
X3113Y1139D02*
X3175Y1139D01*
X3413Y1139D02*
X3475Y1139D01*
X3113Y1138D02*
X3138Y1138D01*
X3149Y1138D02*
X3175Y1138D01*
X3413Y1138D02*
X3438Y1138D01*
X3449Y1138D02*
X3475Y1138D01*
X3112Y1137D02*
X3136Y1137D01*
X3152Y1137D02*
X3176Y1137D01*
X3412Y1137D02*
X3436Y1137D01*
X3452Y1137D02*
X3476Y1137D01*
X3112Y1136D02*
X3135Y1136D01*
X3153Y1136D02*
X3176Y1136D01*
X3412Y1136D02*
X3435Y1136D01*
X3453Y1136D02*
X3476Y1136D01*
X3111Y1135D02*
X3134Y1135D01*
X3154Y1135D02*
X3176Y1135D01*
X3411Y1135D02*
X3433Y1135D01*
X3454Y1135D02*
X3476Y1135D01*
X3111Y1134D02*
X3133Y1134D01*
X3155Y1134D02*
X3177Y1134D01*
X3411Y1134D02*
X3432Y1134D01*
X3455Y1134D02*
X3477Y1134D01*
X3111Y1133D02*
X3132Y1133D01*
X3156Y1133D02*
X3177Y1133D01*
X3411Y1133D02*
X3432Y1133D01*
X3456Y1133D02*
X3477Y1133D01*
X3111Y1132D02*
X3131Y1132D01*
X3157Y1132D02*
X3177Y1132D01*
X3411Y1132D02*
X3431Y1132D01*
X3457Y1132D02*
X3477Y1132D01*
X3110Y1131D02*
X3130Y1131D01*
X3158Y1131D02*
X3178Y1131D01*
X3410Y1131D02*
X3430Y1131D01*
X3458Y1131D02*
X3477Y1131D01*
X3110Y1130D02*
X3130Y1130D01*
X3158Y1130D02*
X3178Y1130D01*
X3410Y1130D02*
X3430Y1130D01*
X3458Y1130D02*
X3478Y1130D01*
X3110Y1129D02*
X3129Y1129D01*
X3159Y1129D02*
X3178Y1129D01*
X3410Y1129D02*
X3429Y1129D01*
X3459Y1129D02*
X3478Y1129D01*
X3110Y1128D02*
X3129Y1128D01*
X3159Y1128D02*
X3178Y1128D01*
X3410Y1128D02*
X3429Y1128D01*
X3459Y1128D02*
X3478Y1128D01*
X3110Y1127D02*
X3129Y1127D01*
X3159Y1127D02*
X3178Y1127D01*
X3410Y1127D02*
X3429Y1127D01*
X3459Y1127D02*
X3478Y1127D01*
X3110Y1126D02*
X3129Y1126D01*
X3159Y1126D02*
X3178Y1126D01*
X3410Y1126D02*
X3429Y1126D01*
X3459Y1126D02*
X3478Y1126D01*
X3109Y1125D02*
X3129Y1125D01*
X3159Y1125D02*
X3178Y1125D01*
X3409Y1125D02*
X3428Y1125D01*
X3459Y1125D02*
X3478Y1125D01*
X3109Y1124D02*
X3128Y1124D01*
X3159Y1124D02*
X3178Y1124D01*
X3409Y1124D02*
X3428Y1124D01*
X3459Y1124D02*
X3478Y1124D01*
X3109Y1123D02*
X3128Y1123D01*
X3159Y1123D02*
X3178Y1123D01*
X3409Y1123D02*
X3428Y1123D01*
X3459Y1123D02*
X3478Y1123D01*
X3110Y1122D02*
X3129Y1122D01*
X3159Y1122D02*
X3178Y1122D01*
X3409Y1122D02*
X3429Y1122D01*
X3459Y1122D02*
X3478Y1122D01*
X3110Y1121D02*
X3129Y1121D01*
X3159Y1121D02*
X3178Y1121D01*
X3410Y1121D02*
X3429Y1121D01*
X3459Y1121D02*
X3478Y1121D01*
X3110Y1120D02*
X3129Y1120D01*
X3159Y1120D02*
X3178Y1120D01*
X3410Y1120D02*
X3429Y1120D01*
X3459Y1120D02*
X3478Y1120D01*
X3110Y1119D02*
X3129Y1119D01*
X3159Y1119D02*
X3178Y1119D01*
X3410Y1119D02*
X3429Y1119D01*
X3459Y1119D02*
X3478Y1119D01*
X3110Y1118D02*
X3129Y1118D01*
X3158Y1118D02*
X3178Y1118D01*
X3410Y1118D02*
X3429Y1118D01*
X3458Y1118D02*
X3478Y1118D01*
X3110Y1117D02*
X3130Y1117D01*
X3158Y1117D02*
X3178Y1117D01*
X3410Y1117D02*
X3430Y1117D01*
X3458Y1117D02*
X3478Y1117D01*
X3110Y1116D02*
X3130Y1116D01*
X3157Y1116D02*
X3177Y1116D01*
X3410Y1116D02*
X3430Y1116D01*
X3457Y1116D02*
X3477Y1116D01*
X3111Y1115D02*
X3131Y1115D01*
X3157Y1115D02*
X3177Y1115D01*
X3411Y1115D02*
X3431Y1115D01*
X3457Y1115D02*
X3477Y1115D01*
X3111Y1114D02*
X3132Y1114D01*
X3156Y1114D02*
X3177Y1114D01*
X3411Y1114D02*
X3432Y1114D01*
X3456Y1114D02*
X3477Y1114D01*
X3111Y1113D02*
X3133Y1113D01*
X3155Y1113D02*
X3177Y1113D01*
X3411Y1113D02*
X3433Y1113D01*
X3455Y1113D02*
X3476Y1113D01*
X3112Y1112D02*
X3134Y1112D01*
X3154Y1112D02*
X3176Y1112D01*
X3412Y1112D02*
X3434Y1112D01*
X3454Y1112D02*
X3476Y1112D01*
X3112Y1111D02*
X3135Y1111D01*
X3152Y1111D02*
X3176Y1111D01*
X3412Y1111D02*
X3435Y1111D01*
X3452Y1111D02*
X3476Y1111D01*
X3112Y1110D02*
X3137Y1110D01*
X3151Y1110D02*
X3175Y1110D01*
X3412Y1110D02*
X3437Y1110D01*
X3451Y1110D02*
X3475Y1110D01*
X3113Y1109D02*
X3140Y1109D01*
X3148Y1109D02*
X3175Y1109D01*
X3413Y1109D02*
X3440Y1109D01*
X3447Y1109D02*
X3475Y1109D01*
X3113Y1108D02*
X3174Y1108D01*
X3413Y1108D02*
X3474Y1108D01*
X3114Y1107D02*
X3174Y1107D01*
X3414Y1107D02*
X3474Y1107D01*
X3114Y1106D02*
X3173Y1106D01*
X3414Y1106D02*
X3473Y1106D01*
X3115Y1105D02*
X3173Y1105D01*
X3415Y1105D02*
X3473Y1105D01*
X3116Y1104D02*
X3172Y1104D01*
X3416Y1104D02*
X3472Y1104D01*
X3116Y1103D02*
X3171Y1103D01*
X3416Y1103D02*
X3471Y1103D01*
X3117Y1102D02*
X3171Y1102D01*
X3417Y1102D02*
X3471Y1102D01*
X3118Y1101D02*
X3170Y1101D01*
X3418Y1101D02*
X3470Y1101D01*
X3119Y1100D02*
X3169Y1100D01*
X3419Y1100D02*
X3469Y1100D01*
X3120Y1099D02*
X3168Y1099D01*
X3420Y1099D02*
X3468Y1099D01*
X3121Y1098D02*
X3167Y1098D01*
X3421Y1098D02*
X3467Y1098D01*
X3122Y1097D02*
X3166Y1097D01*
X3422Y1097D02*
X3466Y1097D01*
X3123Y1096D02*
X3165Y1096D01*
X3423Y1096D02*
X3465Y1096D01*
X3125Y1095D02*
X3163Y1095D01*
X3425Y1095D02*
X3463Y1095D01*
X3126Y1094D02*
X3162Y1094D01*
X3426Y1094D02*
X3461Y1094D01*
X3128Y1093D02*
X3160Y1093D01*
X3428Y1093D02*
X3460Y1093D01*
X3130Y1092D02*
X3158Y1092D01*
X3430Y1092D02*
X3458Y1092D01*
X3133Y1091D02*
X3155Y1091D01*
X3433Y1091D02*
X3455Y1091D01*
X3136Y1090D02*
X3152Y1090D01*
X3436Y1090D02*
X3452Y1090D01*
X3141Y1089D02*
X3147Y1089D01*
X3441Y1089D02*
X3447Y1089D01*
X3138Y1058D02*
X3150Y1058D01*
X3438Y1058D02*
X3450Y1058D01*
X3134Y1057D02*
X3154Y1057D01*
X3434Y1057D02*
X3454Y1057D01*
X3131Y1056D02*
X3157Y1056D01*
X3431Y1056D02*
X3457Y1056D01*
X3129Y1055D02*
X3159Y1055D01*
X3429Y1055D02*
X3459Y1055D01*
X3127Y1054D02*
X3161Y1054D01*
X3427Y1054D02*
X3461Y1054D01*
X3125Y1053D02*
X3162Y1053D01*
X3425Y1053D02*
X3462Y1053D01*
X3124Y1052D02*
X3164Y1052D01*
X3424Y1052D02*
X3464Y1052D01*
X3123Y1051D02*
X3165Y1051D01*
X3423Y1051D02*
X3465Y1051D01*
X3121Y1050D02*
X3166Y1050D01*
X3421Y1050D02*
X3466Y1050D01*
X3120Y1049D02*
X3168Y1049D01*
X3420Y1049D02*
X3468Y1049D01*
X3119Y1048D02*
X3169Y1048D01*
X3419Y1048D02*
X3469Y1048D01*
X3118Y1047D02*
X3170Y1047D01*
X3418Y1047D02*
X3469Y1047D01*
X3117Y1046D02*
X3170Y1046D01*
X3417Y1046D02*
X3470Y1046D01*
X3117Y1045D02*
X3171Y1045D01*
X3417Y1045D02*
X3471Y1045D01*
X3116Y1044D02*
X3172Y1044D01*
X3416Y1044D02*
X3472Y1044D01*
X3115Y1043D02*
X3172Y1043D01*
X3415Y1043D02*
X3472Y1043D01*
X3115Y1042D02*
X3173Y1042D01*
X3415Y1042D02*
X3473Y1042D01*
X3114Y1041D02*
X3174Y1041D01*
X3414Y1041D02*
X3474Y1041D01*
X3114Y1040D02*
X3174Y1040D01*
X3414Y1040D02*
X3474Y1040D01*
X3113Y1039D02*
X3175Y1039D01*
X3413Y1039D02*
X3475Y1039D01*
X3113Y1038D02*
X3138Y1038D01*
X3150Y1038D02*
X3175Y1038D01*
X3413Y1038D02*
X3438Y1038D01*
X3449Y1038D02*
X3475Y1038D01*
X3112Y1037D02*
X3136Y1037D01*
X3152Y1037D02*
X3176Y1037D01*
X3412Y1037D02*
X3436Y1037D01*
X3452Y1037D02*
X3476Y1037D01*
X3112Y1036D02*
X3135Y1036D01*
X3153Y1036D02*
X3176Y1036D01*
X3412Y1036D02*
X3435Y1036D01*
X3453Y1036D02*
X3476Y1036D01*
X3111Y1035D02*
X3134Y1035D01*
X3154Y1035D02*
X3176Y1035D01*
X3411Y1035D02*
X3433Y1035D01*
X3454Y1035D02*
X3476Y1035D01*
X3111Y1034D02*
X3132Y1034D01*
X3155Y1034D02*
X3177Y1034D01*
X3411Y1034D02*
X3432Y1034D01*
X3455Y1034D02*
X3477Y1034D01*
X3111Y1033D02*
X3132Y1033D01*
X3156Y1033D02*
X3177Y1033D01*
X3411Y1033D02*
X3432Y1033D01*
X3456Y1033D02*
X3477Y1033D01*
X3111Y1032D02*
X3131Y1032D01*
X3157Y1032D02*
X3177Y1032D01*
X3411Y1032D02*
X3431Y1032D01*
X3457Y1032D02*
X3477Y1032D01*
X3110Y1031D02*
X3130Y1031D01*
X3158Y1031D02*
X3178Y1031D01*
X3410Y1031D02*
X3430Y1031D01*
X3458Y1031D02*
X3477Y1031D01*
X3110Y1030D02*
X3130Y1030D01*
X3158Y1030D02*
X3178Y1030D01*
X3410Y1030D02*
X3430Y1030D01*
X3458Y1030D02*
X3478Y1030D01*
X3110Y1029D02*
X3129Y1029D01*
X3159Y1029D02*
X3178Y1029D01*
X3410Y1029D02*
X3429Y1029D01*
X3459Y1029D02*
X3478Y1029D01*
X3110Y1028D02*
X3129Y1028D01*
X3159Y1028D02*
X3178Y1028D01*
X3410Y1028D02*
X3429Y1028D01*
X3459Y1028D02*
X3478Y1028D01*
X3110Y1027D02*
X3129Y1027D01*
X3159Y1027D02*
X3178Y1027D01*
X3410Y1027D02*
X3429Y1027D01*
X3459Y1027D02*
X3478Y1027D01*
X3110Y1026D02*
X3129Y1026D01*
X3159Y1026D02*
X3178Y1026D01*
X3410Y1026D02*
X3429Y1026D01*
X3459Y1026D02*
X3478Y1026D01*
X3109Y1025D02*
X3129Y1025D01*
X3159Y1025D02*
X3178Y1025D01*
X3409Y1025D02*
X3428Y1025D01*
X3459Y1025D02*
X3478Y1025D01*
X3109Y1024D02*
X3128Y1024D01*
X3159Y1024D02*
X3178Y1024D01*
X3409Y1024D02*
X3428Y1024D01*
X3459Y1024D02*
X3478Y1024D01*
X3109Y1023D02*
X3128Y1023D01*
X3159Y1023D02*
X3178Y1023D01*
X3409Y1023D02*
X3428Y1023D01*
X3459Y1023D02*
X3478Y1023D01*
X3110Y1022D02*
X3129Y1022D01*
X3159Y1022D02*
X3178Y1022D01*
X3409Y1022D02*
X3429Y1022D01*
X3459Y1022D02*
X3478Y1022D01*
X3110Y1021D02*
X3129Y1021D01*
X3159Y1021D02*
X3178Y1021D01*
X3410Y1021D02*
X3429Y1021D01*
X3459Y1021D02*
X3478Y1021D01*
X3110Y1020D02*
X3129Y1020D01*
X3159Y1020D02*
X3178Y1020D01*
X3410Y1020D02*
X3429Y1020D01*
X3459Y1020D02*
X3478Y1020D01*
X3110Y1019D02*
X3129Y1019D01*
X3159Y1019D02*
X3178Y1019D01*
X3410Y1019D02*
X3429Y1019D01*
X3459Y1019D02*
X3478Y1019D01*
X3110Y1018D02*
X3129Y1018D01*
X3158Y1018D02*
X3178Y1018D01*
X3410Y1018D02*
X3429Y1018D01*
X3458Y1018D02*
X3478Y1018D01*
X3110Y1017D02*
X3130Y1017D01*
X3158Y1017D02*
X3178Y1017D01*
X3410Y1017D02*
X3430Y1017D01*
X3458Y1017D02*
X3478Y1017D01*
X3110Y1016D02*
X3130Y1016D01*
X3157Y1016D02*
X3177Y1016D01*
X3410Y1016D02*
X3430Y1016D01*
X3457Y1016D02*
X3477Y1016D01*
X3111Y1015D02*
X3131Y1015D01*
X3157Y1015D02*
X3177Y1015D01*
X3411Y1015D02*
X3431Y1015D01*
X3457Y1015D02*
X3477Y1015D01*
X3111Y1014D02*
X3132Y1014D01*
X3156Y1014D02*
X3177Y1014D01*
X3411Y1014D02*
X3432Y1014D01*
X3456Y1014D02*
X3477Y1014D01*
X3111Y1013D02*
X3133Y1013D01*
X3155Y1013D02*
X3177Y1013D01*
X3411Y1013D02*
X3433Y1013D01*
X3455Y1013D02*
X3476Y1013D01*
X3112Y1012D02*
X3134Y1012D01*
X3154Y1012D02*
X3176Y1012D01*
X3412Y1012D02*
X3434Y1012D01*
X3454Y1012D02*
X3476Y1012D01*
X3112Y1011D02*
X3135Y1011D01*
X3152Y1011D02*
X3176Y1011D01*
X3412Y1011D02*
X3435Y1011D01*
X3452Y1011D02*
X3476Y1011D01*
X3112Y1010D02*
X3137Y1010D01*
X3151Y1010D02*
X3175Y1010D01*
X3412Y1010D02*
X3437Y1010D01*
X3451Y1010D02*
X3475Y1010D01*
X3113Y1009D02*
X3140Y1009D01*
X3147Y1009D02*
X3175Y1009D01*
X3413Y1009D02*
X3440Y1009D01*
X3447Y1009D02*
X3475Y1009D01*
X3113Y1008D02*
X3174Y1008D01*
X3413Y1008D02*
X3474Y1008D01*
X3114Y1007D02*
X3174Y1007D01*
X3414Y1007D02*
X3474Y1007D01*
X3114Y1006D02*
X3173Y1006D01*
X3414Y1006D02*
X3473Y1006D01*
X3115Y1005D02*
X3173Y1005D01*
X3415Y1005D02*
X3473Y1005D01*
X3116Y1004D02*
X3172Y1004D01*
X3416Y1004D02*
X3472Y1004D01*
X3116Y1003D02*
X3171Y1003D01*
X3416Y1003D02*
X3471Y1003D01*
X3117Y1002D02*
X3171Y1002D01*
X3417Y1002D02*
X3471Y1002D01*
X3118Y1001D02*
X3170Y1001D01*
X3418Y1001D02*
X3470Y1001D01*
X3119Y1000D02*
X3169Y1000D01*
X3419Y1000D02*
X3469Y1000D01*
X3120Y999D02*
X3168Y999D01*
X3420Y999D02*
X3468Y999D01*
X3121Y998D02*
X3167Y998D01*
X3421Y998D02*
X3467Y998D01*
X3122Y997D02*
X3166Y997D01*
X3422Y997D02*
X3466Y997D01*
X3123Y996D02*
X3165Y996D01*
X3423Y996D02*
X3464Y996D01*
X3125Y995D02*
X3163Y995D01*
X3425Y995D02*
X3463Y995D01*
X3126Y994D02*
X3161Y994D01*
X3426Y994D02*
X3461Y994D01*
X3128Y993D02*
X3160Y993D01*
X3428Y993D02*
X3460Y993D01*
X3130Y992D02*
X3158Y992D01*
X3430Y992D02*
X3458Y992D01*
X3133Y991D02*
X3155Y991D01*
X3433Y991D02*
X3455Y991D01*
X3136Y990D02*
X3152Y990D01*
X3436Y990D02*
X3452Y990D01*
X3141Y989D02*
X3147Y989D01*
X3441Y989D02*
X3447Y989D01*
X3138Y958D02*
X3150Y958D01*
X3438Y958D02*
X3450Y958D01*
X3134Y957D02*
X3154Y957D01*
X3434Y957D02*
X3454Y957D01*
X3131Y956D02*
X3157Y956D01*
X3431Y956D02*
X3457Y956D01*
X3129Y955D02*
X3159Y955D01*
X3429Y955D02*
X3459Y955D01*
X3127Y954D02*
X3161Y954D01*
X3427Y954D02*
X3461Y954D01*
X3125Y953D02*
X3162Y953D01*
X3425Y953D02*
X3462Y953D01*
X3124Y952D02*
X3164Y952D01*
X3424Y952D02*
X3464Y952D01*
X3123Y951D02*
X3165Y951D01*
X3422Y951D02*
X3465Y951D01*
X3121Y950D02*
X3167Y950D01*
X3421Y950D02*
X3466Y950D01*
X3120Y949D02*
X3168Y949D01*
X3420Y949D02*
X3468Y949D01*
X3119Y948D02*
X3169Y948D01*
X3419Y948D02*
X3469Y948D01*
X3118Y947D02*
X3170Y947D01*
X3418Y947D02*
X3469Y947D01*
X3117Y946D02*
X3170Y946D01*
X3417Y946D02*
X3470Y946D01*
X3117Y945D02*
X3171Y945D01*
X3417Y945D02*
X3471Y945D01*
X3116Y944D02*
X3172Y944D01*
X3416Y944D02*
X3472Y944D01*
X3115Y943D02*
X3172Y943D01*
X3415Y943D02*
X3472Y943D01*
X3115Y942D02*
X3173Y942D01*
X3415Y942D02*
X3473Y942D01*
X3114Y941D02*
X3174Y941D01*
X3414Y941D02*
X3474Y941D01*
X3114Y940D02*
X3174Y940D01*
X3414Y940D02*
X3474Y940D01*
X3113Y939D02*
X3175Y939D01*
X3413Y939D02*
X3475Y939D01*
X3113Y938D02*
X3138Y938D01*
X3150Y938D02*
X3175Y938D01*
X3413Y938D02*
X3438Y938D01*
X3450Y938D02*
X3475Y938D01*
X3112Y937D02*
X3136Y937D01*
X3152Y937D02*
X3176Y937D01*
X3412Y937D02*
X3436Y937D01*
X3452Y937D02*
X3476Y937D01*
X3112Y936D02*
X3135Y936D01*
X3153Y936D02*
X3176Y936D01*
X3412Y936D02*
X3435Y936D01*
X3453Y936D02*
X3476Y936D01*
X3111Y935D02*
X3134Y935D01*
X3154Y935D02*
X3176Y935D01*
X3411Y935D02*
X3433Y935D01*
X3454Y935D02*
X3476Y935D01*
X3111Y934D02*
X3132Y934D01*
X3155Y934D02*
X3177Y934D01*
X3411Y934D02*
X3432Y934D01*
X3455Y934D02*
X3477Y934D01*
X3111Y933D02*
X3132Y933D01*
X3156Y933D02*
X3177Y933D01*
X3411Y933D02*
X3432Y933D01*
X3456Y933D02*
X3477Y933D01*
X3111Y932D02*
X3131Y932D01*
X3157Y932D02*
X3177Y932D01*
X3411Y932D02*
X3431Y932D01*
X3457Y932D02*
X3477Y932D01*
X3110Y931D02*
X3130Y931D01*
X3158Y931D02*
X3178Y931D01*
X3410Y931D02*
X3430Y931D01*
X3458Y931D02*
X3477Y931D01*
X3110Y930D02*
X3130Y930D01*
X3158Y930D02*
X3178Y930D01*
X3410Y930D02*
X3430Y930D01*
X3458Y930D02*
X3478Y930D01*
X3110Y929D02*
X3129Y929D01*
X3159Y929D02*
X3178Y929D01*
X3410Y929D02*
X3429Y929D01*
X3459Y929D02*
X3478Y929D01*
X3110Y928D02*
X3129Y928D01*
X3159Y928D02*
X3178Y928D01*
X3410Y928D02*
X3429Y928D01*
X3459Y928D02*
X3478Y928D01*
X3110Y927D02*
X3129Y927D01*
X3159Y927D02*
X3178Y927D01*
X3410Y927D02*
X3429Y927D01*
X3459Y927D02*
X3478Y927D01*
X3110Y926D02*
X3129Y926D01*
X3159Y926D02*
X3178Y926D01*
X3410Y926D02*
X3429Y926D01*
X3459Y926D02*
X3478Y926D01*
X3109Y925D02*
X3129Y925D01*
X3159Y925D02*
X3178Y925D01*
X3409Y925D02*
X3428Y925D01*
X3459Y925D02*
X3478Y925D01*
X3109Y924D02*
X3128Y924D01*
X3159Y924D02*
X3178Y924D01*
X3409Y924D02*
X3428Y924D01*
X3459Y924D02*
X3478Y924D01*
X3109Y923D02*
X3128Y923D01*
X3159Y923D02*
X3178Y923D01*
X3409Y923D02*
X3428Y923D01*
X3459Y923D02*
X3478Y923D01*
X3110Y922D02*
X3129Y922D01*
X3159Y922D02*
X3178Y922D01*
X3409Y922D02*
X3429Y922D01*
X3459Y922D02*
X3478Y922D01*
X3110Y921D02*
X3129Y921D01*
X3159Y921D02*
X3178Y921D01*
X3410Y921D02*
X3429Y921D01*
X3459Y921D02*
X3478Y921D01*
X3110Y920D02*
X3129Y920D01*
X3159Y920D02*
X3178Y920D01*
X3410Y920D02*
X3429Y920D01*
X3459Y920D02*
X3478Y920D01*
X3110Y919D02*
X3129Y919D01*
X3159Y919D02*
X3178Y919D01*
X3410Y919D02*
X3429Y919D01*
X3459Y919D02*
X3478Y919D01*
X3110Y918D02*
X3129Y918D01*
X3158Y918D02*
X3178Y918D01*
X3410Y918D02*
X3429Y918D01*
X3458Y918D02*
X3478Y918D01*
X3110Y917D02*
X3130Y917D01*
X3158Y917D02*
X3178Y917D01*
X3410Y917D02*
X3430Y917D01*
X3458Y917D02*
X3478Y917D01*
X3110Y916D02*
X3131Y916D01*
X3157Y916D02*
X3177Y916D01*
X3410Y916D02*
X3430Y916D01*
X3457Y916D02*
X3477Y916D01*
X3111Y915D02*
X3131Y915D01*
X3157Y915D02*
X3177Y915D01*
X3411Y915D02*
X3431Y915D01*
X3457Y915D02*
X3477Y915D01*
X3111Y914D02*
X3132Y914D01*
X3156Y914D02*
X3177Y914D01*
X3411Y914D02*
X3432Y914D01*
X3456Y914D02*
X3477Y914D01*
X3111Y913D02*
X3133Y913D01*
X3155Y913D02*
X3177Y913D01*
X3411Y913D02*
X3433Y913D01*
X3455Y913D02*
X3476Y913D01*
X3112Y912D02*
X3134Y912D01*
X3154Y912D02*
X3176Y912D01*
X3412Y912D02*
X3434Y912D01*
X3454Y912D02*
X3476Y912D01*
X3112Y911D02*
X3135Y911D01*
X3152Y911D02*
X3176Y911D01*
X3412Y911D02*
X3435Y911D01*
X3452Y911D02*
X3476Y911D01*
X3112Y910D02*
X3137Y910D01*
X3151Y910D02*
X3175Y910D01*
X3412Y910D02*
X3437Y910D01*
X3451Y910D02*
X3475Y910D01*
X3113Y909D02*
X3141Y909D01*
X3147Y909D02*
X3175Y909D01*
X3413Y909D02*
X3440Y909D01*
X3447Y909D02*
X3475Y909D01*
X3113Y908D02*
X3174Y908D01*
X3413Y908D02*
X3474Y908D01*
X3114Y907D02*
X3174Y907D01*
X3414Y907D02*
X3474Y907D01*
X3114Y906D02*
X3173Y906D01*
X3414Y906D02*
X3473Y906D01*
X3115Y905D02*
X3173Y905D01*
X3415Y905D02*
X3473Y905D01*
X3116Y904D02*
X3172Y904D01*
X3416Y904D02*
X3472Y904D01*
X3116Y903D02*
X3171Y903D01*
X3416Y903D02*
X3471Y903D01*
X3117Y902D02*
X3171Y902D01*
X3417Y902D02*
X3471Y902D01*
X3118Y901D02*
X3170Y901D01*
X3418Y901D02*
X3470Y901D01*
X3119Y900D02*
X3169Y900D01*
X3419Y900D02*
X3469Y900D01*
X3120Y899D02*
X3168Y899D01*
X3420Y899D02*
X3468Y899D01*
X3121Y898D02*
X3167Y898D01*
X3421Y898D02*
X3467Y898D01*
X3122Y897D02*
X3166Y897D01*
X3422Y897D02*
X3466Y897D01*
X3123Y896D02*
X3165Y896D01*
X3423Y896D02*
X3464Y896D01*
X3125Y895D02*
X3163Y895D01*
X3425Y895D02*
X3463Y895D01*
X3126Y894D02*
X3161Y894D01*
X3426Y894D02*
X3461Y894D01*
X3128Y893D02*
X3160Y893D01*
X3428Y893D02*
X3460Y893D01*
X3130Y892D02*
X3158Y892D01*
X3430Y892D02*
X3458Y892D01*
X3133Y891D02*
X3155Y891D01*
X3433Y891D02*
X3455Y891D01*
X3136Y890D02*
X3152Y890D01*
X3436Y890D02*
X3452Y890D01*
X3141Y889D02*
X3147Y889D01*
X3441Y889D02*
X3447Y889D01*
X3138Y858D02*
X3150Y858D01*
X3437Y858D02*
X3450Y858D01*
X3134Y857D02*
X3154Y857D01*
X3434Y857D02*
X3454Y857D01*
X3131Y856D02*
X3157Y856D01*
X3431Y856D02*
X3457Y856D01*
X3129Y855D02*
X3159Y855D01*
X3429Y855D02*
X3459Y855D01*
X3127Y854D02*
X3161Y854D01*
X3427Y854D02*
X3461Y854D01*
X3125Y853D02*
X3162Y853D01*
X3425Y853D02*
X3462Y853D01*
X3124Y852D02*
X3164Y852D01*
X3424Y852D02*
X3464Y852D01*
X3123Y851D02*
X3165Y851D01*
X3422Y851D02*
X3465Y851D01*
X3121Y850D02*
X3167Y850D01*
X3421Y850D02*
X3466Y850D01*
X3120Y849D02*
X3168Y849D01*
X3420Y849D02*
X3468Y849D01*
X3119Y848D02*
X3169Y848D01*
X3419Y848D02*
X3469Y848D01*
X3118Y847D02*
X3170Y847D01*
X3418Y847D02*
X3470Y847D01*
X3117Y846D02*
X3170Y846D01*
X3417Y846D02*
X3470Y846D01*
X3117Y845D02*
X3171Y845D01*
X3417Y845D02*
X3471Y845D01*
X3116Y844D02*
X3172Y844D01*
X3416Y844D02*
X3472Y844D01*
X3115Y843D02*
X3173Y843D01*
X3415Y843D02*
X3472Y843D01*
X3115Y842D02*
X3173Y842D01*
X3415Y842D02*
X3473Y842D01*
X3114Y841D02*
X3174Y841D01*
X3414Y841D02*
X3474Y841D01*
X3114Y840D02*
X3174Y840D01*
X3414Y840D02*
X3474Y840D01*
X3113Y839D02*
X3175Y839D01*
X3413Y839D02*
X3475Y839D01*
X3113Y838D02*
X3138Y838D01*
X3150Y838D02*
X3175Y838D01*
X3413Y838D02*
X3438Y838D01*
X3450Y838D02*
X3475Y838D01*
X3112Y837D02*
X3136Y837D01*
X3152Y837D02*
X3176Y837D01*
X3412Y837D02*
X3436Y837D01*
X3452Y837D02*
X3476Y837D01*
X3112Y836D02*
X3135Y836D01*
X3153Y836D02*
X3176Y836D01*
X3412Y836D02*
X3435Y836D01*
X3453Y836D02*
X3476Y836D01*
X3111Y835D02*
X3133Y835D01*
X3154Y835D02*
X3176Y835D01*
X3411Y835D02*
X3433Y835D01*
X3454Y835D02*
X3476Y835D01*
X3111Y834D02*
X3132Y834D01*
X3155Y834D02*
X3177Y834D01*
X3411Y834D02*
X3432Y834D01*
X3455Y834D02*
X3477Y834D01*
X3111Y833D02*
X3132Y833D01*
X3156Y833D02*
X3177Y833D01*
X3411Y833D02*
X3432Y833D01*
X3456Y833D02*
X3477Y833D01*
X3111Y832D02*
X3131Y832D01*
X3157Y832D02*
X3177Y832D01*
X3411Y832D02*
X3431Y832D01*
X3457Y832D02*
X3477Y832D01*
X3110Y831D02*
X3130Y831D01*
X3158Y831D02*
X3178Y831D01*
X3410Y831D02*
X3430Y831D01*
X3458Y831D02*
X3477Y831D01*
X3110Y830D02*
X3130Y830D01*
X3158Y830D02*
X3178Y830D01*
X3410Y830D02*
X3430Y830D01*
X3458Y830D02*
X3478Y830D01*
X3110Y829D02*
X3129Y829D01*
X3159Y829D02*
X3178Y829D01*
X3410Y829D02*
X3429Y829D01*
X3459Y829D02*
X3478Y829D01*
X3110Y828D02*
X3129Y828D01*
X3159Y828D02*
X3178Y828D01*
X3410Y828D02*
X3429Y828D01*
X3459Y828D02*
X3478Y828D01*
X3110Y827D02*
X3129Y827D01*
X3159Y827D02*
X3178Y827D01*
X3410Y827D02*
X3429Y827D01*
X3459Y827D02*
X3478Y827D01*
X3110Y826D02*
X3129Y826D01*
X3159Y826D02*
X3178Y826D01*
X3410Y826D02*
X3429Y826D01*
X3459Y826D02*
X3478Y826D01*
X3109Y825D02*
X3129Y825D01*
X3159Y825D02*
X3178Y825D01*
X3409Y825D02*
X3428Y825D01*
X3459Y825D02*
X3478Y825D01*
X3109Y824D02*
X3128Y824D01*
X3159Y824D02*
X3178Y824D01*
X3409Y824D02*
X3428Y824D01*
X3459Y824D02*
X3478Y824D01*
X3109Y823D02*
X3128Y823D01*
X3159Y823D02*
X3178Y823D01*
X3409Y823D02*
X3428Y823D01*
X3459Y823D02*
X3478Y823D01*
X3110Y822D02*
X3129Y822D01*
X3159Y822D02*
X3178Y822D01*
X3409Y822D02*
X3429Y822D01*
X3459Y822D02*
X3478Y822D01*
X3110Y821D02*
X3129Y821D01*
X3159Y821D02*
X3178Y821D01*
X3410Y821D02*
X3429Y821D01*
X3459Y821D02*
X3478Y821D01*
X3110Y820D02*
X3129Y820D01*
X3159Y820D02*
X3178Y820D01*
X3410Y820D02*
X3429Y820D01*
X3459Y820D02*
X3478Y820D01*
X3110Y819D02*
X3129Y819D01*
X3159Y819D02*
X3178Y819D01*
X3410Y819D02*
X3429Y819D01*
X3459Y819D02*
X3478Y819D01*
X3110Y818D02*
X3129Y818D01*
X3158Y818D02*
X3178Y818D01*
X3410Y818D02*
X3429Y818D01*
X3458Y818D02*
X3478Y818D01*
X3110Y817D02*
X3130Y817D01*
X3158Y817D02*
X3178Y817D01*
X3410Y817D02*
X3430Y817D01*
X3458Y817D02*
X3478Y817D01*
X3110Y816D02*
X3131Y816D01*
X3157Y816D02*
X3177Y816D01*
X3410Y816D02*
X3430Y816D01*
X3457Y816D02*
X3477Y816D01*
X3111Y815D02*
X3131Y815D01*
X3157Y815D02*
X3177Y815D01*
X3411Y815D02*
X3431Y815D01*
X3457Y815D02*
X3477Y815D01*
X3111Y814D02*
X3132Y814D01*
X3156Y814D02*
X3177Y814D01*
X3411Y814D02*
X3432Y814D01*
X3456Y814D02*
X3477Y814D01*
X3111Y813D02*
X3133Y813D01*
X3155Y813D02*
X3177Y813D01*
X3411Y813D02*
X3433Y813D01*
X3455Y813D02*
X3476Y813D01*
X3112Y812D02*
X3134Y812D01*
X3154Y812D02*
X3176Y812D01*
X3412Y812D02*
X3434Y812D01*
X3454Y812D02*
X3476Y812D01*
X3112Y811D02*
X3135Y811D01*
X3152Y811D02*
X3176Y811D01*
X3412Y811D02*
X3435Y811D01*
X3452Y811D02*
X3476Y811D01*
X3112Y810D02*
X3137Y810D01*
X3151Y810D02*
X3175Y810D01*
X3412Y810D02*
X3437Y810D01*
X3451Y810D02*
X3475Y810D01*
X3113Y809D02*
X3141Y809D01*
X3147Y809D02*
X3175Y809D01*
X3413Y809D02*
X3441Y809D01*
X3447Y809D02*
X3475Y809D01*
X3113Y808D02*
X3174Y808D01*
X3413Y808D02*
X3474Y808D01*
X3114Y807D02*
X3174Y807D01*
X3414Y807D02*
X3474Y807D01*
X3114Y806D02*
X3173Y806D01*
X3414Y806D02*
X3473Y806D01*
X3115Y805D02*
X3173Y805D01*
X3415Y805D02*
X3473Y805D01*
X3116Y804D02*
X3172Y804D01*
X3416Y804D02*
X3472Y804D01*
X3116Y803D02*
X3171Y803D01*
X3416Y803D02*
X3471Y803D01*
X3117Y802D02*
X3171Y802D01*
X3417Y802D02*
X3471Y802D01*
X3118Y801D02*
X3170Y801D01*
X3418Y801D02*
X3470Y801D01*
X3119Y800D02*
X3169Y800D01*
X3419Y800D02*
X3469Y800D01*
X3120Y799D02*
X3168Y799D01*
X3420Y799D02*
X3468Y799D01*
X3121Y798D02*
X3167Y798D01*
X3421Y798D02*
X3467Y798D01*
X3122Y797D02*
X3166Y797D01*
X3422Y797D02*
X3466Y797D01*
X3123Y796D02*
X3164Y796D01*
X3423Y796D02*
X3464Y796D01*
X3125Y795D02*
X3163Y795D01*
X3425Y795D02*
X3463Y795D01*
X3126Y794D02*
X3161Y794D01*
X3426Y794D02*
X3461Y794D01*
X3128Y793D02*
X3160Y793D01*
X3428Y793D02*
X3460Y793D01*
X3130Y792D02*
X3158Y792D01*
X3430Y792D02*
X3457Y792D01*
X3133Y791D02*
X3155Y791D01*
X3433Y791D02*
X3455Y791D01*
X3136Y790D02*
X3152Y790D01*
X3436Y790D02*
X3452Y790D01*
X3141Y789D02*
X3147Y789D01*
X3441Y789D02*
X3447Y789D01*
X3137Y758D02*
X3150Y758D01*
X3437Y758D02*
X3450Y758D01*
X3134Y757D02*
X3154Y757D01*
X3434Y757D02*
X3454Y757D01*
X3131Y756D02*
X3157Y756D01*
X3431Y756D02*
X3457Y756D01*
X3129Y755D02*
X3159Y755D01*
X3429Y755D02*
X3459Y755D01*
X3127Y754D02*
X3161Y754D01*
X3427Y754D02*
X3461Y754D01*
X3125Y753D02*
X3162Y753D01*
X3425Y753D02*
X3462Y753D01*
X3124Y752D02*
X3164Y752D01*
X3424Y752D02*
X3464Y752D01*
X3122Y751D02*
X3165Y751D01*
X3422Y751D02*
X3465Y751D01*
X3121Y750D02*
X3167Y750D01*
X3421Y750D02*
X3467Y750D01*
X3120Y749D02*
X3168Y749D01*
X3420Y749D02*
X3468Y749D01*
X3119Y748D02*
X3169Y748D01*
X3419Y748D02*
X3469Y748D01*
X3118Y747D02*
X3170Y747D01*
X3418Y747D02*
X3470Y747D01*
X3117Y746D02*
X3170Y746D01*
X3417Y746D02*
X3470Y746D01*
X3117Y745D02*
X3171Y745D01*
X3417Y745D02*
X3471Y745D01*
X3116Y744D02*
X3172Y744D01*
X3416Y744D02*
X3472Y744D01*
X3115Y743D02*
X3173Y743D01*
X3415Y743D02*
X3472Y743D01*
X3115Y742D02*
X3173Y742D01*
X3415Y742D02*
X3473Y742D01*
X3114Y741D02*
X3174Y741D01*
X3414Y741D02*
X3474Y741D01*
X3114Y740D02*
X3174Y740D01*
X3414Y740D02*
X3474Y740D01*
X3113Y739D02*
X3175Y739D01*
X3413Y739D02*
X3475Y739D01*
X3113Y738D02*
X3138Y738D01*
X3150Y738D02*
X3175Y738D01*
X3413Y738D02*
X3438Y738D01*
X3450Y738D02*
X3475Y738D01*
X3112Y737D02*
X3136Y737D01*
X3152Y737D02*
X3176Y737D01*
X3412Y737D02*
X3436Y737D01*
X3452Y737D02*
X3476Y737D01*
X3112Y736D02*
X3135Y736D01*
X3153Y736D02*
X3176Y736D01*
X3412Y736D02*
X3435Y736D01*
X3453Y736D02*
X3476Y736D01*
X3111Y735D02*
X3133Y735D01*
X3154Y735D02*
X3176Y735D01*
X3411Y735D02*
X3433Y735D01*
X3454Y735D02*
X3476Y735D01*
X3111Y734D02*
X3132Y734D01*
X3155Y734D02*
X3177Y734D01*
X3411Y734D02*
X3432Y734D01*
X3455Y734D02*
X3477Y734D01*
X3111Y733D02*
X3132Y733D01*
X3156Y733D02*
X3177Y733D01*
X3411Y733D02*
X3432Y733D01*
X3456Y733D02*
X3477Y733D01*
X3111Y732D02*
X3131Y732D01*
X3157Y732D02*
X3177Y732D01*
X3411Y732D02*
X3431Y732D01*
X3457Y732D02*
X3477Y732D01*
X3110Y731D02*
X3130Y731D01*
X3158Y731D02*
X3178Y731D01*
X3410Y731D02*
X3430Y731D01*
X3458Y731D02*
X3477Y731D01*
X3110Y730D02*
X3130Y730D01*
X3158Y730D02*
X3178Y730D01*
X3410Y730D02*
X3430Y730D01*
X3458Y730D02*
X3478Y730D01*
X3110Y729D02*
X3129Y729D01*
X3159Y729D02*
X3178Y729D01*
X3410Y729D02*
X3429Y729D01*
X3459Y729D02*
X3478Y729D01*
X3110Y728D02*
X3129Y728D01*
X3159Y728D02*
X3178Y728D01*
X3410Y728D02*
X3429Y728D01*
X3459Y728D02*
X3478Y728D01*
X3110Y727D02*
X3129Y727D01*
X3159Y727D02*
X3178Y727D01*
X3410Y727D02*
X3429Y727D01*
X3459Y727D02*
X3478Y727D01*
X3110Y726D02*
X3129Y726D01*
X3159Y726D02*
X3178Y726D01*
X3409Y726D02*
X3429Y726D01*
X3459Y726D02*
X3478Y726D01*
X3109Y725D02*
X3129Y725D01*
X3159Y725D02*
X3178Y725D01*
X3409Y725D02*
X3428Y725D01*
X3459Y725D02*
X3478Y725D01*
X3109Y724D02*
X3128Y724D01*
X3159Y724D02*
X3178Y724D01*
X3409Y724D02*
X3428Y724D01*
X3459Y724D02*
X3478Y724D01*
X3109Y723D02*
X3128Y723D01*
X3159Y723D02*
X3178Y723D01*
X3409Y723D02*
X3428Y723D01*
X3459Y723D02*
X3478Y723D01*
X3110Y722D02*
X3129Y722D01*
X3159Y722D02*
X3178Y722D01*
X3409Y722D02*
X3429Y722D01*
X3459Y722D02*
X3478Y722D01*
X3110Y721D02*
X3129Y721D01*
X3159Y721D02*
X3178Y721D01*
X3410Y721D02*
X3429Y721D01*
X3459Y721D02*
X3478Y721D01*
X3110Y720D02*
X3129Y720D01*
X3159Y720D02*
X3178Y720D01*
X3410Y720D02*
X3429Y720D01*
X3459Y720D02*
X3478Y720D01*
X3110Y719D02*
X3129Y719D01*
X3159Y719D02*
X3178Y719D01*
X3410Y719D02*
X3429Y719D01*
X3459Y719D02*
X3478Y719D01*
X3110Y718D02*
X3129Y718D01*
X3158Y718D02*
X3178Y718D01*
X3410Y718D02*
X3429Y718D01*
X3458Y718D02*
X3478Y718D01*
X3110Y717D02*
X3130Y717D01*
X3158Y717D02*
X3178Y717D01*
X3410Y717D02*
X3430Y717D01*
X3458Y717D02*
X3478Y717D01*
X3110Y716D02*
X3131Y716D01*
X3157Y716D02*
X3177Y716D01*
X3410Y716D02*
X3430Y716D01*
X3457Y716D02*
X3477Y716D01*
X3111Y715D02*
X3131Y715D01*
X3157Y715D02*
X3177Y715D01*
X3411Y715D02*
X3431Y715D01*
X3457Y715D02*
X3477Y715D01*
X3111Y714D02*
X3132Y714D01*
X3156Y714D02*
X3177Y714D01*
X3411Y714D02*
X3432Y714D01*
X3456Y714D02*
X3477Y714D01*
X3111Y713D02*
X3133Y713D01*
X3155Y713D02*
X3177Y713D01*
X3411Y713D02*
X3433Y713D01*
X3455Y713D02*
X3476Y713D01*
X3112Y712D02*
X3134Y712D01*
X3154Y712D02*
X3176Y712D01*
X3412Y712D02*
X3434Y712D01*
X3454Y712D02*
X3476Y712D01*
X3112Y711D02*
X3135Y711D01*
X3152Y711D02*
X3176Y711D01*
X3412Y711D02*
X3435Y711D01*
X3452Y711D02*
X3476Y711D01*
X3112Y710D02*
X3137Y710D01*
X3151Y710D02*
X3175Y710D01*
X3412Y710D02*
X3437Y710D01*
X3451Y710D02*
X3475Y710D01*
X3113Y709D02*
X3141Y709D01*
X3147Y709D02*
X3175Y709D01*
X3413Y709D02*
X3441Y709D01*
X3447Y709D02*
X3475Y709D01*
X3113Y708D02*
X3174Y708D01*
X3413Y708D02*
X3474Y708D01*
X3114Y707D02*
X3174Y707D01*
X3414Y707D02*
X3474Y707D01*
X3115Y706D02*
X3173Y706D01*
X3414Y706D02*
X3473Y706D01*
X3115Y705D02*
X3173Y705D01*
X3415Y705D02*
X3473Y705D01*
X3116Y704D02*
X3172Y704D01*
X3416Y704D02*
X3472Y704D01*
X3116Y703D02*
X3171Y703D01*
X3416Y703D02*
X3471Y703D01*
X3117Y702D02*
X3171Y702D01*
X3417Y702D02*
X3471Y702D01*
X3118Y701D02*
X3170Y701D01*
X3418Y701D02*
X3470Y701D01*
X3119Y700D02*
X3169Y700D01*
X3419Y700D02*
X3469Y700D01*
X3120Y699D02*
X3168Y699D01*
X3420Y699D02*
X3468Y699D01*
X3121Y698D02*
X3167Y698D01*
X3421Y698D02*
X3467Y698D01*
X3122Y697D02*
X3166Y697D01*
X3422Y697D02*
X3466Y697D01*
X3123Y696D02*
X3164Y696D01*
X3423Y696D02*
X3464Y696D01*
X3125Y695D02*
X3163Y695D01*
X3425Y695D02*
X3463Y695D01*
X3126Y694D02*
X3161Y694D01*
X3426Y694D02*
X3461Y694D01*
X3128Y693D02*
X3160Y693D01*
X3428Y693D02*
X3460Y693D01*
X3130Y692D02*
X3157Y692D01*
X3430Y692D02*
X3457Y692D01*
X3133Y691D02*
X3155Y691D01*
X3433Y691D02*
X3455Y691D01*
X3136Y690D02*
X3152Y690D01*
X3436Y690D02*
X3452Y690D01*
X3141Y689D02*
X3147Y689D01*
X3441Y689D02*
X3447Y689D01*
X3137Y658D02*
X3150Y658D01*
X3437Y658D02*
X3450Y658D01*
X3134Y657D02*
X3154Y657D01*
X3434Y657D02*
X3454Y657D01*
X3131Y656D02*
X3157Y656D01*
X3431Y656D02*
X3457Y656D01*
X3129Y655D02*
X3159Y655D01*
X3429Y655D02*
X3459Y655D01*
X3127Y654D02*
X3161Y654D01*
X3427Y654D02*
X3461Y654D01*
X3125Y653D02*
X3163Y653D01*
X3425Y653D02*
X3462Y653D01*
X3124Y652D02*
X3164Y652D01*
X3424Y652D02*
X3464Y652D01*
X3122Y651D02*
X3165Y651D01*
X3422Y651D02*
X3465Y651D01*
X3121Y650D02*
X3167Y650D01*
X3421Y650D02*
X3467Y650D01*
X3120Y649D02*
X3168Y649D01*
X3420Y649D02*
X3468Y649D01*
X3119Y648D02*
X3169Y648D01*
X3419Y648D02*
X3469Y648D01*
X3118Y647D02*
X3170Y647D01*
X3418Y647D02*
X3470Y647D01*
X3117Y646D02*
X3170Y646D01*
X3417Y646D02*
X3470Y646D01*
X3117Y645D02*
X3171Y645D01*
X3417Y645D02*
X3471Y645D01*
X3116Y644D02*
X3172Y644D01*
X3416Y644D02*
X3472Y644D01*
X3115Y643D02*
X3173Y643D01*
X3415Y643D02*
X3472Y643D01*
X3115Y642D02*
X3173Y642D01*
X3415Y642D02*
X3473Y642D01*
X3114Y641D02*
X3174Y641D01*
X3414Y641D02*
X3474Y641D01*
X3114Y640D02*
X3174Y640D01*
X3414Y640D02*
X3474Y640D01*
X3113Y639D02*
X3175Y639D01*
X3413Y639D02*
X3475Y639D01*
X3113Y638D02*
X3138Y638D01*
X3150Y638D02*
X3175Y638D01*
X3413Y638D02*
X3438Y638D01*
X3450Y638D02*
X3475Y638D01*
X3112Y637D02*
X3136Y637D01*
X3152Y637D02*
X3176Y637D01*
X3412Y637D02*
X3436Y637D01*
X3452Y637D02*
X3476Y637D01*
X3112Y636D02*
X3135Y636D01*
X3153Y636D02*
X3176Y636D01*
X3412Y636D02*
X3435Y636D01*
X3453Y636D02*
X3476Y636D01*
X3111Y635D02*
X3133Y635D01*
X3154Y635D02*
X3176Y635D01*
X3411Y635D02*
X3433Y635D01*
X3454Y635D02*
X3476Y635D01*
X3111Y634D02*
X3132Y634D01*
X3155Y634D02*
X3177Y634D01*
X3411Y634D02*
X3432Y634D01*
X3455Y634D02*
X3477Y634D01*
X3111Y633D02*
X3132Y633D01*
X3156Y633D02*
X3177Y633D01*
X3411Y633D02*
X3432Y633D01*
X3456Y633D02*
X3477Y633D01*
X3111Y632D02*
X3131Y632D01*
X3157Y632D02*
X3177Y632D01*
X3411Y632D02*
X3431Y632D01*
X3457Y632D02*
X3477Y632D01*
X3110Y631D02*
X3130Y631D01*
X3158Y631D02*
X3178Y631D01*
X3410Y631D02*
X3430Y631D01*
X3458Y631D02*
X3477Y631D01*
X3110Y630D02*
X3130Y630D01*
X3158Y630D02*
X3178Y630D01*
X3410Y630D02*
X3430Y630D01*
X3458Y630D02*
X3478Y630D01*
X3110Y629D02*
X3129Y629D01*
X3159Y629D02*
X3178Y629D01*
X3410Y629D02*
X3429Y629D01*
X3459Y629D02*
X3478Y629D01*
X3110Y628D02*
X3129Y628D01*
X3159Y628D02*
X3178Y628D01*
X3410Y628D02*
X3429Y628D01*
X3459Y628D02*
X3478Y628D01*
X3110Y627D02*
X3129Y627D01*
X3159Y627D02*
X3178Y627D01*
X3410Y627D02*
X3429Y627D01*
X3459Y627D02*
X3478Y627D01*
X3110Y626D02*
X3129Y626D01*
X3159Y626D02*
X3178Y626D01*
X3409Y626D02*
X3429Y626D01*
X3459Y626D02*
X3478Y626D01*
X3109Y625D02*
X3129Y625D01*
X3159Y625D02*
X3178Y625D01*
X3409Y625D02*
X3428Y625D01*
X3459Y625D02*
X3478Y625D01*
X3109Y624D02*
X3128Y624D01*
X3159Y624D02*
X3178Y624D01*
X3409Y624D02*
X3428Y624D01*
X3459Y624D02*
X3478Y624D01*
X3109Y623D02*
X3128Y623D01*
X3159Y623D02*
X3178Y623D01*
X3409Y623D02*
X3428Y623D01*
X3459Y623D02*
X3478Y623D01*
X3110Y622D02*
X3129Y622D01*
X3159Y622D02*
X3178Y622D01*
X3409Y622D02*
X3429Y622D01*
X3459Y622D02*
X3478Y622D01*
X3110Y621D02*
X3129Y621D01*
X3159Y621D02*
X3178Y621D01*
X3410Y621D02*
X3429Y621D01*
X3459Y621D02*
X3478Y621D01*
X3110Y620D02*
X3129Y620D01*
X3159Y620D02*
X3178Y620D01*
X3410Y620D02*
X3429Y620D01*
X3459Y620D02*
X3478Y620D01*
X3110Y619D02*
X3129Y619D01*
X3159Y619D02*
X3178Y619D01*
X3410Y619D02*
X3429Y619D01*
X3459Y619D02*
X3478Y619D01*
X3110Y618D02*
X3129Y618D01*
X3158Y618D02*
X3178Y618D01*
X3410Y618D02*
X3429Y618D01*
X3458Y618D02*
X3478Y618D01*
X3110Y617D02*
X3130Y617D01*
X3158Y617D02*
X3178Y617D01*
X3410Y617D02*
X3430Y617D01*
X3458Y617D02*
X3478Y617D01*
X3110Y616D02*
X3131Y616D01*
X3157Y616D02*
X3177Y616D01*
X3410Y616D02*
X3430Y616D01*
X3457Y616D02*
X3477Y616D01*
X3111Y615D02*
X3131Y615D01*
X3157Y615D02*
X3177Y615D01*
X3411Y615D02*
X3431Y615D01*
X3457Y615D02*
X3477Y615D01*
X3111Y614D02*
X3132Y614D01*
X3156Y614D02*
X3177Y614D01*
X3411Y614D02*
X3432Y614D01*
X3456Y614D02*
X3477Y614D01*
X3111Y613D02*
X3133Y613D01*
X3155Y613D02*
X3176Y613D01*
X3411Y613D02*
X3433Y613D01*
X3455Y613D02*
X3476Y613D01*
X3112Y612D02*
X3134Y612D01*
X3154Y612D02*
X3176Y612D01*
X3412Y612D02*
X3434Y612D01*
X3454Y612D02*
X3476Y612D01*
X3112Y611D02*
X3135Y611D01*
X3152Y611D02*
X3176Y611D01*
X3412Y611D02*
X3435Y611D01*
X3452Y611D02*
X3476Y611D01*
X3112Y610D02*
X3137Y610D01*
X3151Y610D02*
X3175Y610D01*
X3412Y610D02*
X3437Y610D01*
X3451Y610D02*
X3475Y610D01*
X3113Y609D02*
X3141Y609D01*
X3147Y609D02*
X3175Y609D01*
X3413Y609D02*
X3441Y609D01*
X3447Y609D02*
X3475Y609D01*
X3113Y608D02*
X3174Y608D01*
X3413Y608D02*
X3474Y608D01*
X3114Y607D02*
X3174Y607D01*
X3414Y607D02*
X3474Y607D01*
X3115Y606D02*
X3173Y606D01*
X3414Y606D02*
X3473Y606D01*
X3115Y605D02*
X3173Y605D01*
X3415Y605D02*
X3473Y605D01*
X3116Y604D02*
X3172Y604D01*
X3416Y604D02*
X3472Y604D01*
X3116Y603D02*
X3171Y603D01*
X3416Y603D02*
X3471Y603D01*
X3117Y602D02*
X3171Y602D01*
X3417Y602D02*
X3471Y602D01*
X3118Y601D02*
X3170Y601D01*
X3418Y601D02*
X3470Y601D01*
X3119Y600D02*
X3169Y600D01*
X3419Y600D02*
X3469Y600D01*
X3120Y599D02*
X3168Y599D01*
X3420Y599D02*
X3468Y599D01*
X3121Y598D02*
X3167Y598D01*
X3421Y598D02*
X3467Y598D01*
X3122Y597D02*
X3166Y597D01*
X3422Y597D02*
X3466Y597D01*
X3123Y596D02*
X3164Y596D01*
X3423Y596D02*
X3464Y596D01*
X3125Y595D02*
X3163Y595D01*
X3425Y595D02*
X3463Y595D01*
X3126Y594D02*
X3161Y594D01*
X3426Y594D02*
X3461Y594D01*
X3128Y593D02*
X3160Y593D01*
X3428Y593D02*
X3460Y593D01*
X3130Y592D02*
X3157Y592D01*
X3430Y592D02*
X3457Y592D01*
X3133Y591D02*
X3155Y591D01*
X3433Y591D02*
X3455Y591D01*
X3136Y590D02*
X3152Y590D01*
X3436Y590D02*
X3452Y590D01*
X3142Y589D02*
X3146Y589D01*
X3442Y589D02*
X3446Y589D01*
X3137Y558D02*
X3151Y558D01*
X3437Y558D02*
X3450Y558D01*
X3134Y557D02*
X3154Y557D01*
X3434Y557D02*
X3454Y557D01*
X3131Y556D02*
X3157Y556D01*
X3431Y556D02*
X3457Y556D01*
X3129Y555D02*
X3159Y555D01*
X3429Y555D02*
X3459Y555D01*
X3127Y554D02*
X3161Y554D01*
X3427Y554D02*
X3461Y554D01*
X3125Y553D02*
X3163Y553D01*
X3425Y553D02*
X3462Y553D01*
X3124Y552D02*
X3164Y552D01*
X3424Y552D02*
X3464Y552D01*
X3122Y551D02*
X3165Y551D01*
X3422Y551D02*
X3465Y551D01*
X3121Y550D02*
X3167Y550D01*
X3421Y550D02*
X3467Y550D01*
X3120Y549D02*
X3168Y549D01*
X3420Y549D02*
X3468Y549D01*
X3119Y548D02*
X3169Y548D01*
X3419Y548D02*
X3469Y548D01*
X3118Y547D02*
X3170Y547D01*
X3418Y547D02*
X3470Y547D01*
X3117Y546D02*
X3170Y546D01*
X3417Y546D02*
X3470Y546D01*
X3117Y545D02*
X3171Y545D01*
X3417Y545D02*
X3471Y545D01*
X3116Y544D02*
X3172Y544D01*
X3416Y544D02*
X3472Y544D01*
X3115Y543D02*
X3173Y543D01*
X3415Y543D02*
X3472Y543D01*
X3115Y542D02*
X3173Y542D01*
X3415Y542D02*
X3473Y542D01*
X3114Y541D02*
X3174Y541D01*
X3414Y541D02*
X3474Y541D01*
X3114Y540D02*
X3174Y540D01*
X3414Y540D02*
X3474Y540D01*
X3113Y539D02*
X3175Y539D01*
X3413Y539D02*
X3475Y539D01*
X3113Y538D02*
X3138Y538D01*
X3150Y538D02*
X3175Y538D01*
X3413Y538D02*
X3438Y538D01*
X3450Y538D02*
X3475Y538D01*
X3112Y537D02*
X3136Y537D01*
X3152Y537D02*
X3176Y537D01*
X3412Y537D02*
X3436Y537D01*
X3452Y537D02*
X3476Y537D01*
X3112Y536D02*
X3135Y536D01*
X3153Y536D02*
X3176Y536D01*
X3412Y536D02*
X3435Y536D01*
X3453Y536D02*
X3476Y536D01*
X3111Y535D02*
X3133Y535D01*
X3154Y535D02*
X3176Y535D01*
X3411Y535D02*
X3433Y535D01*
X3454Y535D02*
X3476Y535D01*
X3111Y534D02*
X3132Y534D01*
X3155Y534D02*
X3177Y534D01*
X3411Y534D02*
X3432Y534D01*
X3455Y534D02*
X3477Y534D01*
X3111Y533D02*
X3132Y533D01*
X3156Y533D02*
X3177Y533D01*
X3411Y533D02*
X3431Y533D01*
X3456Y533D02*
X3477Y533D01*
X3111Y532D02*
X3131Y532D01*
X3157Y532D02*
X3177Y532D01*
X3411Y532D02*
X3431Y532D01*
X3457Y532D02*
X3477Y532D01*
X3110Y531D02*
X3130Y531D01*
X3158Y531D02*
X3178Y531D01*
X3410Y531D02*
X3430Y531D01*
X3458Y531D02*
X3477Y531D01*
X3110Y530D02*
X3130Y530D01*
X3158Y530D02*
X3178Y530D01*
X3410Y530D02*
X3430Y530D01*
X3458Y530D02*
X3478Y530D01*
X3110Y529D02*
X3129Y529D01*
X3159Y529D02*
X3178Y529D01*
X3410Y529D02*
X3429Y529D01*
X3459Y529D02*
X3478Y529D01*
X3110Y528D02*
X3129Y528D01*
X3159Y528D02*
X3178Y528D01*
X3410Y528D02*
X3429Y528D01*
X3459Y528D02*
X3478Y528D01*
X3110Y527D02*
X3129Y527D01*
X3159Y527D02*
X3178Y527D01*
X3410Y527D02*
X3429Y527D01*
X3459Y527D02*
X3478Y527D01*
X3110Y526D02*
X3129Y526D01*
X3159Y526D02*
X3178Y526D01*
X3409Y526D02*
X3429Y526D01*
X3459Y526D02*
X3478Y526D01*
X3109Y525D02*
X3129Y525D01*
X3159Y525D02*
X3178Y525D01*
X3409Y525D02*
X3428Y525D01*
X3459Y525D02*
X3478Y525D01*
X3109Y524D02*
X3128Y524D01*
X3159Y524D02*
X3178Y524D01*
X3409Y524D02*
X3428Y524D01*
X3459Y524D02*
X3478Y524D01*
X3109Y523D02*
X3128Y523D01*
X3159Y523D02*
X3178Y523D01*
X3409Y523D02*
X3428Y523D01*
X3459Y523D02*
X3478Y523D01*
X3110Y522D02*
X3129Y522D01*
X3159Y522D02*
X3178Y522D01*
X3409Y522D02*
X3429Y522D01*
X3459Y522D02*
X3478Y522D01*
X3110Y521D02*
X3129Y521D01*
X3159Y521D02*
X3178Y521D01*
X3410Y521D02*
X3429Y521D01*
X3459Y521D02*
X3478Y521D01*
X3110Y520D02*
X3129Y520D01*
X3159Y520D02*
X3178Y520D01*
X3410Y520D02*
X3429Y520D01*
X3459Y520D02*
X3478Y520D01*
X3110Y519D02*
X3129Y519D01*
X3159Y519D02*
X3178Y519D01*
X3410Y519D02*
X3429Y519D01*
X3459Y519D02*
X3478Y519D01*
X3110Y518D02*
X3129Y518D01*
X3158Y518D02*
X3178Y518D01*
X3410Y518D02*
X3429Y518D01*
X3458Y518D02*
X3478Y518D01*
X3110Y517D02*
X3130Y517D01*
X3158Y517D02*
X3178Y517D01*
X3410Y517D02*
X3430Y517D01*
X3458Y517D02*
X3478Y517D01*
X3110Y516D02*
X3131Y516D01*
X3157Y516D02*
X3177Y516D01*
X3410Y516D02*
X3430Y516D01*
X3457Y516D02*
X3477Y516D01*
X3111Y515D02*
X3131Y515D01*
X3157Y515D02*
X3177Y515D01*
X3411Y515D02*
X3431Y515D01*
X3456Y515D02*
X3477Y515D01*
X3111Y514D02*
X3132Y514D01*
X3156Y514D02*
X3177Y514D01*
X3411Y514D02*
X3432Y514D01*
X3456Y514D02*
X3477Y514D01*
X3111Y513D02*
X3133Y513D01*
X3155Y513D02*
X3176Y513D01*
X3411Y513D02*
X3433Y513D01*
X3455Y513D02*
X3476Y513D01*
X3112Y512D02*
X3134Y512D01*
X3154Y512D02*
X3176Y512D01*
X3412Y512D02*
X3434Y512D01*
X3454Y512D02*
X3476Y512D01*
X3112Y511D02*
X3136Y511D01*
X3152Y511D02*
X3176Y511D01*
X3412Y511D02*
X3435Y511D01*
X3452Y511D02*
X3476Y511D01*
X3112Y510D02*
X3137Y510D01*
X3151Y510D02*
X3175Y510D01*
X3412Y510D02*
X3437Y510D01*
X3450Y510D02*
X3475Y510D01*
X3113Y509D02*
X3141Y509D01*
X3146Y509D02*
X3175Y509D01*
X3413Y509D02*
X3441Y509D01*
X3446Y509D02*
X3475Y509D01*
X3113Y508D02*
X3174Y508D01*
X3413Y508D02*
X3474Y508D01*
X3114Y507D02*
X3174Y507D01*
X3414Y507D02*
X3474Y507D01*
X3115Y506D02*
X3173Y506D01*
X3414Y506D02*
X3473Y506D01*
X3115Y505D02*
X3173Y505D01*
X3415Y505D02*
X3473Y505D01*
X3116Y504D02*
X3172Y504D01*
X3416Y504D02*
X3472Y504D01*
X3116Y503D02*
X3171Y503D01*
X3416Y503D02*
X3471Y503D01*
X3117Y502D02*
X3171Y502D01*
X3417Y502D02*
X3471Y502D01*
X3118Y501D02*
X3170Y501D01*
X3418Y501D02*
X3470Y501D01*
X3119Y500D02*
X3169Y500D01*
X3419Y500D02*
X3469Y500D01*
X3120Y499D02*
X3168Y499D01*
X3420Y499D02*
X3468Y499D01*
X3121Y498D02*
X3167Y498D01*
X3421Y498D02*
X3467Y498D01*
X3122Y497D02*
X3166Y497D01*
X3422Y497D02*
X3466Y497D01*
X3123Y496D02*
X3164Y496D01*
X3423Y496D02*
X3464Y496D01*
X3125Y495D02*
X3163Y495D01*
X3425Y495D02*
X3463Y495D01*
X3126Y494D02*
X3161Y494D01*
X3426Y494D02*
X3461Y494D01*
X3128Y493D02*
X3160Y493D01*
X3428Y493D02*
X3459Y493D01*
X3130Y492D02*
X3157Y492D01*
X3430Y492D02*
X3457Y492D01*
X3133Y491D02*
X3155Y491D01*
X3433Y491D02*
X3455Y491D01*
X3136Y490D02*
X3152Y490D01*
X3436Y490D02*
X3452Y490D01*
X3142Y489D02*
X3146Y489D01*
X3442Y489D02*
X3446Y489D01*
X3137Y458D02*
X3151Y458D01*
X3437Y458D02*
X3451Y458D01*
X3134Y457D02*
X3154Y457D01*
X3434Y457D02*
X3454Y457D01*
X3131Y456D02*
X3157Y456D01*
X3431Y456D02*
X3457Y456D01*
X3129Y455D02*
X3159Y455D01*
X3429Y455D02*
X3459Y455D01*
X3127Y454D02*
X3161Y454D01*
X3427Y454D02*
X3461Y454D01*
X3125Y453D02*
X3163Y453D01*
X3425Y453D02*
X3463Y453D01*
X3124Y452D02*
X3164Y452D01*
X3424Y452D02*
X3464Y452D01*
X3122Y451D02*
X3165Y451D01*
X3422Y451D02*
X3465Y451D01*
X3121Y450D02*
X3167Y450D01*
X3421Y450D02*
X3467Y450D01*
X3120Y449D02*
X3168Y449D01*
X3420Y449D02*
X3468Y449D01*
X3119Y448D02*
X3169Y448D01*
X3419Y448D02*
X3469Y448D01*
X3118Y447D02*
X3170Y447D01*
X3418Y447D02*
X3470Y447D01*
X3117Y446D02*
X3170Y446D01*
X3417Y446D02*
X3470Y446D01*
X3117Y445D02*
X3171Y445D01*
X3417Y445D02*
X3471Y445D01*
X3116Y444D02*
X3172Y444D01*
X3416Y444D02*
X3472Y444D01*
X3115Y443D02*
X3173Y443D01*
X3415Y443D02*
X3472Y443D01*
X3115Y442D02*
X3173Y442D01*
X3415Y442D02*
X3473Y442D01*
X3114Y441D02*
X3174Y441D01*
X3414Y441D02*
X3474Y441D01*
X3114Y440D02*
X3174Y440D01*
X3414Y440D02*
X3474Y440D01*
X3113Y439D02*
X3175Y439D01*
X3413Y439D02*
X3475Y439D01*
X3113Y438D02*
X3138Y438D01*
X3150Y438D02*
X3175Y438D01*
X3413Y438D02*
X3438Y438D01*
X3450Y438D02*
X3475Y438D01*
X3112Y437D02*
X3136Y437D01*
X3152Y437D02*
X3176Y437D01*
X3412Y437D02*
X3436Y437D01*
X3452Y437D02*
X3476Y437D01*
X3112Y436D02*
X3135Y436D01*
X3153Y436D02*
X3176Y436D01*
X3412Y436D02*
X3435Y436D01*
X3453Y436D02*
X3476Y436D01*
X3111Y435D02*
X3133Y435D01*
X3154Y435D02*
X3176Y435D01*
X3411Y435D02*
X3433Y435D01*
X3454Y435D02*
X3476Y435D01*
X3111Y434D02*
X3132Y434D01*
X3155Y434D02*
X3177Y434D01*
X3411Y434D02*
X3432Y434D01*
X3455Y434D02*
X3477Y434D01*
X3111Y433D02*
X3132Y433D01*
X3156Y433D02*
X3177Y433D01*
X3411Y433D02*
X3431Y433D01*
X3456Y433D02*
X3477Y433D01*
X3111Y432D02*
X3131Y432D01*
X3157Y432D02*
X3177Y432D01*
X3410Y432D02*
X3431Y432D01*
X3457Y432D02*
X3477Y432D01*
X3110Y431D02*
X3130Y431D01*
X3158Y431D02*
X3178Y431D01*
X3410Y431D02*
X3430Y431D01*
X3458Y431D02*
X3478Y431D01*
X3110Y430D02*
X3130Y430D01*
X3158Y430D02*
X3178Y430D01*
X3410Y430D02*
X3430Y430D01*
X3458Y430D02*
X3478Y430D01*
X3110Y429D02*
X3129Y429D01*
X3159Y429D02*
X3178Y429D01*
X3410Y429D02*
X3429Y429D01*
X3459Y429D02*
X3478Y429D01*
X3110Y428D02*
X3129Y428D01*
X3159Y428D02*
X3178Y428D01*
X3410Y428D02*
X3429Y428D01*
X3459Y428D02*
X3478Y428D01*
X3110Y427D02*
X3129Y427D01*
X3159Y427D02*
X3178Y427D01*
X3410Y427D02*
X3429Y427D01*
X3459Y427D02*
X3478Y427D01*
X3110Y426D02*
X3129Y426D01*
X3159Y426D02*
X3178Y426D01*
X3409Y426D02*
X3429Y426D01*
X3459Y426D02*
X3478Y426D01*
X3109Y425D02*
X3129Y425D01*
X3159Y425D02*
X3178Y425D01*
X3409Y425D02*
X3428Y425D01*
X3459Y425D02*
X3478Y425D01*
X3109Y424D02*
X3128Y424D01*
X3159Y424D02*
X3178Y424D01*
X3409Y424D02*
X3428Y424D01*
X3459Y424D02*
X3478Y424D01*
X3109Y423D02*
X3128Y423D01*
X3159Y423D02*
X3178Y423D01*
X3409Y423D02*
X3428Y423D01*
X3459Y423D02*
X3478Y423D01*
X3110Y422D02*
X3129Y422D01*
X3159Y422D02*
X3178Y422D01*
X3409Y422D02*
X3429Y422D01*
X3459Y422D02*
X3478Y422D01*
X3110Y421D02*
X3129Y421D01*
X3159Y421D02*
X3178Y421D01*
X3410Y421D02*
X3429Y421D01*
X3459Y421D02*
X3478Y421D01*
X3110Y420D02*
X3129Y420D01*
X3159Y420D02*
X3178Y420D01*
X3410Y420D02*
X3429Y420D01*
X3459Y420D02*
X3478Y420D01*
X3110Y419D02*
X3129Y419D01*
X3159Y419D02*
X3178Y419D01*
X3410Y419D02*
X3429Y419D01*
X3459Y419D02*
X3478Y419D01*
X3110Y418D02*
X3129Y418D01*
X3158Y418D02*
X3178Y418D01*
X3410Y418D02*
X3429Y418D01*
X3458Y418D02*
X3478Y418D01*
X3110Y417D02*
X3130Y417D01*
X3158Y417D02*
X3178Y417D01*
X3410Y417D02*
X3430Y417D01*
X3458Y417D02*
X3478Y417D01*
X3110Y416D02*
X3131Y416D01*
X3157Y416D02*
X3177Y416D01*
X3410Y416D02*
X3430Y416D01*
X3457Y416D02*
X3477Y416D01*
X3111Y415D02*
X3131Y415D01*
X3157Y415D02*
X3177Y415D01*
X3411Y415D02*
X3431Y415D01*
X3456Y415D02*
X3477Y415D01*
X3111Y414D02*
X3132Y414D01*
X3156Y414D02*
X3177Y414D01*
X3411Y414D02*
X3432Y414D01*
X3456Y414D02*
X3477Y414D01*
X3111Y413D02*
X3133Y413D01*
X3155Y413D02*
X3176Y413D01*
X3411Y413D02*
X3433Y413D01*
X3455Y413D02*
X3476Y413D01*
X3112Y412D02*
X3134Y412D01*
X3154Y412D02*
X3176Y412D01*
X3412Y412D02*
X3434Y412D01*
X3454Y412D02*
X3476Y412D01*
X3112Y411D02*
X3136Y411D01*
X3152Y411D02*
X3176Y411D01*
X3412Y411D02*
X3436Y411D01*
X3452Y411D02*
X3476Y411D01*
X3112Y410D02*
X3137Y410D01*
X3151Y410D02*
X3175Y410D01*
X3412Y410D02*
X3437Y410D01*
X3450Y410D02*
X3475Y410D01*
X3113Y409D02*
X3142Y409D01*
X3146Y409D02*
X3175Y409D01*
X3413Y409D02*
X3442Y409D01*
X3446Y409D02*
X3475Y409D01*
X3113Y408D02*
X3174Y408D01*
X3413Y408D02*
X3474Y408D01*
X3114Y407D02*
X3174Y407D01*
X3414Y407D02*
X3474Y407D01*
X3115Y406D02*
X3173Y406D01*
X3414Y406D02*
X3473Y406D01*
X3115Y405D02*
X3173Y405D01*
X3415Y405D02*
X3473Y405D01*
X3116Y404D02*
X3172Y404D01*
X3416Y404D02*
X3472Y404D01*
X3116Y403D02*
X3171Y403D01*
X3416Y403D02*
X3471Y403D01*
X3117Y402D02*
X3171Y402D01*
X3417Y402D02*
X3471Y402D01*
X3118Y401D02*
X3170Y401D01*
X3418Y401D02*
X3470Y401D01*
X3119Y400D02*
X3169Y400D01*
X3419Y400D02*
X3469Y400D01*
X3120Y399D02*
X3168Y399D01*
X3420Y399D02*
X3468Y399D01*
X3121Y398D02*
X3167Y398D01*
X3421Y398D02*
X3467Y398D01*
X3122Y397D02*
X3166Y397D01*
X3422Y397D02*
X3466Y397D01*
X3123Y396D02*
X3164Y396D01*
X3423Y396D02*
X3464Y396D01*
X3125Y395D02*
X3163Y395D01*
X3425Y395D02*
X3463Y395D01*
X3127Y394D02*
X3161Y394D01*
X3426Y394D02*
X3461Y394D01*
X3128Y393D02*
X3159Y393D01*
X3428Y393D02*
X3459Y393D01*
X3130Y392D02*
X3157Y392D01*
X3430Y392D02*
X3457Y392D01*
X3133Y391D02*
X3155Y391D01*
X3433Y391D02*
X3455Y391D01*
X3136Y390D02*
X3152Y390D01*
X3436Y390D02*
X3452Y390D01*
X3142Y389D02*
X3146Y389D01*
X3442Y389D02*
X3446Y389D01*
X3137Y358D02*
X3151Y358D01*
X3437Y358D02*
X3451Y358D01*
X3134Y357D02*
X3154Y357D01*
X3434Y357D02*
X3454Y357D01*
X3131Y356D02*
X3157Y356D01*
X3431Y356D02*
X3457Y356D01*
X3129Y355D02*
X3159Y355D01*
X3429Y355D02*
X3459Y355D01*
X3127Y354D02*
X3161Y354D01*
X3427Y354D02*
X3461Y354D01*
X3125Y353D02*
X3163Y353D01*
X3425Y353D02*
X3463Y353D01*
X3124Y352D02*
X3164Y352D01*
X3424Y352D02*
X3464Y352D01*
X3122Y351D02*
X3165Y351D01*
X3422Y351D02*
X3465Y351D01*
X3121Y350D02*
X3167Y350D01*
X3421Y350D02*
X3467Y350D01*
X3120Y349D02*
X3168Y349D01*
X3420Y349D02*
X3468Y349D01*
X3119Y348D02*
X3169Y348D01*
X3419Y348D02*
X3469Y348D01*
X3118Y347D02*
X3170Y347D01*
X3418Y347D02*
X3470Y347D01*
X3117Y346D02*
X3170Y346D01*
X3417Y346D02*
X3470Y346D01*
X3117Y345D02*
X3171Y345D01*
X3417Y345D02*
X3471Y345D01*
X3116Y344D02*
X3172Y344D01*
X3416Y344D02*
X3472Y344D01*
X3115Y343D02*
X3173Y343D01*
X3415Y343D02*
X3473Y343D01*
X3115Y342D02*
X3173Y342D01*
X3415Y342D02*
X3473Y342D01*
X3114Y341D02*
X3174Y341D01*
X3414Y341D02*
X3474Y341D01*
X3114Y340D02*
X3174Y340D01*
X3414Y340D02*
X3474Y340D01*
X3113Y339D02*
X3175Y339D01*
X3413Y339D02*
X3475Y339D01*
X3113Y338D02*
X3138Y338D01*
X3150Y338D02*
X3175Y338D01*
X3413Y338D02*
X3438Y338D01*
X3450Y338D02*
X3475Y338D01*
X3112Y337D02*
X3136Y337D01*
X3152Y337D02*
X3176Y337D01*
X3412Y337D02*
X3436Y337D01*
X3452Y337D02*
X3476Y337D01*
X3112Y336D02*
X3135Y336D01*
X3153Y336D02*
X3176Y336D01*
X3412Y336D02*
X3434Y336D01*
X3453Y336D02*
X3476Y336D01*
X3111Y335D02*
X3133Y335D01*
X3154Y335D02*
X3176Y335D01*
X3411Y335D02*
X3433Y335D01*
X3454Y335D02*
X3476Y335D01*
X3111Y334D02*
X3132Y334D01*
X3155Y334D02*
X3177Y334D01*
X3411Y334D02*
X3432Y334D01*
X3455Y334D02*
X3477Y334D01*
X3111Y333D02*
X3132Y333D01*
X3156Y333D02*
X3177Y333D01*
X3411Y333D02*
X3431Y333D01*
X3456Y333D02*
X3477Y333D01*
X3111Y332D02*
X3131Y332D01*
X3157Y332D02*
X3177Y332D01*
X3410Y332D02*
X3431Y332D01*
X3457Y332D02*
X3477Y332D01*
X3110Y331D02*
X3130Y331D01*
X3158Y331D02*
X3178Y331D01*
X3410Y331D02*
X3430Y331D01*
X3458Y331D02*
X3478Y331D01*
X3110Y330D02*
X3130Y330D01*
X3158Y330D02*
X3178Y330D01*
X3410Y330D02*
X3430Y330D01*
X3458Y330D02*
X3478Y330D01*
X3110Y329D02*
X3129Y329D01*
X3159Y329D02*
X3178Y329D01*
X3410Y329D02*
X3429Y329D01*
X3459Y329D02*
X3478Y329D01*
X3110Y328D02*
X3129Y328D01*
X3159Y328D02*
X3178Y328D01*
X3410Y328D02*
X3429Y328D01*
X3459Y328D02*
X3478Y328D01*
X3110Y327D02*
X3129Y327D01*
X3159Y327D02*
X3178Y327D01*
X3410Y327D02*
X3429Y327D01*
X3459Y327D02*
X3478Y327D01*
X3110Y326D02*
X3129Y326D01*
X3159Y326D02*
X3178Y326D01*
X3409Y326D02*
X3429Y326D01*
X3459Y326D02*
X3478Y326D01*
X3109Y325D02*
X3129Y325D01*
X3159Y325D02*
X3178Y325D01*
X3409Y325D02*
X3428Y325D01*
X3459Y325D02*
X3478Y325D01*
X3109Y324D02*
X3128Y324D01*
X3159Y324D02*
X3178Y324D01*
X3409Y324D02*
X3428Y324D01*
X3459Y324D02*
X3478Y324D01*
X3109Y323D02*
X3128Y323D01*
X3159Y323D02*
X3178Y323D01*
X3409Y323D02*
X3428Y323D01*
X3459Y323D02*
X3478Y323D01*
X3110Y322D02*
X3129Y322D01*
X3159Y322D02*
X3178Y322D01*
X3409Y322D02*
X3429Y322D01*
X3459Y322D02*
X3478Y322D01*
X3110Y321D02*
X3129Y321D01*
X3159Y321D02*
X3178Y321D01*
X3410Y321D02*
X3429Y321D01*
X3459Y321D02*
X3478Y321D01*
X3110Y320D02*
X3129Y320D01*
X3159Y320D02*
X3178Y320D01*
X3410Y320D02*
X3429Y320D01*
X3459Y320D02*
X3478Y320D01*
X3110Y319D02*
X3129Y319D01*
X3159Y319D02*
X3178Y319D01*
X3410Y319D02*
X3429Y319D01*
X3459Y319D02*
X3478Y319D01*
X3110Y318D02*
X3129Y318D01*
X3158Y318D02*
X3178Y318D01*
X3410Y318D02*
X3429Y318D01*
X3458Y318D02*
X3478Y318D01*
X3110Y317D02*
X3130Y317D01*
X3158Y317D02*
X3178Y317D01*
X3410Y317D02*
X3430Y317D01*
X3458Y317D02*
X3478Y317D01*
X3110Y316D02*
X3131Y316D01*
X3157Y316D02*
X3177Y316D01*
X3410Y316D02*
X3431Y316D01*
X3457Y316D02*
X3477Y316D01*
X3111Y315D02*
X3131Y315D01*
X3157Y315D02*
X3177Y315D01*
X3411Y315D02*
X3431Y315D01*
X3456Y315D02*
X3477Y315D01*
X3111Y314D02*
X3132Y314D01*
X3156Y314D02*
X3177Y314D01*
X3411Y314D02*
X3432Y314D01*
X3456Y314D02*
X3477Y314D01*
X3111Y313D02*
X3133Y313D01*
X3155Y313D02*
X3176Y313D01*
X3411Y313D02*
X3433Y313D01*
X3455Y313D02*
X3476Y313D01*
X3112Y312D02*
X3134Y312D01*
X3154Y312D02*
X3176Y312D01*
X3412Y312D02*
X3434Y312D01*
X3454Y312D02*
X3476Y312D01*
X3112Y311D02*
X3136Y311D01*
X3152Y311D02*
X3176Y311D01*
X3412Y311D02*
X3436Y311D01*
X3452Y311D02*
X3476Y311D01*
X3112Y310D02*
X3137Y310D01*
X3150Y310D02*
X3175Y310D01*
X3412Y310D02*
X3437Y310D01*
X3450Y310D02*
X3475Y310D01*
X3113Y309D02*
X3142Y309D01*
X3146Y309D02*
X3175Y309D01*
X3413Y309D02*
X3442Y309D01*
X3446Y309D02*
X3475Y309D01*
X3113Y308D02*
X3174Y308D01*
X3413Y308D02*
X3474Y308D01*
X3114Y307D02*
X3174Y307D01*
X3414Y307D02*
X3474Y307D01*
X3115Y306D02*
X3173Y306D01*
X3414Y306D02*
X3473Y306D01*
X3115Y305D02*
X3173Y305D01*
X3415Y305D02*
X3473Y305D01*
X3116Y304D02*
X3172Y304D01*
X3416Y304D02*
X3472Y304D01*
X3116Y303D02*
X3171Y303D01*
X3416Y303D02*
X3471Y303D01*
X3117Y302D02*
X3171Y302D01*
X3417Y302D02*
X3471Y302D01*
X3118Y301D02*
X3170Y301D01*
X3418Y301D02*
X3470Y301D01*
X3119Y300D02*
X3169Y300D01*
X3419Y300D02*
X3469Y300D01*
X3120Y299D02*
X3168Y299D01*
X3420Y299D02*
X3468Y299D01*
X3121Y298D02*
X3167Y298D01*
X3421Y298D02*
X3467Y298D01*
X3122Y297D02*
X3166Y297D01*
X3422Y297D02*
X3466Y297D01*
X3123Y296D02*
X3164Y296D01*
X3423Y296D02*
X3464Y296D01*
X3125Y295D02*
X3163Y295D01*
X3425Y295D02*
X3463Y295D01*
X3127Y294D02*
X3161Y294D01*
X3427Y294D02*
X3461Y294D01*
X3128Y293D02*
X3159Y293D01*
X3428Y293D02*
X3459Y293D01*
X3130Y292D02*
X3157Y292D01*
X3430Y292D02*
X3457Y292D01*
X3133Y291D02*
X3155Y291D01*
X3433Y291D02*
X3455Y291D01*
X3136Y290D02*
X3151Y290D01*
X3436Y290D02*
X3451Y290D01*
X3142Y289D02*
X3145Y289D01*
X3442Y289D02*
X3445Y289D01*
D02*
G04 End of Copper0*
M02*