G04 MADE WITH FRITZING*
G04 WWW.FRITZING.ORG*
G04 DOUBLE SIDED*
G04 HOLES PLATED*
G04 CONTOUR ON CENTER OF CONTOUR VECTOR*
%ASAXBY*%
%FSLAX23Y23*%
%MOIN*%
%OFA0B0*%
%SFA1.0B1.0*%
%ADD10C,0.039370*%
%ADD11C,0.070000*%
%ADD12C,0.074000*%
%ADD13C,0.080000*%
%ADD14C,0.075000*%
%ADD15C,0.062992*%
%ADD16C,0.078000*%
%ADD17C,0.082000*%
%ADD18R,0.074000X0.074000*%
%ADD19R,0.080000X0.080000*%
%ADD20R,0.062992X0.062992*%
%ADD21R,0.082000X0.082000*%
%ADD22C,0.024000*%
%ADD23R,0.001000X0.001000*%
%LNCOPPER0*%
G90*
G70*
G54D10*
X1138Y2463D03*
X1339Y1663D03*
X3241Y1763D03*
X3341Y1663D03*
X3442Y1562D03*
X4438Y2860D03*
X4740Y2262D03*
X4438Y2659D03*
X2738Y2760D03*
X3739Y3459D03*
X3341Y3359D03*
X3039Y2961D03*
X4242Y2961D03*
X2939Y2463D03*
X4438Y2463D03*
X3739Y2362D03*
X2642Y2362D03*
X3839Y2262D03*
X3839Y3560D03*
X1641Y2659D03*
X3638Y1462D03*
X2340Y460D03*
X3638Y460D03*
X3739Y1361D03*
X2642Y1160D03*
X2139Y1361D03*
X1641Y1160D03*
X1641Y360D03*
X4841Y863D03*
X4438Y863D03*
X4438Y2161D03*
X4438Y360D03*
X4338Y1663D03*
X3940Y1361D03*
X3739Y1562D03*
X3839Y1462D03*
X1938Y1960D03*
X1842Y1160D03*
X1842Y259D03*
X4338Y259D03*
X2939Y863D03*
X2340Y863D03*
X1540Y963D03*
X1540Y163D03*
X3940Y163D03*
X3538Y1059D03*
X1741Y561D03*
X4141Y561D03*
X4141Y1059D03*
X2038Y2563D03*
X1540Y2563D03*
X1938Y1462D03*
X2239Y1462D03*
X1138Y1462D03*
X1138Y63D03*
X2642Y3162D03*
G54D11*
X2840Y2161D03*
X1640Y1861D03*
X2740Y2161D03*
X1540Y1861D03*
X2640Y2161D03*
X2540Y2161D03*
X2440Y2161D03*
X2340Y2161D03*
X1540Y2161D03*
X1640Y2161D03*
X1740Y2161D03*
X1840Y2161D03*
X2240Y2161D03*
X2040Y2161D03*
X2140Y2161D03*
X1940Y2161D03*
X2040Y1861D03*
X1940Y1861D03*
X1840Y1861D03*
X1740Y1861D03*
X2240Y1861D03*
X2140Y1861D03*
X2640Y1861D03*
X2540Y1861D03*
X2440Y1861D03*
X2340Y1861D03*
X2840Y1861D03*
X2740Y1861D03*
X2840Y3261D03*
X2640Y2961D03*
X2740Y3261D03*
X2540Y2961D03*
X2640Y3261D03*
X2440Y2961D03*
X2540Y3261D03*
X2340Y2961D03*
X2440Y3261D03*
X2240Y2961D03*
X2340Y3261D03*
X2140Y2961D03*
X2240Y3261D03*
X2040Y3261D03*
X2140Y3261D03*
X2040Y2961D03*
X2840Y2961D03*
X2740Y2961D03*
X2040Y761D03*
X2240Y1061D03*
X2140Y761D03*
X2340Y1061D03*
X2240Y761D03*
X2440Y1061D03*
X2340Y761D03*
X2540Y1061D03*
X2440Y761D03*
X2640Y1061D03*
X2540Y761D03*
X2740Y1061D03*
X2640Y761D03*
X2840Y761D03*
X2740Y761D03*
X2840Y1061D03*
X2040Y1061D03*
X2140Y1061D03*
X2040Y2361D03*
X1940Y2361D03*
X1840Y3061D03*
X1840Y3161D03*
X3040Y961D03*
X3040Y861D03*
G54D12*
X4740Y2561D03*
X4740Y2661D03*
X4740Y2761D03*
X4740Y2861D03*
X4740Y2961D03*
X4840Y2561D03*
X4840Y2661D03*
X4840Y2761D03*
X4840Y2861D03*
X4840Y2961D03*
X4740Y1061D03*
X4740Y1161D03*
X4740Y1261D03*
X4740Y1361D03*
X4740Y1461D03*
X4840Y1061D03*
X4840Y1161D03*
X4840Y1261D03*
X4840Y1361D03*
X4840Y1461D03*
G54D13*
X140Y1361D03*
X140Y1499D03*
G54D14*
X540Y1361D03*
X540Y1761D03*
G54D15*
X240Y1763D03*
X240Y1861D03*
G54D14*
X1840Y1261D03*
X1840Y1661D03*
G54D16*
X1140Y2161D03*
X1040Y2161D03*
X940Y2161D03*
X1140Y1761D03*
X1040Y1761D03*
X940Y1761D03*
X1140Y1961D03*
X1040Y1961D03*
X940Y1961D03*
G54D17*
X2040Y2461D03*
X2040Y2759D03*
G54D13*
X140Y2461D03*
X140Y2599D03*
X140Y2961D03*
X140Y3099D03*
G54D18*
X4840Y2561D03*
X4840Y1061D03*
G54D19*
X140Y1361D03*
G54D20*
X240Y1763D03*
G54D21*
X2040Y2460D03*
G54D19*
X140Y2461D03*
X140Y2961D03*
G54D22*
X1842Y3263D02*
X1840Y3187D01*
D02*
X2014Y3261D02*
X1842Y3263D01*
D02*
X1842Y2961D02*
X2014Y2961D01*
D02*
X1840Y3035D02*
X1842Y2961D01*
D02*
X2040Y2791D02*
X2040Y2935D01*
D02*
X2040Y2387D02*
X2040Y2429D01*
D02*
X2040Y2335D02*
X2040Y2187D01*
D02*
X1940Y2187D02*
X1940Y2335D01*
D02*
X1741Y2362D02*
X1914Y2361D01*
D02*
X1741Y3162D02*
X1741Y2362D01*
D02*
X1814Y3161D02*
X1741Y3162D01*
D02*
X1840Y1690D02*
X1840Y1835D01*
D02*
X940Y1931D02*
X940Y1791D01*
D02*
X940Y2131D02*
X940Y1991D01*
D02*
X1140Y2131D02*
X1140Y1991D01*
D02*
X1140Y1931D02*
X1140Y1791D01*
D02*
X511Y1361D02*
X171Y1361D01*
D02*
X141Y1763D02*
X213Y1763D01*
D02*
X140Y1530D02*
X141Y1763D01*
D02*
X540Y1863D02*
X540Y1790D01*
D02*
X267Y1861D02*
X540Y1863D01*
D02*
X941Y1562D02*
X940Y1731D01*
D02*
X242Y1562D02*
X941Y1562D01*
D02*
X240Y1736D02*
X242Y1562D01*
D02*
X1042Y1562D02*
X1040Y1731D01*
D02*
X1641Y1562D02*
X1042Y1562D01*
D02*
X1640Y1835D02*
X1641Y1562D01*
D02*
X1339Y2161D02*
X1170Y2161D01*
D02*
X1339Y2060D02*
X1339Y2161D01*
D02*
X1938Y2060D02*
X1339Y2060D01*
D02*
X1939Y2135D02*
X1938Y2060D01*
D02*
X1439Y2563D02*
X171Y2598D01*
D02*
X1439Y2262D02*
X1439Y2563D01*
D02*
X1641Y2262D02*
X1439Y2262D01*
D02*
X1722Y2180D02*
X1641Y2262D01*
D02*
X1119Y2463D02*
X171Y2461D01*
D02*
X338Y2659D02*
X141Y2659D01*
D02*
X141Y2659D02*
X141Y2630D01*
D02*
X338Y3062D02*
X338Y2659D01*
D02*
X170Y3093D02*
X338Y3062D01*
D02*
X1540Y1260D02*
X1811Y1261D01*
D02*
X1540Y1361D02*
X1540Y1260D01*
D02*
X568Y1361D02*
X1540Y1361D01*
D02*
X3341Y2161D02*
X2866Y2161D01*
D02*
X3341Y3340D02*
X3341Y2161D01*
D02*
X2738Y2262D02*
X2739Y2187D01*
D02*
X3241Y2262D02*
X2738Y2262D01*
D02*
X3241Y3359D02*
X3241Y2262D01*
D02*
X2738Y3359D02*
X3241Y3359D01*
D02*
X2739Y3287D02*
X2738Y3359D01*
D02*
X2642Y2343D02*
X2640Y2187D01*
D02*
X3739Y3440D02*
X3739Y2381D01*
D02*
X2541Y2060D02*
X2540Y2135D01*
D02*
X3442Y3459D02*
X3442Y2060D01*
D02*
X2541Y3459D02*
X3442Y3459D01*
D02*
X3442Y2060D02*
X2541Y2060D01*
D02*
X2540Y3287D02*
X2541Y3459D01*
D02*
X2441Y1960D02*
X2440Y2135D01*
D02*
X3538Y3560D02*
X3538Y1960D01*
D02*
X2441Y3560D02*
X3538Y3560D01*
D02*
X3538Y1960D02*
X2441Y1960D01*
D02*
X2440Y3287D02*
X2441Y3560D01*
D02*
X3039Y1059D02*
X2866Y1061D01*
D02*
X3040Y987D02*
X3039Y1059D01*
D02*
X3039Y762D02*
X2866Y761D01*
D02*
X3040Y835D02*
X3039Y762D01*
D02*
X1339Y1682D02*
X1339Y1960D01*
D02*
X1339Y1960D02*
X1919Y1960D01*
D02*
X2738Y662D02*
X2739Y735D01*
D02*
X3140Y1859D02*
X3140Y662D01*
D02*
X3140Y662D02*
X2738Y662D01*
D02*
X2866Y1861D02*
X3140Y1859D01*
D02*
X2642Y561D02*
X2640Y735D01*
D02*
X3241Y1744D02*
X3241Y561D01*
D02*
X3241Y561D02*
X2642Y561D01*
D02*
X3341Y460D02*
X2541Y460D01*
D02*
X2541Y460D02*
X2540Y735D01*
D02*
X3341Y1644D02*
X3341Y460D01*
D02*
X2441Y360D02*
X2440Y735D01*
D02*
X3442Y1543D02*
X3442Y360D01*
D02*
X3442Y360D02*
X2441Y360D01*
D02*
X2239Y863D02*
X2240Y787D01*
D02*
X2340Y1663D02*
X2038Y1663D01*
D02*
X2038Y1160D02*
X1938Y1160D01*
D02*
X1938Y1160D02*
X1938Y863D01*
D02*
X1938Y863D02*
X2239Y863D01*
D02*
X2038Y1663D02*
X2038Y1160D01*
D02*
X2340Y1835D02*
X2340Y1663D01*
D02*
X4539Y3062D02*
X4447Y2877D01*
D02*
X4740Y3062D02*
X4539Y3062D01*
D02*
X4818Y2983D02*
X4740Y3062D01*
D02*
X2239Y2760D02*
X2719Y2760D01*
D02*
X2240Y2935D02*
X2239Y2760D01*
D02*
X2939Y2961D02*
X2866Y2961D01*
D02*
X2939Y2482D02*
X2939Y2961D01*
D02*
X4941Y2463D02*
X4457Y2463D01*
D02*
X4941Y2659D02*
X4941Y2463D01*
D02*
X4871Y2660D02*
X4941Y2659D01*
D02*
X4740Y762D02*
X4740Y1030D01*
D02*
X4539Y762D02*
X4740Y762D01*
D02*
X4539Y2262D02*
X4539Y762D01*
D02*
X4721Y2262D02*
X4539Y2262D01*
D02*
X4709Y2661D02*
X4457Y2659D01*
D02*
X4941Y2860D02*
X4862Y2783D01*
D02*
X4338Y3162D02*
X4941Y3162D01*
D02*
X4250Y2978D02*
X4338Y3162D01*
D02*
X3039Y3062D02*
X3039Y2980D01*
D02*
X2738Y3062D02*
X3039Y3062D01*
D02*
X4941Y3162D02*
X4941Y2860D01*
D02*
X2739Y2987D02*
X2738Y3062D01*
D02*
X3839Y3541D02*
X3839Y2281D01*
D02*
X1641Y3359D02*
X1641Y2678D01*
D02*
X2139Y3359D02*
X1641Y3359D01*
D02*
X2140Y3287D02*
X2139Y3359D01*
D02*
X2340Y479D02*
X2340Y735D01*
D02*
X3638Y1443D02*
X3638Y479D01*
D02*
X3739Y1543D02*
X3739Y1380D01*
D02*
X2258Y1462D02*
X2738Y1462D01*
D02*
X1157Y1462D02*
X1919Y1462D01*
D02*
X2738Y1462D02*
X2740Y1087D01*
D02*
X3839Y63D02*
X1157Y63D01*
D02*
X3839Y1443D02*
X3839Y63D01*
D02*
X1641Y1141D02*
X1641Y379D01*
D02*
X2140Y1087D02*
X2139Y1342D01*
D02*
X2441Y1160D02*
X2623Y1160D01*
D02*
X2440Y1087D02*
X2441Y1160D01*
D02*
X4840Y882D02*
X4840Y1030D01*
D02*
X4438Y2142D02*
X4438Y1763D01*
D02*
X4438Y1763D02*
X4438Y882D01*
D02*
X4438Y662D02*
X4941Y662D01*
D02*
X4941Y662D02*
X4941Y1260D01*
D02*
X4438Y379D02*
X4438Y662D01*
D02*
X4941Y1260D02*
X4871Y1261D01*
D02*
X1842Y1141D02*
X1842Y278D01*
D02*
X4338Y278D02*
X4338Y1644D01*
D02*
X2038Y963D02*
X2239Y963D01*
D02*
X2239Y963D02*
X2327Y876D01*
D02*
X2039Y1035D02*
X2038Y963D01*
D02*
X1540Y944D02*
X1540Y182D01*
D02*
X3940Y182D02*
X3940Y1342D01*
D02*
X1741Y1160D02*
X1741Y580D01*
D02*
X4141Y580D02*
X4141Y1040D01*
D02*
X1820Y1241D02*
X1741Y1160D01*
D02*
X1540Y2582D02*
X1540Y3660D01*
D02*
X1540Y3660D02*
X3940Y3660D01*
D02*
X3940Y3660D02*
X3940Y1859D01*
D02*
X3940Y1859D02*
X3538Y1859D01*
D02*
X3538Y1859D02*
X3538Y1078D01*
D02*
X2040Y2727D02*
X2038Y2582D01*
D02*
X2642Y3062D02*
X2642Y3143D01*
D02*
X2640Y2987D02*
X2642Y3062D01*
G54D23*
X2033Y3296D02*
X2045Y3296D01*
X2133Y3296D02*
X2145Y3296D01*
X2233Y3296D02*
X2245Y3296D01*
X2333Y3296D02*
X2345Y3296D01*
X2433Y3296D02*
X2445Y3296D01*
X2533Y3296D02*
X2545Y3296D01*
X2633Y3296D02*
X2645Y3296D01*
X2733Y3296D02*
X2745Y3296D01*
X2833Y3296D02*
X2845Y3296D01*
X2029Y3295D02*
X2049Y3295D01*
X2129Y3295D02*
X2149Y3295D01*
X2229Y3295D02*
X2249Y3295D01*
X2329Y3295D02*
X2349Y3295D01*
X2429Y3295D02*
X2449Y3295D01*
X2529Y3295D02*
X2549Y3295D01*
X2629Y3295D02*
X2649Y3295D01*
X2729Y3295D02*
X2749Y3295D01*
X2829Y3295D02*
X2849Y3295D01*
X2027Y3294D02*
X2052Y3294D01*
X2127Y3294D02*
X2152Y3294D01*
X2227Y3294D02*
X2252Y3294D01*
X2327Y3294D02*
X2352Y3294D01*
X2427Y3294D02*
X2452Y3294D01*
X2527Y3294D02*
X2552Y3294D01*
X2627Y3294D02*
X2652Y3294D01*
X2727Y3294D02*
X2752Y3294D01*
X2827Y3294D02*
X2852Y3294D01*
X2024Y3293D02*
X2054Y3293D01*
X2124Y3293D02*
X2154Y3293D01*
X2224Y3293D02*
X2254Y3293D01*
X2324Y3293D02*
X2354Y3293D01*
X2424Y3293D02*
X2454Y3293D01*
X2524Y3293D02*
X2554Y3293D01*
X2624Y3293D02*
X2654Y3293D01*
X2724Y3293D02*
X2754Y3293D01*
X2824Y3293D02*
X2854Y3293D01*
X2022Y3292D02*
X2056Y3292D01*
X2122Y3292D02*
X2156Y3292D01*
X2222Y3292D02*
X2256Y3292D01*
X2322Y3292D02*
X2356Y3292D01*
X2422Y3292D02*
X2456Y3292D01*
X2522Y3292D02*
X2556Y3292D01*
X2622Y3292D02*
X2656Y3292D01*
X2722Y3292D02*
X2756Y3292D01*
X2822Y3292D02*
X2856Y3292D01*
X2021Y3291D02*
X2058Y3291D01*
X2121Y3291D02*
X2158Y3291D01*
X2221Y3291D02*
X2258Y3291D01*
X2321Y3291D02*
X2358Y3291D01*
X2421Y3291D02*
X2458Y3291D01*
X2521Y3291D02*
X2558Y3291D01*
X2621Y3291D02*
X2658Y3291D01*
X2721Y3291D02*
X2758Y3291D01*
X2821Y3291D02*
X2858Y3291D01*
X2019Y3290D02*
X2059Y3290D01*
X2119Y3290D02*
X2159Y3290D01*
X2219Y3290D02*
X2259Y3290D01*
X2319Y3290D02*
X2359Y3290D01*
X2419Y3290D02*
X2459Y3290D01*
X2519Y3290D02*
X2559Y3290D01*
X2619Y3290D02*
X2659Y3290D01*
X2719Y3290D02*
X2759Y3290D01*
X2819Y3290D02*
X2859Y3290D01*
X2018Y3289D02*
X2061Y3289D01*
X2118Y3289D02*
X2161Y3289D01*
X2218Y3289D02*
X2261Y3289D01*
X2318Y3289D02*
X2361Y3289D01*
X2418Y3289D02*
X2460Y3289D01*
X2518Y3289D02*
X2560Y3289D01*
X2618Y3289D02*
X2660Y3289D01*
X2718Y3289D02*
X2760Y3289D01*
X2818Y3289D02*
X2860Y3289D01*
X2017Y3288D02*
X2062Y3288D01*
X2117Y3288D02*
X2162Y3288D01*
X2217Y3288D02*
X2262Y3288D01*
X2317Y3288D02*
X2362Y3288D01*
X2417Y3288D02*
X2462Y3288D01*
X2517Y3288D02*
X2562Y3288D01*
X2617Y3288D02*
X2662Y3288D01*
X2717Y3288D02*
X2762Y3288D01*
X2817Y3288D02*
X2862Y3288D01*
X2016Y3287D02*
X2063Y3287D01*
X2116Y3287D02*
X2163Y3287D01*
X2215Y3287D02*
X2263Y3287D01*
X2315Y3287D02*
X2363Y3287D01*
X2415Y3287D02*
X2463Y3287D01*
X2515Y3287D02*
X2563Y3287D01*
X2615Y3287D02*
X2663Y3287D01*
X2715Y3287D02*
X2763Y3287D01*
X2815Y3287D02*
X2863Y3287D01*
X2015Y3286D02*
X2064Y3286D01*
X2114Y3286D02*
X2164Y3286D01*
X2214Y3286D02*
X2264Y3286D01*
X2314Y3286D02*
X2364Y3286D01*
X2414Y3286D02*
X2464Y3286D01*
X2514Y3286D02*
X2564Y3286D01*
X2614Y3286D02*
X2664Y3286D01*
X2714Y3286D02*
X2764Y3286D01*
X2814Y3286D02*
X2864Y3286D01*
X2014Y3285D02*
X2065Y3285D01*
X2114Y3285D02*
X2165Y3285D01*
X2214Y3285D02*
X2265Y3285D01*
X2314Y3285D02*
X2365Y3285D01*
X2414Y3285D02*
X2465Y3285D01*
X2514Y3285D02*
X2565Y3285D01*
X2614Y3285D02*
X2665Y3285D01*
X2714Y3285D02*
X2765Y3285D01*
X2814Y3285D02*
X2865Y3285D01*
X2013Y3284D02*
X2066Y3284D01*
X2113Y3284D02*
X2166Y3284D01*
X2213Y3284D02*
X2266Y3284D01*
X2313Y3284D02*
X2366Y3284D01*
X2413Y3284D02*
X2466Y3284D01*
X2513Y3284D02*
X2566Y3284D01*
X2613Y3284D02*
X2666Y3284D01*
X2713Y3284D02*
X2766Y3284D01*
X2813Y3284D02*
X2866Y3284D01*
X2012Y3283D02*
X2066Y3283D01*
X2112Y3283D02*
X2166Y3283D01*
X2212Y3283D02*
X2266Y3283D01*
X2312Y3283D02*
X2366Y3283D01*
X2412Y3283D02*
X2466Y3283D01*
X2512Y3283D02*
X2566Y3283D01*
X2612Y3283D02*
X2666Y3283D01*
X2712Y3283D02*
X2766Y3283D01*
X2812Y3283D02*
X2866Y3283D01*
X2011Y3282D02*
X2067Y3282D01*
X2111Y3282D02*
X2167Y3282D01*
X2211Y3282D02*
X2267Y3282D01*
X2311Y3282D02*
X2367Y3282D01*
X2411Y3282D02*
X2467Y3282D01*
X2511Y3282D02*
X2567Y3282D01*
X2611Y3282D02*
X2667Y3282D01*
X2711Y3282D02*
X2767Y3282D01*
X2811Y3282D02*
X2867Y3282D01*
X2011Y3281D02*
X2068Y3281D01*
X2111Y3281D02*
X2168Y3281D01*
X2211Y3281D02*
X2268Y3281D01*
X2311Y3281D02*
X2368Y3281D01*
X2411Y3281D02*
X2468Y3281D01*
X2511Y3281D02*
X2568Y3281D01*
X2611Y3281D02*
X2668Y3281D01*
X2711Y3281D02*
X2768Y3281D01*
X2811Y3281D02*
X2868Y3281D01*
X2010Y3280D02*
X2068Y3280D01*
X2110Y3280D02*
X2168Y3280D01*
X2210Y3280D02*
X2268Y3280D01*
X2310Y3280D02*
X2368Y3280D01*
X2410Y3280D02*
X2468Y3280D01*
X2510Y3280D02*
X2568Y3280D01*
X2610Y3280D02*
X2668Y3280D01*
X2710Y3280D02*
X2768Y3280D01*
X2810Y3280D02*
X2868Y3280D01*
X2009Y3279D02*
X2069Y3279D01*
X2109Y3279D02*
X2169Y3279D01*
X2209Y3279D02*
X2269Y3279D01*
X2309Y3279D02*
X2369Y3279D01*
X2409Y3279D02*
X2469Y3279D01*
X2509Y3279D02*
X2569Y3279D01*
X2609Y3279D02*
X2669Y3279D01*
X2709Y3279D02*
X2769Y3279D01*
X2809Y3279D02*
X2869Y3279D01*
X2009Y3278D02*
X2069Y3278D01*
X2109Y3278D02*
X2169Y3278D01*
X2209Y3278D02*
X2269Y3278D01*
X2309Y3278D02*
X2369Y3278D01*
X2409Y3278D02*
X2469Y3278D01*
X2509Y3278D02*
X2569Y3278D01*
X2609Y3278D02*
X2669Y3278D01*
X2709Y3278D02*
X2769Y3278D01*
X2809Y3278D02*
X2869Y3278D01*
X2008Y3277D02*
X2070Y3277D01*
X2108Y3277D02*
X2170Y3277D01*
X2208Y3277D02*
X2270Y3277D01*
X2308Y3277D02*
X2370Y3277D01*
X2408Y3277D02*
X2470Y3277D01*
X2508Y3277D02*
X2570Y3277D01*
X2608Y3277D02*
X2670Y3277D01*
X2708Y3277D02*
X2770Y3277D01*
X2808Y3277D02*
X2870Y3277D01*
X2008Y3276D02*
X2034Y3276D01*
X2045Y3276D02*
X2070Y3276D01*
X2108Y3276D02*
X2134Y3276D01*
X2145Y3276D02*
X2170Y3276D01*
X2208Y3276D02*
X2234Y3276D01*
X2245Y3276D02*
X2270Y3276D01*
X2308Y3276D02*
X2334Y3276D01*
X2345Y3276D02*
X2370Y3276D01*
X2408Y3276D02*
X2434Y3276D01*
X2445Y3276D02*
X2470Y3276D01*
X2508Y3276D02*
X2534Y3276D01*
X2545Y3276D02*
X2570Y3276D01*
X2608Y3276D02*
X2634Y3276D01*
X2645Y3276D02*
X2670Y3276D01*
X2708Y3276D02*
X2734Y3276D01*
X2745Y3276D02*
X2770Y3276D01*
X2808Y3276D02*
X2834Y3276D01*
X2845Y3276D02*
X2870Y3276D01*
X2008Y3275D02*
X2032Y3275D01*
X2047Y3275D02*
X2071Y3275D01*
X2108Y3275D02*
X2131Y3275D01*
X2147Y3275D02*
X2171Y3275D01*
X2208Y3275D02*
X2231Y3275D01*
X2247Y3275D02*
X2271Y3275D01*
X2307Y3275D02*
X2331Y3275D01*
X2347Y3275D02*
X2371Y3275D01*
X2407Y3275D02*
X2431Y3275D01*
X2447Y3275D02*
X2471Y3275D01*
X2507Y3275D02*
X2531Y3275D01*
X2547Y3275D02*
X2571Y3275D01*
X2607Y3275D02*
X2631Y3275D01*
X2647Y3275D02*
X2671Y3275D01*
X2707Y3275D02*
X2731Y3275D01*
X2747Y3275D02*
X2771Y3275D01*
X2807Y3275D02*
X2831Y3275D01*
X2847Y3275D02*
X2871Y3275D01*
X2007Y3274D02*
X2030Y3274D01*
X2048Y3274D02*
X2071Y3274D01*
X2107Y3274D02*
X2130Y3274D01*
X2148Y3274D02*
X2171Y3274D01*
X2207Y3274D02*
X2230Y3274D01*
X2248Y3274D02*
X2271Y3274D01*
X2307Y3274D02*
X2330Y3274D01*
X2348Y3274D02*
X2371Y3274D01*
X2407Y3274D02*
X2430Y3274D01*
X2448Y3274D02*
X2471Y3274D01*
X2507Y3274D02*
X2530Y3274D01*
X2548Y3274D02*
X2571Y3274D01*
X2607Y3274D02*
X2630Y3274D01*
X2648Y3274D02*
X2671Y3274D01*
X2707Y3274D02*
X2730Y3274D01*
X2748Y3274D02*
X2771Y3274D01*
X2807Y3274D02*
X2830Y3274D01*
X2848Y3274D02*
X2871Y3274D01*
X2007Y3273D02*
X2029Y3273D01*
X2050Y3273D02*
X2072Y3273D01*
X2107Y3273D02*
X2129Y3273D01*
X2150Y3273D02*
X2172Y3273D01*
X2207Y3273D02*
X2229Y3273D01*
X2250Y3273D02*
X2272Y3273D01*
X2307Y3273D02*
X2329Y3273D01*
X2350Y3273D02*
X2372Y3273D01*
X2407Y3273D02*
X2429Y3273D01*
X2450Y3273D02*
X2472Y3273D01*
X2507Y3273D02*
X2529Y3273D01*
X2550Y3273D02*
X2572Y3273D01*
X2607Y3273D02*
X2629Y3273D01*
X2650Y3273D02*
X2672Y3273D01*
X2707Y3273D02*
X2729Y3273D01*
X2749Y3273D02*
X2772Y3273D01*
X2807Y3273D02*
X2829Y3273D01*
X2849Y3273D02*
X2872Y3273D01*
X2006Y3272D02*
X2028Y3272D01*
X2051Y3272D02*
X2072Y3272D01*
X2106Y3272D02*
X2128Y3272D01*
X2151Y3272D02*
X2172Y3272D01*
X2206Y3272D02*
X2228Y3272D01*
X2251Y3272D02*
X2272Y3272D01*
X2306Y3272D02*
X2328Y3272D01*
X2351Y3272D02*
X2372Y3272D01*
X2406Y3272D02*
X2428Y3272D01*
X2451Y3272D02*
X2472Y3272D01*
X2506Y3272D02*
X2528Y3272D01*
X2551Y3272D02*
X2572Y3272D01*
X2606Y3272D02*
X2628Y3272D01*
X2651Y3272D02*
X2672Y3272D01*
X2706Y3272D02*
X2728Y3272D01*
X2751Y3272D02*
X2772Y3272D01*
X2806Y3272D02*
X2828Y3272D01*
X2851Y3272D02*
X2872Y3272D01*
X2006Y3271D02*
X2027Y3271D01*
X2051Y3271D02*
X2072Y3271D01*
X2106Y3271D02*
X2127Y3271D01*
X2151Y3271D02*
X2172Y3271D01*
X2206Y3271D02*
X2227Y3271D01*
X2251Y3271D02*
X2272Y3271D01*
X2306Y3271D02*
X2327Y3271D01*
X2351Y3271D02*
X2372Y3271D01*
X2406Y3271D02*
X2427Y3271D01*
X2451Y3271D02*
X2472Y3271D01*
X2506Y3271D02*
X2527Y3271D01*
X2551Y3271D02*
X2572Y3271D01*
X2606Y3271D02*
X2627Y3271D01*
X2651Y3271D02*
X2672Y3271D01*
X2706Y3271D02*
X2727Y3271D01*
X2751Y3271D02*
X2772Y3271D01*
X2806Y3271D02*
X2827Y3271D01*
X2851Y3271D02*
X2872Y3271D01*
X2006Y3270D02*
X2026Y3270D01*
X2052Y3270D02*
X2073Y3270D01*
X2106Y3270D02*
X2126Y3270D01*
X2152Y3270D02*
X2173Y3270D01*
X2206Y3270D02*
X2226Y3270D01*
X2252Y3270D02*
X2273Y3270D01*
X2306Y3270D02*
X2326Y3270D01*
X2352Y3270D02*
X2373Y3270D01*
X2406Y3270D02*
X2426Y3270D01*
X2452Y3270D02*
X2473Y3270D01*
X2506Y3270D02*
X2526Y3270D01*
X2552Y3270D02*
X2572Y3270D01*
X2606Y3270D02*
X2626Y3270D01*
X2652Y3270D02*
X2672Y3270D01*
X2706Y3270D02*
X2726Y3270D01*
X2752Y3270D02*
X2772Y3270D01*
X2806Y3270D02*
X2826Y3270D01*
X2852Y3270D02*
X2872Y3270D01*
X2006Y3269D02*
X2025Y3269D01*
X2053Y3269D02*
X2073Y3269D01*
X2106Y3269D02*
X2125Y3269D01*
X2153Y3269D02*
X2173Y3269D01*
X2206Y3269D02*
X2225Y3269D01*
X2253Y3269D02*
X2273Y3269D01*
X2306Y3269D02*
X2325Y3269D01*
X2353Y3269D02*
X2373Y3269D01*
X2406Y3269D02*
X2425Y3269D01*
X2453Y3269D02*
X2473Y3269D01*
X2506Y3269D02*
X2525Y3269D01*
X2553Y3269D02*
X2573Y3269D01*
X2606Y3269D02*
X2625Y3269D01*
X2653Y3269D02*
X2673Y3269D01*
X2706Y3269D02*
X2725Y3269D01*
X2753Y3269D02*
X2773Y3269D01*
X2806Y3269D02*
X2825Y3269D01*
X2853Y3269D02*
X2873Y3269D01*
X2005Y3268D02*
X2025Y3268D01*
X2053Y3268D02*
X2073Y3268D01*
X2105Y3268D02*
X2125Y3268D01*
X2153Y3268D02*
X2173Y3268D01*
X2205Y3268D02*
X2225Y3268D01*
X2253Y3268D02*
X2273Y3268D01*
X2305Y3268D02*
X2325Y3268D01*
X2353Y3268D02*
X2373Y3268D01*
X2405Y3268D02*
X2425Y3268D01*
X2453Y3268D02*
X2473Y3268D01*
X2505Y3268D02*
X2525Y3268D01*
X2553Y3268D02*
X2573Y3268D01*
X2605Y3268D02*
X2625Y3268D01*
X2653Y3268D02*
X2673Y3268D01*
X2705Y3268D02*
X2725Y3268D01*
X2753Y3268D02*
X2773Y3268D01*
X2805Y3268D02*
X2825Y3268D01*
X2853Y3268D02*
X2873Y3268D01*
X2005Y3267D02*
X2025Y3267D01*
X2054Y3267D02*
X2073Y3267D01*
X2105Y3267D02*
X2124Y3267D01*
X2154Y3267D02*
X2173Y3267D01*
X2205Y3267D02*
X2224Y3267D01*
X2254Y3267D02*
X2273Y3267D01*
X2305Y3267D02*
X2324Y3267D01*
X2354Y3267D02*
X2373Y3267D01*
X2405Y3267D02*
X2424Y3267D01*
X2454Y3267D02*
X2473Y3267D01*
X2505Y3267D02*
X2524Y3267D01*
X2554Y3267D02*
X2573Y3267D01*
X2605Y3267D02*
X2624Y3267D01*
X2654Y3267D02*
X2673Y3267D01*
X2705Y3267D02*
X2724Y3267D01*
X2754Y3267D02*
X2773Y3267D01*
X2805Y3267D02*
X2824Y3267D01*
X2854Y3267D02*
X2873Y3267D01*
X2005Y3266D02*
X2024Y3266D01*
X2054Y3266D02*
X2073Y3266D01*
X2105Y3266D02*
X2124Y3266D01*
X2154Y3266D02*
X2173Y3266D01*
X2205Y3266D02*
X2224Y3266D01*
X2254Y3266D02*
X2273Y3266D01*
X2305Y3266D02*
X2324Y3266D01*
X2354Y3266D02*
X2373Y3266D01*
X2405Y3266D02*
X2424Y3266D01*
X2454Y3266D02*
X2473Y3266D01*
X2505Y3266D02*
X2524Y3266D01*
X2554Y3266D02*
X2573Y3266D01*
X2605Y3266D02*
X2624Y3266D01*
X2654Y3266D02*
X2673Y3266D01*
X2705Y3266D02*
X2724Y3266D01*
X2754Y3266D02*
X2773Y3266D01*
X2805Y3266D02*
X2824Y3266D01*
X2854Y3266D02*
X2873Y3266D01*
X2005Y3265D02*
X2024Y3265D01*
X2054Y3265D02*
X2073Y3265D01*
X2105Y3265D02*
X2124Y3265D01*
X2154Y3265D02*
X2173Y3265D01*
X2205Y3265D02*
X2224Y3265D01*
X2254Y3265D02*
X2273Y3265D01*
X2305Y3265D02*
X2324Y3265D01*
X2354Y3265D02*
X2373Y3265D01*
X2405Y3265D02*
X2424Y3265D01*
X2454Y3265D02*
X2473Y3265D01*
X2505Y3265D02*
X2524Y3265D01*
X2554Y3265D02*
X2573Y3265D01*
X2605Y3265D02*
X2624Y3265D01*
X2654Y3265D02*
X2673Y3265D01*
X2705Y3265D02*
X2724Y3265D01*
X2754Y3265D02*
X2773Y3265D01*
X2805Y3265D02*
X2824Y3265D01*
X2854Y3265D02*
X2873Y3265D01*
X2005Y3264D02*
X2024Y3264D01*
X2055Y3264D02*
X2074Y3264D01*
X2105Y3264D02*
X2124Y3264D01*
X2155Y3264D02*
X2174Y3264D01*
X2205Y3264D02*
X2224Y3264D01*
X2255Y3264D02*
X2274Y3264D01*
X2305Y3264D02*
X2324Y3264D01*
X2354Y3264D02*
X2374Y3264D01*
X2405Y3264D02*
X2424Y3264D01*
X2454Y3264D02*
X2474Y3264D01*
X2505Y3264D02*
X2524Y3264D01*
X2554Y3264D02*
X2574Y3264D01*
X2605Y3264D02*
X2624Y3264D01*
X2654Y3264D02*
X2674Y3264D01*
X2705Y3264D02*
X2724Y3264D01*
X2754Y3264D02*
X2773Y3264D01*
X2805Y3264D02*
X2824Y3264D01*
X2854Y3264D02*
X2873Y3264D01*
X2005Y3263D02*
X2024Y3263D01*
X2055Y3263D02*
X2074Y3263D01*
X2105Y3263D02*
X2124Y3263D01*
X2155Y3263D02*
X2174Y3263D01*
X2205Y3263D02*
X2224Y3263D01*
X2255Y3263D02*
X2274Y3263D01*
X2305Y3263D02*
X2324Y3263D01*
X2355Y3263D02*
X2374Y3263D01*
X2405Y3263D02*
X2424Y3263D01*
X2455Y3263D02*
X2474Y3263D01*
X2505Y3263D02*
X2524Y3263D01*
X2555Y3263D02*
X2574Y3263D01*
X2605Y3263D02*
X2624Y3263D01*
X2655Y3263D02*
X2674Y3263D01*
X2705Y3263D02*
X2724Y3263D01*
X2755Y3263D02*
X2774Y3263D01*
X2805Y3263D02*
X2824Y3263D01*
X2855Y3263D02*
X2874Y3263D01*
X2005Y3262D02*
X2024Y3262D01*
X2055Y3262D02*
X2074Y3262D01*
X2105Y3262D02*
X2124Y3262D01*
X2155Y3262D02*
X2174Y3262D01*
X2205Y3262D02*
X2224Y3262D01*
X2255Y3262D02*
X2274Y3262D01*
X2305Y3262D02*
X2324Y3262D01*
X2355Y3262D02*
X2374Y3262D01*
X2405Y3262D02*
X2424Y3262D01*
X2455Y3262D02*
X2474Y3262D01*
X2505Y3262D02*
X2524Y3262D01*
X2555Y3262D02*
X2574Y3262D01*
X2605Y3262D02*
X2624Y3262D01*
X2655Y3262D02*
X2674Y3262D01*
X2705Y3262D02*
X2724Y3262D01*
X2755Y3262D02*
X2774Y3262D01*
X2805Y3262D02*
X2824Y3262D01*
X2855Y3262D02*
X2874Y3262D01*
X2005Y3261D02*
X2024Y3261D01*
X2055Y3261D02*
X2074Y3261D01*
X2105Y3261D02*
X2124Y3261D01*
X2155Y3261D02*
X2174Y3261D01*
X2205Y3261D02*
X2224Y3261D01*
X2255Y3261D02*
X2274Y3261D01*
X2305Y3261D02*
X2324Y3261D01*
X2355Y3261D02*
X2374Y3261D01*
X2405Y3261D02*
X2424Y3261D01*
X2455Y3261D02*
X2474Y3261D01*
X2505Y3261D02*
X2524Y3261D01*
X2555Y3261D02*
X2574Y3261D01*
X2605Y3261D02*
X2624Y3261D01*
X2655Y3261D02*
X2674Y3261D01*
X2705Y3261D02*
X2724Y3261D01*
X2755Y3261D02*
X2774Y3261D01*
X2805Y3261D02*
X2824Y3261D01*
X2855Y3261D02*
X2874Y3261D01*
X2005Y3260D02*
X2024Y3260D01*
X2055Y3260D02*
X2074Y3260D01*
X2105Y3260D02*
X2124Y3260D01*
X2155Y3260D02*
X2174Y3260D01*
X2205Y3260D02*
X2224Y3260D01*
X2255Y3260D02*
X2274Y3260D01*
X2305Y3260D02*
X2324Y3260D01*
X2355Y3260D02*
X2374Y3260D01*
X2405Y3260D02*
X2424Y3260D01*
X2455Y3260D02*
X2474Y3260D01*
X2505Y3260D02*
X2524Y3260D01*
X2555Y3260D02*
X2574Y3260D01*
X2605Y3260D02*
X2624Y3260D01*
X2655Y3260D02*
X2674Y3260D01*
X2705Y3260D02*
X2724Y3260D01*
X2754Y3260D02*
X2774Y3260D01*
X2805Y3260D02*
X2824Y3260D01*
X2854Y3260D02*
X2874Y3260D01*
X2005Y3259D02*
X2024Y3259D01*
X2054Y3259D02*
X2074Y3259D01*
X2105Y3259D02*
X2124Y3259D01*
X2154Y3259D02*
X2174Y3259D01*
X2205Y3259D02*
X2224Y3259D01*
X2254Y3259D02*
X2274Y3259D01*
X2305Y3259D02*
X2324Y3259D01*
X2354Y3259D02*
X2373Y3259D01*
X2405Y3259D02*
X2424Y3259D01*
X2454Y3259D02*
X2473Y3259D01*
X2505Y3259D02*
X2524Y3259D01*
X2554Y3259D02*
X2573Y3259D01*
X2605Y3259D02*
X2624Y3259D01*
X2654Y3259D02*
X2673Y3259D01*
X2705Y3259D02*
X2724Y3259D01*
X2754Y3259D02*
X2773Y3259D01*
X2805Y3259D02*
X2824Y3259D01*
X2854Y3259D02*
X2873Y3259D01*
X2005Y3258D02*
X2024Y3258D01*
X2054Y3258D02*
X2073Y3258D01*
X2105Y3258D02*
X2124Y3258D01*
X2154Y3258D02*
X2173Y3258D01*
X2205Y3258D02*
X2224Y3258D01*
X2254Y3258D02*
X2273Y3258D01*
X2305Y3258D02*
X2324Y3258D01*
X2354Y3258D02*
X2373Y3258D01*
X2405Y3258D02*
X2424Y3258D01*
X2454Y3258D02*
X2473Y3258D01*
X2505Y3258D02*
X2524Y3258D01*
X2554Y3258D02*
X2573Y3258D01*
X2605Y3258D02*
X2624Y3258D01*
X2654Y3258D02*
X2673Y3258D01*
X2705Y3258D02*
X2724Y3258D01*
X2754Y3258D02*
X2773Y3258D01*
X2805Y3258D02*
X2824Y3258D01*
X2854Y3258D02*
X2873Y3258D01*
X2005Y3257D02*
X2024Y3257D01*
X2054Y3257D02*
X2073Y3257D01*
X2105Y3257D02*
X2124Y3257D01*
X2154Y3257D02*
X2173Y3257D01*
X2205Y3257D02*
X2224Y3257D01*
X2254Y3257D02*
X2273Y3257D01*
X2305Y3257D02*
X2324Y3257D01*
X2354Y3257D02*
X2373Y3257D01*
X2405Y3257D02*
X2424Y3257D01*
X2454Y3257D02*
X2473Y3257D01*
X2505Y3257D02*
X2524Y3257D01*
X2554Y3257D02*
X2573Y3257D01*
X2605Y3257D02*
X2624Y3257D01*
X2654Y3257D02*
X2673Y3257D01*
X2705Y3257D02*
X2724Y3257D01*
X2754Y3257D02*
X2773Y3257D01*
X2805Y3257D02*
X2824Y3257D01*
X2854Y3257D02*
X2873Y3257D01*
X2005Y3256D02*
X2025Y3256D01*
X2054Y3256D02*
X2073Y3256D01*
X2105Y3256D02*
X2125Y3256D01*
X2154Y3256D02*
X2173Y3256D01*
X2205Y3256D02*
X2225Y3256D01*
X2254Y3256D02*
X2273Y3256D01*
X2305Y3256D02*
X2325Y3256D01*
X2354Y3256D02*
X2373Y3256D01*
X2405Y3256D02*
X2425Y3256D01*
X2454Y3256D02*
X2473Y3256D01*
X2505Y3256D02*
X2525Y3256D01*
X2554Y3256D02*
X2573Y3256D01*
X2605Y3256D02*
X2625Y3256D01*
X2654Y3256D02*
X2673Y3256D01*
X2705Y3256D02*
X2725Y3256D01*
X2754Y3256D02*
X2773Y3256D01*
X2805Y3256D02*
X2825Y3256D01*
X2854Y3256D02*
X2873Y3256D01*
X2005Y3255D02*
X2025Y3255D01*
X2053Y3255D02*
X2073Y3255D01*
X2105Y3255D02*
X2125Y3255D01*
X2153Y3255D02*
X2173Y3255D01*
X2205Y3255D02*
X2225Y3255D01*
X2253Y3255D02*
X2273Y3255D01*
X2305Y3255D02*
X2325Y3255D01*
X2353Y3255D02*
X2373Y3255D01*
X2405Y3255D02*
X2425Y3255D01*
X2453Y3255D02*
X2473Y3255D01*
X2505Y3255D02*
X2525Y3255D01*
X2553Y3255D02*
X2573Y3255D01*
X2605Y3255D02*
X2625Y3255D01*
X2653Y3255D02*
X2673Y3255D01*
X2705Y3255D02*
X2725Y3255D01*
X2753Y3255D02*
X2773Y3255D01*
X2805Y3255D02*
X2825Y3255D01*
X2853Y3255D02*
X2873Y3255D01*
X2006Y3254D02*
X2026Y3254D01*
X2053Y3254D02*
X2073Y3254D01*
X2106Y3254D02*
X2126Y3254D01*
X2153Y3254D02*
X2173Y3254D01*
X2206Y3254D02*
X2226Y3254D01*
X2253Y3254D02*
X2273Y3254D01*
X2306Y3254D02*
X2326Y3254D01*
X2353Y3254D02*
X2373Y3254D01*
X2406Y3254D02*
X2426Y3254D01*
X2453Y3254D02*
X2473Y3254D01*
X2506Y3254D02*
X2526Y3254D01*
X2553Y3254D02*
X2573Y3254D01*
X2606Y3254D02*
X2626Y3254D01*
X2653Y3254D02*
X2673Y3254D01*
X2706Y3254D02*
X2726Y3254D01*
X2753Y3254D02*
X2773Y3254D01*
X2806Y3254D02*
X2826Y3254D01*
X2853Y3254D02*
X2873Y3254D01*
X2006Y3253D02*
X2026Y3253D01*
X2052Y3253D02*
X2072Y3253D01*
X2106Y3253D02*
X2126Y3253D01*
X2152Y3253D02*
X2172Y3253D01*
X2206Y3253D02*
X2226Y3253D01*
X2252Y3253D02*
X2272Y3253D01*
X2306Y3253D02*
X2326Y3253D01*
X2352Y3253D02*
X2372Y3253D01*
X2406Y3253D02*
X2426Y3253D01*
X2452Y3253D02*
X2472Y3253D01*
X2506Y3253D02*
X2526Y3253D01*
X2552Y3253D02*
X2572Y3253D01*
X2606Y3253D02*
X2626Y3253D01*
X2652Y3253D02*
X2672Y3253D01*
X2706Y3253D02*
X2726Y3253D01*
X2752Y3253D02*
X2772Y3253D01*
X2806Y3253D02*
X2826Y3253D01*
X2852Y3253D02*
X2872Y3253D01*
X2006Y3252D02*
X2027Y3252D01*
X2051Y3252D02*
X2072Y3252D01*
X2106Y3252D02*
X2127Y3252D01*
X2151Y3252D02*
X2172Y3252D01*
X2206Y3252D02*
X2227Y3252D01*
X2251Y3252D02*
X2272Y3252D01*
X2306Y3252D02*
X2327Y3252D01*
X2351Y3252D02*
X2372Y3252D01*
X2406Y3252D02*
X2427Y3252D01*
X2451Y3252D02*
X2472Y3252D01*
X2506Y3252D02*
X2527Y3252D01*
X2551Y3252D02*
X2572Y3252D01*
X2606Y3252D02*
X2627Y3252D01*
X2651Y3252D02*
X2672Y3252D01*
X2706Y3252D02*
X2727Y3252D01*
X2751Y3252D02*
X2772Y3252D01*
X2806Y3252D02*
X2827Y3252D01*
X2851Y3252D02*
X2872Y3252D01*
X2007Y3251D02*
X2028Y3251D01*
X2050Y3251D02*
X2072Y3251D01*
X2107Y3251D02*
X2128Y3251D01*
X2150Y3251D02*
X2172Y3251D01*
X2207Y3251D02*
X2228Y3251D01*
X2250Y3251D02*
X2272Y3251D01*
X2307Y3251D02*
X2328Y3251D01*
X2350Y3251D02*
X2372Y3251D01*
X2407Y3251D02*
X2428Y3251D01*
X2450Y3251D02*
X2472Y3251D01*
X2507Y3251D02*
X2528Y3251D01*
X2550Y3251D02*
X2572Y3251D01*
X2607Y3251D02*
X2628Y3251D01*
X2650Y3251D02*
X2672Y3251D01*
X2707Y3251D02*
X2728Y3251D01*
X2750Y3251D02*
X2772Y3251D01*
X2807Y3251D02*
X2828Y3251D01*
X2850Y3251D02*
X2872Y3251D01*
X2007Y3250D02*
X2029Y3250D01*
X2049Y3250D02*
X2071Y3250D01*
X2107Y3250D02*
X2129Y3250D01*
X2149Y3250D02*
X2171Y3250D01*
X2207Y3250D02*
X2229Y3250D01*
X2249Y3250D02*
X2271Y3250D01*
X2307Y3250D02*
X2329Y3250D01*
X2349Y3250D02*
X2371Y3250D01*
X2407Y3250D02*
X2429Y3250D01*
X2449Y3250D02*
X2471Y3250D01*
X2507Y3250D02*
X2529Y3250D01*
X2549Y3250D02*
X2571Y3250D01*
X2607Y3250D02*
X2629Y3250D01*
X2649Y3250D02*
X2671Y3250D01*
X2707Y3250D02*
X2729Y3250D01*
X2749Y3250D02*
X2771Y3250D01*
X2807Y3250D02*
X2829Y3250D01*
X2849Y3250D02*
X2871Y3250D01*
X2007Y3249D02*
X2031Y3249D01*
X2048Y3249D02*
X2071Y3249D01*
X2107Y3249D02*
X2131Y3249D01*
X2148Y3249D02*
X2171Y3249D01*
X2207Y3249D02*
X2231Y3249D01*
X2248Y3249D02*
X2271Y3249D01*
X2307Y3249D02*
X2331Y3249D01*
X2348Y3249D02*
X2371Y3249D01*
X2407Y3249D02*
X2431Y3249D01*
X2448Y3249D02*
X2471Y3249D01*
X2507Y3249D02*
X2531Y3249D01*
X2548Y3249D02*
X2571Y3249D01*
X2607Y3249D02*
X2631Y3249D01*
X2648Y3249D02*
X2671Y3249D01*
X2707Y3249D02*
X2731Y3249D01*
X2748Y3249D02*
X2771Y3249D01*
X2807Y3249D02*
X2831Y3249D01*
X2848Y3249D02*
X2871Y3249D01*
X2008Y3248D02*
X2032Y3248D01*
X2046Y3248D02*
X2071Y3248D01*
X2108Y3248D02*
X2132Y3248D01*
X2146Y3248D02*
X2171Y3248D01*
X2208Y3248D02*
X2232Y3248D01*
X2246Y3248D02*
X2271Y3248D01*
X2308Y3248D02*
X2332Y3248D01*
X2346Y3248D02*
X2371Y3248D01*
X2408Y3248D02*
X2432Y3248D01*
X2446Y3248D02*
X2471Y3248D01*
X2508Y3248D02*
X2532Y3248D01*
X2546Y3248D02*
X2571Y3248D01*
X2608Y3248D02*
X2632Y3248D01*
X2646Y3248D02*
X2671Y3248D01*
X2708Y3248D02*
X2732Y3248D01*
X2746Y3248D02*
X2771Y3248D01*
X2808Y3248D02*
X2832Y3248D01*
X2846Y3248D02*
X2871Y3248D01*
X2008Y3247D02*
X2036Y3247D01*
X2043Y3247D02*
X2070Y3247D01*
X2108Y3247D02*
X2136Y3247D01*
X2143Y3247D02*
X2170Y3247D01*
X2208Y3247D02*
X2236Y3247D01*
X2243Y3247D02*
X2270Y3247D01*
X2308Y3247D02*
X2336Y3247D01*
X2343Y3247D02*
X2370Y3247D01*
X2408Y3247D02*
X2436Y3247D01*
X2443Y3247D02*
X2470Y3247D01*
X2508Y3247D02*
X2536Y3247D01*
X2543Y3247D02*
X2570Y3247D01*
X2608Y3247D02*
X2636Y3247D01*
X2643Y3247D02*
X2670Y3247D01*
X2708Y3247D02*
X2735Y3247D01*
X2743Y3247D02*
X2770Y3247D01*
X2808Y3247D02*
X2835Y3247D01*
X2843Y3247D02*
X2870Y3247D01*
X2009Y3246D02*
X2070Y3246D01*
X2109Y3246D02*
X2170Y3246D01*
X2209Y3246D02*
X2270Y3246D01*
X2309Y3246D02*
X2370Y3246D01*
X2409Y3246D02*
X2470Y3246D01*
X2509Y3246D02*
X2570Y3246D01*
X2609Y3246D02*
X2670Y3246D01*
X2709Y3246D02*
X2770Y3246D01*
X2809Y3246D02*
X2870Y3246D01*
X2009Y3245D02*
X2069Y3245D01*
X2109Y3245D02*
X2169Y3245D01*
X2209Y3245D02*
X2269Y3245D01*
X2309Y3245D02*
X2369Y3245D01*
X2409Y3245D02*
X2469Y3245D01*
X2509Y3245D02*
X2569Y3245D01*
X2609Y3245D02*
X2669Y3245D01*
X2709Y3245D02*
X2769Y3245D01*
X2809Y3245D02*
X2869Y3245D01*
X2010Y3244D02*
X2069Y3244D01*
X2110Y3244D02*
X2169Y3244D01*
X2210Y3244D02*
X2269Y3244D01*
X2310Y3244D02*
X2369Y3244D01*
X2410Y3244D02*
X2469Y3244D01*
X2510Y3244D02*
X2569Y3244D01*
X2610Y3244D02*
X2669Y3244D01*
X2710Y3244D02*
X2769Y3244D01*
X2810Y3244D02*
X2869Y3244D01*
X2010Y3243D02*
X2068Y3243D01*
X2110Y3243D02*
X2168Y3243D01*
X2210Y3243D02*
X2268Y3243D01*
X2310Y3243D02*
X2368Y3243D01*
X2410Y3243D02*
X2468Y3243D01*
X2510Y3243D02*
X2568Y3243D01*
X2610Y3243D02*
X2668Y3243D01*
X2710Y3243D02*
X2768Y3243D01*
X2810Y3243D02*
X2868Y3243D01*
X2011Y3242D02*
X2067Y3242D01*
X2111Y3242D02*
X2167Y3242D01*
X2211Y3242D02*
X2267Y3242D01*
X2311Y3242D02*
X2367Y3242D01*
X2411Y3242D02*
X2467Y3242D01*
X2511Y3242D02*
X2567Y3242D01*
X2611Y3242D02*
X2667Y3242D01*
X2711Y3242D02*
X2767Y3242D01*
X2811Y3242D02*
X2867Y3242D01*
X2012Y3241D02*
X2067Y3241D01*
X2112Y3241D02*
X2167Y3241D01*
X2212Y3241D02*
X2267Y3241D01*
X2312Y3241D02*
X2367Y3241D01*
X2412Y3241D02*
X2467Y3241D01*
X2512Y3241D02*
X2567Y3241D01*
X2612Y3241D02*
X2667Y3241D01*
X2712Y3241D02*
X2767Y3241D01*
X2812Y3241D02*
X2867Y3241D01*
X2012Y3240D02*
X2066Y3240D01*
X2112Y3240D02*
X2166Y3240D01*
X2212Y3240D02*
X2266Y3240D01*
X2312Y3240D02*
X2366Y3240D01*
X2412Y3240D02*
X2466Y3240D01*
X2512Y3240D02*
X2566Y3240D01*
X2612Y3240D02*
X2666Y3240D01*
X2712Y3240D02*
X2766Y3240D01*
X2812Y3240D02*
X2866Y3240D01*
X2013Y3239D02*
X2065Y3239D01*
X2113Y3239D02*
X2165Y3239D01*
X2213Y3239D02*
X2265Y3239D01*
X2313Y3239D02*
X2365Y3239D01*
X2413Y3239D02*
X2465Y3239D01*
X2513Y3239D02*
X2565Y3239D01*
X2613Y3239D02*
X2665Y3239D01*
X2713Y3239D02*
X2765Y3239D01*
X2813Y3239D02*
X2865Y3239D01*
X2014Y3238D02*
X2064Y3238D01*
X2114Y3238D02*
X2164Y3238D01*
X2214Y3238D02*
X2264Y3238D01*
X2314Y3238D02*
X2364Y3238D01*
X2414Y3238D02*
X2464Y3238D01*
X2514Y3238D02*
X2564Y3238D01*
X2614Y3238D02*
X2664Y3238D01*
X2714Y3238D02*
X2764Y3238D01*
X2814Y3238D02*
X2864Y3238D01*
X2015Y3237D02*
X2063Y3237D01*
X2115Y3237D02*
X2163Y3237D01*
X2215Y3237D02*
X2263Y3237D01*
X2315Y3237D02*
X2363Y3237D01*
X2415Y3237D02*
X2463Y3237D01*
X2515Y3237D02*
X2563Y3237D01*
X2615Y3237D02*
X2663Y3237D01*
X2715Y3237D02*
X2763Y3237D01*
X2815Y3237D02*
X2863Y3237D01*
X2016Y3236D02*
X2062Y3236D01*
X2116Y3236D02*
X2162Y3236D01*
X2216Y3236D02*
X2262Y3236D01*
X2316Y3236D02*
X2362Y3236D01*
X2416Y3236D02*
X2462Y3236D01*
X2516Y3236D02*
X2562Y3236D01*
X2616Y3236D02*
X2662Y3236D01*
X2716Y3236D02*
X2762Y3236D01*
X2816Y3236D02*
X2862Y3236D01*
X2017Y3235D02*
X2061Y3235D01*
X2117Y3235D02*
X2161Y3235D01*
X2217Y3235D02*
X2261Y3235D01*
X2317Y3235D02*
X2361Y3235D01*
X2417Y3235D02*
X2461Y3235D01*
X2517Y3235D02*
X2561Y3235D01*
X2617Y3235D02*
X2661Y3235D01*
X2717Y3235D02*
X2761Y3235D01*
X2817Y3235D02*
X2861Y3235D01*
X2019Y3234D02*
X2060Y3234D01*
X2119Y3234D02*
X2160Y3234D01*
X2219Y3234D02*
X2260Y3234D01*
X2319Y3234D02*
X2360Y3234D01*
X2419Y3234D02*
X2460Y3234D01*
X2518Y3234D02*
X2560Y3234D01*
X2618Y3234D02*
X2660Y3234D01*
X2718Y3234D02*
X2760Y3234D01*
X2818Y3234D02*
X2860Y3234D01*
X2020Y3233D02*
X2058Y3233D01*
X2120Y3233D02*
X2158Y3233D01*
X2220Y3233D02*
X2258Y3233D01*
X2320Y3233D02*
X2358Y3233D01*
X2420Y3233D02*
X2458Y3233D01*
X2520Y3233D02*
X2558Y3233D01*
X2620Y3233D02*
X2658Y3233D01*
X2720Y3233D02*
X2758Y3233D01*
X2820Y3233D02*
X2858Y3233D01*
X2022Y3232D02*
X2057Y3232D01*
X2122Y3232D02*
X2157Y3232D01*
X2222Y3232D02*
X2257Y3232D01*
X2322Y3232D02*
X2357Y3232D01*
X2422Y3232D02*
X2457Y3232D01*
X2522Y3232D02*
X2557Y3232D01*
X2622Y3232D02*
X2657Y3232D01*
X2722Y3232D02*
X2757Y3232D01*
X2822Y3232D02*
X2857Y3232D01*
X2023Y3231D02*
X2055Y3231D01*
X2123Y3231D02*
X2155Y3231D01*
X2223Y3231D02*
X2255Y3231D01*
X2323Y3231D02*
X2355Y3231D01*
X2423Y3231D02*
X2455Y3231D01*
X2523Y3231D02*
X2555Y3231D01*
X2623Y3231D02*
X2655Y3231D01*
X2723Y3231D02*
X2755Y3231D01*
X2823Y3231D02*
X2855Y3231D01*
X2025Y3230D02*
X2053Y3230D01*
X2125Y3230D02*
X2153Y3230D01*
X2225Y3230D02*
X2253Y3230D01*
X2325Y3230D02*
X2353Y3230D01*
X2425Y3230D02*
X2453Y3230D01*
X2525Y3230D02*
X2553Y3230D01*
X2625Y3230D02*
X2653Y3230D01*
X2725Y3230D02*
X2753Y3230D01*
X2825Y3230D02*
X2853Y3230D01*
X2028Y3229D02*
X2050Y3229D01*
X2128Y3229D02*
X2150Y3229D01*
X2228Y3229D02*
X2250Y3229D01*
X2328Y3229D02*
X2350Y3229D01*
X2428Y3229D02*
X2450Y3229D01*
X2528Y3229D02*
X2550Y3229D01*
X2628Y3229D02*
X2650Y3229D01*
X2728Y3229D02*
X2750Y3229D01*
X2828Y3229D02*
X2850Y3229D01*
X2031Y3228D02*
X2047Y3228D01*
X2131Y3228D02*
X2147Y3228D01*
X2231Y3228D02*
X2247Y3228D01*
X2331Y3228D02*
X2347Y3228D01*
X2431Y3228D02*
X2447Y3228D01*
X2531Y3228D02*
X2547Y3228D01*
X2631Y3228D02*
X2647Y3228D01*
X2731Y3228D02*
X2747Y3228D01*
X2831Y3228D02*
X2847Y3228D01*
X2036Y3227D02*
X2042Y3227D01*
X2136Y3227D02*
X2142Y3227D01*
X2236Y3227D02*
X2242Y3227D01*
X2336Y3227D02*
X2342Y3227D01*
X2436Y3227D02*
X2442Y3227D01*
X2536Y3227D02*
X2542Y3227D01*
X2636Y3227D02*
X2642Y3227D01*
X2736Y3227D02*
X2742Y3227D01*
X2836Y3227D02*
X2842Y3227D01*
X2033Y2996D02*
X2046Y2996D01*
X2133Y2996D02*
X2146Y2996D01*
X2233Y2996D02*
X2246Y2996D01*
X2333Y2996D02*
X2346Y2996D01*
X2433Y2996D02*
X2446Y2996D01*
X2533Y2996D02*
X2546Y2996D01*
X2633Y2996D02*
X2646Y2996D01*
X2733Y2996D02*
X2746Y2996D01*
X2833Y2996D02*
X2846Y2996D01*
X2029Y2995D02*
X2049Y2995D01*
X2129Y2995D02*
X2149Y2995D01*
X2229Y2995D02*
X2249Y2995D01*
X2329Y2995D02*
X2349Y2995D01*
X2429Y2995D02*
X2449Y2995D01*
X2529Y2995D02*
X2549Y2995D01*
X2629Y2995D02*
X2649Y2995D01*
X2729Y2995D02*
X2749Y2995D01*
X2829Y2995D02*
X2849Y2995D01*
X2026Y2994D02*
X2052Y2994D01*
X2126Y2994D02*
X2152Y2994D01*
X2226Y2994D02*
X2252Y2994D01*
X2326Y2994D02*
X2352Y2994D01*
X2426Y2994D02*
X2452Y2994D01*
X2526Y2994D02*
X2552Y2994D01*
X2626Y2994D02*
X2652Y2994D01*
X2726Y2994D02*
X2752Y2994D01*
X2826Y2994D02*
X2852Y2994D01*
X2024Y2993D02*
X2054Y2993D01*
X2124Y2993D02*
X2154Y2993D01*
X2224Y2993D02*
X2254Y2993D01*
X2324Y2993D02*
X2354Y2993D01*
X2424Y2993D02*
X2454Y2993D01*
X2524Y2993D02*
X2554Y2993D01*
X2624Y2993D02*
X2654Y2993D01*
X2724Y2993D02*
X2754Y2993D01*
X2824Y2993D02*
X2854Y2993D01*
X2022Y2992D02*
X2056Y2992D01*
X2122Y2992D02*
X2156Y2992D01*
X2222Y2992D02*
X2256Y2992D01*
X2322Y2992D02*
X2356Y2992D01*
X2422Y2992D02*
X2456Y2992D01*
X2522Y2992D02*
X2556Y2992D01*
X2622Y2992D02*
X2656Y2992D01*
X2722Y2992D02*
X2756Y2992D01*
X2822Y2992D02*
X2856Y2992D01*
X2021Y2991D02*
X2058Y2991D01*
X2121Y2991D02*
X2158Y2991D01*
X2221Y2991D02*
X2258Y2991D01*
X2321Y2991D02*
X2358Y2991D01*
X2421Y2991D02*
X2458Y2991D01*
X2521Y2991D02*
X2558Y2991D01*
X2621Y2991D02*
X2658Y2991D01*
X2721Y2991D02*
X2758Y2991D01*
X2821Y2991D02*
X2858Y2991D01*
X2019Y2990D02*
X2059Y2990D01*
X2119Y2990D02*
X2159Y2990D01*
X2219Y2990D02*
X2259Y2990D01*
X2319Y2990D02*
X2359Y2990D01*
X2419Y2990D02*
X2459Y2990D01*
X2519Y2990D02*
X2559Y2990D01*
X2619Y2990D02*
X2659Y2990D01*
X2719Y2990D02*
X2759Y2990D01*
X2819Y2990D02*
X2859Y2990D01*
X2018Y2989D02*
X2061Y2989D01*
X2118Y2989D02*
X2161Y2989D01*
X2218Y2989D02*
X2261Y2989D01*
X2318Y2989D02*
X2361Y2989D01*
X2418Y2989D02*
X2461Y2989D01*
X2518Y2989D02*
X2561Y2989D01*
X2618Y2989D02*
X2661Y2989D01*
X2718Y2989D02*
X2761Y2989D01*
X2818Y2989D02*
X2861Y2989D01*
X2017Y2988D02*
X2062Y2988D01*
X2117Y2988D02*
X2162Y2988D01*
X2217Y2988D02*
X2262Y2988D01*
X2317Y2988D02*
X2362Y2988D01*
X2417Y2988D02*
X2462Y2988D01*
X2517Y2988D02*
X2562Y2988D01*
X2616Y2988D02*
X2662Y2988D01*
X2716Y2988D02*
X2762Y2988D01*
X2816Y2988D02*
X2862Y2988D01*
X2015Y2987D02*
X2063Y2987D01*
X2115Y2987D02*
X2163Y2987D01*
X2215Y2987D02*
X2263Y2987D01*
X2315Y2987D02*
X2363Y2987D01*
X2415Y2987D02*
X2463Y2987D01*
X2515Y2987D02*
X2563Y2987D01*
X2615Y2987D02*
X2663Y2987D01*
X2715Y2987D02*
X2763Y2987D01*
X2815Y2987D02*
X2863Y2987D01*
X2014Y2986D02*
X2064Y2986D01*
X2114Y2986D02*
X2164Y2986D01*
X2214Y2986D02*
X2264Y2986D01*
X2314Y2986D02*
X2364Y2986D01*
X2414Y2986D02*
X2464Y2986D01*
X2514Y2986D02*
X2564Y2986D01*
X2614Y2986D02*
X2664Y2986D01*
X2714Y2986D02*
X2764Y2986D01*
X2814Y2986D02*
X2864Y2986D01*
X2014Y2985D02*
X2065Y2985D01*
X2114Y2985D02*
X2165Y2985D01*
X2214Y2985D02*
X2265Y2985D01*
X2314Y2985D02*
X2365Y2985D01*
X2414Y2985D02*
X2465Y2985D01*
X2513Y2985D02*
X2565Y2985D01*
X2613Y2985D02*
X2665Y2985D01*
X2713Y2985D02*
X2765Y2985D01*
X2813Y2985D02*
X2865Y2985D01*
X2013Y2984D02*
X2066Y2984D01*
X2113Y2984D02*
X2166Y2984D01*
X2213Y2984D02*
X2266Y2984D01*
X2313Y2984D02*
X2366Y2984D01*
X2413Y2984D02*
X2466Y2984D01*
X2513Y2984D02*
X2566Y2984D01*
X2613Y2984D02*
X2666Y2984D01*
X2713Y2984D02*
X2766Y2984D01*
X2813Y2984D02*
X2866Y2984D01*
X2012Y2983D02*
X2066Y2983D01*
X2112Y2983D02*
X2166Y2983D01*
X2212Y2983D02*
X2266Y2983D01*
X2312Y2983D02*
X2366Y2983D01*
X2412Y2983D02*
X2466Y2983D01*
X2512Y2983D02*
X2566Y2983D01*
X2612Y2983D02*
X2666Y2983D01*
X2712Y2983D02*
X2766Y2983D01*
X2812Y2983D02*
X2866Y2983D01*
X2011Y2982D02*
X2067Y2982D01*
X2111Y2982D02*
X2167Y2982D01*
X2211Y2982D02*
X2267Y2982D01*
X2311Y2982D02*
X2367Y2982D01*
X2411Y2982D02*
X2467Y2982D01*
X2511Y2982D02*
X2567Y2982D01*
X2611Y2982D02*
X2667Y2982D01*
X2711Y2982D02*
X2767Y2982D01*
X2811Y2982D02*
X2867Y2982D01*
X2011Y2981D02*
X2068Y2981D01*
X2111Y2981D02*
X2168Y2981D01*
X2211Y2981D02*
X2268Y2981D01*
X2311Y2981D02*
X2368Y2981D01*
X2411Y2981D02*
X2468Y2981D01*
X2511Y2981D02*
X2568Y2981D01*
X2611Y2981D02*
X2668Y2981D01*
X2711Y2981D02*
X2768Y2981D01*
X2811Y2981D02*
X2868Y2981D01*
X2010Y2980D02*
X2068Y2980D01*
X2110Y2980D02*
X2168Y2980D01*
X2210Y2980D02*
X2268Y2980D01*
X2310Y2980D02*
X2368Y2980D01*
X2410Y2980D02*
X2468Y2980D01*
X2510Y2980D02*
X2568Y2980D01*
X2610Y2980D02*
X2668Y2980D01*
X2710Y2980D02*
X2768Y2980D01*
X2810Y2980D02*
X2868Y2980D01*
X2009Y2979D02*
X2069Y2979D01*
X2109Y2979D02*
X2169Y2979D01*
X2209Y2979D02*
X2269Y2979D01*
X2309Y2979D02*
X2369Y2979D01*
X2409Y2979D02*
X2469Y2979D01*
X2509Y2979D02*
X2569Y2979D01*
X2609Y2979D02*
X2669Y2979D01*
X2709Y2979D02*
X2769Y2979D01*
X2809Y2979D02*
X2869Y2979D01*
X2009Y2978D02*
X2070Y2978D01*
X2109Y2978D02*
X2170Y2978D01*
X2209Y2978D02*
X2269Y2978D01*
X2309Y2978D02*
X2369Y2978D01*
X2409Y2978D02*
X2469Y2978D01*
X2509Y2978D02*
X2569Y2978D01*
X2609Y2978D02*
X2669Y2978D01*
X2709Y2978D02*
X2769Y2978D01*
X2809Y2978D02*
X2869Y2978D01*
X2008Y2977D02*
X2070Y2977D01*
X2108Y2977D02*
X2170Y2977D01*
X2208Y2977D02*
X2270Y2977D01*
X2308Y2977D02*
X2370Y2977D01*
X2408Y2977D02*
X2470Y2977D01*
X2508Y2977D02*
X2570Y2977D01*
X2608Y2977D02*
X2670Y2977D01*
X2708Y2977D02*
X2770Y2977D01*
X2808Y2977D02*
X2870Y2977D01*
X2008Y2976D02*
X2033Y2976D01*
X2045Y2976D02*
X2070Y2976D01*
X2108Y2976D02*
X2133Y2976D01*
X2145Y2976D02*
X2170Y2976D01*
X2208Y2976D02*
X2233Y2976D01*
X2245Y2976D02*
X2270Y2976D01*
X2308Y2976D02*
X2333Y2976D01*
X2345Y2976D02*
X2370Y2976D01*
X2408Y2976D02*
X2433Y2976D01*
X2445Y2976D02*
X2470Y2976D01*
X2508Y2976D02*
X2533Y2976D01*
X2545Y2976D02*
X2570Y2976D01*
X2608Y2976D02*
X2633Y2976D01*
X2645Y2976D02*
X2670Y2976D01*
X2708Y2976D02*
X2733Y2976D01*
X2745Y2976D02*
X2770Y2976D01*
X2808Y2976D02*
X2833Y2976D01*
X2845Y2976D02*
X2870Y2976D01*
X2007Y2975D02*
X2031Y2975D01*
X2047Y2975D02*
X2071Y2975D01*
X2107Y2975D02*
X2131Y2975D01*
X2147Y2975D02*
X2171Y2975D01*
X2207Y2975D02*
X2231Y2975D01*
X2247Y2975D02*
X2271Y2975D01*
X2307Y2975D02*
X2331Y2975D01*
X2347Y2975D02*
X2371Y2975D01*
X2407Y2975D02*
X2431Y2975D01*
X2447Y2975D02*
X2471Y2975D01*
X2507Y2975D02*
X2531Y2975D01*
X2547Y2975D02*
X2571Y2975D01*
X2607Y2975D02*
X2631Y2975D01*
X2647Y2975D02*
X2671Y2975D01*
X2707Y2975D02*
X2731Y2975D01*
X2747Y2975D02*
X2771Y2975D01*
X2807Y2975D02*
X2831Y2975D01*
X2847Y2975D02*
X2871Y2975D01*
X2007Y2974D02*
X2030Y2974D01*
X2048Y2974D02*
X2071Y2974D01*
X2107Y2974D02*
X2130Y2974D01*
X2148Y2974D02*
X2171Y2974D01*
X2207Y2974D02*
X2230Y2974D01*
X2248Y2974D02*
X2271Y2974D01*
X2307Y2974D02*
X2330Y2974D01*
X2348Y2974D02*
X2371Y2974D01*
X2407Y2974D02*
X2430Y2974D01*
X2448Y2974D02*
X2471Y2974D01*
X2507Y2974D02*
X2530Y2974D01*
X2548Y2974D02*
X2571Y2974D01*
X2607Y2974D02*
X2630Y2974D01*
X2648Y2974D02*
X2671Y2974D01*
X2707Y2974D02*
X2730Y2974D01*
X2748Y2974D02*
X2771Y2974D01*
X2807Y2974D02*
X2830Y2974D01*
X2848Y2974D02*
X2871Y2974D01*
X2007Y2973D02*
X2029Y2973D01*
X2050Y2973D02*
X2072Y2973D01*
X2107Y2973D02*
X2129Y2973D01*
X2150Y2973D02*
X2172Y2973D01*
X2207Y2973D02*
X2229Y2973D01*
X2250Y2973D02*
X2272Y2973D01*
X2307Y2973D02*
X2329Y2973D01*
X2350Y2973D02*
X2372Y2973D01*
X2407Y2973D02*
X2429Y2973D01*
X2450Y2973D02*
X2472Y2973D01*
X2507Y2973D02*
X2529Y2973D01*
X2550Y2973D02*
X2572Y2973D01*
X2607Y2973D02*
X2629Y2973D01*
X2650Y2973D02*
X2672Y2973D01*
X2707Y2973D02*
X2729Y2973D01*
X2750Y2973D02*
X2772Y2973D01*
X2807Y2973D02*
X2829Y2973D01*
X2850Y2973D02*
X2872Y2973D01*
X2006Y2972D02*
X2028Y2972D01*
X2051Y2972D02*
X2072Y2972D01*
X2106Y2972D02*
X2128Y2972D01*
X2151Y2972D02*
X2172Y2972D01*
X2206Y2972D02*
X2228Y2972D01*
X2251Y2972D02*
X2272Y2972D01*
X2306Y2972D02*
X2328Y2972D01*
X2351Y2972D02*
X2372Y2972D01*
X2406Y2972D02*
X2428Y2972D01*
X2451Y2972D02*
X2472Y2972D01*
X2506Y2972D02*
X2528Y2972D01*
X2551Y2972D02*
X2572Y2972D01*
X2606Y2972D02*
X2628Y2972D01*
X2651Y2972D02*
X2672Y2972D01*
X2706Y2972D02*
X2728Y2972D01*
X2751Y2972D02*
X2772Y2972D01*
X2806Y2972D02*
X2828Y2972D01*
X2851Y2972D02*
X2872Y2972D01*
X2006Y2971D02*
X2027Y2971D01*
X2052Y2971D02*
X2072Y2971D01*
X2106Y2971D02*
X2127Y2971D01*
X2152Y2971D02*
X2172Y2971D01*
X2206Y2971D02*
X2227Y2971D01*
X2252Y2971D02*
X2272Y2971D01*
X2306Y2971D02*
X2327Y2971D01*
X2352Y2971D02*
X2372Y2971D01*
X2406Y2971D02*
X2427Y2971D01*
X2452Y2971D02*
X2472Y2971D01*
X2506Y2971D02*
X2527Y2971D01*
X2551Y2971D02*
X2572Y2971D01*
X2606Y2971D02*
X2627Y2971D01*
X2651Y2971D02*
X2672Y2971D01*
X2706Y2971D02*
X2727Y2971D01*
X2751Y2971D02*
X2772Y2971D01*
X2806Y2971D02*
X2827Y2971D01*
X2851Y2971D02*
X2872Y2971D01*
X2006Y2970D02*
X2026Y2970D01*
X2052Y2970D02*
X2073Y2970D01*
X2106Y2970D02*
X2126Y2970D01*
X2152Y2970D02*
X2173Y2970D01*
X2206Y2970D02*
X2226Y2970D01*
X2252Y2970D02*
X2273Y2970D01*
X2306Y2970D02*
X2326Y2970D01*
X2352Y2970D02*
X2373Y2970D01*
X2406Y2970D02*
X2426Y2970D01*
X2452Y2970D02*
X2473Y2970D01*
X2506Y2970D02*
X2526Y2970D01*
X2552Y2970D02*
X2573Y2970D01*
X2606Y2970D02*
X2626Y2970D01*
X2652Y2970D02*
X2672Y2970D01*
X2706Y2970D02*
X2726Y2970D01*
X2752Y2970D02*
X2772Y2970D01*
X2806Y2970D02*
X2826Y2970D01*
X2852Y2970D02*
X2872Y2970D01*
X2006Y2969D02*
X2025Y2969D01*
X2053Y2969D02*
X2073Y2969D01*
X2106Y2969D02*
X2125Y2969D01*
X2153Y2969D02*
X2173Y2969D01*
X2206Y2969D02*
X2225Y2969D01*
X2253Y2969D02*
X2273Y2969D01*
X2306Y2969D02*
X2325Y2969D01*
X2353Y2969D02*
X2373Y2969D01*
X2406Y2969D02*
X2425Y2969D01*
X2453Y2969D02*
X2473Y2969D01*
X2506Y2969D02*
X2525Y2969D01*
X2553Y2969D02*
X2573Y2969D01*
X2606Y2969D02*
X2625Y2969D01*
X2653Y2969D02*
X2673Y2969D01*
X2705Y2969D02*
X2725Y2969D01*
X2753Y2969D02*
X2773Y2969D01*
X2805Y2969D02*
X2825Y2969D01*
X2853Y2969D02*
X2873Y2969D01*
X2005Y2968D02*
X2025Y2968D01*
X2054Y2968D02*
X2073Y2968D01*
X2105Y2968D02*
X2125Y2968D01*
X2154Y2968D02*
X2173Y2968D01*
X2205Y2968D02*
X2225Y2968D01*
X2254Y2968D02*
X2273Y2968D01*
X2305Y2968D02*
X2325Y2968D01*
X2353Y2968D02*
X2373Y2968D01*
X2405Y2968D02*
X2425Y2968D01*
X2453Y2968D02*
X2473Y2968D01*
X2505Y2968D02*
X2525Y2968D01*
X2553Y2968D02*
X2573Y2968D01*
X2605Y2968D02*
X2625Y2968D01*
X2653Y2968D02*
X2673Y2968D01*
X2705Y2968D02*
X2725Y2968D01*
X2753Y2968D02*
X2773Y2968D01*
X2805Y2968D02*
X2825Y2968D01*
X2853Y2968D02*
X2873Y2968D01*
X2005Y2967D02*
X2024Y2967D01*
X2054Y2967D02*
X2073Y2967D01*
X2105Y2967D02*
X2124Y2967D01*
X2154Y2967D02*
X2173Y2967D01*
X2205Y2967D02*
X2224Y2967D01*
X2254Y2967D02*
X2273Y2967D01*
X2305Y2967D02*
X2324Y2967D01*
X2354Y2967D02*
X2373Y2967D01*
X2405Y2967D02*
X2424Y2967D01*
X2454Y2967D02*
X2473Y2967D01*
X2505Y2967D02*
X2524Y2967D01*
X2554Y2967D02*
X2573Y2967D01*
X2605Y2967D02*
X2624Y2967D01*
X2654Y2967D02*
X2673Y2967D01*
X2705Y2967D02*
X2724Y2967D01*
X2754Y2967D02*
X2773Y2967D01*
X2805Y2967D02*
X2824Y2967D01*
X2854Y2967D02*
X2873Y2967D01*
X2005Y2966D02*
X2024Y2966D01*
X2054Y2966D02*
X2073Y2966D01*
X2105Y2966D02*
X2124Y2966D01*
X2154Y2966D02*
X2173Y2966D01*
X2205Y2966D02*
X2224Y2966D01*
X2254Y2966D02*
X2273Y2966D01*
X2305Y2966D02*
X2324Y2966D01*
X2354Y2966D02*
X2373Y2966D01*
X2405Y2966D02*
X2424Y2966D01*
X2454Y2966D02*
X2473Y2966D01*
X2505Y2966D02*
X2524Y2966D01*
X2554Y2966D02*
X2573Y2966D01*
X2605Y2966D02*
X2624Y2966D01*
X2654Y2966D02*
X2673Y2966D01*
X2705Y2966D02*
X2724Y2966D01*
X2754Y2966D02*
X2773Y2966D01*
X2805Y2966D02*
X2824Y2966D01*
X2854Y2966D02*
X2873Y2966D01*
X2005Y2965D02*
X2024Y2965D01*
X2054Y2965D02*
X2073Y2965D01*
X2105Y2965D02*
X2124Y2965D01*
X2154Y2965D02*
X2173Y2965D01*
X2205Y2965D02*
X2224Y2965D01*
X2254Y2965D02*
X2273Y2965D01*
X2305Y2965D02*
X2324Y2965D01*
X2354Y2965D02*
X2373Y2965D01*
X2405Y2965D02*
X2424Y2965D01*
X2454Y2965D02*
X2473Y2965D01*
X2505Y2965D02*
X2524Y2965D01*
X2554Y2965D02*
X2573Y2965D01*
X2605Y2965D02*
X2624Y2965D01*
X2654Y2965D02*
X2673Y2965D01*
X2705Y2965D02*
X2724Y2965D01*
X2754Y2965D02*
X2773Y2965D01*
X2805Y2965D02*
X2824Y2965D01*
X2854Y2965D02*
X2873Y2965D01*
X2005Y2964D02*
X2024Y2964D01*
X2055Y2964D02*
X2074Y2964D01*
X2105Y2964D02*
X2124Y2964D01*
X2155Y2964D02*
X2174Y2964D01*
X2205Y2964D02*
X2224Y2964D01*
X2255Y2964D02*
X2274Y2964D01*
X2305Y2964D02*
X2324Y2964D01*
X2355Y2964D02*
X2374Y2964D01*
X2405Y2964D02*
X2424Y2964D01*
X2454Y2964D02*
X2474Y2964D01*
X2505Y2964D02*
X2524Y2964D01*
X2554Y2964D02*
X2574Y2964D01*
X2605Y2964D02*
X2624Y2964D01*
X2654Y2964D02*
X2674Y2964D01*
X2705Y2964D02*
X2724Y2964D01*
X2754Y2964D02*
X2773Y2964D01*
X2805Y2964D02*
X2824Y2964D01*
X2854Y2964D02*
X2873Y2964D01*
X2005Y2963D02*
X2024Y2963D01*
X2055Y2963D02*
X2074Y2963D01*
X2105Y2963D02*
X2124Y2963D01*
X2155Y2963D02*
X2174Y2963D01*
X2205Y2963D02*
X2224Y2963D01*
X2255Y2963D02*
X2274Y2963D01*
X2305Y2963D02*
X2324Y2963D01*
X2355Y2963D02*
X2374Y2963D01*
X2405Y2963D02*
X2424Y2963D01*
X2455Y2963D02*
X2474Y2963D01*
X2505Y2963D02*
X2524Y2963D01*
X2555Y2963D02*
X2574Y2963D01*
X2605Y2963D02*
X2624Y2963D01*
X2655Y2963D02*
X2674Y2963D01*
X2705Y2963D02*
X2724Y2963D01*
X2755Y2963D02*
X2774Y2963D01*
X2805Y2963D02*
X2824Y2963D01*
X2855Y2963D02*
X2874Y2963D01*
X2005Y2962D02*
X2024Y2962D01*
X2055Y2962D02*
X2074Y2962D01*
X2105Y2962D02*
X2124Y2962D01*
X2155Y2962D02*
X2174Y2962D01*
X2205Y2962D02*
X2224Y2962D01*
X2255Y2962D02*
X2274Y2962D01*
X2305Y2962D02*
X2324Y2962D01*
X2355Y2962D02*
X2374Y2962D01*
X2405Y2962D02*
X2424Y2962D01*
X2455Y2962D02*
X2474Y2962D01*
X2505Y2962D02*
X2524Y2962D01*
X2555Y2962D02*
X2574Y2962D01*
X2605Y2962D02*
X2624Y2962D01*
X2655Y2962D02*
X2674Y2962D01*
X2705Y2962D02*
X2724Y2962D01*
X2755Y2962D02*
X2774Y2962D01*
X2805Y2962D02*
X2824Y2962D01*
X2855Y2962D02*
X2874Y2962D01*
X2005Y2961D02*
X2024Y2961D01*
X2055Y2961D02*
X2074Y2961D01*
X2105Y2961D02*
X2124Y2961D01*
X2155Y2961D02*
X2174Y2961D01*
X2205Y2961D02*
X2224Y2961D01*
X2255Y2961D02*
X2274Y2961D01*
X2305Y2961D02*
X2324Y2961D01*
X2355Y2961D02*
X2374Y2961D01*
X2405Y2961D02*
X2424Y2961D01*
X2455Y2961D02*
X2474Y2961D01*
X2505Y2961D02*
X2524Y2961D01*
X2555Y2961D02*
X2574Y2961D01*
X2605Y2961D02*
X2624Y2961D01*
X2655Y2961D02*
X2674Y2961D01*
X2705Y2961D02*
X2724Y2961D01*
X2755Y2961D02*
X2774Y2961D01*
X2805Y2961D02*
X2824Y2961D01*
X2855Y2961D02*
X2874Y2961D01*
X2005Y2960D02*
X2024Y2960D01*
X2055Y2960D02*
X2074Y2960D01*
X2105Y2960D02*
X2124Y2960D01*
X2155Y2960D02*
X2174Y2960D01*
X2205Y2960D02*
X2224Y2960D01*
X2255Y2960D02*
X2274Y2960D01*
X2305Y2960D02*
X2324Y2960D01*
X2355Y2960D02*
X2374Y2960D01*
X2405Y2960D02*
X2424Y2960D01*
X2455Y2960D02*
X2474Y2960D01*
X2505Y2960D02*
X2524Y2960D01*
X2555Y2960D02*
X2574Y2960D01*
X2605Y2960D02*
X2624Y2960D01*
X2655Y2960D02*
X2674Y2960D01*
X2705Y2960D02*
X2724Y2960D01*
X2754Y2960D02*
X2774Y2960D01*
X2805Y2960D02*
X2824Y2960D01*
X2854Y2960D02*
X2874Y2960D01*
X2005Y2959D02*
X2024Y2959D01*
X2054Y2959D02*
X2074Y2959D01*
X2105Y2959D02*
X2124Y2959D01*
X2154Y2959D02*
X2174Y2959D01*
X2205Y2959D02*
X2224Y2959D01*
X2254Y2959D02*
X2274Y2959D01*
X2305Y2959D02*
X2324Y2959D01*
X2354Y2959D02*
X2373Y2959D01*
X2405Y2959D02*
X2424Y2959D01*
X2454Y2959D02*
X2473Y2959D01*
X2505Y2959D02*
X2524Y2959D01*
X2554Y2959D02*
X2573Y2959D01*
X2605Y2959D02*
X2624Y2959D01*
X2654Y2959D02*
X2673Y2959D01*
X2705Y2959D02*
X2724Y2959D01*
X2754Y2959D02*
X2773Y2959D01*
X2805Y2959D02*
X2824Y2959D01*
X2854Y2959D02*
X2873Y2959D01*
X2005Y2958D02*
X2024Y2958D01*
X2054Y2958D02*
X2073Y2958D01*
X2105Y2958D02*
X2124Y2958D01*
X2154Y2958D02*
X2173Y2958D01*
X2205Y2958D02*
X2224Y2958D01*
X2254Y2958D02*
X2273Y2958D01*
X2305Y2958D02*
X2324Y2958D01*
X2354Y2958D02*
X2373Y2958D01*
X2405Y2958D02*
X2424Y2958D01*
X2454Y2958D02*
X2473Y2958D01*
X2505Y2958D02*
X2524Y2958D01*
X2554Y2958D02*
X2573Y2958D01*
X2605Y2958D02*
X2624Y2958D01*
X2654Y2958D02*
X2673Y2958D01*
X2705Y2958D02*
X2724Y2958D01*
X2754Y2958D02*
X2773Y2958D01*
X2805Y2958D02*
X2824Y2958D01*
X2854Y2958D02*
X2873Y2958D01*
X2005Y2957D02*
X2024Y2957D01*
X2054Y2957D02*
X2073Y2957D01*
X2105Y2957D02*
X2124Y2957D01*
X2154Y2957D02*
X2173Y2957D01*
X2205Y2957D02*
X2224Y2957D01*
X2254Y2957D02*
X2273Y2957D01*
X2305Y2957D02*
X2324Y2957D01*
X2354Y2957D02*
X2373Y2957D01*
X2405Y2957D02*
X2424Y2957D01*
X2454Y2957D02*
X2473Y2957D01*
X2505Y2957D02*
X2524Y2957D01*
X2554Y2957D02*
X2573Y2957D01*
X2605Y2957D02*
X2624Y2957D01*
X2654Y2957D02*
X2673Y2957D01*
X2705Y2957D02*
X2724Y2957D01*
X2754Y2957D02*
X2773Y2957D01*
X2805Y2957D02*
X2824Y2957D01*
X2854Y2957D02*
X2873Y2957D01*
X2005Y2956D02*
X2025Y2956D01*
X2054Y2956D02*
X2073Y2956D01*
X2105Y2956D02*
X2125Y2956D01*
X2154Y2956D02*
X2173Y2956D01*
X2205Y2956D02*
X2225Y2956D01*
X2254Y2956D02*
X2273Y2956D01*
X2305Y2956D02*
X2325Y2956D01*
X2354Y2956D02*
X2373Y2956D01*
X2405Y2956D02*
X2425Y2956D01*
X2454Y2956D02*
X2473Y2956D01*
X2505Y2956D02*
X2525Y2956D01*
X2554Y2956D02*
X2573Y2956D01*
X2605Y2956D02*
X2625Y2956D01*
X2654Y2956D02*
X2673Y2956D01*
X2705Y2956D02*
X2725Y2956D01*
X2754Y2956D02*
X2773Y2956D01*
X2805Y2956D02*
X2825Y2956D01*
X2854Y2956D02*
X2873Y2956D01*
X2005Y2955D02*
X2025Y2955D01*
X2053Y2955D02*
X2073Y2955D01*
X2105Y2955D02*
X2125Y2955D01*
X2153Y2955D02*
X2173Y2955D01*
X2205Y2955D02*
X2225Y2955D01*
X2253Y2955D02*
X2273Y2955D01*
X2305Y2955D02*
X2325Y2955D01*
X2353Y2955D02*
X2373Y2955D01*
X2405Y2955D02*
X2425Y2955D01*
X2453Y2955D02*
X2473Y2955D01*
X2505Y2955D02*
X2525Y2955D01*
X2553Y2955D02*
X2573Y2955D01*
X2605Y2955D02*
X2625Y2955D01*
X2653Y2955D02*
X2673Y2955D01*
X2705Y2955D02*
X2725Y2955D01*
X2753Y2955D02*
X2773Y2955D01*
X2805Y2955D02*
X2825Y2955D01*
X2853Y2955D02*
X2873Y2955D01*
X2006Y2954D02*
X2026Y2954D01*
X2053Y2954D02*
X2073Y2954D01*
X2106Y2954D02*
X2126Y2954D01*
X2153Y2954D02*
X2173Y2954D01*
X2206Y2954D02*
X2226Y2954D01*
X2253Y2954D02*
X2273Y2954D01*
X2306Y2954D02*
X2326Y2954D01*
X2353Y2954D02*
X2373Y2954D01*
X2406Y2954D02*
X2426Y2954D01*
X2453Y2954D02*
X2473Y2954D01*
X2506Y2954D02*
X2526Y2954D01*
X2553Y2954D02*
X2573Y2954D01*
X2606Y2954D02*
X2626Y2954D01*
X2653Y2954D02*
X2673Y2954D01*
X2706Y2954D02*
X2726Y2954D01*
X2753Y2954D02*
X2773Y2954D01*
X2806Y2954D02*
X2826Y2954D01*
X2853Y2954D02*
X2873Y2954D01*
X2006Y2953D02*
X2027Y2953D01*
X2052Y2953D02*
X2072Y2953D01*
X2106Y2953D02*
X2127Y2953D01*
X2152Y2953D02*
X2172Y2953D01*
X2206Y2953D02*
X2227Y2953D01*
X2252Y2953D02*
X2272Y2953D01*
X2306Y2953D02*
X2327Y2953D01*
X2352Y2953D02*
X2372Y2953D01*
X2406Y2953D02*
X2426Y2953D01*
X2452Y2953D02*
X2472Y2953D01*
X2506Y2953D02*
X2526Y2953D01*
X2552Y2953D02*
X2572Y2953D01*
X2606Y2953D02*
X2626Y2953D01*
X2652Y2953D02*
X2672Y2953D01*
X2706Y2953D02*
X2726Y2953D01*
X2752Y2953D02*
X2772Y2953D01*
X2806Y2953D02*
X2826Y2953D01*
X2852Y2953D02*
X2872Y2953D01*
X2006Y2952D02*
X2027Y2952D01*
X2051Y2952D02*
X2072Y2952D01*
X2106Y2952D02*
X2127Y2952D01*
X2151Y2952D02*
X2172Y2952D01*
X2206Y2952D02*
X2227Y2952D01*
X2251Y2952D02*
X2272Y2952D01*
X2306Y2952D02*
X2327Y2952D01*
X2351Y2952D02*
X2372Y2952D01*
X2406Y2952D02*
X2427Y2952D01*
X2451Y2952D02*
X2472Y2952D01*
X2506Y2952D02*
X2527Y2952D01*
X2551Y2952D02*
X2572Y2952D01*
X2606Y2952D02*
X2627Y2952D01*
X2651Y2952D02*
X2672Y2952D01*
X2706Y2952D02*
X2727Y2952D01*
X2751Y2952D02*
X2772Y2952D01*
X2806Y2952D02*
X2827Y2952D01*
X2851Y2952D02*
X2872Y2952D01*
X2007Y2951D02*
X2028Y2951D01*
X2050Y2951D02*
X2072Y2951D01*
X2107Y2951D02*
X2128Y2951D01*
X2150Y2951D02*
X2172Y2951D01*
X2207Y2951D02*
X2228Y2951D01*
X2250Y2951D02*
X2272Y2951D01*
X2307Y2951D02*
X2328Y2951D01*
X2350Y2951D02*
X2372Y2951D01*
X2407Y2951D02*
X2428Y2951D01*
X2450Y2951D02*
X2472Y2951D01*
X2507Y2951D02*
X2528Y2951D01*
X2550Y2951D02*
X2572Y2951D01*
X2607Y2951D02*
X2628Y2951D01*
X2650Y2951D02*
X2672Y2951D01*
X2707Y2951D02*
X2728Y2951D01*
X2750Y2951D02*
X2772Y2951D01*
X2807Y2951D02*
X2828Y2951D01*
X2850Y2951D02*
X2872Y2951D01*
X2007Y2950D02*
X2029Y2950D01*
X2049Y2950D02*
X2071Y2950D01*
X2107Y2950D02*
X2129Y2950D01*
X2149Y2950D02*
X2171Y2950D01*
X2207Y2950D02*
X2229Y2950D01*
X2249Y2950D02*
X2271Y2950D01*
X2307Y2950D02*
X2329Y2950D01*
X2349Y2950D02*
X2371Y2950D01*
X2407Y2950D02*
X2429Y2950D01*
X2449Y2950D02*
X2471Y2950D01*
X2507Y2950D02*
X2529Y2950D01*
X2549Y2950D02*
X2571Y2950D01*
X2607Y2950D02*
X2629Y2950D01*
X2649Y2950D02*
X2671Y2950D01*
X2707Y2950D02*
X2729Y2950D01*
X2749Y2950D02*
X2771Y2950D01*
X2807Y2950D02*
X2829Y2950D01*
X2849Y2950D02*
X2871Y2950D01*
X2007Y2949D02*
X2031Y2949D01*
X2048Y2949D02*
X2071Y2949D01*
X2107Y2949D02*
X2131Y2949D01*
X2148Y2949D02*
X2171Y2949D01*
X2207Y2949D02*
X2231Y2949D01*
X2248Y2949D02*
X2271Y2949D01*
X2307Y2949D02*
X2331Y2949D01*
X2348Y2949D02*
X2371Y2949D01*
X2407Y2949D02*
X2431Y2949D01*
X2448Y2949D02*
X2471Y2949D01*
X2507Y2949D02*
X2531Y2949D01*
X2548Y2949D02*
X2571Y2949D01*
X2607Y2949D02*
X2631Y2949D01*
X2648Y2949D02*
X2671Y2949D01*
X2707Y2949D02*
X2731Y2949D01*
X2748Y2949D02*
X2771Y2949D01*
X2807Y2949D02*
X2831Y2949D01*
X2848Y2949D02*
X2871Y2949D01*
X2008Y2948D02*
X2033Y2948D01*
X2046Y2948D02*
X2071Y2948D01*
X2108Y2948D02*
X2132Y2948D01*
X2146Y2948D02*
X2171Y2948D01*
X2208Y2948D02*
X2232Y2948D01*
X2246Y2948D02*
X2271Y2948D01*
X2308Y2948D02*
X2332Y2948D01*
X2346Y2948D02*
X2371Y2948D01*
X2408Y2948D02*
X2432Y2948D01*
X2446Y2948D02*
X2471Y2948D01*
X2508Y2948D02*
X2532Y2948D01*
X2546Y2948D02*
X2571Y2948D01*
X2608Y2948D02*
X2632Y2948D01*
X2646Y2948D02*
X2671Y2948D01*
X2708Y2948D02*
X2732Y2948D01*
X2746Y2948D02*
X2771Y2948D01*
X2808Y2948D02*
X2832Y2948D01*
X2846Y2948D02*
X2871Y2948D01*
X2008Y2947D02*
X2036Y2947D01*
X2042Y2947D02*
X2070Y2947D01*
X2108Y2947D02*
X2136Y2947D01*
X2142Y2947D02*
X2170Y2947D01*
X2208Y2947D02*
X2236Y2947D01*
X2242Y2947D02*
X2270Y2947D01*
X2308Y2947D02*
X2336Y2947D01*
X2342Y2947D02*
X2370Y2947D01*
X2408Y2947D02*
X2436Y2947D01*
X2442Y2947D02*
X2470Y2947D01*
X2508Y2947D02*
X2536Y2947D01*
X2542Y2947D02*
X2570Y2947D01*
X2608Y2947D02*
X2636Y2947D01*
X2642Y2947D02*
X2670Y2947D01*
X2708Y2947D02*
X2736Y2947D01*
X2742Y2947D02*
X2770Y2947D01*
X2808Y2947D02*
X2836Y2947D01*
X2842Y2947D02*
X2870Y2947D01*
X2009Y2946D02*
X2070Y2946D01*
X2109Y2946D02*
X2170Y2946D01*
X2209Y2946D02*
X2270Y2946D01*
X2309Y2946D02*
X2370Y2946D01*
X2409Y2946D02*
X2470Y2946D01*
X2509Y2946D02*
X2570Y2946D01*
X2609Y2946D02*
X2670Y2946D01*
X2709Y2946D02*
X2770Y2946D01*
X2809Y2946D02*
X2870Y2946D01*
X2009Y2945D02*
X2069Y2945D01*
X2109Y2945D02*
X2169Y2945D01*
X2209Y2945D02*
X2269Y2945D01*
X2309Y2945D02*
X2369Y2945D01*
X2409Y2945D02*
X2469Y2945D01*
X2509Y2945D02*
X2569Y2945D01*
X2609Y2945D02*
X2669Y2945D01*
X2709Y2945D02*
X2769Y2945D01*
X2809Y2945D02*
X2869Y2945D01*
X2010Y2944D02*
X2069Y2944D01*
X2110Y2944D02*
X2169Y2944D01*
X2210Y2944D02*
X2269Y2944D01*
X2310Y2944D02*
X2369Y2944D01*
X2410Y2944D02*
X2469Y2944D01*
X2510Y2944D02*
X2569Y2944D01*
X2610Y2944D02*
X2669Y2944D01*
X2710Y2944D02*
X2769Y2944D01*
X2810Y2944D02*
X2869Y2944D01*
X2010Y2943D02*
X2068Y2943D01*
X2110Y2943D02*
X2168Y2943D01*
X2210Y2943D02*
X2268Y2943D01*
X2310Y2943D02*
X2368Y2943D01*
X2410Y2943D02*
X2468Y2943D01*
X2510Y2943D02*
X2568Y2943D01*
X2610Y2943D02*
X2668Y2943D01*
X2710Y2943D02*
X2768Y2943D01*
X2810Y2943D02*
X2868Y2943D01*
X2011Y2942D02*
X2067Y2942D01*
X2111Y2942D02*
X2167Y2942D01*
X2211Y2942D02*
X2267Y2942D01*
X2311Y2942D02*
X2367Y2942D01*
X2411Y2942D02*
X2467Y2942D01*
X2511Y2942D02*
X2567Y2942D01*
X2611Y2942D02*
X2667Y2942D01*
X2711Y2942D02*
X2767Y2942D01*
X2811Y2942D02*
X2867Y2942D01*
X2012Y2941D02*
X2067Y2941D01*
X2112Y2941D02*
X2167Y2941D01*
X2212Y2941D02*
X2267Y2941D01*
X2312Y2941D02*
X2367Y2941D01*
X2412Y2941D02*
X2467Y2941D01*
X2512Y2941D02*
X2567Y2941D01*
X2612Y2941D02*
X2667Y2941D01*
X2712Y2941D02*
X2767Y2941D01*
X2812Y2941D02*
X2867Y2941D01*
X2012Y2940D02*
X2066Y2940D01*
X2112Y2940D02*
X2166Y2940D01*
X2212Y2940D02*
X2266Y2940D01*
X2312Y2940D02*
X2366Y2940D01*
X2412Y2940D02*
X2466Y2940D01*
X2512Y2940D02*
X2566Y2940D01*
X2612Y2940D02*
X2666Y2940D01*
X2712Y2940D02*
X2766Y2940D01*
X2812Y2940D02*
X2866Y2940D01*
X2013Y2939D02*
X2065Y2939D01*
X2113Y2939D02*
X2165Y2939D01*
X2213Y2939D02*
X2265Y2939D01*
X2313Y2939D02*
X2365Y2939D01*
X2413Y2939D02*
X2465Y2939D01*
X2513Y2939D02*
X2565Y2939D01*
X2613Y2939D02*
X2665Y2939D01*
X2713Y2939D02*
X2765Y2939D01*
X2813Y2939D02*
X2865Y2939D01*
X2014Y2938D02*
X2064Y2938D01*
X2114Y2938D02*
X2164Y2938D01*
X2214Y2938D02*
X2264Y2938D01*
X2314Y2938D02*
X2364Y2938D01*
X2414Y2938D02*
X2464Y2938D01*
X2514Y2938D02*
X2564Y2938D01*
X2614Y2938D02*
X2664Y2938D01*
X2714Y2938D02*
X2764Y2938D01*
X2814Y2938D02*
X2864Y2938D01*
X2015Y2937D02*
X2063Y2937D01*
X2115Y2937D02*
X2163Y2937D01*
X2215Y2937D02*
X2263Y2937D01*
X2315Y2937D02*
X2363Y2937D01*
X2415Y2937D02*
X2463Y2937D01*
X2515Y2937D02*
X2563Y2937D01*
X2615Y2937D02*
X2663Y2937D01*
X2715Y2937D02*
X2763Y2937D01*
X2815Y2937D02*
X2863Y2937D01*
X2016Y2936D02*
X2062Y2936D01*
X2116Y2936D02*
X2162Y2936D01*
X2216Y2936D02*
X2262Y2936D01*
X2316Y2936D02*
X2362Y2936D01*
X2416Y2936D02*
X2462Y2936D01*
X2516Y2936D02*
X2562Y2936D01*
X2616Y2936D02*
X2662Y2936D01*
X2716Y2936D02*
X2762Y2936D01*
X2816Y2936D02*
X2862Y2936D01*
X2017Y2935D02*
X2061Y2935D01*
X2117Y2935D02*
X2161Y2935D01*
X2217Y2935D02*
X2261Y2935D01*
X2317Y2935D02*
X2361Y2935D01*
X2417Y2935D02*
X2461Y2935D01*
X2517Y2935D02*
X2561Y2935D01*
X2617Y2935D02*
X2661Y2935D01*
X2717Y2935D02*
X2761Y2935D01*
X2817Y2935D02*
X2861Y2935D01*
X2019Y2934D02*
X2060Y2934D01*
X2119Y2934D02*
X2160Y2934D01*
X2219Y2934D02*
X2260Y2934D01*
X2319Y2934D02*
X2360Y2934D01*
X2419Y2934D02*
X2460Y2934D01*
X2519Y2934D02*
X2560Y2934D01*
X2619Y2934D02*
X2660Y2934D01*
X2719Y2934D02*
X2760Y2934D01*
X2819Y2934D02*
X2860Y2934D01*
X2020Y2933D02*
X2058Y2933D01*
X2120Y2933D02*
X2158Y2933D01*
X2220Y2933D02*
X2258Y2933D01*
X2320Y2933D02*
X2358Y2933D01*
X2420Y2933D02*
X2458Y2933D01*
X2520Y2933D02*
X2558Y2933D01*
X2620Y2933D02*
X2658Y2933D01*
X2720Y2933D02*
X2758Y2933D01*
X2820Y2933D02*
X2858Y2933D01*
X2022Y2932D02*
X2057Y2932D01*
X2122Y2932D02*
X2157Y2932D01*
X2222Y2932D02*
X2257Y2932D01*
X2322Y2932D02*
X2357Y2932D01*
X2422Y2932D02*
X2457Y2932D01*
X2522Y2932D02*
X2557Y2932D01*
X2622Y2932D02*
X2657Y2932D01*
X2722Y2932D02*
X2757Y2932D01*
X2822Y2932D02*
X2857Y2932D01*
X2024Y2931D02*
X2055Y2931D01*
X2124Y2931D02*
X2155Y2931D01*
X2224Y2931D02*
X2255Y2931D01*
X2324Y2931D02*
X2355Y2931D01*
X2424Y2931D02*
X2455Y2931D01*
X2523Y2931D02*
X2555Y2931D01*
X2623Y2931D02*
X2655Y2931D01*
X2723Y2931D02*
X2755Y2931D01*
X2823Y2931D02*
X2855Y2931D01*
X2026Y2930D02*
X2053Y2930D01*
X2126Y2930D02*
X2153Y2930D01*
X2226Y2930D02*
X2253Y2930D01*
X2326Y2930D02*
X2353Y2930D01*
X2426Y2930D02*
X2453Y2930D01*
X2526Y2930D02*
X2553Y2930D01*
X2626Y2930D02*
X2653Y2930D01*
X2726Y2930D02*
X2753Y2930D01*
X2826Y2930D02*
X2853Y2930D01*
X2028Y2929D02*
X2050Y2929D01*
X2128Y2929D02*
X2150Y2929D01*
X2228Y2929D02*
X2250Y2929D01*
X2328Y2929D02*
X2350Y2929D01*
X2428Y2929D02*
X2450Y2929D01*
X2528Y2929D02*
X2550Y2929D01*
X2628Y2929D02*
X2650Y2929D01*
X2728Y2929D02*
X2750Y2929D01*
X2828Y2929D02*
X2850Y2929D01*
X2031Y2928D02*
X2047Y2928D01*
X2131Y2928D02*
X2147Y2928D01*
X2231Y2928D02*
X2247Y2928D01*
X2331Y2928D02*
X2347Y2928D01*
X2431Y2928D02*
X2447Y2928D01*
X2531Y2928D02*
X2547Y2928D01*
X2631Y2928D02*
X2647Y2928D01*
X2731Y2928D02*
X2747Y2928D01*
X2831Y2928D02*
X2847Y2928D01*
X2037Y2927D02*
X2042Y2927D01*
X2137Y2927D02*
X2142Y2927D01*
X2237Y2927D02*
X2242Y2927D01*
X2337Y2927D02*
X2342Y2927D01*
X2437Y2927D02*
X2442Y2927D01*
X2537Y2927D02*
X2542Y2927D01*
X2637Y2927D02*
X2642Y2927D01*
X2737Y2927D02*
X2742Y2927D01*
X2837Y2927D02*
X2842Y2927D01*
X1532Y2196D02*
X1546Y2196D01*
X1632Y2196D02*
X1646Y2196D01*
X1732Y2196D02*
X1746Y2196D01*
X1832Y2196D02*
X1846Y2196D01*
X1932Y2196D02*
X1946Y2196D01*
X2032Y2196D02*
X2046Y2196D01*
X2132Y2196D02*
X2146Y2196D01*
X2232Y2196D02*
X2246Y2196D01*
X2332Y2196D02*
X2346Y2196D01*
X2432Y2196D02*
X2446Y2196D01*
X2532Y2196D02*
X2546Y2196D01*
X2632Y2196D02*
X2646Y2196D01*
X2732Y2196D02*
X2746Y2196D01*
X2832Y2196D02*
X2846Y2196D01*
X1529Y2195D02*
X1550Y2195D01*
X1629Y2195D02*
X1650Y2195D01*
X1729Y2195D02*
X1750Y2195D01*
X1829Y2195D02*
X1850Y2195D01*
X1929Y2195D02*
X1950Y2195D01*
X2029Y2195D02*
X2050Y2195D01*
X2129Y2195D02*
X2150Y2195D01*
X2229Y2195D02*
X2250Y2195D01*
X2329Y2195D02*
X2350Y2195D01*
X2429Y2195D02*
X2450Y2195D01*
X2529Y2195D02*
X2550Y2195D01*
X2629Y2195D02*
X2650Y2195D01*
X2729Y2195D02*
X2750Y2195D01*
X2829Y2195D02*
X2850Y2195D01*
X1526Y2194D02*
X1552Y2194D01*
X1626Y2194D02*
X1652Y2194D01*
X1726Y2194D02*
X1752Y2194D01*
X1826Y2194D02*
X1852Y2194D01*
X1926Y2194D02*
X1952Y2194D01*
X2026Y2194D02*
X2052Y2194D01*
X2126Y2194D02*
X2152Y2194D01*
X2226Y2194D02*
X2252Y2194D01*
X2326Y2194D02*
X2352Y2194D01*
X2426Y2194D02*
X2452Y2194D01*
X2526Y2194D02*
X2552Y2194D01*
X2626Y2194D02*
X2652Y2194D01*
X2726Y2194D02*
X2752Y2194D01*
X2826Y2194D02*
X2852Y2194D01*
X1524Y2193D02*
X1555Y2193D01*
X1624Y2193D02*
X1655Y2193D01*
X1724Y2193D02*
X1755Y2193D01*
X1824Y2193D02*
X1855Y2193D01*
X1924Y2193D02*
X1955Y2193D01*
X2024Y2193D02*
X2055Y2193D01*
X2124Y2193D02*
X2155Y2193D01*
X2224Y2193D02*
X2254Y2193D01*
X2324Y2193D02*
X2354Y2193D01*
X2424Y2193D02*
X2454Y2193D01*
X2524Y2193D02*
X2554Y2193D01*
X2624Y2193D02*
X2654Y2193D01*
X2724Y2193D02*
X2754Y2193D01*
X2824Y2193D02*
X2854Y2193D01*
X1522Y2192D02*
X1556Y2192D01*
X1622Y2192D02*
X1656Y2192D01*
X1722Y2192D02*
X1756Y2192D01*
X1822Y2192D02*
X1856Y2192D01*
X1922Y2192D02*
X1956Y2192D01*
X2022Y2192D02*
X2056Y2192D01*
X2122Y2192D02*
X2156Y2192D01*
X2222Y2192D02*
X2256Y2192D01*
X2322Y2192D02*
X2356Y2192D01*
X2422Y2192D02*
X2456Y2192D01*
X2522Y2192D02*
X2556Y2192D01*
X2622Y2192D02*
X2656Y2192D01*
X2722Y2192D02*
X2756Y2192D01*
X2822Y2192D02*
X2856Y2192D01*
X1520Y2191D02*
X1558Y2191D01*
X1620Y2191D02*
X1658Y2191D01*
X1720Y2191D02*
X1758Y2191D01*
X1820Y2191D02*
X1858Y2191D01*
X1920Y2191D02*
X1958Y2191D01*
X2020Y2191D02*
X2058Y2191D01*
X2120Y2191D02*
X2158Y2191D01*
X2220Y2191D02*
X2258Y2191D01*
X2320Y2191D02*
X2358Y2191D01*
X2420Y2191D02*
X2458Y2191D01*
X2520Y2191D02*
X2558Y2191D01*
X2620Y2191D02*
X2658Y2191D01*
X2720Y2191D02*
X2758Y2191D01*
X2820Y2191D02*
X2858Y2191D01*
X1519Y2190D02*
X1560Y2190D01*
X1619Y2190D02*
X1660Y2190D01*
X1719Y2190D02*
X1760Y2190D01*
X1819Y2190D02*
X1860Y2190D01*
X1919Y2190D02*
X1960Y2190D01*
X2019Y2190D02*
X2060Y2190D01*
X2119Y2190D02*
X2160Y2190D01*
X2219Y2190D02*
X2259Y2190D01*
X2319Y2190D02*
X2359Y2190D01*
X2419Y2190D02*
X2459Y2190D01*
X2519Y2190D02*
X2559Y2190D01*
X2619Y2190D02*
X2659Y2190D01*
X2719Y2190D02*
X2759Y2190D01*
X2819Y2190D02*
X2859Y2190D01*
X1518Y2189D02*
X1561Y2189D01*
X1618Y2189D02*
X1661Y2189D01*
X1718Y2189D02*
X1761Y2189D01*
X1818Y2189D02*
X1861Y2189D01*
X1918Y2189D02*
X1961Y2189D01*
X2017Y2189D02*
X2061Y2189D01*
X2117Y2189D02*
X2161Y2189D01*
X2217Y2189D02*
X2261Y2189D01*
X2317Y2189D02*
X2361Y2189D01*
X2417Y2189D02*
X2461Y2189D01*
X2517Y2189D02*
X2561Y2189D01*
X2617Y2189D02*
X2661Y2189D01*
X2717Y2189D02*
X2761Y2189D01*
X2817Y2189D02*
X2861Y2189D01*
X1516Y2188D02*
X1562Y2188D01*
X1616Y2188D02*
X1662Y2188D01*
X1716Y2188D02*
X1762Y2188D01*
X1816Y2188D02*
X1862Y2188D01*
X1916Y2188D02*
X1962Y2188D01*
X2016Y2188D02*
X2062Y2188D01*
X2116Y2188D02*
X2162Y2188D01*
X2216Y2188D02*
X2262Y2188D01*
X2316Y2188D02*
X2362Y2188D01*
X2416Y2188D02*
X2462Y2188D01*
X2516Y2188D02*
X2562Y2188D01*
X2616Y2188D02*
X2662Y2188D01*
X2716Y2188D02*
X2762Y2188D01*
X2816Y2188D02*
X2862Y2188D01*
X1515Y2187D02*
X1563Y2187D01*
X1615Y2187D02*
X1663Y2187D01*
X1715Y2187D02*
X1763Y2187D01*
X1815Y2187D02*
X1863Y2187D01*
X1915Y2187D02*
X1963Y2187D01*
X2015Y2187D02*
X2063Y2187D01*
X2115Y2187D02*
X2163Y2187D01*
X2215Y2187D02*
X2263Y2187D01*
X2315Y2187D02*
X2363Y2187D01*
X2415Y2187D02*
X2463Y2187D01*
X2515Y2187D02*
X2563Y2187D01*
X2615Y2187D02*
X2663Y2187D01*
X2715Y2187D02*
X2763Y2187D01*
X2815Y2187D02*
X2863Y2187D01*
X1514Y2186D02*
X1564Y2186D01*
X1614Y2186D02*
X1664Y2186D01*
X1714Y2186D02*
X1764Y2186D01*
X1814Y2186D02*
X1864Y2186D01*
X1914Y2186D02*
X1964Y2186D01*
X2014Y2186D02*
X2064Y2186D01*
X2114Y2186D02*
X2164Y2186D01*
X2214Y2186D02*
X2264Y2186D01*
X2314Y2186D02*
X2364Y2186D01*
X2414Y2186D02*
X2464Y2186D01*
X2514Y2186D02*
X2564Y2186D01*
X2614Y2186D02*
X2664Y2186D01*
X2714Y2186D02*
X2764Y2186D01*
X2814Y2186D02*
X2864Y2186D01*
X1513Y2185D02*
X1565Y2185D01*
X1613Y2185D02*
X1665Y2185D01*
X1713Y2185D02*
X1765Y2185D01*
X1813Y2185D02*
X1865Y2185D01*
X1913Y2185D02*
X1965Y2185D01*
X2013Y2185D02*
X2065Y2185D01*
X2113Y2185D02*
X2165Y2185D01*
X2213Y2185D02*
X2265Y2185D01*
X2313Y2185D02*
X2365Y2185D01*
X2413Y2185D02*
X2465Y2185D01*
X2513Y2185D02*
X2565Y2185D01*
X2613Y2185D02*
X2665Y2185D01*
X2713Y2185D02*
X2765Y2185D01*
X2813Y2185D02*
X2865Y2185D01*
X1513Y2184D02*
X1566Y2184D01*
X1613Y2184D02*
X1666Y2184D01*
X1713Y2184D02*
X1766Y2184D01*
X1813Y2184D02*
X1866Y2184D01*
X1913Y2184D02*
X1966Y2184D01*
X2013Y2184D02*
X2066Y2184D01*
X2113Y2184D02*
X2166Y2184D01*
X2213Y2184D02*
X2266Y2184D01*
X2313Y2184D02*
X2366Y2184D01*
X2413Y2184D02*
X2466Y2184D01*
X2512Y2184D02*
X2566Y2184D01*
X2612Y2184D02*
X2666Y2184D01*
X2712Y2184D02*
X2766Y2184D01*
X2812Y2184D02*
X2866Y2184D01*
X1512Y2183D02*
X1567Y2183D01*
X1612Y2183D02*
X1667Y2183D01*
X1712Y2183D02*
X1767Y2183D01*
X1812Y2183D02*
X1867Y2183D01*
X1912Y2183D02*
X1967Y2183D01*
X2012Y2183D02*
X2067Y2183D01*
X2112Y2183D02*
X2167Y2183D01*
X2212Y2183D02*
X2267Y2183D01*
X2312Y2183D02*
X2367Y2183D01*
X2412Y2183D02*
X2467Y2183D01*
X2512Y2183D02*
X2567Y2183D01*
X2612Y2183D02*
X2667Y2183D01*
X2712Y2183D02*
X2766Y2183D01*
X2812Y2183D02*
X2866Y2183D01*
X1511Y2182D02*
X1567Y2182D01*
X1611Y2182D02*
X1667Y2182D01*
X1711Y2182D02*
X1767Y2182D01*
X1811Y2182D02*
X1867Y2182D01*
X1911Y2182D02*
X1967Y2182D01*
X2011Y2182D02*
X2067Y2182D01*
X2111Y2182D02*
X2167Y2182D01*
X2211Y2182D02*
X2267Y2182D01*
X2311Y2182D02*
X2367Y2182D01*
X2411Y2182D02*
X2467Y2182D01*
X2511Y2182D02*
X2567Y2182D01*
X2611Y2182D02*
X2667Y2182D01*
X2711Y2182D02*
X2767Y2182D01*
X2811Y2182D02*
X2867Y2182D01*
X1511Y2181D02*
X1568Y2181D01*
X1611Y2181D02*
X1668Y2181D01*
X1710Y2181D02*
X1768Y2181D01*
X1810Y2181D02*
X1868Y2181D01*
X1910Y2181D02*
X1968Y2181D01*
X2010Y2181D02*
X2068Y2181D01*
X2110Y2181D02*
X2168Y2181D01*
X2210Y2181D02*
X2268Y2181D01*
X2310Y2181D02*
X2368Y2181D01*
X2410Y2181D02*
X2468Y2181D01*
X2510Y2181D02*
X2568Y2181D01*
X2610Y2181D02*
X2668Y2181D01*
X2710Y2181D02*
X2768Y2181D01*
X2810Y2181D02*
X2868Y2181D01*
X1510Y2180D02*
X1569Y2180D01*
X1610Y2180D02*
X1669Y2180D01*
X1710Y2180D02*
X1769Y2180D01*
X1810Y2180D02*
X1869Y2180D01*
X1910Y2180D02*
X1969Y2180D01*
X2010Y2180D02*
X2069Y2180D01*
X2110Y2180D02*
X2168Y2180D01*
X2210Y2180D02*
X2268Y2180D01*
X2310Y2180D02*
X2368Y2180D01*
X2410Y2180D02*
X2468Y2180D01*
X2510Y2180D02*
X2568Y2180D01*
X2610Y2180D02*
X2668Y2180D01*
X2710Y2180D02*
X2768Y2180D01*
X2810Y2180D02*
X2868Y2180D01*
X1509Y2179D02*
X1569Y2179D01*
X1609Y2179D02*
X1669Y2179D01*
X1709Y2179D02*
X1769Y2179D01*
X1809Y2179D02*
X1869Y2179D01*
X1909Y2179D02*
X1969Y2179D01*
X2009Y2179D02*
X2069Y2179D01*
X2109Y2179D02*
X2169Y2179D01*
X2209Y2179D02*
X2269Y2179D01*
X2309Y2179D02*
X2369Y2179D01*
X2409Y2179D02*
X2469Y2179D01*
X2509Y2179D02*
X2569Y2179D01*
X2609Y2179D02*
X2669Y2179D01*
X2709Y2179D02*
X2769Y2179D01*
X2809Y2179D02*
X2869Y2179D01*
X1509Y2178D02*
X1570Y2178D01*
X1609Y2178D02*
X1670Y2178D01*
X1709Y2178D02*
X1770Y2178D01*
X1809Y2178D02*
X1870Y2178D01*
X1909Y2178D02*
X1970Y2178D01*
X2009Y2178D02*
X2070Y2178D01*
X2109Y2178D02*
X2170Y2178D01*
X2209Y2178D02*
X2270Y2178D01*
X2309Y2178D02*
X2370Y2178D01*
X2409Y2178D02*
X2470Y2178D01*
X2509Y2178D02*
X2570Y2178D01*
X2609Y2178D02*
X2670Y2178D01*
X2709Y2178D02*
X2770Y2178D01*
X2809Y2178D02*
X2870Y2178D01*
X1508Y2177D02*
X1570Y2177D01*
X1608Y2177D02*
X1670Y2177D01*
X1708Y2177D02*
X1770Y2177D01*
X1808Y2177D02*
X1870Y2177D01*
X1908Y2177D02*
X1970Y2177D01*
X2008Y2177D02*
X2070Y2177D01*
X2108Y2177D02*
X2170Y2177D01*
X2208Y2177D02*
X2270Y2177D01*
X2308Y2177D02*
X2370Y2177D01*
X2408Y2177D02*
X2470Y2177D01*
X2508Y2177D02*
X2570Y2177D01*
X2608Y2177D02*
X2670Y2177D01*
X2708Y2177D02*
X2770Y2177D01*
X2808Y2177D02*
X2870Y2177D01*
X1508Y2176D02*
X1533Y2176D01*
X1546Y2176D02*
X1571Y2176D01*
X1608Y2176D02*
X1633Y2176D01*
X1646Y2176D02*
X1671Y2176D01*
X1708Y2176D02*
X1733Y2176D01*
X1746Y2176D02*
X1771Y2176D01*
X1808Y2176D02*
X1833Y2176D01*
X1846Y2176D02*
X1871Y2176D01*
X1908Y2176D02*
X1933Y2176D01*
X1946Y2176D02*
X1971Y2176D01*
X2008Y2176D02*
X2033Y2176D01*
X2046Y2176D02*
X2071Y2176D01*
X2108Y2176D02*
X2133Y2176D01*
X2146Y2176D02*
X2171Y2176D01*
X2208Y2176D02*
X2233Y2176D01*
X2246Y2176D02*
X2271Y2176D01*
X2308Y2176D02*
X2333Y2176D01*
X2345Y2176D02*
X2371Y2176D01*
X2408Y2176D02*
X2433Y2176D01*
X2445Y2176D02*
X2471Y2176D01*
X2508Y2176D02*
X2533Y2176D01*
X2545Y2176D02*
X2571Y2176D01*
X2608Y2176D02*
X2633Y2176D01*
X2645Y2176D02*
X2670Y2176D01*
X2708Y2176D02*
X2733Y2176D01*
X2745Y2176D02*
X2770Y2176D01*
X2808Y2176D02*
X2833Y2176D01*
X2845Y2176D02*
X2870Y2176D01*
X1507Y2175D02*
X1531Y2175D01*
X1547Y2175D02*
X1571Y2175D01*
X1607Y2175D02*
X1631Y2175D01*
X1647Y2175D02*
X1671Y2175D01*
X1707Y2175D02*
X1731Y2175D01*
X1747Y2175D02*
X1771Y2175D01*
X1807Y2175D02*
X1831Y2175D01*
X1847Y2175D02*
X1871Y2175D01*
X1907Y2175D02*
X1931Y2175D01*
X1947Y2175D02*
X1971Y2175D01*
X2007Y2175D02*
X2031Y2175D01*
X2047Y2175D02*
X2071Y2175D01*
X2107Y2175D02*
X2131Y2175D01*
X2147Y2175D02*
X2171Y2175D01*
X2207Y2175D02*
X2231Y2175D01*
X2247Y2175D02*
X2271Y2175D01*
X2307Y2175D02*
X2331Y2175D01*
X2347Y2175D02*
X2371Y2175D01*
X2407Y2175D02*
X2431Y2175D01*
X2447Y2175D02*
X2471Y2175D01*
X2507Y2175D02*
X2531Y2175D01*
X2547Y2175D02*
X2571Y2175D01*
X2607Y2175D02*
X2631Y2175D01*
X2647Y2175D02*
X2671Y2175D01*
X2707Y2175D02*
X2731Y2175D01*
X2747Y2175D02*
X2771Y2175D01*
X2807Y2175D02*
X2831Y2175D01*
X2847Y2175D02*
X2871Y2175D01*
X1507Y2174D02*
X1530Y2174D01*
X1549Y2174D02*
X1571Y2174D01*
X1607Y2174D02*
X1630Y2174D01*
X1649Y2174D02*
X1671Y2174D01*
X1707Y2174D02*
X1730Y2174D01*
X1749Y2174D02*
X1771Y2174D01*
X1807Y2174D02*
X1830Y2174D01*
X1849Y2174D02*
X1871Y2174D01*
X1907Y2174D02*
X1930Y2174D01*
X1949Y2174D02*
X1971Y2174D01*
X2007Y2174D02*
X2030Y2174D01*
X2049Y2174D02*
X2071Y2174D01*
X2107Y2174D02*
X2130Y2174D01*
X2149Y2174D02*
X2171Y2174D01*
X2207Y2174D02*
X2230Y2174D01*
X2249Y2174D02*
X2271Y2174D01*
X2307Y2174D02*
X2330Y2174D01*
X2349Y2174D02*
X2371Y2174D01*
X2407Y2174D02*
X2430Y2174D01*
X2449Y2174D02*
X2471Y2174D01*
X2507Y2174D02*
X2530Y2174D01*
X2549Y2174D02*
X2571Y2174D01*
X2607Y2174D02*
X2630Y2174D01*
X2649Y2174D02*
X2671Y2174D01*
X2707Y2174D02*
X2730Y2174D01*
X2749Y2174D02*
X2771Y2174D01*
X2807Y2174D02*
X2830Y2174D01*
X2849Y2174D02*
X2871Y2174D01*
X1507Y2173D02*
X1529Y2173D01*
X1550Y2173D02*
X1572Y2173D01*
X1607Y2173D02*
X1629Y2173D01*
X1650Y2173D02*
X1672Y2173D01*
X1707Y2173D02*
X1729Y2173D01*
X1750Y2173D02*
X1772Y2173D01*
X1807Y2173D02*
X1829Y2173D01*
X1850Y2173D02*
X1872Y2173D01*
X1907Y2173D02*
X1929Y2173D01*
X1950Y2173D02*
X1972Y2173D01*
X2007Y2173D02*
X2029Y2173D01*
X2050Y2173D02*
X2072Y2173D01*
X2107Y2173D02*
X2129Y2173D01*
X2150Y2173D02*
X2172Y2173D01*
X2207Y2173D02*
X2228Y2173D01*
X2250Y2173D02*
X2272Y2173D01*
X2307Y2173D02*
X2328Y2173D01*
X2350Y2173D02*
X2372Y2173D01*
X2407Y2173D02*
X2428Y2173D01*
X2450Y2173D02*
X2472Y2173D01*
X2507Y2173D02*
X2528Y2173D01*
X2550Y2173D02*
X2572Y2173D01*
X2607Y2173D02*
X2628Y2173D01*
X2650Y2173D02*
X2672Y2173D01*
X2707Y2173D02*
X2728Y2173D01*
X2750Y2173D02*
X2772Y2173D01*
X2807Y2173D02*
X2828Y2173D01*
X2850Y2173D02*
X2872Y2173D01*
X1506Y2172D02*
X1528Y2172D01*
X1551Y2172D02*
X1572Y2172D01*
X1606Y2172D02*
X1628Y2172D01*
X1651Y2172D02*
X1672Y2172D01*
X1706Y2172D02*
X1728Y2172D01*
X1751Y2172D02*
X1772Y2172D01*
X1806Y2172D02*
X1828Y2172D01*
X1851Y2172D02*
X1872Y2172D01*
X1906Y2172D02*
X1928Y2172D01*
X1951Y2172D02*
X1972Y2172D01*
X2006Y2172D02*
X2028Y2172D01*
X2051Y2172D02*
X2072Y2172D01*
X2106Y2172D02*
X2128Y2172D01*
X2151Y2172D02*
X2172Y2172D01*
X2206Y2172D02*
X2228Y2172D01*
X2251Y2172D02*
X2272Y2172D01*
X2306Y2172D02*
X2328Y2172D01*
X2351Y2172D02*
X2372Y2172D01*
X2406Y2172D02*
X2428Y2172D01*
X2451Y2172D02*
X2472Y2172D01*
X2506Y2172D02*
X2528Y2172D01*
X2551Y2172D02*
X2572Y2172D01*
X2606Y2172D02*
X2627Y2172D01*
X2651Y2172D02*
X2672Y2172D01*
X2706Y2172D02*
X2727Y2172D01*
X2751Y2172D02*
X2772Y2172D01*
X2806Y2172D02*
X2827Y2172D01*
X2851Y2172D02*
X2872Y2172D01*
X1506Y2171D02*
X1527Y2171D01*
X1552Y2171D02*
X1572Y2171D01*
X1606Y2171D02*
X1627Y2171D01*
X1652Y2171D02*
X1672Y2171D01*
X1706Y2171D02*
X1727Y2171D01*
X1752Y2171D02*
X1772Y2171D01*
X1806Y2171D02*
X1827Y2171D01*
X1852Y2171D02*
X1872Y2171D01*
X1906Y2171D02*
X1927Y2171D01*
X1952Y2171D02*
X1972Y2171D01*
X2006Y2171D02*
X2027Y2171D01*
X2052Y2171D02*
X2072Y2171D01*
X2106Y2171D02*
X2127Y2171D01*
X2152Y2171D02*
X2172Y2171D01*
X2206Y2171D02*
X2227Y2171D01*
X2252Y2171D02*
X2272Y2171D01*
X2306Y2171D02*
X2327Y2171D01*
X2352Y2171D02*
X2372Y2171D01*
X2406Y2171D02*
X2427Y2171D01*
X2452Y2171D02*
X2472Y2171D01*
X2506Y2171D02*
X2527Y2171D01*
X2552Y2171D02*
X2572Y2171D01*
X2606Y2171D02*
X2627Y2171D01*
X2652Y2171D02*
X2672Y2171D01*
X2706Y2171D02*
X2727Y2171D01*
X2752Y2171D02*
X2772Y2171D01*
X2806Y2171D02*
X2827Y2171D01*
X2852Y2171D02*
X2872Y2171D01*
X1506Y2170D02*
X1526Y2170D01*
X1553Y2170D02*
X1573Y2170D01*
X1606Y2170D02*
X1626Y2170D01*
X1653Y2170D02*
X1673Y2170D01*
X1706Y2170D02*
X1726Y2170D01*
X1753Y2170D02*
X1773Y2170D01*
X1806Y2170D02*
X1826Y2170D01*
X1853Y2170D02*
X1873Y2170D01*
X1906Y2170D02*
X1926Y2170D01*
X1953Y2170D02*
X1973Y2170D01*
X2006Y2170D02*
X2026Y2170D01*
X2052Y2170D02*
X2073Y2170D01*
X2106Y2170D02*
X2126Y2170D01*
X2152Y2170D02*
X2173Y2170D01*
X2206Y2170D02*
X2226Y2170D01*
X2252Y2170D02*
X2273Y2170D01*
X2306Y2170D02*
X2326Y2170D01*
X2352Y2170D02*
X2373Y2170D01*
X2406Y2170D02*
X2426Y2170D01*
X2452Y2170D02*
X2473Y2170D01*
X2506Y2170D02*
X2526Y2170D01*
X2552Y2170D02*
X2573Y2170D01*
X2606Y2170D02*
X2626Y2170D01*
X2652Y2170D02*
X2673Y2170D01*
X2706Y2170D02*
X2726Y2170D01*
X2752Y2170D02*
X2773Y2170D01*
X2806Y2170D02*
X2826Y2170D01*
X2852Y2170D02*
X2873Y2170D01*
X1506Y2169D02*
X1525Y2169D01*
X1553Y2169D02*
X1573Y2169D01*
X1606Y2169D02*
X1625Y2169D01*
X1653Y2169D02*
X1673Y2169D01*
X1706Y2169D02*
X1725Y2169D01*
X1753Y2169D02*
X1773Y2169D01*
X1806Y2169D02*
X1825Y2169D01*
X1853Y2169D02*
X1873Y2169D01*
X1906Y2169D02*
X1925Y2169D01*
X1953Y2169D02*
X1973Y2169D01*
X2006Y2169D02*
X2025Y2169D01*
X2053Y2169D02*
X2073Y2169D01*
X2106Y2169D02*
X2125Y2169D01*
X2153Y2169D02*
X2173Y2169D01*
X2205Y2169D02*
X2225Y2169D01*
X2253Y2169D02*
X2273Y2169D01*
X2305Y2169D02*
X2325Y2169D01*
X2353Y2169D02*
X2373Y2169D01*
X2405Y2169D02*
X2425Y2169D01*
X2453Y2169D02*
X2473Y2169D01*
X2505Y2169D02*
X2525Y2169D01*
X2553Y2169D02*
X2573Y2169D01*
X2605Y2169D02*
X2625Y2169D01*
X2653Y2169D02*
X2673Y2169D01*
X2705Y2169D02*
X2725Y2169D01*
X2753Y2169D02*
X2773Y2169D01*
X2805Y2169D02*
X2825Y2169D01*
X2853Y2169D02*
X2873Y2169D01*
X1505Y2168D02*
X1525Y2168D01*
X1554Y2168D02*
X1573Y2168D01*
X1605Y2168D02*
X1625Y2168D01*
X1654Y2168D02*
X1673Y2168D01*
X1705Y2168D02*
X1725Y2168D01*
X1754Y2168D02*
X1773Y2168D01*
X1805Y2168D02*
X1825Y2168D01*
X1854Y2168D02*
X1873Y2168D01*
X1905Y2168D02*
X1925Y2168D01*
X1954Y2168D02*
X1973Y2168D01*
X2005Y2168D02*
X2025Y2168D01*
X2054Y2168D02*
X2073Y2168D01*
X2105Y2168D02*
X2125Y2168D01*
X2154Y2168D02*
X2173Y2168D01*
X2205Y2168D02*
X2225Y2168D01*
X2254Y2168D02*
X2273Y2168D01*
X2305Y2168D02*
X2325Y2168D01*
X2354Y2168D02*
X2373Y2168D01*
X2405Y2168D02*
X2425Y2168D01*
X2454Y2168D02*
X2473Y2168D01*
X2505Y2168D02*
X2525Y2168D01*
X2554Y2168D02*
X2573Y2168D01*
X2605Y2168D02*
X2625Y2168D01*
X2654Y2168D02*
X2673Y2168D01*
X2705Y2168D02*
X2725Y2168D01*
X2754Y2168D02*
X2773Y2168D01*
X2805Y2168D02*
X2825Y2168D01*
X2854Y2168D02*
X2873Y2168D01*
X1505Y2167D02*
X1524Y2167D01*
X1554Y2167D02*
X1573Y2167D01*
X1605Y2167D02*
X1624Y2167D01*
X1654Y2167D02*
X1673Y2167D01*
X1705Y2167D02*
X1724Y2167D01*
X1754Y2167D02*
X1773Y2167D01*
X1805Y2167D02*
X1824Y2167D01*
X1854Y2167D02*
X1873Y2167D01*
X1905Y2167D02*
X1924Y2167D01*
X1954Y2167D02*
X1973Y2167D01*
X2005Y2167D02*
X2024Y2167D01*
X2054Y2167D02*
X2073Y2167D01*
X2105Y2167D02*
X2124Y2167D01*
X2154Y2167D02*
X2173Y2167D01*
X2205Y2167D02*
X2224Y2167D01*
X2254Y2167D02*
X2273Y2167D01*
X2305Y2167D02*
X2324Y2167D01*
X2354Y2167D02*
X2373Y2167D01*
X2405Y2167D02*
X2424Y2167D01*
X2454Y2167D02*
X2473Y2167D01*
X2505Y2167D02*
X2524Y2167D01*
X2554Y2167D02*
X2573Y2167D01*
X2605Y2167D02*
X2624Y2167D01*
X2654Y2167D02*
X2673Y2167D01*
X2705Y2167D02*
X2724Y2167D01*
X2754Y2167D02*
X2773Y2167D01*
X2805Y2167D02*
X2824Y2167D01*
X2854Y2167D02*
X2873Y2167D01*
X1505Y2166D02*
X1524Y2166D01*
X1554Y2166D02*
X1573Y2166D01*
X1605Y2166D02*
X1624Y2166D01*
X1654Y2166D02*
X1673Y2166D01*
X1705Y2166D02*
X1724Y2166D01*
X1754Y2166D02*
X1773Y2166D01*
X1805Y2166D02*
X1824Y2166D01*
X1854Y2166D02*
X1873Y2166D01*
X1905Y2166D02*
X1924Y2166D01*
X1954Y2166D02*
X1973Y2166D01*
X2005Y2166D02*
X2024Y2166D01*
X2054Y2166D02*
X2073Y2166D01*
X2105Y2166D02*
X2124Y2166D01*
X2154Y2166D02*
X2173Y2166D01*
X2205Y2166D02*
X2224Y2166D01*
X2254Y2166D02*
X2273Y2166D01*
X2305Y2166D02*
X2324Y2166D01*
X2354Y2166D02*
X2373Y2166D01*
X2405Y2166D02*
X2424Y2166D01*
X2454Y2166D02*
X2473Y2166D01*
X2505Y2166D02*
X2524Y2166D01*
X2554Y2166D02*
X2573Y2166D01*
X2605Y2166D02*
X2624Y2166D01*
X2654Y2166D02*
X2673Y2166D01*
X2705Y2166D02*
X2724Y2166D01*
X2754Y2166D02*
X2773Y2166D01*
X2805Y2166D02*
X2824Y2166D01*
X2854Y2166D02*
X2873Y2166D01*
X1505Y2165D02*
X1524Y2165D01*
X1555Y2165D02*
X1574Y2165D01*
X1605Y2165D02*
X1624Y2165D01*
X1655Y2165D02*
X1674Y2165D01*
X1705Y2165D02*
X1724Y2165D01*
X1754Y2165D02*
X1774Y2165D01*
X1805Y2165D02*
X1824Y2165D01*
X1854Y2165D02*
X1874Y2165D01*
X1905Y2165D02*
X1924Y2165D01*
X1954Y2165D02*
X1974Y2165D01*
X2005Y2165D02*
X2024Y2165D01*
X2054Y2165D02*
X2074Y2165D01*
X2105Y2165D02*
X2124Y2165D01*
X2154Y2165D02*
X2174Y2165D01*
X2205Y2165D02*
X2224Y2165D01*
X2254Y2165D02*
X2273Y2165D01*
X2305Y2165D02*
X2324Y2165D01*
X2354Y2165D02*
X2373Y2165D01*
X2405Y2165D02*
X2424Y2165D01*
X2454Y2165D02*
X2473Y2165D01*
X2505Y2165D02*
X2524Y2165D01*
X2554Y2165D02*
X2573Y2165D01*
X2605Y2165D02*
X2624Y2165D01*
X2654Y2165D02*
X2673Y2165D01*
X2705Y2165D02*
X2724Y2165D01*
X2754Y2165D02*
X2773Y2165D01*
X2805Y2165D02*
X2824Y2165D01*
X2854Y2165D02*
X2873Y2165D01*
X1505Y2164D02*
X1524Y2164D01*
X1555Y2164D02*
X1574Y2164D01*
X1605Y2164D02*
X1624Y2164D01*
X1655Y2164D02*
X1674Y2164D01*
X1705Y2164D02*
X1724Y2164D01*
X1755Y2164D02*
X1774Y2164D01*
X1805Y2164D02*
X1824Y2164D01*
X1855Y2164D02*
X1874Y2164D01*
X1905Y2164D02*
X1924Y2164D01*
X1955Y2164D02*
X1974Y2164D01*
X2005Y2164D02*
X2024Y2164D01*
X2055Y2164D02*
X2074Y2164D01*
X2105Y2164D02*
X2124Y2164D01*
X2155Y2164D02*
X2174Y2164D01*
X2205Y2164D02*
X2224Y2164D01*
X2255Y2164D02*
X2274Y2164D01*
X2305Y2164D02*
X2324Y2164D01*
X2355Y2164D02*
X2374Y2164D01*
X2405Y2164D02*
X2424Y2164D01*
X2455Y2164D02*
X2474Y2164D01*
X2505Y2164D02*
X2524Y2164D01*
X2554Y2164D02*
X2574Y2164D01*
X2605Y2164D02*
X2624Y2164D01*
X2654Y2164D02*
X2674Y2164D01*
X2705Y2164D02*
X2724Y2164D01*
X2754Y2164D02*
X2774Y2164D01*
X2805Y2164D02*
X2824Y2164D01*
X2854Y2164D02*
X2874Y2164D01*
X1505Y2163D02*
X1524Y2163D01*
X1555Y2163D02*
X1574Y2163D01*
X1605Y2163D02*
X1624Y2163D01*
X1655Y2163D02*
X1674Y2163D01*
X1705Y2163D02*
X1724Y2163D01*
X1755Y2163D02*
X1774Y2163D01*
X1805Y2163D02*
X1824Y2163D01*
X1855Y2163D02*
X1874Y2163D01*
X1905Y2163D02*
X1924Y2163D01*
X1955Y2163D02*
X1974Y2163D01*
X2005Y2163D02*
X2024Y2163D01*
X2055Y2163D02*
X2074Y2163D01*
X2105Y2163D02*
X2124Y2163D01*
X2155Y2163D02*
X2174Y2163D01*
X2205Y2163D02*
X2224Y2163D01*
X2255Y2163D02*
X2274Y2163D01*
X2305Y2163D02*
X2324Y2163D01*
X2355Y2163D02*
X2374Y2163D01*
X2405Y2163D02*
X2424Y2163D01*
X2455Y2163D02*
X2474Y2163D01*
X2505Y2163D02*
X2524Y2163D01*
X2555Y2163D02*
X2574Y2163D01*
X2605Y2163D02*
X2624Y2163D01*
X2655Y2163D02*
X2674Y2163D01*
X2705Y2163D02*
X2724Y2163D01*
X2755Y2163D02*
X2774Y2163D01*
X2805Y2163D02*
X2824Y2163D01*
X2855Y2163D02*
X2874Y2163D01*
X1505Y2162D02*
X1524Y2162D01*
X1555Y2162D02*
X1574Y2162D01*
X1605Y2162D02*
X1624Y2162D01*
X1655Y2162D02*
X1674Y2162D01*
X1705Y2162D02*
X1724Y2162D01*
X1755Y2162D02*
X1774Y2162D01*
X1805Y2162D02*
X1824Y2162D01*
X1855Y2162D02*
X1874Y2162D01*
X1905Y2162D02*
X1924Y2162D01*
X1955Y2162D02*
X1974Y2162D01*
X2005Y2162D02*
X2024Y2162D01*
X2055Y2162D02*
X2074Y2162D01*
X2105Y2162D02*
X2124Y2162D01*
X2155Y2162D02*
X2174Y2162D01*
X2205Y2162D02*
X2224Y2162D01*
X2255Y2162D02*
X2274Y2162D01*
X2305Y2162D02*
X2324Y2162D01*
X2355Y2162D02*
X2374Y2162D01*
X2405Y2162D02*
X2424Y2162D01*
X2455Y2162D02*
X2474Y2162D01*
X2505Y2162D02*
X2524Y2162D01*
X2555Y2162D02*
X2574Y2162D01*
X2605Y2162D02*
X2624Y2162D01*
X2655Y2162D02*
X2674Y2162D01*
X2705Y2162D02*
X2724Y2162D01*
X2755Y2162D02*
X2774Y2162D01*
X2805Y2162D02*
X2824Y2162D01*
X2855Y2162D02*
X2874Y2162D01*
X1505Y2161D02*
X1524Y2161D01*
X1555Y2161D02*
X1574Y2161D01*
X1605Y2161D02*
X1624Y2161D01*
X1655Y2161D02*
X1674Y2161D01*
X1705Y2161D02*
X1724Y2161D01*
X1755Y2161D02*
X1774Y2161D01*
X1805Y2161D02*
X1824Y2161D01*
X1855Y2161D02*
X1874Y2161D01*
X1905Y2161D02*
X1924Y2161D01*
X1955Y2161D02*
X1974Y2161D01*
X2005Y2161D02*
X2024Y2161D01*
X2055Y2161D02*
X2074Y2161D01*
X2105Y2161D02*
X2124Y2161D01*
X2155Y2161D02*
X2174Y2161D01*
X2205Y2161D02*
X2224Y2161D01*
X2255Y2161D02*
X2274Y2161D01*
X2305Y2161D02*
X2324Y2161D01*
X2355Y2161D02*
X2374Y2161D01*
X2405Y2161D02*
X2424Y2161D01*
X2455Y2161D02*
X2474Y2161D01*
X2505Y2161D02*
X2524Y2161D01*
X2555Y2161D02*
X2574Y2161D01*
X2605Y2161D02*
X2624Y2161D01*
X2655Y2161D02*
X2674Y2161D01*
X2705Y2161D02*
X2724Y2161D01*
X2755Y2161D02*
X2774Y2161D01*
X2805Y2161D02*
X2824Y2161D01*
X2855Y2161D02*
X2874Y2161D01*
X1505Y2160D02*
X1524Y2160D01*
X1555Y2160D02*
X1574Y2160D01*
X1605Y2160D02*
X1624Y2160D01*
X1655Y2160D02*
X1674Y2160D01*
X1705Y2160D02*
X1724Y2160D01*
X1755Y2160D02*
X1774Y2160D01*
X1805Y2160D02*
X1824Y2160D01*
X1855Y2160D02*
X1874Y2160D01*
X1905Y2160D02*
X1924Y2160D01*
X1955Y2160D02*
X1974Y2160D01*
X2005Y2160D02*
X2024Y2160D01*
X2055Y2160D02*
X2074Y2160D01*
X2105Y2160D02*
X2124Y2160D01*
X2155Y2160D02*
X2174Y2160D01*
X2205Y2160D02*
X2224Y2160D01*
X2255Y2160D02*
X2274Y2160D01*
X2305Y2160D02*
X2324Y2160D01*
X2355Y2160D02*
X2374Y2160D01*
X2405Y2160D02*
X2424Y2160D01*
X2455Y2160D02*
X2474Y2160D01*
X2505Y2160D02*
X2524Y2160D01*
X2554Y2160D02*
X2574Y2160D01*
X2605Y2160D02*
X2624Y2160D01*
X2654Y2160D02*
X2674Y2160D01*
X2705Y2160D02*
X2724Y2160D01*
X2754Y2160D02*
X2774Y2160D01*
X2805Y2160D02*
X2824Y2160D01*
X2854Y2160D02*
X2873Y2160D01*
X1505Y2159D02*
X1524Y2159D01*
X1555Y2159D02*
X1574Y2159D01*
X1605Y2159D02*
X1624Y2159D01*
X1655Y2159D02*
X1674Y2159D01*
X1705Y2159D02*
X1724Y2159D01*
X1754Y2159D02*
X1774Y2159D01*
X1805Y2159D02*
X1824Y2159D01*
X1854Y2159D02*
X1874Y2159D01*
X1905Y2159D02*
X1924Y2159D01*
X1954Y2159D02*
X1974Y2159D01*
X2005Y2159D02*
X2024Y2159D01*
X2054Y2159D02*
X2074Y2159D01*
X2105Y2159D02*
X2124Y2159D01*
X2154Y2159D02*
X2174Y2159D01*
X2205Y2159D02*
X2224Y2159D01*
X2254Y2159D02*
X2273Y2159D01*
X2305Y2159D02*
X2324Y2159D01*
X2354Y2159D02*
X2373Y2159D01*
X2405Y2159D02*
X2424Y2159D01*
X2454Y2159D02*
X2473Y2159D01*
X2505Y2159D02*
X2524Y2159D01*
X2554Y2159D02*
X2573Y2159D01*
X2605Y2159D02*
X2624Y2159D01*
X2654Y2159D02*
X2673Y2159D01*
X2705Y2159D02*
X2724Y2159D01*
X2754Y2159D02*
X2773Y2159D01*
X2805Y2159D02*
X2824Y2159D01*
X2854Y2159D02*
X2873Y2159D01*
X1505Y2158D02*
X1524Y2158D01*
X1554Y2158D02*
X1573Y2158D01*
X1605Y2158D02*
X1624Y2158D01*
X1654Y2158D02*
X1673Y2158D01*
X1705Y2158D02*
X1724Y2158D01*
X1754Y2158D02*
X1773Y2158D01*
X1805Y2158D02*
X1824Y2158D01*
X1854Y2158D02*
X1873Y2158D01*
X1905Y2158D02*
X1924Y2158D01*
X1954Y2158D02*
X1973Y2158D01*
X2005Y2158D02*
X2024Y2158D01*
X2054Y2158D02*
X2073Y2158D01*
X2105Y2158D02*
X2124Y2158D01*
X2154Y2158D02*
X2173Y2158D01*
X2205Y2158D02*
X2224Y2158D01*
X2254Y2158D02*
X2273Y2158D01*
X2305Y2158D02*
X2324Y2158D01*
X2354Y2158D02*
X2373Y2158D01*
X2405Y2158D02*
X2424Y2158D01*
X2454Y2158D02*
X2473Y2158D01*
X2505Y2158D02*
X2524Y2158D01*
X2554Y2158D02*
X2573Y2158D01*
X2605Y2158D02*
X2624Y2158D01*
X2654Y2158D02*
X2673Y2158D01*
X2705Y2158D02*
X2724Y2158D01*
X2754Y2158D02*
X2773Y2158D01*
X2805Y2158D02*
X2824Y2158D01*
X2854Y2158D02*
X2873Y2158D01*
X1505Y2157D02*
X1524Y2157D01*
X1554Y2157D02*
X1573Y2157D01*
X1605Y2157D02*
X1624Y2157D01*
X1654Y2157D02*
X1673Y2157D01*
X1705Y2157D02*
X1724Y2157D01*
X1754Y2157D02*
X1773Y2157D01*
X1805Y2157D02*
X1824Y2157D01*
X1854Y2157D02*
X1873Y2157D01*
X1905Y2157D02*
X1924Y2157D01*
X1954Y2157D02*
X1973Y2157D01*
X2005Y2157D02*
X2024Y2157D01*
X2054Y2157D02*
X2073Y2157D01*
X2105Y2157D02*
X2124Y2157D01*
X2154Y2157D02*
X2173Y2157D01*
X2205Y2157D02*
X2224Y2157D01*
X2254Y2157D02*
X2273Y2157D01*
X2305Y2157D02*
X2324Y2157D01*
X2354Y2157D02*
X2373Y2157D01*
X2405Y2157D02*
X2424Y2157D01*
X2454Y2157D02*
X2473Y2157D01*
X2505Y2157D02*
X2524Y2157D01*
X2554Y2157D02*
X2573Y2157D01*
X2605Y2157D02*
X2624Y2157D01*
X2654Y2157D02*
X2673Y2157D01*
X2705Y2157D02*
X2724Y2157D01*
X2754Y2157D02*
X2773Y2157D01*
X2805Y2157D02*
X2824Y2157D01*
X2854Y2157D02*
X2873Y2157D01*
X1505Y2156D02*
X1525Y2156D01*
X1554Y2156D02*
X1573Y2156D01*
X1605Y2156D02*
X1625Y2156D01*
X1654Y2156D02*
X1673Y2156D01*
X1705Y2156D02*
X1725Y2156D01*
X1754Y2156D02*
X1773Y2156D01*
X1805Y2156D02*
X1825Y2156D01*
X1854Y2156D02*
X1873Y2156D01*
X1905Y2156D02*
X1925Y2156D01*
X1954Y2156D02*
X1973Y2156D01*
X2005Y2156D02*
X2025Y2156D01*
X2054Y2156D02*
X2073Y2156D01*
X2105Y2156D02*
X2125Y2156D01*
X2154Y2156D02*
X2173Y2156D01*
X2205Y2156D02*
X2225Y2156D01*
X2254Y2156D02*
X2273Y2156D01*
X2305Y2156D02*
X2325Y2156D01*
X2354Y2156D02*
X2373Y2156D01*
X2405Y2156D02*
X2425Y2156D01*
X2454Y2156D02*
X2473Y2156D01*
X2505Y2156D02*
X2525Y2156D01*
X2554Y2156D02*
X2573Y2156D01*
X2605Y2156D02*
X2625Y2156D01*
X2654Y2156D02*
X2673Y2156D01*
X2705Y2156D02*
X2725Y2156D01*
X2754Y2156D02*
X2773Y2156D01*
X2805Y2156D02*
X2825Y2156D01*
X2854Y2156D02*
X2873Y2156D01*
X1506Y2155D02*
X1525Y2155D01*
X1553Y2155D02*
X1573Y2155D01*
X1606Y2155D02*
X1625Y2155D01*
X1653Y2155D02*
X1673Y2155D01*
X1706Y2155D02*
X1725Y2155D01*
X1753Y2155D02*
X1773Y2155D01*
X1806Y2155D02*
X1825Y2155D01*
X1853Y2155D02*
X1873Y2155D01*
X1906Y2155D02*
X1925Y2155D01*
X1953Y2155D02*
X1973Y2155D01*
X2006Y2155D02*
X2025Y2155D01*
X2053Y2155D02*
X2073Y2155D01*
X2106Y2155D02*
X2125Y2155D01*
X2153Y2155D02*
X2173Y2155D01*
X2205Y2155D02*
X2225Y2155D01*
X2253Y2155D02*
X2273Y2155D01*
X2305Y2155D02*
X2325Y2155D01*
X2353Y2155D02*
X2373Y2155D01*
X2405Y2155D02*
X2425Y2155D01*
X2453Y2155D02*
X2473Y2155D01*
X2505Y2155D02*
X2525Y2155D01*
X2553Y2155D02*
X2573Y2155D01*
X2605Y2155D02*
X2625Y2155D01*
X2653Y2155D02*
X2673Y2155D01*
X2705Y2155D02*
X2725Y2155D01*
X2753Y2155D02*
X2773Y2155D01*
X2805Y2155D02*
X2825Y2155D01*
X2853Y2155D02*
X2873Y2155D01*
X1506Y2154D02*
X1526Y2154D01*
X1553Y2154D02*
X1573Y2154D01*
X1606Y2154D02*
X1626Y2154D01*
X1653Y2154D02*
X1673Y2154D01*
X1706Y2154D02*
X1726Y2154D01*
X1753Y2154D02*
X1773Y2154D01*
X1806Y2154D02*
X1826Y2154D01*
X1852Y2154D02*
X1873Y2154D01*
X1906Y2154D02*
X1926Y2154D01*
X1952Y2154D02*
X1973Y2154D01*
X2006Y2154D02*
X2026Y2154D01*
X2052Y2154D02*
X2073Y2154D01*
X2106Y2154D02*
X2126Y2154D01*
X2152Y2154D02*
X2173Y2154D01*
X2206Y2154D02*
X2226Y2154D01*
X2252Y2154D02*
X2273Y2154D01*
X2306Y2154D02*
X2326Y2154D01*
X2352Y2154D02*
X2373Y2154D01*
X2406Y2154D02*
X2426Y2154D01*
X2452Y2154D02*
X2473Y2154D01*
X2506Y2154D02*
X2526Y2154D01*
X2552Y2154D02*
X2573Y2154D01*
X2606Y2154D02*
X2626Y2154D01*
X2652Y2154D02*
X2673Y2154D01*
X2706Y2154D02*
X2726Y2154D01*
X2752Y2154D02*
X2773Y2154D01*
X2806Y2154D02*
X2826Y2154D01*
X2852Y2154D02*
X2873Y2154D01*
X1506Y2153D02*
X1527Y2153D01*
X1552Y2153D02*
X1572Y2153D01*
X1606Y2153D02*
X1627Y2153D01*
X1652Y2153D02*
X1672Y2153D01*
X1706Y2153D02*
X1727Y2153D01*
X1752Y2153D02*
X1772Y2153D01*
X1806Y2153D02*
X1827Y2153D01*
X1852Y2153D02*
X1872Y2153D01*
X1906Y2153D02*
X1927Y2153D01*
X1952Y2153D02*
X1972Y2153D01*
X2006Y2153D02*
X2027Y2153D01*
X2052Y2153D02*
X2072Y2153D01*
X2106Y2153D02*
X2127Y2153D01*
X2152Y2153D02*
X2172Y2153D01*
X2206Y2153D02*
X2227Y2153D01*
X2252Y2153D02*
X2272Y2153D01*
X2306Y2153D02*
X2327Y2153D01*
X2352Y2153D02*
X2372Y2153D01*
X2406Y2153D02*
X2427Y2153D01*
X2452Y2153D02*
X2472Y2153D01*
X2506Y2153D02*
X2527Y2153D01*
X2552Y2153D02*
X2572Y2153D01*
X2606Y2153D02*
X2627Y2153D01*
X2652Y2153D02*
X2672Y2153D01*
X2706Y2153D02*
X2727Y2153D01*
X2752Y2153D02*
X2772Y2153D01*
X2806Y2153D02*
X2827Y2153D01*
X2852Y2153D02*
X2872Y2153D01*
X1506Y2152D02*
X1528Y2152D01*
X1551Y2152D02*
X1572Y2152D01*
X1606Y2152D02*
X1628Y2152D01*
X1651Y2152D02*
X1672Y2152D01*
X1706Y2152D02*
X1728Y2152D01*
X1751Y2152D02*
X1772Y2152D01*
X1806Y2152D02*
X1828Y2152D01*
X1851Y2152D02*
X1872Y2152D01*
X1906Y2152D02*
X1928Y2152D01*
X1951Y2152D02*
X1972Y2152D01*
X2006Y2152D02*
X2028Y2152D01*
X2051Y2152D02*
X2072Y2152D01*
X2106Y2152D02*
X2128Y2152D01*
X2151Y2152D02*
X2172Y2152D01*
X2206Y2152D02*
X2228Y2152D01*
X2251Y2152D02*
X2272Y2152D01*
X2306Y2152D02*
X2328Y2152D01*
X2351Y2152D02*
X2372Y2152D01*
X2406Y2152D02*
X2428Y2152D01*
X2451Y2152D02*
X2472Y2152D01*
X2506Y2152D02*
X2528Y2152D01*
X2551Y2152D02*
X2572Y2152D01*
X2606Y2152D02*
X2628Y2152D01*
X2651Y2152D02*
X2672Y2152D01*
X2706Y2152D02*
X2728Y2152D01*
X2751Y2152D02*
X2772Y2152D01*
X2806Y2152D02*
X2827Y2152D01*
X2851Y2152D02*
X2872Y2152D01*
X1507Y2151D02*
X1529Y2151D01*
X1550Y2151D02*
X1572Y2151D01*
X1607Y2151D02*
X1629Y2151D01*
X1650Y2151D02*
X1672Y2151D01*
X1707Y2151D02*
X1729Y2151D01*
X1750Y2151D02*
X1772Y2151D01*
X1807Y2151D02*
X1829Y2151D01*
X1850Y2151D02*
X1872Y2151D01*
X1907Y2151D02*
X1929Y2151D01*
X1950Y2151D02*
X1972Y2151D01*
X2007Y2151D02*
X2029Y2151D01*
X2050Y2151D02*
X2072Y2151D01*
X2107Y2151D02*
X2129Y2151D01*
X2150Y2151D02*
X2172Y2151D01*
X2207Y2151D02*
X2229Y2151D01*
X2250Y2151D02*
X2272Y2151D01*
X2307Y2151D02*
X2329Y2151D01*
X2350Y2151D02*
X2372Y2151D01*
X2407Y2151D02*
X2429Y2151D01*
X2450Y2151D02*
X2472Y2151D01*
X2507Y2151D02*
X2529Y2151D01*
X2550Y2151D02*
X2572Y2151D01*
X2607Y2151D02*
X2629Y2151D01*
X2650Y2151D02*
X2672Y2151D01*
X2707Y2151D02*
X2728Y2151D01*
X2750Y2151D02*
X2772Y2151D01*
X2807Y2151D02*
X2828Y2151D01*
X2850Y2151D02*
X2872Y2151D01*
X1507Y2150D02*
X1530Y2150D01*
X1549Y2150D02*
X1571Y2150D01*
X1607Y2150D02*
X1630Y2150D01*
X1649Y2150D02*
X1671Y2150D01*
X1707Y2150D02*
X1730Y2150D01*
X1749Y2150D02*
X1771Y2150D01*
X1807Y2150D02*
X1830Y2150D01*
X1849Y2150D02*
X1871Y2150D01*
X1907Y2150D02*
X1930Y2150D01*
X1949Y2150D02*
X1971Y2150D01*
X2007Y2150D02*
X2030Y2150D01*
X2049Y2150D02*
X2071Y2150D01*
X2107Y2150D02*
X2130Y2150D01*
X2149Y2150D02*
X2171Y2150D01*
X2207Y2150D02*
X2230Y2150D01*
X2249Y2150D02*
X2271Y2150D01*
X2307Y2150D02*
X2330Y2150D01*
X2349Y2150D02*
X2371Y2150D01*
X2407Y2150D02*
X2430Y2150D01*
X2449Y2150D02*
X2471Y2150D01*
X2507Y2150D02*
X2530Y2150D01*
X2549Y2150D02*
X2571Y2150D01*
X2607Y2150D02*
X2630Y2150D01*
X2649Y2150D02*
X2671Y2150D01*
X2707Y2150D02*
X2730Y2150D01*
X2749Y2150D02*
X2771Y2150D01*
X2807Y2150D02*
X2830Y2150D01*
X2849Y2150D02*
X2871Y2150D01*
X1507Y2149D02*
X1531Y2149D01*
X1547Y2149D02*
X1571Y2149D01*
X1607Y2149D02*
X1631Y2149D01*
X1647Y2149D02*
X1671Y2149D01*
X1707Y2149D02*
X1731Y2149D01*
X1747Y2149D02*
X1771Y2149D01*
X1807Y2149D02*
X1831Y2149D01*
X1847Y2149D02*
X1871Y2149D01*
X1907Y2149D02*
X1931Y2149D01*
X1947Y2149D02*
X1971Y2149D01*
X2007Y2149D02*
X2031Y2149D01*
X2047Y2149D02*
X2071Y2149D01*
X2107Y2149D02*
X2131Y2149D01*
X2147Y2149D02*
X2171Y2149D01*
X2207Y2149D02*
X2231Y2149D01*
X2247Y2149D02*
X2271Y2149D01*
X2307Y2149D02*
X2331Y2149D01*
X2347Y2149D02*
X2371Y2149D01*
X2407Y2149D02*
X2431Y2149D01*
X2447Y2149D02*
X2471Y2149D01*
X2507Y2149D02*
X2531Y2149D01*
X2547Y2149D02*
X2571Y2149D01*
X2607Y2149D02*
X2631Y2149D01*
X2647Y2149D02*
X2671Y2149D01*
X2707Y2149D02*
X2731Y2149D01*
X2747Y2149D02*
X2771Y2149D01*
X2807Y2149D02*
X2831Y2149D01*
X2847Y2149D02*
X2871Y2149D01*
X1508Y2148D02*
X1533Y2148D01*
X1546Y2148D02*
X1571Y2148D01*
X1608Y2148D02*
X1633Y2148D01*
X1646Y2148D02*
X1671Y2148D01*
X1708Y2148D02*
X1733Y2148D01*
X1746Y2148D02*
X1771Y2148D01*
X1808Y2148D02*
X1833Y2148D01*
X1845Y2148D02*
X1871Y2148D01*
X1908Y2148D02*
X1933Y2148D01*
X1945Y2148D02*
X1971Y2148D01*
X2008Y2148D02*
X2033Y2148D01*
X2045Y2148D02*
X2071Y2148D01*
X2108Y2148D02*
X2133Y2148D01*
X2145Y2148D02*
X2171Y2148D01*
X2208Y2148D02*
X2233Y2148D01*
X2245Y2148D02*
X2271Y2148D01*
X2308Y2148D02*
X2333Y2148D01*
X2345Y2148D02*
X2371Y2148D01*
X2408Y2148D02*
X2433Y2148D01*
X2445Y2148D02*
X2471Y2148D01*
X2508Y2148D02*
X2533Y2148D01*
X2545Y2148D02*
X2570Y2148D01*
X2608Y2148D02*
X2633Y2148D01*
X2645Y2148D02*
X2670Y2148D01*
X2708Y2148D02*
X2733Y2148D01*
X2745Y2148D02*
X2770Y2148D01*
X2808Y2148D02*
X2833Y2148D01*
X2845Y2148D02*
X2870Y2148D01*
X1508Y2147D02*
X1570Y2147D01*
X1608Y2147D02*
X1670Y2147D01*
X1708Y2147D02*
X1770Y2147D01*
X1808Y2147D02*
X1870Y2147D01*
X1908Y2147D02*
X1970Y2147D01*
X2008Y2147D02*
X2070Y2147D01*
X2108Y2147D02*
X2170Y2147D01*
X2208Y2147D02*
X2270Y2147D01*
X2308Y2147D02*
X2370Y2147D01*
X2408Y2147D02*
X2470Y2147D01*
X2508Y2147D02*
X2570Y2147D01*
X2608Y2147D02*
X2670Y2147D01*
X2708Y2147D02*
X2770Y2147D01*
X2808Y2147D02*
X2870Y2147D01*
X1509Y2146D02*
X1570Y2146D01*
X1609Y2146D02*
X1670Y2146D01*
X1709Y2146D02*
X1770Y2146D01*
X1809Y2146D02*
X1870Y2146D01*
X1909Y2146D02*
X1970Y2146D01*
X2009Y2146D02*
X2070Y2146D01*
X2109Y2146D02*
X2170Y2146D01*
X2209Y2146D02*
X2270Y2146D01*
X2309Y2146D02*
X2370Y2146D01*
X2409Y2146D02*
X2470Y2146D01*
X2509Y2146D02*
X2570Y2146D01*
X2609Y2146D02*
X2670Y2146D01*
X2709Y2146D02*
X2770Y2146D01*
X2809Y2146D02*
X2870Y2146D01*
X1509Y2145D02*
X1569Y2145D01*
X1609Y2145D02*
X1669Y2145D01*
X1709Y2145D02*
X1769Y2145D01*
X1809Y2145D02*
X1869Y2145D01*
X1909Y2145D02*
X1969Y2145D01*
X2009Y2145D02*
X2069Y2145D01*
X2109Y2145D02*
X2169Y2145D01*
X2209Y2145D02*
X2269Y2145D01*
X2309Y2145D02*
X2369Y2145D01*
X2409Y2145D02*
X2469Y2145D01*
X2509Y2145D02*
X2569Y2145D01*
X2609Y2145D02*
X2669Y2145D01*
X2709Y2145D02*
X2769Y2145D01*
X2809Y2145D02*
X2869Y2145D01*
X1510Y2144D02*
X1569Y2144D01*
X1610Y2144D02*
X1669Y2144D01*
X1710Y2144D02*
X1769Y2144D01*
X1810Y2144D02*
X1869Y2144D01*
X1910Y2144D02*
X1968Y2144D01*
X2010Y2144D02*
X2068Y2144D01*
X2110Y2144D02*
X2168Y2144D01*
X2210Y2144D02*
X2268Y2144D01*
X2310Y2144D02*
X2368Y2144D01*
X2410Y2144D02*
X2468Y2144D01*
X2510Y2144D02*
X2568Y2144D01*
X2610Y2144D02*
X2668Y2144D01*
X2710Y2144D02*
X2768Y2144D01*
X2810Y2144D02*
X2868Y2144D01*
X1511Y2143D02*
X1568Y2143D01*
X1611Y2143D02*
X1668Y2143D01*
X1711Y2143D02*
X1768Y2143D01*
X1811Y2143D02*
X1868Y2143D01*
X1910Y2143D02*
X1968Y2143D01*
X2010Y2143D02*
X2068Y2143D01*
X2110Y2143D02*
X2168Y2143D01*
X2210Y2143D02*
X2268Y2143D01*
X2310Y2143D02*
X2368Y2143D01*
X2410Y2143D02*
X2468Y2143D01*
X2510Y2143D02*
X2568Y2143D01*
X2610Y2143D02*
X2668Y2143D01*
X2710Y2143D02*
X2768Y2143D01*
X2810Y2143D02*
X2868Y2143D01*
X1511Y2142D02*
X1567Y2142D01*
X1611Y2142D02*
X1667Y2142D01*
X1711Y2142D02*
X1767Y2142D01*
X1811Y2142D02*
X1867Y2142D01*
X1911Y2142D02*
X1967Y2142D01*
X2011Y2142D02*
X2067Y2142D01*
X2111Y2142D02*
X2167Y2142D01*
X2211Y2142D02*
X2267Y2142D01*
X2311Y2142D02*
X2367Y2142D01*
X2411Y2142D02*
X2467Y2142D01*
X2511Y2142D02*
X2567Y2142D01*
X2611Y2142D02*
X2667Y2142D01*
X2711Y2142D02*
X2767Y2142D01*
X2811Y2142D02*
X2867Y2142D01*
X1512Y2141D02*
X1567Y2141D01*
X1612Y2141D02*
X1667Y2141D01*
X1712Y2141D02*
X1767Y2141D01*
X1812Y2141D02*
X1867Y2141D01*
X1912Y2141D02*
X1967Y2141D01*
X2012Y2141D02*
X2067Y2141D01*
X2112Y2141D02*
X2167Y2141D01*
X2212Y2141D02*
X2267Y2141D01*
X2312Y2141D02*
X2367Y2141D01*
X2412Y2141D02*
X2467Y2141D01*
X2512Y2141D02*
X2566Y2141D01*
X2612Y2141D02*
X2666Y2141D01*
X2712Y2141D02*
X2766Y2141D01*
X2812Y2141D02*
X2866Y2141D01*
X1513Y2140D02*
X1566Y2140D01*
X1613Y2140D02*
X1666Y2140D01*
X1713Y2140D02*
X1766Y2140D01*
X1813Y2140D02*
X1866Y2140D01*
X1913Y2140D02*
X1966Y2140D01*
X2013Y2140D02*
X2066Y2140D01*
X2113Y2140D02*
X2166Y2140D01*
X2213Y2140D02*
X2266Y2140D01*
X2313Y2140D02*
X2366Y2140D01*
X2413Y2140D02*
X2466Y2140D01*
X2513Y2140D02*
X2566Y2140D01*
X2613Y2140D02*
X2666Y2140D01*
X2713Y2140D02*
X2766Y2140D01*
X2813Y2140D02*
X2866Y2140D01*
X1513Y2139D02*
X1565Y2139D01*
X1613Y2139D02*
X1665Y2139D01*
X1713Y2139D02*
X1765Y2139D01*
X1813Y2139D02*
X1865Y2139D01*
X1913Y2139D02*
X1965Y2139D01*
X2013Y2139D02*
X2065Y2139D01*
X2113Y2139D02*
X2165Y2139D01*
X2213Y2139D02*
X2265Y2139D01*
X2313Y2139D02*
X2365Y2139D01*
X2413Y2139D02*
X2465Y2139D01*
X2513Y2139D02*
X2565Y2139D01*
X2613Y2139D02*
X2665Y2139D01*
X2713Y2139D02*
X2765Y2139D01*
X2813Y2139D02*
X2865Y2139D01*
X1514Y2138D02*
X1564Y2138D01*
X1614Y2138D02*
X1664Y2138D01*
X1714Y2138D02*
X1764Y2138D01*
X1814Y2138D02*
X1864Y2138D01*
X1914Y2138D02*
X1964Y2138D01*
X2014Y2138D02*
X2064Y2138D01*
X2114Y2138D02*
X2164Y2138D01*
X2214Y2138D02*
X2264Y2138D01*
X2314Y2138D02*
X2364Y2138D01*
X2414Y2138D02*
X2464Y2138D01*
X2514Y2138D02*
X2564Y2138D01*
X2614Y2138D02*
X2664Y2138D01*
X2714Y2138D02*
X2764Y2138D01*
X2814Y2138D02*
X2864Y2138D01*
X1515Y2137D02*
X1563Y2137D01*
X1615Y2137D02*
X1663Y2137D01*
X1715Y2137D02*
X1763Y2137D01*
X1815Y2137D02*
X1863Y2137D01*
X1915Y2137D02*
X1963Y2137D01*
X2015Y2137D02*
X2063Y2137D01*
X2115Y2137D02*
X2163Y2137D01*
X2215Y2137D02*
X2263Y2137D01*
X2315Y2137D02*
X2363Y2137D01*
X2415Y2137D02*
X2463Y2137D01*
X2515Y2137D02*
X2563Y2137D01*
X2615Y2137D02*
X2663Y2137D01*
X2715Y2137D02*
X2763Y2137D01*
X2815Y2137D02*
X2863Y2137D01*
X1516Y2136D02*
X1562Y2136D01*
X1616Y2136D02*
X1662Y2136D01*
X1716Y2136D02*
X1762Y2136D01*
X1816Y2136D02*
X1862Y2136D01*
X1916Y2136D02*
X1962Y2136D01*
X2016Y2136D02*
X2062Y2136D01*
X2116Y2136D02*
X2162Y2136D01*
X2216Y2136D02*
X2262Y2136D01*
X2316Y2136D02*
X2362Y2136D01*
X2416Y2136D02*
X2462Y2136D01*
X2516Y2136D02*
X2562Y2136D01*
X2616Y2136D02*
X2662Y2136D01*
X2716Y2136D02*
X2762Y2136D01*
X2816Y2136D02*
X2862Y2136D01*
X1518Y2135D02*
X1561Y2135D01*
X1618Y2135D02*
X1661Y2135D01*
X1718Y2135D02*
X1761Y2135D01*
X1818Y2135D02*
X1861Y2135D01*
X1918Y2135D02*
X1961Y2135D01*
X2018Y2135D02*
X2061Y2135D01*
X2118Y2135D02*
X2161Y2135D01*
X2218Y2135D02*
X2261Y2135D01*
X2318Y2135D02*
X2361Y2135D01*
X2418Y2135D02*
X2461Y2135D01*
X2517Y2135D02*
X2561Y2135D01*
X2617Y2135D02*
X2661Y2135D01*
X2717Y2135D02*
X2761Y2135D01*
X2817Y2135D02*
X2861Y2135D01*
X1519Y2134D02*
X1560Y2134D01*
X1619Y2134D02*
X1660Y2134D01*
X1719Y2134D02*
X1759Y2134D01*
X1819Y2134D02*
X1859Y2134D01*
X1919Y2134D02*
X1959Y2134D01*
X2019Y2134D02*
X2059Y2134D01*
X2119Y2134D02*
X2159Y2134D01*
X2219Y2134D02*
X2259Y2134D01*
X2319Y2134D02*
X2359Y2134D01*
X2419Y2134D02*
X2459Y2134D01*
X2519Y2134D02*
X2559Y2134D01*
X2619Y2134D02*
X2659Y2134D01*
X2719Y2134D02*
X2759Y2134D01*
X2819Y2134D02*
X2859Y2134D01*
X1520Y2133D02*
X1558Y2133D01*
X1620Y2133D02*
X1658Y2133D01*
X1720Y2133D02*
X1758Y2133D01*
X1820Y2133D02*
X1858Y2133D01*
X1920Y2133D02*
X1958Y2133D01*
X2020Y2133D02*
X2058Y2133D01*
X2120Y2133D02*
X2158Y2133D01*
X2220Y2133D02*
X2258Y2133D01*
X2320Y2133D02*
X2358Y2133D01*
X2420Y2133D02*
X2458Y2133D01*
X2520Y2133D02*
X2558Y2133D01*
X2620Y2133D02*
X2658Y2133D01*
X2720Y2133D02*
X2758Y2133D01*
X2820Y2133D02*
X2858Y2133D01*
X1522Y2132D02*
X1556Y2132D01*
X1622Y2132D02*
X1656Y2132D01*
X1722Y2132D02*
X1756Y2132D01*
X1822Y2132D02*
X1856Y2132D01*
X1922Y2132D02*
X1956Y2132D01*
X2022Y2132D02*
X2056Y2132D01*
X2122Y2132D02*
X2156Y2132D01*
X2222Y2132D02*
X2256Y2132D01*
X2322Y2132D02*
X2356Y2132D01*
X2422Y2132D02*
X2456Y2132D01*
X2522Y2132D02*
X2556Y2132D01*
X2622Y2132D02*
X2656Y2132D01*
X2722Y2132D02*
X2756Y2132D01*
X2822Y2132D02*
X2856Y2132D01*
X1524Y2131D02*
X1554Y2131D01*
X1624Y2131D02*
X1654Y2131D01*
X1724Y2131D02*
X1754Y2131D01*
X1824Y2131D02*
X1854Y2131D01*
X1924Y2131D02*
X1954Y2131D01*
X2024Y2131D02*
X2054Y2131D01*
X2124Y2131D02*
X2154Y2131D01*
X2224Y2131D02*
X2254Y2131D01*
X2324Y2131D02*
X2354Y2131D01*
X2424Y2131D02*
X2454Y2131D01*
X2524Y2131D02*
X2554Y2131D01*
X2624Y2131D02*
X2654Y2131D01*
X2724Y2131D02*
X2754Y2131D01*
X2824Y2131D02*
X2854Y2131D01*
X1526Y2130D02*
X1552Y2130D01*
X1626Y2130D02*
X1652Y2130D01*
X1726Y2130D02*
X1752Y2130D01*
X1826Y2130D02*
X1852Y2130D01*
X1926Y2130D02*
X1952Y2130D01*
X2026Y2130D02*
X2052Y2130D01*
X2126Y2130D02*
X2152Y2130D01*
X2226Y2130D02*
X2252Y2130D01*
X2326Y2130D02*
X2352Y2130D01*
X2426Y2130D02*
X2452Y2130D01*
X2526Y2130D02*
X2552Y2130D01*
X2626Y2130D02*
X2652Y2130D01*
X2726Y2130D02*
X2752Y2130D01*
X2826Y2130D02*
X2852Y2130D01*
X1529Y2129D02*
X1550Y2129D01*
X1629Y2129D02*
X1650Y2129D01*
X1729Y2129D02*
X1750Y2129D01*
X1829Y2129D02*
X1850Y2129D01*
X1929Y2129D02*
X1950Y2129D01*
X2029Y2129D02*
X2050Y2129D01*
X2129Y2129D02*
X2150Y2129D01*
X2229Y2129D02*
X2250Y2129D01*
X2329Y2129D02*
X2350Y2129D01*
X2429Y2129D02*
X2450Y2129D01*
X2529Y2129D02*
X2550Y2129D01*
X2629Y2129D02*
X2650Y2129D01*
X2729Y2129D02*
X2750Y2129D01*
X2829Y2129D02*
X2850Y2129D01*
X1532Y2128D02*
X1546Y2128D01*
X1632Y2128D02*
X1646Y2128D01*
X1732Y2128D02*
X1746Y2128D01*
X1832Y2128D02*
X1846Y2128D01*
X1932Y2128D02*
X1946Y2128D01*
X2032Y2128D02*
X2046Y2128D01*
X2132Y2128D02*
X2146Y2128D01*
X2232Y2128D02*
X2246Y2128D01*
X2332Y2128D02*
X2346Y2128D01*
X2432Y2128D02*
X2446Y2128D01*
X2532Y2128D02*
X2546Y2128D01*
X2632Y2128D02*
X2646Y2128D01*
X2732Y2128D02*
X2746Y2128D01*
X2832Y2128D02*
X2846Y2128D01*
X1538Y1897D02*
X1540Y1897D01*
X1638Y1897D02*
X1640Y1897D01*
X1738Y1897D02*
X1740Y1897D01*
X1838Y1897D02*
X1840Y1897D01*
X1938Y1897D02*
X1940Y1897D01*
X2038Y1897D02*
X2040Y1897D01*
X2138Y1897D02*
X2140Y1897D01*
X2238Y1897D02*
X2240Y1897D01*
X2338Y1897D02*
X2340Y1897D01*
X2438Y1897D02*
X2440Y1897D01*
X2538Y1897D02*
X2540Y1897D01*
X2638Y1897D02*
X2640Y1897D01*
X2738Y1897D02*
X2740Y1897D01*
X2838Y1897D02*
X2840Y1897D01*
X1532Y1896D02*
X1547Y1896D01*
X1632Y1896D02*
X1647Y1896D01*
X1732Y1896D02*
X1747Y1896D01*
X1832Y1896D02*
X1847Y1896D01*
X1932Y1896D02*
X1947Y1896D01*
X2032Y1896D02*
X2047Y1896D01*
X2132Y1896D02*
X2147Y1896D01*
X2232Y1896D02*
X2247Y1896D01*
X2332Y1896D02*
X2347Y1896D01*
X2432Y1896D02*
X2447Y1896D01*
X2532Y1896D02*
X2547Y1896D01*
X2632Y1896D02*
X2647Y1896D01*
X2732Y1896D02*
X2747Y1896D01*
X2832Y1896D02*
X2847Y1896D01*
X1528Y1895D02*
X1550Y1895D01*
X1628Y1895D02*
X1650Y1895D01*
X1728Y1895D02*
X1750Y1895D01*
X1828Y1895D02*
X1850Y1895D01*
X1928Y1895D02*
X1950Y1895D01*
X2028Y1895D02*
X2050Y1895D01*
X2128Y1895D02*
X2150Y1895D01*
X2228Y1895D02*
X2250Y1895D01*
X2328Y1895D02*
X2350Y1895D01*
X2428Y1895D02*
X2450Y1895D01*
X2528Y1895D02*
X2550Y1895D01*
X2628Y1895D02*
X2650Y1895D01*
X2728Y1895D02*
X2750Y1895D01*
X2828Y1895D02*
X2850Y1895D01*
X1526Y1894D02*
X1553Y1894D01*
X1626Y1894D02*
X1653Y1894D01*
X1726Y1894D02*
X1753Y1894D01*
X1826Y1894D02*
X1853Y1894D01*
X1926Y1894D02*
X1953Y1894D01*
X2026Y1894D02*
X2053Y1894D01*
X2126Y1894D02*
X2153Y1894D01*
X2226Y1894D02*
X2253Y1894D01*
X2326Y1894D02*
X2353Y1894D01*
X2426Y1894D02*
X2453Y1894D01*
X2526Y1894D02*
X2553Y1894D01*
X2626Y1894D02*
X2653Y1894D01*
X2726Y1894D02*
X2753Y1894D01*
X2826Y1894D02*
X2852Y1894D01*
X1524Y1893D02*
X1555Y1893D01*
X1624Y1893D02*
X1655Y1893D01*
X1724Y1893D02*
X1755Y1893D01*
X1824Y1893D02*
X1855Y1893D01*
X1924Y1893D02*
X1955Y1893D01*
X2024Y1893D02*
X2055Y1893D01*
X2124Y1893D02*
X2155Y1893D01*
X2224Y1893D02*
X2255Y1893D01*
X2324Y1893D02*
X2355Y1893D01*
X2424Y1893D02*
X2455Y1893D01*
X2524Y1893D02*
X2555Y1893D01*
X2624Y1893D02*
X2655Y1893D01*
X2724Y1893D02*
X2755Y1893D01*
X2824Y1893D02*
X2855Y1893D01*
X1522Y1892D02*
X1557Y1892D01*
X1622Y1892D02*
X1657Y1892D01*
X1722Y1892D02*
X1757Y1892D01*
X1822Y1892D02*
X1857Y1892D01*
X1922Y1892D02*
X1957Y1892D01*
X2022Y1892D02*
X2057Y1892D01*
X2122Y1892D02*
X2156Y1892D01*
X2222Y1892D02*
X2256Y1892D01*
X2322Y1892D02*
X2356Y1892D01*
X2422Y1892D02*
X2456Y1892D01*
X2522Y1892D02*
X2556Y1892D01*
X2622Y1892D02*
X2656Y1892D01*
X2722Y1892D02*
X2756Y1892D01*
X2822Y1892D02*
X2856Y1892D01*
X1520Y1891D02*
X1558Y1891D01*
X1620Y1891D02*
X1658Y1891D01*
X1720Y1891D02*
X1758Y1891D01*
X1820Y1891D02*
X1858Y1891D01*
X1920Y1891D02*
X1958Y1891D01*
X2020Y1891D02*
X2058Y1891D01*
X2120Y1891D02*
X2158Y1891D01*
X2220Y1891D02*
X2258Y1891D01*
X2320Y1891D02*
X2358Y1891D01*
X2420Y1891D02*
X2458Y1891D01*
X2520Y1891D02*
X2558Y1891D01*
X2620Y1891D02*
X2658Y1891D01*
X2720Y1891D02*
X2758Y1891D01*
X2820Y1891D02*
X2858Y1891D01*
X1519Y1890D02*
X1560Y1890D01*
X1619Y1890D02*
X1660Y1890D01*
X1719Y1890D02*
X1760Y1890D01*
X1819Y1890D02*
X1860Y1890D01*
X1919Y1890D02*
X1960Y1890D01*
X2019Y1890D02*
X2060Y1890D01*
X2119Y1890D02*
X2160Y1890D01*
X2219Y1890D02*
X2260Y1890D01*
X2319Y1890D02*
X2360Y1890D01*
X2419Y1890D02*
X2460Y1890D01*
X2519Y1890D02*
X2560Y1890D01*
X2619Y1890D02*
X2660Y1890D01*
X2719Y1890D02*
X2760Y1890D01*
X2819Y1890D02*
X2860Y1890D01*
X1517Y1889D02*
X1561Y1889D01*
X1617Y1889D02*
X1661Y1889D01*
X1717Y1889D02*
X1761Y1889D01*
X1817Y1889D02*
X1861Y1889D01*
X1917Y1889D02*
X1961Y1889D01*
X2017Y1889D02*
X2061Y1889D01*
X2117Y1889D02*
X2161Y1889D01*
X2217Y1889D02*
X2261Y1889D01*
X2317Y1889D02*
X2361Y1889D01*
X2417Y1889D02*
X2461Y1889D01*
X2517Y1889D02*
X2561Y1889D01*
X2617Y1889D02*
X2661Y1889D01*
X2717Y1889D02*
X2761Y1889D01*
X2817Y1889D02*
X2861Y1889D01*
X1516Y1888D02*
X1562Y1888D01*
X1616Y1888D02*
X1662Y1888D01*
X1716Y1888D02*
X1762Y1888D01*
X1816Y1888D02*
X1862Y1888D01*
X1916Y1888D02*
X1962Y1888D01*
X2016Y1888D02*
X2062Y1888D01*
X2116Y1888D02*
X2162Y1888D01*
X2216Y1888D02*
X2262Y1888D01*
X2316Y1888D02*
X2362Y1888D01*
X2416Y1888D02*
X2462Y1888D01*
X2516Y1888D02*
X2562Y1888D01*
X2616Y1888D02*
X2662Y1888D01*
X2716Y1888D02*
X2762Y1888D01*
X2816Y1888D02*
X2862Y1888D01*
X1515Y1887D02*
X1563Y1887D01*
X1615Y1887D02*
X1663Y1887D01*
X1715Y1887D02*
X1763Y1887D01*
X1815Y1887D02*
X1863Y1887D01*
X1915Y1887D02*
X1963Y1887D01*
X2015Y1887D02*
X2063Y1887D01*
X2115Y1887D02*
X2163Y1887D01*
X2215Y1887D02*
X2263Y1887D01*
X2315Y1887D02*
X2363Y1887D01*
X2415Y1887D02*
X2463Y1887D01*
X2515Y1887D02*
X2563Y1887D01*
X2615Y1887D02*
X2663Y1887D01*
X2715Y1887D02*
X2763Y1887D01*
X2815Y1887D02*
X2863Y1887D01*
X1514Y1886D02*
X1564Y1886D01*
X1614Y1886D02*
X1664Y1886D01*
X1714Y1886D02*
X1764Y1886D01*
X1814Y1886D02*
X1864Y1886D01*
X1914Y1886D02*
X1964Y1886D01*
X2014Y1886D02*
X2064Y1886D01*
X2114Y1886D02*
X2164Y1886D01*
X2214Y1886D02*
X2264Y1886D01*
X2314Y1886D02*
X2364Y1886D01*
X2414Y1886D02*
X2464Y1886D01*
X2514Y1886D02*
X2564Y1886D01*
X2614Y1886D02*
X2664Y1886D01*
X2714Y1886D02*
X2764Y1886D01*
X2814Y1886D02*
X2864Y1886D01*
X1513Y1885D02*
X1565Y1885D01*
X1613Y1885D02*
X1665Y1885D01*
X1713Y1885D02*
X1765Y1885D01*
X1813Y1885D02*
X1865Y1885D01*
X1913Y1885D02*
X1965Y1885D01*
X2013Y1885D02*
X2065Y1885D01*
X2113Y1885D02*
X2165Y1885D01*
X2213Y1885D02*
X2265Y1885D01*
X2313Y1885D02*
X2365Y1885D01*
X2413Y1885D02*
X2465Y1885D01*
X2513Y1885D02*
X2565Y1885D01*
X2613Y1885D02*
X2665Y1885D01*
X2713Y1885D02*
X2765Y1885D01*
X2813Y1885D02*
X2865Y1885D01*
X1513Y1884D02*
X1566Y1884D01*
X1613Y1884D02*
X1666Y1884D01*
X1713Y1884D02*
X1766Y1884D01*
X1813Y1884D02*
X1866Y1884D01*
X1912Y1884D02*
X1966Y1884D01*
X2012Y1884D02*
X2066Y1884D01*
X2112Y1884D02*
X2166Y1884D01*
X2212Y1884D02*
X2266Y1884D01*
X2312Y1884D02*
X2366Y1884D01*
X2412Y1884D02*
X2466Y1884D01*
X2512Y1884D02*
X2566Y1884D01*
X2612Y1884D02*
X2666Y1884D01*
X2712Y1884D02*
X2766Y1884D01*
X2812Y1884D02*
X2866Y1884D01*
X1512Y1883D02*
X1567Y1883D01*
X1612Y1883D02*
X1667Y1883D01*
X1712Y1883D02*
X1767Y1883D01*
X1812Y1883D02*
X1867Y1883D01*
X1912Y1883D02*
X1967Y1883D01*
X2012Y1883D02*
X2067Y1883D01*
X2112Y1883D02*
X2167Y1883D01*
X2212Y1883D02*
X2267Y1883D01*
X2312Y1883D02*
X2367Y1883D01*
X2412Y1883D02*
X2467Y1883D01*
X2512Y1883D02*
X2567Y1883D01*
X2612Y1883D02*
X2667Y1883D01*
X2712Y1883D02*
X2767Y1883D01*
X2812Y1883D02*
X2867Y1883D01*
X1511Y1882D02*
X1567Y1882D01*
X1611Y1882D02*
X1667Y1882D01*
X1711Y1882D02*
X1767Y1882D01*
X1811Y1882D02*
X1867Y1882D01*
X1911Y1882D02*
X1967Y1882D01*
X2011Y1882D02*
X2067Y1882D01*
X2111Y1882D02*
X2167Y1882D01*
X2211Y1882D02*
X2267Y1882D01*
X2311Y1882D02*
X2367Y1882D01*
X2411Y1882D02*
X2467Y1882D01*
X2511Y1882D02*
X2567Y1882D01*
X2611Y1882D02*
X2667Y1882D01*
X2711Y1882D02*
X2767Y1882D01*
X2811Y1882D02*
X2867Y1882D01*
X1510Y1881D02*
X1568Y1881D01*
X1610Y1881D02*
X1668Y1881D01*
X1710Y1881D02*
X1768Y1881D01*
X1810Y1881D02*
X1868Y1881D01*
X1910Y1881D02*
X1968Y1881D01*
X2010Y1881D02*
X2068Y1881D01*
X2110Y1881D02*
X2168Y1881D01*
X2210Y1881D02*
X2268Y1881D01*
X2310Y1881D02*
X2368Y1881D01*
X2410Y1881D02*
X2468Y1881D01*
X2510Y1881D02*
X2568Y1881D01*
X2610Y1881D02*
X2668Y1881D01*
X2710Y1881D02*
X2768Y1881D01*
X2810Y1881D02*
X2868Y1881D01*
X1510Y1880D02*
X1569Y1880D01*
X1610Y1880D02*
X1669Y1880D01*
X1710Y1880D02*
X1769Y1880D01*
X1810Y1880D02*
X1869Y1880D01*
X1910Y1880D02*
X1969Y1880D01*
X2010Y1880D02*
X2069Y1880D01*
X2110Y1880D02*
X2169Y1880D01*
X2210Y1880D02*
X2269Y1880D01*
X2310Y1880D02*
X2369Y1880D01*
X2410Y1880D02*
X2469Y1880D01*
X2510Y1880D02*
X2569Y1880D01*
X2610Y1880D02*
X2668Y1880D01*
X2710Y1880D02*
X2768Y1880D01*
X2810Y1880D02*
X2868Y1880D01*
X1509Y1879D02*
X1569Y1879D01*
X1609Y1879D02*
X1669Y1879D01*
X1709Y1879D02*
X1769Y1879D01*
X1809Y1879D02*
X1869Y1879D01*
X1909Y1879D02*
X1969Y1879D01*
X2009Y1879D02*
X2069Y1879D01*
X2109Y1879D02*
X2169Y1879D01*
X2209Y1879D02*
X2269Y1879D01*
X2309Y1879D02*
X2369Y1879D01*
X2409Y1879D02*
X2469Y1879D01*
X2509Y1879D02*
X2569Y1879D01*
X2609Y1879D02*
X2669Y1879D01*
X2709Y1879D02*
X2769Y1879D01*
X2809Y1879D02*
X2869Y1879D01*
X1509Y1878D02*
X1570Y1878D01*
X1609Y1878D02*
X1670Y1878D01*
X1709Y1878D02*
X1770Y1878D01*
X1809Y1878D02*
X1870Y1878D01*
X1909Y1878D02*
X1970Y1878D01*
X2009Y1878D02*
X2070Y1878D01*
X2109Y1878D02*
X2170Y1878D01*
X2209Y1878D02*
X2270Y1878D01*
X2309Y1878D02*
X2370Y1878D01*
X2409Y1878D02*
X2470Y1878D01*
X2509Y1878D02*
X2570Y1878D01*
X2609Y1878D02*
X2670Y1878D01*
X2709Y1878D02*
X2770Y1878D01*
X2809Y1878D02*
X2870Y1878D01*
X1508Y1877D02*
X1538Y1877D01*
X1541Y1877D02*
X1570Y1877D01*
X1608Y1877D02*
X1638Y1877D01*
X1641Y1877D02*
X1670Y1877D01*
X1708Y1877D02*
X1738Y1877D01*
X1741Y1877D02*
X1770Y1877D01*
X1808Y1877D02*
X1838Y1877D01*
X1841Y1877D02*
X1870Y1877D01*
X1908Y1877D02*
X1938Y1877D01*
X1941Y1877D02*
X1970Y1877D01*
X2008Y1877D02*
X2038Y1877D01*
X2041Y1877D02*
X2070Y1877D01*
X2108Y1877D02*
X2138Y1877D01*
X2141Y1877D02*
X2170Y1877D01*
X2208Y1877D02*
X2238Y1877D01*
X2241Y1877D02*
X2270Y1877D01*
X2308Y1877D02*
X2338Y1877D01*
X2341Y1877D02*
X2370Y1877D01*
X2408Y1877D02*
X2438Y1877D01*
X2441Y1877D02*
X2470Y1877D01*
X2508Y1877D02*
X2538Y1877D01*
X2541Y1877D02*
X2570Y1877D01*
X2608Y1877D02*
X2638Y1877D01*
X2641Y1877D02*
X2670Y1877D01*
X2708Y1877D02*
X2738Y1877D01*
X2741Y1877D02*
X2770Y1877D01*
X2808Y1877D02*
X2838Y1877D01*
X2841Y1877D02*
X2870Y1877D01*
X1508Y1876D02*
X1533Y1876D01*
X1546Y1876D02*
X1571Y1876D01*
X1608Y1876D02*
X1633Y1876D01*
X1646Y1876D02*
X1671Y1876D01*
X1708Y1876D02*
X1733Y1876D01*
X1746Y1876D02*
X1771Y1876D01*
X1808Y1876D02*
X1833Y1876D01*
X1846Y1876D02*
X1871Y1876D01*
X1908Y1876D02*
X1933Y1876D01*
X1946Y1876D02*
X1971Y1876D01*
X2008Y1876D02*
X2033Y1876D01*
X2046Y1876D02*
X2071Y1876D01*
X2108Y1876D02*
X2133Y1876D01*
X2146Y1876D02*
X2171Y1876D01*
X2208Y1876D02*
X2233Y1876D01*
X2246Y1876D02*
X2271Y1876D01*
X2308Y1876D02*
X2333Y1876D01*
X2346Y1876D02*
X2371Y1876D01*
X2408Y1876D02*
X2433Y1876D01*
X2446Y1876D02*
X2471Y1876D01*
X2508Y1876D02*
X2533Y1876D01*
X2546Y1876D02*
X2571Y1876D01*
X2608Y1876D02*
X2633Y1876D01*
X2646Y1876D02*
X2671Y1876D01*
X2708Y1876D02*
X2733Y1876D01*
X2746Y1876D02*
X2771Y1876D01*
X2808Y1876D02*
X2833Y1876D01*
X2846Y1876D02*
X2871Y1876D01*
X1507Y1875D02*
X1531Y1875D01*
X1548Y1875D02*
X1571Y1875D01*
X1607Y1875D02*
X1631Y1875D01*
X1648Y1875D02*
X1671Y1875D01*
X1707Y1875D02*
X1731Y1875D01*
X1748Y1875D02*
X1771Y1875D01*
X1807Y1875D02*
X1831Y1875D01*
X1847Y1875D02*
X1871Y1875D01*
X1907Y1875D02*
X1931Y1875D01*
X1947Y1875D02*
X1971Y1875D01*
X2007Y1875D02*
X2031Y1875D01*
X2047Y1875D02*
X2071Y1875D01*
X2107Y1875D02*
X2131Y1875D01*
X2147Y1875D02*
X2171Y1875D01*
X2207Y1875D02*
X2231Y1875D01*
X2247Y1875D02*
X2271Y1875D01*
X2307Y1875D02*
X2331Y1875D01*
X2347Y1875D02*
X2371Y1875D01*
X2407Y1875D02*
X2431Y1875D01*
X2447Y1875D02*
X2471Y1875D01*
X2507Y1875D02*
X2531Y1875D01*
X2547Y1875D02*
X2571Y1875D01*
X2607Y1875D02*
X2631Y1875D01*
X2647Y1875D02*
X2671Y1875D01*
X2707Y1875D02*
X2731Y1875D01*
X2747Y1875D02*
X2771Y1875D01*
X2807Y1875D02*
X2831Y1875D01*
X2847Y1875D02*
X2871Y1875D01*
X1507Y1874D02*
X1530Y1874D01*
X1549Y1874D02*
X1571Y1874D01*
X1607Y1874D02*
X1630Y1874D01*
X1649Y1874D02*
X1671Y1874D01*
X1707Y1874D02*
X1730Y1874D01*
X1749Y1874D02*
X1771Y1874D01*
X1807Y1874D02*
X1830Y1874D01*
X1849Y1874D02*
X1871Y1874D01*
X1907Y1874D02*
X1930Y1874D01*
X1949Y1874D02*
X1971Y1874D01*
X2007Y1874D02*
X2030Y1874D01*
X2049Y1874D02*
X2071Y1874D01*
X2107Y1874D02*
X2130Y1874D01*
X2149Y1874D02*
X2171Y1874D01*
X2207Y1874D02*
X2230Y1874D01*
X2249Y1874D02*
X2271Y1874D01*
X2307Y1874D02*
X2330Y1874D01*
X2349Y1874D02*
X2371Y1874D01*
X2407Y1874D02*
X2430Y1874D01*
X2449Y1874D02*
X2471Y1874D01*
X2507Y1874D02*
X2530Y1874D01*
X2549Y1874D02*
X2571Y1874D01*
X2607Y1874D02*
X2630Y1874D01*
X2649Y1874D02*
X2671Y1874D01*
X2707Y1874D02*
X2730Y1874D01*
X2749Y1874D02*
X2771Y1874D01*
X2807Y1874D02*
X2830Y1874D01*
X2849Y1874D02*
X2871Y1874D01*
X1507Y1873D02*
X1529Y1873D01*
X1550Y1873D02*
X1572Y1873D01*
X1607Y1873D02*
X1628Y1873D01*
X1650Y1873D02*
X1672Y1873D01*
X1707Y1873D02*
X1728Y1873D01*
X1750Y1873D02*
X1772Y1873D01*
X1807Y1873D02*
X1828Y1873D01*
X1850Y1873D02*
X1872Y1873D01*
X1907Y1873D02*
X1928Y1873D01*
X1950Y1873D02*
X1972Y1873D01*
X2007Y1873D02*
X2028Y1873D01*
X2050Y1873D02*
X2072Y1873D01*
X2107Y1873D02*
X2128Y1873D01*
X2150Y1873D02*
X2172Y1873D01*
X2207Y1873D02*
X2228Y1873D01*
X2250Y1873D02*
X2272Y1873D01*
X2307Y1873D02*
X2328Y1873D01*
X2350Y1873D02*
X2372Y1873D01*
X2407Y1873D02*
X2428Y1873D01*
X2450Y1873D02*
X2472Y1873D01*
X2507Y1873D02*
X2528Y1873D01*
X2550Y1873D02*
X2572Y1873D01*
X2607Y1873D02*
X2628Y1873D01*
X2650Y1873D02*
X2672Y1873D01*
X2707Y1873D02*
X2728Y1873D01*
X2750Y1873D02*
X2772Y1873D01*
X2807Y1873D02*
X2828Y1873D01*
X2850Y1873D02*
X2872Y1873D01*
X1506Y1872D02*
X1528Y1872D01*
X1551Y1872D02*
X1572Y1872D01*
X1606Y1872D02*
X1628Y1872D01*
X1651Y1872D02*
X1672Y1872D01*
X1706Y1872D02*
X1728Y1872D01*
X1751Y1872D02*
X1772Y1872D01*
X1806Y1872D02*
X1828Y1872D01*
X1851Y1872D02*
X1872Y1872D01*
X1906Y1872D02*
X1927Y1872D01*
X1951Y1872D02*
X1972Y1872D01*
X2006Y1872D02*
X2027Y1872D01*
X2051Y1872D02*
X2072Y1872D01*
X2106Y1872D02*
X2127Y1872D01*
X2151Y1872D02*
X2172Y1872D01*
X2206Y1872D02*
X2227Y1872D01*
X2251Y1872D02*
X2272Y1872D01*
X2306Y1872D02*
X2327Y1872D01*
X2351Y1872D02*
X2372Y1872D01*
X2406Y1872D02*
X2427Y1872D01*
X2451Y1872D02*
X2472Y1872D01*
X2506Y1872D02*
X2527Y1872D01*
X2551Y1872D02*
X2572Y1872D01*
X2606Y1872D02*
X2627Y1872D01*
X2651Y1872D02*
X2672Y1872D01*
X2706Y1872D02*
X2727Y1872D01*
X2751Y1872D02*
X2772Y1872D01*
X2806Y1872D02*
X2827Y1872D01*
X2851Y1872D02*
X2872Y1872D01*
X1506Y1871D02*
X1527Y1871D01*
X1552Y1871D02*
X1572Y1871D01*
X1606Y1871D02*
X1627Y1871D01*
X1652Y1871D02*
X1672Y1871D01*
X1706Y1871D02*
X1727Y1871D01*
X1752Y1871D02*
X1772Y1871D01*
X1806Y1871D02*
X1827Y1871D01*
X1852Y1871D02*
X1872Y1871D01*
X1906Y1871D02*
X1927Y1871D01*
X1952Y1871D02*
X1972Y1871D01*
X2006Y1871D02*
X2027Y1871D01*
X2052Y1871D02*
X2072Y1871D01*
X2106Y1871D02*
X2127Y1871D01*
X2152Y1871D02*
X2172Y1871D01*
X2206Y1871D02*
X2227Y1871D01*
X2252Y1871D02*
X2272Y1871D01*
X2306Y1871D02*
X2327Y1871D01*
X2352Y1871D02*
X2372Y1871D01*
X2406Y1871D02*
X2427Y1871D01*
X2452Y1871D02*
X2472Y1871D01*
X2506Y1871D02*
X2527Y1871D01*
X2552Y1871D02*
X2572Y1871D01*
X2606Y1871D02*
X2627Y1871D01*
X2652Y1871D02*
X2672Y1871D01*
X2706Y1871D02*
X2727Y1871D01*
X2752Y1871D02*
X2772Y1871D01*
X2806Y1871D02*
X2827Y1871D01*
X2852Y1871D02*
X2872Y1871D01*
X1506Y1870D02*
X1526Y1870D01*
X1553Y1870D02*
X1573Y1870D01*
X1606Y1870D02*
X1626Y1870D01*
X1653Y1870D02*
X1673Y1870D01*
X1706Y1870D02*
X1726Y1870D01*
X1753Y1870D02*
X1773Y1870D01*
X1806Y1870D02*
X1826Y1870D01*
X1853Y1870D02*
X1873Y1870D01*
X1906Y1870D02*
X1926Y1870D01*
X1953Y1870D02*
X1973Y1870D01*
X2006Y1870D02*
X2026Y1870D01*
X2053Y1870D02*
X2073Y1870D01*
X2106Y1870D02*
X2126Y1870D01*
X2153Y1870D02*
X2173Y1870D01*
X2206Y1870D02*
X2226Y1870D01*
X2253Y1870D02*
X2273Y1870D01*
X2306Y1870D02*
X2326Y1870D01*
X2353Y1870D02*
X2373Y1870D01*
X2406Y1870D02*
X2426Y1870D01*
X2453Y1870D02*
X2473Y1870D01*
X2506Y1870D02*
X2526Y1870D01*
X2552Y1870D02*
X2573Y1870D01*
X2606Y1870D02*
X2626Y1870D01*
X2652Y1870D02*
X2673Y1870D01*
X2706Y1870D02*
X2726Y1870D01*
X2752Y1870D02*
X2773Y1870D01*
X2806Y1870D02*
X2826Y1870D01*
X2852Y1870D02*
X2873Y1870D01*
X1506Y1869D02*
X1525Y1869D01*
X1553Y1869D02*
X1573Y1869D01*
X1606Y1869D02*
X1625Y1869D01*
X1653Y1869D02*
X1673Y1869D01*
X1706Y1869D02*
X1725Y1869D01*
X1753Y1869D02*
X1773Y1869D01*
X1806Y1869D02*
X1825Y1869D01*
X1853Y1869D02*
X1873Y1869D01*
X1906Y1869D02*
X1925Y1869D01*
X1953Y1869D02*
X1973Y1869D01*
X2006Y1869D02*
X2025Y1869D01*
X2053Y1869D02*
X2073Y1869D01*
X2105Y1869D02*
X2125Y1869D01*
X2153Y1869D02*
X2173Y1869D01*
X2205Y1869D02*
X2225Y1869D01*
X2253Y1869D02*
X2273Y1869D01*
X2305Y1869D02*
X2325Y1869D01*
X2353Y1869D02*
X2373Y1869D01*
X2405Y1869D02*
X2425Y1869D01*
X2453Y1869D02*
X2473Y1869D01*
X2505Y1869D02*
X2525Y1869D01*
X2553Y1869D02*
X2573Y1869D01*
X2605Y1869D02*
X2625Y1869D01*
X2653Y1869D02*
X2673Y1869D01*
X2705Y1869D02*
X2725Y1869D01*
X2753Y1869D02*
X2773Y1869D01*
X2805Y1869D02*
X2825Y1869D01*
X2853Y1869D02*
X2873Y1869D01*
X1505Y1868D02*
X1525Y1868D01*
X1554Y1868D02*
X1573Y1868D01*
X1605Y1868D02*
X1625Y1868D01*
X1654Y1868D02*
X1673Y1868D01*
X1705Y1868D02*
X1725Y1868D01*
X1754Y1868D02*
X1773Y1868D01*
X1805Y1868D02*
X1825Y1868D01*
X1854Y1868D02*
X1873Y1868D01*
X1905Y1868D02*
X1925Y1868D01*
X1954Y1868D02*
X1973Y1868D01*
X2005Y1868D02*
X2025Y1868D01*
X2054Y1868D02*
X2073Y1868D01*
X2105Y1868D02*
X2125Y1868D01*
X2154Y1868D02*
X2173Y1868D01*
X2205Y1868D02*
X2225Y1868D01*
X2254Y1868D02*
X2273Y1868D01*
X2305Y1868D02*
X2325Y1868D01*
X2354Y1868D02*
X2373Y1868D01*
X2405Y1868D02*
X2425Y1868D01*
X2454Y1868D02*
X2473Y1868D01*
X2505Y1868D02*
X2525Y1868D01*
X2554Y1868D02*
X2573Y1868D01*
X2605Y1868D02*
X2625Y1868D01*
X2654Y1868D02*
X2673Y1868D01*
X2705Y1868D02*
X2725Y1868D01*
X2754Y1868D02*
X2773Y1868D01*
X2805Y1868D02*
X2825Y1868D01*
X2854Y1868D02*
X2873Y1868D01*
X1505Y1867D02*
X1524Y1867D01*
X1554Y1867D02*
X1573Y1867D01*
X1605Y1867D02*
X1624Y1867D01*
X1654Y1867D02*
X1673Y1867D01*
X1705Y1867D02*
X1724Y1867D01*
X1754Y1867D02*
X1773Y1867D01*
X1805Y1867D02*
X1824Y1867D01*
X1854Y1867D02*
X1873Y1867D01*
X1905Y1867D02*
X1924Y1867D01*
X1954Y1867D02*
X1973Y1867D01*
X2005Y1867D02*
X2024Y1867D01*
X2054Y1867D02*
X2073Y1867D01*
X2105Y1867D02*
X2124Y1867D01*
X2154Y1867D02*
X2173Y1867D01*
X2205Y1867D02*
X2224Y1867D01*
X2254Y1867D02*
X2273Y1867D01*
X2305Y1867D02*
X2324Y1867D01*
X2354Y1867D02*
X2373Y1867D01*
X2405Y1867D02*
X2424Y1867D01*
X2454Y1867D02*
X2473Y1867D01*
X2505Y1867D02*
X2524Y1867D01*
X2554Y1867D02*
X2573Y1867D01*
X2605Y1867D02*
X2624Y1867D01*
X2654Y1867D02*
X2673Y1867D01*
X2705Y1867D02*
X2724Y1867D01*
X2754Y1867D02*
X2773Y1867D01*
X2805Y1867D02*
X2824Y1867D01*
X2854Y1867D02*
X2873Y1867D01*
X1505Y1866D02*
X1524Y1866D01*
X1554Y1866D02*
X1573Y1866D01*
X1605Y1866D02*
X1624Y1866D01*
X1654Y1866D02*
X1673Y1866D01*
X1705Y1866D02*
X1724Y1866D01*
X1754Y1866D02*
X1773Y1866D01*
X1805Y1866D02*
X1824Y1866D01*
X1854Y1866D02*
X1873Y1866D01*
X1905Y1866D02*
X1924Y1866D01*
X1954Y1866D02*
X1973Y1866D01*
X2005Y1866D02*
X2024Y1866D01*
X2054Y1866D02*
X2073Y1866D01*
X2105Y1866D02*
X2124Y1866D01*
X2154Y1866D02*
X2173Y1866D01*
X2205Y1866D02*
X2224Y1866D01*
X2254Y1866D02*
X2273Y1866D01*
X2305Y1866D02*
X2324Y1866D01*
X2354Y1866D02*
X2373Y1866D01*
X2405Y1866D02*
X2424Y1866D01*
X2454Y1866D02*
X2473Y1866D01*
X2505Y1866D02*
X2524Y1866D01*
X2554Y1866D02*
X2573Y1866D01*
X2605Y1866D02*
X2624Y1866D01*
X2654Y1866D02*
X2673Y1866D01*
X2705Y1866D02*
X2724Y1866D01*
X2754Y1866D02*
X2773Y1866D01*
X2805Y1866D02*
X2824Y1866D01*
X2854Y1866D02*
X2873Y1866D01*
X1505Y1865D02*
X1524Y1865D01*
X1555Y1865D02*
X1574Y1865D01*
X1605Y1865D02*
X1624Y1865D01*
X1655Y1865D02*
X1674Y1865D01*
X1705Y1865D02*
X1724Y1865D01*
X1754Y1865D02*
X1774Y1865D01*
X1805Y1865D02*
X1824Y1865D01*
X1854Y1865D02*
X1874Y1865D01*
X1905Y1865D02*
X1924Y1865D01*
X1954Y1865D02*
X1974Y1865D01*
X2005Y1865D02*
X2024Y1865D01*
X2054Y1865D02*
X2074Y1865D01*
X2105Y1865D02*
X2124Y1865D01*
X2154Y1865D02*
X2174Y1865D01*
X2205Y1865D02*
X2224Y1865D01*
X2254Y1865D02*
X2274Y1865D01*
X2305Y1865D02*
X2324Y1865D01*
X2354Y1865D02*
X2373Y1865D01*
X2405Y1865D02*
X2424Y1865D01*
X2454Y1865D02*
X2473Y1865D01*
X2505Y1865D02*
X2524Y1865D01*
X2554Y1865D02*
X2573Y1865D01*
X2605Y1865D02*
X2624Y1865D01*
X2654Y1865D02*
X2673Y1865D01*
X2705Y1865D02*
X2724Y1865D01*
X2754Y1865D02*
X2773Y1865D01*
X2805Y1865D02*
X2824Y1865D01*
X2854Y1865D02*
X2873Y1865D01*
X1505Y1864D02*
X1524Y1864D01*
X1555Y1864D02*
X1574Y1864D01*
X1605Y1864D02*
X1624Y1864D01*
X1655Y1864D02*
X1674Y1864D01*
X1705Y1864D02*
X1724Y1864D01*
X1755Y1864D02*
X1774Y1864D01*
X1805Y1864D02*
X1824Y1864D01*
X1855Y1864D02*
X1874Y1864D01*
X1905Y1864D02*
X1924Y1864D01*
X1955Y1864D02*
X1974Y1864D01*
X2005Y1864D02*
X2024Y1864D01*
X2055Y1864D02*
X2074Y1864D01*
X2105Y1864D02*
X2124Y1864D01*
X2155Y1864D02*
X2174Y1864D01*
X2205Y1864D02*
X2224Y1864D01*
X2255Y1864D02*
X2274Y1864D01*
X2305Y1864D02*
X2324Y1864D01*
X2355Y1864D02*
X2374Y1864D01*
X2405Y1864D02*
X2424Y1864D01*
X2455Y1864D02*
X2474Y1864D01*
X2505Y1864D02*
X2524Y1864D01*
X2554Y1864D02*
X2574Y1864D01*
X2605Y1864D02*
X2624Y1864D01*
X2654Y1864D02*
X2674Y1864D01*
X2705Y1864D02*
X2724Y1864D01*
X2754Y1864D02*
X2774Y1864D01*
X2805Y1864D02*
X2824Y1864D01*
X2854Y1864D02*
X2874Y1864D01*
X1505Y1863D02*
X1524Y1863D01*
X1555Y1863D02*
X1574Y1863D01*
X1605Y1863D02*
X1624Y1863D01*
X1655Y1863D02*
X1674Y1863D01*
X1705Y1863D02*
X1724Y1863D01*
X1755Y1863D02*
X1774Y1863D01*
X1805Y1863D02*
X1824Y1863D01*
X1855Y1863D02*
X1874Y1863D01*
X1905Y1863D02*
X1924Y1863D01*
X1955Y1863D02*
X1974Y1863D01*
X2005Y1863D02*
X2024Y1863D01*
X2055Y1863D02*
X2074Y1863D01*
X2105Y1863D02*
X2124Y1863D01*
X2155Y1863D02*
X2174Y1863D01*
X2205Y1863D02*
X2224Y1863D01*
X2255Y1863D02*
X2274Y1863D01*
X2305Y1863D02*
X2324Y1863D01*
X2355Y1863D02*
X2374Y1863D01*
X2405Y1863D02*
X2424Y1863D01*
X2455Y1863D02*
X2474Y1863D01*
X2505Y1863D02*
X2524Y1863D01*
X2555Y1863D02*
X2574Y1863D01*
X2605Y1863D02*
X2624Y1863D01*
X2655Y1863D02*
X2674Y1863D01*
X2705Y1863D02*
X2724Y1863D01*
X2755Y1863D02*
X2774Y1863D01*
X2805Y1863D02*
X2824Y1863D01*
X2855Y1863D02*
X2874Y1863D01*
X1505Y1862D02*
X1524Y1862D01*
X1555Y1862D02*
X1574Y1862D01*
X1605Y1862D02*
X1624Y1862D01*
X1655Y1862D02*
X1674Y1862D01*
X1705Y1862D02*
X1724Y1862D01*
X1755Y1862D02*
X1774Y1862D01*
X1805Y1862D02*
X1824Y1862D01*
X1855Y1862D02*
X1874Y1862D01*
X1905Y1862D02*
X1924Y1862D01*
X1955Y1862D02*
X1974Y1862D01*
X2005Y1862D02*
X2024Y1862D01*
X2055Y1862D02*
X2074Y1862D01*
X2105Y1862D02*
X2124Y1862D01*
X2155Y1862D02*
X2174Y1862D01*
X2205Y1862D02*
X2224Y1862D01*
X2255Y1862D02*
X2274Y1862D01*
X2305Y1862D02*
X2324Y1862D01*
X2355Y1862D02*
X2374Y1862D01*
X2405Y1862D02*
X2424Y1862D01*
X2455Y1862D02*
X2474Y1862D01*
X2505Y1862D02*
X2524Y1862D01*
X2555Y1862D02*
X2574Y1862D01*
X2605Y1862D02*
X2624Y1862D01*
X2655Y1862D02*
X2674Y1862D01*
X2705Y1862D02*
X2724Y1862D01*
X2755Y1862D02*
X2774Y1862D01*
X2805Y1862D02*
X2824Y1862D01*
X2855Y1862D02*
X2874Y1862D01*
X1505Y1861D02*
X1524Y1861D01*
X1555Y1861D02*
X1574Y1861D01*
X1605Y1861D02*
X1624Y1861D01*
X1655Y1861D02*
X1674Y1861D01*
X1705Y1861D02*
X1724Y1861D01*
X1755Y1861D02*
X1774Y1861D01*
X1805Y1861D02*
X1824Y1861D01*
X1855Y1861D02*
X1874Y1861D01*
X1905Y1861D02*
X1924Y1861D01*
X1955Y1861D02*
X1974Y1861D01*
X2005Y1861D02*
X2024Y1861D01*
X2055Y1861D02*
X2074Y1861D01*
X2105Y1861D02*
X2124Y1861D01*
X2155Y1861D02*
X2174Y1861D01*
X2205Y1861D02*
X2224Y1861D01*
X2255Y1861D02*
X2274Y1861D01*
X2305Y1861D02*
X2324Y1861D01*
X2355Y1861D02*
X2374Y1861D01*
X2405Y1861D02*
X2424Y1861D01*
X2455Y1861D02*
X2474Y1861D01*
X2505Y1861D02*
X2524Y1861D01*
X2555Y1861D02*
X2574Y1861D01*
X2605Y1861D02*
X2624Y1861D01*
X2655Y1861D02*
X2674Y1861D01*
X2705Y1861D02*
X2724Y1861D01*
X2755Y1861D02*
X2774Y1861D01*
X2805Y1861D02*
X2824Y1861D01*
X2855Y1861D02*
X2874Y1861D01*
X1505Y1860D02*
X1524Y1860D01*
X1555Y1860D02*
X1574Y1860D01*
X1605Y1860D02*
X1624Y1860D01*
X1655Y1860D02*
X1674Y1860D01*
X1705Y1860D02*
X1724Y1860D01*
X1755Y1860D02*
X1774Y1860D01*
X1805Y1860D02*
X1824Y1860D01*
X1855Y1860D02*
X1874Y1860D01*
X1905Y1860D02*
X1924Y1860D01*
X1955Y1860D02*
X1974Y1860D01*
X2005Y1860D02*
X2024Y1860D01*
X2055Y1860D02*
X2074Y1860D01*
X2105Y1860D02*
X2124Y1860D01*
X2155Y1860D02*
X2174Y1860D01*
X2205Y1860D02*
X2224Y1860D01*
X2255Y1860D02*
X2274Y1860D01*
X2305Y1860D02*
X2324Y1860D01*
X2355Y1860D02*
X2374Y1860D01*
X2405Y1860D02*
X2424Y1860D01*
X2454Y1860D02*
X2474Y1860D01*
X2505Y1860D02*
X2524Y1860D01*
X2554Y1860D02*
X2574Y1860D01*
X2605Y1860D02*
X2624Y1860D01*
X2654Y1860D02*
X2674Y1860D01*
X2705Y1860D02*
X2724Y1860D01*
X2754Y1860D02*
X2774Y1860D01*
X2805Y1860D02*
X2824Y1860D01*
X2854Y1860D02*
X2873Y1860D01*
X1505Y1859D02*
X1524Y1859D01*
X1554Y1859D02*
X1574Y1859D01*
X1605Y1859D02*
X1624Y1859D01*
X1654Y1859D02*
X1674Y1859D01*
X1705Y1859D02*
X1724Y1859D01*
X1754Y1859D02*
X1774Y1859D01*
X1805Y1859D02*
X1824Y1859D01*
X1854Y1859D02*
X1874Y1859D01*
X1905Y1859D02*
X1924Y1859D01*
X1954Y1859D02*
X1974Y1859D01*
X2005Y1859D02*
X2024Y1859D01*
X2054Y1859D02*
X2074Y1859D01*
X2105Y1859D02*
X2124Y1859D01*
X2154Y1859D02*
X2174Y1859D01*
X2205Y1859D02*
X2224Y1859D01*
X2254Y1859D02*
X2273Y1859D01*
X2305Y1859D02*
X2324Y1859D01*
X2354Y1859D02*
X2373Y1859D01*
X2405Y1859D02*
X2424Y1859D01*
X2454Y1859D02*
X2473Y1859D01*
X2505Y1859D02*
X2524Y1859D01*
X2554Y1859D02*
X2573Y1859D01*
X2605Y1859D02*
X2624Y1859D01*
X2654Y1859D02*
X2673Y1859D01*
X2705Y1859D02*
X2724Y1859D01*
X2754Y1859D02*
X2773Y1859D01*
X2805Y1859D02*
X2824Y1859D01*
X2854Y1859D02*
X2873Y1859D01*
X1505Y1858D02*
X1524Y1858D01*
X1554Y1858D02*
X1573Y1858D01*
X1605Y1858D02*
X1624Y1858D01*
X1654Y1858D02*
X1673Y1858D01*
X1705Y1858D02*
X1724Y1858D01*
X1754Y1858D02*
X1773Y1858D01*
X1805Y1858D02*
X1824Y1858D01*
X1854Y1858D02*
X1873Y1858D01*
X1905Y1858D02*
X1924Y1858D01*
X1954Y1858D02*
X1973Y1858D01*
X2005Y1858D02*
X2024Y1858D01*
X2054Y1858D02*
X2073Y1858D01*
X2105Y1858D02*
X2124Y1858D01*
X2154Y1858D02*
X2173Y1858D01*
X2205Y1858D02*
X2224Y1858D01*
X2254Y1858D02*
X2273Y1858D01*
X2305Y1858D02*
X2324Y1858D01*
X2354Y1858D02*
X2373Y1858D01*
X2405Y1858D02*
X2424Y1858D01*
X2454Y1858D02*
X2473Y1858D01*
X2505Y1858D02*
X2524Y1858D01*
X2554Y1858D02*
X2573Y1858D01*
X2605Y1858D02*
X2624Y1858D01*
X2654Y1858D02*
X2673Y1858D01*
X2705Y1858D02*
X2724Y1858D01*
X2754Y1858D02*
X2773Y1858D01*
X2805Y1858D02*
X2824Y1858D01*
X2854Y1858D02*
X2873Y1858D01*
X1505Y1857D02*
X1525Y1857D01*
X1554Y1857D02*
X1573Y1857D01*
X1605Y1857D02*
X1624Y1857D01*
X1654Y1857D02*
X1673Y1857D01*
X1705Y1857D02*
X1724Y1857D01*
X1754Y1857D02*
X1773Y1857D01*
X1805Y1857D02*
X1824Y1857D01*
X1854Y1857D02*
X1873Y1857D01*
X1905Y1857D02*
X1924Y1857D01*
X1954Y1857D02*
X1973Y1857D01*
X2005Y1857D02*
X2024Y1857D01*
X2054Y1857D02*
X2073Y1857D01*
X2105Y1857D02*
X2124Y1857D01*
X2154Y1857D02*
X2173Y1857D01*
X2205Y1857D02*
X2224Y1857D01*
X2254Y1857D02*
X2273Y1857D01*
X2305Y1857D02*
X2324Y1857D01*
X2354Y1857D02*
X2373Y1857D01*
X2405Y1857D02*
X2424Y1857D01*
X2454Y1857D02*
X2473Y1857D01*
X2505Y1857D02*
X2524Y1857D01*
X2554Y1857D02*
X2573Y1857D01*
X2605Y1857D02*
X2624Y1857D01*
X2654Y1857D02*
X2673Y1857D01*
X2705Y1857D02*
X2724Y1857D01*
X2754Y1857D02*
X2773Y1857D01*
X2805Y1857D02*
X2824Y1857D01*
X2854Y1857D02*
X2873Y1857D01*
X1505Y1856D02*
X1525Y1856D01*
X1554Y1856D02*
X1573Y1856D01*
X1605Y1856D02*
X1625Y1856D01*
X1654Y1856D02*
X1673Y1856D01*
X1705Y1856D02*
X1725Y1856D01*
X1754Y1856D02*
X1773Y1856D01*
X1805Y1856D02*
X1825Y1856D01*
X1854Y1856D02*
X1873Y1856D01*
X1905Y1856D02*
X1925Y1856D01*
X1954Y1856D02*
X1973Y1856D01*
X2005Y1856D02*
X2025Y1856D01*
X2054Y1856D02*
X2073Y1856D01*
X2105Y1856D02*
X2125Y1856D01*
X2154Y1856D02*
X2173Y1856D01*
X2205Y1856D02*
X2225Y1856D01*
X2254Y1856D02*
X2273Y1856D01*
X2305Y1856D02*
X2325Y1856D01*
X2354Y1856D02*
X2373Y1856D01*
X2405Y1856D02*
X2425Y1856D01*
X2454Y1856D02*
X2473Y1856D01*
X2505Y1856D02*
X2525Y1856D01*
X2554Y1856D02*
X2573Y1856D01*
X2605Y1856D02*
X2625Y1856D01*
X2654Y1856D02*
X2673Y1856D01*
X2705Y1856D02*
X2725Y1856D01*
X2754Y1856D02*
X2773Y1856D01*
X2805Y1856D02*
X2825Y1856D01*
X2853Y1856D02*
X2873Y1856D01*
X1506Y1855D02*
X1525Y1855D01*
X1553Y1855D02*
X1573Y1855D01*
X1606Y1855D02*
X1625Y1855D01*
X1653Y1855D02*
X1673Y1855D01*
X1706Y1855D02*
X1725Y1855D01*
X1753Y1855D02*
X1773Y1855D01*
X1806Y1855D02*
X1825Y1855D01*
X1853Y1855D02*
X1873Y1855D01*
X1906Y1855D02*
X1925Y1855D01*
X1953Y1855D02*
X1973Y1855D01*
X2006Y1855D02*
X2025Y1855D01*
X2053Y1855D02*
X2073Y1855D01*
X2106Y1855D02*
X2125Y1855D01*
X2153Y1855D02*
X2173Y1855D01*
X2206Y1855D02*
X2225Y1855D01*
X2253Y1855D02*
X2273Y1855D01*
X2306Y1855D02*
X2325Y1855D01*
X2353Y1855D02*
X2373Y1855D01*
X2405Y1855D02*
X2425Y1855D01*
X2453Y1855D02*
X2473Y1855D01*
X2505Y1855D02*
X2525Y1855D01*
X2553Y1855D02*
X2573Y1855D01*
X2605Y1855D02*
X2625Y1855D01*
X2653Y1855D02*
X2673Y1855D01*
X2705Y1855D02*
X2725Y1855D01*
X2753Y1855D02*
X2773Y1855D01*
X2805Y1855D02*
X2825Y1855D01*
X2853Y1855D02*
X2873Y1855D01*
X1506Y1854D02*
X1526Y1854D01*
X1552Y1854D02*
X1573Y1854D01*
X1606Y1854D02*
X1626Y1854D01*
X1652Y1854D02*
X1673Y1854D01*
X1706Y1854D02*
X1726Y1854D01*
X1752Y1854D02*
X1773Y1854D01*
X1806Y1854D02*
X1826Y1854D01*
X1852Y1854D02*
X1873Y1854D01*
X1906Y1854D02*
X1926Y1854D01*
X1952Y1854D02*
X1973Y1854D01*
X2006Y1854D02*
X2026Y1854D01*
X2052Y1854D02*
X2073Y1854D01*
X2106Y1854D02*
X2126Y1854D01*
X2152Y1854D02*
X2173Y1854D01*
X2206Y1854D02*
X2226Y1854D01*
X2252Y1854D02*
X2273Y1854D01*
X2306Y1854D02*
X2326Y1854D01*
X2352Y1854D02*
X2373Y1854D01*
X2406Y1854D02*
X2426Y1854D01*
X2452Y1854D02*
X2473Y1854D01*
X2506Y1854D02*
X2526Y1854D01*
X2552Y1854D02*
X2573Y1854D01*
X2606Y1854D02*
X2626Y1854D01*
X2652Y1854D02*
X2673Y1854D01*
X2706Y1854D02*
X2726Y1854D01*
X2752Y1854D02*
X2773Y1854D01*
X2806Y1854D02*
X2826Y1854D01*
X2852Y1854D02*
X2872Y1854D01*
X1506Y1853D02*
X1527Y1853D01*
X1552Y1853D02*
X1572Y1853D01*
X1606Y1853D02*
X1627Y1853D01*
X1652Y1853D02*
X1672Y1853D01*
X1706Y1853D02*
X1727Y1853D01*
X1752Y1853D02*
X1772Y1853D01*
X1806Y1853D02*
X1827Y1853D01*
X1852Y1853D02*
X1872Y1853D01*
X1906Y1853D02*
X1927Y1853D01*
X1952Y1853D02*
X1972Y1853D01*
X2006Y1853D02*
X2027Y1853D01*
X2052Y1853D02*
X2072Y1853D01*
X2106Y1853D02*
X2127Y1853D01*
X2152Y1853D02*
X2172Y1853D01*
X2206Y1853D02*
X2227Y1853D01*
X2252Y1853D02*
X2272Y1853D01*
X2306Y1853D02*
X2327Y1853D01*
X2352Y1853D02*
X2372Y1853D01*
X2406Y1853D02*
X2427Y1853D01*
X2452Y1853D02*
X2472Y1853D01*
X2506Y1853D02*
X2527Y1853D01*
X2552Y1853D02*
X2572Y1853D01*
X2606Y1853D02*
X2627Y1853D01*
X2652Y1853D02*
X2672Y1853D01*
X2706Y1853D02*
X2727Y1853D01*
X2752Y1853D02*
X2772Y1853D01*
X2806Y1853D02*
X2827Y1853D01*
X2852Y1853D02*
X2872Y1853D01*
X1506Y1852D02*
X1528Y1852D01*
X1551Y1852D02*
X1572Y1852D01*
X1606Y1852D02*
X1628Y1852D01*
X1651Y1852D02*
X1672Y1852D01*
X1706Y1852D02*
X1728Y1852D01*
X1751Y1852D02*
X1772Y1852D01*
X1806Y1852D02*
X1828Y1852D01*
X1851Y1852D02*
X1872Y1852D01*
X1906Y1852D02*
X1928Y1852D01*
X1951Y1852D02*
X1972Y1852D01*
X2006Y1852D02*
X2028Y1852D01*
X2051Y1852D02*
X2072Y1852D01*
X2106Y1852D02*
X2128Y1852D01*
X2151Y1852D02*
X2172Y1852D01*
X2206Y1852D02*
X2228Y1852D01*
X2251Y1852D02*
X2272Y1852D01*
X2306Y1852D02*
X2328Y1852D01*
X2351Y1852D02*
X2372Y1852D01*
X2406Y1852D02*
X2428Y1852D01*
X2451Y1852D02*
X2472Y1852D01*
X2506Y1852D02*
X2528Y1852D01*
X2551Y1852D02*
X2572Y1852D01*
X2606Y1852D02*
X2628Y1852D01*
X2651Y1852D02*
X2672Y1852D01*
X2706Y1852D02*
X2728Y1852D01*
X2751Y1852D02*
X2772Y1852D01*
X2806Y1852D02*
X2828Y1852D01*
X2851Y1852D02*
X2872Y1852D01*
X1507Y1851D02*
X1529Y1851D01*
X1550Y1851D02*
X1572Y1851D01*
X1607Y1851D02*
X1629Y1851D01*
X1650Y1851D02*
X1672Y1851D01*
X1707Y1851D02*
X1729Y1851D01*
X1750Y1851D02*
X1772Y1851D01*
X1807Y1851D02*
X1829Y1851D01*
X1850Y1851D02*
X1872Y1851D01*
X1907Y1851D02*
X1929Y1851D01*
X1950Y1851D02*
X1972Y1851D01*
X2007Y1851D02*
X2029Y1851D01*
X2050Y1851D02*
X2072Y1851D01*
X2107Y1851D02*
X2129Y1851D01*
X2150Y1851D02*
X2172Y1851D01*
X2207Y1851D02*
X2229Y1851D01*
X2250Y1851D02*
X2272Y1851D01*
X2307Y1851D02*
X2329Y1851D01*
X2350Y1851D02*
X2372Y1851D01*
X2407Y1851D02*
X2429Y1851D01*
X2450Y1851D02*
X2472Y1851D01*
X2507Y1851D02*
X2529Y1851D01*
X2550Y1851D02*
X2572Y1851D01*
X2607Y1851D02*
X2629Y1851D01*
X2650Y1851D02*
X2672Y1851D01*
X2707Y1851D02*
X2729Y1851D01*
X2750Y1851D02*
X2772Y1851D01*
X2807Y1851D02*
X2829Y1851D01*
X2850Y1851D02*
X2872Y1851D01*
X1507Y1850D02*
X1530Y1850D01*
X1549Y1850D02*
X1571Y1850D01*
X1607Y1850D02*
X1630Y1850D01*
X1649Y1850D02*
X1671Y1850D01*
X1707Y1850D02*
X1730Y1850D01*
X1749Y1850D02*
X1771Y1850D01*
X1807Y1850D02*
X1830Y1850D01*
X1849Y1850D02*
X1871Y1850D01*
X1907Y1850D02*
X1930Y1850D01*
X1949Y1850D02*
X1971Y1850D01*
X2007Y1850D02*
X2030Y1850D01*
X2049Y1850D02*
X2071Y1850D01*
X2107Y1850D02*
X2130Y1850D01*
X2149Y1850D02*
X2171Y1850D01*
X2207Y1850D02*
X2230Y1850D01*
X2249Y1850D02*
X2271Y1850D01*
X2307Y1850D02*
X2330Y1850D01*
X2349Y1850D02*
X2371Y1850D01*
X2407Y1850D02*
X2430Y1850D01*
X2449Y1850D02*
X2471Y1850D01*
X2507Y1850D02*
X2530Y1850D01*
X2549Y1850D02*
X2571Y1850D01*
X2607Y1850D02*
X2630Y1850D01*
X2649Y1850D02*
X2671Y1850D01*
X2707Y1850D02*
X2730Y1850D01*
X2749Y1850D02*
X2771Y1850D01*
X2807Y1850D02*
X2830Y1850D01*
X2849Y1850D02*
X2871Y1850D01*
X1508Y1849D02*
X1531Y1849D01*
X1547Y1849D02*
X1571Y1849D01*
X1607Y1849D02*
X1631Y1849D01*
X1647Y1849D02*
X1671Y1849D01*
X1707Y1849D02*
X1731Y1849D01*
X1747Y1849D02*
X1771Y1849D01*
X1807Y1849D02*
X1831Y1849D01*
X1847Y1849D02*
X1871Y1849D01*
X1907Y1849D02*
X1931Y1849D01*
X1947Y1849D02*
X1971Y1849D01*
X2007Y1849D02*
X2031Y1849D01*
X2047Y1849D02*
X2071Y1849D01*
X2107Y1849D02*
X2131Y1849D01*
X2147Y1849D02*
X2171Y1849D01*
X2207Y1849D02*
X2231Y1849D01*
X2247Y1849D02*
X2271Y1849D01*
X2307Y1849D02*
X2331Y1849D01*
X2347Y1849D02*
X2371Y1849D01*
X2407Y1849D02*
X2431Y1849D01*
X2447Y1849D02*
X2471Y1849D01*
X2507Y1849D02*
X2531Y1849D01*
X2547Y1849D02*
X2571Y1849D01*
X2607Y1849D02*
X2631Y1849D01*
X2647Y1849D02*
X2671Y1849D01*
X2707Y1849D02*
X2731Y1849D01*
X2747Y1849D02*
X2771Y1849D01*
X2807Y1849D02*
X2831Y1849D01*
X2847Y1849D02*
X2871Y1849D01*
X1508Y1848D02*
X1533Y1848D01*
X1545Y1848D02*
X1571Y1848D01*
X1608Y1848D02*
X1633Y1848D01*
X1645Y1848D02*
X1671Y1848D01*
X1708Y1848D02*
X1733Y1848D01*
X1745Y1848D02*
X1771Y1848D01*
X1808Y1848D02*
X1833Y1848D01*
X1845Y1848D02*
X1871Y1848D01*
X1908Y1848D02*
X1933Y1848D01*
X1945Y1848D02*
X1971Y1848D01*
X2008Y1848D02*
X2033Y1848D01*
X2045Y1848D02*
X2071Y1848D01*
X2108Y1848D02*
X2133Y1848D01*
X2145Y1848D02*
X2170Y1848D01*
X2208Y1848D02*
X2233Y1848D01*
X2245Y1848D02*
X2270Y1848D01*
X2308Y1848D02*
X2333Y1848D01*
X2345Y1848D02*
X2370Y1848D01*
X2408Y1848D02*
X2433Y1848D01*
X2445Y1848D02*
X2470Y1848D01*
X2508Y1848D02*
X2533Y1848D01*
X2545Y1848D02*
X2570Y1848D01*
X2608Y1848D02*
X2633Y1848D01*
X2645Y1848D02*
X2670Y1848D01*
X2708Y1848D02*
X2733Y1848D01*
X2745Y1848D02*
X2770Y1848D01*
X2808Y1848D02*
X2833Y1848D01*
X2845Y1848D02*
X2870Y1848D01*
X1508Y1847D02*
X1570Y1847D01*
X1608Y1847D02*
X1670Y1847D01*
X1708Y1847D02*
X1770Y1847D01*
X1808Y1847D02*
X1870Y1847D01*
X1908Y1847D02*
X1970Y1847D01*
X2008Y1847D02*
X2070Y1847D01*
X2108Y1847D02*
X2170Y1847D01*
X2208Y1847D02*
X2270Y1847D01*
X2308Y1847D02*
X2370Y1847D01*
X2408Y1847D02*
X2470Y1847D01*
X2508Y1847D02*
X2570Y1847D01*
X2608Y1847D02*
X2670Y1847D01*
X2708Y1847D02*
X2770Y1847D01*
X2808Y1847D02*
X2870Y1847D01*
X1509Y1846D02*
X1570Y1846D01*
X1609Y1846D02*
X1670Y1846D01*
X1709Y1846D02*
X1770Y1846D01*
X1809Y1846D02*
X1870Y1846D01*
X1909Y1846D02*
X1970Y1846D01*
X2009Y1846D02*
X2070Y1846D01*
X2109Y1846D02*
X2170Y1846D01*
X2209Y1846D02*
X2270Y1846D01*
X2309Y1846D02*
X2370Y1846D01*
X2409Y1846D02*
X2470Y1846D01*
X2509Y1846D02*
X2570Y1846D01*
X2609Y1846D02*
X2669Y1846D01*
X2709Y1846D02*
X2769Y1846D01*
X2809Y1846D02*
X2869Y1846D01*
X1509Y1845D02*
X1569Y1845D01*
X1609Y1845D02*
X1669Y1845D01*
X1709Y1845D02*
X1769Y1845D01*
X1809Y1845D02*
X1869Y1845D01*
X1909Y1845D02*
X1969Y1845D01*
X2009Y1845D02*
X2069Y1845D01*
X2109Y1845D02*
X2169Y1845D01*
X2209Y1845D02*
X2269Y1845D01*
X2309Y1845D02*
X2369Y1845D01*
X2409Y1845D02*
X2469Y1845D01*
X2509Y1845D02*
X2569Y1845D01*
X2609Y1845D02*
X2669Y1845D01*
X2709Y1845D02*
X2769Y1845D01*
X2809Y1845D02*
X2869Y1845D01*
X1510Y1844D02*
X1568Y1844D01*
X1610Y1844D02*
X1668Y1844D01*
X1710Y1844D02*
X1768Y1844D01*
X1810Y1844D02*
X1868Y1844D01*
X1910Y1844D02*
X1968Y1844D01*
X2010Y1844D02*
X2068Y1844D01*
X2110Y1844D02*
X2168Y1844D01*
X2210Y1844D02*
X2268Y1844D01*
X2310Y1844D02*
X2368Y1844D01*
X2410Y1844D02*
X2468Y1844D01*
X2510Y1844D02*
X2568Y1844D01*
X2610Y1844D02*
X2668Y1844D01*
X2710Y1844D02*
X2768Y1844D01*
X2810Y1844D02*
X2868Y1844D01*
X1511Y1843D02*
X1568Y1843D01*
X1611Y1843D02*
X1668Y1843D01*
X1711Y1843D02*
X1768Y1843D01*
X1811Y1843D02*
X1868Y1843D01*
X1911Y1843D02*
X1968Y1843D01*
X2011Y1843D02*
X2068Y1843D01*
X2111Y1843D02*
X2168Y1843D01*
X2211Y1843D02*
X2268Y1843D01*
X2310Y1843D02*
X2368Y1843D01*
X2410Y1843D02*
X2468Y1843D01*
X2510Y1843D02*
X2568Y1843D01*
X2610Y1843D02*
X2668Y1843D01*
X2710Y1843D02*
X2768Y1843D01*
X2810Y1843D02*
X2868Y1843D01*
X1511Y1842D02*
X1567Y1842D01*
X1611Y1842D02*
X1667Y1842D01*
X1711Y1842D02*
X1767Y1842D01*
X1811Y1842D02*
X1867Y1842D01*
X1911Y1842D02*
X1967Y1842D01*
X2011Y1842D02*
X2067Y1842D01*
X2111Y1842D02*
X2167Y1842D01*
X2211Y1842D02*
X2267Y1842D01*
X2311Y1842D02*
X2367Y1842D01*
X2411Y1842D02*
X2467Y1842D01*
X2511Y1842D02*
X2567Y1842D01*
X2611Y1842D02*
X2667Y1842D01*
X2711Y1842D02*
X2767Y1842D01*
X2811Y1842D02*
X2867Y1842D01*
X1512Y1841D02*
X1567Y1841D01*
X1612Y1841D02*
X1667Y1841D01*
X1712Y1841D02*
X1767Y1841D01*
X1812Y1841D02*
X1867Y1841D01*
X1912Y1841D02*
X1967Y1841D01*
X2012Y1841D02*
X2066Y1841D01*
X2112Y1841D02*
X2166Y1841D01*
X2212Y1841D02*
X2266Y1841D01*
X2312Y1841D02*
X2366Y1841D01*
X2412Y1841D02*
X2466Y1841D01*
X2512Y1841D02*
X2566Y1841D01*
X2612Y1841D02*
X2666Y1841D01*
X2712Y1841D02*
X2766Y1841D01*
X2812Y1841D02*
X2866Y1841D01*
X1513Y1840D02*
X1566Y1840D01*
X1613Y1840D02*
X1666Y1840D01*
X1713Y1840D02*
X1766Y1840D01*
X1813Y1840D02*
X1866Y1840D01*
X1913Y1840D02*
X1966Y1840D01*
X2013Y1840D02*
X2066Y1840D01*
X2113Y1840D02*
X2166Y1840D01*
X2213Y1840D02*
X2266Y1840D01*
X2313Y1840D02*
X2366Y1840D01*
X2413Y1840D02*
X2466Y1840D01*
X2513Y1840D02*
X2566Y1840D01*
X2613Y1840D02*
X2666Y1840D01*
X2713Y1840D02*
X2766Y1840D01*
X2813Y1840D02*
X2866Y1840D01*
X1513Y1839D02*
X1565Y1839D01*
X1613Y1839D02*
X1665Y1839D01*
X1713Y1839D02*
X1765Y1839D01*
X1813Y1839D02*
X1865Y1839D01*
X1913Y1839D02*
X1965Y1839D01*
X2013Y1839D02*
X2065Y1839D01*
X2113Y1839D02*
X2165Y1839D01*
X2213Y1839D02*
X2265Y1839D01*
X2313Y1839D02*
X2365Y1839D01*
X2413Y1839D02*
X2465Y1839D01*
X2513Y1839D02*
X2565Y1839D01*
X2613Y1839D02*
X2665Y1839D01*
X2713Y1839D02*
X2765Y1839D01*
X2813Y1839D02*
X2865Y1839D01*
X1514Y1838D02*
X1564Y1838D01*
X1614Y1838D02*
X1664Y1838D01*
X1714Y1838D02*
X1764Y1838D01*
X1814Y1838D02*
X1864Y1838D01*
X1914Y1838D02*
X1964Y1838D01*
X2014Y1838D02*
X2064Y1838D01*
X2114Y1838D02*
X2164Y1838D01*
X2214Y1838D02*
X2264Y1838D01*
X2314Y1838D02*
X2364Y1838D01*
X2414Y1838D02*
X2464Y1838D01*
X2514Y1838D02*
X2564Y1838D01*
X2614Y1838D02*
X2664Y1838D01*
X2714Y1838D02*
X2764Y1838D01*
X2814Y1838D02*
X2864Y1838D01*
X1515Y1837D02*
X1563Y1837D01*
X1615Y1837D02*
X1663Y1837D01*
X1715Y1837D02*
X1763Y1837D01*
X1815Y1837D02*
X1863Y1837D01*
X1915Y1837D02*
X1963Y1837D01*
X2015Y1837D02*
X2063Y1837D01*
X2115Y1837D02*
X2163Y1837D01*
X2215Y1837D02*
X2263Y1837D01*
X2315Y1837D02*
X2363Y1837D01*
X2415Y1837D02*
X2463Y1837D01*
X2515Y1837D02*
X2563Y1837D01*
X2615Y1837D02*
X2663Y1837D01*
X2715Y1837D02*
X2763Y1837D01*
X2815Y1837D02*
X2863Y1837D01*
X1516Y1836D02*
X1562Y1836D01*
X1616Y1836D02*
X1662Y1836D01*
X1716Y1836D02*
X1762Y1836D01*
X1816Y1836D02*
X1862Y1836D01*
X1916Y1836D02*
X1962Y1836D01*
X2016Y1836D02*
X2062Y1836D01*
X2116Y1836D02*
X2162Y1836D01*
X2216Y1836D02*
X2262Y1836D01*
X2316Y1836D02*
X2362Y1836D01*
X2416Y1836D02*
X2462Y1836D01*
X2516Y1836D02*
X2562Y1836D01*
X2616Y1836D02*
X2662Y1836D01*
X2716Y1836D02*
X2762Y1836D01*
X2816Y1836D02*
X2862Y1836D01*
X1518Y1835D02*
X1561Y1835D01*
X1618Y1835D02*
X1661Y1835D01*
X1718Y1835D02*
X1761Y1835D01*
X1818Y1835D02*
X1861Y1835D01*
X1918Y1835D02*
X1961Y1835D01*
X2018Y1835D02*
X2061Y1835D01*
X2118Y1835D02*
X2161Y1835D01*
X2218Y1835D02*
X2261Y1835D01*
X2318Y1835D02*
X2361Y1835D01*
X2418Y1835D02*
X2461Y1835D01*
X2518Y1835D02*
X2561Y1835D01*
X2618Y1835D02*
X2661Y1835D01*
X2718Y1835D02*
X2761Y1835D01*
X2818Y1835D02*
X2861Y1835D01*
X1519Y1834D02*
X1559Y1834D01*
X1619Y1834D02*
X1659Y1834D01*
X1719Y1834D02*
X1759Y1834D01*
X1819Y1834D02*
X1859Y1834D01*
X1919Y1834D02*
X1959Y1834D01*
X2019Y1834D02*
X2059Y1834D01*
X2119Y1834D02*
X2159Y1834D01*
X2219Y1834D02*
X2259Y1834D01*
X2319Y1834D02*
X2359Y1834D01*
X2419Y1834D02*
X2459Y1834D01*
X2519Y1834D02*
X2559Y1834D01*
X2619Y1834D02*
X2659Y1834D01*
X2719Y1834D02*
X2759Y1834D01*
X2819Y1834D02*
X2859Y1834D01*
X1521Y1833D02*
X1558Y1833D01*
X1621Y1833D02*
X1658Y1833D01*
X1721Y1833D02*
X1758Y1833D01*
X1820Y1833D02*
X1858Y1833D01*
X1920Y1833D02*
X1958Y1833D01*
X2020Y1833D02*
X2058Y1833D01*
X2120Y1833D02*
X2158Y1833D01*
X2220Y1833D02*
X2258Y1833D01*
X2320Y1833D02*
X2358Y1833D01*
X2420Y1833D02*
X2458Y1833D01*
X2520Y1833D02*
X2558Y1833D01*
X2620Y1833D02*
X2658Y1833D01*
X2720Y1833D02*
X2758Y1833D01*
X2820Y1833D02*
X2858Y1833D01*
X1522Y1832D02*
X1556Y1832D01*
X1622Y1832D02*
X1656Y1832D01*
X1722Y1832D02*
X1756Y1832D01*
X1822Y1832D02*
X1856Y1832D01*
X1922Y1832D02*
X1956Y1832D01*
X2022Y1832D02*
X2056Y1832D01*
X2122Y1832D02*
X2156Y1832D01*
X2222Y1832D02*
X2256Y1832D01*
X2322Y1832D02*
X2356Y1832D01*
X2422Y1832D02*
X2456Y1832D01*
X2522Y1832D02*
X2556Y1832D01*
X2622Y1832D02*
X2656Y1832D01*
X2722Y1832D02*
X2756Y1832D01*
X2822Y1832D02*
X2856Y1832D01*
X1524Y1831D02*
X1554Y1831D01*
X1624Y1831D02*
X1654Y1831D01*
X1724Y1831D02*
X1754Y1831D01*
X1824Y1831D02*
X1854Y1831D01*
X1924Y1831D02*
X1954Y1831D01*
X2024Y1831D02*
X2054Y1831D01*
X2124Y1831D02*
X2154Y1831D01*
X2224Y1831D02*
X2254Y1831D01*
X2324Y1831D02*
X2354Y1831D01*
X2424Y1831D02*
X2454Y1831D01*
X2524Y1831D02*
X2554Y1831D01*
X2624Y1831D02*
X2654Y1831D01*
X2724Y1831D02*
X2754Y1831D01*
X2824Y1831D02*
X2854Y1831D01*
X1526Y1830D02*
X1552Y1830D01*
X1626Y1830D02*
X1652Y1830D01*
X1726Y1830D02*
X1752Y1830D01*
X1826Y1830D02*
X1852Y1830D01*
X1926Y1830D02*
X1952Y1830D01*
X2026Y1830D02*
X2052Y1830D01*
X2126Y1830D02*
X2152Y1830D01*
X2226Y1830D02*
X2252Y1830D01*
X2326Y1830D02*
X2352Y1830D01*
X2426Y1830D02*
X2452Y1830D01*
X2526Y1830D02*
X2552Y1830D01*
X2626Y1830D02*
X2652Y1830D01*
X2726Y1830D02*
X2752Y1830D01*
X2826Y1830D02*
X2852Y1830D01*
X1529Y1829D02*
X1550Y1829D01*
X1629Y1829D02*
X1650Y1829D01*
X1729Y1829D02*
X1750Y1829D01*
X1829Y1829D02*
X1850Y1829D01*
X1929Y1829D02*
X1950Y1829D01*
X2029Y1829D02*
X2050Y1829D01*
X2129Y1829D02*
X2150Y1829D01*
X2229Y1829D02*
X2249Y1829D01*
X2329Y1829D02*
X2349Y1829D01*
X2429Y1829D02*
X2449Y1829D01*
X2529Y1829D02*
X2549Y1829D01*
X2629Y1829D02*
X2649Y1829D01*
X2729Y1829D02*
X2749Y1829D01*
X2829Y1829D02*
X2849Y1829D01*
X1532Y1828D02*
X1546Y1828D01*
X1632Y1828D02*
X1646Y1828D01*
X1732Y1828D02*
X1746Y1828D01*
X1832Y1828D02*
X1846Y1828D01*
X1932Y1828D02*
X1946Y1828D01*
X2032Y1828D02*
X2046Y1828D01*
X2132Y1828D02*
X2146Y1828D01*
X2232Y1828D02*
X2246Y1828D01*
X2332Y1828D02*
X2346Y1828D01*
X2432Y1828D02*
X2446Y1828D01*
X2532Y1828D02*
X2546Y1828D01*
X2632Y1828D02*
X2646Y1828D01*
X2732Y1828D02*
X2746Y1828D01*
X2832Y1828D02*
X2846Y1828D01*
X2036Y1097D02*
X2043Y1097D01*
X2136Y1097D02*
X2143Y1097D01*
X2236Y1097D02*
X2242Y1097D01*
X2336Y1097D02*
X2342Y1097D01*
X2436Y1097D02*
X2442Y1097D01*
X2536Y1097D02*
X2542Y1097D01*
X2636Y1097D02*
X2642Y1097D01*
X2736Y1097D02*
X2742Y1097D01*
X2836Y1097D02*
X2842Y1097D01*
X2031Y1096D02*
X2047Y1096D01*
X2131Y1096D02*
X2147Y1096D01*
X2231Y1096D02*
X2247Y1096D01*
X2331Y1096D02*
X2347Y1096D01*
X2431Y1096D02*
X2447Y1096D01*
X2531Y1096D02*
X2547Y1096D01*
X2631Y1096D02*
X2647Y1096D01*
X2731Y1096D02*
X2747Y1096D01*
X2831Y1096D02*
X2847Y1096D01*
X2028Y1095D02*
X2050Y1095D01*
X2128Y1095D02*
X2150Y1095D01*
X2228Y1095D02*
X2250Y1095D01*
X2328Y1095D02*
X2350Y1095D01*
X2428Y1095D02*
X2450Y1095D01*
X2528Y1095D02*
X2550Y1095D01*
X2628Y1095D02*
X2650Y1095D01*
X2728Y1095D02*
X2750Y1095D01*
X2828Y1095D02*
X2850Y1095D01*
X2025Y1094D02*
X2053Y1094D01*
X2125Y1094D02*
X2153Y1094D01*
X2225Y1094D02*
X2253Y1094D01*
X2325Y1094D02*
X2353Y1094D01*
X2425Y1094D02*
X2453Y1094D01*
X2525Y1094D02*
X2553Y1094D01*
X2625Y1094D02*
X2653Y1094D01*
X2725Y1094D02*
X2753Y1094D01*
X2825Y1094D02*
X2853Y1094D01*
X2023Y1093D02*
X2055Y1093D01*
X2123Y1093D02*
X2155Y1093D01*
X2223Y1093D02*
X2255Y1093D01*
X2323Y1093D02*
X2355Y1093D01*
X2423Y1093D02*
X2455Y1093D01*
X2523Y1093D02*
X2555Y1093D01*
X2623Y1093D02*
X2655Y1093D01*
X2723Y1093D02*
X2755Y1093D01*
X2823Y1093D02*
X2855Y1093D01*
X2022Y1092D02*
X2057Y1092D01*
X2122Y1092D02*
X2157Y1092D01*
X2222Y1092D02*
X2257Y1092D01*
X2322Y1092D02*
X2357Y1092D01*
X2422Y1092D02*
X2457Y1092D01*
X2522Y1092D02*
X2557Y1092D01*
X2621Y1092D02*
X2657Y1092D01*
X2721Y1092D02*
X2757Y1092D01*
X2821Y1092D02*
X2857Y1092D01*
X2020Y1091D02*
X2058Y1091D01*
X2120Y1091D02*
X2158Y1091D01*
X2220Y1091D02*
X2258Y1091D01*
X2320Y1091D02*
X2358Y1091D01*
X2420Y1091D02*
X2458Y1091D01*
X2520Y1091D02*
X2558Y1091D01*
X2620Y1091D02*
X2658Y1091D01*
X2720Y1091D02*
X2758Y1091D01*
X2820Y1091D02*
X2858Y1091D01*
X2018Y1090D02*
X2060Y1090D01*
X2118Y1090D02*
X2160Y1090D01*
X2218Y1090D02*
X2260Y1090D01*
X2318Y1090D02*
X2360Y1090D01*
X2418Y1090D02*
X2460Y1090D01*
X2518Y1090D02*
X2560Y1090D01*
X2618Y1090D02*
X2660Y1090D01*
X2718Y1090D02*
X2760Y1090D01*
X2818Y1090D02*
X2860Y1090D01*
X2017Y1089D02*
X2061Y1089D01*
X2117Y1089D02*
X2161Y1089D01*
X2217Y1089D02*
X2261Y1089D01*
X2317Y1089D02*
X2361Y1089D01*
X2417Y1089D02*
X2461Y1089D01*
X2517Y1089D02*
X2561Y1089D01*
X2617Y1089D02*
X2661Y1089D01*
X2717Y1089D02*
X2761Y1089D01*
X2817Y1089D02*
X2861Y1089D01*
X2016Y1088D02*
X2062Y1088D01*
X2116Y1088D02*
X2162Y1088D01*
X2216Y1088D02*
X2262Y1088D01*
X2316Y1088D02*
X2362Y1088D01*
X2416Y1088D02*
X2462Y1088D01*
X2516Y1088D02*
X2562Y1088D01*
X2616Y1088D02*
X2662Y1088D01*
X2716Y1088D02*
X2762Y1088D01*
X2816Y1088D02*
X2862Y1088D01*
X2015Y1087D02*
X2063Y1087D01*
X2115Y1087D02*
X2163Y1087D01*
X2215Y1087D02*
X2263Y1087D01*
X2315Y1087D02*
X2363Y1087D01*
X2415Y1087D02*
X2463Y1087D01*
X2515Y1087D02*
X2563Y1087D01*
X2615Y1087D02*
X2663Y1087D01*
X2715Y1087D02*
X2763Y1087D01*
X2815Y1087D02*
X2863Y1087D01*
X2014Y1086D02*
X2064Y1086D01*
X2114Y1086D02*
X2164Y1086D01*
X2214Y1086D02*
X2264Y1086D01*
X2314Y1086D02*
X2364Y1086D01*
X2414Y1086D02*
X2464Y1086D01*
X2514Y1086D02*
X2564Y1086D01*
X2614Y1086D02*
X2664Y1086D01*
X2714Y1086D02*
X2764Y1086D01*
X2814Y1086D02*
X2864Y1086D01*
X2013Y1085D02*
X2065Y1085D01*
X2113Y1085D02*
X2165Y1085D01*
X2213Y1085D02*
X2265Y1085D01*
X2313Y1085D02*
X2365Y1085D01*
X2413Y1085D02*
X2465Y1085D01*
X2513Y1085D02*
X2565Y1085D01*
X2613Y1085D02*
X2665Y1085D01*
X2713Y1085D02*
X2765Y1085D01*
X2813Y1085D02*
X2865Y1085D01*
X2012Y1084D02*
X2066Y1084D01*
X2112Y1084D02*
X2166Y1084D01*
X2212Y1084D02*
X2266Y1084D01*
X2312Y1084D02*
X2366Y1084D01*
X2412Y1084D02*
X2466Y1084D01*
X2512Y1084D02*
X2566Y1084D01*
X2612Y1084D02*
X2666Y1084D01*
X2712Y1084D02*
X2766Y1084D01*
X2812Y1084D02*
X2866Y1084D01*
X2012Y1083D02*
X2067Y1083D01*
X2112Y1083D02*
X2167Y1083D01*
X2212Y1083D02*
X2267Y1083D01*
X2312Y1083D02*
X2367Y1083D01*
X2412Y1083D02*
X2467Y1083D01*
X2512Y1083D02*
X2567Y1083D01*
X2612Y1083D02*
X2667Y1083D01*
X2712Y1083D02*
X2767Y1083D01*
X2812Y1083D02*
X2867Y1083D01*
X2011Y1082D02*
X2067Y1082D01*
X2111Y1082D02*
X2167Y1082D01*
X2211Y1082D02*
X2267Y1082D01*
X2311Y1082D02*
X2367Y1082D01*
X2411Y1082D02*
X2467Y1082D01*
X2511Y1082D02*
X2567Y1082D01*
X2611Y1082D02*
X2667Y1082D01*
X2711Y1082D02*
X2767Y1082D01*
X2811Y1082D02*
X2867Y1082D01*
X2010Y1081D02*
X2068Y1081D01*
X2110Y1081D02*
X2168Y1081D01*
X2210Y1081D02*
X2268Y1081D01*
X2310Y1081D02*
X2368Y1081D01*
X2410Y1081D02*
X2468Y1081D01*
X2510Y1081D02*
X2568Y1081D01*
X2610Y1081D02*
X2668Y1081D01*
X2710Y1081D02*
X2768Y1081D01*
X2810Y1081D02*
X2868Y1081D01*
X2010Y1080D02*
X2069Y1080D01*
X2110Y1080D02*
X2169Y1080D01*
X2210Y1080D02*
X2269Y1080D01*
X2310Y1080D02*
X2369Y1080D01*
X2410Y1080D02*
X2469Y1080D01*
X2510Y1080D02*
X2569Y1080D01*
X2610Y1080D02*
X2669Y1080D01*
X2710Y1080D02*
X2769Y1080D01*
X2810Y1080D02*
X2869Y1080D01*
X2009Y1079D02*
X2069Y1079D01*
X2109Y1079D02*
X2169Y1079D01*
X2209Y1079D02*
X2269Y1079D01*
X2309Y1079D02*
X2369Y1079D01*
X2409Y1079D02*
X2469Y1079D01*
X2509Y1079D02*
X2569Y1079D01*
X2609Y1079D02*
X2669Y1079D01*
X2709Y1079D02*
X2769Y1079D01*
X2809Y1079D02*
X2869Y1079D01*
X2009Y1078D02*
X2070Y1078D01*
X2109Y1078D02*
X2170Y1078D01*
X2209Y1078D02*
X2270Y1078D01*
X2309Y1078D02*
X2370Y1078D01*
X2409Y1078D02*
X2470Y1078D01*
X2509Y1078D02*
X2570Y1078D01*
X2609Y1078D02*
X2670Y1078D01*
X2709Y1078D02*
X2770Y1078D01*
X2809Y1078D02*
X2870Y1078D01*
X2008Y1077D02*
X2035Y1077D01*
X2043Y1077D02*
X2070Y1077D01*
X2108Y1077D02*
X2135Y1077D01*
X2143Y1077D02*
X2170Y1077D01*
X2208Y1077D02*
X2235Y1077D01*
X2243Y1077D02*
X2270Y1077D01*
X2308Y1077D02*
X2335Y1077D01*
X2343Y1077D02*
X2370Y1077D01*
X2408Y1077D02*
X2435Y1077D01*
X2443Y1077D02*
X2470Y1077D01*
X2508Y1077D02*
X2535Y1077D01*
X2543Y1077D02*
X2570Y1077D01*
X2608Y1077D02*
X2635Y1077D01*
X2643Y1077D02*
X2670Y1077D01*
X2708Y1077D02*
X2735Y1077D01*
X2743Y1077D02*
X2770Y1077D01*
X2808Y1077D02*
X2835Y1077D01*
X2843Y1077D02*
X2870Y1077D01*
X2008Y1076D02*
X2032Y1076D01*
X2046Y1076D02*
X2071Y1076D01*
X2108Y1076D02*
X2132Y1076D01*
X2146Y1076D02*
X2171Y1076D01*
X2208Y1076D02*
X2232Y1076D01*
X2246Y1076D02*
X2271Y1076D01*
X2308Y1076D02*
X2332Y1076D01*
X2346Y1076D02*
X2371Y1076D01*
X2408Y1076D02*
X2432Y1076D01*
X2446Y1076D02*
X2471Y1076D01*
X2508Y1076D02*
X2532Y1076D01*
X2546Y1076D02*
X2571Y1076D01*
X2608Y1076D02*
X2632Y1076D01*
X2646Y1076D02*
X2671Y1076D01*
X2708Y1076D02*
X2732Y1076D01*
X2746Y1076D02*
X2771Y1076D01*
X2808Y1076D02*
X2832Y1076D01*
X2846Y1076D02*
X2871Y1076D01*
X2007Y1075D02*
X2031Y1075D01*
X2048Y1075D02*
X2071Y1075D01*
X2107Y1075D02*
X2131Y1075D01*
X2148Y1075D02*
X2171Y1075D01*
X2207Y1075D02*
X2231Y1075D01*
X2248Y1075D02*
X2271Y1075D01*
X2307Y1075D02*
X2331Y1075D01*
X2348Y1075D02*
X2371Y1075D01*
X2407Y1075D02*
X2431Y1075D01*
X2448Y1075D02*
X2471Y1075D01*
X2507Y1075D02*
X2531Y1075D01*
X2548Y1075D02*
X2571Y1075D01*
X2607Y1075D02*
X2631Y1075D01*
X2648Y1075D02*
X2671Y1075D01*
X2707Y1075D02*
X2731Y1075D01*
X2748Y1075D02*
X2771Y1075D01*
X2807Y1075D02*
X2831Y1075D01*
X2848Y1075D02*
X2871Y1075D01*
X2007Y1074D02*
X2029Y1074D01*
X2049Y1074D02*
X2071Y1074D01*
X2107Y1074D02*
X2129Y1074D01*
X2149Y1074D02*
X2171Y1074D01*
X2207Y1074D02*
X2229Y1074D01*
X2249Y1074D02*
X2271Y1074D01*
X2307Y1074D02*
X2329Y1074D01*
X2349Y1074D02*
X2371Y1074D01*
X2407Y1074D02*
X2429Y1074D01*
X2449Y1074D02*
X2471Y1074D01*
X2507Y1074D02*
X2529Y1074D01*
X2549Y1074D02*
X2571Y1074D01*
X2607Y1074D02*
X2629Y1074D01*
X2649Y1074D02*
X2671Y1074D01*
X2707Y1074D02*
X2729Y1074D01*
X2749Y1074D02*
X2771Y1074D01*
X2807Y1074D02*
X2829Y1074D01*
X2849Y1074D02*
X2871Y1074D01*
X2007Y1073D02*
X2028Y1073D01*
X2050Y1073D02*
X2072Y1073D01*
X2107Y1073D02*
X2128Y1073D01*
X2150Y1073D02*
X2172Y1073D01*
X2207Y1073D02*
X2228Y1073D01*
X2250Y1073D02*
X2272Y1073D01*
X2307Y1073D02*
X2328Y1073D01*
X2350Y1073D02*
X2372Y1073D01*
X2407Y1073D02*
X2428Y1073D01*
X2450Y1073D02*
X2472Y1073D01*
X2507Y1073D02*
X2528Y1073D01*
X2550Y1073D02*
X2572Y1073D01*
X2607Y1073D02*
X2628Y1073D01*
X2650Y1073D02*
X2672Y1073D01*
X2707Y1073D02*
X2728Y1073D01*
X2750Y1073D02*
X2772Y1073D01*
X2806Y1073D02*
X2828Y1073D01*
X2850Y1073D02*
X2872Y1073D01*
X2006Y1072D02*
X2027Y1072D01*
X2051Y1072D02*
X2072Y1072D01*
X2106Y1072D02*
X2127Y1072D01*
X2151Y1072D02*
X2172Y1072D01*
X2206Y1072D02*
X2227Y1072D01*
X2251Y1072D02*
X2272Y1072D01*
X2306Y1072D02*
X2327Y1072D01*
X2351Y1072D02*
X2372Y1072D01*
X2406Y1072D02*
X2427Y1072D01*
X2451Y1072D02*
X2472Y1072D01*
X2506Y1072D02*
X2527Y1072D01*
X2551Y1072D02*
X2572Y1072D01*
X2606Y1072D02*
X2627Y1072D01*
X2651Y1072D02*
X2672Y1072D01*
X2706Y1072D02*
X2727Y1072D01*
X2751Y1072D02*
X2772Y1072D01*
X2806Y1072D02*
X2827Y1072D01*
X2851Y1072D02*
X2872Y1072D01*
X2006Y1071D02*
X2026Y1071D01*
X2052Y1071D02*
X2072Y1071D01*
X2106Y1071D02*
X2126Y1071D01*
X2152Y1071D02*
X2172Y1071D01*
X2206Y1071D02*
X2226Y1071D01*
X2252Y1071D02*
X2272Y1071D01*
X2306Y1071D02*
X2326Y1071D01*
X2352Y1071D02*
X2372Y1071D01*
X2406Y1071D02*
X2426Y1071D01*
X2452Y1071D02*
X2472Y1071D01*
X2506Y1071D02*
X2526Y1071D01*
X2552Y1071D02*
X2572Y1071D01*
X2606Y1071D02*
X2626Y1071D01*
X2652Y1071D02*
X2672Y1071D01*
X2706Y1071D02*
X2726Y1071D01*
X2752Y1071D02*
X2772Y1071D01*
X2806Y1071D02*
X2826Y1071D01*
X2852Y1071D02*
X2872Y1071D01*
X2006Y1070D02*
X2026Y1070D01*
X2053Y1070D02*
X2073Y1070D01*
X2106Y1070D02*
X2126Y1070D01*
X2153Y1070D02*
X2173Y1070D01*
X2206Y1070D02*
X2226Y1070D01*
X2253Y1070D02*
X2273Y1070D01*
X2306Y1070D02*
X2326Y1070D01*
X2353Y1070D02*
X2373Y1070D01*
X2406Y1070D02*
X2426Y1070D01*
X2453Y1070D02*
X2473Y1070D01*
X2506Y1070D02*
X2526Y1070D01*
X2553Y1070D02*
X2573Y1070D01*
X2606Y1070D02*
X2626Y1070D01*
X2653Y1070D02*
X2673Y1070D01*
X2706Y1070D02*
X2726Y1070D01*
X2753Y1070D02*
X2773Y1070D01*
X2806Y1070D02*
X2826Y1070D01*
X2853Y1070D02*
X2873Y1070D01*
X2005Y1069D02*
X2025Y1069D01*
X2053Y1069D02*
X2073Y1069D01*
X2105Y1069D02*
X2125Y1069D01*
X2153Y1069D02*
X2173Y1069D01*
X2205Y1069D02*
X2225Y1069D01*
X2253Y1069D02*
X2273Y1069D01*
X2305Y1069D02*
X2325Y1069D01*
X2353Y1069D02*
X2373Y1069D01*
X2405Y1069D02*
X2425Y1069D01*
X2453Y1069D02*
X2473Y1069D01*
X2505Y1069D02*
X2525Y1069D01*
X2553Y1069D02*
X2573Y1069D01*
X2605Y1069D02*
X2625Y1069D01*
X2653Y1069D02*
X2673Y1069D01*
X2705Y1069D02*
X2725Y1069D01*
X2753Y1069D02*
X2773Y1069D01*
X2805Y1069D02*
X2825Y1069D01*
X2853Y1069D02*
X2873Y1069D01*
X2005Y1068D02*
X2025Y1068D01*
X2054Y1068D02*
X2073Y1068D01*
X2105Y1068D02*
X2125Y1068D01*
X2154Y1068D02*
X2173Y1068D01*
X2205Y1068D02*
X2225Y1068D01*
X2254Y1068D02*
X2273Y1068D01*
X2305Y1068D02*
X2325Y1068D01*
X2354Y1068D02*
X2373Y1068D01*
X2405Y1068D02*
X2425Y1068D01*
X2454Y1068D02*
X2473Y1068D01*
X2505Y1068D02*
X2525Y1068D01*
X2554Y1068D02*
X2573Y1068D01*
X2605Y1068D02*
X2625Y1068D01*
X2654Y1068D02*
X2673Y1068D01*
X2705Y1068D02*
X2725Y1068D01*
X2754Y1068D02*
X2773Y1068D01*
X2805Y1068D02*
X2825Y1068D01*
X2854Y1068D02*
X2873Y1068D01*
X2005Y1067D02*
X2024Y1067D01*
X2054Y1067D02*
X2073Y1067D01*
X2105Y1067D02*
X2124Y1067D01*
X2154Y1067D02*
X2173Y1067D01*
X2205Y1067D02*
X2224Y1067D01*
X2254Y1067D02*
X2273Y1067D01*
X2305Y1067D02*
X2324Y1067D01*
X2354Y1067D02*
X2373Y1067D01*
X2405Y1067D02*
X2424Y1067D01*
X2454Y1067D02*
X2473Y1067D01*
X2505Y1067D02*
X2524Y1067D01*
X2554Y1067D02*
X2573Y1067D01*
X2605Y1067D02*
X2624Y1067D01*
X2654Y1067D02*
X2673Y1067D01*
X2705Y1067D02*
X2724Y1067D01*
X2754Y1067D02*
X2773Y1067D01*
X2805Y1067D02*
X2824Y1067D01*
X2854Y1067D02*
X2873Y1067D01*
X2005Y1066D02*
X2024Y1066D01*
X2054Y1066D02*
X2073Y1066D01*
X2105Y1066D02*
X2124Y1066D01*
X2154Y1066D02*
X2173Y1066D01*
X2205Y1066D02*
X2224Y1066D01*
X2254Y1066D02*
X2273Y1066D01*
X2305Y1066D02*
X2324Y1066D01*
X2354Y1066D02*
X2373Y1066D01*
X2405Y1066D02*
X2424Y1066D01*
X2454Y1066D02*
X2473Y1066D01*
X2505Y1066D02*
X2524Y1066D01*
X2554Y1066D02*
X2573Y1066D01*
X2605Y1066D02*
X2624Y1066D01*
X2654Y1066D02*
X2673Y1066D01*
X2705Y1066D02*
X2724Y1066D01*
X2754Y1066D02*
X2773Y1066D01*
X2805Y1066D02*
X2824Y1066D01*
X2854Y1066D02*
X2873Y1066D01*
X2005Y1065D02*
X2024Y1065D01*
X2054Y1065D02*
X2074Y1065D01*
X2105Y1065D02*
X2124Y1065D01*
X2154Y1065D02*
X2174Y1065D01*
X2205Y1065D02*
X2224Y1065D01*
X2254Y1065D02*
X2274Y1065D01*
X2305Y1065D02*
X2324Y1065D01*
X2354Y1065D02*
X2373Y1065D01*
X2405Y1065D02*
X2424Y1065D01*
X2454Y1065D02*
X2473Y1065D01*
X2505Y1065D02*
X2524Y1065D01*
X2554Y1065D02*
X2573Y1065D01*
X2605Y1065D02*
X2624Y1065D01*
X2654Y1065D02*
X2673Y1065D01*
X2705Y1065D02*
X2724Y1065D01*
X2754Y1065D02*
X2773Y1065D01*
X2805Y1065D02*
X2824Y1065D01*
X2854Y1065D02*
X2873Y1065D01*
X2005Y1064D02*
X2024Y1064D01*
X2055Y1064D02*
X2074Y1064D01*
X2105Y1064D02*
X2124Y1064D01*
X2155Y1064D02*
X2174Y1064D01*
X2205Y1064D02*
X2224Y1064D01*
X2255Y1064D02*
X2274Y1064D01*
X2305Y1064D02*
X2324Y1064D01*
X2355Y1064D02*
X2374Y1064D01*
X2405Y1064D02*
X2424Y1064D01*
X2455Y1064D02*
X2474Y1064D01*
X2505Y1064D02*
X2524Y1064D01*
X2555Y1064D02*
X2574Y1064D01*
X2605Y1064D02*
X2624Y1064D01*
X2655Y1064D02*
X2674Y1064D01*
X2705Y1064D02*
X2724Y1064D01*
X2754Y1064D02*
X2774Y1064D01*
X2805Y1064D02*
X2824Y1064D01*
X2854Y1064D02*
X2874Y1064D01*
X2005Y1063D02*
X2024Y1063D01*
X2055Y1063D02*
X2074Y1063D01*
X2105Y1063D02*
X2124Y1063D01*
X2155Y1063D02*
X2174Y1063D01*
X2205Y1063D02*
X2224Y1063D01*
X2255Y1063D02*
X2274Y1063D01*
X2305Y1063D02*
X2324Y1063D01*
X2355Y1063D02*
X2374Y1063D01*
X2405Y1063D02*
X2424Y1063D01*
X2455Y1063D02*
X2474Y1063D01*
X2505Y1063D02*
X2524Y1063D01*
X2555Y1063D02*
X2574Y1063D01*
X2605Y1063D02*
X2624Y1063D01*
X2655Y1063D02*
X2674Y1063D01*
X2705Y1063D02*
X2724Y1063D01*
X2755Y1063D02*
X2774Y1063D01*
X2805Y1063D02*
X2824Y1063D01*
X2855Y1063D02*
X2874Y1063D01*
X2005Y1062D02*
X2024Y1062D01*
X2055Y1062D02*
X2074Y1062D01*
X2105Y1062D02*
X2124Y1062D01*
X2155Y1062D02*
X2174Y1062D01*
X2205Y1062D02*
X2224Y1062D01*
X2255Y1062D02*
X2274Y1062D01*
X2305Y1062D02*
X2324Y1062D01*
X2355Y1062D02*
X2374Y1062D01*
X2405Y1062D02*
X2424Y1062D01*
X2455Y1062D02*
X2474Y1062D01*
X2505Y1062D02*
X2524Y1062D01*
X2555Y1062D02*
X2574Y1062D01*
X2605Y1062D02*
X2624Y1062D01*
X2655Y1062D02*
X2674Y1062D01*
X2705Y1062D02*
X2724Y1062D01*
X2755Y1062D02*
X2774Y1062D01*
X2805Y1062D02*
X2824Y1062D01*
X2855Y1062D02*
X2874Y1062D01*
X2005Y1061D02*
X2024Y1061D01*
X2055Y1061D02*
X2074Y1061D01*
X2105Y1061D02*
X2124Y1061D01*
X2155Y1061D02*
X2174Y1061D01*
X2205Y1061D02*
X2224Y1061D01*
X2255Y1061D02*
X2274Y1061D01*
X2305Y1061D02*
X2324Y1061D01*
X2355Y1061D02*
X2374Y1061D01*
X2405Y1061D02*
X2424Y1061D01*
X2455Y1061D02*
X2474Y1061D01*
X2505Y1061D02*
X2524Y1061D01*
X2555Y1061D02*
X2574Y1061D01*
X2605Y1061D02*
X2624Y1061D01*
X2655Y1061D02*
X2674Y1061D01*
X2705Y1061D02*
X2724Y1061D01*
X2755Y1061D02*
X2774Y1061D01*
X2805Y1061D02*
X2824Y1061D01*
X2855Y1061D02*
X2874Y1061D01*
X2005Y1060D02*
X2024Y1060D01*
X2055Y1060D02*
X2074Y1060D01*
X2105Y1060D02*
X2124Y1060D01*
X2155Y1060D02*
X2174Y1060D01*
X2205Y1060D02*
X2224Y1060D01*
X2255Y1060D02*
X2274Y1060D01*
X2305Y1060D02*
X2324Y1060D01*
X2354Y1060D02*
X2374Y1060D01*
X2405Y1060D02*
X2424Y1060D01*
X2454Y1060D02*
X2474Y1060D01*
X2505Y1060D02*
X2524Y1060D01*
X2554Y1060D02*
X2574Y1060D01*
X2605Y1060D02*
X2624Y1060D01*
X2654Y1060D02*
X2674Y1060D01*
X2705Y1060D02*
X2724Y1060D01*
X2754Y1060D02*
X2773Y1060D01*
X2805Y1060D02*
X2824Y1060D01*
X2854Y1060D02*
X2873Y1060D01*
X2005Y1059D02*
X2024Y1059D01*
X2054Y1059D02*
X2073Y1059D01*
X2105Y1059D02*
X2124Y1059D01*
X2154Y1059D02*
X2173Y1059D01*
X2205Y1059D02*
X2224Y1059D01*
X2254Y1059D02*
X2273Y1059D01*
X2305Y1059D02*
X2324Y1059D01*
X2354Y1059D02*
X2373Y1059D01*
X2405Y1059D02*
X2424Y1059D01*
X2454Y1059D02*
X2473Y1059D01*
X2505Y1059D02*
X2524Y1059D01*
X2554Y1059D02*
X2573Y1059D01*
X2605Y1059D02*
X2624Y1059D01*
X2654Y1059D02*
X2673Y1059D01*
X2705Y1059D02*
X2724Y1059D01*
X2754Y1059D02*
X2773Y1059D01*
X2805Y1059D02*
X2824Y1059D01*
X2854Y1059D02*
X2873Y1059D01*
X2005Y1058D02*
X2024Y1058D01*
X2054Y1058D02*
X2073Y1058D01*
X2105Y1058D02*
X2124Y1058D01*
X2154Y1058D02*
X2173Y1058D01*
X2205Y1058D02*
X2224Y1058D01*
X2254Y1058D02*
X2273Y1058D01*
X2305Y1058D02*
X2324Y1058D01*
X2354Y1058D02*
X2373Y1058D01*
X2405Y1058D02*
X2424Y1058D01*
X2454Y1058D02*
X2473Y1058D01*
X2505Y1058D02*
X2524Y1058D01*
X2554Y1058D02*
X2573Y1058D01*
X2605Y1058D02*
X2624Y1058D01*
X2654Y1058D02*
X2673Y1058D01*
X2705Y1058D02*
X2724Y1058D01*
X2754Y1058D02*
X2773Y1058D01*
X2805Y1058D02*
X2824Y1058D01*
X2854Y1058D02*
X2873Y1058D01*
X2005Y1057D02*
X2025Y1057D01*
X2054Y1057D02*
X2073Y1057D01*
X2105Y1057D02*
X2125Y1057D01*
X2154Y1057D02*
X2173Y1057D01*
X2205Y1057D02*
X2224Y1057D01*
X2254Y1057D02*
X2273Y1057D01*
X2305Y1057D02*
X2324Y1057D01*
X2354Y1057D02*
X2373Y1057D01*
X2405Y1057D02*
X2424Y1057D01*
X2454Y1057D02*
X2473Y1057D01*
X2505Y1057D02*
X2524Y1057D01*
X2554Y1057D02*
X2573Y1057D01*
X2605Y1057D02*
X2624Y1057D01*
X2654Y1057D02*
X2673Y1057D01*
X2705Y1057D02*
X2724Y1057D01*
X2754Y1057D02*
X2773Y1057D01*
X2805Y1057D02*
X2824Y1057D01*
X2854Y1057D02*
X2873Y1057D01*
X2005Y1056D02*
X2025Y1056D01*
X2053Y1056D02*
X2073Y1056D01*
X2105Y1056D02*
X2125Y1056D01*
X2153Y1056D02*
X2173Y1056D01*
X2205Y1056D02*
X2225Y1056D01*
X2253Y1056D02*
X2273Y1056D01*
X2305Y1056D02*
X2325Y1056D01*
X2353Y1056D02*
X2373Y1056D01*
X2405Y1056D02*
X2425Y1056D01*
X2453Y1056D02*
X2473Y1056D01*
X2505Y1056D02*
X2525Y1056D01*
X2553Y1056D02*
X2573Y1056D01*
X2605Y1056D02*
X2625Y1056D01*
X2653Y1056D02*
X2673Y1056D01*
X2705Y1056D02*
X2725Y1056D01*
X2753Y1056D02*
X2773Y1056D01*
X2805Y1056D02*
X2825Y1056D01*
X2853Y1056D02*
X2873Y1056D01*
X2006Y1055D02*
X2025Y1055D01*
X2053Y1055D02*
X2073Y1055D01*
X2106Y1055D02*
X2125Y1055D01*
X2153Y1055D02*
X2173Y1055D01*
X2206Y1055D02*
X2225Y1055D01*
X2253Y1055D02*
X2273Y1055D01*
X2306Y1055D02*
X2325Y1055D01*
X2353Y1055D02*
X2373Y1055D01*
X2406Y1055D02*
X2425Y1055D01*
X2453Y1055D02*
X2473Y1055D01*
X2506Y1055D02*
X2525Y1055D01*
X2553Y1055D02*
X2573Y1055D01*
X2606Y1055D02*
X2625Y1055D01*
X2653Y1055D02*
X2673Y1055D01*
X2706Y1055D02*
X2725Y1055D01*
X2753Y1055D02*
X2773Y1055D01*
X2806Y1055D02*
X2825Y1055D01*
X2853Y1055D02*
X2873Y1055D01*
X2006Y1054D02*
X2026Y1054D01*
X2052Y1054D02*
X2073Y1054D01*
X2106Y1054D02*
X2126Y1054D01*
X2152Y1054D02*
X2173Y1054D01*
X2206Y1054D02*
X2226Y1054D01*
X2252Y1054D02*
X2273Y1054D01*
X2306Y1054D02*
X2326Y1054D01*
X2352Y1054D02*
X2372Y1054D01*
X2406Y1054D02*
X2426Y1054D01*
X2452Y1054D02*
X2472Y1054D01*
X2506Y1054D02*
X2526Y1054D01*
X2552Y1054D02*
X2572Y1054D01*
X2606Y1054D02*
X2626Y1054D01*
X2652Y1054D02*
X2672Y1054D01*
X2706Y1054D02*
X2726Y1054D01*
X2752Y1054D02*
X2772Y1054D01*
X2806Y1054D02*
X2826Y1054D01*
X2852Y1054D02*
X2872Y1054D01*
X2006Y1053D02*
X2027Y1053D01*
X2051Y1053D02*
X2072Y1053D01*
X2106Y1053D02*
X2127Y1053D01*
X2151Y1053D02*
X2172Y1053D01*
X2206Y1053D02*
X2227Y1053D01*
X2251Y1053D02*
X2272Y1053D01*
X2306Y1053D02*
X2327Y1053D01*
X2351Y1053D02*
X2372Y1053D01*
X2406Y1053D02*
X2427Y1053D01*
X2451Y1053D02*
X2472Y1053D01*
X2506Y1053D02*
X2527Y1053D01*
X2551Y1053D02*
X2572Y1053D01*
X2606Y1053D02*
X2627Y1053D01*
X2651Y1053D02*
X2672Y1053D01*
X2706Y1053D02*
X2727Y1053D01*
X2751Y1053D02*
X2772Y1053D01*
X2806Y1053D02*
X2827Y1053D01*
X2851Y1053D02*
X2872Y1053D01*
X2006Y1052D02*
X2028Y1052D01*
X2051Y1052D02*
X2072Y1052D01*
X2106Y1052D02*
X2128Y1052D01*
X2151Y1052D02*
X2172Y1052D01*
X2206Y1052D02*
X2228Y1052D01*
X2251Y1052D02*
X2272Y1052D01*
X2306Y1052D02*
X2328Y1052D01*
X2351Y1052D02*
X2372Y1052D01*
X2406Y1052D02*
X2428Y1052D01*
X2451Y1052D02*
X2472Y1052D01*
X2506Y1052D02*
X2528Y1052D01*
X2551Y1052D02*
X2572Y1052D01*
X2606Y1052D02*
X2628Y1052D01*
X2651Y1052D02*
X2672Y1052D01*
X2706Y1052D02*
X2728Y1052D01*
X2751Y1052D02*
X2772Y1052D01*
X2806Y1052D02*
X2828Y1052D01*
X2850Y1052D02*
X2872Y1052D01*
X2007Y1051D02*
X2029Y1051D01*
X2050Y1051D02*
X2072Y1051D01*
X2107Y1051D02*
X2129Y1051D01*
X2150Y1051D02*
X2172Y1051D01*
X2207Y1051D02*
X2229Y1051D01*
X2250Y1051D02*
X2272Y1051D01*
X2307Y1051D02*
X2329Y1051D01*
X2349Y1051D02*
X2372Y1051D01*
X2407Y1051D02*
X2429Y1051D01*
X2449Y1051D02*
X2472Y1051D01*
X2507Y1051D02*
X2529Y1051D01*
X2549Y1051D02*
X2572Y1051D01*
X2607Y1051D02*
X2629Y1051D01*
X2649Y1051D02*
X2672Y1051D01*
X2707Y1051D02*
X2729Y1051D01*
X2749Y1051D02*
X2772Y1051D01*
X2807Y1051D02*
X2829Y1051D01*
X2849Y1051D02*
X2872Y1051D01*
X2007Y1050D02*
X2030Y1050D01*
X2048Y1050D02*
X2071Y1050D01*
X2107Y1050D02*
X2130Y1050D01*
X2148Y1050D02*
X2171Y1050D01*
X2207Y1050D02*
X2230Y1050D01*
X2248Y1050D02*
X2271Y1050D01*
X2307Y1050D02*
X2330Y1050D01*
X2348Y1050D02*
X2371Y1050D01*
X2407Y1050D02*
X2430Y1050D01*
X2448Y1050D02*
X2471Y1050D01*
X2507Y1050D02*
X2530Y1050D01*
X2548Y1050D02*
X2571Y1050D01*
X2607Y1050D02*
X2630Y1050D01*
X2648Y1050D02*
X2671Y1050D01*
X2707Y1050D02*
X2730Y1050D01*
X2748Y1050D02*
X2771Y1050D01*
X2807Y1050D02*
X2830Y1050D01*
X2848Y1050D02*
X2871Y1050D01*
X2008Y1049D02*
X2032Y1049D01*
X2047Y1049D02*
X2071Y1049D01*
X2108Y1049D02*
X2132Y1049D01*
X2147Y1049D02*
X2171Y1049D01*
X2208Y1049D02*
X2232Y1049D01*
X2247Y1049D02*
X2271Y1049D01*
X2307Y1049D02*
X2332Y1049D01*
X2347Y1049D02*
X2371Y1049D01*
X2407Y1049D02*
X2431Y1049D01*
X2447Y1049D02*
X2471Y1049D01*
X2507Y1049D02*
X2531Y1049D01*
X2547Y1049D02*
X2571Y1049D01*
X2607Y1049D02*
X2631Y1049D01*
X2647Y1049D02*
X2671Y1049D01*
X2707Y1049D02*
X2731Y1049D01*
X2747Y1049D02*
X2771Y1049D01*
X2807Y1049D02*
X2831Y1049D01*
X2847Y1049D02*
X2871Y1049D01*
X2008Y1048D02*
X2034Y1048D01*
X2045Y1048D02*
X2070Y1048D01*
X2108Y1048D02*
X2134Y1048D01*
X2145Y1048D02*
X2170Y1048D01*
X2208Y1048D02*
X2234Y1048D01*
X2245Y1048D02*
X2270Y1048D01*
X2308Y1048D02*
X2334Y1048D01*
X2345Y1048D02*
X2370Y1048D01*
X2408Y1048D02*
X2434Y1048D01*
X2445Y1048D02*
X2470Y1048D01*
X2508Y1048D02*
X2534Y1048D01*
X2545Y1048D02*
X2570Y1048D01*
X2608Y1048D02*
X2634Y1048D01*
X2645Y1048D02*
X2670Y1048D01*
X2708Y1048D02*
X2734Y1048D01*
X2745Y1048D02*
X2770Y1048D01*
X2808Y1048D02*
X2834Y1048D01*
X2845Y1048D02*
X2870Y1048D01*
X2008Y1047D02*
X2070Y1047D01*
X2108Y1047D02*
X2170Y1047D01*
X2208Y1047D02*
X2270Y1047D01*
X2308Y1047D02*
X2370Y1047D01*
X2408Y1047D02*
X2470Y1047D01*
X2508Y1047D02*
X2570Y1047D01*
X2608Y1047D02*
X2670Y1047D01*
X2708Y1047D02*
X2770Y1047D01*
X2808Y1047D02*
X2870Y1047D01*
X2009Y1046D02*
X2069Y1046D01*
X2109Y1046D02*
X2169Y1046D01*
X2209Y1046D02*
X2269Y1046D01*
X2309Y1046D02*
X2369Y1046D01*
X2409Y1046D02*
X2469Y1046D01*
X2509Y1046D02*
X2569Y1046D01*
X2609Y1046D02*
X2669Y1046D01*
X2709Y1046D02*
X2769Y1046D01*
X2809Y1046D02*
X2869Y1046D01*
X2009Y1045D02*
X2069Y1045D01*
X2109Y1045D02*
X2169Y1045D01*
X2209Y1045D02*
X2269Y1045D01*
X2309Y1045D02*
X2369Y1045D01*
X2409Y1045D02*
X2469Y1045D01*
X2509Y1045D02*
X2569Y1045D01*
X2609Y1045D02*
X2669Y1045D01*
X2709Y1045D02*
X2769Y1045D01*
X2809Y1045D02*
X2869Y1045D01*
X2010Y1044D02*
X2068Y1044D01*
X2110Y1044D02*
X2168Y1044D01*
X2210Y1044D02*
X2268Y1044D01*
X2310Y1044D02*
X2368Y1044D01*
X2410Y1044D02*
X2468Y1044D01*
X2510Y1044D02*
X2568Y1044D01*
X2610Y1044D02*
X2668Y1044D01*
X2710Y1044D02*
X2768Y1044D01*
X2810Y1044D02*
X2868Y1044D01*
X2011Y1043D02*
X2068Y1043D01*
X2111Y1043D02*
X2168Y1043D01*
X2211Y1043D02*
X2268Y1043D01*
X2311Y1043D02*
X2368Y1043D01*
X2411Y1043D02*
X2468Y1043D01*
X2511Y1043D02*
X2568Y1043D01*
X2611Y1043D02*
X2668Y1043D01*
X2711Y1043D02*
X2768Y1043D01*
X2811Y1043D02*
X2868Y1043D01*
X2011Y1042D02*
X2067Y1042D01*
X2111Y1042D02*
X2167Y1042D01*
X2211Y1042D02*
X2267Y1042D01*
X2311Y1042D02*
X2367Y1042D01*
X2411Y1042D02*
X2467Y1042D01*
X2511Y1042D02*
X2567Y1042D01*
X2611Y1042D02*
X2667Y1042D01*
X2711Y1042D02*
X2767Y1042D01*
X2811Y1042D02*
X2867Y1042D01*
X2012Y1041D02*
X2066Y1041D01*
X2112Y1041D02*
X2166Y1041D01*
X2212Y1041D02*
X2266Y1041D01*
X2312Y1041D02*
X2366Y1041D01*
X2412Y1041D02*
X2466Y1041D01*
X2512Y1041D02*
X2566Y1041D01*
X2612Y1041D02*
X2666Y1041D01*
X2712Y1041D02*
X2766Y1041D01*
X2812Y1041D02*
X2866Y1041D01*
X2013Y1040D02*
X2066Y1040D01*
X2113Y1040D02*
X2166Y1040D01*
X2213Y1040D02*
X2266Y1040D01*
X2313Y1040D02*
X2366Y1040D01*
X2413Y1040D02*
X2466Y1040D01*
X2513Y1040D02*
X2566Y1040D01*
X2613Y1040D02*
X2666Y1040D01*
X2713Y1040D02*
X2766Y1040D01*
X2813Y1040D02*
X2866Y1040D01*
X2014Y1039D02*
X2065Y1039D01*
X2114Y1039D02*
X2165Y1039D01*
X2214Y1039D02*
X2265Y1039D01*
X2314Y1039D02*
X2365Y1039D01*
X2414Y1039D02*
X2465Y1039D01*
X2514Y1039D02*
X2565Y1039D01*
X2614Y1039D02*
X2665Y1039D01*
X2714Y1039D02*
X2765Y1039D01*
X2814Y1039D02*
X2865Y1039D01*
X2015Y1038D02*
X2064Y1038D01*
X2115Y1038D02*
X2164Y1038D01*
X2215Y1038D02*
X2264Y1038D01*
X2315Y1038D02*
X2364Y1038D01*
X2414Y1038D02*
X2464Y1038D01*
X2514Y1038D02*
X2564Y1038D01*
X2614Y1038D02*
X2664Y1038D01*
X2714Y1038D02*
X2764Y1038D01*
X2814Y1038D02*
X2864Y1038D01*
X2016Y1037D02*
X2063Y1037D01*
X2116Y1037D02*
X2163Y1037D01*
X2216Y1037D02*
X2263Y1037D01*
X2316Y1037D02*
X2363Y1037D01*
X2416Y1037D02*
X2463Y1037D01*
X2515Y1037D02*
X2563Y1037D01*
X2615Y1037D02*
X2663Y1037D01*
X2715Y1037D02*
X2763Y1037D01*
X2815Y1037D02*
X2863Y1037D01*
X2017Y1036D02*
X2062Y1036D01*
X2117Y1036D02*
X2162Y1036D01*
X2217Y1036D02*
X2262Y1036D01*
X2317Y1036D02*
X2362Y1036D01*
X2417Y1036D02*
X2462Y1036D01*
X2517Y1036D02*
X2562Y1036D01*
X2617Y1036D02*
X2662Y1036D01*
X2717Y1036D02*
X2762Y1036D01*
X2817Y1036D02*
X2862Y1036D01*
X2018Y1035D02*
X2060Y1035D01*
X2118Y1035D02*
X2160Y1035D01*
X2218Y1035D02*
X2260Y1035D01*
X2318Y1035D02*
X2360Y1035D01*
X2418Y1035D02*
X2460Y1035D01*
X2518Y1035D02*
X2560Y1035D01*
X2618Y1035D02*
X2660Y1035D01*
X2718Y1035D02*
X2760Y1035D01*
X2818Y1035D02*
X2860Y1035D01*
X2019Y1034D02*
X2059Y1034D01*
X2119Y1034D02*
X2159Y1034D01*
X2219Y1034D02*
X2259Y1034D01*
X2319Y1034D02*
X2359Y1034D01*
X2419Y1034D02*
X2459Y1034D01*
X2519Y1034D02*
X2559Y1034D01*
X2619Y1034D02*
X2659Y1034D01*
X2719Y1034D02*
X2759Y1034D01*
X2819Y1034D02*
X2859Y1034D01*
X2021Y1033D02*
X2058Y1033D01*
X2121Y1033D02*
X2158Y1033D01*
X2221Y1033D02*
X2258Y1033D01*
X2321Y1033D02*
X2358Y1033D01*
X2421Y1033D02*
X2458Y1033D01*
X2521Y1033D02*
X2558Y1033D01*
X2621Y1033D02*
X2658Y1033D01*
X2721Y1033D02*
X2758Y1033D01*
X2821Y1033D02*
X2858Y1033D01*
X2022Y1032D02*
X2056Y1032D01*
X2122Y1032D02*
X2156Y1032D01*
X2222Y1032D02*
X2256Y1032D01*
X2322Y1032D02*
X2356Y1032D01*
X2422Y1032D02*
X2456Y1032D01*
X2522Y1032D02*
X2556Y1032D01*
X2622Y1032D02*
X2656Y1032D01*
X2722Y1032D02*
X2756Y1032D01*
X2822Y1032D02*
X2856Y1032D01*
X2024Y1031D02*
X2054Y1031D01*
X2124Y1031D02*
X2154Y1031D01*
X2224Y1031D02*
X2254Y1031D01*
X2324Y1031D02*
X2354Y1031D01*
X2424Y1031D02*
X2454Y1031D01*
X2524Y1031D02*
X2554Y1031D01*
X2624Y1031D02*
X2654Y1031D01*
X2724Y1031D02*
X2754Y1031D01*
X2824Y1031D02*
X2854Y1031D01*
X2027Y1030D02*
X2052Y1030D01*
X2127Y1030D02*
X2152Y1030D01*
X2227Y1030D02*
X2252Y1030D01*
X2327Y1030D02*
X2352Y1030D01*
X2427Y1030D02*
X2452Y1030D01*
X2527Y1030D02*
X2552Y1030D01*
X2627Y1030D02*
X2652Y1030D01*
X2727Y1030D02*
X2752Y1030D01*
X2827Y1030D02*
X2852Y1030D01*
X2029Y1029D02*
X2049Y1029D01*
X2129Y1029D02*
X2149Y1029D01*
X2229Y1029D02*
X2249Y1029D01*
X2329Y1029D02*
X2349Y1029D01*
X2429Y1029D02*
X2449Y1029D01*
X2529Y1029D02*
X2549Y1029D01*
X2629Y1029D02*
X2649Y1029D01*
X2729Y1029D02*
X2749Y1029D01*
X2829Y1029D02*
X2849Y1029D01*
X2033Y1028D02*
X2045Y1028D01*
X2133Y1028D02*
X2145Y1028D01*
X2233Y1028D02*
X2245Y1028D01*
X2333Y1028D02*
X2345Y1028D01*
X2433Y1028D02*
X2445Y1028D01*
X2533Y1028D02*
X2545Y1028D01*
X2633Y1028D02*
X2645Y1028D01*
X2733Y1028D02*
X2745Y1028D01*
X2833Y1028D02*
X2845Y1028D01*
X2035Y797D02*
X2043Y797D01*
X2135Y797D02*
X2143Y797D01*
X2235Y797D02*
X2243Y797D01*
X2335Y797D02*
X2343Y797D01*
X2435Y797D02*
X2443Y797D01*
X2535Y797D02*
X2543Y797D01*
X2635Y797D02*
X2643Y797D01*
X2735Y797D02*
X2743Y797D01*
X2835Y797D02*
X2843Y797D01*
X2031Y796D02*
X2048Y796D01*
X2131Y796D02*
X2148Y796D01*
X2231Y796D02*
X2248Y796D01*
X2331Y796D02*
X2348Y796D01*
X2431Y796D02*
X2448Y796D01*
X2531Y796D02*
X2548Y796D01*
X2631Y796D02*
X2648Y796D01*
X2731Y796D02*
X2748Y796D01*
X2831Y796D02*
X2848Y796D01*
X2028Y795D02*
X2051Y795D01*
X2128Y795D02*
X2151Y795D01*
X2228Y795D02*
X2251Y795D01*
X2328Y795D02*
X2351Y795D01*
X2428Y795D02*
X2451Y795D01*
X2528Y795D02*
X2551Y795D01*
X2628Y795D02*
X2651Y795D01*
X2728Y795D02*
X2751Y795D01*
X2828Y795D02*
X2851Y795D01*
X2025Y794D02*
X2053Y794D01*
X2125Y794D02*
X2153Y794D01*
X2225Y794D02*
X2253Y794D01*
X2325Y794D02*
X2353Y794D01*
X2425Y794D02*
X2453Y794D01*
X2525Y794D02*
X2553Y794D01*
X2625Y794D02*
X2653Y794D01*
X2725Y794D02*
X2753Y794D01*
X2825Y794D02*
X2853Y794D01*
X2023Y793D02*
X2055Y793D01*
X2123Y793D02*
X2155Y793D01*
X2223Y793D02*
X2255Y793D01*
X2323Y793D02*
X2355Y793D01*
X2423Y793D02*
X2455Y793D01*
X2523Y793D02*
X2555Y793D01*
X2623Y793D02*
X2655Y793D01*
X2723Y793D02*
X2755Y793D01*
X2823Y793D02*
X2855Y793D01*
X2021Y792D02*
X2057Y792D01*
X2121Y792D02*
X2157Y792D01*
X2221Y792D02*
X2257Y792D01*
X2321Y792D02*
X2357Y792D01*
X2421Y792D02*
X2457Y792D01*
X2521Y792D02*
X2557Y792D01*
X2621Y792D02*
X2657Y792D01*
X2721Y792D02*
X2757Y792D01*
X2821Y792D02*
X2857Y792D01*
X2020Y791D02*
X2059Y791D01*
X2120Y791D02*
X2159Y791D01*
X2220Y791D02*
X2259Y791D01*
X2320Y791D02*
X2359Y791D01*
X2420Y791D02*
X2459Y791D01*
X2520Y791D02*
X2559Y791D01*
X2620Y791D02*
X2659Y791D01*
X2720Y791D02*
X2759Y791D01*
X2820Y791D02*
X2859Y791D01*
X2018Y790D02*
X2060Y790D01*
X2118Y790D02*
X2160Y790D01*
X2218Y790D02*
X2260Y790D01*
X2318Y790D02*
X2360Y790D01*
X2418Y790D02*
X2460Y790D01*
X2518Y790D02*
X2560Y790D01*
X2618Y790D02*
X2660Y790D01*
X2718Y790D02*
X2760Y790D01*
X2818Y790D02*
X2860Y790D01*
X2017Y789D02*
X2061Y789D01*
X2117Y789D02*
X2161Y789D01*
X2217Y789D02*
X2261Y789D01*
X2317Y789D02*
X2361Y789D01*
X2417Y789D02*
X2461Y789D01*
X2517Y789D02*
X2561Y789D01*
X2617Y789D02*
X2661Y789D01*
X2717Y789D02*
X2761Y789D01*
X2817Y789D02*
X2861Y789D01*
X2016Y788D02*
X2062Y788D01*
X2116Y788D02*
X2162Y788D01*
X2216Y788D02*
X2262Y788D01*
X2316Y788D02*
X2362Y788D01*
X2416Y788D02*
X2462Y788D01*
X2516Y788D02*
X2562Y788D01*
X2616Y788D02*
X2662Y788D01*
X2716Y788D02*
X2762Y788D01*
X2816Y788D02*
X2862Y788D01*
X2015Y787D02*
X2064Y787D01*
X2115Y787D02*
X2164Y787D01*
X2215Y787D02*
X2263Y787D01*
X2315Y787D02*
X2363Y787D01*
X2415Y787D02*
X2463Y787D01*
X2515Y787D02*
X2563Y787D01*
X2615Y787D02*
X2663Y787D01*
X2715Y787D02*
X2763Y787D01*
X2815Y787D02*
X2863Y787D01*
X2014Y786D02*
X2064Y786D01*
X2114Y786D02*
X2164Y786D01*
X2214Y786D02*
X2264Y786D01*
X2314Y786D02*
X2364Y786D01*
X2414Y786D02*
X2464Y786D01*
X2514Y786D02*
X2564Y786D01*
X2614Y786D02*
X2664Y786D01*
X2714Y786D02*
X2764Y786D01*
X2814Y786D02*
X2864Y786D01*
X2013Y785D02*
X2065Y785D01*
X2113Y785D02*
X2165Y785D01*
X2213Y785D02*
X2265Y785D01*
X2313Y785D02*
X2365Y785D01*
X2413Y785D02*
X2465Y785D01*
X2513Y785D02*
X2565Y785D01*
X2613Y785D02*
X2665Y785D01*
X2713Y785D02*
X2765Y785D01*
X2813Y785D02*
X2865Y785D01*
X2012Y784D02*
X2066Y784D01*
X2112Y784D02*
X2166Y784D01*
X2212Y784D02*
X2266Y784D01*
X2312Y784D02*
X2366Y784D01*
X2412Y784D02*
X2466Y784D01*
X2512Y784D02*
X2566Y784D01*
X2612Y784D02*
X2666Y784D01*
X2712Y784D02*
X2766Y784D01*
X2812Y784D02*
X2866Y784D01*
X2012Y783D02*
X2067Y783D01*
X2112Y783D02*
X2167Y783D01*
X2212Y783D02*
X2267Y783D01*
X2312Y783D02*
X2367Y783D01*
X2412Y783D02*
X2467Y783D01*
X2512Y783D02*
X2567Y783D01*
X2612Y783D02*
X2667Y783D01*
X2712Y783D02*
X2767Y783D01*
X2812Y783D02*
X2867Y783D01*
X2011Y782D02*
X2068Y782D01*
X2111Y782D02*
X2167Y782D01*
X2211Y782D02*
X2267Y782D01*
X2311Y782D02*
X2367Y782D01*
X2411Y782D02*
X2467Y782D01*
X2511Y782D02*
X2567Y782D01*
X2611Y782D02*
X2667Y782D01*
X2711Y782D02*
X2767Y782D01*
X2811Y782D02*
X2867Y782D01*
X2010Y781D02*
X2068Y781D01*
X2110Y781D02*
X2168Y781D01*
X2210Y781D02*
X2268Y781D01*
X2310Y781D02*
X2368Y781D01*
X2410Y781D02*
X2468Y781D01*
X2510Y781D02*
X2568Y781D01*
X2610Y781D02*
X2668Y781D01*
X2710Y781D02*
X2768Y781D01*
X2810Y781D02*
X2868Y781D01*
X2010Y780D02*
X2069Y780D01*
X2110Y780D02*
X2169Y780D01*
X2210Y780D02*
X2269Y780D01*
X2310Y780D02*
X2369Y780D01*
X2410Y780D02*
X2469Y780D01*
X2510Y780D02*
X2569Y780D01*
X2610Y780D02*
X2669Y780D01*
X2710Y780D02*
X2769Y780D01*
X2810Y780D02*
X2869Y780D01*
X2009Y779D02*
X2069Y779D01*
X2109Y779D02*
X2169Y779D01*
X2209Y779D02*
X2269Y779D01*
X2309Y779D02*
X2369Y779D01*
X2409Y779D02*
X2469Y779D01*
X2509Y779D02*
X2569Y779D01*
X2609Y779D02*
X2669Y779D01*
X2709Y779D02*
X2769Y779D01*
X2809Y779D02*
X2869Y779D01*
X2009Y778D02*
X2070Y778D01*
X2109Y778D02*
X2170Y778D01*
X2209Y778D02*
X2270Y778D01*
X2309Y778D02*
X2370Y778D01*
X2409Y778D02*
X2470Y778D01*
X2509Y778D02*
X2570Y778D01*
X2609Y778D02*
X2670Y778D01*
X2709Y778D02*
X2770Y778D01*
X2809Y778D02*
X2870Y778D01*
X2008Y777D02*
X2035Y777D01*
X2043Y777D02*
X2070Y777D01*
X2108Y777D02*
X2135Y777D01*
X2143Y777D02*
X2170Y777D01*
X2208Y777D02*
X2235Y777D01*
X2243Y777D02*
X2270Y777D01*
X2308Y777D02*
X2335Y777D01*
X2343Y777D02*
X2370Y777D01*
X2408Y777D02*
X2435Y777D01*
X2443Y777D02*
X2470Y777D01*
X2508Y777D02*
X2535Y777D01*
X2543Y777D02*
X2570Y777D01*
X2608Y777D02*
X2635Y777D01*
X2643Y777D02*
X2670Y777D01*
X2708Y777D02*
X2735Y777D01*
X2743Y777D02*
X2770Y777D01*
X2808Y777D02*
X2835Y777D01*
X2843Y777D02*
X2870Y777D01*
X2008Y776D02*
X2032Y776D01*
X2046Y776D02*
X2071Y776D01*
X2108Y776D02*
X2132Y776D01*
X2146Y776D02*
X2171Y776D01*
X2208Y776D02*
X2232Y776D01*
X2246Y776D02*
X2271Y776D01*
X2308Y776D02*
X2332Y776D01*
X2346Y776D02*
X2371Y776D01*
X2408Y776D02*
X2432Y776D01*
X2446Y776D02*
X2471Y776D01*
X2508Y776D02*
X2532Y776D01*
X2546Y776D02*
X2571Y776D01*
X2608Y776D02*
X2632Y776D01*
X2646Y776D02*
X2671Y776D01*
X2708Y776D02*
X2732Y776D01*
X2746Y776D02*
X2771Y776D01*
X2808Y776D02*
X2832Y776D01*
X2846Y776D02*
X2871Y776D01*
X2007Y775D02*
X2030Y775D01*
X2048Y775D02*
X2071Y775D01*
X2107Y775D02*
X2130Y775D01*
X2148Y775D02*
X2171Y775D01*
X2207Y775D02*
X2230Y775D01*
X2248Y775D02*
X2271Y775D01*
X2307Y775D02*
X2330Y775D01*
X2348Y775D02*
X2371Y775D01*
X2407Y775D02*
X2430Y775D01*
X2448Y775D02*
X2471Y775D01*
X2507Y775D02*
X2530Y775D01*
X2548Y775D02*
X2571Y775D01*
X2607Y775D02*
X2630Y775D01*
X2648Y775D02*
X2671Y775D01*
X2707Y775D02*
X2730Y775D01*
X2748Y775D02*
X2771Y775D01*
X2807Y775D02*
X2830Y775D01*
X2848Y775D02*
X2871Y775D01*
X2007Y774D02*
X2029Y774D01*
X2049Y774D02*
X2071Y774D01*
X2107Y774D02*
X2129Y774D01*
X2149Y774D02*
X2171Y774D01*
X2207Y774D02*
X2229Y774D01*
X2249Y774D02*
X2271Y774D01*
X2307Y774D02*
X2329Y774D01*
X2349Y774D02*
X2371Y774D01*
X2407Y774D02*
X2429Y774D01*
X2449Y774D02*
X2471Y774D01*
X2507Y774D02*
X2529Y774D01*
X2549Y774D02*
X2571Y774D01*
X2607Y774D02*
X2629Y774D01*
X2649Y774D02*
X2671Y774D01*
X2707Y774D02*
X2729Y774D01*
X2749Y774D02*
X2771Y774D01*
X2807Y774D02*
X2829Y774D01*
X2849Y774D02*
X2871Y774D01*
X2007Y773D02*
X2028Y773D01*
X2050Y773D02*
X2072Y773D01*
X2107Y773D02*
X2128Y773D01*
X2150Y773D02*
X2172Y773D01*
X2207Y773D02*
X2228Y773D01*
X2250Y773D02*
X2272Y773D01*
X2307Y773D02*
X2328Y773D01*
X2350Y773D02*
X2372Y773D01*
X2406Y773D02*
X2428Y773D01*
X2450Y773D02*
X2472Y773D01*
X2506Y773D02*
X2528Y773D01*
X2550Y773D02*
X2572Y773D01*
X2606Y773D02*
X2628Y773D01*
X2650Y773D02*
X2672Y773D01*
X2706Y773D02*
X2728Y773D01*
X2750Y773D02*
X2772Y773D01*
X2806Y773D02*
X2828Y773D01*
X2850Y773D02*
X2872Y773D01*
X2006Y772D02*
X2027Y772D01*
X2051Y772D02*
X2072Y772D01*
X2106Y772D02*
X2127Y772D01*
X2151Y772D02*
X2172Y772D01*
X2206Y772D02*
X2227Y772D01*
X2251Y772D02*
X2272Y772D01*
X2306Y772D02*
X2327Y772D01*
X2351Y772D02*
X2372Y772D01*
X2406Y772D02*
X2427Y772D01*
X2451Y772D02*
X2472Y772D01*
X2506Y772D02*
X2527Y772D01*
X2551Y772D02*
X2572Y772D01*
X2606Y772D02*
X2627Y772D01*
X2651Y772D02*
X2672Y772D01*
X2706Y772D02*
X2727Y772D01*
X2751Y772D02*
X2772Y772D01*
X2806Y772D02*
X2827Y772D01*
X2851Y772D02*
X2872Y772D01*
X2006Y771D02*
X2026Y771D01*
X2052Y771D02*
X2072Y771D01*
X2106Y771D02*
X2126Y771D01*
X2152Y771D02*
X2172Y771D01*
X2206Y771D02*
X2226Y771D01*
X2252Y771D02*
X2272Y771D01*
X2306Y771D02*
X2326Y771D01*
X2352Y771D02*
X2372Y771D01*
X2406Y771D02*
X2426Y771D01*
X2452Y771D02*
X2472Y771D01*
X2506Y771D02*
X2526Y771D01*
X2552Y771D02*
X2572Y771D01*
X2606Y771D02*
X2626Y771D01*
X2652Y771D02*
X2672Y771D01*
X2706Y771D02*
X2726Y771D01*
X2752Y771D02*
X2772Y771D01*
X2806Y771D02*
X2826Y771D01*
X2852Y771D02*
X2872Y771D01*
X2006Y770D02*
X2026Y770D01*
X2053Y770D02*
X2073Y770D01*
X2106Y770D02*
X2126Y770D01*
X2153Y770D02*
X2173Y770D01*
X2206Y770D02*
X2226Y770D01*
X2253Y770D02*
X2273Y770D01*
X2306Y770D02*
X2326Y770D01*
X2353Y770D02*
X2373Y770D01*
X2406Y770D02*
X2426Y770D01*
X2453Y770D02*
X2473Y770D01*
X2506Y770D02*
X2526Y770D01*
X2553Y770D02*
X2573Y770D01*
X2606Y770D02*
X2626Y770D01*
X2653Y770D02*
X2673Y770D01*
X2706Y770D02*
X2726Y770D01*
X2753Y770D02*
X2773Y770D01*
X2806Y770D02*
X2826Y770D01*
X2853Y770D02*
X2873Y770D01*
X2005Y769D02*
X2025Y769D01*
X2053Y769D02*
X2073Y769D01*
X2105Y769D02*
X2125Y769D01*
X2153Y769D02*
X2173Y769D01*
X2205Y769D02*
X2225Y769D01*
X2253Y769D02*
X2273Y769D01*
X2305Y769D02*
X2325Y769D01*
X2353Y769D02*
X2373Y769D01*
X2405Y769D02*
X2425Y769D01*
X2453Y769D02*
X2473Y769D01*
X2505Y769D02*
X2525Y769D01*
X2553Y769D02*
X2573Y769D01*
X2605Y769D02*
X2625Y769D01*
X2653Y769D02*
X2673Y769D01*
X2705Y769D02*
X2725Y769D01*
X2753Y769D02*
X2773Y769D01*
X2805Y769D02*
X2825Y769D01*
X2853Y769D02*
X2873Y769D01*
X2005Y768D02*
X2025Y768D01*
X2054Y768D02*
X2073Y768D01*
X2105Y768D02*
X2125Y768D01*
X2154Y768D02*
X2173Y768D01*
X2205Y768D02*
X2225Y768D01*
X2254Y768D02*
X2273Y768D01*
X2305Y768D02*
X2325Y768D01*
X2354Y768D02*
X2373Y768D01*
X2405Y768D02*
X2425Y768D01*
X2454Y768D02*
X2473Y768D01*
X2505Y768D02*
X2525Y768D01*
X2554Y768D02*
X2573Y768D01*
X2605Y768D02*
X2625Y768D01*
X2654Y768D02*
X2673Y768D01*
X2705Y768D02*
X2725Y768D01*
X2754Y768D02*
X2773Y768D01*
X2805Y768D02*
X2825Y768D01*
X2854Y768D02*
X2873Y768D01*
X2005Y767D02*
X2024Y767D01*
X2054Y767D02*
X2073Y767D01*
X2105Y767D02*
X2124Y767D01*
X2154Y767D02*
X2173Y767D01*
X2205Y767D02*
X2224Y767D01*
X2254Y767D02*
X2273Y767D01*
X2305Y767D02*
X2324Y767D01*
X2354Y767D02*
X2373Y767D01*
X2405Y767D02*
X2424Y767D01*
X2454Y767D02*
X2473Y767D01*
X2505Y767D02*
X2524Y767D01*
X2554Y767D02*
X2573Y767D01*
X2605Y767D02*
X2624Y767D01*
X2654Y767D02*
X2673Y767D01*
X2705Y767D02*
X2724Y767D01*
X2754Y767D02*
X2773Y767D01*
X2805Y767D02*
X2824Y767D01*
X2854Y767D02*
X2873Y767D01*
X2005Y766D02*
X2024Y766D01*
X2054Y766D02*
X2073Y766D01*
X2105Y766D02*
X2124Y766D01*
X2154Y766D02*
X2173Y766D01*
X2205Y766D02*
X2224Y766D01*
X2254Y766D02*
X2273Y766D01*
X2305Y766D02*
X2324Y766D01*
X2354Y766D02*
X2373Y766D01*
X2405Y766D02*
X2424Y766D01*
X2454Y766D02*
X2473Y766D01*
X2505Y766D02*
X2524Y766D01*
X2554Y766D02*
X2573Y766D01*
X2605Y766D02*
X2624Y766D01*
X2654Y766D02*
X2673Y766D01*
X2705Y766D02*
X2724Y766D01*
X2754Y766D02*
X2773Y766D01*
X2805Y766D02*
X2824Y766D01*
X2854Y766D02*
X2873Y766D01*
X2005Y765D02*
X2024Y765D01*
X2054Y765D02*
X2074Y765D01*
X2105Y765D02*
X2124Y765D01*
X2154Y765D02*
X2174Y765D01*
X2205Y765D02*
X2224Y765D01*
X2254Y765D02*
X2274Y765D01*
X2305Y765D02*
X2324Y765D01*
X2354Y765D02*
X2374Y765D01*
X2405Y765D02*
X2424Y765D01*
X2454Y765D02*
X2474Y765D01*
X2505Y765D02*
X2524Y765D01*
X2554Y765D02*
X2573Y765D01*
X2605Y765D02*
X2624Y765D01*
X2654Y765D02*
X2673Y765D01*
X2705Y765D02*
X2724Y765D01*
X2754Y765D02*
X2773Y765D01*
X2805Y765D02*
X2824Y765D01*
X2854Y765D02*
X2873Y765D01*
X2005Y764D02*
X2024Y764D01*
X2055Y764D02*
X2074Y764D01*
X2105Y764D02*
X2124Y764D01*
X2155Y764D02*
X2174Y764D01*
X2205Y764D02*
X2224Y764D01*
X2255Y764D02*
X2274Y764D01*
X2305Y764D02*
X2324Y764D01*
X2355Y764D02*
X2374Y764D01*
X2405Y764D02*
X2424Y764D01*
X2455Y764D02*
X2474Y764D01*
X2505Y764D02*
X2524Y764D01*
X2555Y764D02*
X2574Y764D01*
X2605Y764D02*
X2624Y764D01*
X2655Y764D02*
X2674Y764D01*
X2705Y764D02*
X2724Y764D01*
X2754Y764D02*
X2774Y764D01*
X2805Y764D02*
X2824Y764D01*
X2854Y764D02*
X2874Y764D01*
X2005Y763D02*
X2024Y763D01*
X2055Y763D02*
X2074Y763D01*
X2105Y763D02*
X2124Y763D01*
X2155Y763D02*
X2174Y763D01*
X2205Y763D02*
X2224Y763D01*
X2255Y763D02*
X2274Y763D01*
X2305Y763D02*
X2324Y763D01*
X2355Y763D02*
X2374Y763D01*
X2405Y763D02*
X2424Y763D01*
X2455Y763D02*
X2474Y763D01*
X2505Y763D02*
X2524Y763D01*
X2555Y763D02*
X2574Y763D01*
X2605Y763D02*
X2624Y763D01*
X2655Y763D02*
X2674Y763D01*
X2705Y763D02*
X2724Y763D01*
X2755Y763D02*
X2774Y763D01*
X2805Y763D02*
X2824Y763D01*
X2855Y763D02*
X2874Y763D01*
X2005Y762D02*
X2024Y762D01*
X2055Y762D02*
X2074Y762D01*
X2105Y762D02*
X2124Y762D01*
X2155Y762D02*
X2174Y762D01*
X2205Y762D02*
X2224Y762D01*
X2255Y762D02*
X2274Y762D01*
X2305Y762D02*
X2324Y762D01*
X2355Y762D02*
X2374Y762D01*
X2405Y762D02*
X2424Y762D01*
X2455Y762D02*
X2474Y762D01*
X2505Y762D02*
X2524Y762D01*
X2555Y762D02*
X2574Y762D01*
X2605Y762D02*
X2624Y762D01*
X2655Y762D02*
X2674Y762D01*
X2705Y762D02*
X2724Y762D01*
X2755Y762D02*
X2774Y762D01*
X2805Y762D02*
X2824Y762D01*
X2855Y762D02*
X2874Y762D01*
X2005Y761D02*
X2024Y761D01*
X2055Y761D02*
X2074Y761D01*
X2105Y761D02*
X2124Y761D01*
X2155Y761D02*
X2174Y761D01*
X2205Y761D02*
X2224Y761D01*
X2255Y761D02*
X2274Y761D01*
X2305Y761D02*
X2324Y761D01*
X2355Y761D02*
X2374Y761D01*
X2405Y761D02*
X2424Y761D01*
X2455Y761D02*
X2474Y761D01*
X2505Y761D02*
X2524Y761D01*
X2555Y761D02*
X2574Y761D01*
X2605Y761D02*
X2624Y761D01*
X2655Y761D02*
X2674Y761D01*
X2705Y761D02*
X2724Y761D01*
X2755Y761D02*
X2774Y761D01*
X2805Y761D02*
X2824Y761D01*
X2855Y761D02*
X2874Y761D01*
X2005Y760D02*
X2024Y760D01*
X2055Y760D02*
X2074Y760D01*
X2105Y760D02*
X2124Y760D01*
X2155Y760D02*
X2174Y760D01*
X2205Y760D02*
X2224Y760D01*
X2254Y760D02*
X2274Y760D01*
X2305Y760D02*
X2324Y760D01*
X2354Y760D02*
X2374Y760D01*
X2405Y760D02*
X2424Y760D01*
X2454Y760D02*
X2474Y760D01*
X2505Y760D02*
X2524Y760D01*
X2554Y760D02*
X2574Y760D01*
X2605Y760D02*
X2624Y760D01*
X2654Y760D02*
X2674Y760D01*
X2705Y760D02*
X2724Y760D01*
X2754Y760D02*
X2773Y760D01*
X2805Y760D02*
X2824Y760D01*
X2854Y760D02*
X2873Y760D01*
X2005Y759D02*
X2024Y759D01*
X2054Y759D02*
X2073Y759D01*
X2105Y759D02*
X2124Y759D01*
X2154Y759D02*
X2173Y759D01*
X2205Y759D02*
X2224Y759D01*
X2254Y759D02*
X2273Y759D01*
X2305Y759D02*
X2324Y759D01*
X2354Y759D02*
X2373Y759D01*
X2405Y759D02*
X2424Y759D01*
X2454Y759D02*
X2473Y759D01*
X2505Y759D02*
X2524Y759D01*
X2554Y759D02*
X2573Y759D01*
X2605Y759D02*
X2624Y759D01*
X2654Y759D02*
X2673Y759D01*
X2705Y759D02*
X2724Y759D01*
X2754Y759D02*
X2773Y759D01*
X2805Y759D02*
X2824Y759D01*
X2854Y759D02*
X2873Y759D01*
X2005Y758D02*
X2024Y758D01*
X2054Y758D02*
X2073Y758D01*
X2105Y758D02*
X2124Y758D01*
X2154Y758D02*
X2173Y758D01*
X2205Y758D02*
X2224Y758D01*
X2254Y758D02*
X2273Y758D01*
X2305Y758D02*
X2324Y758D01*
X2354Y758D02*
X2373Y758D01*
X2405Y758D02*
X2424Y758D01*
X2454Y758D02*
X2473Y758D01*
X2505Y758D02*
X2524Y758D01*
X2554Y758D02*
X2573Y758D01*
X2605Y758D02*
X2624Y758D01*
X2654Y758D02*
X2673Y758D01*
X2705Y758D02*
X2724Y758D01*
X2754Y758D02*
X2773Y758D01*
X2805Y758D02*
X2824Y758D01*
X2854Y758D02*
X2873Y758D01*
X2005Y757D02*
X2025Y757D01*
X2054Y757D02*
X2073Y757D01*
X2105Y757D02*
X2125Y757D01*
X2154Y757D02*
X2173Y757D01*
X2205Y757D02*
X2225Y757D01*
X2254Y757D02*
X2273Y757D01*
X2305Y757D02*
X2325Y757D01*
X2354Y757D02*
X2373Y757D01*
X2405Y757D02*
X2424Y757D01*
X2454Y757D02*
X2473Y757D01*
X2505Y757D02*
X2524Y757D01*
X2554Y757D02*
X2573Y757D01*
X2605Y757D02*
X2624Y757D01*
X2654Y757D02*
X2673Y757D01*
X2705Y757D02*
X2724Y757D01*
X2754Y757D02*
X2773Y757D01*
X2805Y757D02*
X2824Y757D01*
X2854Y757D02*
X2873Y757D01*
X2005Y756D02*
X2025Y756D01*
X2053Y756D02*
X2073Y756D01*
X2105Y756D02*
X2125Y756D01*
X2153Y756D02*
X2173Y756D01*
X2205Y756D02*
X2225Y756D01*
X2253Y756D02*
X2273Y756D01*
X2305Y756D02*
X2325Y756D01*
X2353Y756D02*
X2373Y756D01*
X2405Y756D02*
X2425Y756D01*
X2453Y756D02*
X2473Y756D01*
X2505Y756D02*
X2525Y756D01*
X2553Y756D02*
X2573Y756D01*
X2605Y756D02*
X2625Y756D01*
X2653Y756D02*
X2673Y756D01*
X2705Y756D02*
X2725Y756D01*
X2753Y756D02*
X2773Y756D01*
X2805Y756D02*
X2825Y756D01*
X2853Y756D02*
X2873Y756D01*
X2006Y755D02*
X2026Y755D01*
X2053Y755D02*
X2073Y755D01*
X2106Y755D02*
X2126Y755D01*
X2153Y755D02*
X2173Y755D01*
X2206Y755D02*
X2226Y755D01*
X2253Y755D02*
X2273Y755D01*
X2306Y755D02*
X2325Y755D01*
X2353Y755D02*
X2373Y755D01*
X2406Y755D02*
X2425Y755D01*
X2453Y755D02*
X2473Y755D01*
X2506Y755D02*
X2525Y755D01*
X2553Y755D02*
X2573Y755D01*
X2606Y755D02*
X2625Y755D01*
X2653Y755D02*
X2673Y755D01*
X2706Y755D02*
X2725Y755D01*
X2753Y755D02*
X2773Y755D01*
X2806Y755D02*
X2825Y755D01*
X2853Y755D02*
X2873Y755D01*
X2006Y754D02*
X2026Y754D01*
X2052Y754D02*
X2073Y754D01*
X2106Y754D02*
X2126Y754D01*
X2152Y754D02*
X2172Y754D01*
X2206Y754D02*
X2226Y754D01*
X2252Y754D02*
X2272Y754D01*
X2306Y754D02*
X2326Y754D01*
X2352Y754D02*
X2372Y754D01*
X2406Y754D02*
X2426Y754D01*
X2452Y754D02*
X2472Y754D01*
X2506Y754D02*
X2526Y754D01*
X2552Y754D02*
X2572Y754D01*
X2606Y754D02*
X2626Y754D01*
X2652Y754D02*
X2672Y754D01*
X2706Y754D02*
X2726Y754D01*
X2752Y754D02*
X2772Y754D01*
X2806Y754D02*
X2826Y754D01*
X2852Y754D02*
X2872Y754D01*
X2006Y753D02*
X2027Y753D01*
X2051Y753D02*
X2072Y753D01*
X2106Y753D02*
X2127Y753D01*
X2151Y753D02*
X2172Y753D01*
X2206Y753D02*
X2227Y753D01*
X2251Y753D02*
X2272Y753D01*
X2306Y753D02*
X2327Y753D01*
X2351Y753D02*
X2372Y753D01*
X2406Y753D02*
X2427Y753D01*
X2451Y753D02*
X2472Y753D01*
X2506Y753D02*
X2527Y753D01*
X2551Y753D02*
X2572Y753D01*
X2606Y753D02*
X2627Y753D01*
X2651Y753D02*
X2672Y753D01*
X2706Y753D02*
X2727Y753D01*
X2751Y753D02*
X2772Y753D01*
X2806Y753D02*
X2827Y753D01*
X2851Y753D02*
X2872Y753D01*
X2006Y752D02*
X2028Y752D01*
X2051Y752D02*
X2072Y752D01*
X2106Y752D02*
X2128Y752D01*
X2150Y752D02*
X2172Y752D01*
X2206Y752D02*
X2228Y752D01*
X2250Y752D02*
X2272Y752D01*
X2306Y752D02*
X2328Y752D01*
X2350Y752D02*
X2372Y752D01*
X2406Y752D02*
X2428Y752D01*
X2450Y752D02*
X2472Y752D01*
X2506Y752D02*
X2528Y752D01*
X2550Y752D02*
X2572Y752D01*
X2606Y752D02*
X2628Y752D01*
X2650Y752D02*
X2672Y752D01*
X2706Y752D02*
X2728Y752D01*
X2750Y752D02*
X2772Y752D01*
X2806Y752D02*
X2828Y752D01*
X2850Y752D02*
X2872Y752D01*
X2007Y751D02*
X2029Y751D01*
X2049Y751D02*
X2072Y751D01*
X2107Y751D02*
X2129Y751D01*
X2149Y751D02*
X2172Y751D01*
X2207Y751D02*
X2229Y751D01*
X2249Y751D02*
X2272Y751D01*
X2307Y751D02*
X2329Y751D01*
X2349Y751D02*
X2372Y751D01*
X2407Y751D02*
X2429Y751D01*
X2449Y751D02*
X2472Y751D01*
X2507Y751D02*
X2529Y751D01*
X2549Y751D02*
X2572Y751D01*
X2607Y751D02*
X2629Y751D01*
X2649Y751D02*
X2672Y751D01*
X2707Y751D02*
X2729Y751D01*
X2749Y751D02*
X2772Y751D01*
X2807Y751D02*
X2829Y751D01*
X2849Y751D02*
X2872Y751D01*
X2007Y750D02*
X2030Y750D01*
X2048Y750D02*
X2071Y750D01*
X2107Y750D02*
X2130Y750D01*
X2148Y750D02*
X2171Y750D01*
X2207Y750D02*
X2230Y750D01*
X2248Y750D02*
X2271Y750D01*
X2307Y750D02*
X2330Y750D01*
X2348Y750D02*
X2371Y750D01*
X2407Y750D02*
X2430Y750D01*
X2448Y750D02*
X2471Y750D01*
X2507Y750D02*
X2530Y750D01*
X2548Y750D02*
X2571Y750D01*
X2607Y750D02*
X2630Y750D01*
X2648Y750D02*
X2671Y750D01*
X2707Y750D02*
X2730Y750D01*
X2748Y750D02*
X2771Y750D01*
X2807Y750D02*
X2830Y750D01*
X2848Y750D02*
X2871Y750D01*
X2008Y749D02*
X2032Y749D01*
X2047Y749D02*
X2071Y749D01*
X2108Y749D02*
X2132Y749D01*
X2147Y749D02*
X2171Y749D01*
X2208Y749D02*
X2232Y749D01*
X2247Y749D02*
X2271Y749D01*
X2308Y749D02*
X2332Y749D01*
X2347Y749D02*
X2371Y749D01*
X2408Y749D02*
X2432Y749D01*
X2447Y749D02*
X2471Y749D01*
X2508Y749D02*
X2532Y749D01*
X2547Y749D02*
X2571Y749D01*
X2607Y749D02*
X2632Y749D01*
X2647Y749D02*
X2671Y749D01*
X2707Y749D02*
X2732Y749D01*
X2747Y749D02*
X2771Y749D01*
X2807Y749D02*
X2832Y749D01*
X2847Y749D02*
X2871Y749D01*
X2008Y748D02*
X2034Y748D01*
X2044Y748D02*
X2070Y748D01*
X2108Y748D02*
X2134Y748D01*
X2144Y748D02*
X2170Y748D01*
X2208Y748D02*
X2234Y748D01*
X2244Y748D02*
X2270Y748D01*
X2308Y748D02*
X2334Y748D01*
X2344Y748D02*
X2370Y748D01*
X2408Y748D02*
X2434Y748D01*
X2444Y748D02*
X2470Y748D01*
X2508Y748D02*
X2534Y748D01*
X2544Y748D02*
X2570Y748D01*
X2608Y748D02*
X2634Y748D01*
X2644Y748D02*
X2670Y748D01*
X2708Y748D02*
X2734Y748D01*
X2744Y748D02*
X2770Y748D01*
X2808Y748D02*
X2834Y748D01*
X2844Y748D02*
X2870Y748D01*
X2008Y747D02*
X2070Y747D01*
X2108Y747D02*
X2170Y747D01*
X2208Y747D02*
X2270Y747D01*
X2308Y747D02*
X2370Y747D01*
X2408Y747D02*
X2470Y747D01*
X2508Y747D02*
X2570Y747D01*
X2608Y747D02*
X2670Y747D01*
X2708Y747D02*
X2770Y747D01*
X2808Y747D02*
X2870Y747D01*
X2009Y746D02*
X2069Y746D01*
X2109Y746D02*
X2169Y746D01*
X2209Y746D02*
X2269Y746D01*
X2309Y746D02*
X2369Y746D01*
X2409Y746D02*
X2469Y746D01*
X2509Y746D02*
X2569Y746D01*
X2609Y746D02*
X2669Y746D01*
X2709Y746D02*
X2769Y746D01*
X2809Y746D02*
X2869Y746D01*
X2009Y745D02*
X2069Y745D01*
X2109Y745D02*
X2169Y745D01*
X2209Y745D02*
X2269Y745D01*
X2309Y745D02*
X2369Y745D01*
X2409Y745D02*
X2469Y745D01*
X2509Y745D02*
X2569Y745D01*
X2609Y745D02*
X2669Y745D01*
X2709Y745D02*
X2769Y745D01*
X2809Y745D02*
X2869Y745D01*
X2010Y744D02*
X2068Y744D01*
X2110Y744D02*
X2168Y744D01*
X2210Y744D02*
X2268Y744D01*
X2310Y744D02*
X2368Y744D01*
X2410Y744D02*
X2468Y744D01*
X2510Y744D02*
X2568Y744D01*
X2610Y744D02*
X2668Y744D01*
X2710Y744D02*
X2768Y744D01*
X2810Y744D02*
X2868Y744D01*
X2011Y743D02*
X2068Y743D01*
X2111Y743D02*
X2168Y743D01*
X2211Y743D02*
X2268Y743D01*
X2311Y743D02*
X2368Y743D01*
X2411Y743D02*
X2468Y743D01*
X2511Y743D02*
X2568Y743D01*
X2611Y743D02*
X2668Y743D01*
X2711Y743D02*
X2768Y743D01*
X2811Y743D02*
X2868Y743D01*
X2011Y742D02*
X2067Y742D01*
X2111Y742D02*
X2167Y742D01*
X2211Y742D02*
X2267Y742D01*
X2311Y742D02*
X2367Y742D01*
X2411Y742D02*
X2467Y742D01*
X2511Y742D02*
X2567Y742D01*
X2611Y742D02*
X2667Y742D01*
X2711Y742D02*
X2767Y742D01*
X2811Y742D02*
X2867Y742D01*
X2012Y741D02*
X2066Y741D01*
X2112Y741D02*
X2166Y741D01*
X2212Y741D02*
X2266Y741D01*
X2312Y741D02*
X2366Y741D01*
X2412Y741D02*
X2466Y741D01*
X2512Y741D02*
X2566Y741D01*
X2612Y741D02*
X2666Y741D01*
X2712Y741D02*
X2766Y741D01*
X2812Y741D02*
X2866Y741D01*
X2013Y740D02*
X2066Y740D01*
X2113Y740D02*
X2166Y740D01*
X2213Y740D02*
X2266Y740D01*
X2313Y740D02*
X2366Y740D01*
X2413Y740D02*
X2466Y740D01*
X2513Y740D02*
X2566Y740D01*
X2613Y740D02*
X2666Y740D01*
X2713Y740D02*
X2765Y740D01*
X2813Y740D02*
X2865Y740D01*
X2014Y739D02*
X2065Y739D01*
X2114Y739D02*
X2165Y739D01*
X2214Y739D02*
X2265Y739D01*
X2314Y739D02*
X2365Y739D01*
X2414Y739D02*
X2465Y739D01*
X2514Y739D02*
X2565Y739D01*
X2614Y739D02*
X2665Y739D01*
X2714Y739D02*
X2765Y739D01*
X2814Y739D02*
X2865Y739D01*
X2015Y738D02*
X2064Y738D01*
X2115Y738D02*
X2164Y738D01*
X2215Y738D02*
X2264Y738D01*
X2315Y738D02*
X2364Y738D01*
X2415Y738D02*
X2464Y738D01*
X2515Y738D02*
X2564Y738D01*
X2615Y738D02*
X2664Y738D01*
X2715Y738D02*
X2764Y738D01*
X2815Y738D02*
X2864Y738D01*
X2016Y737D02*
X2063Y737D01*
X2116Y737D02*
X2163Y737D01*
X2216Y737D02*
X2263Y737D01*
X2316Y737D02*
X2363Y737D01*
X2416Y737D02*
X2463Y737D01*
X2516Y737D02*
X2563Y737D01*
X2616Y737D02*
X2663Y737D01*
X2716Y737D02*
X2763Y737D01*
X2816Y737D02*
X2863Y737D01*
X2017Y736D02*
X2062Y736D01*
X2117Y736D02*
X2162Y736D01*
X2217Y736D02*
X2262Y736D01*
X2317Y736D02*
X2362Y736D01*
X2417Y736D02*
X2462Y736D01*
X2517Y736D02*
X2562Y736D01*
X2617Y736D02*
X2662Y736D01*
X2717Y736D02*
X2762Y736D01*
X2817Y736D02*
X2862Y736D01*
X2018Y735D02*
X2060Y735D01*
X2118Y735D02*
X2160Y735D01*
X2218Y735D02*
X2260Y735D01*
X2318Y735D02*
X2360Y735D01*
X2418Y735D02*
X2460Y735D01*
X2518Y735D02*
X2560Y735D01*
X2618Y735D02*
X2660Y735D01*
X2718Y735D02*
X2760Y735D01*
X2818Y735D02*
X2860Y735D01*
X2019Y734D02*
X2059Y734D01*
X2119Y734D02*
X2159Y734D01*
X2219Y734D02*
X2259Y734D01*
X2319Y734D02*
X2359Y734D01*
X2419Y734D02*
X2459Y734D01*
X2519Y734D02*
X2559Y734D01*
X2619Y734D02*
X2659Y734D01*
X2719Y734D02*
X2759Y734D01*
X2819Y734D02*
X2859Y734D01*
X2021Y733D02*
X2057Y733D01*
X2121Y733D02*
X2157Y733D01*
X2221Y733D02*
X2257Y733D01*
X2321Y733D02*
X2357Y733D01*
X2421Y733D02*
X2457Y733D01*
X2521Y733D02*
X2557Y733D01*
X2621Y733D02*
X2657Y733D01*
X2721Y733D02*
X2757Y733D01*
X2821Y733D02*
X2857Y733D01*
X2023Y732D02*
X2056Y732D01*
X2123Y732D02*
X2156Y732D01*
X2223Y732D02*
X2256Y732D01*
X2323Y732D02*
X2356Y732D01*
X2423Y732D02*
X2456Y732D01*
X2523Y732D02*
X2556Y732D01*
X2623Y732D02*
X2656Y732D01*
X2723Y732D02*
X2756Y732D01*
X2823Y732D02*
X2856Y732D01*
X2025Y731D02*
X2054Y731D01*
X2125Y731D02*
X2154Y731D01*
X2225Y731D02*
X2254Y731D01*
X2325Y731D02*
X2354Y731D01*
X2425Y731D02*
X2454Y731D01*
X2525Y731D02*
X2554Y731D01*
X2625Y731D02*
X2654Y731D01*
X2725Y731D02*
X2754Y731D01*
X2825Y731D02*
X2854Y731D01*
X2027Y730D02*
X2051Y730D01*
X2127Y730D02*
X2151Y730D01*
X2227Y730D02*
X2251Y730D01*
X2327Y730D02*
X2351Y730D01*
X2427Y730D02*
X2451Y730D01*
X2527Y730D02*
X2551Y730D01*
X2627Y730D02*
X2651Y730D01*
X2727Y730D02*
X2751Y730D01*
X2827Y730D02*
X2851Y730D01*
X2030Y729D02*
X2049Y729D01*
X2130Y729D02*
X2149Y729D01*
X2230Y729D02*
X2249Y729D01*
X2330Y729D02*
X2349Y729D01*
X2430Y729D02*
X2449Y729D01*
X2530Y729D02*
X2549Y729D01*
X2630Y729D02*
X2649Y729D01*
X2730Y729D02*
X2749Y729D01*
X2830Y729D02*
X2849Y729D01*
X2034Y728D02*
X2045Y728D01*
X2134Y728D02*
X2145Y728D01*
X2234Y728D02*
X2245Y728D01*
X2334Y728D02*
X2345Y728D01*
X2434Y728D02*
X2445Y728D01*
X2534Y728D02*
X2545Y728D01*
X2634Y728D02*
X2645Y728D01*
X2734Y728D02*
X2745Y728D01*
X2834Y728D02*
X2845Y728D01*
D02*
G04 End of Copper0*
M02*