G04 Layer: TopSolderMaskLayer*
G04 EasyEDA v6.5.8, 2022-08-15 07:29:34*
G04 028e3914a6f949ed9ca799ef75e4ed4f,10*
G04 Gerber Generator version 0.2*
G04 Scale: 100 percent, Rotated: No, Reflected: No *
G04 Dimensions in millimeters *
G04 leading zeros omitted , absolute positions ,4 integer and 5 decimal *
%FSLAX45Y45*%
%MOMM*%

%ADD10C,1.7016*%
%ADD11C,2.2032*%
%ADD12C,1.5016*%
%ADD13C,1.3970*%
%ADD14C,2.1336*%
%ADD15C,1.8796*%
%ADD16C,2.0828*%
%ADD17C,2.0032*%
%ADD18C,1.7272*%
%ADD19C,1.8032*%
%ADD20C,1.9812*%
%ADD21C,0.0125*%

%LPD*%
D10*
X7048500Y5816600D02*
G01*
X7048500Y5816600D01*
X6794500Y5816600D02*
G01*
X6794500Y5816600D01*
X6540500Y5816600D02*
G01*
X6540500Y5816600D01*
X6286500Y5816600D02*
G01*
X6286500Y5816600D01*
X6032500Y5816600D02*
G01*
X6032500Y5816600D01*
X5778500Y5816600D02*
G01*
X5778500Y5816600D01*
X5524500Y5816600D02*
G01*
X5524500Y5816600D01*
X5524500Y6578600D02*
G01*
X5524500Y6578600D01*
X7302500Y5816600D02*
G01*
X7302500Y5816600D01*
X7556500Y5816600D02*
G01*
X7556500Y5816600D01*
X5778500Y6578600D02*
G01*
X5778500Y6578600D01*
X6032500Y6578600D02*
G01*
X6032500Y6578600D01*
X6286500Y6578600D02*
G01*
X6286500Y6578600D01*
X6540500Y6578600D02*
G01*
X6540500Y6578600D01*
X6794500Y6578600D02*
G01*
X6794500Y6578600D01*
X7048500Y6578600D02*
G01*
X7048500Y6578600D01*
X7302500Y6578600D02*
G01*
X7302500Y6578600D01*
X5270500Y6578600D02*
G01*
X5270500Y6578600D01*
X5016500Y6578600D02*
G01*
X5016500Y6578600D01*
X4762500Y6578600D02*
G01*
X4762500Y6578600D01*
X4508500Y6578600D02*
G01*
X4508500Y6578600D01*
X4254500Y6578600D02*
G01*
X4254500Y6578600D01*
X4254500Y5816600D02*
G01*
X4254500Y5816600D01*
X4508500Y5816600D02*
G01*
X4508500Y5816600D01*
X4762500Y5816600D02*
G01*
X4762500Y5816600D01*
X5016500Y5816600D02*
G01*
X5016500Y5816600D01*
X5270500Y5816600D02*
G01*
X5270500Y5816600D01*
D11*
X5918200Y9309498D02*
G01*
X5918200Y9359498D01*
X6172200Y9309498D02*
G01*
X6172200Y9359498D01*
D12*
X5854700Y8443600D02*
G01*
X5854700Y8523599D01*
X5651500Y8443600D02*
G01*
X5651500Y8523599D01*
D13*
G01*
X8864600Y3048000D03*
G01*
X9118600Y3048000D03*
G01*
X8864600Y6223000D03*
G01*
X9118600Y6223000D03*
G01*
X5270500Y6972300D03*
G01*
X5524500Y6972300D03*
G36*
X1003300Y3930319D02*
G01*
X1001776Y3930573D01*
X1000252Y3931335D01*
X999236Y3932351D01*
X998473Y3933875D01*
X998220Y3935399D01*
X998220Y4138599D01*
X998473Y4140123D01*
X999236Y4141647D01*
X1000252Y4142663D01*
X1001776Y4143425D01*
X1003300Y4143679D01*
X1003300Y4143755D01*
X1206500Y4143755D01*
X1206500Y4143679D01*
X1208023Y4143425D01*
X1209547Y4142663D01*
X1210563Y4141647D01*
X1211326Y4140123D01*
X1211579Y4138599D01*
X1211579Y3935399D01*
X1211326Y3933875D01*
X1210563Y3932351D01*
X1209547Y3931335D01*
X1208023Y3930573D01*
X1206500Y3930319D01*
X1206500Y3930395D01*
X1003300Y3930395D01*
G37*
D14*
G01*
X1104900Y3686987D03*
G36*
X1003300Y6559219D02*
G01*
X1001776Y6559473D01*
X1000252Y6560235D01*
X999236Y6561251D01*
X998473Y6562775D01*
X998220Y6564299D01*
X998220Y6767499D01*
X998473Y6769023D01*
X999236Y6770547D01*
X1000252Y6771563D01*
X1001776Y6772325D01*
X1003300Y6772579D01*
X1003300Y6772655D01*
X1206500Y6772655D01*
X1206500Y6772579D01*
X1208023Y6772325D01*
X1209547Y6771563D01*
X1210563Y6770547D01*
X1211326Y6769023D01*
X1211579Y6767499D01*
X1211579Y6564299D01*
X1211326Y6562775D01*
X1210563Y6561251D01*
X1209547Y6560235D01*
X1208023Y6559473D01*
X1206500Y6559219D01*
X1206500Y6559295D01*
X1003300Y6559295D01*
G37*
G01*
X1104900Y6315887D03*
G36*
X1003300Y8400719D02*
G01*
X1001776Y8400973D01*
X1000252Y8401735D01*
X999236Y8402751D01*
X998473Y8404275D01*
X998220Y8405799D01*
X998220Y8608999D01*
X998473Y8610523D01*
X999236Y8612047D01*
X1000252Y8613063D01*
X1001776Y8613825D01*
X1003300Y8614079D01*
X1003300Y8614155D01*
X1206500Y8614155D01*
X1206500Y8614079D01*
X1208023Y8613825D01*
X1209547Y8613063D01*
X1210563Y8612047D01*
X1211326Y8610523D01*
X1211579Y8608999D01*
X1211579Y8405799D01*
X1211326Y8404275D01*
X1210563Y8402751D01*
X1209547Y8401735D01*
X1208023Y8400973D01*
X1206500Y8400719D01*
X1206500Y8400795D01*
X1003300Y8400795D01*
G37*
G01*
X1104900Y8157387D03*
G36*
X10369550Y3430270D02*
G01*
X10368025Y3430523D01*
X10366502Y3431286D01*
X10365486Y3432302D01*
X10364724Y3433826D01*
X10364470Y3435350D01*
X10364470Y3600450D01*
X10364724Y3601973D01*
X10365486Y3603497D01*
X10366502Y3604513D01*
X10368025Y3605276D01*
X10369550Y3605529D01*
X10534650Y3605529D01*
X10536174Y3605276D01*
X10537697Y3604513D01*
X10538713Y3603497D01*
X10539475Y3601973D01*
X10539729Y3600450D01*
X10539729Y3435350D01*
X10539475Y3433826D01*
X10538713Y3432302D01*
X10537697Y3431286D01*
X10536174Y3430523D01*
X10534650Y3430270D01*
G37*
D15*
G01*
X10198100Y3517900D03*
G01*
X10452100Y3771900D03*
G01*
X10198100Y3771900D03*
G01*
X10452100Y4025900D03*
G01*
X10198100Y4025900D03*
G01*
X10452100Y4279900D03*
G01*
X10198100Y4279900D03*
G01*
X10452100Y4533900D03*
G01*
X10198100Y4533900D03*
G36*
X10369550Y6605270D02*
G01*
X10368025Y6605523D01*
X10366502Y6606286D01*
X10365486Y6607302D01*
X10364724Y6608826D01*
X10364470Y6610350D01*
X10364470Y6775450D01*
X10364724Y6776973D01*
X10365486Y6778497D01*
X10366502Y6779513D01*
X10368025Y6780276D01*
X10369550Y6780529D01*
X10534650Y6780529D01*
X10536174Y6780276D01*
X10537697Y6779513D01*
X10538713Y6778497D01*
X10539475Y6776973D01*
X10539729Y6775450D01*
X10539729Y6610350D01*
X10539475Y6608826D01*
X10538713Y6607302D01*
X10537697Y6606286D01*
X10536174Y6605523D01*
X10534650Y6605270D01*
G37*
G01*
X10198100Y6692900D03*
G01*
X10452100Y6946900D03*
G01*
X10198100Y6946900D03*
G01*
X10452100Y7200900D03*
G01*
X10198100Y7200900D03*
G01*
X10452100Y7454900D03*
G01*
X10198100Y7454900D03*
G01*
X10452100Y7708900D03*
G01*
X10198100Y7708900D03*
D16*
G01*
X2451100Y9499600D03*
G01*
X2451100Y8483600D03*
D11*
G01*
X4381500Y4025900D03*
G01*
X3365500Y4025900D03*
G36*
X7476490Y6493510D02*
G01*
X7476500Y6493520D01*
X7474976Y6493774D01*
X7473452Y6494536D01*
X7472436Y6495552D01*
X7471674Y6497076D01*
X7471420Y6498600D01*
X7471409Y6498589D01*
X7471409Y6658610D01*
X7471420Y6658599D01*
X7471674Y6660123D01*
X7472436Y6661647D01*
X7473452Y6662663D01*
X7474976Y6663425D01*
X7476500Y6663679D01*
X7476490Y6663689D01*
X7636509Y6663689D01*
X7636499Y6663679D01*
X7638023Y6663425D01*
X7639547Y6662663D01*
X7640563Y6661647D01*
X7641325Y6660123D01*
X7641579Y6658599D01*
X7641590Y6658610D01*
X7641590Y6498589D01*
X7641579Y6498600D01*
X7641325Y6497076D01*
X7640563Y6495552D01*
X7639547Y6494536D01*
X7638023Y6493774D01*
X7636499Y6493520D01*
X7636509Y6493510D01*
G37*
D17*
G01*
X2616200Y4025900D03*
G36*
X2780207Y3925747D02*
G01*
X2777159Y3926255D01*
X2774111Y3927779D01*
X2772079Y3929811D01*
X2770555Y3932859D01*
X2770047Y3935907D01*
X2770124Y3935984D01*
X2770124Y4115815D01*
X2770047Y4115892D01*
X2770555Y4118940D01*
X2772079Y4121988D01*
X2774111Y4124020D01*
X2777159Y4125544D01*
X2780207Y4126052D01*
X2780284Y4125976D01*
X2960115Y4125976D01*
X2960192Y4126052D01*
X2963240Y4125544D01*
X2966288Y4124020D01*
X2968320Y4121988D01*
X2969844Y4118940D01*
X2970352Y4115892D01*
X2970275Y4115815D01*
X2970275Y3935984D01*
X2970352Y3935907D01*
X2969844Y3932859D01*
X2968320Y3929811D01*
X2966288Y3927779D01*
X2963240Y3926255D01*
X2960192Y3925747D01*
X2960115Y3925823D01*
X2780284Y3925823D01*
G37*
G36*
X3454400Y7965439D02*
G01*
X3451352Y7965947D01*
X3448304Y7967471D01*
X3446272Y7969504D01*
X3444747Y7972552D01*
X3444240Y7975600D01*
X3444240Y8128000D01*
X3444747Y8131047D01*
X3446272Y8134095D01*
X3448304Y8136128D01*
X3451352Y8137652D01*
X3454400Y8138160D01*
X3606800Y8138160D01*
X3609847Y8137652D01*
X3612895Y8136128D01*
X3614927Y8134095D01*
X3616452Y8131047D01*
X3616959Y8128000D01*
X3616959Y7975600D01*
X3616452Y7972552D01*
X3614927Y7969504D01*
X3612895Y7967471D01*
X3609847Y7965947D01*
X3606800Y7965439D01*
G37*
G36*
X3708400Y7965439D02*
G01*
X3705352Y7965947D01*
X3702304Y7967471D01*
X3700272Y7969504D01*
X3698747Y7972552D01*
X3698240Y7975600D01*
X3698240Y8128000D01*
X3698747Y8131047D01*
X3700272Y8134095D01*
X3702304Y8136128D01*
X3705352Y8137652D01*
X3708400Y8138160D01*
X3860800Y8138160D01*
X3863847Y8137652D01*
X3866895Y8136128D01*
X3868927Y8134095D01*
X3870452Y8131047D01*
X3870959Y8128000D01*
X3870959Y7975600D01*
X3870452Y7972552D01*
X3868927Y7969504D01*
X3866895Y7967471D01*
X3863847Y7965947D01*
X3860800Y7965439D01*
G37*
G36*
X3962400Y7965439D02*
G01*
X3959352Y7965947D01*
X3956304Y7967471D01*
X3954272Y7969504D01*
X3952747Y7972552D01*
X3952240Y7975600D01*
X3952240Y8128000D01*
X3952747Y8131047D01*
X3954272Y8134095D01*
X3956304Y8136128D01*
X3959352Y8137652D01*
X3962400Y8138160D01*
X4114800Y8138160D01*
X4117847Y8137652D01*
X4120895Y8136128D01*
X4122927Y8134095D01*
X4124452Y8131047D01*
X4124959Y8128000D01*
X4124959Y7975600D01*
X4124452Y7972552D01*
X4122927Y7969504D01*
X4120895Y7967471D01*
X4117847Y7965947D01*
X4114800Y7965439D01*
G37*
G36*
X2374900Y7965439D02*
G01*
X2371852Y7965947D01*
X2368804Y7967471D01*
X2366772Y7969504D01*
X2365247Y7972552D01*
X2364740Y7975600D01*
X2364740Y8128000D01*
X2365247Y8131047D01*
X2366772Y8134095D01*
X2368804Y8136128D01*
X2371852Y8137652D01*
X2374900Y8138160D01*
X2527300Y8138160D01*
X2530347Y8137652D01*
X2533395Y8136128D01*
X2535427Y8134095D01*
X2536952Y8131047D01*
X2537459Y8128000D01*
X2537459Y7975600D01*
X2536952Y7972552D01*
X2535427Y7969504D01*
X2533395Y7967471D01*
X2530347Y7965947D01*
X2527300Y7965439D01*
G37*
G36*
X2628900Y7965439D02*
G01*
X2625852Y7965947D01*
X2622804Y7967471D01*
X2620772Y7969504D01*
X2619247Y7972552D01*
X2618740Y7975600D01*
X2618740Y8128000D01*
X2619247Y8131047D01*
X2620772Y8134095D01*
X2622804Y8136128D01*
X2625852Y8137652D01*
X2628900Y8138160D01*
X2781300Y8138160D01*
X2784347Y8137652D01*
X2787395Y8136128D01*
X2789427Y8134095D01*
X2790952Y8131047D01*
X2791459Y8128000D01*
X2791459Y7975600D01*
X2790952Y7972552D01*
X2789427Y7969504D01*
X2787395Y7967471D01*
X2784347Y7965947D01*
X2781300Y7965439D01*
G37*
G36*
X2882900Y7965439D02*
G01*
X2879852Y7965947D01*
X2876804Y7967471D01*
X2874772Y7969504D01*
X2873247Y7972552D01*
X2872740Y7975600D01*
X2872740Y8128000D01*
X2873247Y8131047D01*
X2874772Y8134095D01*
X2876804Y8136128D01*
X2879852Y8137652D01*
X2882900Y8138160D01*
X3035300Y8138160D01*
X3038347Y8137652D01*
X3041395Y8136128D01*
X3043427Y8134095D01*
X3044952Y8131047D01*
X3045459Y8128000D01*
X3045459Y7975600D01*
X3044952Y7972552D01*
X3043427Y7969504D01*
X3041395Y7967471D01*
X3038347Y7965947D01*
X3035300Y7965439D01*
G37*
G36*
X3213100Y5539739D02*
G01*
X3210052Y5540247D01*
X3207004Y5541771D01*
X3204972Y5543804D01*
X3203447Y5546852D01*
X3202940Y5549900D01*
X3202940Y5702300D01*
X3203447Y5705347D01*
X3204972Y5708395D01*
X3207004Y5710428D01*
X3210052Y5711952D01*
X3213100Y5712460D01*
X3365500Y5712460D01*
X3368547Y5711952D01*
X3371595Y5710428D01*
X3373627Y5708395D01*
X3375152Y5705347D01*
X3375659Y5702300D01*
X3375659Y5549900D01*
X3375152Y5546852D01*
X3373627Y5543804D01*
X3371595Y5541771D01*
X3368547Y5540247D01*
X3365500Y5539739D01*
G37*
G36*
X2959100Y5539739D02*
G01*
X2956052Y5540247D01*
X2953004Y5541771D01*
X2950972Y5543804D01*
X2949447Y5546852D01*
X2948940Y5549900D01*
X2948940Y5702300D01*
X2949447Y5705347D01*
X2950972Y5708395D01*
X2953004Y5710428D01*
X2956052Y5711952D01*
X2959100Y5712460D01*
X3111500Y5712460D01*
X3114547Y5711952D01*
X3117595Y5710428D01*
X3119627Y5708395D01*
X3121152Y5705347D01*
X3121659Y5702300D01*
X3121659Y5549900D01*
X3121152Y5546852D01*
X3119627Y5543804D01*
X3117595Y5541771D01*
X3114547Y5540247D01*
X3111500Y5539739D01*
G37*
G36*
X2705100Y5539739D02*
G01*
X2702052Y5540247D01*
X2699004Y5541771D01*
X2696972Y5543804D01*
X2695447Y5546852D01*
X2694940Y5549900D01*
X2694940Y5702300D01*
X2695447Y5705347D01*
X2696972Y5708395D01*
X2699004Y5710428D01*
X2702052Y5711952D01*
X2705100Y5712460D01*
X2857500Y5712460D01*
X2860547Y5711952D01*
X2863595Y5710428D01*
X2865627Y5708395D01*
X2867152Y5705347D01*
X2867659Y5702300D01*
X2867659Y5549900D01*
X2867152Y5546852D01*
X2865627Y5543804D01*
X2863595Y5541771D01*
X2860547Y5540247D01*
X2857500Y5539739D01*
G37*
G36*
X3225800Y6123939D02*
G01*
X3222752Y6124447D01*
X3219704Y6125971D01*
X3217672Y6128004D01*
X3216147Y6131052D01*
X3215640Y6134100D01*
X3215640Y6286500D01*
X3216147Y6289547D01*
X3217672Y6292595D01*
X3219704Y6294628D01*
X3222752Y6296152D01*
X3225800Y6296660D01*
X3378200Y6296660D01*
X3381247Y6296152D01*
X3384295Y6294628D01*
X3386327Y6292595D01*
X3387852Y6289547D01*
X3388359Y6286500D01*
X3388359Y6134100D01*
X3387852Y6131052D01*
X3386327Y6128004D01*
X3384295Y6125971D01*
X3381247Y6124447D01*
X3378200Y6123939D01*
G37*
G36*
X2971800Y6123939D02*
G01*
X2968752Y6124447D01*
X2965704Y6125971D01*
X2963672Y6128004D01*
X2962147Y6131052D01*
X2961640Y6134100D01*
X2961640Y6286500D01*
X2962147Y6289547D01*
X2963672Y6292595D01*
X2965704Y6294628D01*
X2968752Y6296152D01*
X2971800Y6296660D01*
X3124200Y6296660D01*
X3127247Y6296152D01*
X3130295Y6294628D01*
X3132327Y6292595D01*
X3133852Y6289547D01*
X3134359Y6286500D01*
X3134359Y6134100D01*
X3133852Y6131052D01*
X3132327Y6128004D01*
X3130295Y6125971D01*
X3127247Y6124447D01*
X3124200Y6123939D01*
G37*
G36*
X2717800Y6123939D02*
G01*
X2714752Y6124447D01*
X2711704Y6125971D01*
X2709672Y6128004D01*
X2708147Y6131052D01*
X2707640Y6134100D01*
X2707640Y6286500D01*
X2708147Y6289547D01*
X2709672Y6292595D01*
X2711704Y6294628D01*
X2714752Y6296152D01*
X2717800Y6296660D01*
X2870200Y6296660D01*
X2873247Y6296152D01*
X2876295Y6294628D01*
X2878327Y6292595D01*
X2879852Y6289547D01*
X2880359Y6286500D01*
X2880359Y6134100D01*
X2879852Y6131052D01*
X2878327Y6128004D01*
X2876295Y6125971D01*
X2873247Y6124447D01*
X2870200Y6123939D01*
G37*
G36*
X3225800Y6708139D02*
G01*
X3222752Y6708647D01*
X3219704Y6710171D01*
X3217672Y6712204D01*
X3216147Y6715252D01*
X3215640Y6718300D01*
X3215640Y6870700D01*
X3216147Y6873747D01*
X3217672Y6876795D01*
X3219704Y6878828D01*
X3222752Y6880352D01*
X3225800Y6880860D01*
X3378200Y6880860D01*
X3381247Y6880352D01*
X3384295Y6878828D01*
X3386327Y6876795D01*
X3387852Y6873747D01*
X3388359Y6870700D01*
X3388359Y6718300D01*
X3387852Y6715252D01*
X3386327Y6712204D01*
X3384295Y6710171D01*
X3381247Y6708647D01*
X3378200Y6708139D01*
G37*
G36*
X2971800Y6708139D02*
G01*
X2968752Y6708647D01*
X2965704Y6710171D01*
X2963672Y6712204D01*
X2962147Y6715252D01*
X2961640Y6718300D01*
X2961640Y6870700D01*
X2962147Y6873747D01*
X2963672Y6876795D01*
X2965704Y6878828D01*
X2968752Y6880352D01*
X2971800Y6880860D01*
X3124200Y6880860D01*
X3127247Y6880352D01*
X3130295Y6878828D01*
X3132327Y6876795D01*
X3133852Y6873747D01*
X3134359Y6870700D01*
X3134359Y6718300D01*
X3133852Y6715252D01*
X3132327Y6712204D01*
X3130295Y6710171D01*
X3127247Y6708647D01*
X3124200Y6708139D01*
G37*
G36*
X2717800Y6708139D02*
G01*
X2714752Y6708647D01*
X2711704Y6710171D01*
X2709672Y6712204D01*
X2708147Y6715252D01*
X2707640Y6718300D01*
X2707640Y6870700D01*
X2708147Y6873747D01*
X2709672Y6876795D01*
X2711704Y6878828D01*
X2714752Y6880352D01*
X2717800Y6880860D01*
X2870200Y6880860D01*
X2873247Y6880352D01*
X2876295Y6878828D01*
X2878327Y6876795D01*
X2879852Y6873747D01*
X2880359Y6870700D01*
X2880359Y6718300D01*
X2879852Y6715252D01*
X2878327Y6712204D01*
X2876295Y6710171D01*
X2873247Y6708647D01*
X2870200Y6708139D01*
G37*
D16*
G01*
X5016500Y5384800D03*
G01*
X4000500Y5384800D03*
G01*
X3530600Y9486900D03*
G01*
X3530600Y8470900D03*
G36*
X8517890Y5472429D02*
G01*
X8514842Y5472937D01*
X8511794Y5474462D01*
X8509762Y5476494D01*
X8508238Y5479542D01*
X8507730Y5482589D01*
X8507729Y5482589D01*
X8507729Y5642610D01*
X8507730Y5642610D01*
X8508238Y5645657D01*
X8509762Y5648705D01*
X8511794Y5650737D01*
X8514842Y5652262D01*
X8517890Y5652770D01*
X8677909Y5652770D01*
X8680957Y5652262D01*
X8684005Y5650737D01*
X8686037Y5648705D01*
X8687561Y5645657D01*
X8688069Y5642610D01*
X8688070Y5642610D01*
X8688070Y5482589D01*
X8688069Y5482589D01*
X8687561Y5479542D01*
X8686037Y5476494D01*
X8684005Y5474462D01*
X8680957Y5472937D01*
X8677909Y5472429D01*
G37*
G36*
X8517890Y5218429D02*
G01*
X8514842Y5218937D01*
X8511794Y5220462D01*
X8509762Y5222494D01*
X8508238Y5225542D01*
X8507730Y5228589D01*
X8507729Y5228589D01*
X8507729Y5388610D01*
X8507730Y5388610D01*
X8508238Y5391657D01*
X8509762Y5394705D01*
X8511794Y5396737D01*
X8514842Y5398262D01*
X8517890Y5398770D01*
X8677909Y5398770D01*
X8680957Y5398262D01*
X8684005Y5396737D01*
X8686037Y5394705D01*
X8687561Y5391657D01*
X8688069Y5388610D01*
X8688070Y5388610D01*
X8688070Y5228589D01*
X8688069Y5228589D01*
X8687561Y5225542D01*
X8686037Y5222494D01*
X8684005Y5220462D01*
X8680957Y5218937D01*
X8677909Y5218429D01*
G37*
G36*
X8517890Y3948429D02*
G01*
X8514842Y3948937D01*
X8511794Y3950462D01*
X8509762Y3952494D01*
X8508238Y3955542D01*
X8507730Y3958589D01*
X8507729Y3958589D01*
X8507729Y4118610D01*
X8507730Y4118610D01*
X8508238Y4121657D01*
X8509762Y4124705D01*
X8511794Y4126737D01*
X8514842Y4128262D01*
X8517890Y4128770D01*
X8677909Y4128770D01*
X8680957Y4128262D01*
X8684005Y4126737D01*
X8686037Y4124705D01*
X8687561Y4121657D01*
X8688069Y4118610D01*
X8688070Y4118610D01*
X8688070Y3958589D01*
X8688069Y3958589D01*
X8687561Y3955542D01*
X8686037Y3952494D01*
X8684005Y3950462D01*
X8680957Y3948937D01*
X8677909Y3948429D01*
G37*
G36*
X8517890Y3694429D02*
G01*
X8514842Y3694937D01*
X8511794Y3696462D01*
X8509762Y3698494D01*
X8508238Y3701542D01*
X8507730Y3704589D01*
X8507729Y3704589D01*
X8507729Y3864610D01*
X8507730Y3864610D01*
X8508238Y3867657D01*
X8509762Y3870705D01*
X8511794Y3872737D01*
X8514842Y3874262D01*
X8517890Y3874770D01*
X8677909Y3874770D01*
X8680957Y3874262D01*
X8684005Y3872737D01*
X8686037Y3870705D01*
X8687561Y3867657D01*
X8688069Y3864610D01*
X8688070Y3864610D01*
X8688070Y3704589D01*
X8688069Y3704589D01*
X8687561Y3701542D01*
X8686037Y3698494D01*
X8684005Y3696462D01*
X8680957Y3694937D01*
X8677909Y3694429D01*
G37*
G36*
X8517890Y4964429D02*
G01*
X8514842Y4964937D01*
X8511794Y4966462D01*
X8509762Y4968494D01*
X8508238Y4971542D01*
X8507730Y4974589D01*
X8507729Y4974589D01*
X8507729Y5134610D01*
X8507730Y5134610D01*
X8508238Y5137657D01*
X8509762Y5140705D01*
X8511794Y5142737D01*
X8514842Y5144262D01*
X8517890Y5144770D01*
X8677909Y5144770D01*
X8680957Y5144262D01*
X8684005Y5142737D01*
X8686037Y5140705D01*
X8687561Y5137657D01*
X8688069Y5134610D01*
X8688070Y5134610D01*
X8688070Y4974589D01*
X8688069Y4974589D01*
X8687561Y4971542D01*
X8686037Y4968494D01*
X8684005Y4966462D01*
X8680957Y4964937D01*
X8677909Y4964429D01*
G37*
G36*
X8517890Y4710429D02*
G01*
X8514842Y4710937D01*
X8511794Y4712462D01*
X8509762Y4714494D01*
X8508238Y4717542D01*
X8507730Y4720589D01*
X8507729Y4720589D01*
X8507729Y4880610D01*
X8507730Y4880610D01*
X8508238Y4883657D01*
X8509762Y4886705D01*
X8511794Y4888737D01*
X8514842Y4890262D01*
X8517890Y4890770D01*
X8677909Y4890770D01*
X8680957Y4890262D01*
X8684005Y4888737D01*
X8686037Y4886705D01*
X8687561Y4883657D01*
X8688069Y4880610D01*
X8688070Y4880610D01*
X8688070Y4720589D01*
X8688069Y4720589D01*
X8687561Y4717542D01*
X8686037Y4714494D01*
X8684005Y4712462D01*
X8680957Y4710937D01*
X8677909Y4710429D01*
G37*
G36*
X8517890Y4202429D02*
G01*
X8514842Y4202937D01*
X8511794Y4204462D01*
X8509762Y4206494D01*
X8508238Y4209542D01*
X8507730Y4212589D01*
X8507729Y4212589D01*
X8507729Y4372610D01*
X8507730Y4372610D01*
X8508238Y4375657D01*
X8509762Y4378705D01*
X8511794Y4380737D01*
X8514842Y4382262D01*
X8517890Y4382770D01*
X8677909Y4382770D01*
X8680957Y4382262D01*
X8684005Y4380737D01*
X8686037Y4378705D01*
X8687561Y4375657D01*
X8688069Y4372610D01*
X8688070Y4372610D01*
X8688070Y4212589D01*
X8688069Y4212589D01*
X8687561Y4209542D01*
X8686037Y4206494D01*
X8684005Y4204462D01*
X8680957Y4202937D01*
X8677909Y4202429D01*
G37*
G36*
X8517890Y4456429D02*
G01*
X8514842Y4456937D01*
X8511794Y4458462D01*
X8509762Y4460494D01*
X8508238Y4463542D01*
X8507730Y4466589D01*
X8507729Y4466589D01*
X8507729Y4626610D01*
X8507730Y4626610D01*
X8508238Y4629657D01*
X8509762Y4632705D01*
X8511794Y4634737D01*
X8514842Y4636262D01*
X8517890Y4636770D01*
X8677909Y4636770D01*
X8680957Y4636262D01*
X8684005Y4634737D01*
X8686037Y4632705D01*
X8687561Y4629657D01*
X8688069Y4626610D01*
X8688070Y4626610D01*
X8688070Y4466589D01*
X8688069Y4466589D01*
X8687561Y4463542D01*
X8686037Y4460494D01*
X8684005Y4458462D01*
X8680957Y4456937D01*
X8677909Y4456429D01*
G37*
G36*
X8517890Y3440429D02*
G01*
X8514842Y3440937D01*
X8511794Y3442462D01*
X8509762Y3444494D01*
X8508238Y3447542D01*
X8507730Y3450589D01*
X8507729Y3450589D01*
X8507729Y3610610D01*
X8507730Y3610610D01*
X8508238Y3613657D01*
X8509762Y3616705D01*
X8511794Y3618737D01*
X8514842Y3620262D01*
X8517890Y3620770D01*
X8677909Y3620770D01*
X8680957Y3620262D01*
X8684005Y3618737D01*
X8686037Y3616705D01*
X8687561Y3613657D01*
X8688069Y3610610D01*
X8688070Y3610610D01*
X8688070Y3450589D01*
X8688069Y3450589D01*
X8687561Y3447542D01*
X8686037Y3444494D01*
X8684005Y3442462D01*
X8680957Y3440937D01*
X8677909Y3440429D01*
G37*
G36*
X9279890Y3440429D02*
G01*
X9276842Y3440937D01*
X9273794Y3442462D01*
X9271762Y3444494D01*
X9270238Y3447542D01*
X9269730Y3450589D01*
X9269729Y3450589D01*
X9269729Y3610610D01*
X9269730Y3610610D01*
X9270238Y3613657D01*
X9271762Y3616705D01*
X9273794Y3618737D01*
X9276842Y3620262D01*
X9279890Y3620770D01*
X9439909Y3620770D01*
X9442957Y3620262D01*
X9446005Y3618737D01*
X9448037Y3616705D01*
X9449561Y3613657D01*
X9450069Y3610610D01*
X9450070Y3610610D01*
X9450070Y3450589D01*
X9450069Y3450589D01*
X9449561Y3447542D01*
X9448037Y3444494D01*
X9446005Y3442462D01*
X9442957Y3440937D01*
X9439909Y3440429D01*
G37*
G36*
X9279890Y3694429D02*
G01*
X9276842Y3694937D01*
X9273794Y3696462D01*
X9271762Y3698494D01*
X9270238Y3701542D01*
X9269730Y3704589D01*
X9269729Y3704589D01*
X9269729Y3864610D01*
X9269730Y3864610D01*
X9270238Y3867657D01*
X9271762Y3870705D01*
X9273794Y3872737D01*
X9276842Y3874262D01*
X9279890Y3874770D01*
X9439909Y3874770D01*
X9442957Y3874262D01*
X9446005Y3872737D01*
X9448037Y3870705D01*
X9449561Y3867657D01*
X9450069Y3864610D01*
X9450070Y3864610D01*
X9450070Y3704589D01*
X9450069Y3704589D01*
X9449561Y3701542D01*
X9448037Y3698494D01*
X9446005Y3696462D01*
X9442957Y3694937D01*
X9439909Y3694429D01*
G37*
G36*
X9279890Y3948429D02*
G01*
X9276842Y3948937D01*
X9273794Y3950462D01*
X9271762Y3952494D01*
X9270238Y3955542D01*
X9269730Y3958589D01*
X9269729Y3958589D01*
X9269729Y4118610D01*
X9269730Y4118610D01*
X9270238Y4121657D01*
X9271762Y4124705D01*
X9273794Y4126737D01*
X9276842Y4128262D01*
X9279890Y4128770D01*
X9439909Y4128770D01*
X9442957Y4128262D01*
X9446005Y4126737D01*
X9448037Y4124705D01*
X9449561Y4121657D01*
X9450069Y4118610D01*
X9450070Y4118610D01*
X9450070Y3958589D01*
X9450069Y3958589D01*
X9449561Y3955542D01*
X9448037Y3952494D01*
X9446005Y3950462D01*
X9442957Y3948937D01*
X9439909Y3948429D01*
G37*
G36*
X9279890Y4202429D02*
G01*
X9276842Y4202937D01*
X9273794Y4204462D01*
X9271762Y4206494D01*
X9270238Y4209542D01*
X9269730Y4212589D01*
X9269729Y4212589D01*
X9269729Y4372610D01*
X9269730Y4372610D01*
X9270238Y4375657D01*
X9271762Y4378705D01*
X9273794Y4380737D01*
X9276842Y4382262D01*
X9279890Y4382770D01*
X9439909Y4382770D01*
X9442957Y4382262D01*
X9446005Y4380737D01*
X9448037Y4378705D01*
X9449561Y4375657D01*
X9450069Y4372610D01*
X9450070Y4372610D01*
X9450070Y4212589D01*
X9450069Y4212589D01*
X9449561Y4209542D01*
X9448037Y4206494D01*
X9446005Y4204462D01*
X9442957Y4202937D01*
X9439909Y4202429D01*
G37*
G36*
X9279890Y4456429D02*
G01*
X9276842Y4456937D01*
X9273794Y4458462D01*
X9271762Y4460494D01*
X9270238Y4463542D01*
X9269730Y4466589D01*
X9269729Y4466589D01*
X9269729Y4626610D01*
X9269730Y4626610D01*
X9270238Y4629657D01*
X9271762Y4632705D01*
X9273794Y4634737D01*
X9276842Y4636262D01*
X9279890Y4636770D01*
X9439909Y4636770D01*
X9442957Y4636262D01*
X9446005Y4634737D01*
X9448037Y4632705D01*
X9449561Y4629657D01*
X9450069Y4626610D01*
X9450070Y4626610D01*
X9450070Y4466589D01*
X9450069Y4466589D01*
X9449561Y4463542D01*
X9448037Y4460494D01*
X9446005Y4458462D01*
X9442957Y4456937D01*
X9439909Y4456429D01*
G37*
G36*
X9279890Y4710429D02*
G01*
X9276842Y4710937D01*
X9273794Y4712462D01*
X9271762Y4714494D01*
X9270238Y4717542D01*
X9269730Y4720589D01*
X9269729Y4720589D01*
X9269729Y4880610D01*
X9269730Y4880610D01*
X9270238Y4883657D01*
X9271762Y4886705D01*
X9273794Y4888737D01*
X9276842Y4890262D01*
X9279890Y4890770D01*
X9439909Y4890770D01*
X9442957Y4890262D01*
X9446005Y4888737D01*
X9448037Y4886705D01*
X9449561Y4883657D01*
X9450069Y4880610D01*
X9450070Y4880610D01*
X9450070Y4720589D01*
X9450069Y4720589D01*
X9449561Y4717542D01*
X9448037Y4714494D01*
X9446005Y4712462D01*
X9442957Y4710937D01*
X9439909Y4710429D01*
G37*
G36*
X9279890Y4964429D02*
G01*
X9276842Y4964937D01*
X9273794Y4966462D01*
X9271762Y4968494D01*
X9270238Y4971542D01*
X9269730Y4974589D01*
X9269729Y4974589D01*
X9269729Y5134610D01*
X9269730Y5134610D01*
X9270238Y5137657D01*
X9271762Y5140705D01*
X9273794Y5142737D01*
X9276842Y5144262D01*
X9279890Y5144770D01*
X9439909Y5144770D01*
X9442957Y5144262D01*
X9446005Y5142737D01*
X9448037Y5140705D01*
X9449561Y5137657D01*
X9450069Y5134610D01*
X9450070Y5134610D01*
X9450070Y4974589D01*
X9450069Y4974589D01*
X9449561Y4971542D01*
X9448037Y4968494D01*
X9446005Y4966462D01*
X9442957Y4964937D01*
X9439909Y4964429D01*
G37*
G36*
X9279890Y5218429D02*
G01*
X9276842Y5218937D01*
X9273794Y5220462D01*
X9271762Y5222494D01*
X9270238Y5225542D01*
X9269730Y5228589D01*
X9269729Y5228589D01*
X9269729Y5388610D01*
X9269730Y5388610D01*
X9270238Y5391657D01*
X9271762Y5394705D01*
X9273794Y5396737D01*
X9276842Y5398262D01*
X9279890Y5398770D01*
X9439909Y5398770D01*
X9442957Y5398262D01*
X9446005Y5396737D01*
X9448037Y5394705D01*
X9449561Y5391657D01*
X9450069Y5388610D01*
X9450070Y5388610D01*
X9450070Y5228589D01*
X9450069Y5228589D01*
X9449561Y5225542D01*
X9448037Y5222494D01*
X9446005Y5220462D01*
X9442957Y5218937D01*
X9439909Y5218429D01*
G37*
G36*
X9279890Y5472429D02*
G01*
X9276842Y5472937D01*
X9273794Y5474462D01*
X9271762Y5476494D01*
X9270238Y5479542D01*
X9269730Y5482589D01*
X9269729Y5482589D01*
X9269729Y5642610D01*
X9269730Y5642610D01*
X9270238Y5645657D01*
X9271762Y5648705D01*
X9273794Y5650737D01*
X9276842Y5652262D01*
X9279890Y5652770D01*
X9439909Y5652770D01*
X9442957Y5652262D01*
X9446005Y5650737D01*
X9448037Y5648705D01*
X9449561Y5645657D01*
X9450069Y5642610D01*
X9450070Y5642610D01*
X9450070Y5482589D01*
X9450069Y5482589D01*
X9449561Y5479542D01*
X9448037Y5476494D01*
X9446005Y5474462D01*
X9442957Y5472937D01*
X9439909Y5472429D01*
G37*
G36*
X8517890Y8672829D02*
G01*
X8514842Y8673337D01*
X8511794Y8674862D01*
X8509762Y8676894D01*
X8508238Y8679942D01*
X8507730Y8682989D01*
X8507729Y8682989D01*
X8507729Y8843010D01*
X8507730Y8843010D01*
X8508238Y8846058D01*
X8509762Y8849105D01*
X8511794Y8851137D01*
X8514842Y8852662D01*
X8517890Y8853170D01*
X8677909Y8853170D01*
X8680957Y8852662D01*
X8684005Y8851137D01*
X8686037Y8849105D01*
X8687561Y8846058D01*
X8688069Y8843010D01*
X8688070Y8843010D01*
X8688070Y8682989D01*
X8688069Y8682989D01*
X8687561Y8679942D01*
X8686037Y8676894D01*
X8684005Y8674862D01*
X8680957Y8673337D01*
X8677909Y8672829D01*
G37*
G36*
X8517890Y8418829D02*
G01*
X8514842Y8419337D01*
X8511794Y8420862D01*
X8509762Y8422894D01*
X8508238Y8425942D01*
X8507730Y8428989D01*
X8507729Y8428989D01*
X8507729Y8589010D01*
X8507730Y8589010D01*
X8508238Y8592058D01*
X8509762Y8595105D01*
X8511794Y8597137D01*
X8514842Y8598662D01*
X8517890Y8599170D01*
X8677909Y8599170D01*
X8680957Y8598662D01*
X8684005Y8597137D01*
X8686037Y8595105D01*
X8687561Y8592058D01*
X8688069Y8589010D01*
X8688070Y8589010D01*
X8688070Y8428989D01*
X8688069Y8428989D01*
X8687561Y8425942D01*
X8686037Y8422894D01*
X8684005Y8420862D01*
X8680957Y8419337D01*
X8677909Y8418829D01*
G37*
G36*
X8517890Y7148829D02*
G01*
X8514842Y7149337D01*
X8511794Y7150862D01*
X8509762Y7152894D01*
X8508238Y7155942D01*
X8507730Y7158989D01*
X8507729Y7158989D01*
X8507729Y7319010D01*
X8507730Y7319010D01*
X8508238Y7322058D01*
X8509762Y7325105D01*
X8511794Y7327137D01*
X8514842Y7328662D01*
X8517890Y7329170D01*
X8677909Y7329170D01*
X8680957Y7328662D01*
X8684005Y7327137D01*
X8686037Y7325105D01*
X8687561Y7322058D01*
X8688069Y7319010D01*
X8688070Y7319010D01*
X8688070Y7158989D01*
X8688069Y7158989D01*
X8687561Y7155942D01*
X8686037Y7152894D01*
X8684005Y7150862D01*
X8680957Y7149337D01*
X8677909Y7148829D01*
G37*
G36*
X8517890Y6894829D02*
G01*
X8514842Y6895337D01*
X8511794Y6896862D01*
X8509762Y6898894D01*
X8508238Y6901942D01*
X8507730Y6904989D01*
X8507729Y6904989D01*
X8507729Y7065010D01*
X8507730Y7065010D01*
X8508238Y7068058D01*
X8509762Y7071105D01*
X8511794Y7073137D01*
X8514842Y7074662D01*
X8517890Y7075170D01*
X8677909Y7075170D01*
X8680957Y7074662D01*
X8684005Y7073137D01*
X8686037Y7071105D01*
X8687561Y7068058D01*
X8688069Y7065010D01*
X8688070Y7065010D01*
X8688070Y6904989D01*
X8688069Y6904989D01*
X8687561Y6901942D01*
X8686037Y6898894D01*
X8684005Y6896862D01*
X8680957Y6895337D01*
X8677909Y6894829D01*
G37*
G36*
X8517890Y8164829D02*
G01*
X8514842Y8165337D01*
X8511794Y8166862D01*
X8509762Y8168894D01*
X8508238Y8171942D01*
X8507730Y8174989D01*
X8507729Y8174989D01*
X8507729Y8335010D01*
X8507730Y8335010D01*
X8508238Y8338058D01*
X8509762Y8341105D01*
X8511794Y8343137D01*
X8514842Y8344662D01*
X8517890Y8345170D01*
X8677909Y8345170D01*
X8680957Y8344662D01*
X8684005Y8343137D01*
X8686037Y8341105D01*
X8687561Y8338058D01*
X8688069Y8335010D01*
X8688070Y8335010D01*
X8688070Y8174989D01*
X8688069Y8174989D01*
X8687561Y8171942D01*
X8686037Y8168894D01*
X8684005Y8166862D01*
X8680957Y8165337D01*
X8677909Y8164829D01*
G37*
G36*
X8517890Y7910829D02*
G01*
X8514842Y7911337D01*
X8511794Y7912862D01*
X8509762Y7914894D01*
X8508238Y7917942D01*
X8507730Y7920989D01*
X8507729Y7920989D01*
X8507729Y8081010D01*
X8507730Y8081010D01*
X8508238Y8084058D01*
X8509762Y8087105D01*
X8511794Y8089137D01*
X8514842Y8090662D01*
X8517890Y8091170D01*
X8677909Y8091170D01*
X8680957Y8090662D01*
X8684005Y8089137D01*
X8686037Y8087105D01*
X8687561Y8084058D01*
X8688069Y8081010D01*
X8688070Y8081010D01*
X8688070Y7920989D01*
X8688069Y7920989D01*
X8687561Y7917942D01*
X8686037Y7914894D01*
X8684005Y7912862D01*
X8680957Y7911337D01*
X8677909Y7910829D01*
G37*
G36*
X8517890Y7402829D02*
G01*
X8514842Y7403337D01*
X8511794Y7404862D01*
X8509762Y7406894D01*
X8508238Y7409942D01*
X8507730Y7412989D01*
X8507729Y7412989D01*
X8507729Y7573010D01*
X8507730Y7573010D01*
X8508238Y7576058D01*
X8509762Y7579105D01*
X8511794Y7581137D01*
X8514842Y7582662D01*
X8517890Y7583170D01*
X8677909Y7583170D01*
X8680957Y7582662D01*
X8684005Y7581137D01*
X8686037Y7579105D01*
X8687561Y7576058D01*
X8688069Y7573010D01*
X8688070Y7573010D01*
X8688070Y7412989D01*
X8688069Y7412989D01*
X8687561Y7409942D01*
X8686037Y7406894D01*
X8684005Y7404862D01*
X8680957Y7403337D01*
X8677909Y7402829D01*
G37*
G36*
X8517890Y7656829D02*
G01*
X8514842Y7657337D01*
X8511794Y7658862D01*
X8509762Y7660894D01*
X8508238Y7663942D01*
X8507730Y7666989D01*
X8507729Y7666989D01*
X8507729Y7827010D01*
X8507730Y7827010D01*
X8508238Y7830058D01*
X8509762Y7833105D01*
X8511794Y7835137D01*
X8514842Y7836662D01*
X8517890Y7837170D01*
X8677909Y7837170D01*
X8680957Y7836662D01*
X8684005Y7835137D01*
X8686037Y7833105D01*
X8687561Y7830058D01*
X8688069Y7827010D01*
X8688070Y7827010D01*
X8688070Y7666989D01*
X8688069Y7666989D01*
X8687561Y7663942D01*
X8686037Y7660894D01*
X8684005Y7658862D01*
X8680957Y7657337D01*
X8677909Y7656829D01*
G37*
G36*
X8517890Y6640829D02*
G01*
X8514842Y6641337D01*
X8511794Y6642862D01*
X8509762Y6644894D01*
X8508238Y6647942D01*
X8507730Y6650989D01*
X8507729Y6650989D01*
X8507729Y6811010D01*
X8507730Y6811010D01*
X8508238Y6814058D01*
X8509762Y6817105D01*
X8511794Y6819137D01*
X8514842Y6820662D01*
X8517890Y6821170D01*
X8677909Y6821170D01*
X8680957Y6820662D01*
X8684005Y6819137D01*
X8686037Y6817105D01*
X8687561Y6814058D01*
X8688069Y6811010D01*
X8688070Y6811010D01*
X8688070Y6650989D01*
X8688069Y6650989D01*
X8687561Y6647942D01*
X8686037Y6644894D01*
X8684005Y6642862D01*
X8680957Y6641337D01*
X8677909Y6640829D01*
G37*
G36*
X9279890Y6640829D02*
G01*
X9276842Y6641337D01*
X9273794Y6642862D01*
X9271762Y6644894D01*
X9270238Y6647942D01*
X9269730Y6650989D01*
X9269729Y6650989D01*
X9269729Y6811010D01*
X9269730Y6811010D01*
X9270238Y6814058D01*
X9271762Y6817105D01*
X9273794Y6819137D01*
X9276842Y6820662D01*
X9279890Y6821170D01*
X9439909Y6821170D01*
X9442957Y6820662D01*
X9446005Y6819137D01*
X9448037Y6817105D01*
X9449561Y6814058D01*
X9450069Y6811010D01*
X9450070Y6811010D01*
X9450070Y6650989D01*
X9450069Y6650989D01*
X9449561Y6647942D01*
X9448037Y6644894D01*
X9446005Y6642862D01*
X9442957Y6641337D01*
X9439909Y6640829D01*
G37*
G36*
X9279890Y6894829D02*
G01*
X9276842Y6895337D01*
X9273794Y6896862D01*
X9271762Y6898894D01*
X9270238Y6901942D01*
X9269730Y6904989D01*
X9269729Y6904989D01*
X9269729Y7065010D01*
X9269730Y7065010D01*
X9270238Y7068058D01*
X9271762Y7071105D01*
X9273794Y7073137D01*
X9276842Y7074662D01*
X9279890Y7075170D01*
X9439909Y7075170D01*
X9442957Y7074662D01*
X9446005Y7073137D01*
X9448037Y7071105D01*
X9449561Y7068058D01*
X9450069Y7065010D01*
X9450070Y7065010D01*
X9450070Y6904989D01*
X9450069Y6904989D01*
X9449561Y6901942D01*
X9448037Y6898894D01*
X9446005Y6896862D01*
X9442957Y6895337D01*
X9439909Y6894829D01*
G37*
G36*
X9279890Y7148829D02*
G01*
X9276842Y7149337D01*
X9273794Y7150862D01*
X9271762Y7152894D01*
X9270238Y7155942D01*
X9269730Y7158989D01*
X9269729Y7158989D01*
X9269729Y7319010D01*
X9269730Y7319010D01*
X9270238Y7322058D01*
X9271762Y7325105D01*
X9273794Y7327137D01*
X9276842Y7328662D01*
X9279890Y7329170D01*
X9439909Y7329170D01*
X9442957Y7328662D01*
X9446005Y7327137D01*
X9448037Y7325105D01*
X9449561Y7322058D01*
X9450069Y7319010D01*
X9450070Y7319010D01*
X9450070Y7158989D01*
X9450069Y7158989D01*
X9449561Y7155942D01*
X9448037Y7152894D01*
X9446005Y7150862D01*
X9442957Y7149337D01*
X9439909Y7148829D01*
G37*
G36*
X9279890Y7402829D02*
G01*
X9276842Y7403337D01*
X9273794Y7404862D01*
X9271762Y7406894D01*
X9270238Y7409942D01*
X9269730Y7412989D01*
X9269729Y7412989D01*
X9269729Y7573010D01*
X9269730Y7573010D01*
X9270238Y7576058D01*
X9271762Y7579105D01*
X9273794Y7581137D01*
X9276842Y7582662D01*
X9279890Y7583170D01*
X9439909Y7583170D01*
X9442957Y7582662D01*
X9446005Y7581137D01*
X9448037Y7579105D01*
X9449561Y7576058D01*
X9450069Y7573010D01*
X9450070Y7573010D01*
X9450070Y7412989D01*
X9450069Y7412989D01*
X9449561Y7409942D01*
X9448037Y7406894D01*
X9446005Y7404862D01*
X9442957Y7403337D01*
X9439909Y7402829D01*
G37*
G36*
X9279890Y7656829D02*
G01*
X9276842Y7657337D01*
X9273794Y7658862D01*
X9271762Y7660894D01*
X9270238Y7663942D01*
X9269730Y7666989D01*
X9269729Y7666989D01*
X9269729Y7827010D01*
X9269730Y7827010D01*
X9270238Y7830058D01*
X9271762Y7833105D01*
X9273794Y7835137D01*
X9276842Y7836662D01*
X9279890Y7837170D01*
X9439909Y7837170D01*
X9442957Y7836662D01*
X9446005Y7835137D01*
X9448037Y7833105D01*
X9449561Y7830058D01*
X9450069Y7827010D01*
X9450070Y7827010D01*
X9450070Y7666989D01*
X9450069Y7666989D01*
X9449561Y7663942D01*
X9448037Y7660894D01*
X9446005Y7658862D01*
X9442957Y7657337D01*
X9439909Y7656829D01*
G37*
G36*
X9279890Y7910829D02*
G01*
X9276842Y7911337D01*
X9273794Y7912862D01*
X9271762Y7914894D01*
X9270238Y7917942D01*
X9269730Y7920989D01*
X9269729Y7920989D01*
X9269729Y8081010D01*
X9269730Y8081010D01*
X9270238Y8084058D01*
X9271762Y8087105D01*
X9273794Y8089137D01*
X9276842Y8090662D01*
X9279890Y8091170D01*
X9439909Y8091170D01*
X9442957Y8090662D01*
X9446005Y8089137D01*
X9448037Y8087105D01*
X9449561Y8084058D01*
X9450069Y8081010D01*
X9450070Y8081010D01*
X9450070Y7920989D01*
X9450069Y7920989D01*
X9449561Y7917942D01*
X9448037Y7914894D01*
X9446005Y7912862D01*
X9442957Y7911337D01*
X9439909Y7910829D01*
G37*
G36*
X9279890Y8164829D02*
G01*
X9276842Y8165337D01*
X9273794Y8166862D01*
X9271762Y8168894D01*
X9270238Y8171942D01*
X9269730Y8174989D01*
X9269729Y8174989D01*
X9269729Y8335010D01*
X9269730Y8335010D01*
X9270238Y8338058D01*
X9271762Y8341105D01*
X9273794Y8343137D01*
X9276842Y8344662D01*
X9279890Y8345170D01*
X9439909Y8345170D01*
X9442957Y8344662D01*
X9446005Y8343137D01*
X9448037Y8341105D01*
X9449561Y8338058D01*
X9450069Y8335010D01*
X9450070Y8335010D01*
X9450070Y8174989D01*
X9450069Y8174989D01*
X9449561Y8171942D01*
X9448037Y8168894D01*
X9446005Y8166862D01*
X9442957Y8165337D01*
X9439909Y8164829D01*
G37*
G36*
X9279890Y8418829D02*
G01*
X9276842Y8419337D01*
X9273794Y8420862D01*
X9271762Y8422894D01*
X9270238Y8425942D01*
X9269730Y8428989D01*
X9269729Y8428989D01*
X9269729Y8589010D01*
X9269730Y8589010D01*
X9270238Y8592058D01*
X9271762Y8595105D01*
X9273794Y8597137D01*
X9276842Y8598662D01*
X9279890Y8599170D01*
X9439909Y8599170D01*
X9442957Y8598662D01*
X9446005Y8597137D01*
X9448037Y8595105D01*
X9449561Y8592058D01*
X9450069Y8589010D01*
X9450070Y8589010D01*
X9450070Y8428989D01*
X9450069Y8428989D01*
X9449561Y8425942D01*
X9448037Y8422894D01*
X9446005Y8420862D01*
X9442957Y8419337D01*
X9439909Y8418829D01*
G37*
G36*
X9279890Y8672829D02*
G01*
X9276842Y8673337D01*
X9273794Y8674862D01*
X9271762Y8676894D01*
X9270238Y8679942D01*
X9269730Y8682989D01*
X9269729Y8682989D01*
X9269729Y8843010D01*
X9269730Y8843010D01*
X9270238Y8846058D01*
X9271762Y8849105D01*
X9273794Y8851137D01*
X9276842Y8852662D01*
X9279890Y8853170D01*
X9439909Y8853170D01*
X9442957Y8852662D01*
X9446005Y8851137D01*
X9448037Y8849105D01*
X9449561Y8846058D01*
X9450069Y8843010D01*
X9450070Y8843010D01*
X9450070Y8682989D01*
X9450069Y8682989D01*
X9449561Y8679942D01*
X9448037Y8676894D01*
X9446005Y8674862D01*
X9442957Y8673337D01*
X9439909Y8672829D01*
G37*
D13*
G01*
X6578600Y8445500D03*
G01*
X6832600Y8445500D03*
D18*
G01*
X4610100Y8236534D03*
G01*
X4608296Y9236532D03*
G36*
X6326124Y9199371D02*
G01*
X6323076Y9199879D01*
X6320028Y9201404D01*
X6317996Y9203436D01*
X6316472Y9206484D01*
X6315964Y9209531D01*
X6315963Y9209531D01*
X6315963Y9459468D01*
X6315964Y9459468D01*
X6316472Y9462515D01*
X6317996Y9465563D01*
X6320028Y9467595D01*
X6323076Y9469120D01*
X6326124Y9469628D01*
X6526275Y9469628D01*
X6529323Y9469120D01*
X6532371Y9467595D01*
X6534403Y9465563D01*
X6535927Y9462515D01*
X6536435Y9459468D01*
X6536436Y9459468D01*
X6536436Y9209531D01*
X6536435Y9209531D01*
X6535927Y9206484D01*
X6534403Y9203436D01*
X6532371Y9201404D01*
X6529323Y9199879D01*
X6526275Y9199371D01*
G37*
D19*
G01*
X7581900Y9372600D03*
G01*
X7581900Y9118600D03*
D18*
G01*
X5041900Y8236534D03*
G01*
X5040096Y9236532D03*
D20*
G01*
X4610100Y7747000D03*
G01*
X4610100Y6985000D03*
M02*
